<?xml version="1.0" encoding="UTF-8" standalone="no"?>
<!DOCTYPE svg PUBLIC "-//W3C//DTD SVG 1.1//EN" "http://www.w3.org/Graphics/SVG/1.1/DTD/svg11.dtd">
<svg width="100%" height="100%" viewBox="0 0 32 32" version="1.1" xmlns="http://www.w3.org/2000/svg" xmlns:xlink="http://www.w3.org/1999/xlink" xml:space="preserve" xmlns:serif="http://www.serif.com/" style="fill-rule:evenodd;clip-rule:evenodd;stroke-linejoin:round;stroke-miterlimit:1.41421;">
    <g id="Main">
        <path d="M18.962,3.775L16.962,10.775L15.038,10.225L17.038,3.225L18.962,3.775Z"/>
        <path d="M11.074,6.918L11.189,6.92L11.304,6.925L11.418,6.932L11.532,6.94L11.646,6.95L11.759,6.962L11.871,6.976L11.983,6.992L12.094,7.009L12.205,7.028L12.315,7.049L12.425,7.072L12.534,7.096L12.642,7.122L12.75,7.15L12.857,7.179L12.963,7.211L13.069,7.243L13.174,7.278L13.278,7.313L13.381,7.351L13.484,7.39L13.586,7.431L13.687,7.473L13.787,7.517L13.886,7.562L13.985,7.609L14.083,7.657L14.179,7.707L14.275,7.758L14.37,7.81L14.464,7.864L14.557,7.92L14.65,7.977L14.741,8.035L14.831,8.094L14.92,8.155L15.008,8.218L15.096,8.281L15.182,8.346L15.267,8.412L15.351,8.48L15.434,8.548L15.516,8.618L15.597,8.689L15.676,8.762L15.755,8.835L15.832,8.91L15.908,8.986L15.983,9.063L16,9.081L16.056,9.022L16.124,8.953L16.194,8.885L16.264,8.818L16.335,8.752L16.407,8.687L16.479,8.622L16.553,8.559L16.628,8.497L16.703,8.436L16.78,8.376L16.857,8.317L16.935,8.258L17.014,8.201L17.094,8.146L17.174,8.091L17.256,8.037L17.332,7.988L18.41,9.673L18.346,9.714L18.288,9.752L18.23,9.791L18.173,9.831L18.117,9.872L18.061,9.913L18.006,9.956L17.952,9.999L17.898,10.042L17.844,10.087L17.792,10.132L17.74,10.178L17.688,10.224L17.637,10.272L17.587,10.32L17.538,10.368L17.489,10.418L17.441,10.468L17.394,10.518L17.347,10.57L17.301,10.622L17.256,10.674L17.212,10.728L17.168,10.781L17.125,10.836L17.083,10.891L17.041,10.947L17.001,11.003L16.961,11.06L16.921,11.117L16.883,11.175L16.226,12.2L15.775,12.2L15.113,11.169L15.07,11.105L15.026,11.041L14.982,10.978L14.936,10.916L14.89,10.855L14.842,10.794L14.794,10.735L14.745,10.675L14.695,10.617L14.644,10.56L14.592,10.503L14.539,10.447L14.485,10.392L14.431,10.337L14.376,10.284L14.32,10.231L14.263,10.18L14.205,10.129L14.146,10.079L14.087,10.03L14.027,9.982L13.966,9.934L13.905,9.888L13.843,9.843L13.78,9.798L13.716,9.755L13.652,9.712L13.587,9.671L13.521,9.63L13.455,9.591L13.388,9.552L13.32,9.515L13.252,9.479L13.183,9.443L13.113,9.409L13.043,9.376L12.973,9.343L12.901,9.312L12.829,9.282L12.757,9.253L12.684,9.226L12.611,9.199L12.537,9.173L12.462,9.149L12.387,9.126L12.312,9.104L12.236,9.083L12.159,9.063L12.082,9.045L12.005,9.027L11.927,9.011L11.848,8.996L11.769,8.983L11.69,8.97L11.611,8.959L11.53,8.949L11.45,8.941L11.369,8.933L11.288,8.927L11.206,8.923L11.124,8.919L11.041,8.917L10.957,8.917L10.894,8.917L10.83,8.918L10.766,8.92L10.703,8.923L10.639,8.927L10.576,8.931L10.513,8.936L10.451,8.942L10.388,8.949L10.326,8.957L10.264,8.965L10.203,8.974L10.141,8.984L10.08,8.994L10.019,9.005L9.959,9.017L9.899,9.03L9.839,9.044L9.779,9.058L9.719,9.073L9.66,9.088L9.601,9.105L9.543,9.122L9.485,9.14L9.427,9.158L9.369,9.177L9.312,9.197L9.255,9.217L9.198,9.239L9.142,9.26L9.086,9.283L9.03,9.306L8.974,9.33L8.919,9.354L8.865,9.38L8.81,9.405L8.756,9.432L8.703,9.459L8.65,9.487L8.597,9.515L8.544,9.544L8.492,9.573L8.44,9.604L8.389,9.634L8.338,9.666L8.288,9.698L8.238,9.73L8.188,9.763L8.139,9.797L8.09,9.831L8.041,9.866L7.993,9.902L7.946,9.938L7.899,9.974L7.852,10.012L7.806,10.049L7.76,10.087L7.715,10.126L7.67,10.165L7.626,10.205L7.582,10.246L7.538,10.287L7.495,10.328L7.453,10.37L7.411,10.412L7.37,10.455L7.329,10.498L7.289,10.542L7.249,10.587L7.21,10.631L7.171,10.677L7.133,10.722L7.095,10.769L7.058,10.815L7.021,10.862L6.985,10.91L6.95,10.958L6.915,11.006L6.88,11.055L6.847,11.105L6.814,11.154L6.781,11.204L6.749,11.255L6.718,11.306L6.687,11.357L6.657,11.409L6.627,11.461L6.598,11.513L6.57,11.566L6.542,11.62L6.515,11.673L6.489,11.727L6.463,11.781L6.438,11.836L6.413,11.891L6.389,11.946L6.366,12.002L6.344,12.058L6.322,12.115L6.301,12.171L6.28,12.228L6.26,12.286L6.241,12.343L6.223,12.401L6.205,12.459L6.188,12.518L6.172,12.577L6.156,12.636L6.141,12.695L6.127,12.755L6.114,12.815L6.101,12.876L6.089,12.936L6.078,12.997L6.067,13.058L6.057,13.119L6.048,13.181L6.04,13.243L6.032,13.305L6.026,13.367L6.02,13.43L6.015,13.493L6.01,13.556L6.006,13.619L6.004,13.683L6.002,13.747L6,13.811L6,13.875L6.001,13.949L6.002,14.023L6.005,14.096L6.009,14.169L6.013,14.242L6.019,14.314L6.026,14.386L6.034,14.458L6.043,14.529L6.053,14.601L6.064,14.671L6.076,14.742L6.088,14.812L6.102,14.881L6.117,14.951L6.12,14.962L10.013,25.389L10.016,25.394L10.041,25.442L10.067,25.489L10.094,25.535L10.121,25.581L10.149,25.627L10.179,25.672L10.208,25.716L10.239,25.76L10.27,25.803L10.302,25.846L10.335,25.889L10.368,25.93L10.402,25.972L10.437,26.012L10.473,26.052L10.509,26.091L10.546,26.13L10.583,26.168L10.621,26.206L10.66,26.242L10.699,26.279L10.739,26.314L10.78,26.349L10.821,26.383L10.863,26.416L10.905,26.449L10.948,26.481L10.992,26.512L11.036,26.543L11.08,26.573L11.125,26.602L11.171,26.63L11.217,26.657L11.263,26.684L11.31,26.71L11.358,26.735L11.406,26.759L11.454,26.783L11.503,26.806L11.552,26.828L11.602,26.849L11.652,26.869L11.703,26.888L11.754,26.907L11.805,26.924L11.857,26.941L11.909,26.957L11.961,26.972L12.014,26.986L12.068,26.999L12.121,27.011L12.175,27.023L12.23,27.033L12.284,27.042L12.339,27.051L12.395,27.058L12.45,27.065L12.507,27.07L12.563,27.075L12.62,27.079L12.677,27.081L12.734,27.083L12.793,27.083L12.838,27.083L12.884,27.082L12.93,27.08L12.975,27.078L13.021,27.075L13.066,27.071L13.111,27.067L13.155,27.062L13.2,27.057L13.244,27.051L13.288,27.044L13.332,27.037L13.376,27.029L13.419,27.02L13.462,27.011L13.505,27.001L13.548,26.991L13.591,26.98L13.633,26.969L13.675,26.957L13.717,26.944L13.758,26.931L13.799,26.917L13.84,26.903L13.881,26.888L13.922,26.873L13.962,26.857L14.002,26.84L14.042,26.823L14.081,26.805L14.12,26.787L14.159,26.769L14.198,26.75L14.236,26.73L14.274,26.71L14.312,26.689L14.349,26.668L14.386,26.646L14.423,26.624L14.459,26.601L14.495,26.578L14.531,26.554L14.566,26.53L14.601,26.506L14.636,26.48L14.67,26.455L14.704,26.429L14.738,26.402L14.771,26.376L14.804,26.348L14.837,26.32L14.869,26.292L14.9,26.263L14.932,26.234L14.963,26.205L14.993,26.175L15.023,26.145L15.053,26.114L15.082,26.083L15.111,26.051L15.14,26.019L15.168,25.987L15.195,25.954L15.937,25.05L16.063,25.05L16.805,25.954L16.832,25.987L16.86,26.019L16.889,26.051L16.918,26.083L16.947,26.114L16.977,26.145L17.007,26.175L17.037,26.205L17.068,26.234L17.1,26.263L17.131,26.292L17.163,26.32L17.196,26.348L17.229,26.376L17.262,26.402L17.296,26.429L17.33,26.455L17.364,26.48L17.399,26.506L17.434,26.53L17.469,26.554L17.505,26.578L17.541,26.601L17.577,26.624L17.614,26.646L17.651,26.668L17.688,26.689L17.726,26.71L17.764,26.73L17.802,26.75L17.841,26.769L17.88,26.787L17.919,26.805L17.958,26.823L17.998,26.84L18.038,26.857L18.078,26.873L18.119,26.888L18.16,26.903L18.201,26.917L18.242,26.931L18.283,26.944L18.325,26.957L18.367,26.969L18.409,26.98L18.452,26.991L18.495,27.001L18.538,27.011L18.581,27.02L18.624,27.029L18.668,27.037L18.712,27.044L18.756,27.051L18.8,27.057L18.845,27.062L18.889,27.067L18.934,27.071L18.979,27.075L19.025,27.078L19.07,27.08L19.116,27.082L19.162,27.083L19.207,27.083L19.266,27.083L19.323,27.081L19.38,27.079L19.437,27.075L19.493,27.07L19.55,27.065L19.605,27.058L19.661,27.051L19.716,27.042L19.77,27.033L19.825,27.023L19.879,27.011L19.932,26.999L19.986,26.986L20.039,26.972L20.091,26.957L20.143,26.941L20.195,26.924L20.246,26.907L20.297,26.888L20.348,26.869L20.398,26.849L20.448,26.828L20.497,26.806L20.546,26.783L20.594,26.759L20.642,26.735L20.69,26.71L20.737,26.684L20.783,26.657L20.829,26.63L20.875,26.602L20.92,26.573L20.964,26.543L21.008,26.512L21.052,26.481L21.095,26.449L21.137,26.416L21.179,26.383L21.22,26.349L21.261,26.314L21.301,26.279L21.34,26.242L21.379,26.206L21.417,26.168L21.454,26.13L21.491,26.091L21.527,26.052L21.563,26.012L21.598,25.972L21.632,25.93L21.665,25.889L21.698,25.846L21.73,25.804L21.761,25.76L21.792,25.716L21.821,25.672L21.851,25.627L21.879,25.581L21.906,25.535L21.933,25.489L21.959,25.442L21.984,25.394L21.987,25.389L25.88,14.962L25.883,14.951L25.898,14.881L25.912,14.812L25.924,14.742L25.936,14.671L25.947,14.601L25.957,14.529L25.966,14.458L25.974,14.386L25.981,14.314L25.987,14.242L25.991,14.169L25.995,14.096L25.998,14.023L25.999,13.949L26,13.875L25.999,13.792L25.997,13.709L25.994,13.627L25.989,13.545L25.983,13.463L25.976,13.382L25.967,13.301L25.957,13.221L25.946,13.141L25.934,13.061L25.92,12.982L25.905,12.904L25.889,12.826L25.871,12.748L25.853,12.671L25.833,12.594L25.812,12.518L25.79,12.442L25.766,12.367L25.742,12.292L25.716,12.218L25.689,12.144L25.661,12.071L25.632,11.999L25.602,11.927L25.571,11.855L25.538,11.784L25.505,11.714L25.47,11.644L25.435,11.575L25.398,11.507L25.361,11.439L25.322,11.372L25.282,11.305L25.241,11.24L25.2,11.175L25.157,11.11L25.113,11.046L25.069,10.983L25.023,10.921L24.976,10.859L24.929,10.798L24.88,10.738L24.831,10.679L24.781,10.62L24.73,10.563L24.678,10.506L24.625,10.45L24.571,10.394L24.517,10.34L24.461,10.286L24.405,10.233L24.348,10.181L24.29,10.13L24.231,10.08L24.172,10.031L24.112,9.983L24.051,9.935L23.989,9.889L23.927,9.843L23.864,9.799L23.8,9.755L23.735,9.713L23.664,9.667L24.739,7.981L24.824,8.035L24.915,8.095L25.004,8.156L25.093,8.218L25.18,8.282L25.267,8.347L25.352,8.414L25.436,8.481L25.52,8.55L25.602,8.62L25.683,8.692L25.762,8.765L25.841,8.838L25.919,8.913L25.995,8.99L26.07,9.067L26.144,9.146L26.217,9.226L26.289,9.306L26.359,9.388L26.428,9.472L26.496,9.556L26.563,9.641L26.628,9.727L26.692,9.815L26.754,9.903L26.816,9.992L26.875,10.083L26.934,10.174L26.991,10.266L27.047,10.36L27.101,10.454L27.154,10.549L27.206,10.645L27.256,10.742L27.304,10.84L27.351,10.939L27.397,11.039L27.441,11.139L27.483,11.24L27.524,11.342L27.563,11.445L27.601,11.549L27.637,11.653L27.672,11.758L27.704,11.864L27.736,11.971L27.765,12.078L27.793,12.186L27.819,12.295L27.844,12.404L27.867,12.514L27.888,12.624L27.907,12.736L27.924,12.847L27.94,12.959L27.954,13.072L27.966,13.186L27.976,13.299L27.985,13.414L27.992,13.528L27.996,13.643L27.999,13.759L28,13.875L27.999,13.978L27.997,14.081L27.993,14.184L27.988,14.286L27.981,14.388L27.973,14.489L27.964,14.59L27.953,14.691L27.94,14.791L27.926,14.891L27.911,14.99L27.894,15.089L27.876,15.188L27.857,15.286L27.836,15.383L27.8,15.538L23.821,26.194L23.759,26.316L23.718,26.394L23.675,26.471L23.631,26.547L23.586,26.623L23.54,26.697L23.492,26.771L23.444,26.844L23.394,26.916L23.342,26.987L23.29,27.057L23.236,27.126L23.182,27.194L23.126,27.262L23.069,27.328L23.011,27.393L22.952,27.457L22.892,27.521L22.831,27.583L22.768,27.644L22.705,27.704L22.641,27.763L22.575,27.821L22.509,27.878L22.442,27.934L22.373,27.988L22.304,28.042L22.234,28.094L22.163,28.145L22.091,28.195L22.018,28.244L21.944,28.292L21.87,28.338L21.794,28.383L21.718,28.427L21.641,28.47L21.563,28.511L21.484,28.551L21.405,28.589L21.324,28.627L21.243,28.663L21.161,28.697L21.079,28.731L20.996,28.762L20.912,28.793L20.827,28.822L20.742,28.849L20.656,28.876L20.569,28.9L20.482,28.923L20.394,28.945L20.306,28.965L20.217,28.984L20.128,29.001L20.038,29.016L19.947,29.03L19.857,29.043L19.765,29.053L19.673,29.062L19.581,29.07L19.488,29.076L19.395,29.08L19.302,29.083L19.209,29.083L19.133,29.083L19.058,29.081L18.984,29.079L18.909,29.075L18.835,29.07L18.762,29.064L18.688,29.057L18.615,29.049L18.542,29.04L18.469,29.03L18.396,29.019L18.324,29.007L18.253,28.994L18.181,28.98L18.11,28.965L18.039,28.949L17.969,28.932L17.899,28.914L17.829,28.895L17.76,28.875L17.691,28.855L17.623,28.833L17.555,28.81L17.487,28.787L17.42,28.762L17.354,28.737L17.287,28.71L17.222,28.683L17.156,28.655L17.091,28.626L17.027,28.597L16.963,28.566L16.9,28.534L16.837,28.502L16.775,28.469L16.713,28.435L16.652,28.4L16.591,28.365L16.531,28.328L16.471,28.291L16.412,28.253L16.353,28.214L16.296,28.175L16.238,28.134L16.181,28.093L16.125,28.052L16.07,28.009L16.015,27.966L16,27.954L15.985,27.966L15.93,28.009L15.875,28.052L15.819,28.093L15.762,28.134L15.704,28.175L15.647,28.214L15.588,28.253L15.529,28.291L15.469,28.328L15.409,28.365L15.348,28.4L15.287,28.435L15.225,28.469L15.163,28.502L15.1,28.534L15.037,28.566L14.973,28.597L14.909,28.626L14.844,28.655L14.778,28.683L14.713,28.71L14.646,28.737L14.58,28.762L14.513,28.787L14.445,28.81L14.377,28.833L14.309,28.855L14.24,28.875L14.171,28.895L14.101,28.914L14.031,28.932L13.961,28.949L13.89,28.965L13.819,28.98L13.747,28.994L13.676,29.007L13.604,29.019L13.531,29.03L13.458,29.04L13.385,29.049L13.312,29.057L13.238,29.064L13.165,29.07L13.091,29.075L13.016,29.079L12.942,29.081L12.867,29.083L12.791,29.083L12.698,29.083L12.605,29.08L12.512,29.076L12.419,29.07L12.327,29.062L12.235,29.053L12.143,29.043L12.053,29.03L11.962,29.016L11.872,29.001L11.783,28.984L11.694,28.965L11.606,28.945L11.518,28.923L11.431,28.9L11.344,28.876L11.258,28.849L11.173,28.822L11.088,28.793L11.004,28.762L10.921,28.731L10.839,28.697L10.757,28.663L10.676,28.627L10.595,28.589L10.516,28.551L10.437,28.511L10.359,28.47L10.282,28.427L10.206,28.383L10.13,28.338L10.056,28.292L9.982,28.244L9.909,28.195L9.837,28.145L9.766,28.094L9.696,28.042L9.627,27.988L9.558,27.934L9.491,27.878L9.425,27.821L9.359,27.763L9.295,27.704L9.232,27.644L9.169,27.583L9.108,27.521L9.048,27.457L8.989,27.393L8.931,27.328L8.874,27.262L8.818,27.194L8.764,27.126L8.71,27.057L8.658,26.987L8.606,26.916L8.556,26.844L8.508,26.771L8.46,26.697L8.414,26.623L8.369,26.547L8.325,26.471L8.282,26.394L8.241,26.316L8.179,26.194L4.2,15.538L4.164,15.383L4.143,15.286L4.124,15.188L4.106,15.089L4.089,14.99L4.074,14.891L4.06,14.791L4.047,14.691L4.036,14.59L4.027,14.489L4.019,14.388L4.012,14.286L4.007,14.184L4.003,14.081L4.001,13.978L4,13.875L4.001,13.785L4.002,13.696L4.005,13.607L4.009,13.518L4.014,13.429L4.02,13.341L4.028,13.253L4.036,13.165L4.045,13.078L4.056,12.99L4.068,12.903L4.08,12.817L4.094,12.731L4.109,12.645L4.125,12.559L4.141,12.474L4.159,12.389L4.178,12.305L4.198,12.221L4.219,12.137L4.241,12.054L4.264,11.971L4.288,11.889L4.313,11.807L4.339,11.725L4.366,11.644L4.394,11.563L4.423,11.483L4.453,11.403L4.483,11.324L4.515,11.245L4.548,11.167L4.581,11.089L4.616,11.012L4.651,10.935L4.687,10.858L4.724,10.783L4.762,10.707L4.801,10.633L4.841,10.558L4.882,10.485L4.923,10.412L4.965,10.339L5.009,10.267L5.053,10.195L5.097,10.125L5.143,10.054L5.19,9.985L5.237,9.916L5.285,9.847L5.334,9.779L5.384,9.712L5.434,9.645L5.485,9.579L5.537,9.514L5.59,9.449L5.644,9.385L5.698,9.322L5.753,9.259L5.809,9.197L5.865,9.136L5.922,9.075L5.98,9.015L6.039,8.956L6.098,8.897L6.158,8.839L6.219,8.782L6.28,8.725L6.342,8.67L6.405,8.615L6.469,8.56L6.533,8.507L6.597,8.454L6.663,8.402L6.729,8.351L6.795,8.3L6.863,8.251L6.93,8.202L6.999,8.154L7.068,8.106L7.138,8.06L7.208,8.014L7.279,7.969L7.35,7.925L7.422,7.882L7.495,7.84L7.568,7.798L7.642,7.758L7.716,7.718L7.791,7.679L7.866,7.641L7.942,7.604L8.018,7.568L8.095,7.532L8.172,7.498L8.25,7.464L8.329,7.432L8.407,7.4L8.487,7.369L8.566,7.339L8.647,7.311L8.727,7.283L8.809,7.256L8.89,7.23L8.972,7.205L9.055,7.181L9.137,7.158L9.221,7.136L9.304,7.115L9.388,7.095L9.473,7.076L9.557,7.058L9.643,7.041L9.728,7.025L9.814,7.011L9.9,6.997L9.987,6.984L10.074,6.973L10.161,6.962L10.248,6.953L10.336,6.944L10.424,6.937L10.513,6.931L10.601,6.926L10.69,6.922L10.779,6.919L10.869,6.917L10.959,6.917L11.074,6.918Z"/>
        <path d="M23.011,5.071L23.087,5.072L23.162,5.074L23.238,5.076L23.313,5.08L23.388,5.085L23.464,5.091L23.539,5.098L23.614,5.106L23.69,5.115L23.765,5.124L23.84,5.135L23.915,5.147L23.99,5.16L24.064,5.174L24.139,5.189L24.213,5.204L24.288,5.221L24.362,5.239L24.436,5.258L24.51,5.278L24.584,5.299L24.658,5.321L24.731,5.344L24.804,5.368L24.877,5.393L24.95,5.419L25.023,5.446L25.095,5.474L25.167,5.504L25.239,5.534L25.311,5.565L25.383,5.598L25.454,5.631L25.525,5.666L25.595,5.701L25.666,5.738L25.736,5.776L25.805,5.814L25.874,5.854L25.941,5.894L26.009,5.935L26.075,5.977L26.14,6.02L26.116,6.132L26.089,6.243L26.061,6.355L26.03,6.466L25.998,6.577L25.963,6.688L25.927,6.799L25.889,6.909L25.849,7.02L25.806,7.13L25.762,7.239L25.716,7.348L25.668,7.457L25.618,7.566L25.566,7.674L25.512,7.781L25.473,7.857L25.432,7.932L25.391,8.007L25.35,8.08L25.307,8.153L25.264,8.226L25.22,8.297L25.176,8.368L25.13,8.438L25.084,8.508L25.037,8.576L24.99,8.645L24.942,8.712L24.893,8.778L24.844,8.844L24.794,8.909L24.743,8.974L24.691,9.038L24.639,9.101L24.587,9.163L24.533,9.224L24.48,9.285L24.425,9.345L24.37,9.404L24.315,9.463L24.258,9.52L24.202,9.577L24.144,9.633L24.086,9.689L24.028,9.744L23.969,9.797L23.91,9.85L23.85,9.903L23.789,9.954L23.728,10.005L23.667,10.055L23.605,10.104L23.542,10.153L23.48,10.2L23.416,10.247L23.353,10.293L23.288,10.338L23.224,10.382L23.159,10.426L23.093,10.469L23.027,10.511L22.961,10.552L22.894,10.592L22.827,10.631L22.76,10.67L22.692,10.708L22.624,10.745L22.556,10.781L22.487,10.816L22.418,10.85L22.348,10.884L22.279,10.917L22.209,10.948L22.138,10.979L22.067,11.009L21.997,11.039L21.925,11.067L21.854,11.095L21.782,11.121L21.71,11.147L21.638,11.172L21.566,11.196L21.493,11.219L21.42,11.241L21.347,11.263L21.274,11.283L21.2,11.302L21.127,11.321L21.053,11.339L20.979,11.356L20.905,11.372L20.831,11.387L20.756,11.401L20.682,11.414L20.607,11.426L20.532,11.437L20.457,11.448L20.382,11.457L20.307,11.466L20.232,11.473L20.157,11.48L20.082,11.486L20.006,11.49L19.931,11.494L19.856,11.497L19.78,11.499L19.705,11.5L19.629,11.5L19.554,11.499L19.478,11.497L19.403,11.494L19.327,11.49L19.252,11.485L19.177,11.479L19.101,11.472L19.026,11.465L18.951,11.456L18.876,11.446L18.801,11.435L18.726,11.423L18.651,11.411L18.576,11.397L18.502,11.382L18.427,11.366L18.353,11.349L18.278,11.331L18.204,11.312L18.13,11.293L18.057,11.272L17.983,11.25L17.909,11.227L17.836,11.203L17.763,11.178L17.69,11.151L17.618,11.124L17.545,11.096L17.473,11.067L17.401,11.037L17.329,11.005L17.258,10.973L17.187,10.939L17.116,10.905L17.045,10.869L16.974,10.832L16.905,10.795L16.835,10.756L16.767,10.717L16.699,10.676L16.632,10.635L16.566,10.593L16.5,10.551L16.525,10.439L16.551,10.327L16.58,10.216L16.61,10.104L16.643,9.993L16.677,9.882L16.713,9.771L16.752,9.661L16.792,9.551L16.834,9.441L16.878,9.331L16.924,9.222L16.972,9.113L17.022,9.005L17.074,8.897L17.128,8.789L17.168,8.713L17.208,8.638L17.249,8.564L17.291,8.49L17.333,8.417L17.376,8.345L17.42,8.273L17.465,8.202L17.51,8.132L17.556,8.063L17.603,7.994L17.65,7.926L17.699,7.859L17.747,7.792L17.797,7.726L17.847,7.661L17.898,7.596L17.949,7.533L18.001,7.47L18.054,7.408L18.107,7.346L18.161,7.285L18.215,7.225L18.27,7.166L18.326,7.108L18.382,7.05L18.439,6.993L18.496,6.937L18.554,6.882L18.612,6.827L18.671,6.773L18.731,6.72L18.791,6.668L18.851,6.616L18.912,6.565L18.974,6.515L19.036,6.466L19.098,6.418L19.161,6.37L19.224,6.324L19.288,6.278L19.352,6.232L19.417,6.188L19.482,6.144L19.547,6.102L19.613,6.06L19.679,6.019L19.746,5.979L19.813,5.939L19.88,5.901L19.948,5.863L20.016,5.826L20.085,5.79L20.154,5.755L20.223,5.72L20.292,5.687L20.362,5.654L20.432,5.622L20.502,5.591L20.573,5.561L20.644,5.532L20.715,5.503L20.787,5.476L20.858,5.449L20.93,5.423L21.002,5.399L21.075,5.375L21.148,5.351L21.22,5.329L21.293,5.308L21.367,5.287L21.44,5.268L21.514,5.249L21.588,5.232L21.662,5.215L21.736,5.199L21.81,5.184L21.884,5.17L21.959,5.157L22.034,5.144L22.108,5.133L22.183,5.123L22.258,5.113L22.333,5.105L22.408,5.097L22.484,5.09L22.559,5.085L22.634,5.08L22.709,5.076L22.785,5.073L22.86,5.071L22.936,5.071L23.011,5.071ZM22.898,7.071L22.848,7.072L22.798,7.074L22.747,7.077L22.697,7.08L22.647,7.084L22.597,7.088L22.546,7.093L22.496,7.099L22.446,7.105L22.395,7.112L22.345,7.12L22.295,7.128L22.244,7.137L22.194,7.147L22.144,7.157L22.093,7.168L22.043,7.179L21.993,7.191L21.943,7.204L21.892,7.217L21.842,7.231L21.792,7.246L21.742,7.261L21.693,7.277L21.643,7.293L21.593,7.31L21.544,7.328L21.494,7.347L21.445,7.366L21.395,7.385L21.346,7.405L21.297,7.426L21.249,7.448L21.2,7.47L21.151,7.493L21.103,7.516L21.055,7.54L21.007,7.565L20.959,7.59L20.912,7.615L20.864,7.642L20.817,7.669L20.77,7.697L20.723,7.725L20.677,7.754L20.631,7.783L20.585,7.813L20.539,7.844L20.493,7.875L20.448,7.907L20.403,7.939L20.359,7.972L20.314,8.006L20.27,8.04L20.226,8.075L20.183,8.11L20.14,8.146L20.097,8.182L20.054,8.219L20.012,8.257L19.971,8.295L19.929,8.334L19.888,8.373L19.847,8.413L19.807,8.454L19.767,8.495L19.727,8.536L19.688,8.579L19.649,8.621L19.611,8.665L19.573,8.708L19.535,8.753L19.498,8.798L19.462,8.843L19.425,8.889L19.389,8.936L19.354,8.983L19.319,9.031L19.284,9.079L19.25,9.128L19.217,9.177L19.184,9.227L19.151,9.278L19.119,9.329L19.087,9.381L19.056,9.433L19.047,9.449L19.05,9.45L19.099,9.457L19.148,9.465L19.197,9.471L19.246,9.477L19.296,9.482L19.345,9.486L19.394,9.49L19.444,9.493L19.494,9.496L19.543,9.498L19.593,9.499L19.643,9.5L19.693,9.5L19.743,9.499L19.793,9.498L19.843,9.496L19.893,9.494L19.943,9.49L19.994,9.487L20.044,9.482L20.094,9.477L20.144,9.471L20.195,9.465L20.245,9.458L20.295,9.45L20.346,9.442L20.396,9.433L20.447,9.424L20.497,9.414L20.547,9.403L20.597,9.391L20.648,9.379L20.698,9.367L20.748,9.353L20.798,9.339L20.848,9.325L20.898,9.309L20.948,9.294L20.998,9.277L21.047,9.26L21.097,9.242L21.146,9.224L21.196,9.205L21.245,9.185L21.294,9.165L21.343,9.144L21.392,9.123L21.441,9.101L21.489,9.078L21.537,9.054L21.586,9.03L21.634,9.006L21.681,8.981L21.729,8.955L21.776,8.929L21.823,8.901L21.87,8.874L21.917,8.846L21.964,8.817L22.01,8.787L22.056,8.757L22.102,8.727L22.147,8.696L22.192,8.664L22.237,8.631L22.282,8.598L22.326,8.565L22.37,8.531L22.414,8.496L22.458,8.461L22.501,8.425L22.544,8.388L22.586,8.351L22.628,8.313L22.67,8.275L22.711,8.236L22.752,8.197L22.793,8.157L22.834,8.117L22.874,8.076L22.913,8.034L22.952,7.992L22.991,7.949L23.03,7.906L23.067,7.862L23.105,7.818L23.142,7.773L23.179,7.727L23.215,7.681L23.251,7.634L23.287,7.587L23.322,7.539L23.356,7.491L23.39,7.442L23.424,7.393L23.457,7.343L23.489,7.293L23.522,7.241L23.553,7.19L23.584,7.138L23.594,7.121L23.59,7.121L23.541,7.113L23.492,7.106L23.443,7.099L23.394,7.094L23.345,7.089L23.296,7.084L23.246,7.08L23.197,7.077L23.147,7.074L23.097,7.072L23.047,7.071L22.998,7.071L22.948,7.071L22.898,7.071Z"/>
    </g>
</svg>
