<?xml version="1.0" encoding="UTF-8" standalone="no"?><!DOCTYPE svg PUBLIC "-//W3C//DTD SVG 1.1//EN" "http://www.w3.org/Graphics/SVG/1.1/DTD/svg11.dtd"><svg width="100%" height="100%" viewBox="0 0 32 32" version="1.1" xmlns="http://www.w3.org/2000/svg" xmlns:xlink="http://www.w3.org/1999/xlink" xml:space="preserve" xmlns:serif="http://www.serif.com/" style="fill-rule:evenodd;clip-rule:evenodd;stroke-linejoin:round;stroke-miterlimit:1.41421;"><g id="Main"><path d="M30,21.973l-19.973,0l0,-19.973l19.973,0l0,19.973Zm-17.973,-2l15.973,0l0,-15.973l-15.973,0l0,15.973Z"/><path d="M11.99,11.997l-0.11,0.001l-0.104,0.002l-0.103,0.003l-0.103,0.004l-0.102,0.006l-0.102,0.007l-0.102,0.009l-0.101,0.009l-0.101,0.011l-0.1,0.012l-0.1,0.014l-0.1,0.014l-0.099,0.016l-0.099,0.017l-0.098,0.019l-0.098,0.019l-0.098,0.021l-0.097,0.021l-0.097,0.023l-0.096,0.025l-0.096,0.025l-0.095,0.026l-0.095,0.028l-0.094,0.029l-0.094,0.029l-0.093,0.031l-0.093,0.032l-0.092,0.034l-0.092,0.034l-0.091,0.035l-0.091,0.037l-0.09,0.037l-0.09,0.039l-0.089,0.039l-0.088,0.041l-0.088,0.042l-0.087,0.042l-0.087,0.044l-0.086,0.045l-0.086,0.046l-0.084,0.047l-0.085,0.047l-0.083,0.049l-0.083,0.05l-0.083,0.051l-0.081,0.051l-0.081,0.053l-0.081,0.054l-0.079,0.054l-0.079,0.056l-0.079,0.056l-0.077,0.058l-0.077,0.058l-0.076,0.059l-0.076,0.06l-0.075,0.061l-0.074,0.062l-0.073,0.062l-0.072,0.064l-0.072,0.064l-0.071,0.065l-0.07,0.066l-0.069,0.067l-0.069,0.068l-0.067,0.069l-0.067,0.069l-0.066,0.07l-0.066,0.071l-0.064,0.072l-0.063,0.072l-0.063,0.073l-0.062,0.074l-0.061,0.075l-0.06,0.075l-0.059,0.076l-0.058,0.077l-0.058,0.078l-0.056,0.078l-0.055,0.079l-0.055,0.08l-0.054,0.08l-0.052,0.081l-0.052,0.082l-0.051,0.082l-0.049,0.083l-0.049,0.084l-0.048,0.084l-0.047,0.085l-0.046,0.086l-0.044,0.086l-0.044,0.087l-0.043,0.087l-0.042,0.088l-0.04,0.088l-0.04,0.089l-0.039,0.09l-0.037,0.09l-0.037,0.091l-0.035,0.091l-0.034,0.092l-0.033,0.092l-0.032,0.093l-0.031,0.093l-0.03,0.094l-0.029,0.094l-0.027,0.095l-0.027,0.095l-0.025,0.096l-0.024,0.096l-0.023,0.097l-0.022,0.097l-0.021,0.097l-0.019,0.098l-0.018,0.099l-0.017,0.099l-0.016,0.099l-0.015,0.099l-0.013,0.101l-0.012,0.1l-0.011,0.101l-0.01,0.101l-0.008,0.102l-0.007,0.102l-0.006,0.102l-0.005,0.103l-0.003,0.103l-0.002,0.104l-0.001,0.103l0.001,0.104l0.002,0.104l0.003,0.103l0.005,0.103l0.006,0.102l0.007,0.102l0.008,0.102l0.01,0.101l0.011,0.101l0.012,0.1l0.013,0.1l0.015,0.1l0.016,0.099l0.017,0.099l0.018,0.098l0.019,0.098l0.021,0.098l0.022,0.097l0.023,0.097l0.024,0.096l0.025,0.096l0.027,0.095l0.027,0.095l0.029,0.094l0.03,0.094l0.031,0.093l0.032,0.093l0.033,0.092l0.034,0.092l0.035,0.091l0.037,0.091l0.037,0.09l0.039,0.09l0.04,0.089l0.04,0.088l0.042,0.088l0.043,0.087l0.044,0.087l0.044,0.086l0.046,0.086l0.047,0.084l0.048,0.085l0.049,0.083l0.049,0.083l0.051,0.083l0.052,0.081l0.052,0.081l0.054,0.081l0.055,0.079l0.055,0.079l0.056,0.079l0.058,0.077l0.058,0.077l0.059,0.076l0.06,0.076l0.061,0.075l0.062,0.074l0.063,0.073l0.063,0.072l0.064,0.072l0.066,0.071l0.066,0.07l0.067,0.069l0.067,0.069l0.069,0.067l0.069,0.067l0.07,0.066l0.071,0.066l0.072,0.064l0.072,0.063l0.073,0.063l0.074,0.062l0.075,0.061l0.076,0.06l0.076,0.059l0.077,0.058l0.077,0.058l0.079,0.056l0.079,0.055l0.079,0.055l0.081,0.054l0.081,0.052l0.081,0.052l0.083,0.051l0.083,0.049l0.083,0.049l0.085,0.048l0.084,0.047l0.086,0.046l0.086,0.044l0.087,0.044l0.087,0.043l0.088,0.042l0.088,0.04l0.089,0.04l0.09,0.039l0.09,0.037l0.091,0.037l0.091,0.035l0.092,0.034l0.092,0.033l0.093,0.032l0.093,0.031l0.094,0.03l0.094,0.029l0.095,0.027l0.095,0.027l0.096,0.025l0.096,0.024l0.097,0.023l0.097,0.022l0.098,0.021l0.098,0.019l0.098,0.018l0.099,0.017l0.099,0.016l0.1,0.015l0.1,0.013l0.1,0.012l0.101,0.011l0.101,0.01l0.102,0.008l0.102,0.007l0.102,0.006l0.103,0.005l0.103,0.003l0.104,0.002l0.104,0.001l0.103,-0.001l0.104,-0.002l0.103,-0.003l0.103,-0.005l0.102,-0.006l0.102,-0.007l0.102,-0.008l0.101,-0.01l0.101,-0.011l0.1,-0.012l0.101,-0.013l0.099,-0.015l0.099,-0.016l0.099,-0.017l0.099,-0.018l0.098,-0.019l0.097,-0.021l0.097,-0.022l0.097,-0.023l0.096,-0.024l0.096,-0.025l0.095,-0.027l0.095,-0.027l0.094,-0.029l0.094,-0.03l0.093,-0.031l0.093,-0.032l0.092,-0.033l0.092,-0.034l0.091,-0.035l0.091,-0.037l0.09,-0.037l0.09,-0.039l0.089,-0.04l0.088,-0.04l0.088,-0.042l0.087,-0.043l0.087,-0.044l0.086,-0.044l0.086,-0.046l0.085,-0.047l0.084,-0.048l0.084,-0.049l0.083,-0.049l0.082,-0.051l0.082,-0.052l0.081,-0.052l0.08,-0.054l0.08,-0.055l0.079,-0.055l0.078,-0.056l0.078,-0.058l0.077,-0.058l0.076,-0.059l0.075,-0.06l0.075,-0.061l0.074,-0.062l0.073,-0.063l0.072,-0.063l0.072,-0.064l0.071,-0.066l0.07,-0.066l0.069,-0.067l0.069,-0.067l0.068,-0.069l0.067,-0.069l0.066,-0.07l0.065,-0.071l0.064,-0.072l0.064,-0.072l0.062,-0.073l0.062,-0.074l0.061,-0.075l0.06,-0.076l0.059,-0.076l0.058,-0.077l0.058,-0.077l0.056,-0.079l0.056,-0.079l0.054,-0.079l0.054,-0.081l0.053,-0.081l0.051,-0.081l0.051,-0.083l0.05,-0.083l0.049,-0.083l0.047,-0.085l0.047,-0.084l0.046,-0.086l0.045,-0.086l0.044,-0.087l0.042,-0.087l0.042,-0.088l0.041,-0.088l0.039,-0.089l0.039,-0.09l0.037,-0.09l0.037,-0.091l0.035,-0.091l0.034,-0.092l0.034,-0.092l0.032,-0.093l0.031,-0.093l0.029,-0.094l0.029,-0.094l0.028,-0.095l0.026,-0.095l0.025,-0.096l0.025,-0.096l0.023,-0.097l0.021,-0.097l0.021,-0.098l0.019,-0.098l0.019,-0.098l0.017,-0.099l0.016,-0.099l0.014,-0.1l0.014,-0.1l0.012,-0.1l0.011,-0.101l0.009,-0.101l0.009,-0.102l0.007,-0.102l0.006,-0.102l0.004,-0.103l0.003,-0.103l0.002,-0.104l0.001,-0.11l2,0.013l-0.001,0.123l-0.002,0.128l-0.004,0.129l-0.006,0.128l-0.007,0.128l-0.009,0.127l-0.011,0.127l-0.012,0.126l-0.013,0.126l-0.015,0.126l-0.017,0.125l-0.018,0.124l-0.02,0.124l-0.022,0.124l-0.022,0.123l-0.025,0.123l-0.025,0.122l-0.028,0.121l-0.028,0.121l-0.031,0.121l-0.031,0.12l-0.033,0.119l-0.035,0.118l-0.036,0.118l-0.037,0.118l-0.039,0.117l-0.04,0.116l-0.042,0.115l-0.043,0.115l-0.044,0.114l-0.045,0.114l-0.047,0.113l-0.049,0.112l-0.049,0.111l-0.051,0.111l-0.052,0.109l-0.054,0.11l-0.054,0.108l-0.056,0.108l-0.058,0.107l-0.058,0.106l-0.06,0.105l-0.061,0.105l-0.062,0.103l-0.063,0.103l-0.065,0.102l-0.066,0.101l-0.067,0.101l-0.068,0.099l-0.069,0.099l-0.07,0.098l-0.072,0.096l-0.073,0.096l-0.073,0.095l-0.075,0.095l-0.076,0.093l-0.077,0.092l-0.079,0.091l-0.079,0.091l-0.08,0.089l-0.082,0.089l-0.082,0.087l-0.083,0.086l-0.085,0.086l-0.085,0.084l-0.087,0.084l-0.087,0.082l-0.089,0.082l-0.089,0.08l-0.09,0.079l-0.092,0.078l-0.092,0.077l-0.093,0.076l-0.094,0.075l-0.095,0.074l-0.096,0.073l-0.097,0.071l-0.098,0.071l-0.099,0.069l-0.099,0.068l-0.1,0.067l-0.102,0.066l-0.102,0.064l-0.103,0.064l-0.103,0.062l-0.105,0.061l-0.105,0.06l-0.106,0.058l-0.107,0.057l-0.108,0.056l-0.108,0.055l-0.109,0.054l-0.11,0.052l-0.111,0.051l-0.111,0.049l-0.112,0.048l-0.113,0.047l-0.113,0.046l-0.115,0.044l-0.114,0.043l-0.116,0.042l-0.116,0.04l-0.117,0.038l-0.117,0.038l-0.118,0.036l-0.119,0.034l-0.119,0.033l-0.12,0.032l-0.12,0.03l-0.121,0.029l-0.122,0.027l-0.122,0.026l-0.123,0.024l-0.123,0.023l-0.123,0.021l-0.124,0.02l-0.125,0.019l-0.125,0.016l-0.126,0.015l-0.126,0.014l-0.126,0.012l-0.127,0.011l-0.127,0.008l-0.128,0.008l-0.128,0.005l-0.128,0.005l-0.129,0.002l-0.129,0.001l-0.13,-0.001l-0.128,-0.002l-0.129,-0.005l-0.128,-0.005l-0.128,-0.008l-0.127,-0.008l-0.127,-0.011l-0.126,-0.012l-0.126,-0.014l-0.126,-0.015l-0.125,-0.016l-0.124,-0.019l-0.124,-0.02l-0.124,-0.021l-0.123,-0.023l-0.123,-0.024l-0.122,-0.026l-0.121,-0.027l-0.121,-0.029l-0.121,-0.03l-0.12,-0.032l-0.119,-0.033l-0.118,-0.034l-0.118,-0.036l-0.118,-0.038l-0.117,-0.038l-0.116,-0.04l-0.115,-0.042l-0.115,-0.043l-0.114,-0.044l-0.114,-0.046l-0.113,-0.047l-0.112,-0.048l-0.111,-0.049l-0.111,-0.051l-0.11,-0.052l-0.109,-0.054l-0.108,-0.055l-0.108,-0.056l-0.107,-0.057l-0.106,-0.058l-0.105,-0.06l-0.105,-0.061l-0.103,-0.062l-0.103,-0.064l-0.102,-0.064l-0.101,-0.066l-0.101,-0.067l-0.099,-0.068l-0.099,-0.069l-0.098,-0.071l-0.096,-0.071l-0.096,-0.073l-0.095,-0.074l-0.095,-0.075l-0.093,-0.076l-0.092,-0.077l-0.091,-0.078l-0.091,-0.079l-0.089,-0.08l-0.089,-0.082l-0.087,-0.082l-0.086,-0.084l-0.086,-0.084l-0.084,-0.086l-0.084,-0.086l-0.082,-0.087l-0.082,-0.089l-0.08,-0.089l-0.079,-0.091l-0.078,-0.091l-0.077,-0.092l-0.076,-0.093l-0.075,-0.095l-0.074,-0.095l-0.073,-0.096l-0.071,-0.096l-0.071,-0.098l-0.069,-0.099l-0.068,-0.099l-0.067,-0.101l-0.066,-0.101l-0.064,-0.102l-0.064,-0.103l-0.062,-0.103l-0.061,-0.105l-0.06,-0.105l-0.058,-0.106l-0.057,-0.107l-0.056,-0.108l-0.055,-0.108l-0.054,-0.11l-0.052,-0.109l-0.051,-0.111l-0.049,-0.111l-0.048,-0.112l-0.047,-0.113l-0.046,-0.114l-0.044,-0.114l-0.043,-0.115l-0.042,-0.115l-0.04,-0.116l-0.038,-0.117l-0.038,-0.118l-0.036,-0.118l-0.034,-0.118l-0.033,-0.119l-0.032,-0.12l-0.03,-0.121l-0.029,-0.121l-0.027,-0.121l-0.026,-0.122l-0.024,-0.123l-0.023,-0.123l-0.021,-0.124l-0.02,-0.124l-0.019,-0.124l-0.016,-0.125l-0.015,-0.126l-0.014,-0.126l-0.012,-0.126l-0.011,-0.127l-0.008,-0.127l-0.008,-0.128l-0.005,-0.128l-0.005,-0.129l-0.002,-0.128l-0.001,-0.13l0.001,-0.129l0.002,-0.129l0.005,-0.128l0.005,-0.128l0.008,-0.128l0.008,-0.127l0.011,-0.127l0.012,-0.126l0.014,-0.126l0.015,-0.126l0.016,-0.125l0.019,-0.125l0.02,-0.124l0.021,-0.123l0.023,-0.124l0.024,-0.122l0.026,-0.122l0.027,-0.122l0.029,-0.121l0.03,-0.12l0.032,-0.12l0.033,-0.119l0.034,-0.119l0.036,-0.118l0.038,-0.117l0.038,-0.117l0.04,-0.116l0.042,-0.116l0.043,-0.114l0.044,-0.115l0.046,-0.113l0.047,-0.113l0.048,-0.112l0.049,-0.111l0.051,-0.111l0.052,-0.11l0.054,-0.109l0.055,-0.108l0.056,-0.108l0.057,-0.107l0.058,-0.106l0.06,-0.105l0.061,-0.105l0.062,-0.103l0.064,-0.103l0.064,-0.102l0.066,-0.102l0.067,-0.1l0.068,-0.099l0.069,-0.099l0.071,-0.098l0.071,-0.097l0.073,-0.096l0.074,-0.095l0.075,-0.094l0.076,-0.093l0.077,-0.092l0.078,-0.092l0.079,-0.09l0.08,-0.089l0.082,-0.089l0.082,-0.087l0.084,-0.087l0.084,-0.085l0.086,-0.085l0.086,-0.083l0.087,-0.082l0.089,-0.082l0.089,-0.08l0.091,-0.079l0.091,-0.079l0.092,-0.077l0.093,-0.076l0.095,-0.075l0.095,-0.073l0.096,-0.073l0.096,-0.072l0.098,-0.07l0.099,-0.069l0.099,-0.068l0.101,-0.067l0.101,-0.066l0.102,-0.065l0.103,-0.063l0.103,-0.062l0.105,-0.061l0.105,-0.06l0.106,-0.058l0.107,-0.058l0.108,-0.056l0.108,-0.054l0.11,-0.054l0.109,-0.052l0.111,-0.051l0.111,-0.049l0.112,-0.049l0.113,-0.047l0.114,-0.045l0.114,-0.044l0.115,-0.043l0.115,-0.042l0.116,-0.04l0.117,-0.039l0.118,-0.037l0.118,-0.036l0.118,-0.035l0.119,-0.033l0.12,-0.031l0.121,-0.031l0.121,-0.028l0.121,-0.028l0.122,-0.025l0.123,-0.025l0.123,-0.022l0.124,-0.022l0.124,-0.02l0.124,-0.018l0.125,-0.017l0.126,-0.015l0.126,-0.013l0.126,-0.012l0.127,-0.011l0.127,-0.009l0.128,-0.007l0.128,-0.006l0.129,-0.004l0.128,-0.002l0.123,-0.001l0.013,2Z"/><path d="M22.002,19.887l0.001,0.123l-2,0.013l-0.001,-0.11l0,-0.006l2,-0.038l0,0.018Zm-0.256,-2.132l0.028,0.122l0.025,0.122l0.025,0.122l0.022,0.124l0.022,0.123l0.02,0.124l0.018,0.125l0.017,0.125l0.003,0.029l-0.993,0.12l0.993,-0.12l0,0l-1.985,0.24l0,0l-0.002,-0.016l-0.014,-0.101l-0.014,-0.099l-0.016,-0.099l-0.017,-0.099l-0.019,-0.099l-0.019,-0.098l-0.021,-0.097l-0.021,-0.097l-0.016,-0.067l1.946,-0.462l0.018,0.078Zm-0.732,-2.082l0.052,0.11l0.051,0.111l0.049,0.111l0.049,0.112l0.047,0.113l0.045,0.113l0.044,0.115l0.043,0.114l0.015,0.04l-1.882,0.677l0,0l0.941,-0.339l-0.941,0.339l-0.011,-0.028l-0.034,-0.092l-0.035,-0.091l-0.037,-0.091l-0.037,-0.09l-0.039,-0.09l-0.039,-0.089l-0.041,-0.088l-0.042,-0.088l-0.035,-0.071l1.797,-0.88l0.04,0.082Zm-1.224,-1.936l0.075,0.094l0.073,0.095l0.073,0.096l0.072,0.097l0.07,0.098l0.069,0.099l0.068,0.099l0.067,0.1l0.066,0.102l0.006,0.009l-0.845,0.535l0.845,-0.535l0,0l-1.69,1.07l0,0l0.001,0l-0.053,-0.081l-0.054,-0.08l-0.054,-0.08l-0.056,-0.079l-0.056,-0.078l-0.058,-0.078l-0.058,-0.077l-0.059,-0.076l-0.06,-0.075l-0.008,-0.01l1.55,-1.264l0.016,0.019Zm-1.527,-1.527l0.093,0.076l0.092,0.077l0.092,0.079l0.09,0.079l0.089,0.08l0.089,0.082l0.087,0.082l0.087,0.083l0.05,0.05l-0.703,0.711l0.703,-0.711l0,0l-1.406,1.422l0,0l-0.042,-0.041l-0.069,-0.067l-0.07,-0.066l-0.071,-0.065l-0.072,-0.064l-0.072,-0.064l-0.073,-0.062l-0.074,-0.062l-0.075,-0.061l-0.05,-0.04l1.246,-1.565l0.059,0.047Zm-1.936,-1.224l0.109,0.054l0.108,0.054l0.108,0.056l0.107,0.058l0.106,0.058l0.105,0.06l0.105,0.061l0.103,0.062l0.103,0.063l0.019,0.012l-1.07,1.69l0,0l0.535,-0.845l-0.535,0.845l-0.008,-0.005l-0.082,-0.051l-0.083,-0.05l-0.084,-0.049l-0.084,-0.047l-0.085,-0.047l-0.086,-0.046l-0.086,-0.045l-0.087,-0.044l-0.087,-0.042l0.003,0.001l0.858,-1.807l0.008,0.004Zm-2.082,-0.732l0.121,0.028l0.12,0.031l0.12,0.031l0.119,0.033l0.119,0.035l0.118,0.036l0.117,0.037l0.117,0.039l0.097,0.034l-0.326,0.945l0.326,-0.945l0,0l-0.653,1.89l0,0l-0.086,-0.03l-0.093,-0.031l-0.094,-0.029l-0.094,-0.029l-0.095,-0.028l-0.095,-0.026l-0.096,-0.025l-0.096,-0.025l-0.097,-0.023l-0.007,-0.001l0.439,-1.952l0.019,0.005Zm-2.132,-0.256l0.129,0.002l0.128,0.004l0.128,0.006l0.128,0.007l0.127,0.009l0.127,0.011l0.126,0.012l0.126,0.013l0.009,0.001l-0.24,1.986l0,0l0.004,0l-0.101,-0.011l-0.101,-0.009l-0.102,-0.009l-0.102,-0.007l-0.102,-0.006l-0.103,-0.004l-0.103,-0.003l-0.104,-0.002l-0.07,-0.001l0.013,-2l0.083,0.001Zm0.788,2.051c0,0 0.12,-0.993 0.12,-0.993l-0.12,0.993Z"/></g></svg>