<?xml version="1.0" encoding="UTF-8" standalone="no"?>
<!DOCTYPE svg PUBLIC "-//W3C//DTD SVG 1.1//EN" "http://www.w3.org/Graphics/SVG/1.1/DTD/svg11.dtd">
<svg width="100%" height="100%" viewBox="0 0 32 32" version="1.1" xmlns="http://www.w3.org/2000/svg" xmlns:xlink="http://www.w3.org/1999/xlink" xml:space="preserve" xmlns:serif="http://www.serif.com/" style="fill-rule:evenodd;clip-rule:evenodd;stroke-linejoin:round;stroke-miterlimit:1.41421;">
    <g id="Auxiliary-line" serif:id="Auxiliary line" opacity="0.628571">
        <g id="Square">
            <path d="M26,32L6,32L6,0L26,0L26,32ZM6.05,0.05L6.05,31.95L25.95,31.95L25.95,0.05L6.05,0.05Z"/>
            <path d="M30,30L2,30L2,2L30,2L30,30ZM2.05,2.05L2.05,29.95L29.95,29.95L29.95,2.05L2.05,2.05Z"/>
            <path d="M32,26L0,26L0,6L32,6L32,26ZM0.05,6.05L0.05,25.95L31.95,25.95L31.95,6.05L0.05,6.05Z"/>
        </g>
        <g id="Circle">
            <path d="M16.207,0.001L16.413,0.005L16.618,0.012L16.823,0.021L17.027,0.032L17.23,0.047L17.433,0.063L17.635,0.083L17.836,0.104L18.037,0.129L18.236,0.155L18.435,0.184L18.633,0.216L18.831,0.25L19.027,0.287L19.223,0.325L19.418,0.366L19.612,0.41L19.805,0.456L19.997,0.504L20.188,0.555L20.378,0.607L20.567,0.662L20.756,0.72L20.943,0.779L21.129,0.841L21.315,0.905L21.499,0.972L21.682,1.04L21.864,1.111L22.045,1.183L22.225,1.258L22.404,1.335L22.582,1.414L22.759,1.496L22.934,1.579L23.108,1.664L23.281,1.751L23.453,1.841L23.624,1.932L23.793,2.026L23.961,2.121L24.128,2.218L24.294,2.318L24.458,2.419L24.621,2.522L24.783,2.627L24.943,2.734L25.102,2.843L25.26,2.954L25.416,3.066L25.571,3.18L25.724,3.296L25.876,3.414L26.026,3.534L26.175,3.656L26.322,3.779L26.468,3.904L26.613,4.03L26.756,4.159L26.897,4.289L27.037,4.42L27.175,4.554L27.311,4.689L27.446,4.825L27.58,4.963L27.711,5.103L27.841,5.244L27.97,5.387L28.096,5.532L28.221,5.678L28.344,5.825L28.466,5.974L28.586,6.124L28.704,6.276L28.82,6.429L28.934,6.584L29.046,6.74L29.157,6.898L29.266,7.057L29.373,7.217L29.478,7.379L29.581,7.542L29.682,7.706L29.782,7.872L29.879,8.039L29.974,8.207L30.068,8.376L30.159,8.547L30.249,8.719L30.336,8.892L30.421,9.066L30.504,9.241L30.586,9.418L30.665,9.596L30.742,9.775L30.817,9.955L30.889,10.136L30.96,10.318L31.028,10.501L31.095,10.685L31.159,10.871L31.221,11.057L31.28,11.244L31.338,11.433L31.393,11.622L31.445,11.812L31.496,12.003L31.544,12.195L31.59,12.388L31.634,12.582L31.675,12.777L31.713,12.973L31.75,13.169L31.784,13.367L31.816,13.565L31.845,13.764L31.871,13.963L31.896,14.164L31.917,14.365L31.937,14.567L31.953,14.77L31.968,14.973L31.979,15.177L31.988,15.382L31.995,15.587L31.999,15.793L32,16L31.999,16.207L31.995,16.413L31.988,16.618L31.979,16.823L31.968,17.027L31.953,17.23L31.937,17.433L31.917,17.635L31.896,17.836L31.871,18.037L31.845,18.236L31.816,18.435L31.784,18.633L31.75,18.831L31.713,19.027L31.675,19.223L31.634,19.418L31.59,19.612L31.544,19.805L31.496,19.997L31.445,20.188L31.393,20.378L31.338,20.567L31.28,20.756L31.221,20.943L31.159,21.129L31.095,21.315L31.028,21.499L30.96,21.682L30.889,21.864L30.817,22.045L30.742,22.225L30.665,22.404L30.586,22.582L30.504,22.759L30.421,22.934L30.336,23.108L30.249,23.281L30.159,23.453L30.068,23.624L29.974,23.793L29.879,23.961L29.782,24.128L29.682,24.294L29.581,24.458L29.478,24.621L29.373,24.783L29.266,24.943L29.157,25.102L29.046,25.26L28.934,25.416L28.82,25.571L28.704,25.724L28.586,25.876L28.466,26.026L28.344,26.175L28.221,26.322L28.096,26.468L27.97,26.613L27.841,26.756L27.711,26.897L27.58,27.037L27.446,27.175L27.311,27.311L27.175,27.446L27.037,27.58L26.897,27.711L26.756,27.841L26.613,27.97L26.468,28.096L26.322,28.221L26.175,28.344L26.026,28.466L25.876,28.586L25.724,28.704L25.571,28.82L25.416,28.934L25.26,29.046L25.102,29.157L24.943,29.266L24.783,29.373L24.621,29.478L24.458,29.581L24.294,29.682L24.128,29.782L23.961,29.879L23.793,29.974L23.624,30.068L23.453,30.159L23.281,30.249L23.108,30.336L22.934,30.421L22.759,30.504L22.582,30.586L22.404,30.665L22.225,30.742L22.045,30.817L21.864,30.889L21.682,30.96L21.499,31.028L21.315,31.095L21.129,31.159L20.943,31.221L20.756,31.28L20.567,31.338L20.378,31.393L20.188,31.445L19.997,31.496L19.805,31.544L19.612,31.59L19.418,31.634L19.223,31.675L19.027,31.713L18.831,31.75L18.633,31.784L18.435,31.816L18.236,31.845L18.037,31.871L17.836,31.896L17.635,31.917L17.433,31.937L17.23,31.953L17.027,31.968L16.823,31.979L16.618,31.988L16.413,31.995L16.207,31.999L16,32L15.793,31.999L15.587,31.995L15.382,31.988L15.177,31.979L14.973,31.968L14.77,31.953L14.567,31.937L14.365,31.917L14.164,31.896L13.963,31.871L13.764,31.845L13.565,31.816L13.367,31.784L13.169,31.75L12.973,31.713L12.777,31.675L12.582,31.634L12.388,31.59L12.195,31.544L12.003,31.496L11.812,31.445L11.622,31.393L11.433,31.338L11.244,31.28L11.057,31.221L10.871,31.159L10.685,31.095L10.501,31.028L10.318,30.96L10.136,30.889L9.955,30.817L9.775,30.742L9.596,30.665L9.418,30.586L9.241,30.504L9.066,30.421L8.892,30.336L8.719,30.249L8.547,30.159L8.376,30.068L8.207,29.974L8.039,29.879L7.872,29.782L7.706,29.682L7.542,29.581L7.379,29.478L7.217,29.373L7.057,29.266L6.898,29.157L6.74,29.046L6.584,28.934L6.429,28.82L6.276,28.704L6.124,28.586L5.974,28.466L5.825,28.344L5.678,28.221L5.532,28.096L5.387,27.97L5.244,27.841L5.103,27.711L4.963,27.58L4.825,27.446L4.689,27.311L4.554,27.175L4.42,27.037L4.289,26.897L4.159,26.756L4.03,26.613L3.904,26.468L3.779,26.322L3.656,26.175L3.534,26.026L3.414,25.876L3.296,25.724L3.18,25.571L3.066,25.416L2.954,25.26L2.843,25.102L2.734,24.943L2.627,24.783L2.522,24.621L2.419,24.458L2.318,24.294L2.218,24.128L2.121,23.961L2.026,23.793L1.932,23.624L1.841,23.453L1.751,23.281L1.664,23.108L1.579,22.934L1.496,22.759L1.414,22.582L1.335,22.404L1.258,22.225L1.183,22.045L1.111,21.864L1.04,21.682L0.972,21.499L0.905,21.315L0.841,21.129L0.779,20.943L0.72,20.756L0.662,20.567L0.607,20.378L0.555,20.188L0.504,19.997L0.456,19.805L0.41,19.612L0.366,19.418L0.325,19.223L0.287,19.027L0.25,18.831L0.216,18.633L0.184,18.435L0.155,18.236L0.129,18.037L0.104,17.836L0.083,17.635L0.063,17.433L0.047,17.23L0.032,17.027L0.021,16.823L0.012,16.618L0.005,16.413L0.001,16.207L0,16L0.001,15.793L0.005,15.587L0.012,15.382L0.021,15.177L0.032,14.973L0.047,14.77L0.063,14.567L0.083,14.365L0.104,14.164L0.129,13.963L0.155,13.764L0.184,13.565L0.216,13.367L0.25,13.169L0.287,12.973L0.325,12.777L0.366,12.582L0.41,12.388L0.456,12.195L0.504,12.003L0.555,11.812L0.607,11.622L0.662,11.433L0.72,11.244L0.779,11.057L0.841,10.871L0.905,10.685L0.972,10.501L1.04,10.318L1.111,10.136L1.183,9.955L1.258,9.775L1.335,9.596L1.414,9.418L1.496,9.241L1.579,9.066L1.664,8.892L1.751,8.719L1.841,8.547L1.932,8.376L2.026,8.207L2.121,8.039L2.218,7.872L2.318,7.706L2.419,7.542L2.522,7.379L2.627,7.217L2.734,7.057L2.843,6.898L2.954,6.74L3.066,6.584L3.18,6.429L3.296,6.276L3.414,6.124L3.534,5.974L3.656,5.825L3.779,5.678L3.904,5.532L4.03,5.387L4.159,5.244L4.289,5.103L4.42,4.963L4.554,4.825L4.689,4.689L4.825,4.554L4.963,4.42L5.103,4.289L5.244,4.159L5.387,4.03L5.532,3.904L5.678,3.779L5.825,3.656L5.974,3.534L6.124,3.414L6.276,3.296L6.429,3.18L6.584,3.066L6.74,2.954L6.898,2.843L7.057,2.734L7.217,2.627L7.379,2.522L7.542,2.419L7.706,2.318L7.872,2.218L8.039,2.121L8.207,2.026L8.376,1.932L8.547,1.841L8.719,1.751L8.892,1.664L9.066,1.579L9.241,1.496L9.418,1.414L9.596,1.335L9.775,1.258L9.955,1.183L10.136,1.111L10.318,1.04L10.501,0.972L10.685,0.905L10.871,0.841L11.057,0.779L11.244,0.72L11.433,0.662L11.622,0.607L11.812,0.555L12.003,0.504L12.195,0.456L12.388,0.41L12.582,0.366L12.777,0.325L12.973,0.287L13.169,0.25L13.367,0.216L13.565,0.184L13.764,0.155L13.963,0.129L14.164,0.104L14.365,0.083L14.567,0.063L14.77,0.047L14.973,0.032L15.177,0.021L15.382,0.012L15.587,0.005L15.793,0.001L16,0L16.207,0.001ZM15.794,0.051L15.589,0.055L15.384,0.062L15.18,0.071L14.976,0.082L14.774,0.097L14.571,0.113L14.37,0.132L14.17,0.154L13.97,0.178L13.771,0.205L13.572,0.234L13.375,0.265L13.178,0.299L12.982,0.336L12.787,0.374L12.593,0.415L12.4,0.459L12.207,0.504L12.016,0.553L11.825,0.603L11.636,0.655L11.447,0.71L11.259,0.768L11.072,0.827L10.887,0.889L10.702,0.952L10.518,1.018L10.336,1.087L10.154,1.157L9.973,1.23L9.794,1.304L9.616,1.381L9.439,1.46L9.263,1.541L9.088,1.624L8.914,1.709L8.741,1.796L8.57,1.885L8.4,1.976L8.231,2.069L8.063,2.164L7.897,2.261L7.732,2.36L7.568,2.461L7.406,2.564L7.245,2.669L7.085,2.776L6.926,2.884L6.769,2.994L6.614,3.106L6.459,3.22L6.307,3.336L6.155,3.454L6.005,3.573L5.857,3.694L5.71,3.817L5.564,3.941L5.42,4.068L5.278,4.196L5.137,4.325L4.998,4.456L4.86,4.589L4.724,4.724L4.589,4.86L4.456,4.998L4.325,5.137L4.196,5.278L4.068,5.42L3.941,5.564L3.817,5.71L3.694,5.857L3.573,6.005L3.454,6.155L3.336,6.307L3.22,6.459L3.106,6.614L2.994,6.769L2.884,6.926L2.776,7.085L2.669,7.245L2.564,7.406L2.461,7.568L2.36,7.732L2.261,7.897L2.164,8.063L2.069,8.231L1.976,8.4L1.885,8.57L1.796,8.741L1.709,8.914L1.624,9.088L1.541,9.263L1.46,9.439L1.381,9.616L1.304,9.794L1.23,9.973L1.157,10.154L1.087,10.336L1.018,10.518L0.952,10.702L0.889,10.887L0.827,11.072L0.768,11.259L0.71,11.447L0.655,11.636L0.603,11.825L0.553,12.016L0.504,12.207L0.459,12.4L0.415,12.593L0.374,12.787L0.336,12.982L0.299,13.178L0.265,13.375L0.234,13.572L0.205,13.771L0.178,13.97L0.154,14.17L0.132,14.37L0.113,14.571L0.097,14.774L0.082,14.976L0.071,15.18L0.062,15.384L0.055,15.589L0.051,15.794L0.05,16L0.051,16.206L0.055,16.411L0.062,16.616L0.071,16.82L0.082,17.024L0.097,17.226L0.113,17.429L0.132,17.63L0.154,17.83L0.178,18.03L0.205,18.229L0.234,18.428L0.265,18.625L0.299,18.822L0.336,19.018L0.374,19.213L0.415,19.407L0.459,19.6L0.504,19.793L0.553,19.984L0.603,20.175L0.655,20.364L0.71,20.553L0.768,20.741L0.827,20.928L0.889,21.113L0.952,21.298L1.018,21.482L1.087,21.664L1.157,21.846L1.23,22.027L1.304,22.206L1.381,22.384L1.46,22.561L1.541,22.737L1.624,22.912L1.709,23.086L1.796,23.259L1.885,23.43L1.976,23.6L2.069,23.769L2.164,23.937L2.261,24.103L2.36,24.268L2.461,24.432L2.564,24.594L2.669,24.755L2.776,24.915L2.884,25.074L2.994,25.231L3.106,25.386L3.22,25.541L3.336,25.693L3.454,25.845L3.573,25.995L3.694,26.143L3.817,26.29L3.941,26.436L4.068,26.58L4.196,26.722L4.325,26.863L4.456,27.002L4.589,27.14L4.724,27.276L4.86,27.411L4.998,27.544L5.137,27.675L5.278,27.804L5.42,27.932L5.564,28.059L5.71,28.183L5.857,28.306L6.005,28.427L6.155,28.546L6.307,28.664L6.459,28.78L6.614,28.894L6.769,29.006L6.926,29.116L7.085,29.224L7.245,29.331L7.406,29.436L7.568,29.539L7.732,29.64L7.897,29.739L8.063,29.836L8.231,29.931L8.4,30.024L8.57,30.115L8.741,30.204L8.914,30.291L9.088,30.376L9.263,30.459L9.439,30.54L9.616,30.619L9.794,30.696L9.973,30.77L10.154,30.843L10.336,30.913L10.518,30.982L10.702,31.048L10.887,31.111L11.072,31.173L11.259,31.232L11.447,31.29L11.636,31.344L11.825,31.397L12.016,31.447L12.207,31.496L12.4,31.541L12.593,31.585L12.787,31.626L12.982,31.664L13.178,31.701L13.375,31.735L13.572,31.766L13.771,31.795L13.97,31.822L14.17,31.846L14.37,31.868L14.571,31.887L14.774,31.903L14.976,31.918L15.18,31.929L15.384,31.938L15.589,31.945L15.794,31.949L16,31.95L16.206,31.949L16.411,31.945L16.616,31.938L16.82,31.929L17.024,31.918L17.226,31.903L17.429,31.887L17.63,31.868L17.83,31.846L18.03,31.822L18.229,31.795L18.428,31.766L18.625,31.735L18.822,31.701L19.018,31.664L19.213,31.626L19.407,31.585L19.6,31.541L19.793,31.496L19.984,31.447L20.175,31.397L20.364,31.344L20.553,31.29L20.741,31.232L20.928,31.173L21.113,31.111L21.298,31.048L21.482,30.982L21.664,30.913L21.846,30.843L22.027,30.77L22.206,30.696L22.384,30.619L22.561,30.54L22.737,30.459L22.912,30.376L23.086,30.291L23.259,30.204L23.43,30.115L23.6,30.024L23.769,29.931L23.937,29.836L24.103,29.739L24.268,29.64L24.432,29.539L24.594,29.436L24.755,29.331L24.915,29.224L25.074,29.116L25.231,29.006L25.386,28.894L25.541,28.78L25.693,28.664L25.845,28.546L25.995,28.427L26.143,28.306L26.29,28.183L26.436,28.059L26.58,27.932L26.722,27.804L26.863,27.675L27.002,27.544L27.14,27.411L27.276,27.276L27.411,27.14L27.544,27.002L27.675,26.863L27.804,26.722L27.932,26.58L28.059,26.436L28.183,26.29L28.306,26.143L28.427,25.995L28.546,25.845L28.664,25.693L28.78,25.541L28.894,25.386L29.006,25.231L29.116,25.074L29.224,24.915L29.331,24.755L29.436,24.594L29.539,24.432L29.64,24.268L29.739,24.103L29.836,23.937L29.931,23.769L30.024,23.6L30.115,23.43L30.204,23.259L30.291,23.086L30.376,22.912L30.459,22.737L30.54,22.561L30.619,22.384L30.696,22.206L30.77,22.027L30.843,21.846L30.913,21.664L30.982,21.482L31.048,21.298L31.111,21.113L31.173,20.928L31.232,20.741L31.29,20.553L31.344,20.364L31.397,20.175L31.447,19.984L31.496,19.793L31.541,19.6L31.585,19.407L31.626,19.213L31.664,19.018L31.701,18.822L31.735,18.625L31.766,18.428L31.795,18.229L31.822,18.03L31.846,17.83L31.868,17.63L31.887,17.429L31.903,17.226L31.918,17.024L31.929,16.82L31.938,16.616L31.945,16.411L31.949,16.206L31.95,16L31.949,15.794L31.945,15.589L31.938,15.384L31.929,15.18L31.918,14.976L31.903,14.774L31.887,14.571L31.868,14.37L31.846,14.17L31.822,13.97L31.795,13.771L31.766,13.572L31.735,13.375L31.701,13.178L31.664,12.982L31.626,12.787L31.585,12.593L31.541,12.4L31.496,12.207L31.447,12.016L31.397,11.825L31.344,11.636L31.29,11.447L31.232,11.259L31.173,11.072L31.111,10.887L31.048,10.702L30.982,10.518L30.913,10.336L30.843,10.154L30.77,9.973L30.696,9.794L30.619,9.616L30.54,9.439L30.459,9.263L30.376,9.088L30.291,8.914L30.204,8.741L30.115,8.57L30.024,8.4L29.931,8.231L29.836,8.063L29.739,7.897L29.64,7.732L29.539,7.568L29.436,7.406L29.331,7.245L29.224,7.085L29.116,6.926L29.006,6.769L28.894,6.614L28.78,6.459L28.664,6.307L28.546,6.155L28.427,6.005L28.306,5.857L28.183,5.71L28.059,5.564L27.932,5.42L27.804,5.278L27.675,5.137L27.544,4.998L27.411,4.86L27.276,4.724L27.14,4.589L27.002,4.456L26.863,4.325L26.722,4.196L26.58,4.068L26.436,3.941L26.29,3.817L26.143,3.694L25.995,3.573L25.845,3.454L25.693,3.336L25.541,3.22L25.386,3.106L25.231,2.994L25.074,2.884L24.915,2.776L24.755,2.669L24.594,2.564L24.432,2.461L24.268,2.36L24.103,2.261L23.937,2.164L23.769,2.069L23.6,1.976L23.43,1.885L23.259,1.796L23.086,1.709L22.912,1.624L22.737,1.541L22.561,1.46L22.384,1.381L22.206,1.304L22.027,1.23L21.846,1.157L21.664,1.087L21.482,1.018L21.298,0.952L21.113,0.889L20.928,0.827L20.741,0.768L20.553,0.71L20.364,0.655L20.175,0.603L19.984,0.553L19.793,0.504L19.6,0.459L19.407,0.415L19.213,0.374L19.018,0.336L18.822,0.299L18.625,0.265L18.428,0.234L18.229,0.205L18.03,0.178L17.83,0.154L17.63,0.132L17.429,0.113L17.226,0.097L17.024,0.082L16.82,0.071L16.616,0.062L16.411,0.055L16.206,0.051L16,0.05L15.794,0.051Z"/>
        </g>
        <g id="Triangle">
            <path d="M32,32L0,32L16,0L32,32ZM0.081,31.95L31.919,31.95L16,0.112L0.081,31.95Z"/>
        </g>
        <g id="Corner">
            <path d="M32.035,0.035L0.035,32.035L-0.035,31.965L31.965,-0.035L32.035,0.035Z"/>
            <path d="M32.035,31.965L31.965,32.035L-0.035,0.035L0.035,-0.035L32.035,31.965Z"/>
        </g>
    </g>
    <g id="Main">
    </g>
    <path d="M26,32L16,26L6,32L6,0L26,0L26,32ZM8,2L8,28.468L16,23.668L24,28.468L24,2L8,2Z"/>
</svg>
