<?xml version="1.0" encoding="UTF-8" standalone="no"?>
<!DOCTYPE svg PUBLIC "-//W3C//DTD SVG 1.1//EN" "http://www.w3.org/Graphics/SVG/1.1/DTD/svg11.dtd">
<svg width="100%" height="100%" viewBox="0 0 32 32" version="1.1" xmlns="http://www.w3.org/2000/svg" xmlns:xlink="http://www.w3.org/1999/xlink" xml:space="preserve" xmlns:serif="http://www.serif.com/" style="fill-rule:evenodd;clip-rule:evenodd;stroke-linejoin:round;stroke-miterlimit:1.41421;">
    <g id="Main">
        <path d="M25,6L32,6L32,26L0,26L0,6L7,6L9,3L23,3L25,6ZM10.07,5L8.07,8L2,8L2,24L30,24L30,8L23.93,8L21.93,5L10.07,5Z"/>
        <rect x="26" y="10" width="2" height="2"/>
        <path d="M16.084,9.001L16.168,9.002L16.251,9.005L16.334,9.008L16.417,9.013L16.5,9.019L16.582,9.026L16.664,9.034L16.746,9.042L16.827,9.052L16.909,9.063L16.989,9.075L17.07,9.088L17.15,9.102L17.23,9.116L17.309,9.132L17.388,9.149L17.467,9.167L17.546,9.185L17.624,9.205L17.701,9.225L17.779,9.247L17.856,9.269L17.932,9.292L18.008,9.317L18.084,9.342L18.159,9.368L18.234,9.395L18.308,9.422L18.382,9.451L18.456,9.481L18.529,9.511L18.602,9.542L18.674,9.575L18.746,9.608L18.817,9.641L18.888,9.676L18.958,9.712L19.028,9.748L19.097,9.785L19.166,9.823L19.234,9.862L19.302,9.901L19.369,9.942L19.436,9.983L19.502,10.025L19.568,10.067L19.633,10.111L19.698,10.155L19.762,10.2L19.825,10.246L19.888,10.292L19.95,10.339L20.012,10.387L20.073,10.436L20.134,10.485L20.194,10.535L20.253,10.586L20.311,10.637L20.369,10.689L20.427,10.742L20.484,10.796L20.54,10.85L20.595,10.905L20.65,10.96L20.704,11.016L20.758,11.073L20.811,11.131L20.863,11.189L20.914,11.247L20.965,11.306L21.015,11.366L21.064,11.427L21.113,11.488L21.161,11.55L21.208,11.612L21.254,11.675L21.3,11.738L21.345,11.802L21.389,11.867L21.433,11.932L21.475,11.998L21.517,12.064L21.558,12.131L21.599,12.198L21.638,12.266L21.677,12.334L21.715,12.403L21.752,12.472L21.788,12.542L21.824,12.612L21.859,12.683L21.892,12.754L21.925,12.826L21.958,12.898L21.989,12.971L22.019,13.044L22.049,13.118L22.078,13.192L22.105,13.266L22.132,13.341L22.158,13.416L22.183,13.492L22.208,13.568L22.231,13.644L22.253,13.721L22.275,13.799L22.295,13.876L22.315,13.954L22.333,14.033L22.351,14.112L22.368,14.191L22.384,14.27L22.398,14.35L22.412,14.43L22.425,14.511L22.437,14.591L22.448,14.673L22.458,14.754L22.466,14.836L22.474,14.918L22.481,15L22.487,15.083L22.492,15.166L22.495,15.249L22.498,15.332L22.499,15.416L22.5,15.5L22.499,15.584L22.498,15.668L22.495,15.751L22.492,15.834L22.487,15.917L22.481,16L22.474,16.082L22.466,16.164L22.458,16.246L22.448,16.327L22.437,16.409L22.425,16.489L22.412,16.57L22.398,16.65L22.384,16.73L22.368,16.809L22.351,16.888L22.333,16.967L22.315,17.046L22.295,17.124L22.275,17.201L22.253,17.279L22.231,17.356L22.208,17.432L22.183,17.508L22.158,17.584L22.132,17.659L22.105,17.734L22.078,17.808L22.049,17.882L22.019,17.956L21.989,18.029L21.958,18.102L21.925,18.174L21.892,18.246L21.859,18.317L21.824,18.388L21.788,18.458L21.752,18.528L21.715,18.597L21.677,18.666L21.638,18.734L21.599,18.802L21.558,18.869L21.517,18.936L21.475,19.002L21.433,19.068L21.389,19.133L21.345,19.198L21.3,19.262L21.254,19.325L21.208,19.388L21.161,19.45L21.113,19.512L21.064,19.573L21.015,19.634L20.965,19.694L20.914,19.753L20.863,19.811L20.811,19.869L20.758,19.927L20.704,19.984L20.65,20.04L20.595,20.095L20.54,20.15L20.484,20.204L20.427,20.258L20.369,20.311L20.311,20.363L20.253,20.414L20.194,20.465L20.134,20.515L20.073,20.564L20.012,20.613L19.95,20.661L19.888,20.708L19.825,20.754L19.762,20.8L19.698,20.845L19.633,20.889L19.568,20.933L19.502,20.975L19.436,21.017L19.369,21.058L19.302,21.099L19.234,21.138L19.166,21.177L19.097,21.215L19.028,21.252L18.958,21.288L18.888,21.324L18.817,21.359L18.746,21.392L18.674,21.425L18.602,21.458L18.529,21.489L18.456,21.519L18.382,21.549L18.308,21.578L18.234,21.605L18.159,21.632L18.084,21.658L18.008,21.683L17.932,21.708L17.856,21.731L17.779,21.753L17.701,21.775L17.624,21.795L17.546,21.815L17.467,21.833L17.388,21.851L17.309,21.868L17.23,21.884L17.15,21.898L17.07,21.912L16.989,21.925L16.909,21.937L16.827,21.948L16.746,21.958L16.664,21.966L16.582,21.974L16.5,21.981L16.417,21.987L16.334,21.992L16.251,21.995L16.168,21.998L16.084,21.999L16,22L15.916,21.999L15.832,21.998L15.749,21.995L15.666,21.992L15.583,21.987L15.5,21.981L15.418,21.974L15.336,21.966L15.254,21.958L15.173,21.948L15.091,21.937L15.011,21.925L14.93,21.912L14.85,21.898L14.77,21.884L14.691,21.868L14.612,21.851L14.533,21.833L14.454,21.815L14.376,21.795L14.299,21.775L14.221,21.753L14.144,21.731L14.068,21.708L13.992,21.683L13.916,21.658L13.841,21.632L13.766,21.605L13.692,21.578L13.618,21.549L13.544,21.519L13.471,21.489L13.398,21.458L13.326,21.425L13.254,21.392L13.183,21.359L13.112,21.324L13.042,21.288L12.972,21.252L12.903,21.215L12.834,21.177L12.766,21.138L12.698,21.099L12.631,21.058L12.564,21.017L12.498,20.975L12.432,20.933L12.367,20.889L12.302,20.845L12.238,20.8L12.175,20.754L12.112,20.708L12.05,20.661L11.988,20.613L11.927,20.564L11.866,20.515L11.806,20.465L11.747,20.414L11.689,20.363L11.631,20.311L11.573,20.258L11.516,20.204L11.46,20.15L11.405,20.095L11.35,20.04L11.296,19.984L11.242,19.927L11.189,19.869L11.137,19.811L11.086,19.753L11.035,19.694L10.985,19.634L10.936,19.573L10.887,19.512L10.839,19.45L10.792,19.388L10.746,19.325L10.7,19.262L10.655,19.198L10.611,19.133L10.567,19.068L10.525,19.002L10.483,18.936L10.442,18.869L10.401,18.802L10.362,18.734L10.323,18.666L10.285,18.597L10.248,18.528L10.212,18.458L10.176,18.388L10.141,18.317L10.108,18.246L10.075,18.174L10.042,18.102L10.011,18.029L9.981,17.956L9.951,17.882L9.922,17.808L9.895,17.734L9.868,17.659L9.842,17.584L9.817,17.508L9.792,17.432L9.769,17.356L9.747,17.279L9.725,17.201L9.705,17.124L9.685,17.046L9.667,16.967L9.649,16.888L9.632,16.809L9.616,16.73L9.602,16.65L9.588,16.57L9.575,16.489L9.563,16.409L9.552,16.327L9.542,16.246L9.534,16.164L9.526,16.082L9.519,16L9.513,15.917L9.508,15.834L9.505,15.751L9.502,15.668L9.501,15.584L9.5,15.5L9.501,15.416L9.502,15.332L9.505,15.249L9.508,15.166L9.513,15.083L9.519,15L9.526,14.918L9.534,14.836L9.542,14.754L9.552,14.673L9.563,14.591L9.575,14.511L9.588,14.43L9.602,14.35L9.616,14.27L9.632,14.191L9.649,14.112L9.667,14.033L9.685,13.954L9.705,13.876L9.725,13.799L9.747,13.721L9.769,13.644L9.792,13.568L9.817,13.492L9.842,13.416L9.868,13.341L9.895,13.266L9.922,13.192L9.951,13.118L9.981,13.044L10.011,12.971L10.042,12.898L10.075,12.826L10.108,12.754L10.141,12.683L10.176,12.612L10.212,12.542L10.248,12.472L10.285,12.403L10.323,12.334L10.362,12.266L10.401,12.198L10.442,12.131L10.483,12.064L10.525,11.998L10.567,11.932L10.611,11.867L10.655,11.802L10.7,11.738L10.746,11.675L10.792,11.612L10.839,11.55L10.887,11.488L10.936,11.427L10.985,11.366L11.035,11.306L11.086,11.247L11.137,11.189L11.189,11.131L11.242,11.073L11.296,11.016L11.35,10.96L11.405,10.905L11.46,10.85L11.516,10.796L11.573,10.742L11.631,10.689L11.689,10.637L11.747,10.586L11.806,10.535L11.866,10.485L11.927,10.436L11.988,10.387L12.05,10.339L12.112,10.292L12.175,10.246L12.238,10.2L12.302,10.155L12.367,10.111L12.432,10.067L12.498,10.025L12.564,9.983L12.631,9.942L12.698,9.901L12.766,9.862L12.834,9.823L12.903,9.785L12.972,9.748L13.042,9.712L13.112,9.676L13.183,9.641L13.254,9.608L13.326,9.575L13.398,9.542L13.471,9.511L13.544,9.481L13.618,9.451L13.692,9.422L13.766,9.395L13.841,9.368L13.916,9.342L13.992,9.317L14.068,9.292L14.144,9.269L14.221,9.247L14.299,9.225L14.376,9.205L14.454,9.185L14.533,9.167L14.612,9.149L14.691,9.132L14.77,9.116L14.85,9.102L14.93,9.088L15.011,9.075L15.091,9.063L15.173,9.052L15.254,9.042L15.336,9.034L15.418,9.026L15.5,9.019L15.583,9.013L15.666,9.008L15.749,9.005L15.832,9.002L15.916,9.001L16,9L16.084,9.001ZM15.941,11L15.883,11.002L15.825,11.003L15.767,11.006L15.709,11.009L15.652,11.013L15.595,11.018L15.538,11.023L15.482,11.029L15.425,11.036L15.369,11.044L15.313,11.052L15.257,11.061L15.202,11.07L15.147,11.081L15.092,11.092L15.037,11.103L14.983,11.115L14.929,11.128L14.875,11.142L14.822,11.156L14.768,11.171L14.715,11.186L14.662,11.202L14.61,11.219L14.558,11.236L14.506,11.254L14.454,11.273L14.403,11.292L14.352,11.312L14.301,11.332L14.25,11.353L14.2,11.375L14.15,11.397L14.101,11.42L14.052,11.443L14.003,11.467L13.954,11.491L13.906,11.517L13.858,11.542L13.81,11.569L13.763,11.595L13.716,11.623L13.669,11.651L13.623,11.679L13.577,11.708L13.532,11.738L13.487,11.768L13.442,11.798L13.398,11.83L13.354,11.861L13.31,11.894L13.267,11.926L13.224,11.96L13.182,11.993L13.14,12.028L13.098,12.062L13.057,12.097L13.016,12.133L12.976,12.169L12.936,12.206L12.896,12.243L12.857,12.281L12.819,12.319L12.781,12.357L12.743,12.396L12.706,12.436L12.669,12.476L12.633,12.516L12.597,12.557L12.562,12.598L12.528,12.64L12.493,12.682L12.46,12.724L12.426,12.767L12.394,12.81L12.361,12.854L12.33,12.898L12.298,12.942L12.268,12.987L12.238,13.032L12.208,13.077L12.179,13.123L12.151,13.169L12.123,13.216L12.095,13.263L12.069,13.31L12.042,13.358L12.017,13.406L11.991,13.454L11.967,13.503L11.943,13.552L11.92,13.601L11.897,13.65L11.875,13.7L11.853,13.751L11.832,13.801L11.812,13.852L11.792,13.903L11.773,13.954L11.754,14.006L11.736,14.058L11.719,14.11L11.702,14.162L11.686,14.215L11.671,14.268L11.656,14.322L11.642,14.375L11.628,14.429L11.615,14.483L11.603,14.537L11.592,14.592L11.581,14.647L11.57,14.702L11.561,14.757L11.552,14.813L11.544,14.869L11.536,14.925L11.529,14.982L11.523,15.038L11.518,15.095L11.513,15.152L11.509,15.209L11.506,15.267L11.503,15.325L11.502,15.383L11.5,15.441L11.5,15.5L11.5,15.559L11.502,15.617L11.503,15.675L11.506,15.733L11.509,15.791L11.513,15.848L11.518,15.905L11.523,15.962L11.529,16.018L11.536,16.075L11.544,16.131L11.552,16.187L11.561,16.243L11.57,16.298L11.581,16.353L11.592,16.408L11.603,16.463L11.615,16.517L11.628,16.571L11.642,16.625L11.656,16.678L11.671,16.732L11.686,16.785L11.702,16.838L11.719,16.89L11.736,16.942L11.754,16.994L11.773,17.046L11.792,17.097L11.812,17.148L11.832,17.199L11.853,17.249L11.875,17.3L11.897,17.35L11.92,17.399L11.943,17.448L11.967,17.497L11.991,17.546L12.017,17.594L12.042,17.642L12.069,17.69L12.095,17.737L12.123,17.784L12.151,17.831L12.179,17.877L12.208,17.923L12.238,17.968L12.268,18.013L12.298,18.058L12.33,18.102L12.361,18.146L12.394,18.19L12.426,18.233L12.46,18.276L12.493,18.318L12.528,18.36L12.562,18.402L12.597,18.443L12.633,18.484L12.669,18.524L12.706,18.564L12.743,18.604L12.781,18.643L12.819,18.681L12.857,18.719L12.896,18.757L12.936,18.794L12.976,18.831L13.016,18.867L13.057,18.903L13.098,18.938L13.14,18.972L13.182,19.007L13.224,19.04L13.267,19.074L13.31,19.106L13.354,19.139L13.398,19.17L13.442,19.202L13.487,19.232L13.532,19.262L13.577,19.292L13.623,19.321L13.669,19.349L13.716,19.377L13.763,19.405L13.81,19.431L13.858,19.458L13.906,19.483L13.954,19.509L14.003,19.533L14.052,19.557L14.101,19.58L14.15,19.603L14.2,19.625L14.25,19.647L14.301,19.668L14.352,19.688L14.403,19.708L14.454,19.727L14.506,19.746L14.558,19.764L14.61,19.781L14.662,19.798L14.715,19.814L14.768,19.829L14.822,19.844L14.875,19.858L14.929,19.872L14.983,19.885L15.037,19.897L15.092,19.908L15.147,19.919L15.202,19.93L15.257,19.939L15.313,19.948L15.369,19.956L15.425,19.964L15.481,19.971L15.538,19.977L15.595,19.982L15.652,19.987L15.709,19.991L15.767,19.994L15.825,19.997L15.883,19.998L15.941,20L16,20L16.059,20L16.117,19.998L16.175,19.997L16.233,19.994L16.291,19.991L16.348,19.987L16.405,19.982L16.462,19.977L16.519,19.971L16.575,19.964L16.631,19.956L16.687,19.948L16.743,19.939L16.798,19.93L16.853,19.919L16.908,19.908L16.963,19.897L17.017,19.885L17.071,19.872L17.125,19.858L17.178,19.844L17.232,19.829L17.285,19.814L17.338,19.798L17.39,19.781L17.442,19.764L17.494,19.746L17.546,19.727L17.597,19.708L17.648,19.688L17.699,19.668L17.75,19.647L17.8,19.625L17.85,19.603L17.899,19.58L17.948,19.557L17.997,19.533L18.046,19.509L18.094,19.483L18.142,19.458L18.19,19.431L18.237,19.405L18.284,19.377L18.331,19.349L18.377,19.321L18.423,19.292L18.468,19.262L18.513,19.232L18.558,19.202L18.602,19.17L18.646,19.139L18.69,19.106L18.733,19.074L18.776,19.04L18.818,19.007L18.86,18.972L18.902,18.938L18.943,18.902L18.984,18.867L19.024,18.831L19.064,18.794L19.104,18.757L19.143,18.719L19.181,18.681L19.219,18.643L19.257,18.604L19.294,18.564L19.331,18.524L19.367,18.484L19.403,18.443L19.438,18.402L19.472,18.36L19.507,18.318L19.54,18.276L19.574,18.233L19.606,18.19L19.639,18.146L19.67,18.102L19.702,18.058L19.732,18.013L19.762,17.968L19.792,17.923L19.821,17.877L19.849,17.831L19.877,17.784L19.905,17.737L19.932,17.69L19.958,17.642L19.983,17.594L20.009,17.546L20.033,17.497L20.057,17.448L20.08,17.399L20.103,17.35L20.125,17.3L20.147,17.25L20.168,17.199L20.188,17.148L20.208,17.097L20.227,17.046L20.246,16.994L20.264,16.942L20.281,16.89L20.298,16.838L20.314,16.785L20.329,16.732L20.344,16.678L20.358,16.625L20.372,16.571L20.385,16.517L20.397,16.463L20.408,16.408L20.419,16.353L20.43,16.298L20.439,16.243L20.448,16.187L20.456,16.131L20.464,16.075L20.471,16.019L20.477,15.962L20.482,15.905L20.487,15.848L20.491,15.791L20.494,15.733L20.497,15.675L20.498,15.617L20.5,15.559L20.5,15.5L20.5,15.441L20.498,15.383L20.497,15.325L20.494,15.267L20.491,15.209L20.487,15.152L20.482,15.095L20.477,15.038L20.471,14.981L20.464,14.925L20.456,14.869L20.448,14.813L20.439,14.757L20.43,14.702L20.419,14.647L20.408,14.592L20.397,14.537L20.385,14.483L20.372,14.429L20.358,14.375L20.344,14.322L20.329,14.268L20.314,14.215L20.298,14.162L20.281,14.11L20.264,14.058L20.246,14.006L20.227,13.954L20.208,13.903L20.188,13.852L20.168,13.801L20.147,13.75L20.125,13.7L20.103,13.65L20.08,13.601L20.057,13.552L20.033,13.503L20.009,13.454L19.983,13.406L19.958,13.358L19.932,13.31L19.905,13.263L19.877,13.216L19.849,13.169L19.821,13.123L19.792,13.077L19.762,13.032L19.732,12.987L19.702,12.942L19.67,12.898L19.639,12.854L19.606,12.81L19.574,12.767L19.54,12.724L19.507,12.682L19.472,12.64L19.438,12.598L19.403,12.557L19.367,12.516L19.331,12.476L19.294,12.436L19.257,12.396L19.219,12.357L19.181,12.319L19.143,12.281L19.104,12.243L19.064,12.206L19.024,12.169L18.984,12.133L18.943,12.097L18.902,12.062L18.86,12.028L18.818,11.993L18.776,11.96L18.733,11.926L18.69,11.894L18.646,11.861L18.602,11.83L18.558,11.798L18.513,11.768L18.468,11.738L18.423,11.708L18.377,11.679L18.331,11.651L18.284,11.623L18.237,11.595L18.19,11.569L18.142,11.542L18.094,11.517L18.046,11.491L17.997,11.467L17.948,11.443L17.899,11.42L17.85,11.397L17.8,11.375L17.75,11.353L17.699,11.332L17.648,11.312L17.597,11.292L17.546,11.273L17.494,11.254L17.442,11.236L17.39,11.219L17.338,11.202L17.285,11.186L17.232,11.171L17.178,11.156L17.125,11.142L17.071,11.128L17.017,11.115L16.963,11.103L16.908,11.092L16.853,11.081L16.798,11.07L16.743,11.061L16.687,11.052L16.631,11.044L16.575,11.036L16.518,11.029L16.462,11.023L16.405,11.018L16.348,11.013L16.291,11.009L16.233,11.006L16.175,11.003L16.117,11.002L16.059,11L16,11L15.941,11Z"/>
        <path d="M16.042,13.876L16.084,13.877L16.125,13.88L16.166,13.883L16.207,13.888L16.247,13.894L16.287,13.9L16.327,13.908L16.367,13.917L16.406,13.926L16.445,13.937L16.483,13.948L16.521,13.96L16.558,13.974L16.596,13.988L16.632,14.003L16.668,14.019L16.704,14.035L16.74,14.053L16.774,14.071L16.809,14.09L16.842,14.11L16.876,14.131L16.908,14.153L16.94,14.175L16.972,14.198L17.003,14.222L17.033,14.246L17.063,14.271L17.092,14.297L17.121,14.324L17.149,14.351L17.176,14.379L17.203,14.408L17.229,14.437L17.254,14.467L17.278,14.497L17.302,14.528L17.325,14.56L17.347,14.592L17.369,14.624L17.39,14.658L17.41,14.691L17.429,14.726L17.447,14.76L17.465,14.796L17.481,14.832L17.497,14.868L17.512,14.904L17.526,14.942L17.54,14.979L17.552,15.017L17.563,15.055L17.574,15.094L17.583,15.133L17.592,15.173L17.6,15.213L17.606,15.253L17.612,15.293L17.617,15.334L17.62,15.375L17.623,15.416L17.624,15.458L17.625,15.5L17.624,15.542L17.623,15.584L17.62,15.625L17.617,15.666L17.612,15.707L17.606,15.747L17.6,15.787L17.592,15.827L17.583,15.867L17.574,15.906L17.563,15.945L17.552,15.983L17.54,16.021L17.526,16.058L17.512,16.096L17.497,16.132L17.481,16.168L17.465,16.204L17.447,16.24L17.429,16.274L17.41,16.309L17.39,16.342L17.369,16.376L17.347,16.408L17.325,16.44L17.302,16.472L17.278,16.503L17.254,16.533L17.229,16.563L17.203,16.592L17.176,16.621L17.149,16.649L17.121,16.676L17.092,16.703L17.063,16.729L17.033,16.754L17.003,16.778L16.972,16.802L16.94,16.825L16.908,16.847L16.876,16.869L16.842,16.89L16.809,16.91L16.774,16.929L16.74,16.947L16.704,16.965L16.668,16.981L16.632,16.997L16.596,17.012L16.558,17.026L16.521,17.04L16.483,17.052L16.445,17.063L16.406,17.074L16.367,17.083L16.327,17.092L16.287,17.1L16.247,17.106L16.207,17.112L16.166,17.117L16.125,17.12L16.084,17.123L16.042,17.124L16,17.125L15.958,17.124L15.916,17.123L15.875,17.12L15.834,17.117L15.793,17.112L15.753,17.106L15.713,17.1L15.673,17.092L15.633,17.083L15.594,17.074L15.555,17.063L15.517,17.052L15.479,17.04L15.442,17.026L15.404,17.012L15.368,16.997L15.332,16.981L15.296,16.965L15.26,16.947L15.226,16.929L15.191,16.91L15.158,16.89L15.124,16.869L15.092,16.847L15.06,16.825L15.028,16.802L14.997,16.778L14.967,16.754L14.937,16.729L14.908,16.703L14.879,16.676L14.851,16.649L14.824,16.621L14.797,16.592L14.771,16.563L14.746,16.533L14.722,16.503L14.698,16.472L14.675,16.44L14.653,16.408L14.631,16.376L14.61,16.342L14.59,16.309L14.571,16.274L14.553,16.24L14.535,16.204L14.519,16.168L14.503,16.132L14.488,16.096L14.474,16.058L14.46,16.021L14.448,15.983L14.437,15.945L14.426,15.906L14.417,15.867L14.408,15.827L14.4,15.787L14.394,15.747L14.388,15.707L14.383,15.666L14.38,15.625L14.377,15.584L14.376,15.542L14.375,15.5L14.376,15.458L14.377,15.416L14.38,15.375L14.383,15.334L14.388,15.293L14.394,15.253L14.4,15.213L14.408,15.173L14.417,15.133L14.426,15.094L14.437,15.055L14.448,15.017L14.46,14.979L14.474,14.942L14.488,14.904L14.503,14.868L14.519,14.832L14.535,14.796L14.553,14.76L14.571,14.726L14.59,14.691L14.61,14.658L14.631,14.624L14.653,14.592L14.675,14.56L14.698,14.528L14.722,14.497L14.746,14.467L14.771,14.437L14.797,14.408L14.824,14.379L14.851,14.351L14.879,14.324L14.908,14.297L14.937,14.271L14.967,14.246L14.997,14.222L15.028,14.198L15.06,14.175L15.092,14.153L15.124,14.131L15.158,14.11L15.191,14.09L15.226,14.071L15.26,14.053L15.296,14.035L15.332,14.019L15.368,14.003L15.404,13.988L15.442,13.974L15.479,13.96L15.517,13.948L15.555,13.937L15.594,13.926L15.633,13.917L15.673,13.908L15.713,13.9L15.753,13.894L15.793,13.888L15.834,13.883L15.875,13.88L15.916,13.877L15.958,13.876L16,13.875L16.042,13.876ZM15.991,15.125L15.982,15.125L15.973,15.126L15.964,15.127L15.954,15.128L15.945,15.129L15.935,15.131L15.926,15.132L15.917,15.135L15.907,15.137L15.898,15.139L15.889,15.142L15.879,15.145L15.87,15.148L15.861,15.152L15.853,15.155L15.844,15.159L15.836,15.163L15.827,15.167L15.819,15.171L15.811,15.176L15.803,15.18L15.796,15.185L15.788,15.19L15.781,15.195L15.774,15.2L15.767,15.206L15.76,15.211L15.754,15.217L15.747,15.223L15.741,15.228L15.735,15.235L15.728,15.241L15.723,15.247L15.717,15.254L15.711,15.26L15.706,15.267L15.7,15.274L15.695,15.281L15.69,15.288L15.685,15.296L15.68,15.303L15.676,15.311L15.671,15.319L15.667,15.327L15.663,15.336L15.659,15.344L15.655,15.353L15.652,15.361L15.648,15.37L15.645,15.379L15.642,15.388L15.639,15.398L15.637,15.407L15.635,15.417L15.632,15.426L15.631,15.435L15.629,15.445L15.628,15.454L15.627,15.464L15.626,15.473L15.625,15.482L15.625,15.491L15.625,15.5L15.625,15.518L15.627,15.536L15.629,15.555L15.632,15.574L15.637,15.593L15.642,15.612L15.648,15.63L15.655,15.647L15.663,15.664L15.671,15.681L15.68,15.697L15.69,15.712L15.7,15.726L15.711,15.74L15.723,15.753L15.735,15.765L15.747,15.777L15.76,15.789L15.774,15.8L15.788,15.81L15.803,15.82L15.819,15.829L15.836,15.837L15.853,15.845L15.87,15.852L15.889,15.858L15.907,15.863L15.926,15.868L15.945,15.871L15.964,15.873L15.982,15.875L16,15.875L16.009,15.875L16.018,15.875L16.027,15.874L16.036,15.873L16.046,15.872L16.055,15.871L16.065,15.869L16.074,15.868L16.084,15.865L16.093,15.863L16.102,15.861L16.111,15.858L16.121,15.855L16.13,15.852L16.139,15.848L16.147,15.845L16.156,15.841L16.164,15.837L16.173,15.833L16.181,15.829L16.189,15.824L16.197,15.82L16.204,15.815L16.212,15.81L16.219,15.805L16.226,15.8L16.233,15.794L16.24,15.789L16.246,15.783L16.253,15.777L16.259,15.772L16.265,15.765L16.272,15.759L16.277,15.753L16.283,15.746L16.289,15.74L16.294,15.733L16.3,15.726L16.305,15.719L16.31,15.712L16.315,15.704L16.32,15.697L16.324,15.689L16.329,15.681L16.333,15.673L16.337,15.664L16.341,15.656L16.345,15.647L16.348,15.639L16.352,15.63L16.355,15.621L16.358,15.611L16.361,15.602L16.363,15.593L16.365,15.584L16.368,15.574L16.369,15.565L16.371,15.555L16.372,15.546L16.373,15.536L16.374,15.527L16.375,15.518L16.375,15.509L16.375,15.5L16.375,15.491L16.375,15.482L16.374,15.473L16.373,15.464L16.372,15.454L16.371,15.445L16.369,15.435L16.368,15.426L16.365,15.416L16.363,15.407L16.361,15.398L16.358,15.389L16.355,15.379L16.352,15.37L16.348,15.361L16.345,15.353L16.341,15.344L16.337,15.336L16.333,15.327L16.329,15.319L16.324,15.311L16.32,15.303L16.315,15.296L16.31,15.288L16.305,15.281L16.3,15.274L16.294,15.267L16.289,15.26L16.283,15.254L16.277,15.247L16.272,15.241L16.265,15.235L16.259,15.228L16.253,15.223L16.246,15.217L16.24,15.211L16.233,15.206L16.226,15.2L16.219,15.195L16.212,15.19L16.204,15.185L16.197,15.18L16.189,15.176L16.181,15.171L16.173,15.167L16.164,15.163L16.156,15.159L16.147,15.155L16.139,15.152L16.13,15.148L16.121,15.145L16.111,15.142L16.102,15.139L16.093,15.137L16.083,15.135L16.074,15.132L16.065,15.131L16.055,15.129L16.046,15.128L16.036,15.127L16.027,15.126L16.018,15.125L16.009,15.125L16,15.125L15.991,15.125Z"/>
    </g>
</svg>
