<?xml version="1.0" encoding="UTF-8" standalone="no"?>
<!DOCTYPE svg PUBLIC "-//W3C//DTD SVG 1.1//EN" "http://www.w3.org/Graphics/SVG/1.1/DTD/svg11.dtd">
<svg width="100%" height="100%" viewBox="0 0 32 32" version="1.1" xmlns="http://www.w3.org/2000/svg" xmlns:xlink="http://www.w3.org/1999/xlink" xml:space="preserve" xmlns:serif="http://www.serif.com/" style="fill-rule:evenodd;clip-rule:evenodd;stroke-linejoin:round;stroke-miterlimit:1.41421;">
    <g id="Main">
        <clipPath id="_clip1">
            <path d="M5,10L15,10L15,31L29,31L29,0L5,0L5,10Z"/>
        </clipPath>
        <g clip-path="url(#_clip1)">
            <path d="M26,9L26,30L6,30L6,2L19,2L26,9ZM8,4L8,28L24,28L24,9.828L18.172,4L8,4Z"/>
        </g>
        <path d="M19,9L26,9L26,11L17,11L17,2L19,2L19,9Z"/>
        <path d="M9.077,12L9.155,12.002L9.232,12.004L9.309,12.008L9.385,12.012L9.461,12.018L9.537,12.024L9.613,12.031L9.689,12.039L9.764,12.048L9.839,12.058L9.913,12.069L9.988,12.081L10.062,12.094L10.135,12.107L10.209,12.122L10.282,12.137L10.354,12.154L10.427,12.171L10.499,12.189L10.57,12.208L10.642,12.228L10.713,12.248L10.783,12.27L10.854,12.292L10.924,12.315L10.993,12.339L11.062,12.364L11.131,12.39L11.199,12.416L11.267,12.444L11.335,12.472L11.402,12.501L11.468,12.53L11.534,12.561L11.6,12.592L11.666,12.624L11.731,12.657L11.795,12.69L11.859,12.725L11.922,12.76L11.986,12.795L12.048,12.832L12.11,12.869L12.172,12.907L12.233,12.946L12.294,12.985L12.354,13.025L12.413,13.066L12.472,13.108L12.531,13.15L12.589,13.193L12.646,13.236L12.703,13.28L12.76,13.325L12.816,13.371L12.871,13.417L12.926,13.464L12.98,13.511L13.033,13.559L13.086,13.608L13.139,13.658L13.191,13.708L13.242,13.758L13.292,13.809L13.342,13.861L13.392,13.914L13.441,13.967L13.489,14.02L13.536,14.074L13.583,14.129L13.629,14.184L13.675,14.24L13.72,14.297L13.764,14.354L13.807,14.411L13.85,14.469L13.892,14.528L13.934,14.587L13.975,14.646L14.015,14.706L14.054,14.767L14.093,14.828L14.131,14.89L14.168,14.952L14.205,15.014L14.24,15.078L14.275,15.141L14.31,15.205L14.343,15.269L14.376,15.334L14.408,15.4L14.439,15.466L14.47,15.532L14.499,15.598L14.528,15.665L14.556,15.733L14.584,15.801L14.61,15.869L14.636,15.938L14.661,16.007L14.685,16.076L14.708,16.146L14.73,16.217L14.752,16.287L14.772,16.358L14.792,16.43L14.811,16.501L14.829,16.573L14.846,16.646L14.863,16.718L14.878,16.791L14.893,16.865L14.906,16.938L14.919,17.012L14.931,17.087L14.942,17.161L14.952,17.236L14.961,17.311L14.969,17.387L14.976,17.463L14.982,17.539L14.988,17.615L14.992,17.691L14.996,17.768L14.998,17.845L15,17.923L15,18L15,18.077L14.998,18.155L14.996,18.232L14.992,18.309L14.988,18.385L14.982,18.461L14.976,18.537L14.969,18.613L14.961,18.689L14.952,18.764L14.942,18.839L14.931,18.913L14.919,18.988L14.906,19.062L14.893,19.135L14.878,19.209L14.863,19.282L14.846,19.354L14.829,19.427L14.811,19.499L14.792,19.57L14.772,19.642L14.752,19.713L14.73,19.783L14.708,19.854L14.685,19.924L14.661,19.993L14.636,20.062L14.61,20.131L14.584,20.199L14.556,20.267L14.528,20.335L14.499,20.402L14.47,20.468L14.439,20.534L14.408,20.6L14.376,20.666L14.343,20.731L14.31,20.795L14.275,20.859L14.24,20.922L14.205,20.986L14.168,21.048L14.131,21.11L14.093,21.172L14.054,21.233L14.015,21.294L13.975,21.354L13.934,21.413L13.892,21.472L13.85,21.531L13.807,21.589L13.764,21.646L13.72,21.703L13.675,21.76L13.629,21.816L13.583,21.871L13.536,21.926L13.489,21.98L13.441,22.033L13.392,22.086L13.342,22.139L13.292,22.191L13.242,22.242L13.191,22.292L13.139,22.342L13.086,22.392L13.033,22.441L12.98,22.489L12.926,22.536L12.871,22.583L12.816,22.629L12.76,22.675L12.703,22.72L12.646,22.764L12.589,22.807L12.531,22.85L12.472,22.892L12.413,22.934L12.354,22.975L12.294,23.015L12.233,23.054L12.172,23.093L12.11,23.131L12.048,23.168L11.986,23.205L11.922,23.24L11.859,23.275L11.795,23.31L11.731,23.343L11.666,23.376L11.6,23.408L11.534,23.439L11.468,23.47L11.402,23.499L11.335,23.528L11.267,23.556L11.199,23.584L11.131,23.61L11.062,23.636L10.993,23.661L10.924,23.685L10.854,23.708L10.783,23.73L10.713,23.752L10.642,23.772L10.57,23.792L10.499,23.811L10.427,23.829L10.354,23.846L10.282,23.863L10.209,23.878L10.135,23.893L10.062,23.906L9.988,23.919L9.913,23.931L9.839,23.942L9.764,23.952L9.689,23.961L9.613,23.969L9.537,23.976L9.461,23.982L9.385,23.988L9.309,23.992L9.232,23.996L9.155,23.998L9.077,24L9,24L8.923,24L8.845,23.998L8.768,23.996L8.691,23.992L8.615,23.988L8.539,23.982L8.463,23.976L8.387,23.969L8.311,23.961L8.236,23.952L8.161,23.942L8.087,23.931L8.012,23.919L7.938,23.906L7.865,23.893L7.791,23.878L7.718,23.863L7.646,23.846L7.573,23.829L7.501,23.811L7.43,23.792L7.358,23.772L7.287,23.752L7.217,23.73L7.146,23.708L7.076,23.685L7.007,23.661L6.938,23.636L6.869,23.61L6.801,23.584L6.733,23.556L6.665,23.528L6.598,23.499L6.532,23.47L6.466,23.439L6.4,23.408L6.334,23.376L6.269,23.343L6.205,23.31L6.141,23.275L6.078,23.24L6.014,23.205L5.952,23.168L5.89,23.131L5.828,23.093L5.767,23.054L5.706,23.015L5.646,22.975L5.587,22.934L5.528,22.892L5.469,22.85L5.411,22.807L5.354,22.764L5.297,22.72L5.24,22.675L5.184,22.629L5.129,22.583L5.074,22.536L5.02,22.489L4.967,22.441L4.914,22.392L4.861,22.342L4.809,22.292L4.758,22.242L4.708,22.191L4.658,22.139L4.608,22.086L4.559,22.033L4.511,21.98L4.464,21.926L4.417,21.871L4.371,21.816L4.325,21.76L4.28,21.703L4.236,21.646L4.193,21.589L4.15,21.531L4.108,21.472L4.066,21.413L4.025,21.354L3.985,21.294L3.946,21.233L3.907,21.172L3.869,21.11L3.832,21.048L3.795,20.986L3.76,20.922L3.725,20.859L3.69,20.795L3.657,20.731L3.624,20.666L3.592,20.6L3.561,20.534L3.53,20.468L3.501,20.402L3.472,20.335L3.444,20.267L3.416,20.199L3.39,20.131L3.364,20.062L3.339,19.993L3.315,19.924L3.292,19.854L3.27,19.783L3.248,19.713L3.228,19.642L3.208,19.57L3.189,19.499L3.171,19.427L3.154,19.354L3.137,19.282L3.122,19.209L3.107,19.135L3.094,19.062L3.081,18.988L3.069,18.913L3.058,18.839L3.048,18.764L3.039,18.689L3.031,18.613L3.024,18.537L3.018,18.461L3.012,18.385L3.008,18.309L3.004,18.232L3.002,18.155L3,18.077L3,18L3,17.923L3.002,17.845L3.004,17.768L3.008,17.691L3.012,17.615L3.018,17.539L3.024,17.463L3.031,17.387L3.039,17.311L3.048,17.236L3.058,17.161L3.069,17.087L3.081,17.012L3.094,16.938L3.107,16.865L3.122,16.791L3.137,16.718L3.154,16.646L3.171,16.573L3.189,16.501L3.208,16.43L3.228,16.358L3.248,16.287L3.27,16.217L3.292,16.146L3.315,16.076L3.339,16.007L3.364,15.938L3.39,15.869L3.416,15.801L3.444,15.733L3.472,15.665L3.501,15.598L3.53,15.532L3.561,15.466L3.592,15.4L3.624,15.334L3.657,15.269L3.69,15.205L3.725,15.141L3.76,15.078L3.795,15.014L3.832,14.952L3.869,14.89L3.907,14.828L3.946,14.767L3.985,14.706L4.025,14.646L4.066,14.587L4.108,14.528L4.15,14.469L4.193,14.411L4.236,14.354L4.28,14.297L4.325,14.24L4.371,14.184L4.417,14.129L4.464,14.074L4.511,14.02L4.559,13.967L4.608,13.914L4.658,13.861L4.708,13.809L4.758,13.758L4.809,13.708L4.861,13.658L4.914,13.608L4.967,13.559L5.02,13.511L5.074,13.464L5.129,13.417L5.184,13.371L5.24,13.325L5.297,13.28L5.354,13.236L5.411,13.193L5.469,13.15L5.528,13.108L5.587,13.066L5.646,13.025L5.706,12.985L5.767,12.946L5.828,12.907L5.89,12.869L5.952,12.832L6.014,12.795L6.078,12.76L6.141,12.725L6.205,12.69L6.269,12.657L6.334,12.624L6.4,12.592L6.466,12.561L6.532,12.53L6.598,12.501L6.665,12.472L6.733,12.444L6.801,12.416L6.869,12.39L6.938,12.364L7.007,12.339L7.076,12.315L7.146,12.292L7.217,12.27L7.287,12.248L7.358,12.228L7.43,12.208L7.501,12.189L7.573,12.171L7.646,12.154L7.718,12.137L7.791,12.122L7.865,12.107L7.938,12.094L8.012,12.081L8.087,12.069L8.161,12.058L8.236,12.048L8.311,12.039L8.387,12.031L8.463,12.024L8.539,12.018L8.615,12.012L8.691,12.008L8.768,12.004L8.845,12.002L8.923,12L9,12L9.077,12ZM8.948,14L8.896,14.001L8.844,14.003L8.793,14.005L8.742,14.008L8.691,14.012L8.64,14.016L8.589,14.021L8.539,14.026L8.489,14.032L8.439,14.039L8.389,14.046L8.34,14.054L8.291,14.063L8.242,14.072L8.193,14.081L8.144,14.092L8.096,14.102L8.048,14.114L8,14.126L7.952,14.138L7.905,14.152L7.858,14.165L7.811,14.18L7.764,14.194L7.718,14.21L7.672,14.226L7.626,14.242L7.58,14.259L7.535,14.277L7.49,14.295L7.445,14.314L7.4,14.333L7.356,14.353L7.312,14.373L7.268,14.394L7.225,14.415L7.182,14.437L7.139,14.459L7.096,14.482L7.054,14.505L7.012,14.529L6.97,14.553L6.929,14.578L6.888,14.604L6.847,14.629L6.806,14.656L6.766,14.682L6.726,14.71L6.687,14.737L6.648,14.766L6.609,14.794L6.571,14.823L6.533,14.853L6.495,14.883L6.458,14.913L6.421,14.944L6.384,14.976L6.348,15.007L6.312,15.039L6.276,15.072L6.241,15.105L6.207,15.139L6.172,15.172L6.139,15.207L6.105,15.241L6.072,15.276L6.039,15.312L6.007,15.348L5.976,15.384L5.944,15.421L5.913,15.458L5.883,15.495L5.853,15.533L5.823,15.571L5.794,15.609L5.766,15.648L5.737,15.687L5.71,15.726L5.682,15.766L5.656,15.806L5.629,15.847L5.604,15.888L5.578,15.929L5.553,15.97L5.529,16.012L5.505,16.054L5.482,16.096L5.459,16.139L5.437,16.182L5.415,16.225L5.394,16.268L5.373,16.312L5.353,16.356L5.333,16.4L5.314,16.445L5.295,16.49L5.277,16.535L5.259,16.58L5.242,16.626L5.226,16.672L5.21,16.718L5.194,16.764L5.18,16.811L5.165,16.858L5.152,16.905L5.138,16.952L5.126,17L5.114,17.048L5.102,17.096L5.092,17.144L5.081,17.193L5.072,17.242L5.063,17.291L5.054,17.34L5.046,17.389L5.039,17.439L5.032,17.489L5.026,17.539L5.021,17.589L5.016,17.64L5.012,17.691L5.008,17.742L5.005,17.793L5.003,17.844L5.001,17.896L5,17.948L5,18L5,18.052L5.001,18.104L5.003,18.156L5.005,18.207L5.008,18.258L5.012,18.309L5.016,18.36L5.021,18.411L5.026,18.461L5.032,18.511L5.039,18.561L5.046,18.611L5.054,18.66L5.063,18.709L5.072,18.758L5.081,18.807L5.092,18.856L5.102,18.904L5.114,18.952L5.126,19L5.138,19.048L5.152,19.095L5.165,19.142L5.18,19.189L5.194,19.236L5.21,19.282L5.226,19.328L5.242,19.374L5.259,19.42L5.277,19.465L5.295,19.51L5.314,19.555L5.333,19.6L5.353,19.644L5.373,19.688L5.394,19.732L5.415,19.775L5.437,19.818L5.459,19.861L5.482,19.904L5.505,19.946L5.529,19.988L5.553,20.03L5.578,20.071L5.604,20.112L5.629,20.153L5.656,20.194L5.682,20.234L5.71,20.274L5.737,20.313L5.766,20.352L5.794,20.391L5.823,20.429L5.853,20.467L5.883,20.505L5.913,20.542L5.944,20.579L5.976,20.616L6.007,20.652L6.039,20.688L6.072,20.724L6.105,20.759L6.139,20.793L6.172,20.828L6.207,20.861L6.241,20.895L6.276,20.928L6.312,20.961L6.348,20.993L6.384,21.025L6.421,21.056L6.458,21.087L6.495,21.117L6.533,21.147L6.571,21.177L6.609,21.206L6.648,21.234L6.687,21.263L6.726,21.29L6.766,21.318L6.806,21.344L6.847,21.371L6.888,21.396L6.929,21.422L6.97,21.447L7.012,21.471L7.054,21.495L7.096,21.518L7.139,21.541L7.182,21.563L7.225,21.585L7.268,21.606L7.312,21.627L7.356,21.647L7.4,21.667L7.445,21.686L7.49,21.705L7.535,21.723L7.58,21.741L7.626,21.758L7.672,21.774L7.718,21.79L7.764,21.806L7.811,21.82L7.858,21.835L7.905,21.848L7.952,21.862L8,21.874L8.048,21.886L8.096,21.898L8.144,21.908L8.193,21.919L8.242,21.928L8.291,21.937L8.34,21.946L8.389,21.954L8.439,21.961L8.489,21.968L8.539,21.974L8.589,21.979L8.64,21.984L8.691,21.988L8.742,21.992L8.793,21.995L8.844,21.997L8.896,21.999L8.948,22L9,22L9.052,22L9.104,21.999L9.156,21.997L9.207,21.995L9.258,21.992L9.309,21.988L9.36,21.984L9.411,21.979L9.461,21.974L9.511,21.968L9.561,21.961L9.611,21.954L9.66,21.946L9.709,21.937L9.758,21.928L9.807,21.919L9.856,21.908L9.904,21.898L9.952,21.886L10,21.874L10.048,21.862L10.095,21.848L10.142,21.835L10.189,21.82L10.236,21.806L10.282,21.79L10.328,21.774L10.374,21.758L10.42,21.741L10.465,21.723L10.51,21.705L10.555,21.686L10.6,21.667L10.644,21.647L10.688,21.627L10.732,21.606L10.775,21.585L10.818,21.563L10.861,21.541L10.904,21.518L10.946,21.495L10.988,21.471L11.03,21.447L11.071,21.422L11.112,21.396L11.153,21.371L11.194,21.344L11.234,21.318L11.274,21.29L11.313,21.263L11.352,21.234L11.391,21.206L11.429,21.177L11.467,21.147L11.505,21.117L11.542,21.087L11.579,21.056L11.616,21.025L11.652,20.993L11.688,20.961L11.724,20.928L11.759,20.895L11.793,20.861L11.828,20.828L11.861,20.793L11.895,20.759L11.928,20.724L11.961,20.688L11.993,20.652L12.024,20.616L12.056,20.579L12.087,20.542L12.117,20.505L12.147,20.467L12.177,20.429L12.206,20.391L12.234,20.352L12.263,20.313L12.29,20.274L12.318,20.234L12.344,20.194L12.371,20.153L12.396,20.112L12.422,20.071L12.447,20.03L12.471,19.988L12.495,19.946L12.518,19.904L12.541,19.861L12.563,19.818L12.585,19.775L12.606,19.732L12.627,19.688L12.647,19.644L12.667,19.6L12.686,19.555L12.705,19.51L12.723,19.465L12.741,19.42L12.758,19.374L12.774,19.328L12.79,19.282L12.806,19.236L12.82,19.189L12.835,19.142L12.848,19.095L12.862,19.048L12.874,19L12.886,18.952L12.898,18.904L12.908,18.856L12.919,18.807L12.928,18.758L12.937,18.709L12.946,18.66L12.954,18.611L12.961,18.561L12.968,18.511L12.974,18.461L12.979,18.411L12.984,18.36L12.988,18.309L12.992,18.258L12.995,18.207L12.997,18.156L12.999,18.104L13,18.052L13,18L13,17.948L12.999,17.896L12.997,17.844L12.995,17.793L12.992,17.742L12.988,17.691L12.984,17.64L12.979,17.589L12.974,17.539L12.968,17.489L12.961,17.439L12.954,17.389L12.946,17.34L12.937,17.291L12.928,17.242L12.919,17.193L12.908,17.144L12.898,17.096L12.886,17.048L12.874,17L12.862,16.952L12.848,16.905L12.835,16.858L12.82,16.811L12.806,16.764L12.79,16.718L12.774,16.672L12.758,16.626L12.741,16.58L12.723,16.535L12.705,16.49L12.686,16.445L12.667,16.4L12.647,16.356L12.627,16.312L12.606,16.268L12.585,16.225L12.563,16.182L12.541,16.139L12.518,16.096L12.495,16.054L12.471,16.012L12.447,15.97L12.422,15.929L12.396,15.888L12.371,15.847L12.344,15.806L12.318,15.766L12.29,15.726L12.263,15.687L12.234,15.648L12.206,15.609L12.177,15.571L12.147,15.533L12.117,15.495L12.087,15.458L12.056,15.421L12.024,15.384L11.993,15.348L11.961,15.312L11.928,15.276L11.895,15.241L11.861,15.207L11.828,15.172L11.793,15.139L11.759,15.105L11.724,15.072L11.688,15.039L11.652,15.007L11.616,14.976L11.579,14.944L11.542,14.913L11.505,14.883L11.467,14.853L11.429,14.823L11.391,14.794L11.352,14.766L11.313,14.737L11.274,14.71L11.234,14.682L11.194,14.656L11.153,14.629L11.112,14.604L11.071,14.578L11.03,14.553L10.988,14.529L10.946,14.505L10.904,14.482L10.861,14.459L10.818,14.437L10.775,14.415L10.732,14.394L10.688,14.373L10.644,14.353L10.6,14.333L10.555,14.314L10.51,14.295L10.465,14.277L10.42,14.259L10.374,14.242L10.328,14.226L10.282,14.21L10.236,14.194L10.189,14.18L10.142,14.165L10.095,14.152L10.048,14.138L10,14.126L9.952,14.114L9.904,14.102L9.856,14.092L9.807,14.081L9.758,14.072L9.709,14.063L9.66,14.054L9.611,14.046L9.561,14.039L9.511,14.032L9.461,14.026L9.411,14.021L9.36,14.016L9.309,14.012L9.258,14.008L9.207,14.005L9.156,14.003L9.104,14.001L9.052,14L9,14L8.948,14Z"/>
        <path d="M12.416,31.479L9,29.202L5.584,31.479L5,31.166L5,22L7,22L7,28.131L9,26.798L11,28.131L11,22L13,22L13,31.166L12.416,31.479Z"/>
    </g>
</svg>
