<?xml version="1.0" encoding="UTF-8" standalone="no"?>
<!DOCTYPE svg PUBLIC "-//W3C//DTD SVG 1.1//EN" "http://www.w3.org/Graphics/SVG/1.1/DTD/svg11.dtd">
<svg width="100%" height="100%" viewBox="0 0 32 32" version="1.1" xmlns="http://www.w3.org/2000/svg" xmlns:xlink="http://www.w3.org/1999/xlink" xml:space="preserve" xmlns:serif="http://www.serif.com/" style="fill-rule:evenodd;clip-rule:evenodd;stroke-linejoin:round;stroke-miterlimit:1.41421;">
    <g id="Main">
        <clipPath id="_clip1">
            <path d="M21,5.643L11.789,5.643L11.789,27L3,27L3,1L21,1L21,5.643Z"/>
        </clipPath>
        <g clip-path="url(#_clip1)">
            <path d="M22,8L21.921,27L3,27L3,1L16,1L22,8ZM5,3L5,25L19.929,25L19.997,8.736L15.08,3L5,3Z"/>
        </g>
        <path d="M30,12L30,31L11,31L11,5L23,5L30,12ZM13,7L13,29L28,29L28,12.828L22.172,7L13,7Z"/>
        <path d="M23,12L30,12L30,14L21,14L21,5L23,5L23,12Z"/>
    </g>
</svg>
