<?xml version="1.0" encoding="UTF-8" standalone="no"?>
<!DOCTYPE svg PUBLIC "-//W3C//DTD SVG 1.1//EN" "http://www.w3.org/Graphics/SVG/1.1/DTD/svg11.dtd">
<svg width="100%" height="100%" viewBox="0 0 32 32" version="1.1" xmlns="http://www.w3.org/2000/svg" xmlns:xlink="http://www.w3.org/1999/xlink" xml:space="preserve" xmlns:serif="http://www.serif.com/" style="fill-rule:evenodd;clip-rule:evenodd;stroke-linejoin:round;stroke-miterlimit:1.41421;">
    <g id="Main">
        <clipPath id="_clip1">
            <path d="M14,0L16,16L32,19L32,32L0,32L0,0L14,0Z"/>
        </clipPath>
        <g clip-path="url(#_clip1)">
            <path d="M22.108,30.791L22.045,30.817L21.864,30.889L21.682,30.96L21.499,31.028L21.315,31.095L21.129,31.159L20.943,31.221L20.756,31.28L20.567,31.338L20.378,31.393L20.188,31.445L19.997,31.496L19.805,31.544L19.612,31.59L19.418,31.634L19.223,31.675L19.027,31.713L18.831,31.75L18.633,31.784L18.435,31.816L18.236,31.845L18.037,31.871L17.836,31.896L17.635,31.917L17.433,31.937L17.23,31.953L17.027,31.968L16.823,31.979L16.618,31.988L16.413,31.995L16.267,31.998L16.229,29.998L16.362,29.995L16.542,29.99L16.721,29.982L16.9,29.971L17.078,29.959L17.256,29.944L17.433,29.928L17.609,29.909L17.784,29.887L17.959,29.864L18.133,29.838L18.306,29.811L18.479,29.781L18.65,29.749L18.821,29.715L18.992,29.679L19.161,29.641L19.33,29.601L19.498,29.559L19.665,29.515L19.831,29.469L19.997,29.421L20.161,29.371L20.325,29.318L20.488,29.264L20.65,29.208L20.811,29.151L20.971,29.091L21.13,29.029L21.288,28.965L21.34,28.944L22.108,30.791ZM9.631,28.469L9.782,28.545L9.935,28.62L10.088,28.692L10.242,28.763L10.398,28.833L10.554,28.9L10.712,28.965L10.87,29.029L11.029,29.091L11.189,29.151L11.35,29.208L11.512,29.264L11.675,29.318L11.839,29.371L12.003,29.421L12.169,29.469L12.335,29.515L12.502,29.559L12.67,29.601L12.839,29.641L13.008,29.679L13.179,29.715L13.35,29.749L13.521,29.781L13.694,29.811L13.867,29.838L14.041,29.864L14.216,29.887L14.391,29.909L14.485,29.919L14.27,31.907L14.164,31.896L13.963,31.871L13.764,31.845L13.565,31.816L13.367,31.784L13.169,31.75L12.973,31.713L12.777,31.675L12.582,31.634L12.388,31.59L12.195,31.544L12.003,31.496L11.812,31.445L11.622,31.393L11.433,31.338L11.244,31.28L11.057,31.221L10.871,31.159L10.685,31.095L10.501,31.028L10.318,30.96L10.136,30.889L9.955,30.817L9.775,30.742L9.596,30.665L9.418,30.586L9.241,30.504L9.066,30.421L8.892,30.336L8.719,30.249L8.565,30.169L9.488,28.394L9.631,28.469ZM28.448,26.048L28.344,26.175L28.221,26.322L28.096,26.468L27.97,26.613L27.841,26.756L27.711,26.897L27.58,27.037L27.446,27.175L27.311,27.311L27.175,27.446L27.037,27.58L26.897,27.711L26.756,27.841L26.613,27.97L26.468,28.096L26.322,28.221L26.175,28.344L26.026,28.466L25.876,28.586L25.724,28.704L25.571,28.82L25.416,28.934L25.26,29.046L25.102,29.157L24.943,29.266L24.783,29.373L24.621,29.478L24.458,29.581L24.294,29.682L24.128,29.782L23.961,29.879L23.903,29.912L22.917,28.172L22.964,28.145L23.11,28.06L23.255,27.973L23.399,27.885L23.541,27.794L23.683,27.702L23.823,27.609L23.962,27.514L24.1,27.417L24.237,27.318L24.372,27.218L24.507,27.116L24.64,27.013L24.771,26.908L24.902,26.802L25.031,26.694L25.159,26.585L25.285,26.474L25.41,26.361L25.534,26.248L25.657,26.132L25.778,26.015L25.897,25.897L26.015,25.778L26.132,25.657L26.248,25.534L26.361,25.41L26.474,25.285L26.585,25.159L26.694,25.031L26.802,24.902L26.898,24.784L28.448,26.048ZM4.391,23.823L4.486,23.962L4.583,24.1L4.682,24.237L4.782,24.372L4.884,24.507L4.987,24.64L5.092,24.771L5.198,24.902L5.306,25.031L5.415,25.159L5.526,25.285L5.639,25.41L5.752,25.534L5.868,25.657L5.985,25.778L6.103,25.897L6.222,26.015L6.343,26.132L6.466,26.248L6.59,26.361L6.715,26.474L6.841,26.585L6.969,26.694L7.098,26.802L7.229,26.908L7.36,27.013L7.493,27.116L7.628,27.218L7.763,27.318L7.9,27.417L8.007,27.492L6.858,29.129L6.74,29.046L6.584,28.934L6.429,28.82L6.276,28.704L6.124,28.586L5.974,28.466L5.825,28.344L5.678,28.221L5.532,28.096L5.387,27.97L5.244,27.841L5.103,27.711L4.963,27.58L4.825,27.446L4.689,27.311L4.554,27.175L4.42,27.037L4.289,26.897L4.159,26.756L4.03,26.613L3.904,26.468L3.779,26.322L3.656,26.175L3.534,26.026L3.414,25.876L3.296,25.724L3.18,25.571L3.066,25.416L2.954,25.26L2.843,25.102L2.734,24.943L2.684,24.868L4.347,23.758L4.391,23.823ZM31.746,18.851L31.713,19.027L31.675,19.223L31.634,19.418L31.59,19.612L31.544,19.805L31.496,19.997L31.445,20.188L31.393,20.378L31.338,20.567L31.28,20.756L31.221,20.943L31.159,21.129L31.095,21.315L31.028,21.499L30.96,21.682L30.889,21.864L30.817,22.045L30.742,22.225L30.665,22.404L30.586,22.582L30.504,22.759L30.421,22.934L30.336,23.108L30.249,23.281L30.159,23.453L30.068,23.624L29.974,23.793L29.879,23.961L29.782,24.128L29.682,24.294L29.606,24.418L27.903,23.369L27.973,23.255L28.06,23.11L28.145,22.964L28.229,22.817L28.31,22.669L28.39,22.52L28.469,22.369L28.545,22.218L28.62,22.065L28.692,21.912L28.763,21.758L28.833,21.602L28.9,21.446L28.965,21.288L29.029,21.13L29.091,20.971L29.151,20.811L29.208,20.65L29.264,20.488L29.318,20.325L29.371,20.161L29.421,19.997L29.469,19.831L29.515,19.665L29.559,19.498L29.601,19.33L29.641,19.161L29.679,18.992L29.715,18.821L29.749,18.65L29.78,18.487L31.746,18.851ZM2.056,17.256L2.072,17.433L2.091,17.609L2.113,17.784L2.136,17.959L2.162,18.133L2.189,18.306L2.219,18.479L2.251,18.65L2.285,18.821L2.321,18.992L2.359,19.161L2.399,19.33L2.441,19.498L2.485,19.665L2.531,19.831L2.579,19.997L2.629,20.161L2.682,20.325L2.736,20.488L2.792,20.65L2.849,20.811L2.909,20.971L2.971,21.13L3.035,21.288L3.1,21.446L3.167,21.602L3.237,21.758L3.308,21.912L3.38,22.065L3.455,22.218L3.465,22.238L1.68,23.139L1.664,23.108L1.579,22.934L1.496,22.759L1.414,22.582L1.335,22.404L1.258,22.225L1.183,22.045L1.111,21.864L1.04,21.682L0.972,21.499L0.905,21.315L0.841,21.129L0.779,20.943L0.72,20.756L0.662,20.567L0.607,20.378L0.555,20.188L0.504,19.997L0.456,19.805L0.41,19.612L0.366,19.418L0.325,19.223L0.287,19.027L0.25,18.831L0.216,18.633L0.184,18.435L0.155,18.236L0.129,18.037L0.104,17.836L0.083,17.635L0.063,17.433L0.061,17.399L2.054,17.234L2.056,17.256ZM31.221,11.057L31.28,11.244L31.338,11.433L31.393,11.622L31.445,11.812L31.496,12.003L31.544,12.195L31.59,12.388L31.634,12.582L31.675,12.777L31.713,12.973L31.75,13.169L31.784,13.367L31.816,13.565L31.845,13.764L31.871,13.963L31.896,14.164L31.917,14.365L31.937,14.567L31.953,14.77L31.968,14.973L31.979,15.177L31.988,15.382L31.995,15.587L31.999,15.793L32,16L31.999,16.207L31.995,16.413L31.988,16.618L31.979,16.823L31.977,16.866L29.98,16.752L29.982,16.721L29.99,16.542L29.995,16.362L29.999,16.181L30,16L29.999,15.819L29.995,15.638L29.99,15.458L29.982,15.279L29.971,15.1L29.959,14.922L29.944,14.744L29.928,14.567L29.909,14.391L29.887,14.216L29.864,14.041L29.838,13.867L29.811,13.694L29.781,13.521L29.749,13.35L29.715,13.179L29.679,13.008L29.641,12.839L29.601,12.67L29.559,12.502L29.515,12.335L29.469,12.169L29.421,12.003L29.371,11.839L29.318,11.675L29.288,11.584L31.186,10.954L31.221,11.057ZM3.167,10.399L3.167,10.398L3.1,10.554L3.035,10.712L2.971,10.87L2.909,11.029L2.849,11.189L2.792,11.35L2.736,11.512L2.682,11.675L2.629,11.839L2.579,12.003L2.531,12.169L2.485,12.335L2.441,12.502L2.399,12.67L2.359,12.839L2.321,13.008L2.285,13.179L2.251,13.35L2.219,13.521L2.189,13.694L2.162,13.867L2.136,14.041L2.113,14.216L2.091,14.391L2.072,14.567L2.056,14.744L2.041,14.922L2.029,15.1L2.018,15.279L2.01,15.458L2.01,15.464L0.011,15.401L0.012,15.382L0.021,15.177L0.032,14.973L0.047,14.77L0.063,14.567L0.083,14.365L0.104,14.164L0.129,13.963L0.155,13.764L0.184,13.565L0.216,13.367L0.25,13.169L0.287,12.973L0.325,12.777L0.366,12.582L0.41,12.388L0.456,12.195L0.504,12.003L0.555,11.812L0.607,11.622L0.662,11.433L0.72,11.244L0.779,11.057L0.841,10.871L0.905,10.685L0.972,10.501L1.04,10.318L1.111,10.136L1.183,9.955L1.258,9.775L1.335,9.596L1.34,9.586L3.167,10.399ZM27.037,4.42L27.175,4.554L27.311,4.689L27.446,4.825L27.58,4.963L27.711,5.103L27.841,5.244L27.97,5.387L28.096,5.532L28.221,5.678L28.344,5.825L28.466,5.974L28.586,6.124L28.704,6.276L28.82,6.429L28.934,6.584L29.046,6.74L29.157,6.898L29.266,7.057L29.373,7.217L29.478,7.379L29.581,7.542L29.682,7.706L29.782,7.872L29.879,8.039L29.974,8.207L30.068,8.376L30.159,8.547L30.249,8.719L30.336,8.892L30.421,9.066L30.438,9.101L28.631,9.958L28.62,9.935L28.545,9.782L28.469,9.631L28.39,9.48L28.31,9.331L28.229,9.183L28.145,9.036L28.06,8.89L27.973,8.745L27.885,8.601L27.794,8.459L27.702,8.317L27.609,8.177L27.514,8.038L27.417,7.9L27.318,7.763L27.218,7.628L27.116,7.493L27.013,7.36L26.908,7.229L26.802,7.098L26.694,6.969L26.585,6.841L26.474,6.715L26.361,6.59L26.248,6.466L26.132,6.343L26.015,6.222L25.897,6.103L25.778,5.985L25.657,5.868L25.532,5.751L26.904,4.295L27.037,4.42ZM7.439,4.926L7.36,4.987L7.229,5.092L7.098,5.198L6.969,5.306L6.841,5.415L6.715,5.526L6.59,5.639L6.466,5.752L6.343,5.868L6.222,5.985L6.103,6.103L5.985,6.222L5.868,6.343L5.752,6.466L5.639,6.59L5.526,6.715L5.415,6.841L5.306,6.969L5.198,7.098L5.092,7.229L4.987,7.36L4.884,7.493L4.782,7.628L4.682,7.763L4.583,7.9L4.486,8.038L4.391,8.177L4.298,8.317L4.206,8.459L4.115,8.601L4.027,8.745L3.971,8.838L2.256,7.81L2.318,7.706L2.419,7.542L2.522,7.379L2.627,7.217L2.734,7.057L2.843,6.898L2.954,6.74L3.066,6.584L3.18,6.429L3.296,6.276L3.414,6.124L3.534,5.974L3.656,5.825L3.779,5.678L3.904,5.532L4.03,5.387L4.159,5.244L4.289,5.103L4.42,4.963L4.554,4.825L4.689,4.689L4.825,4.554L4.963,4.42L5.103,4.289L5.244,4.159L5.387,4.03L5.532,3.904L5.678,3.779L5.825,3.656L5.974,3.534L6.124,3.414L6.213,3.346L7.439,4.926ZM19.997,0.504L20.188,0.555L20.378,0.607L20.567,0.662L20.756,0.72L20.943,0.779L21.129,0.841L21.315,0.905L21.499,0.972L21.682,1.04L21.864,1.111L22.045,1.183L22.225,1.258L22.404,1.335L22.582,1.414L22.759,1.496L22.934,1.579L23.108,1.664L23.281,1.751L23.453,1.841L23.624,1.932L23.793,2.026L23.961,2.121L24.128,2.218L24.294,2.318L24.458,2.419L24.621,2.522L24.783,2.627L24.943,2.734L25.102,2.843L25.26,2.954L25.36,3.026L24.191,4.648L24.1,4.583L23.962,4.486L23.823,4.391L23.683,4.298L23.541,4.206L23.399,4.115L23.255,4.027L23.11,3.94L22.964,3.855L22.817,3.771L22.669,3.69L22.52,3.61L22.369,3.531L22.218,3.455L22.065,3.38L21.912,3.308L21.758,3.237L21.602,3.167L21.446,3.1L21.288,3.035L21.13,2.971L20.971,2.909L20.811,2.849L20.65,2.792L20.488,2.736L20.325,2.682L20.161,2.629L19.997,2.579L19.831,2.531L19.665,2.485L19.498,2.441L19.472,2.434L19.959,0.495L19.997,0.504ZM13.791,2.174L13.694,2.189L13.521,2.219L13.35,2.251L13.179,2.285L13.008,2.321L12.839,2.359L12.67,2.399L12.502,2.441L12.335,2.485L12.169,2.531L12.003,2.579L11.839,2.629L11.675,2.682L11.512,2.736L11.35,2.792L11.189,2.849L11.029,2.909L10.87,2.971L10.712,3.035L10.554,3.1L10.398,3.167L10.242,3.237L10.088,3.308L9.935,3.38L9.782,3.455L9.631,3.531L9.48,3.61L9.331,3.69L9.183,3.771L9.036,3.855L8.89,3.94L8.894,3.937L7.866,2.222L7.872,2.218L8.039,2.121L8.207,2.026L8.376,1.932L8.547,1.841L8.719,1.751L8.892,1.664L9.066,1.579L9.241,1.496L9.418,1.414L9.596,1.335L9.775,1.258L9.955,1.183L10.136,1.111L10.318,1.04L10.501,0.972L10.685,0.905L10.871,0.841L11.057,0.779L11.244,0.72L11.433,0.662L11.622,0.607L11.812,0.555L12.003,0.504L12.195,0.456L12.388,0.41L12.582,0.366L12.777,0.325L12.973,0.287L13.169,0.25L13.367,0.216L13.476,0.199L13.791,2.174ZM16.207,0.001L16.413,0.005L16.618,0.012L16.823,0.021L17.027,0.032L17.23,0.047L17.433,0.063L17.635,0.083L17.836,0.104L17.995,0.124L17.755,2.109L17.609,2.091L17.433,2.072L17.256,2.056L17.078,2.041L16.9,2.029L16.721,2.018L16.542,2.01L16.362,2.005L16.181,2.001L16,2L15.819,2.001L15.638,2.005L15.529,2.008L15.466,0.009L15.587,0.005L15.793,0.001L16,0L16.207,0.001Z"/>
        </g>
        <rect x="15" y="0" width="2" height="16"/>
        <rect x="20" y="15" width="10" height="2"/>
        <path d="M16,19L13,15L19,15L16,19Z"/>
        <path d="M16,19L13,15L19,15L16,19ZM15,16L16,17.333L17,16L15,16Z"/>
        <path d="M32,16L28,19L28,13L32,16Z"/>
        <path d="M32,16L28,19L28,13L32,16ZM29,17L30.333,16L29,15L29,17Z"/>
    </g>
</svg>
