<?xml version="1.0" encoding="UTF-8" standalone="no"?>
<!DOCTYPE svg PUBLIC "-//W3C//DTD SVG 1.1//EN" "http://www.w3.org/Graphics/SVG/1.1/DTD/svg11.dtd">
<svg width="100%" height="100%" viewBox="0 0 32 32" version="1.1" xmlns="http://www.w3.org/2000/svg" xmlns:xlink="http://www.w3.org/1999/xlink" xml:space="preserve" xmlns:serif="http://www.serif.com/" style="fill-rule:evenodd;clip-rule:evenodd;stroke-linejoin:round;stroke-miterlimit:1.41421;">
    <g id="Main">
        <path d="M16.203,0.001L16.405,0.004L16.607,0.008L16.809,0.014L17.011,0.023L17.212,0.033L17.413,0.044L17.613,0.058L17.813,0.074L18.012,0.091L18.211,0.11L18.409,0.131L18.607,0.154L18.805,0.178L19.002,0.205L19.198,0.233L19.393,0.264L19.588,0.296L19.783,0.33L19.977,0.366L20.17,0.404L20.362,0.443L20.554,0.485L20.745,0.529L20.935,0.574L21.124,0.621L21.313,0.671L21.5,0.722L21.687,0.775L21.873,0.83L22.058,0.887L22.243,0.946L22.426,1.007L22.608,1.069L22.79,1.134L22.97,1.201L23.15,1.27L23.328,1.34L23.505,1.413L23.681,1.488L23.856,1.564L24.03,1.643L24.203,1.724L24.375,1.806L24.545,1.891L24.714,1.978L24.882,2.067L25.049,2.157L25.214,2.25L25.378,2.345L25.541,2.442L25.702,2.541L25.862,2.642L26.021,2.745L26.178,2.85L26.334,2.957L26.488,3.067L26.64,3.178L26.791,3.291L26.941,3.407L27.089,3.524L27.235,3.644L27.379,3.766L27.522,3.89L27.663,4.016L27.803,4.144L27.941,4.274L28.076,4.406L28.21,4.541L28.343,4.677L28.473,4.816L28.601,4.956L28.728,5.099L28.852,5.244L28.975,5.391L29.095,5.54L29.214,5.691L29.33,5.844L29.445,6L29.557,6.157L29.667,6.316L29.775,6.478L29.881,6.642L29.984,6.807L30.085,6.975L30.184,7.145L30.281,7.317L30.375,7.491L30.467,7.667L30.557,7.845L30.644,8.025L30.729,8.207L30.811,8.391L30.891,8.577L30.968,8.765L31.043,8.955L31.115,9.147L31.185,9.341L31.252,9.537L31.317,9.735L31.379,9.935L31.438,10.137L31.495,10.341L31.549,10.547L31.6,10.755L31.649,10.965L31.695,11.177L31.738,11.39L31.778,11.606L31.816,11.824L31.851,12.043L31.883,12.264L31.912,12.488L31.938,12.713L31.962,12.94L31.982,13.169L32,13.4L32.014,13.633L32.026,13.868L32.035,14.105L32.041,14.343L32.044,14.584L32.044,14.826L32.041,15.07L32.035,15.316L32.025,15.565L32.013,15.815L31.998,16.062L31.986,16.247L31.976,16.421L31.958,16.761L31.941,17.085L31.924,17.397L31.915,17.552L31.905,17.704L31.894,17.855L31.881,18.005L31.866,18.154L31.849,18.303L31.83,18.453L31.807,18.602L31.782,18.749L31.768,18.826L31.753,18.901L31.737,18.976L31.72,19.052L31.702,19.127L31.683,19.203L31.662,19.278L31.641,19.354L31.618,19.43L31.594,19.506L31.569,19.582L31.543,19.658L31.515,19.735L31.487,19.811L31.456,19.887L31.425,19.964L31.392,20.041L31.357,20.118L31.322,20.194L31.285,20.272L31.246,20.349L31.206,20.426L31.165,20.503L31.122,20.581L31.078,20.659L31.032,20.737L30.985,20.815L30.936,20.894L30.886,20.973L30.833,21.053L30.769,21.148L30.699,21.248L30.624,21.351L30.543,21.458L30.457,21.568L30.365,21.68L30.268,21.794L30.166,21.91L30.059,22.026L30.002,22.087L29.944,22.146L29.885,22.206L29.825,22.266L29.764,22.325L29.701,22.385L29.636,22.444L29.571,22.504L29.504,22.563L29.435,22.622L29.365,22.681L29.294,22.739L29.221,22.797L29.147,22.854L29.071,22.911L28.994,22.967L28.915,23.022L28.835,23.077L28.754,23.131L28.671,23.184L28.586,23.236L28.5,23.287L28.413,23.337L28.324,23.386L28.234,23.433L28.142,23.48L28.049,23.524L27.954,23.568L27.858,23.61L27.76,23.65L27.661,23.688L27.56,23.725L27.458,23.76L27.354,23.792L27.249,23.823L27.143,23.852L27.035,23.878L26.925,23.902L26.815,23.924L26.703,23.943L26.59,23.959L26.476,23.973L26.36,23.984L26.244,23.992L26.126,23.998L26.01,24L25.851,24L25.697,23.997L25.543,23.992L25.391,23.984L25.241,23.974L25.091,23.962L24.943,23.946L24.796,23.929L24.651,23.908L24.507,23.885L24.364,23.86L24.223,23.832L24.083,23.802L23.945,23.769L23.809,23.733L23.674,23.695L23.54,23.655L23.408,23.611L23.278,23.565L23.15,23.517L23.023,23.466L22.898,23.412L22.775,23.356L22.654,23.297L22.534,23.236L22.417,23.171L22.302,23.105L22.189,23.035L22.077,22.963L21.969,22.888L21.862,22.811L21.757,22.731L21.656,22.648L21.556,22.563L21.459,22.475L21.364,22.384L21.273,22.291L21.184,22.196L21.097,22.098L21.014,21.998L20.933,21.895L20.856,21.79L20.781,21.682L20.712,21.575L20.675,21.516L20.642,21.46L20.609,21.403L20.577,21.346L20.545,21.288L20.515,21.23L20.485,21.171L20.457,21.112L20.429,21.052L20.402,20.992L20.376,20.931L20.35,20.869L20.326,20.808L20.302,20.746L20.279,20.683L20.257,20.62L20.236,20.557L20.216,20.493L20.197,20.428L20.179,20.364L20.161,20.299L20.145,20.233L20.129,20.168L20.114,20.101L20.101,20.035L20.088,19.968L20.075,19.901L20.064,19.83L20.045,19.697L20.028,19.56L20.016,19.422L20.007,19.282L20.002,19.142L20,19.012L22,18.988L22.001,19.091L22.005,19.181L22.01,19.268L22.018,19.354L22.028,19.438L22.04,19.523L22.046,19.56L22.053,19.6L22.061,19.64L22.069,19.679L22.078,19.718L22.087,19.756L22.097,19.794L22.107,19.832L22.117,19.869L22.128,19.906L22.14,19.942L22.152,19.978L22.164,20.014L22.177,20.049L22.19,20.084L22.204,20.118L22.218,20.153L22.233,20.186L22.248,20.22L22.263,20.253L22.279,20.286L22.295,20.318L22.312,20.351L22.329,20.382L22.347,20.414L22.365,20.445L22.384,20.476L22.401,20.504L22.442,20.567L22.483,20.626L22.526,20.685L22.571,20.742L22.617,20.798L22.665,20.853L22.716,20.906L22.768,20.959L22.822,21.011L22.878,21.062L22.936,21.111L22.996,21.16L23.058,21.208L23.122,21.254L23.188,21.299L23.256,21.344L23.326,21.387L23.399,21.429L23.473,21.469L23.55,21.509L23.628,21.547L23.709,21.584L23.792,21.619L23.876,21.654L23.963,21.686L24.052,21.718L24.144,21.748L24.237,21.776L24.332,21.803L24.429,21.828L24.528,21.852L24.63,21.874L24.733,21.894L24.838,21.913L24.945,21.93L25.054,21.945L25.165,21.959L25.278,21.97L25.393,21.98L25.509,21.988L25.627,21.994L25.747,21.998L25.869,22L25.99,22L26.06,21.999L26.127,21.996L26.194,21.991L26.26,21.984L26.325,21.977L26.39,21.967L26.455,21.956L26.519,21.944L26.583,21.929L26.646,21.914L26.709,21.897L26.772,21.879L26.834,21.859L26.896,21.838L26.958,21.816L27.019,21.792L27.08,21.767L27.14,21.741L27.2,21.713L27.26,21.685L27.319,21.655L27.377,21.624L27.436,21.592L27.493,21.559L27.551,21.525L27.607,21.49L27.663,21.454L27.719,21.418L27.774,21.38L27.828,21.342L27.882,21.302L27.935,21.263L27.988,21.222L28.039,21.181L28.09,21.139L28.141,21.097L28.19,21.055L28.239,21.012L28.287,20.968L28.334,20.925L28.38,20.881L28.426,20.837L28.47,20.793L28.514,20.749L28.556,20.705L28.596,20.662L28.679,20.573L28.755,20.486L28.827,20.401L28.896,20.317L28.959,20.236L29.018,20.158L29.072,20.084L29.122,20.014L29.167,19.947L29.205,19.888L29.243,19.829L29.279,19.772L29.313,19.715L29.346,19.659L29.377,19.604L29.407,19.549L29.436,19.496L29.463,19.443L29.489,19.391L29.514,19.339L29.537,19.288L29.56,19.238L29.581,19.188L29.602,19.139L29.621,19.089L29.64,19.04L29.657,18.991L29.674,18.943L29.69,18.894L29.706,18.845L29.72,18.796L29.734,18.747L29.747,18.698L29.76,18.648L29.772,18.598L29.783,18.548L29.794,18.497L29.804,18.445L29.814,18.395L29.833,18.286L29.849,18.175L29.864,18.062L29.877,17.944L29.889,17.821L29.9,17.694L29.91,17.562L29.919,17.425L29.928,17.284L29.944,16.981L29.96,16.657L29.979,16.309L29.99,16.124L30.002,15.938L30.016,15.705L30.027,15.479L30.035,15.255L30.041,15.033L30.044,14.813L30.044,14.595L30.041,14.38L30.036,14.167L30.028,13.955L30.018,13.746L30.005,13.539L29.989,13.335L29.971,13.132L29.95,12.932L29.927,12.733L29.901,12.537L29.873,12.343L29.843,12.15L29.81,11.96L29.775,11.772L29.737,11.586L29.697,11.402L29.655,11.221L29.611,11.041L29.564,10.863L29.515,10.687L29.464,10.513L29.411,10.341L29.356,10.172L29.298,10.004L29.238,9.838L29.177,9.674L29.113,9.512L29.047,9.352L28.979,9.193L28.909,9.037L28.837,8.883L28.763,8.73L28.688,8.579L28.61,8.431L28.53,8.284L28.448,8.138L28.365,7.995L28.28,7.854L28.192,7.714L28.103,7.576L28.012,7.44L27.92,7.305L27.825,7.173L27.729,7.042L27.631,6.913L27.531,6.786L27.429,6.66L27.326,6.536L27.221,6.414L27.114,6.294L27.006,6.175L26.896,6.058L26.784,5.943L26.671,5.829L26.556,5.717L26.439,5.607L26.321,5.498L26.201,5.392L26.08,5.286L25.957,5.183L25.833,5.081L25.707,4.981L25.579,4.882L25.45,4.785L25.32,4.69L25.188,4.597L25.054,4.505L24.92,4.414L24.783,4.326L24.646,4.239L24.507,4.154L24.366,4.07L24.224,3.988L24.081,3.908L23.937,3.829L23.791,3.752L23.644,3.677L23.496,3.603L23.346,3.531L23.195,3.46L23.043,3.392L22.89,3.325L22.736,3.259L22.58,3.195L22.423,3.133L22.265,3.073L22.106,3.014L21.946,2.957L21.785,2.901L21.623,2.847L21.46,2.795L21.296,2.745L21.13,2.696L20.964,2.649L20.797,2.603L20.629,2.559L20.46,2.517L20.29,2.476L20.119,2.437L19.948,2.4L19.775,2.364L19.602,2.331L19.428,2.298L19.253,2.268L19.078,2.239L18.901,2.211L18.724,2.186L18.547,2.162L18.369,2.14L18.19,2.119L18.01,2.1L17.83,2.083L17.649,2.067L17.468,2.053L17.286,2.04L17.104,2.03L16.921,2.021L16.737,2.013L16.554,2.007L16.37,2.003L16.185,2.001L16.001,2L15.819,2.001L15.638,2.005L15.459,2.01L15.279,2.018L15.101,2.028L14.923,2.041L14.745,2.056L14.568,2.072L14.392,2.091L14.217,2.113L14.042,2.136L13.868,2.162L13.695,2.189L13.522,2.219L13.35,2.251L13.179,2.285L13.009,2.321L12.839,2.359L12.671,2.399L12.503,2.441L12.335,2.485L12.169,2.531L12.003,2.58L11.839,2.63L11.675,2.682L11.512,2.736L11.35,2.792L11.189,2.85L11.029,2.91L10.869,2.971L10.711,3.035L10.553,3.101L10.397,3.168L10.242,3.237L10.087,3.308L9.934,3.381L9.781,3.456L9.63,3.532L9.479,3.61L9.33,3.69L9.182,3.772L9.035,3.855L8.889,3.941L8.744,4.027L8.6,4.116L8.457,4.206L8.316,4.298L8.176,4.392L8.037,4.487L7.899,4.584L7.762,4.682L7.627,4.782L7.492,4.884L7.36,4.987L7.228,5.092L7.098,5.198L6.968,5.306L6.841,5.416L6.714,5.526L6.589,5.639L6.465,5.753L6.343,5.868L6.222,5.984L6.103,6.103L5.984,6.222L5.868,6.343L5.753,6.465L5.639,6.589L5.526,6.714L5.416,6.841L5.306,6.968L5.198,7.098L5.092,7.228L4.987,7.36L4.884,7.492L4.782,7.627L4.682,7.762L4.584,7.899L4.487,8.037L4.392,8.176L4.298,8.316L4.206,8.457L4.116,8.6L4.027,8.744L3.941,8.889L3.855,9.035L3.772,9.182L3.69,9.33L3.61,9.479L3.532,9.63L3.456,9.781L3.381,9.934L3.308,10.087L3.237,10.242L3.168,10.397L3.101,10.553L3.035,10.711L2.971,10.869L2.91,11.029L2.85,11.189L2.792,11.35L2.736,11.512L2.682,11.675L2.63,11.839L2.58,12.003L2.531,12.169L2.485,12.335L2.441,12.503L2.399,12.671L2.359,12.839L2.321,13.009L2.285,13.179L2.251,13.35L2.219,13.522L2.189,13.695L2.162,13.868L2.136,14.042L2.113,14.217L2.091,14.392L2.072,14.568L2.056,14.745L2.041,14.923L2.028,15.101L2.018,15.279L2.01,15.459L2.005,15.638L2.001,15.819L2,16L2.001,16.181L2.005,16.362L2.01,16.541L2.018,16.721L2.028,16.899L2.041,17.077L2.056,17.255L2.072,17.432L2.091,17.608L2.113,17.783L2.136,17.958L2.162,18.132L2.189,18.305L2.219,18.478L2.251,18.65L2.285,18.821L2.321,18.991L2.359,19.161L2.399,19.329L2.441,19.497L2.485,19.665L2.531,19.831L2.58,19.997L2.63,20.161L2.682,20.325L2.736,20.488L2.792,20.65L2.85,20.811L2.91,20.971L2.971,21.131L3.035,21.289L3.101,21.447L3.168,21.603L3.237,21.758L3.308,21.913L3.381,22.066L3.456,22.219L3.532,22.37L3.61,22.521L3.69,22.67L3.772,22.818L3.855,22.965L3.941,23.111L4.027,23.256L4.116,23.4L4.206,23.543L4.298,23.684L4.392,23.824L4.487,23.963L4.584,24.101L4.682,24.238L4.782,24.373L4.884,24.508L4.987,24.64L5.092,24.772L5.198,24.902L5.306,25.032L5.416,25.159L5.526,25.286L5.639,25.411L5.753,25.535L5.868,25.657L5.984,25.778L6.103,25.897L6.222,26.016L6.343,26.132L6.465,26.247L6.589,26.361L6.714,26.474L6.841,26.584L6.968,26.694L7.098,26.802L7.228,26.908L7.36,27.013L7.492,27.116L7.627,27.218L7.762,27.318L7.899,27.416L8.037,27.513L8.176,27.608L8.316,27.702L8.457,27.794L8.6,27.884L8.744,27.973L8.889,28.059L9.035,28.145L9.182,28.228L9.33,28.31L9.479,28.39L9.63,28.468L9.781,28.544L9.934,28.619L10.087,28.692L10.242,28.763L10.397,28.832L10.553,28.899L10.711,28.965L10.869,29.029L11.029,29.09L11.189,29.15L11.35,29.208L11.512,29.264L11.675,29.318L11.839,29.37L12.003,29.42L12.169,29.469L12.335,29.515L12.503,29.559L12.671,29.601L12.839,29.641L13.009,29.679L13.179,29.715L13.35,29.749L13.522,29.781L13.695,29.811L13.868,29.838L14.042,29.864L14.217,29.887L14.392,29.909L14.568,29.928L14.745,29.944L14.923,29.959L15.101,29.972L15.279,29.982L15.459,29.99L15.638,29.995L15.819,29.999L16.003,30L27.019,30L27.019,32L15.997,32L15.794,31.999L15.588,31.995L15.382,31.988L15.178,31.979L14.974,31.968L14.771,31.953L14.568,31.937L14.366,31.917L14.165,31.896L13.964,31.871L13.765,31.845L13.566,31.816L13.368,31.784L13.17,31.75L12.974,31.713L12.778,31.675L12.583,31.633L12.389,31.59L12.196,31.544L12.004,31.496L11.812,31.445L11.622,31.392L11.433,31.337L11.244,31.28L11.057,31.22L10.87,31.158L10.685,31.094L10.501,31.028L10.317,30.96L10.135,30.889L9.954,30.816L9.774,30.741L9.595,30.664L9.417,30.585L9.24,30.504L9.065,30.421L8.891,30.335L8.718,30.248L8.546,30.158L8.375,30.067L8.206,29.974L8.037,29.878L7.871,29.781L7.705,29.682L7.541,29.58L7.378,29.477L7.216,29.372L7.056,29.265L6.897,29.156L6.739,29.046L6.583,28.933L6.429,28.819L6.275,28.703L6.124,28.585L5.973,28.466L5.824,28.344L5.677,28.221L5.531,28.096L5.387,27.97L5.244,27.841L5.103,27.711L4.963,27.58L4.825,27.446L4.688,27.312L4.554,27.175L4.42,27.037L4.289,26.897L4.159,26.756L4.03,26.613L3.904,26.469L3.779,26.323L3.656,26.176L3.534,26.027L3.415,25.876L3.297,25.725L3.181,25.571L3.067,25.417L2.954,25.261L2.844,25.103L2.735,24.944L2.628,24.784L2.523,24.622L2.42,24.459L2.318,24.295L2.219,24.129L2.122,23.963L2.026,23.794L1.933,23.625L1.842,23.454L1.752,23.282L1.665,23.109L1.579,22.935L1.496,22.76L1.415,22.583L1.336,22.405L1.259,22.226L1.184,22.046L1.111,21.865L1.04,21.683L0.972,21.499L0.906,21.315L0.842,21.13L0.78,20.943L0.72,20.756L0.663,20.567L0.608,20.378L0.555,20.188L0.504,19.996L0.456,19.804L0.41,19.611L0.367,19.417L0.325,19.222L0.287,19.026L0.25,18.83L0.216,18.632L0.184,18.434L0.155,18.235L0.129,18.036L0.104,17.835L0.083,17.634L0.063,17.432L0.047,17.229L0.032,17.026L0.021,16.822L0.012,16.618L0.005,16.412L0.001,16.206L0,16L0.001,15.794L0.005,15.588L0.012,15.382L0.021,15.178L0.032,14.974L0.047,14.771L0.063,14.568L0.083,14.366L0.104,14.165L0.129,13.964L0.155,13.765L0.184,13.566L0.216,13.368L0.25,13.17L0.287,12.974L0.325,12.778L0.367,12.583L0.41,12.389L0.456,12.196L0.504,12.004L0.555,11.812L0.608,11.622L0.663,11.433L0.72,11.244L0.78,11.057L0.842,10.87L0.906,10.685L0.972,10.501L1.04,10.317L1.111,10.135L1.184,9.954L1.259,9.774L1.336,9.595L1.415,9.417L1.496,9.24L1.579,9.065L1.665,8.891L1.752,8.718L1.842,8.546L1.933,8.375L2.026,8.206L2.122,8.037L2.219,7.871L2.318,7.705L2.42,7.541L2.523,7.378L2.628,7.216L2.735,7.056L2.844,6.897L2.954,6.739L3.067,6.583L3.181,6.429L3.297,6.275L3.415,6.124L3.534,5.973L3.656,5.824L3.779,5.677L3.904,5.531L4.03,5.387L4.159,5.244L4.289,5.103L4.42,4.963L4.554,4.825L4.688,4.688L4.825,4.554L4.963,4.42L5.103,4.289L5.244,4.159L5.387,4.03L5.531,3.904L5.677,3.779L5.824,3.656L5.973,3.534L6.124,3.415L6.275,3.297L6.429,3.181L6.583,3.067L6.739,2.954L6.897,2.844L7.056,2.735L7.216,2.628L7.378,2.523L7.541,2.42L7.705,2.318L7.871,2.219L8.037,2.122L8.206,2.026L8.375,1.933L8.546,1.842L8.718,1.752L8.891,1.665L9.065,1.579L9.24,1.496L9.417,1.415L9.595,1.336L9.774,1.259L9.954,1.184L10.135,1.111L10.317,1.04L10.501,0.972L10.685,0.906L10.87,0.842L11.057,0.78L11.244,0.72L11.433,0.663L11.622,0.608L11.812,0.555L12.004,0.504L12.196,0.456L12.389,0.41L12.583,0.367L12.778,0.325L12.974,0.287L13.17,0.25L13.368,0.216L13.566,0.184L13.765,0.155L13.964,0.129L14.165,0.104L14.366,0.083L14.568,0.063L14.771,0.047L14.974,0.032L15.178,0.021L15.382,0.012L15.588,0.005L15.794,0.001L15.999,0L16.203,0.001Z"/>
        <path d="M16.104,8.001L16.209,8.004L16.315,8.008L16.421,8.014L16.529,8.022L16.637,8.032L16.746,8.043L16.855,8.057L16.965,8.071L17.076,8.088L17.187,8.106L17.298,8.126L17.409,8.147L17.521,8.17L17.633,8.194L17.745,8.221L17.857,8.248L17.968,8.277L18.08,8.308L18.192,8.34L18.303,8.374L18.414,8.409L18.525,8.446L18.636,8.484L18.745,8.523L18.855,8.564L18.964,8.607L19.072,8.65L19.179,8.695L19.286,8.742L19.392,8.789L19.496,8.838L19.6,8.888L19.703,8.94L19.805,8.993L19.906,9.047L20.005,9.102L20.103,9.159L20.2,9.216L20.295,9.275L20.389,9.335L20.482,9.396L20.572,9.459L20.661,9.522L20.749,9.587L20.834,9.652L20.918,9.719L21,9.787L21.08,9.855L21.158,9.925L21.234,9.996L21.307,10.068L21.379,10.141L21.448,10.214L21.515,10.289L21.579,10.364L21.641,10.441L21.7,10.518L21.757,10.596L21.811,10.675L21.863,10.755L21.911,10.836L21.957,10.918L22,11L22,21L21.979,21.041L21.958,21.082L21.913,21.163L21.865,21.243L21.814,21.323L21.761,21.402L21.705,21.48L21.646,21.557L21.585,21.633L21.521,21.708L21.454,21.782L21.386,21.856L21.315,21.929L21.241,22L21.166,22.071L21.088,22.14L21.008,22.209L20.927,22.277L20.843,22.343L20.758,22.409L20.67,22.473L20.581,22.537L20.49,22.599L20.398,22.66L20.304,22.72L20.209,22.779L20.112,22.837L20.013,22.894L19.914,22.949L19.813,23.003L19.711,23.056L19.608,23.108L19.504,23.158L19.399,23.207L19.293,23.255L19.186,23.301L19.078,23.347L18.97,23.39L18.861,23.433L18.751,23.474L18.641,23.514L18.53,23.552L18.419,23.589L18.308,23.624L18.196,23.658L18.084,23.69L17.972,23.721L17.86,23.75L17.747,23.778L17.635,23.804L17.523,23.829L17.411,23.852L17.299,23.874L17.188,23.893L17.077,23.912L16.966,23.928L16.856,23.943L16.747,23.956L16.638,23.968L16.529,23.978L16.422,23.986L16.315,23.992L16.209,23.996L16.104,23.999L16,24L15.897,23.999L15.794,23.997L15.691,23.994L15.589,23.99L15.487,23.984L15.385,23.977L15.284,23.968L15.183,23.959L15.082,23.948L14.982,23.936L14.882,23.922L14.782,23.908L14.683,23.892L14.585,23.875L14.486,23.857L14.389,23.837L14.291,23.817L14.194,23.795L14.098,23.772L14.002,23.748L13.906,23.723L13.811,23.696L13.716,23.669L13.622,23.64L13.528,23.61L13.435,23.579L13.343,23.547L13.251,23.514L13.159,23.48L13.068,23.445L12.977,23.408L12.887,23.371L12.798,23.332L12.709,23.293L12.621,23.252L12.533,23.211L12.446,23.168L12.359,23.124L12.273,23.08L12.188,23.034L12.103,22.987L12.019,22.939L11.936,22.891L11.853,22.841L11.771,22.791L11.689,22.739L11.609,22.686L11.528,22.633L11.449,22.579L11.37,22.523L11.292,22.467L11.215,22.41L11.138,22.352L11.062,22.293L10.987,22.233L10.912,22.172L10.839,22.111L10.766,22.048L10.694,21.985L10.622,21.921L10.551,21.856L10.482,21.79L10.413,21.723L10.344,21.656L10.277,21.587L10.21,21.518L10.144,21.449L10.079,21.378L10.015,21.306L9.952,21.234L9.889,21.161L9.828,21.088L9.767,21.013L9.707,20.938L9.648,20.862L9.59,20.785L9.533,20.708L9.477,20.63L9.421,20.551L9.367,20.472L9.314,20.391L9.261,20.311L9.209,20.229L9.159,20.147L9.109,20.064L9.061,19.981L9.013,19.897L8.966,19.812L8.92,19.727L8.876,19.641L8.832,19.554L8.789,19.467L8.748,19.379L8.707,19.291L8.668,19.202L8.629,19.113L8.592,19.023L8.555,18.932L8.52,18.841L8.486,18.749L8.453,18.657L8.421,18.565L8.39,18.472L8.36,18.378L8.331,18.284L8.304,18.189L8.277,18.094L8.252,17.998L8.228,17.902L8.205,17.806L8.183,17.709L8.163,17.611L8.143,17.514L8.125,17.415L8.108,17.317L8.092,17.218L8.078,17.118L8.064,17.018L8.052,16.918L8.041,16.817L8.032,16.716L8.023,16.615L8.016,16.513L8.01,16.411L8.006,16.309L8.003,16.206L8.001,16.103L8,16L8.001,15.897L8.003,15.794L8.006,15.691L8.01,15.589L8.016,15.487L8.023,15.385L8.032,15.284L8.041,15.183L8.052,15.082L8.064,14.982L8.078,14.882L8.092,14.782L8.108,14.683L8.125,14.585L8.143,14.486L8.163,14.389L8.183,14.291L8.205,14.194L8.228,14.098L8.252,14.002L8.277,13.906L8.304,13.811L8.331,13.716L8.36,13.622L8.39,13.528L8.421,13.435L8.453,13.343L8.486,13.251L8.52,13.159L8.555,13.068L8.592,12.977L8.629,12.887L8.668,12.798L8.707,12.709L8.748,12.621L8.789,12.533L8.832,12.446L8.876,12.359L8.92,12.273L8.966,12.188L9.013,12.103L9.061,12.019L9.109,11.936L9.159,11.853L9.209,11.771L9.261,11.689L9.314,11.609L9.367,11.528L9.421,11.449L9.477,11.37L9.533,11.292L9.59,11.215L9.648,11.138L9.707,11.062L9.767,10.987L9.828,10.912L9.889,10.839L9.952,10.766L10.015,10.694L10.079,10.622L10.144,10.551L10.21,10.482L10.277,10.413L10.344,10.344L10.413,10.277L10.482,10.21L10.551,10.144L10.622,10.079L10.694,10.015L10.766,9.952L10.839,9.889L10.912,9.828L10.987,9.767L11.062,9.707L11.138,9.648L11.215,9.59L11.292,9.533L11.37,9.477L11.449,9.421L11.528,9.367L11.609,9.314L11.689,9.261L11.771,9.209L11.853,9.159L11.936,9.109L12.019,9.061L12.103,9.013L12.188,8.966L12.273,8.92L12.359,8.876L12.446,8.832L12.533,8.789L12.621,8.748L12.709,8.707L12.798,8.668L12.887,8.629L12.977,8.592L13.068,8.555L13.159,8.52L13.251,8.486L13.343,8.453L13.435,8.421L13.528,8.39L13.622,8.36L13.716,8.331L13.811,8.304L13.906,8.277L14.002,8.252L14.098,8.228L14.194,8.205L14.291,8.183L14.389,8.163L14.486,8.143L14.585,8.125L14.683,8.108L14.782,8.092L14.882,8.078L14.982,8.064L15.082,8.052L15.183,8.041L15.284,8.032L15.385,8.023L15.487,8.016L15.589,8.01L15.691,8.006L15.794,8.003L15.897,8.001L16,8L16.104,8.001ZM15.922,10.001L15.844,10.002L15.767,10.004L15.69,10.008L15.613,10.012L15.537,10.018L15.461,10.024L15.385,10.031L15.309,10.039L15.234,10.048L15.159,10.058L15.085,10.069L15.011,10.081L14.937,10.094L14.863,10.107L14.79,10.122L14.717,10.137L14.645,10.154L14.572,10.171L14.5,10.189L14.429,10.208L14.358,10.228L14.287,10.248L14.217,10.27L14.147,10.292L14.077,10.315L14.008,10.339L13.939,10.364L13.87,10.389L13.802,10.416L13.734,10.443L13.667,10.471L13.6,10.5L13.533,10.529L13.467,10.56L13.402,10.591L13.336,10.623L13.271,10.656L13.207,10.689L13.143,10.723L13.08,10.758L13.017,10.794L12.954,10.831L12.892,10.868L12.83,10.906L12.769,10.945L12.708,10.984L12.648,11.024L12.589,11.065L12.53,11.107L12.471,11.149L12.413,11.192L12.355,11.235L12.298,11.28L12.242,11.325L12.186,11.37L12.13,11.417L12.075,11.463L12.021,11.511L11.967,11.559L11.914,11.608L11.862,11.658L11.81,11.708L11.758,11.758L11.708,11.81L11.658,11.862L11.608,11.914L11.559,11.967L11.511,12.021L11.463,12.075L11.417,12.13L11.37,12.186L11.325,12.242L11.28,12.298L11.235,12.355L11.192,12.413L11.149,12.471L11.107,12.53L11.065,12.589L11.024,12.648L10.984,12.708L10.945,12.769L10.906,12.83L10.868,12.892L10.831,12.954L10.794,13.017L10.758,13.08L10.723,13.143L10.689,13.207L10.656,13.271L10.623,13.336L10.591,13.402L10.56,13.467L10.529,13.533L10.5,13.6L10.471,13.667L10.443,13.734L10.416,13.802L10.389,13.87L10.364,13.939L10.339,14.008L10.315,14.077L10.292,14.147L10.27,14.217L10.248,14.287L10.228,14.358L10.208,14.429L10.189,14.5L10.171,14.572L10.154,14.645L10.137,14.717L10.122,14.79L10.107,14.863L10.094,14.937L10.081,15.011L10.069,15.085L10.058,15.159L10.048,15.234L10.039,15.309L10.031,15.385L10.024,15.461L10.018,15.537L10.012,15.613L10.008,15.69L10.004,15.767L10.002,15.844L10.001,15.922L10,16L10.001,16.078L10.002,16.156L10.004,16.233L10.008,16.31L10.012,16.387L10.018,16.463L10.024,16.539L10.031,16.615L10.039,16.691L10.048,16.766L10.058,16.841L10.069,16.915L10.081,16.989L10.094,17.063L10.107,17.137L10.122,17.21L10.137,17.283L10.154,17.355L10.171,17.428L10.189,17.5L10.208,17.571L10.228,17.642L10.248,17.713L10.27,17.783L10.292,17.853L10.315,17.923L10.339,17.992L10.364,18.061L10.389,18.13L10.416,18.198L10.443,18.266L10.471,18.333L10.5,18.4L10.529,18.467L10.56,18.533L10.591,18.598L10.623,18.664L10.656,18.729L10.689,18.793L10.723,18.857L10.758,18.92L10.794,18.983L10.831,19.046L10.868,19.108L10.906,19.17L10.945,19.231L10.984,19.292L11.024,19.352L11.065,19.411L11.107,19.47L11.149,19.529L11.192,19.587L11.235,19.645L11.28,19.702L11.325,19.758L11.37,19.814L11.417,19.87L11.463,19.925L11.511,19.979L11.559,20.033L11.608,20.086L11.658,20.138L11.708,20.19L11.758,20.242L11.81,20.292L11.862,20.342L11.914,20.392L11.967,20.441L12.021,20.489L12.075,20.537L12.13,20.583L12.186,20.63L12.242,20.675L12.298,20.72L12.355,20.765L12.413,20.808L12.471,20.851L12.53,20.893L12.589,20.935L12.648,20.976L12.708,21.016L12.769,21.055L12.83,21.094L12.892,21.132L12.954,21.169L13.017,21.206L13.08,21.242L13.143,21.277L13.207,21.311L13.271,21.344L13.336,21.377L13.402,21.409L13.467,21.44L13.533,21.471L13.6,21.5L13.667,21.529L13.734,21.557L13.802,21.584L13.87,21.611L13.939,21.636L14.008,21.661L14.077,21.685L14.147,21.708L14.217,21.73L14.287,21.752L14.358,21.772L14.429,21.792L14.5,21.811L14.572,21.829L14.645,21.846L14.717,21.863L14.79,21.878L14.863,21.893L14.937,21.906L15.011,21.919L15.085,21.931L15.159,21.942L15.234,21.952L15.309,21.961L15.385,21.969L15.461,21.976L15.537,21.982L15.613,21.988L15.69,21.992L15.767,21.996L15.844,21.998L15.922,21.999L15.998,22L16.069,21.999L16.141,21.997L16.214,21.994L16.289,21.99L16.365,21.984L16.443,21.977L16.522,21.969L16.603,21.959L16.684,21.948L16.767,21.936L16.851,21.922L16.935,21.907L17.02,21.891L17.106,21.873L17.192,21.854L17.279,21.834L17.366,21.812L17.453,21.789L17.541,21.765L17.628,21.74L17.715,21.713L17.803,21.686L17.89,21.657L17.976,21.627L18.062,21.596L18.148,21.564L18.233,21.531L18.317,21.497L18.4,21.462L18.483,21.426L18.565,21.389L18.645,21.352L18.724,21.313L18.802,21.274L18.879,21.235L18.955,21.194L19.028,21.153L19.101,21.111L19.171,21.069L19.24,21.027L19.307,20.984L19.372,20.941L19.435,20.898L19.496,20.854L19.555,20.811L19.612,20.767L19.666,20.724L19.718,20.681L19.768,20.638L19.815,20.596L19.859,20.554L19.901,20.513L19.941,20.473L19.977,20.434L20,20.408L20,11.595L19.973,11.565L19.936,11.525L19.896,11.485L19.853,11.443L19.808,11.401L19.76,11.358L19.71,11.315L19.658,11.272L19.603,11.229L19.547,11.185L19.488,11.142L19.426,11.098L19.363,11.055L19.298,11.012L19.231,10.969L19.162,10.926L19.092,10.884L19.02,10.843L18.946,10.802L18.871,10.761L18.795,10.722L18.717,10.683L18.638,10.644L18.557,10.607L18.476,10.57L18.394,10.535L18.311,10.5L18.227,10.466L18.142,10.433L18.057,10.401L17.972,10.37L17.885,10.341L17.799,10.312L17.712,10.285L17.625,10.258L17.538,10.233L17.451,10.209L17.364,10.187L17.278,10.165L17.191,10.145L17.105,10.126L17.02,10.109L16.935,10.092L16.851,10.077L16.767,10.064L16.685,10.052L16.603,10.041L16.523,10.031L16.443,10.023L16.366,10.016L16.289,10.01L16.214,10.006L16.141,10.003L16.07,10.001L15.998,10L15.922,10.001Z"/>
    </g>
</svg>
