<?xml version="1.0" encoding="UTF-8" standalone="no"?>
<!DOCTYPE svg PUBLIC "-//W3C//DTD SVG 1.1//EN" "http://www.w3.org/Graphics/SVG/1.1/DTD/svg11.dtd">
<svg width="100%" height="100%" viewBox="0 0 32 32" version="1.1" xmlns="http://www.w3.org/2000/svg" xmlns:xlink="http://www.w3.org/1999/xlink" xml:space="preserve" xmlns:serif="http://www.serif.com/" style="fill-rule:evenodd;clip-rule:evenodd;stroke-linejoin:round;stroke-miterlimit:1.41421;">
    <g id="Main">
        <path d="M16.207,0.001L16.413,0.005L16.618,0.012L16.823,0.021L17.027,0.032L17.23,0.047L17.433,0.063L17.635,0.083L17.836,0.104L18.037,0.129L18.236,0.155L18.435,0.184L18.633,0.216L18.831,0.25L19.027,0.287L19.223,0.325L19.418,0.366L19.612,0.41L19.805,0.456L19.997,0.504L20.188,0.555L20.378,0.607L20.567,0.662L20.756,0.72L20.943,0.779L21.129,0.841L21.315,0.905L21.499,0.972L21.682,1.04L21.864,1.111L22.045,1.183L22.225,1.258L22.404,1.335L22.582,1.414L22.759,1.496L22.934,1.579L23.108,1.664L23.281,1.751L23.453,1.841L23.624,1.932L23.793,2.026L23.961,2.121L24.128,2.218L24.294,2.318L24.458,2.419L24.621,2.522L24.783,2.627L24.943,2.734L25.102,2.843L25.26,2.954L25.416,3.066L25.571,3.18L25.724,3.296L25.876,3.414L26.026,3.534L26.175,3.656L26.322,3.779L26.468,3.904L26.613,4.03L26.756,4.159L26.897,4.289L27.037,4.42L27.175,4.554L27.311,4.689L27.446,4.825L27.58,4.963L27.711,5.103L27.841,5.244L27.97,5.387L28.096,5.532L28.221,5.678L28.344,5.825L28.466,5.974L28.586,6.124L28.704,6.276L28.82,6.429L28.934,6.584L29.046,6.74L29.157,6.898L29.266,7.057L29.373,7.217L29.478,7.379L29.581,7.542L29.682,7.706L29.782,7.872L29.879,8.039L29.974,8.207L30.068,8.376L30.159,8.547L30.249,8.719L30.336,8.892L30.421,9.066L30.504,9.241L30.586,9.418L30.665,9.596L30.742,9.775L30.817,9.955L30.889,10.136L30.96,10.318L31.028,10.501L31.095,10.685L31.159,10.871L31.221,11.057L31.28,11.244L31.338,11.433L31.393,11.622L31.445,11.812L31.496,12.003L31.544,12.195L31.59,12.388L31.634,12.582L31.675,12.777L31.713,12.973L31.75,13.169L31.784,13.367L31.816,13.565L31.845,13.764L31.871,13.963L31.896,14.164L31.917,14.365L31.937,14.567L31.953,14.77L31.968,14.973L31.979,15.177L31.988,15.382L31.995,15.587L31.999,15.793L32,16L31.999,16.207L31.995,16.413L31.988,16.618L31.979,16.823L31.968,17.027L31.953,17.23L31.937,17.433L31.917,17.635L31.896,17.836L31.871,18.037L31.845,18.236L31.816,18.435L31.784,18.633L31.75,18.831L31.713,19.027L31.675,19.223L31.634,19.418L31.59,19.612L31.544,19.805L31.496,19.997L31.445,20.188L31.393,20.378L31.338,20.567L31.28,20.756L31.221,20.943L31.159,21.129L31.095,21.315L31.028,21.499L30.96,21.682L30.889,21.864L30.817,22.045L30.742,22.225L30.665,22.404L30.586,22.582L30.504,22.759L30.421,22.934L30.336,23.108L30.249,23.281L30.159,23.453L30.068,23.624L29.974,23.793L29.879,23.961L29.782,24.128L29.682,24.294L29.581,24.458L29.478,24.621L29.373,24.783L29.266,24.943L29.157,25.102L29.046,25.26L28.934,25.416L28.82,25.571L28.704,25.724L28.586,25.876L28.466,26.026L28.344,26.175L28.221,26.322L28.096,26.468L27.97,26.613L27.841,26.756L27.711,26.897L27.58,27.037L27.446,27.175L27.311,27.311L27.175,27.446L27.037,27.58L26.897,27.711L26.756,27.841L26.613,27.97L26.468,28.096L26.322,28.221L26.175,28.344L26.026,28.466L25.876,28.586L25.724,28.704L25.571,28.82L25.416,28.934L25.26,29.046L25.102,29.157L24.943,29.266L24.783,29.373L24.621,29.478L24.458,29.581L24.294,29.682L24.128,29.782L23.961,29.879L23.793,29.974L23.624,30.068L23.453,30.159L23.281,30.249L23.108,30.336L22.934,30.421L22.759,30.504L22.582,30.586L22.404,30.665L22.225,30.742L22.045,30.817L21.864,30.889L21.682,30.96L21.499,31.028L21.315,31.095L21.129,31.159L20.943,31.221L20.756,31.28L20.567,31.338L20.378,31.393L20.188,31.445L19.997,31.496L19.805,31.544L19.612,31.59L19.418,31.634L19.223,31.675L19.027,31.713L18.831,31.75L18.633,31.784L18.435,31.816L18.236,31.845L18.037,31.871L17.836,31.896L17.635,31.917L17.433,31.937L17.23,31.953L17.027,31.968L16.823,31.979L16.618,31.988L16.413,31.995L16.207,31.999L16,32L15.793,31.999L15.587,31.995L15.382,31.988L15.177,31.979L14.973,31.968L14.77,31.953L14.567,31.937L14.365,31.917L14.164,31.896L13.963,31.871L13.764,31.845L13.565,31.816L13.367,31.784L13.169,31.75L12.973,31.713L12.777,31.675L12.582,31.634L12.388,31.59L12.195,31.544L12.003,31.496L11.812,31.445L11.622,31.393L11.433,31.338L11.244,31.28L11.057,31.221L10.871,31.159L10.685,31.095L10.501,31.028L10.318,30.96L10.136,30.889L9.955,30.817L9.775,30.742L9.596,30.665L9.418,30.586L9.241,30.504L9.066,30.421L8.892,30.336L8.719,30.249L8.547,30.159L8.376,30.068L8.207,29.974L8.039,29.879L7.872,29.782L7.706,29.682L7.542,29.581L7.379,29.478L7.217,29.373L7.057,29.266L6.898,29.157L6.74,29.046L6.584,28.934L6.429,28.82L6.276,28.704L6.124,28.586L5.974,28.466L5.825,28.344L5.678,28.221L5.532,28.096L5.387,27.97L5.244,27.841L5.103,27.711L4.963,27.58L4.825,27.446L4.689,27.311L4.554,27.175L4.42,27.037L4.289,26.897L4.159,26.756L4.03,26.613L3.904,26.468L3.779,26.322L3.656,26.175L3.534,26.026L3.414,25.876L3.296,25.724L3.18,25.571L3.066,25.416L2.954,25.26L2.843,25.102L2.734,24.943L2.627,24.783L2.522,24.621L2.419,24.458L2.318,24.294L2.218,24.128L2.121,23.961L2.026,23.793L1.932,23.624L1.841,23.453L1.751,23.281L1.664,23.108L1.579,22.934L1.496,22.759L1.414,22.582L1.335,22.404L1.258,22.225L1.183,22.045L1.111,21.864L1.04,21.682L0.972,21.499L0.905,21.315L0.841,21.129L0.779,20.943L0.72,20.756L0.662,20.567L0.607,20.378L0.555,20.188L0.504,19.997L0.456,19.805L0.41,19.612L0.366,19.418L0.325,19.223L0.287,19.027L0.25,18.831L0.216,18.633L0.184,18.435L0.155,18.236L0.129,18.037L0.104,17.836L0.083,17.635L0.063,17.433L0.047,17.23L0.032,17.027L0.021,16.823L0.012,16.618L0.005,16.413L0.001,16.207L0,16L0.001,15.793L0.005,15.587L0.012,15.382L0.021,15.177L0.032,14.973L0.047,14.77L0.063,14.567L0.083,14.365L0.104,14.164L0.129,13.963L0.155,13.764L0.184,13.565L0.216,13.367L0.25,13.169L0.287,12.973L0.325,12.777L0.366,12.582L0.41,12.388L0.456,12.195L0.504,12.003L0.555,11.812L0.607,11.622L0.662,11.433L0.72,11.244L0.779,11.057L0.841,10.871L0.905,10.685L0.972,10.501L1.04,10.318L1.111,10.136L1.183,9.955L1.258,9.775L1.335,9.596L1.414,9.418L1.496,9.241L1.579,9.066L1.664,8.892L1.751,8.719L1.841,8.547L1.932,8.376L2.026,8.207L2.121,8.039L2.218,7.872L2.318,7.706L2.419,7.542L2.522,7.379L2.627,7.217L2.734,7.057L2.843,6.898L2.954,6.74L3.066,6.584L3.18,6.429L3.296,6.276L3.414,6.124L3.534,5.974L3.656,5.825L3.779,5.678L3.904,5.532L4.03,5.387L4.159,5.244L4.289,5.103L4.42,4.963L4.554,4.825L4.689,4.689L4.825,4.554L4.963,4.42L5.103,4.289L5.244,4.159L5.387,4.03L5.532,3.904L5.678,3.779L5.825,3.656L5.974,3.534L6.124,3.414L6.276,3.296L6.429,3.18L6.584,3.066L6.74,2.954L6.898,2.843L7.057,2.734L7.217,2.627L7.379,2.522L7.542,2.419L7.706,2.318L7.872,2.218L8.039,2.121L8.207,2.026L8.376,1.932L8.547,1.841L8.719,1.751L8.892,1.664L9.066,1.579L9.241,1.496L9.418,1.414L9.596,1.335L9.775,1.258L9.955,1.183L10.136,1.111L10.318,1.04L10.501,0.972L10.685,0.905L10.871,0.841L11.057,0.779L11.244,0.72L11.433,0.662L11.622,0.607L11.812,0.555L12.003,0.504L12.195,0.456L12.388,0.41L12.582,0.366L12.777,0.325L12.973,0.287L13.169,0.25L13.367,0.216L13.565,0.184L13.764,0.155L13.963,0.129L14.164,0.104L14.365,0.083L14.567,0.063L14.77,0.047L14.973,0.032L15.177,0.021L15.382,0.012L15.587,0.005L15.793,0.001L16,0L16.207,0.001ZM15.819,2.001L15.638,2.005L15.458,2.01L15.279,2.018L15.1,2.029L14.922,2.041L14.744,2.056L14.567,2.072L14.391,2.091L14.216,2.113L14.041,2.136L13.867,2.162L13.694,2.189L13.521,2.219L13.35,2.251L13.179,2.285L13.008,2.321L12.839,2.359L12.67,2.399L12.502,2.441L12.335,2.485L12.169,2.531L12.003,2.579L11.839,2.629L11.675,2.682L11.512,2.736L11.35,2.792L11.189,2.849L11.029,2.909L10.87,2.971L10.712,3.035L10.554,3.1L10.398,3.167L10.242,3.237L10.088,3.308L9.935,3.38L9.782,3.455L9.631,3.531L9.48,3.61L9.331,3.69L9.183,3.771L9.036,3.855L8.89,3.94L8.745,4.027L8.601,4.115L8.459,4.206L8.317,4.298L8.177,4.391L8.038,4.486L7.9,4.583L7.763,4.682L7.628,4.782L7.493,4.884L7.36,4.987L7.229,5.092L7.098,5.198L6.969,5.306L6.841,5.415L6.715,5.526L6.59,5.639L6.466,5.752L6.343,5.868L6.222,5.985L6.103,6.103L5.985,6.222L5.868,6.343L5.752,6.466L5.639,6.59L5.526,6.715L5.415,6.841L5.306,6.969L5.198,7.098L5.092,7.229L4.987,7.36L4.884,7.493L4.782,7.628L4.682,7.763L4.583,7.9L4.486,8.038L4.391,8.177L4.298,8.317L4.206,8.459L4.115,8.601L4.027,8.745L3.94,8.89L3.855,9.036L3.771,9.183L3.69,9.331L3.61,9.48L3.531,9.631L3.455,9.782L3.38,9.935L3.308,10.088L3.237,10.242L3.167,10.398L3.1,10.554L3.035,10.712L2.971,10.87L2.909,11.029L2.849,11.189L2.792,11.35L2.736,11.512L2.682,11.675L2.629,11.839L2.579,12.003L2.531,12.169L2.485,12.335L2.441,12.502L2.399,12.67L2.359,12.839L2.321,13.008L2.285,13.179L2.251,13.35L2.219,13.521L2.189,13.694L2.162,13.867L2.136,14.041L2.113,14.216L2.091,14.391L2.072,14.567L2.056,14.744L2.041,14.922L2.029,15.1L2.018,15.279L2.01,15.458L2.005,15.638L2.001,15.819L2,16L2.001,16.181L2.005,16.362L2.01,16.542L2.018,16.721L2.029,16.9L2.041,17.078L2.056,17.256L2.072,17.433L2.091,17.609L2.113,17.784L2.136,17.959L2.162,18.133L2.189,18.306L2.219,18.479L2.251,18.65L2.285,18.821L2.321,18.992L2.359,19.161L2.399,19.33L2.441,19.498L2.485,19.665L2.531,19.831L2.579,19.997L2.629,20.161L2.682,20.325L2.736,20.488L2.792,20.65L2.849,20.811L2.909,20.971L2.971,21.13L3.035,21.288L3.1,21.446L3.167,21.602L3.237,21.758L3.308,21.912L3.38,22.065L3.455,22.218L3.531,22.369L3.61,22.52L3.69,22.669L3.771,22.817L3.855,22.964L3.94,23.11L4.027,23.255L4.115,23.399L4.206,23.541L4.298,23.683L4.391,23.823L4.486,23.962L4.583,24.1L4.682,24.237L4.782,24.372L4.884,24.507L4.987,24.64L5.092,24.771L5.198,24.902L5.306,25.031L5.415,25.159L5.526,25.285L5.639,25.41L5.752,25.534L5.868,25.657L5.985,25.778L6.103,25.897L6.222,26.015L6.343,26.132L6.466,26.248L6.59,26.361L6.715,26.474L6.841,26.585L6.969,26.694L7.098,26.802L7.229,26.908L7.36,27.013L7.493,27.116L7.628,27.218L7.763,27.318L7.9,27.417L8.038,27.514L8.177,27.609L8.317,27.702L8.459,27.794L8.601,27.885L8.745,27.973L8.89,28.06L9.036,28.145L9.183,28.229L9.331,28.31L9.48,28.39L9.631,28.469L9.782,28.545L9.935,28.62L10.088,28.692L10.242,28.763L10.398,28.833L10.554,28.9L10.712,28.965L10.87,29.029L11.029,29.091L11.189,29.151L11.35,29.208L11.512,29.264L11.675,29.318L11.839,29.371L12.003,29.421L12.169,29.469L12.335,29.515L12.502,29.559L12.67,29.601L12.839,29.641L13.008,29.679L13.179,29.715L13.35,29.749L13.521,29.781L13.694,29.811L13.867,29.838L14.041,29.864L14.216,29.887L14.391,29.909L14.567,29.928L14.744,29.944L14.922,29.959L15.1,29.971L15.279,29.982L15.458,29.99L15.638,29.995L15.819,29.999L16,30L16.181,29.999L16.362,29.995L16.542,29.99L16.721,29.982L16.9,29.971L17.078,29.959L17.256,29.944L17.433,29.928L17.609,29.909L17.784,29.887L17.959,29.864L18.133,29.838L18.306,29.811L18.479,29.781L18.65,29.749L18.821,29.715L18.992,29.679L19.161,29.641L19.33,29.601L19.498,29.559L19.665,29.515L19.831,29.469L19.997,29.421L20.161,29.371L20.325,29.318L20.488,29.264L20.65,29.208L20.811,29.151L20.971,29.091L21.13,29.029L21.288,28.965L21.446,28.9L21.602,28.833L21.758,28.763L21.912,28.692L22.065,28.62L22.218,28.545L22.369,28.469L22.52,28.39L22.669,28.31L22.817,28.229L22.964,28.145L23.11,28.06L23.255,27.973L23.399,27.885L23.541,27.794L23.683,27.702L23.823,27.609L23.962,27.514L24.1,27.417L24.237,27.318L24.372,27.218L24.507,27.116L24.64,27.013L24.771,26.908L24.902,26.802L25.031,26.694L25.159,26.585L25.285,26.474L25.41,26.361L25.534,26.248L25.657,26.132L25.778,26.015L25.897,25.897L26.015,25.778L26.132,25.657L26.248,25.534L26.361,25.41L26.474,25.285L26.585,25.159L26.694,25.031L26.802,24.902L26.908,24.771L27.013,24.64L27.116,24.507L27.218,24.372L27.318,24.237L27.417,24.1L27.514,23.962L27.609,23.823L27.702,23.683L27.794,23.541L27.885,23.399L27.973,23.255L28.06,23.11L28.145,22.964L28.229,22.817L28.31,22.669L28.39,22.52L28.469,22.369L28.545,22.218L28.62,22.065L28.692,21.912L28.763,21.758L28.833,21.602L28.9,21.446L28.965,21.288L29.029,21.13L29.091,20.971L29.151,20.811L29.208,20.65L29.264,20.488L29.318,20.325L29.371,20.161L29.421,19.997L29.469,19.831L29.515,19.665L29.559,19.498L29.601,19.33L29.641,19.161L29.679,18.992L29.715,18.821L29.749,18.65L29.781,18.479L29.811,18.306L29.838,18.133L29.864,17.959L29.887,17.784L29.909,17.609L29.928,17.433L29.944,17.256L29.959,17.078L29.971,16.9L29.982,16.721L29.99,16.542L29.995,16.362L29.999,16.181L30,16L29.999,15.819L29.995,15.638L29.99,15.458L29.982,15.279L29.971,15.1L29.959,14.922L29.944,14.744L29.928,14.567L29.909,14.391L29.887,14.216L29.864,14.041L29.838,13.867L29.811,13.694L29.781,13.521L29.749,13.35L29.715,13.179L29.679,13.008L29.641,12.839L29.601,12.67L29.559,12.502L29.515,12.335L29.469,12.169L29.421,12.003L29.371,11.839L29.318,11.675L29.264,11.512L29.208,11.35L29.151,11.189L29.091,11.029L29.029,10.87L28.965,10.712L28.9,10.554L28.833,10.398L28.763,10.242L28.692,10.088L28.62,9.935L28.545,9.782L28.469,9.631L28.39,9.48L28.31,9.331L28.229,9.183L28.145,9.036L28.06,8.89L27.973,8.745L27.885,8.601L27.794,8.459L27.702,8.317L27.609,8.177L27.514,8.038L27.417,7.9L27.318,7.763L27.218,7.628L27.116,7.493L27.013,7.36L26.908,7.229L26.802,7.098L26.694,6.969L26.585,6.841L26.474,6.715L26.361,6.59L26.248,6.466L26.132,6.343L26.015,6.222L25.897,6.103L25.778,5.985L25.657,5.868L25.534,5.752L25.41,5.639L25.285,5.526L25.159,5.415L25.031,5.306L24.902,5.198L24.771,5.092L24.64,4.987L24.507,4.884L24.372,4.782L24.237,4.682L24.1,4.583L23.962,4.486L23.823,4.391L23.683,4.298L23.541,4.206L23.399,4.115L23.255,4.027L23.11,3.94L22.964,3.855L22.817,3.771L22.669,3.69L22.52,3.61L22.369,3.531L22.218,3.455L22.065,3.38L21.912,3.308L21.758,3.237L21.602,3.167L21.446,3.1L21.288,3.035L21.13,2.971L20.971,2.909L20.811,2.849L20.65,2.792L20.488,2.736L20.325,2.682L20.161,2.629L19.997,2.579L19.831,2.531L19.665,2.485L19.498,2.441L19.33,2.399L19.161,2.359L18.992,2.321L18.821,2.285L18.65,2.251L18.479,2.219L18.306,2.189L18.133,2.162L17.959,2.136L17.784,2.113L17.609,2.091L17.433,2.072L17.256,2.056L17.078,2.041L16.9,2.029L16.721,2.018L16.542,2.01L16.362,2.005L16.181,2.001L16,2L15.819,2.001Z"/>
        <clipPath id="_clip1">
            <path d="M16,-8L1,14.875L16,26.5L31,14L16,-8"/>
        </clipPath>
        <g clip-path="url(#_clip1)">
            <path d="M6.764,-16.874L6.902,-16.873L7.04,-16.87L7.178,-16.866L7.315,-16.861L7.452,-16.855L7.589,-16.847L7.726,-16.839L7.862,-16.829L7.998,-16.818L8.134,-16.807L8.269,-16.794L8.404,-16.78L8.539,-16.765L8.673,-16.748L8.807,-16.731L8.941,-16.713L9.074,-16.693L9.207,-16.673L9.34,-16.651L9.472,-16.629L9.604,-16.605L9.736,-16.581L9.867,-16.555L9.998,-16.528L10.128,-16.5L10.258,-16.471L10.388,-16.442L10.517,-16.411L10.646,-16.379L10.774,-16.346L10.903,-16.312L11.03,-16.277L11.157,-16.241L11.284,-16.204L11.411,-16.166L11.537,-16.127L11.662,-16.087L11.787,-16.047L11.912,-16.005L12.036,-15.962L12.16,-15.918L12.283,-15.874L12.406,-15.828L12.529,-15.781L12.651,-15.734L12.772,-15.685L12.893,-15.636L13.014,-15.585L13.134,-15.534L13.253,-15.482L13.372,-15.429L13.491,-15.375L13.609,-15.32L13.726,-15.264L13.843,-15.207L13.96,-15.149L14.076,-15.091L14.191,-15.031L14.306,-14.971L14.421,-14.91L14.534,-14.848L14.648,-14.785L14.761,-14.721L14.873,-14.656L14.984,-14.591L15.095,-14.524L15.206,-14.457L15.316,-14.389L15.425,-14.32L15.534,-14.25L15.642,-14.18L15.75,-14.108L15.857,-14.036L15.963,-13.963L16.069,-13.889L16.174,-13.815L16.279,-13.739L16.383,-13.663L16.486,-13.586L16.589,-13.508L16.691,-13.429L16.792,-13.35L16.893,-13.27L16.993,-13.189L17.093,-13.107L17.192,-13.025L17.29,-12.942L17.388,-12.858L17.485,-12.773L17.581,-12.687L17.676,-12.601L17.771,-12.514L17.865,-12.427L17.959,-12.338L18.052,-12.249L18.144,-12.159L18.235,-12.069L18.326,-11.978L18.416,-11.886L18.505,-11.793L18.594,-11.7L18.682,-11.606L18.769,-11.511L18.855,-11.415L18.941,-11.319L19.026,-11.223L19.11,-11.125L19.193,-11.027L19.276,-10.928L19.358,-10.829L19.439,-10.729L19.519,-10.628L19.599,-10.527L19.678,-10.425L19.756,-10.322L19.833,-10.219L19.909,-10.115L19.985,-10.011L20.06,-9.906L20.134,-9.8L20.207,-9.694L20.279,-9.587L20.351,-9.48L20.422,-9.372L20.492,-9.263L20.561,-9.154L20.629,-9.044L20.753,-9.182L20.879,-9.318L21.007,-9.453L21.137,-9.586L21.268,-9.718L21.401,-9.848L21.535,-9.976L21.672,-10.102L21.809,-10.227L21.949,-10.35L22.09,-10.471L22.233,-10.59L22.377,-10.708L22.522,-10.823L22.67,-10.937L22.818,-11.049L22.969,-11.159L23.12,-11.267L23.273,-11.373L23.428,-11.477L23.584,-11.58L23.741,-11.68L23.9,-11.778L24.06,-11.875L24.221,-11.969L24.384,-12.061L24.548,-12.151L24.714,-12.239L24.88,-12.325L25.048,-12.409L25.217,-12.491L25.387,-12.571L25.559,-12.648L25.732,-12.723L25.906,-12.796L26.081,-12.867L26.257,-12.936L26.434,-13.002L26.612,-13.066L26.792,-13.128L26.972,-13.187L27.154,-13.244L27.336,-13.299L27.52,-13.351L27.704,-13.401L27.89,-13.449L28.076,-13.494L28.264,-13.537L28.452,-13.577L28.641,-13.615L28.832,-13.65L29.022,-13.683L29.214,-13.713L29.407,-13.741L29.6,-13.766L29.795,-13.789L29.99,-13.809L30.185,-13.826L30.382,-13.841L30.579,-13.853L30.777,-13.863L30.976,-13.87L31.175,-13.874L31.375,-13.875L31.561,-13.874L31.746,-13.87L31.93,-13.864L32.114,-13.856L32.298,-13.846L32.48,-13.833L32.662,-13.818L32.844,-13.801L33.025,-13.781L33.205,-13.759L33.384,-13.735L33.563,-13.709L33.741,-13.681L33.918,-13.65L34.095,-13.618L34.271,-13.583L34.446,-13.546L34.62,-13.507L34.793,-13.465L34.966,-13.422L35.138,-13.377L35.308,-13.329L35.479,-13.28L35.648,-13.228L35.816,-13.175L35.983,-13.119L36.15,-13.062L36.315,-13.002L36.48,-12.941L36.644,-12.877L36.806,-12.812L36.968,-12.745L37.129,-12.675L37.289,-12.604L37.447,-12.531L37.605,-12.457L37.761,-12.38L37.917,-12.301L38.071,-12.221L38.225,-12.139L38.377,-12.055L38.528,-11.969L38.678,-11.882L38.827,-11.793L38.974,-11.702L39.121,-11.609L39.266,-11.515L39.41,-11.419L39.553,-11.321L39.694,-11.221L39.834,-11.12L39.974,-11.018L40.111,-10.913L40.248,-10.807L40.383,-10.7L40.517,-10.591L40.649,-10.48L40.78,-10.368L40.91,-10.254L41.038,-10.139L41.165,-10.022L41.291,-9.904L41.415,-9.784L41.538,-9.663L41.659,-9.54L41.779,-9.416L41.897,-9.29L42.014,-9.163L42.129,-9.035L42.243,-8.905L42.355,-8.774L42.466,-8.642L42.575,-8.508L42.682,-8.373L42.788,-8.236L42.893,-8.099L42.995,-7.959L43.096,-7.819L43.196,-7.678L43.294,-7.535L43.39,-7.391L43.484,-7.246L43.577,-7.099L43.668,-6.952L43.757,-6.803L43.844,-6.653L43.93,-6.502L44.014,-6.35L44.096,-6.196L44.176,-6.042L44.255,-5.886L44.332,-5.73L44.406,-5.572L44.479,-5.414L44.55,-5.254L44.62,-5.093L44.687,-4.931L44.752,-4.769L44.816,-4.605L44.877,-4.44L44.937,-4.275L44.994,-4.108L45.05,-3.941L45.103,-3.773L45.155,-3.604L45.204,-3.433L45.252,-3.263L45.297,-3.091L45.34,-2.918L45.382,-2.745L45.421,-2.571L45.458,-2.396L45.493,-2.22L45.525,-2.043L45.556,-1.866L45.584,-1.688L45.61,-1.509L45.634,-1.33L45.656,-1.15L45.676,-0.969L45.693,-0.787L45.708,-0.605L45.721,-0.423L45.731,-0.239L45.739,-0.055L45.745,0.129L45.749,0.314L45.75,0.5L45.749,0.686L45.745,0.871L45.739,1.055L45.731,1.239L45.721,1.423L45.708,1.605L45.693,1.787L45.676,1.969L45.656,2.15L45.634,2.33L45.61,2.509L45.584,2.688L45.556,2.866L45.525,3.043L45.493,3.22L45.458,3.396L45.421,3.571L45.382,3.745L45.34,3.918L45.297,4.091L45.252,4.263L45.204,4.433L45.155,4.604L45.103,4.773L45.05,4.941L44.994,5.108L44.937,5.275L44.877,5.44L44.816,5.605L44.752,5.769L44.687,5.931L44.62,6.093L44.55,6.254L44.479,6.414L44.406,6.572L44.332,6.73L44.255,6.886L44.176,7.042L44.096,7.196L44.014,7.35L43.93,7.502L43.844,7.653L43.757,7.803L43.668,7.952L43.577,8.099L43.484,8.246L43.39,8.391L43.294,8.535L43.196,8.678L43.096,8.819L42.995,8.959L42.893,9.099L42.788,9.236L42.682,9.373L42.575,9.508L42.466,9.642L42.355,9.774L42.243,9.905L42.129,10.035L42.014,10.163L41.897,10.29L41.779,10.416L41.659,10.54L41.538,10.663L41.415,10.784L41.291,10.904L41.165,11.022L41.038,11.139L40.91,11.254L40.78,11.368L40.649,11.48L40.517,11.591L40.383,11.7L40.248,11.807L40.111,11.913L39.974,12.018L39.834,12.12L39.694,12.221L39.553,12.321L39.41,12.419L39.266,12.515L39.121,12.609L38.974,12.702L38.827,12.793L38.678,12.882L38.528,12.969L38.377,13.055L38.225,13.139L38.071,13.221L37.917,13.301L37.761,13.38L37.605,13.457L37.447,13.531L37.289,13.604L37.129,13.675L36.968,13.745L36.806,13.812L36.644,13.877L36.48,13.941L36.315,14.002L36.15,14.062L35.983,14.119L35.816,14.175L35.648,14.228L35.479,14.28L35.308,14.329L35.138,14.377L34.966,14.422L34.793,14.465L34.62,14.507L34.446,14.546L34.271,14.583L34.095,14.618L33.918,14.65L33.741,14.681L33.563,14.709L33.384,14.735L33.205,14.759L33.025,14.781L32.844,14.801L32.662,14.818L32.48,14.833L32.298,14.846L32.114,14.856L31.93,14.864L31.746,14.87L31.561,14.874L31.375,14.875L31.266,14.875L31.157,14.873L31.048,14.871L30.939,14.869L30.831,14.865L30.723,14.86L30.615,14.855L30.507,14.849L30.399,14.842L30.292,14.835L30.185,14.826L30.078,14.817L29.971,14.807L29.865,14.796L29.758,14.785L29.652,14.773L29.546,14.76L29.441,14.746L29.336,14.731L29.231,14.716L29.126,14.7L29.021,14.683L28.917,14.665L28.813,14.647L28.709,14.628L28.605,14.608L28.502,14.587L28.399,14.566L28.296,14.544L28.194,14.521L28.092,14.498L27.99,14.473L27.888,14.448L27.787,14.423L27.686,14.396L27.585,14.369L27.484,14.341L27.384,14.313L27.284,14.284L27.185,14.254L27.085,14.223L26.986,14.192L26.888,14.16L26.789,14.127L26.691,14.093L26.593,14.059L26.496,14.025L26.399,13.989L26.206,13.916L26.014,13.84L25.823,13.762L25.634,13.681L25.447,13.598L25.26,13.511L25.075,13.423L24.892,13.331L24.71,13.238L24.53,13.141L24.351,13.042L24.173,12.941L23.998,12.838L23.824,12.731L23.651,12.623L23.48,12.512L23.311,12.399L23.144,12.283L22.978,12.166L22.814,12.046L22.652,11.923L22.491,11.799L22.333,11.672L22.176,11.543L22.021,11.412L21.868,11.279L21.717,11.144L21.568,11.006L21.421,10.867L21.275,10.725L21.132,10.582L20.991,10.436L20.852,10.289L20.714,10.139L20.579,9.988L20.446,9.835L20.316,9.679L20.187,9.522L20.061,9.364L19.936,9.203L19.866,9.299L19.795,9.395L19.723,9.49L19.651,9.585L19.578,9.679L19.504,9.772L19.43,9.865L19.355,9.958L19.279,10.05L19.202,10.141L19.125,10.232L19.048,10.322L18.969,10.412L18.891,10.501L18.811,10.589L18.731,10.677L18.65,10.765L18.569,10.851L18.487,10.937L18.404,11.023L18.321,11.108L18.237,11.192L18.152,11.276L18.067,11.359L17.981,11.442L17.895,11.524L17.808,11.605L17.721,11.686L17.633,11.766L17.544,11.845L17.455,11.924L17.365,12.002L17.275,12.08L17.184,12.156L17.093,12.233L17.001,12.308L16.908,12.383L16.815,12.457L16.721,12.531L16.627,12.604L16.532,12.676L16.437,12.748L16.341,12.819L16.245,12.889L16.148,12.959L16.05,13.027L15.953,13.096L15.854,13.163L15.755,13.23L15.656,13.296L15.556,13.361L15.455,13.426L15.354,13.49L15.253,13.553L15.151,13.616L15.049,13.678L14.946,13.739L14.842,13.799L14.738,13.859L14.634,13.917L14.529,13.976L14.424,14.033L14.318,14.09L14.212,14.146L14.105,14.201L13.998,14.255L13.891,14.309L13.783,14.362L13.674,14.414L13.565,14.465L13.456,14.516L13.346,14.565L13.236,14.614L13.126,14.663L13.015,14.71L12.903,14.757L12.791,14.802L12.679,14.847L12.567,14.892L12.454,14.935L12.34,14.978L12.226,15.019L12.112,15.06L11.997,15.101L11.882,15.14L11.767,15.178L11.651,15.216L11.535,15.253L11.419,15.289L11.302,15.324L11.185,15.358L11.067,15.392L10.949,15.424L10.831,15.456L10.712,15.487L10.593,15.517L10.474,15.546L10.354,15.574L10.234,15.602L10.114,15.628L9.993,15.654L9.872,15.679L9.751,15.703L9.629,15.726L9.507,15.748L9.385,15.769L9.263,15.789L9.14,15.808L9.017,15.827L8.893,15.844L8.769,15.861L8.645,15.877L8.521,15.892L8.397,15.905L8.272,15.918L8.147,15.93L8.021,15.941L7.896,15.952L7.77,15.961L7.643,15.969L7.517,15.976L7.39,15.982L7.263,15.988L7.136,15.992L7.009,15.996L6.881,15.998L6.753,16L6.625,16L6.413,15.999L6.201,15.995L5.99,15.988L5.78,15.979L5.57,15.967L5.361,15.952L5.153,15.935L4.945,15.915L4.739,15.893L4.533,15.868L4.328,15.84L4.123,15.81L3.92,15.778L3.717,15.743L3.515,15.706L3.314,15.666L3.114,15.623L2.915,15.579L2.716,15.532L2.519,15.482L2.323,15.43L2.127,15.376L1.933,15.319L1.739,15.26L1.547,15.199L1.355,15.136L1.165,15.07L0.976,15.002L0.787,14.932L0.6,14.859L0.414,14.784L0.229,14.707L0.046,14.628L-0.137,14.547L-0.318,14.464L-0.499,14.378L-0.678,14.29L-0.856,14.201L-1.032,14.109L-1.207,14.015L-1.381,13.919L-1.554,13.821L-1.726,13.721L-1.896,13.619L-2.065,13.515L-2.232,13.409L-2.398,13.301L-2.563,13.191L-2.726,13.079L-2.888,12.966L-3.048,12.85L-3.207,12.733L-3.365,12.613L-3.521,12.492L-3.675,12.369L-3.828,12.245L-3.98,12.118L-4.13,11.99L-4.278,11.86L-4.425,11.728L-4.57,11.594L-4.714,11.459L-4.855,11.322L-4.996,11.183L-5.134,11.043L-5.271,10.901L-5.407,10.757L-5.54,10.612L-5.672,10.466L-5.802,10.317L-5.93,10.167L-6.057,10.016L-6.182,9.863L-6.305,9.708L-6.426,9.552L-6.545,9.395L-6.663,9.236L-6.778,9.075L-6.892,8.913L-7.004,8.75L-7.113,8.586L-7.221,8.419L-7.327,8.252L-7.431,8.083L-7.533,7.913L-7.633,7.742L-7.731,7.569L-7.827,7.395L-7.921,7.22L-8.013,7.043L-8.103,6.865L-8.191,6.686L-8.276,6.506L-8.36,6.325L-8.441,6.142L-8.52,5.958L-8.597,5.773L-8.672,5.587L-8.744,5.4L-8.814,5.212L-8.882,5.023L-8.948,4.832L-9.012,4.641L-9.073,4.448L-9.132,4.255L-9.188,4.06L-9.243,3.865L-9.295,3.668L-9.344,3.471L-9.391,3.273L-9.436,3.074L-9.478,2.873L-9.518,2.672L-9.556,2.471L-9.591,2.268L-9.623,2.064L-9.653,1.86L-9.68,1.655L-9.705,1.449L-9.728,1.242L-9.747,1.035L-9.765,0.826L-9.779,0.617L-9.791,0.408L-9.8,0.197L-9.807,-0.014L-9.811,-0.225L-9.813,-0.438L-9.811,-0.65L-9.807,-0.861L-9.8,-1.072L-9.791,-1.283L-9.779,-1.492L-9.765,-1.701L-9.747,-1.91L-9.728,-2.117L-9.705,-2.324L-9.68,-2.53L-9.653,-2.735L-9.623,-2.939L-9.591,-3.143L-9.556,-3.346L-9.518,-3.547L-9.478,-3.748L-9.436,-3.949L-9.391,-4.148L-9.344,-4.346L-9.295,-4.543L-9.243,-4.74L-9.188,-4.935L-9.132,-5.13L-9.073,-5.323L-9.012,-5.516L-8.948,-5.707L-8.882,-5.898L-8.814,-6.087L-8.744,-6.275L-8.672,-6.462L-8.597,-6.648L-8.52,-6.833L-8.441,-7.017L-8.36,-7.2L-8.276,-7.381L-8.191,-7.561L-8.103,-7.74L-8.013,-7.918L-7.921,-8.095L-7.827,-8.27L-7.731,-8.444L-7.633,-8.617L-7.533,-8.788L-7.431,-8.958L-7.327,-9.127L-7.221,-9.294L-7.113,-9.461L-7.004,-9.625L-6.892,-9.788L-6.778,-9.95L-6.663,-10.111L-6.545,-10.27L-6.426,-10.427L-6.305,-10.583L-6.182,-10.738L-6.057,-10.891L-5.93,-11.042L-5.802,-11.192L-5.672,-11.341L-5.54,-11.487L-5.407,-11.632L-5.271,-11.776L-5.134,-11.918L-4.996,-12.058L-4.855,-12.197L-4.714,-12.334L-4.57,-12.469L-4.425,-12.603L-4.278,-12.735L-4.13,-12.865L-3.98,-12.993L-3.828,-13.12L-3.675,-13.244L-3.521,-13.367L-3.365,-13.488L-3.207,-13.608L-3.048,-13.725L-2.888,-13.841L-2.726,-13.954L-2.563,-14.066L-2.398,-14.176L-2.232,-14.284L-2.065,-14.39L-1.896,-14.494L-1.726,-14.596L-1.554,-14.696L-1.381,-14.794L-1.207,-14.89L-1.032,-14.984L-0.856,-15.076L-0.678,-15.165L-0.499,-15.253L-0.318,-15.339L-0.137,-15.422L0.046,-15.503L0.229,-15.582L0.414,-15.659L0.6,-15.734L0.787,-15.807L0.976,-15.877L1.165,-15.945L1.355,-16.011L1.547,-16.074L1.739,-16.135L1.933,-16.194L2.127,-16.251L2.323,-16.305L2.519,-16.357L2.716,-16.407L2.915,-16.454L3.114,-16.498L3.314,-16.541L3.515,-16.581L3.717,-16.618L3.92,-16.653L4.123,-16.685L4.328,-16.715L4.533,-16.743L4.739,-16.768L4.945,-16.79L5.153,-16.81L5.361,-16.827L5.57,-16.842L5.78,-16.854L5.99,-16.863L6.201,-16.87L6.413,-16.874L6.625,-16.875L6.764,-16.874ZM6.438,-14.874L6.252,-14.87L6.066,-14.864L5.881,-14.856L5.697,-14.846L5.513,-14.833L5.33,-14.818L5.148,-14.8L4.966,-14.781L4.785,-14.759L4.605,-14.735L4.426,-14.708L4.247,-14.68L4.069,-14.649L3.892,-14.616L3.715,-14.581L3.54,-14.544L3.365,-14.505L3.191,-14.464L3.018,-14.42L2.846,-14.375L2.674,-14.327L2.503,-14.278L2.334,-14.226L2.165,-14.172L1.997,-14.116L1.83,-14.059L1.664,-13.999L1.499,-13.937L1.334,-13.874L1.171,-13.808L1.009,-13.741L0.848,-13.671L0.687,-13.6L0.528,-13.527L0.37,-13.451L0.213,-13.375L0.057,-13.296L-0.098,-13.215L-0.252,-13.133L-0.405,-13.048L-0.557,-12.962L-0.707,-12.874L-0.857,-12.785L-1.005,-12.693L-1.152,-12.6L-1.298,-12.506L-1.443,-12.409L-1.586,-12.311L-1.728,-12.211L-1.869,-12.109L-2.009,-12.006L-2.148,-11.901L-2.285,-11.795L-2.421,-11.687L-2.555,-11.577L-2.688,-11.466L-2.82,-11.353L-2.95,-11.239L-3.08,-11.123L-3.207,-11.005L-3.333,-10.886L-3.458,-10.766L-3.582,-10.644L-3.703,-10.521L-3.824,-10.396L-3.943,-10.27L-4.06,-10.142L-4.176,-10.013L-4.29,-9.883L-4.403,-9.751L-4.515,-9.618L-4.624,-9.483L-4.732,-9.347L-4.839,-9.21L-4.944,-9.072L-5.047,-8.932L-5.148,-8.791L-5.248,-8.649L-5.347,-8.505L-5.443,-8.361L-5.538,-8.215L-5.631,-8.068L-5.722,-7.919L-5.812,-7.77L-5.9,-7.619L-5.986,-7.468L-6.07,-7.315L-6.153,-7.161L-6.233,-7.006L-6.312,-6.85L-6.389,-6.693L-6.464,-6.534L-6.537,-6.375L-6.609,-6.215L-6.678,-6.054L-6.746,-5.891L-6.811,-5.728L-6.875,-5.564L-6.936,-5.399L-6.996,-5.233L-7.054,-5.066L-7.11,-4.898L-7.163,-4.729L-7.215,-4.559L-7.265,-4.388L-7.312,-4.217L-7.358,-4.045L-7.401,-3.871L-7.443,-3.698L-7.482,-3.523L-7.519,-3.347L-7.554,-3.171L-7.587,-2.994L-7.617,-2.816L-7.646,-2.637L-7.672,-2.457L-7.696,-2.277L-7.718,-2.096L-7.738,-1.915L-7.755,-1.732L-7.77,-1.549L-7.783,-1.366L-7.794,-1.181L-7.802,-0.996L-7.808,-0.811L-7.811,-0.624L-7.812,-0.438L-7.811,-0.251L-7.808,-0.064L-7.802,0.121L-7.794,0.306L-7.783,0.491L-7.77,0.674L-7.755,0.857L-7.738,1.04L-7.718,1.221L-7.696,1.402L-7.672,1.582L-7.646,1.762L-7.617,1.941L-7.587,2.119L-7.554,2.296L-7.519,2.472L-7.482,2.648L-7.443,2.823L-7.401,2.996L-7.358,3.17L-7.312,3.342L-7.265,3.513L-7.215,3.684L-7.163,3.854L-7.11,4.023L-7.054,4.191L-6.996,4.358L-6.936,4.524L-6.875,4.689L-6.811,4.853L-6.746,5.016L-6.678,5.179L-6.609,5.34L-6.537,5.5L-6.464,5.659L-6.389,5.818L-6.312,5.975L-6.233,6.131L-6.153,6.286L-6.07,6.44L-5.986,6.593L-5.9,6.744L-5.812,6.895L-5.722,7.044L-5.631,7.193L-5.538,7.34L-5.443,7.486L-5.347,7.63L-5.248,7.774L-5.148,7.916L-5.047,8.057L-4.944,8.197L-4.839,8.335L-4.732,8.472L-4.624,8.608L-4.515,8.743L-4.403,8.876L-4.29,9.008L-4.176,9.138L-4.06,9.267L-3.943,9.395L-3.824,9.521L-3.703,9.646L-3.582,9.769L-3.458,9.891L-3.333,10.011L-3.207,10.13L-3.08,10.248L-2.95,10.364L-2.82,10.478L-2.688,10.591L-2.555,10.702L-2.421,10.812L-2.285,10.92L-2.148,11.026L-2.009,11.131L-1.869,11.234L-1.728,11.336L-1.586,11.436L-1.443,11.534L-1.298,11.631L-1.152,11.725L-1.005,11.818L-0.857,11.91L-0.707,11.999L-0.557,12.087L-0.405,12.173L-0.252,12.258L-0.098,12.34L0.057,12.421L0.213,12.5L0.37,12.576L0.528,12.652L0.687,12.725L0.848,12.796L1.009,12.866L1.171,12.933L1.334,12.999L1.499,13.062L1.664,13.124L1.83,13.184L1.997,13.241L2.165,13.297L2.334,13.351L2.503,13.403L2.674,13.452L2.846,13.5L3.018,13.545L3.191,13.589L3.365,13.63L3.54,13.669L3.715,13.706L3.892,13.741L4.069,13.774L4.247,13.805L4.426,13.833L4.605,13.86L4.785,13.884L4.966,13.906L5.148,13.925L5.33,13.943L5.513,13.958L5.697,13.971L5.881,13.981L6.066,13.989L6.252,13.995L6.438,13.999L6.628,14L6.738,14L6.85,13.998L6.963,13.996L7.075,13.993L7.187,13.989L7.299,13.985L7.41,13.979L7.521,13.973L7.632,13.965L7.743,13.957L7.853,13.948L7.963,13.939L8.073,13.928L8.183,13.917L8.293,13.905L8.402,13.892L8.511,13.878L8.619,13.863L8.728,13.848L8.836,13.832L8.944,13.815L9.051,13.797L9.158,13.778L9.265,13.759L9.372,13.739L9.479,13.718L9.585,13.696L9.691,13.674L9.796,13.65L9.902,13.626L10.007,13.601L10.111,13.576L10.216,13.55L10.32,13.522L10.423,13.495L10.527,13.466L10.63,13.437L10.733,13.407L10.835,13.376L10.938,13.344L11.04,13.312L11.141,13.279L11.242,13.245L11.343,13.211L11.444,13.175L11.544,13.139L11.644,13.103L11.743,13.065L11.843,13.027L11.941,12.988L12.04,12.949L12.138,12.909L12.236,12.868L12.333,12.826L12.43,12.784L12.527,12.741L12.623,12.697L12.719,12.653L12.815,12.608L12.91,12.562L13.005,12.516L13.099,12.469L13.193,12.421L13.287,12.372L13.38,12.323L13.473,12.274L13.565,12.223L13.657,12.172L13.749,12.12L13.84,12.068L13.931,12.015L14.021,11.961L14.111,11.907L14.201,11.852L14.29,11.797L14.379,11.74L14.467,11.684L14.555,11.626L14.642,11.568L14.729,11.509L14.816,11.45L14.902,11.39L14.987,11.33L15.072,11.269L15.157,11.207L15.241,11.144L15.325,11.082L15.408,11.018L15.491,10.954L15.574,10.889L15.655,10.824L15.737,10.758L15.818,10.692L15.898,10.625L15.978,10.557L16.057,10.489L16.136,10.42L16.215,10.351L16.293,10.281L16.37,10.211L16.447,10.14L16.523,10.068L16.599,9.996L16.674,9.924L16.749,9.851L16.824,9.777L16.897,9.703L16.971,9.628L17.043,9.553L17.115,9.477L17.187,9.401L17.258,9.324L17.328,9.247L17.398,9.169L17.468,9.091L17.537,9.012L17.605,8.933L17.673,8.853L17.74,8.772L17.806,8.692L17.872,8.61L17.938,8.529L18.002,8.446L18.067,8.364L18.13,8.281L18.193,8.197L18.256,8.113L19.65,6.207L20.142,6.2L21.634,8.129L21.743,8.266L21.854,8.401L21.967,8.535L22.081,8.667L22.198,8.797L22.316,8.926L22.436,9.053L22.557,9.179L22.681,9.302L22.806,9.424L22.933,9.544L23.062,9.663L23.192,9.78L23.324,9.894L23.457,10.007L23.592,10.118L23.729,10.228L23.867,10.335L24.007,10.44L24.148,10.544L24.291,10.645L24.435,10.745L24.581,10.842L24.728,10.938L24.876,11.031L25.026,11.122L25.178,11.211L25.33,11.299L25.484,11.384L25.639,11.467L25.796,11.547L25.954,11.626L26.113,11.702L26.273,11.776L26.434,11.848L26.597,11.918L26.761,11.985L26.926,12.05L27.095,12.114L27.176,12.143L27.259,12.173L27.343,12.203L27.428,12.231L27.512,12.26L27.597,12.287L27.682,12.314L27.768,12.34L27.853,12.366L27.939,12.391L28.025,12.416L28.112,12.44L28.198,12.463L28.285,12.486L28.372,12.508L28.46,12.529L28.547,12.55L28.635,12.57L28.723,12.59L28.812,12.609L28.9,12.627L28.989,12.645L29.078,12.662L29.167,12.679L29.257,12.694L29.347,12.71L29.437,12.724L29.527,12.738L29.617,12.751L29.708,12.764L29.799,12.776L29.89,12.787L29.981,12.797L30.073,12.807L30.164,12.817L30.256,12.825L30.348,12.833L30.441,12.84L30.533,12.847L30.626,12.853L30.719,12.858L30.812,12.862L30.905,12.866L30.999,12.869L31.093,12.872L31.187,12.874L31.281,12.875L31.372,12.875L31.535,12.874L31.695,12.871L31.854,12.866L32.013,12.859L32.171,12.85L32.328,12.839L32.485,12.826L32.642,12.811L32.797,12.794L32.952,12.775L33.107,12.755L33.261,12.732L33.414,12.708L33.566,12.681L33.718,12.653L33.869,12.623L34.02,12.592L34.169,12.558L34.319,12.523L34.467,12.485L34.615,12.446L34.762,12.405L34.908,12.363L35.053,12.319L35.198,12.273L35.342,12.225L35.485,12.175L35.627,12.124L35.769,12.071L35.91,12.017L36.05,11.961L36.189,11.903L36.327,11.843L36.464,11.782L36.601,11.719L36.736,11.655L36.871,11.589L37.005,11.521L37.138,11.452L37.27,11.382L37.401,11.309L37.531,11.236L37.66,11.16L37.788,11.084L37.915,11.005L38.041,10.925L38.166,10.844L38.29,10.761L38.413,10.677L38.535,10.592L38.656,10.505L38.775,10.416L38.894,10.326L39.012,10.235L39.128,10.142L39.243,10.048L39.358,9.953L39.471,9.856L39.582,9.758L39.693,9.659L39.802,9.558L39.911,9.456L40.018,9.353L40.123,9.248L40.228,9.143L40.331,9.036L40.433,8.927L40.534,8.818L40.633,8.707L40.731,8.596L40.828,8.483L40.923,8.368L41.017,8.253L41.11,8.137L41.201,8.019L41.291,7.9L41.38,7.781L41.467,7.66L41.552,7.538L41.636,7.415L41.719,7.291L41.8,7.166L41.88,7.04L41.959,6.913L42.035,6.785L42.111,6.656L42.184,6.526L42.257,6.395L42.327,6.263L42.396,6.13L42.464,5.996L42.53,5.861L42.594,5.726L42.657,5.589L42.718,5.452L42.778,5.314L42.836,5.174L42.892,5.035L42.946,4.894L42.999,4.752L43.05,4.61L43.1,4.467L43.148,4.323L43.194,4.178L43.238,4.033L43.28,3.887L43.321,3.74L43.36,3.592L43.398,3.444L43.433,3.294L43.467,3.145L43.498,2.994L43.528,2.843L43.556,2.691L43.583,2.539L43.607,2.386L43.63,2.232L43.65,2.077L43.669,1.922L43.686,1.767L43.701,1.61L43.714,1.453L43.725,1.296L43.734,1.138L43.741,0.979L43.746,0.82L43.749,0.66L43.75,0.5L43.749,0.34L43.746,0.18L43.741,0.021L43.734,-0.138L43.725,-0.296L43.714,-0.453L43.701,-0.61L43.686,-0.767L43.669,-0.922L43.65,-1.077L43.63,-1.232L43.607,-1.386L43.583,-1.539L43.556,-1.691L43.528,-1.843L43.498,-1.994L43.467,-2.145L43.433,-2.294L43.398,-2.444L43.36,-2.592L43.321,-2.74L43.28,-2.887L43.238,-3.033L43.194,-3.178L43.148,-3.323L43.1,-3.467L43.05,-3.61L42.999,-3.752L42.946,-3.894L42.892,-4.035L42.836,-4.175L42.778,-4.314L42.718,-4.452L42.657,-4.589L42.594,-4.726L42.53,-4.861L42.464,-4.996L42.396,-5.13L42.327,-5.263L42.257,-5.395L42.184,-5.526L42.111,-5.656L42.035,-5.785L41.959,-5.913L41.88,-6.04L41.8,-6.166L41.719,-6.291L41.636,-6.415L41.552,-6.538L41.467,-6.66L41.38,-6.781L41.291,-6.9L41.201,-7.019L41.11,-7.137L41.017,-7.253L40.923,-7.368L40.828,-7.483L40.731,-7.596L40.633,-7.707L40.534,-7.818L40.433,-7.927L40.331,-8.036L40.228,-8.143L40.123,-8.248L40.018,-8.353L39.911,-8.456L39.802,-8.558L39.693,-8.659L39.582,-8.758L39.471,-8.856L39.358,-8.953L39.243,-9.048L39.128,-9.142L39.012,-9.235L38.894,-9.326L38.775,-9.416L38.656,-9.505L38.535,-9.592L38.413,-9.677L38.29,-9.761L38.166,-9.844L38.041,-9.925L37.915,-10.005L37.788,-10.084L37.66,-10.16L37.531,-10.236L37.401,-10.309L37.27,-10.382L37.138,-10.452L37.005,-10.521L36.871,-10.589L36.736,-10.655L36.601,-10.719L36.464,-10.782L36.327,-10.843L36.189,-10.903L36.05,-10.961L35.91,-11.017L35.769,-11.071L35.627,-11.124L35.485,-11.175L35.342,-11.225L35.198,-11.273L35.053,-11.319L34.908,-11.363L34.762,-11.405L34.615,-11.446L34.467,-11.485L34.319,-11.523L34.169,-11.558L34.02,-11.592L33.869,-11.623L33.718,-11.653L33.566,-11.681L33.414,-11.708L33.261,-11.732L33.107,-11.755L32.952,-11.775L32.797,-11.794L32.642,-11.811L32.485,-11.826L32.328,-11.839L32.171,-11.85L32.013,-11.859L31.854,-11.866L31.695,-11.871L31.535,-11.874L31.375,-11.875L31.202,-11.874L31.03,-11.87L30.859,-11.864L30.688,-11.856L30.518,-11.846L30.349,-11.833L30.18,-11.818L30.012,-11.801L29.845,-11.781L29.679,-11.76L29.513,-11.736L29.348,-11.71L29.184,-11.681L29.02,-11.651L28.857,-11.619L28.695,-11.584L28.534,-11.547L28.374,-11.508L28.214,-11.467L28.056,-11.424L27.898,-11.379L27.741,-11.332L27.585,-11.283L27.43,-11.232L27.276,-11.179L27.122,-11.124L26.97,-11.067L26.818,-11.008L26.668,-10.947L26.518,-10.884L26.37,-10.82L26.222,-10.753L26.076,-10.685L25.93,-10.614L25.786,-10.542L25.642,-10.468L25.5,-10.392L25.359,-10.315L25.219,-10.235L25.08,-10.154L24.942,-10.071L24.805,-9.987L24.67,-9.9L24.536,-9.812L24.403,-9.722L24.271,-9.631L24.14,-9.538L24.011,-9.443L23.882,-9.347L23.756,-9.249L23.63,-9.149L23.506,-9.048L23.383,-8.945L23.261,-8.841L23.141,-8.735L23.022,-8.627L22.905,-8.518L22.789,-8.408L22.675,-8.296L22.561,-8.183L22.45,-8.068L22.34,-7.952L22.231,-7.834L20.61,-6.034L20.118,-6.077L18.866,-8.091L18.806,-8.187L18.744,-8.282L18.682,-8.377L18.619,-8.472L18.555,-8.566L18.491,-8.659L18.426,-8.752L18.36,-8.844L18.294,-8.936L18.227,-9.027L18.159,-9.118L18.09,-9.208L18.021,-9.298L17.951,-9.387L17.88,-9.475L17.809,-9.563L17.737,-9.651L17.664,-9.738L17.591,-9.824L17.517,-9.909L17.443,-9.994L17.367,-10.079L17.291,-10.163L17.215,-10.246L17.138,-10.329L17.06,-10.411L16.981,-10.492L16.902,-10.573L16.822,-10.653L16.742,-10.733L16.661,-10.812L16.579,-10.89L16.497,-10.968L16.414,-11.045L16.331,-11.121L16.247,-11.197L16.162,-11.272L16.077,-11.347L15.991,-11.421L15.905,-11.494L15.818,-11.566L15.731,-11.638L15.643,-11.709L15.554,-11.78L15.465,-11.85L15.375,-11.919L15.285,-11.987L15.194,-12.055L15.102,-12.122L15.011,-12.188L14.918,-12.254L14.825,-12.319L14.732,-12.383L14.638,-12.446L14.543,-12.509L14.448,-12.571L14.352,-12.632L14.256,-12.693L14.16,-12.753L14.063,-12.812L13.965,-12.87L13.867,-12.927L13.769,-12.984L13.67,-13.04L13.57,-13.096L13.47,-13.15L13.37,-13.204L13.269,-13.257L13.167,-13.309L13.066,-13.36L12.963,-13.411L12.861,-13.461L12.757,-13.51L12.654,-13.558L12.55,-13.606L12.445,-13.652L12.34,-13.698L12.235,-13.743L12.129,-13.787L12.023,-13.831L11.916,-13.873L11.809,-13.915L11.702,-13.956L11.594,-13.996L11.486,-14.035L11.377,-14.074L11.268,-14.111L11.159,-14.148L11.049,-14.184L10.939,-14.219L10.829,-14.253L10.718,-14.286L10.606,-14.319L10.495,-14.35L10.383,-14.381L10.27,-14.41L10.158,-14.439L10.044,-14.467L9.931,-14.494L9.817,-14.521L9.703,-14.546L9.589,-14.57L9.474,-14.594L9.359,-14.616L9.243,-14.638L9.127,-14.659L9.011,-14.679L8.895,-14.697L8.778,-14.715L8.661,-14.732L8.544,-14.749L8.426,-14.764L8.308,-14.778L8.19,-14.791L8.071,-14.803L7.952,-14.815L7.833,-14.825L7.713,-14.835L7.593,-14.843L7.473,-14.85L7.353,-14.857L7.232,-14.862L7.111,-14.867L6.99,-14.87L6.869,-14.873L6.747,-14.874L6.627,-14.875L6.438,-14.874Z"/>
        </g>
        <path d="M9.539,18L9.577,18.002L9.615,18.004L9.653,18.008L9.691,18.012L9.728,18.017L9.765,18.023L9.802,18.03L9.839,18.038L9.875,18.047L9.91,18.057L9.946,18.067L9.981,18.079L10.016,18.091L10.05,18.104L10.084,18.118L10.117,18.133L10.15,18.148L10.183,18.164L10.215,18.181L10.246,18.199L10.278,18.217L10.308,18.236L10.338,18.256L10.368,18.277L10.397,18.298L10.426,18.32L10.454,18.343L10.481,18.366L10.508,18.39L10.535,18.414L10.56,18.44L10.586,18.465L10.61,18.492L10.634,18.519L10.657,18.546L10.68,18.574L10.702,18.603L10.723,18.632L10.744,18.662L10.764,18.692L10.783,18.722L10.801,18.754L10.819,18.785L10.836,18.817L10.852,18.85L10.867,18.883L10.882,18.916L10.896,18.95L10.909,18.984L10.921,19.019L10.933,19.054L10.943,19.09L10.953,19.125L10.962,19.161L10.97,19.198L10.977,19.235L10.983,19.272L10.988,19.309L10.992,19.347L10.996,19.385L10.998,19.423L11,19.461L11,19.5L11,19.539L10.998,19.577L10.996,19.615L10.992,19.653L10.988,19.691L10.983,19.728L10.977,19.765L10.97,19.802L10.962,19.839L10.953,19.875L10.943,19.91L10.933,19.946L10.921,19.981L10.909,20.016L10.896,20.05L10.882,20.084L10.867,20.117L10.852,20.15L10.836,20.183L10.819,20.215L10.801,20.246L10.783,20.278L10.764,20.308L10.744,20.338L10.723,20.368L10.702,20.397L10.68,20.426L10.657,20.454L10.634,20.481L10.61,20.508L10.586,20.535L10.56,20.56L10.535,20.586L10.508,20.61L10.481,20.634L10.454,20.657L10.426,20.68L10.397,20.702L10.368,20.723L10.338,20.744L10.308,20.764L10.278,20.783L10.246,20.801L10.215,20.819L10.183,20.836L10.15,20.852L10.117,20.867L10.084,20.882L10.05,20.896L10.016,20.909L9.981,20.921L9.946,20.933L9.91,20.943L9.875,20.953L9.839,20.962L9.802,20.97L9.765,20.977L9.728,20.983L9.691,20.988L9.653,20.992L9.615,20.996L9.577,20.998L9.539,21L9.5,21L9.461,21L9.423,20.998L9.385,20.996L9.347,20.992L9.309,20.988L9.272,20.983L9.235,20.977L9.198,20.97L9.161,20.962L9.125,20.953L9.09,20.943L9.054,20.933L9.019,20.921L8.984,20.909L8.95,20.896L8.916,20.882L8.883,20.867L8.85,20.852L8.817,20.836L8.785,20.819L8.754,20.801L8.722,20.783L8.692,20.764L8.662,20.744L8.632,20.723L8.603,20.702L8.574,20.68L8.546,20.657L8.519,20.634L8.492,20.61L8.465,20.586L8.44,20.56L8.414,20.535L8.39,20.508L8.366,20.481L8.343,20.454L8.32,20.426L8.298,20.397L8.277,20.368L8.256,20.338L8.236,20.308L8.217,20.278L8.199,20.246L8.181,20.215L8.164,20.183L8.148,20.15L8.133,20.117L8.118,20.084L8.104,20.05L8.091,20.016L8.079,19.981L8.067,19.946L8.057,19.91L8.047,19.875L8.038,19.839L8.03,19.802L8.023,19.765L8.017,19.728L8.012,19.691L8.008,19.653L8.004,19.615L8.002,19.577L8,19.539L8,19.5L8,19.461L8.002,19.423L8.004,19.385L8.008,19.347L8.012,19.309L8.017,19.272L8.023,19.235L8.03,19.198L8.038,19.161L8.047,19.125L8.057,19.09L8.067,19.054L8.079,19.019L8.091,18.984L8.104,18.95L8.118,18.916L8.133,18.883L8.148,18.85L8.164,18.817L8.181,18.785L8.199,18.754L8.217,18.722L8.236,18.692L8.256,18.662L8.277,18.632L8.298,18.603L8.32,18.574L8.343,18.546L8.366,18.519L8.39,18.492L8.414,18.465L8.44,18.44L8.465,18.414L8.492,18.39L8.519,18.366L8.546,18.343L8.574,18.32L8.603,18.298L8.632,18.277L8.662,18.256L8.692,18.236L8.722,18.217L8.754,18.199L8.785,18.181L8.817,18.164L8.85,18.148L8.883,18.133L8.916,18.118L8.95,18.104L8.984,18.091L9.019,18.079L9.054,18.067L9.09,18.057L9.125,18.047L9.161,18.038L9.198,18.03L9.235,18.023L9.272,18.017L9.309,18.012L9.347,18.008L9.385,18.004L9.423,18.002L9.461,18L9.5,18L9.539,18ZM9.488,19L9.476,19L9.463,19.001L9.451,19.002L9.438,19.004L9.426,19.006L9.413,19.008L9.401,19.01L9.388,19.013L9.376,19.016L9.364,19.019L9.351,19.023L9.339,19.027L9.327,19.031L9.316,19.035L9.304,19.04L9.293,19.045L9.281,19.05L9.27,19.056L9.26,19.061L9.249,19.067L9.239,19.074L9.228,19.08L9.218,19.086L9.209,19.093L9.199,19.1L9.19,19.107L9.181,19.115L9.172,19.122L9.163,19.13L9.154,19.138L9.146,19.146L9.138,19.154L9.13,19.163L9.122,19.172L9.115,19.181L9.107,19.19L9.1,19.199L9.093,19.209L9.086,19.218L9.08,19.228L9.074,19.239L9.067,19.249L9.061,19.26L9.056,19.27L9.05,19.281L9.045,19.293L9.04,19.304L9.035,19.316L9.031,19.327L9.027,19.339L9.023,19.351L9.019,19.364L9.016,19.376L9.013,19.388L9.01,19.401L9.008,19.413L9.006,19.426L9.004,19.438L9.002,19.451L9.001,19.463L9,19.476L9,19.488L9,19.5L9,19.512L9,19.524L9.001,19.537L9.002,19.549L9.004,19.562L9.006,19.574L9.008,19.587L9.01,19.599L9.013,19.612L9.016,19.624L9.019,19.636L9.023,19.649L9.027,19.661L9.031,19.673L9.035,19.684L9.04,19.696L9.045,19.707L9.05,19.719L9.056,19.73L9.061,19.74L9.067,19.751L9.074,19.761L9.08,19.772L9.086,19.782L9.093,19.791L9.1,19.801L9.107,19.81L9.115,19.819L9.122,19.828L9.13,19.837L9.138,19.846L9.146,19.854L9.154,19.862L9.163,19.87L9.172,19.878L9.181,19.885L9.19,19.893L9.199,19.9L9.209,19.907L9.218,19.914L9.228,19.92L9.239,19.926L9.249,19.933L9.26,19.939L9.27,19.944L9.281,19.95L9.293,19.955L9.304,19.96L9.316,19.965L9.327,19.969L9.339,19.973L9.351,19.977L9.364,19.981L9.376,19.984L9.388,19.987L9.401,19.99L9.413,19.992L9.426,19.994L9.438,19.996L9.451,19.998L9.463,19.999L9.476,20L9.488,20L9.5,20L9.512,20L9.524,20L9.537,19.999L9.549,19.998L9.562,19.996L9.574,19.994L9.587,19.992L9.599,19.99L9.612,19.987L9.624,19.984L9.636,19.981L9.649,19.977L9.661,19.973L9.673,19.969L9.684,19.965L9.696,19.96L9.707,19.955L9.719,19.95L9.73,19.944L9.74,19.939L9.751,19.933L9.761,19.926L9.772,19.92L9.782,19.914L9.791,19.907L9.801,19.9L9.81,19.893L9.819,19.885L9.828,19.878L9.837,19.87L9.846,19.862L9.854,19.854L9.862,19.846L9.87,19.837L9.878,19.828L9.885,19.819L9.893,19.81L9.9,19.801L9.907,19.791L9.914,19.782L9.92,19.772L9.926,19.761L9.933,19.751L9.939,19.74L9.944,19.73L9.95,19.719L9.955,19.707L9.96,19.696L9.965,19.684L9.969,19.673L9.973,19.661L9.977,19.649L9.981,19.636L9.984,19.624L9.987,19.612L9.99,19.599L9.992,19.587L9.994,19.574L9.996,19.562L9.998,19.549L9.999,19.537L10,19.524L10,19.512L10,19.5L10,19.488L10,19.476L9.999,19.463L9.998,19.451L9.996,19.438L9.994,19.426L9.992,19.413L9.99,19.401L9.987,19.388L9.984,19.376L9.981,19.364L9.977,19.351L9.973,19.339L9.969,19.327L9.965,19.316L9.96,19.304L9.955,19.293L9.95,19.281L9.944,19.27L9.939,19.26L9.933,19.249L9.926,19.239L9.92,19.228L9.914,19.218L9.907,19.209L9.9,19.199L9.893,19.19L9.885,19.181L9.878,19.172L9.87,19.163L9.862,19.154L9.854,19.146L9.846,19.138L9.837,19.13L9.828,19.122L9.819,19.115L9.81,19.107L9.801,19.1L9.791,19.093L9.782,19.086L9.772,19.08L9.761,19.074L9.751,19.067L9.74,19.061L9.73,19.056L9.719,19.05L9.707,19.045L9.696,19.04L9.684,19.035L9.673,19.031L9.661,19.027L9.649,19.023L9.636,19.019L9.624,19.016L9.612,19.013L9.599,19.01L9.587,19.008L9.574,19.006L9.562,19.004L9.549,19.002L9.537,19.001L9.524,19L9.512,19L9.5,19L9.488,19Z"/>
        <path d="M22.539,18L22.577,18.002L22.615,18.004L22.653,18.008L22.691,18.012L22.728,18.017L22.765,18.023L22.802,18.03L22.839,18.038L22.875,18.047L22.91,18.057L22.946,18.067L22.981,18.079L23.016,18.091L23.05,18.104L23.084,18.118L23.117,18.133L23.15,18.148L23.183,18.164L23.215,18.181L23.246,18.199L23.278,18.217L23.308,18.236L23.338,18.256L23.368,18.277L23.397,18.298L23.426,18.32L23.454,18.343L23.481,18.366L23.508,18.39L23.535,18.414L23.56,18.44L23.586,18.465L23.61,18.492L23.634,18.519L23.657,18.546L23.68,18.574L23.702,18.603L23.723,18.632L23.744,18.662L23.764,18.692L23.783,18.722L23.801,18.754L23.819,18.785L23.836,18.817L23.852,18.85L23.867,18.883L23.882,18.916L23.896,18.95L23.909,18.984L23.921,19.019L23.933,19.054L23.943,19.09L23.953,19.125L23.962,19.161L23.97,19.198L23.977,19.235L23.983,19.272L23.988,19.309L23.992,19.347L23.996,19.385L23.998,19.423L24,19.461L24,19.5L24,19.539L23.998,19.577L23.996,19.615L23.992,19.653L23.988,19.691L23.983,19.728L23.977,19.765L23.97,19.802L23.962,19.839L23.953,19.875L23.943,19.91L23.933,19.946L23.921,19.981L23.909,20.016L23.896,20.05L23.882,20.084L23.867,20.117L23.852,20.15L23.836,20.183L23.819,20.215L23.801,20.246L23.783,20.278L23.764,20.308L23.744,20.338L23.723,20.368L23.702,20.397L23.68,20.426L23.657,20.454L23.634,20.481L23.61,20.508L23.586,20.535L23.56,20.56L23.535,20.586L23.508,20.61L23.481,20.634L23.454,20.657L23.426,20.68L23.397,20.702L23.368,20.723L23.338,20.744L23.308,20.764L23.278,20.783L23.246,20.801L23.215,20.819L23.183,20.836L23.15,20.852L23.117,20.867L23.084,20.882L23.05,20.896L23.016,20.909L22.981,20.921L22.946,20.933L22.91,20.943L22.875,20.953L22.839,20.962L22.802,20.97L22.765,20.977L22.728,20.983L22.691,20.988L22.653,20.992L22.615,20.996L22.577,20.998L22.539,21L22.5,21L22.461,21L22.423,20.998L22.385,20.996L22.347,20.992L22.309,20.988L22.272,20.983L22.235,20.977L22.198,20.97L22.161,20.962L22.125,20.953L22.09,20.943L22.054,20.933L22.019,20.921L21.984,20.909L21.95,20.896L21.916,20.882L21.883,20.867L21.85,20.852L21.817,20.836L21.785,20.819L21.754,20.801L21.722,20.783L21.692,20.764L21.662,20.744L21.632,20.723L21.603,20.702L21.574,20.68L21.546,20.657L21.519,20.634L21.492,20.61L21.465,20.586L21.44,20.56L21.414,20.535L21.39,20.508L21.366,20.481L21.343,20.454L21.32,20.426L21.298,20.397L21.277,20.368L21.256,20.338L21.236,20.308L21.217,20.278L21.199,20.246L21.181,20.215L21.164,20.183L21.148,20.15L21.133,20.117L21.118,20.084L21.104,20.05L21.091,20.016L21.079,19.981L21.067,19.946L21.057,19.91L21.047,19.875L21.038,19.839L21.03,19.802L21.023,19.765L21.017,19.728L21.012,19.691L21.008,19.653L21.004,19.615L21.002,19.577L21,19.539L21,19.5L21,19.461L21.002,19.423L21.004,19.385L21.008,19.347L21.012,19.309L21.017,19.272L21.023,19.235L21.03,19.198L21.038,19.161L21.047,19.125L21.057,19.09L21.067,19.054L21.079,19.019L21.091,18.984L21.104,18.95L21.118,18.916L21.133,18.883L21.148,18.85L21.164,18.817L21.181,18.785L21.199,18.754L21.217,18.722L21.236,18.692L21.256,18.662L21.277,18.632L21.298,18.603L21.32,18.574L21.343,18.546L21.366,18.519L21.39,18.492L21.414,18.465L21.44,18.44L21.465,18.414L21.492,18.39L21.519,18.366L21.546,18.343L21.574,18.32L21.603,18.298L21.632,18.277L21.662,18.256L21.692,18.236L21.722,18.217L21.754,18.199L21.785,18.181L21.817,18.164L21.85,18.148L21.883,18.133L21.916,18.118L21.95,18.104L21.984,18.091L22.019,18.079L22.054,18.067L22.09,18.057L22.125,18.047L22.161,18.038L22.198,18.03L22.235,18.023L22.272,18.017L22.309,18.012L22.347,18.008L22.385,18.004L22.423,18.002L22.461,18L22.5,18L22.539,18ZM22.488,19L22.476,19L22.463,19.001L22.451,19.002L22.438,19.004L22.426,19.006L22.413,19.008L22.401,19.01L22.388,19.013L22.376,19.016L22.364,19.019L22.351,19.023L22.339,19.027L22.327,19.031L22.316,19.035L22.304,19.04L22.293,19.045L22.281,19.05L22.27,19.056L22.26,19.061L22.249,19.067L22.239,19.074L22.228,19.08L22.218,19.087L22.209,19.093L22.199,19.1L22.19,19.107L22.181,19.115L22.172,19.122L22.163,19.13L22.154,19.138L22.146,19.146L22.138,19.154L22.13,19.163L22.122,19.172L22.115,19.181L22.107,19.19L22.1,19.199L22.093,19.209L22.087,19.218L22.08,19.228L22.074,19.239L22.067,19.249L22.061,19.26L22.056,19.27L22.05,19.281L22.045,19.293L22.04,19.304L22.035,19.316L22.031,19.327L22.027,19.339L22.023,19.351L22.019,19.364L22.016,19.376L22.013,19.388L22.01,19.401L22.008,19.413L22.006,19.426L22.004,19.438L22.002,19.451L22.001,19.463L22,19.476L22,19.488L22,19.5L22,19.512L22,19.524L22.001,19.537L22.002,19.549L22.004,19.562L22.006,19.574L22.008,19.587L22.01,19.599L22.013,19.612L22.016,19.624L22.019,19.636L22.023,19.649L22.027,19.661L22.031,19.673L22.035,19.684L22.04,19.696L22.045,19.707L22.05,19.719L22.056,19.73L22.061,19.74L22.067,19.751L22.074,19.761L22.08,19.772L22.087,19.782L22.093,19.791L22.1,19.801L22.107,19.81L22.115,19.819L22.122,19.828L22.13,19.837L22.138,19.846L22.146,19.854L22.154,19.862L22.163,19.87L22.172,19.878L22.181,19.885L22.19,19.893L22.199,19.9L22.209,19.907L22.218,19.914L22.228,19.92L22.239,19.926L22.249,19.933L22.26,19.939L22.27,19.944L22.281,19.95L22.293,19.955L22.304,19.96L22.316,19.965L22.327,19.969L22.339,19.973L22.351,19.977L22.364,19.981L22.376,19.984L22.388,19.987L22.401,19.99L22.413,19.992L22.426,19.994L22.438,19.996L22.451,19.998L22.463,19.999L22.476,20L22.488,20L22.5,20L22.512,20L22.524,20L22.537,19.999L22.549,19.998L22.562,19.996L22.574,19.994L22.587,19.992L22.599,19.99L22.612,19.987L22.624,19.984L22.636,19.981L22.649,19.977L22.661,19.973L22.673,19.969L22.684,19.965L22.696,19.96L22.707,19.955L22.719,19.95L22.73,19.944L22.74,19.939L22.751,19.933L22.761,19.926L22.772,19.92L22.782,19.914L22.791,19.907L22.801,19.9L22.81,19.893L22.819,19.885L22.828,19.878L22.837,19.87L22.846,19.862L22.854,19.854L22.862,19.846L22.87,19.837L22.878,19.828L22.885,19.819L22.893,19.81L22.9,19.801L22.907,19.791L22.913,19.782L22.92,19.772L22.926,19.761L22.933,19.751L22.939,19.74L22.944,19.73L22.95,19.719L22.955,19.707L22.96,19.696L22.965,19.684L22.969,19.673L22.973,19.661L22.977,19.649L22.981,19.636L22.984,19.624L22.987,19.612L22.99,19.599L22.992,19.587L22.994,19.574L22.996,19.562L22.998,19.549L22.999,19.537L23,19.524L23,19.512L23,19.5L23,19.488L23,19.476L22.999,19.463L22.998,19.451L22.996,19.438L22.994,19.426L22.992,19.413L22.99,19.401L22.987,19.388L22.984,19.376L22.981,19.364L22.977,19.351L22.973,19.339L22.969,19.327L22.965,19.316L22.96,19.304L22.955,19.293L22.95,19.281L22.944,19.27L22.939,19.26L22.933,19.249L22.926,19.239L22.92,19.228L22.913,19.218L22.907,19.209L22.9,19.199L22.893,19.19L22.885,19.181L22.878,19.172L22.87,19.163L22.862,19.154L22.854,19.146L22.846,19.138L22.837,19.13L22.828,19.122L22.819,19.115L22.81,19.107L22.801,19.1L22.791,19.093L22.782,19.087L22.772,19.08L22.761,19.074L22.751,19.067L22.74,19.061L22.73,19.056L22.719,19.05L22.707,19.045L22.696,19.04L22.684,19.035L22.673,19.031L22.661,19.027L22.649,19.023L22.636,19.019L22.624,19.016L22.612,19.013L22.599,19.01L22.587,19.008L22.574,19.006L22.562,19.004L22.549,19.002L22.537,19.001L22.524,19L22.512,19L22.5,19L22.488,19Z"/>
    </g>
</svg>
