<?xml version="1.0" encoding="UTF-8" standalone="no"?>
<!DOCTYPE svg PUBLIC "-//W3C//DTD SVG 1.1//EN" "http://www.w3.org/Graphics/SVG/1.1/DTD/svg11.dtd">
<svg width="100%" height="100%" viewBox="0 0 32 32" version="1.1" xmlns="http://www.w3.org/2000/svg" xmlns:xlink="http://www.w3.org/1999/xlink" xml:space="preserve" xmlns:serif="http://www.serif.com/" style="fill-rule:evenodd;clip-rule:evenodd;stroke-linejoin:round;stroke-miterlimit:1.41421;">
    <g id="Main">
        <path d="M32,26L0,26L0,6L32,6L32,26ZM2,8L2,24L30,24L30,8L2,8Z"/>
        <rect x="1" y="10" width="30" height="2"/>
        <rect x="1" y="20" width="30" height="2"/>
        <rect x="5" y="7" width="2" height="4"/>
        <rect x="10" y="7" width="2" height="4"/>
        <rect x="15" y="7" width="2" height="4"/>
        <rect x="20" y="7" width="2" height="4"/>
        <rect x="25" y="7" width="2" height="4"/>
        <rect x="5" y="21" width="2" height="4"/>
        <rect x="10" y="21" width="2" height="4"/>
        <rect x="15" y="21" width="2" height="4"/>
        <rect x="20" y="21" width="2" height="4"/>
        <rect x="25" y="21" width="2" height="4"/>
    </g>
</svg>
