<?xml version="1.0" encoding="UTF-8" standalone="no"?>
<!DOCTYPE svg PUBLIC "-//W3C//DTD SVG 1.1//EN" "http://www.w3.org/Graphics/SVG/1.1/DTD/svg11.dtd">
<svg width="100%" height="100%" viewBox="0 0 32 32" version="1.1" xmlns="http://www.w3.org/2000/svg" xmlns:xlink="http://www.w3.org/1999/xlink" xml:space="preserve" xmlns:serif="http://www.serif.com/" style="fill-rule:evenodd;clip-rule:evenodd;stroke-linejoin:round;stroke-miterlimit:1.41421;">
    <g id="Main">
        <clipPath id="_clip1">
            <path d="M31,31L1,31L1,1L31,1L31,31ZM31,10.509L25,10L25.107,13.857L31,12.92L31,10.509ZM7,10L1,10.509L1,12.92L7,14L7,10Z"/>
        </clipPath>
        <g clip-path="url(#_clip1)">
            <path d="M16.194,1.001L16.387,1.005L16.579,1.011L16.771,1.02L16.963,1.03L17.153,1.044L17.343,1.059L17.533,1.078L17.721,1.098L17.909,1.121L18.097,1.146L18.283,1.173L18.469,1.203L18.654,1.234L18.838,1.269L19.021,1.305L19.204,1.344L19.386,1.384L19.567,1.427L19.747,1.473L19.926,1.52L20.104,1.569L20.282,1.621L20.458,1.675L20.634,1.731L20.809,1.789L20.983,1.849L21.155,1.911L21.327,1.975L21.498,2.041L21.668,2.109L21.836,2.18L22.004,2.252L22.171,2.326L22.336,2.402L22.501,2.48L22.664,2.56L22.826,2.642L22.987,2.726L23.147,2.812L23.306,2.899L23.464,2.989L23.62,3.08L23.776,3.173L23.93,3.268L24.082,3.364L24.234,3.463L24.384,3.563L24.533,3.665L24.681,3.769L24.827,3.874L24.972,3.982L25.116,4.09L25.258,4.201L25.399,4.313L25.539,4.427L25.677,4.543L25.814,4.66L25.95,4.778L26.083,4.899L26.216,5.021L26.347,5.144L26.476,5.269L26.605,5.395L26.731,5.524L26.856,5.653L26.979,5.784L27.101,5.917L27.222,6.05L27.34,6.186L27.457,6.323L27.573,6.461L27.687,6.601L27.799,6.742L27.91,6.884L28.018,7.028L28.126,7.173L28.231,7.319L28.335,7.467L28.437,7.616L28.537,7.766L28.636,7.918L28.732,8.07L28.827,8.224L28.92,8.38L29.011,8.536L29.101,8.694L29.188,8.853L29.274,9.013L29.358,9.174L29.44,9.336L29.52,9.499L29.598,9.664L29.674,9.829L29.748,9.996L29.82,10.164L29.891,10.332L29.959,10.502L30.025,10.673L30.089,10.845L30.151,11.017L30.211,11.191L30.269,11.366L30.325,11.542L30.379,11.718L30.431,11.896L30.48,12.074L30.527,12.253L30.573,12.433L30.616,12.614L30.656,12.796L30.695,12.979L30.731,13.162L30.766,13.346L30.797,13.531L30.827,13.717L30.854,13.903L30.879,14.091L30.902,14.279L30.922,14.467L30.941,14.657L30.956,14.847L30.97,15.037L30.98,15.229L30.989,15.421L30.995,15.613L30.999,15.806L31,16L30.999,16.194L30.995,16.387L30.989,16.579L30.98,16.771L30.97,16.963L30.956,17.153L30.941,17.343L30.922,17.533L30.902,17.721L30.879,17.909L30.854,18.097L30.827,18.283L30.797,18.469L30.766,18.654L30.731,18.838L30.695,19.021L30.656,19.204L30.616,19.386L30.573,19.567L30.527,19.747L30.48,19.926L30.431,20.104L30.379,20.282L30.325,20.458L30.269,20.634L30.211,20.809L30.151,20.983L30.089,21.155L30.025,21.327L29.959,21.498L29.891,21.668L29.82,21.836L29.748,22.004L29.674,22.171L29.598,22.336L29.52,22.501L29.44,22.664L29.358,22.826L29.274,22.987L29.188,23.147L29.101,23.306L29.011,23.464L28.92,23.62L28.827,23.776L28.732,23.93L28.636,24.082L28.537,24.234L28.437,24.384L28.335,24.533L28.231,24.681L28.126,24.827L28.018,24.972L27.91,25.116L27.799,25.258L27.687,25.399L27.573,25.539L27.457,25.677L27.34,25.814L27.222,25.95L27.101,26.083L26.979,26.216L26.856,26.347L26.731,26.476L26.605,26.605L26.476,26.731L26.347,26.856L26.216,26.979L26.083,27.101L25.95,27.222L25.814,27.34L25.677,27.457L25.539,27.573L25.399,27.687L25.258,27.799L25.116,27.91L24.972,28.018L24.827,28.126L24.681,28.231L24.533,28.335L24.384,28.437L24.234,28.537L24.082,28.636L23.93,28.732L23.776,28.827L23.62,28.92L23.464,29.011L23.306,29.101L23.147,29.188L22.987,29.274L22.826,29.358L22.664,29.44L22.501,29.52L22.336,29.598L22.171,29.674L22.004,29.748L21.836,29.82L21.668,29.891L21.498,29.959L21.327,30.025L21.155,30.089L20.983,30.151L20.809,30.211L20.634,30.269L20.458,30.325L20.282,30.379L20.104,30.431L19.926,30.48L19.747,30.527L19.567,30.573L19.386,30.616L19.204,30.656L19.021,30.695L18.838,30.731L18.654,30.766L18.469,30.797L18.283,30.827L18.097,30.854L17.909,30.879L17.721,30.902L17.533,30.922L17.343,30.941L17.153,30.956L16.963,30.97L16.771,30.98L16.579,30.989L16.387,30.995L16.194,30.999L16,31L15.806,30.999L15.613,30.995L15.421,30.989L15.229,30.98L15.037,30.97L14.847,30.956L14.657,30.941L14.467,30.922L14.279,30.902L14.091,30.879L13.903,30.854L13.717,30.827L13.531,30.797L13.346,30.766L13.162,30.731L12.979,30.695L12.796,30.656L12.614,30.616L12.433,30.573L12.253,30.527L12.074,30.48L11.896,30.431L11.718,30.379L11.542,30.325L11.366,30.269L11.191,30.211L11.017,30.151L10.845,30.089L10.673,30.025L10.502,29.959L10.332,29.891L10.164,29.82L9.996,29.748L9.829,29.674L9.664,29.598L9.499,29.52L9.336,29.44L9.174,29.358L9.013,29.274L8.853,29.188L8.694,29.101L8.536,29.011L8.38,28.92L8.224,28.827L8.07,28.732L7.918,28.636L7.766,28.537L7.616,28.437L7.467,28.335L7.319,28.231L7.173,28.126L7.028,28.018L6.884,27.91L6.742,27.799L6.601,27.687L6.461,27.573L6.323,27.457L6.186,27.34L6.05,27.222L5.917,27.101L5.784,26.979L5.653,26.856L5.524,26.731L5.395,26.605L5.269,26.476L5.144,26.347L5.021,26.216L4.899,26.083L4.778,25.95L4.66,25.814L4.543,25.677L4.427,25.539L4.313,25.399L4.201,25.258L4.09,25.116L3.982,24.972L3.874,24.827L3.769,24.681L3.665,24.533L3.563,24.384L3.463,24.234L3.364,24.082L3.268,23.93L3.173,23.776L3.08,23.62L2.989,23.464L2.899,23.306L2.812,23.147L2.726,22.987L2.642,22.826L2.56,22.664L2.48,22.501L2.402,22.336L2.326,22.171L2.252,22.004L2.18,21.836L2.109,21.668L2.041,21.498L1.975,21.327L1.911,21.155L1.849,20.983L1.789,20.809L1.731,20.634L1.675,20.458L1.621,20.282L1.569,20.104L1.52,19.926L1.473,19.747L1.427,19.567L1.384,19.386L1.344,19.204L1.305,19.021L1.269,18.838L1.234,18.654L1.203,18.469L1.173,18.283L1.146,18.097L1.121,17.909L1.098,17.721L1.078,17.533L1.059,17.343L1.044,17.153L1.03,16.963L1.02,16.771L1.011,16.579L1.005,16.387L1.001,16.194L1,16L1.001,15.806L1.005,15.613L1.011,15.421L1.02,15.229L1.03,15.037L1.044,14.847L1.059,14.657L1.078,14.467L1.098,14.279L1.121,14.091L1.146,13.903L1.173,13.717L1.203,13.531L1.234,13.346L1.269,13.162L1.305,12.979L1.344,12.796L1.384,12.614L1.427,12.433L1.473,12.253L1.52,12.074L1.569,11.896L1.621,11.718L1.675,11.542L1.731,11.366L1.789,11.191L1.849,11.017L1.911,10.845L1.975,10.673L2.041,10.502L2.109,10.332L2.18,10.164L2.252,9.996L2.326,9.829L2.402,9.664L2.48,9.499L2.56,9.336L2.642,9.174L2.726,9.013L2.812,8.853L2.899,8.694L2.989,8.536L3.08,8.38L3.173,8.224L3.268,8.07L3.364,7.918L3.463,7.766L3.563,7.616L3.665,7.467L3.769,7.319L3.874,7.173L3.982,7.028L4.09,6.884L4.201,6.742L4.313,6.601L4.427,6.461L4.543,6.323L4.66,6.186L4.778,6.05L4.899,5.917L5.021,5.784L5.144,5.653L5.269,5.524L5.395,5.395L5.524,5.269L5.653,5.144L5.784,5.021L5.917,4.899L6.05,4.778L6.186,4.66L6.323,4.543L6.461,4.427L6.601,4.313L6.742,4.201L6.884,4.09L7.028,3.982L7.173,3.874L7.319,3.769L7.467,3.665L7.616,3.563L7.766,3.463L7.918,3.364L8.07,3.268L8.224,3.173L8.38,3.08L8.536,2.989L8.694,2.899L8.853,2.812L9.013,2.726L9.174,2.642L9.336,2.56L9.499,2.48L9.664,2.402L9.829,2.326L9.996,2.252L10.164,2.18L10.332,2.109L10.502,2.041L10.673,1.975L10.845,1.911L11.017,1.849L11.191,1.789L11.366,1.731L11.542,1.675L11.718,1.621L11.896,1.569L12.074,1.52L12.253,1.473L12.433,1.427L12.614,1.384L12.796,1.344L12.979,1.305L13.162,1.269L13.346,1.234L13.531,1.203L13.717,1.173L13.903,1.146L14.091,1.121L14.279,1.098L14.467,1.078L14.657,1.059L14.847,1.044L15.037,1.03L15.229,1.02L15.421,1.011L15.613,1.005L15.806,1.001L16,1L16.194,1.001ZM15.832,3.001L15.664,3.004L15.497,3.01L15.33,3.017L15.164,3.026L14.999,3.038L14.834,3.052L14.67,3.067L14.506,3.085L14.343,3.105L14.181,3.126L14.019,3.15L13.858,3.176L13.698,3.203L13.539,3.233L13.38,3.264L13.222,3.298L13.064,3.333L12.908,3.37L12.752,3.409L12.597,3.45L12.442,3.493L12.289,3.538L12.136,3.584L11.984,3.633L11.833,3.683L11.682,3.735L11.533,3.789L11.384,3.844L11.236,3.902L11.089,3.961L10.943,4.021L10.798,4.084L10.654,4.148L10.51,4.214L10.368,4.282L10.226,4.351L10.086,4.422L9.946,4.495L9.808,4.569L9.67,4.645L9.533,4.722L9.398,4.801L9.263,4.882L9.13,4.964L8.997,5.048L8.866,5.133L8.736,5.22L8.607,5.309L8.478,5.399L8.351,5.49L8.226,5.583L8.101,5.678L7.978,5.773L7.855,5.871L7.734,5.97L7.614,6.07L7.495,6.171L7.378,6.274L7.262,6.379L7.147,6.484L7.033,6.592L6.921,6.7L6.81,6.81L6.7,6.921L6.592,7.033L6.484,7.147L6.379,7.262L6.274,7.378L6.171,7.495L6.07,7.614L5.97,7.734L5.871,7.855L5.773,7.978L5.678,8.101L5.583,8.226L5.49,8.351L5.399,8.478L5.309,8.607L5.22,8.736L5.133,8.866L5.048,8.997L4.964,9.13L4.882,9.263L4.801,9.398L4.722,9.533L4.645,9.67L4.569,9.808L4.495,9.946L4.422,10.086L4.351,10.226L4.282,10.368L4.214,10.51L4.148,10.654L4.084,10.798L4.021,10.943L3.961,11.089L3.902,11.236L3.844,11.384L3.789,11.533L3.735,11.682L3.683,11.833L3.633,11.984L3.584,12.136L3.538,12.289L3.493,12.442L3.45,12.597L3.409,12.752L3.37,12.908L3.333,13.064L3.298,13.222L3.264,13.38L3.233,13.539L3.203,13.698L3.176,13.858L3.15,14.019L3.126,14.181L3.105,14.343L3.085,14.506L3.067,14.67L3.052,14.834L3.038,14.999L3.026,15.164L3.017,15.33L3.01,15.497L3.004,15.664L3.001,15.832L3,16L3.001,16.168L3.004,16.336L3.01,16.503L3.017,16.67L3.026,16.836L3.038,17.001L3.052,17.166L3.067,17.33L3.085,17.494L3.105,17.657L3.126,17.819L3.15,17.981L3.176,18.142L3.203,18.302L3.233,18.461L3.264,18.62L3.298,18.778L3.333,18.936L3.37,19.092L3.409,19.248L3.45,19.403L3.493,19.558L3.538,19.711L3.584,19.864L3.633,20.016L3.683,20.167L3.735,20.318L3.789,20.467L3.844,20.616L3.902,20.764L3.961,20.911L4.021,21.057L4.084,21.202L4.148,21.346L4.214,21.49L4.282,21.632L4.351,21.774L4.422,21.914L4.495,22.054L4.569,22.192L4.645,22.33L4.722,22.467L4.801,22.602L4.882,22.737L4.964,22.87L5.048,23.003L5.133,23.134L5.22,23.264L5.309,23.393L5.399,23.522L5.49,23.649L5.583,23.774L5.678,23.899L5.773,24.022L5.871,24.145L5.97,24.266L6.07,24.386L6.171,24.505L6.274,24.622L6.379,24.738L6.484,24.853L6.592,24.967L6.7,25.079L6.81,25.19L6.921,25.3L7.033,25.408L7.147,25.516L7.262,25.621L7.378,25.726L7.495,25.829L7.614,25.93L7.734,26.03L7.855,26.129L7.978,26.227L8.101,26.322L8.226,26.417L8.351,26.51L8.478,26.601L8.607,26.691L8.736,26.78L8.866,26.867L8.997,26.952L9.13,27.036L9.263,27.118L9.398,27.199L9.533,27.278L9.67,27.355L9.808,27.431L9.946,27.505L10.086,27.578L10.226,27.649L10.368,27.718L10.51,27.786L10.654,27.852L10.798,27.916L10.943,27.979L11.089,28.039L11.236,28.098L11.384,28.156L11.533,28.211L11.682,28.265L11.833,28.317L11.984,28.367L12.136,28.416L12.289,28.462L12.442,28.507L12.597,28.55L12.752,28.591L12.908,28.63L13.064,28.667L13.222,28.702L13.38,28.736L13.539,28.767L13.698,28.797L13.858,28.824L14.019,28.85L14.181,28.874L14.343,28.895L14.506,28.915L14.67,28.933L14.834,28.948L14.999,28.962L15.164,28.974L15.33,28.983L15.497,28.99L15.664,28.996L15.832,28.999L16,29L16.168,28.999L16.336,28.996L16.503,28.99L16.67,28.983L16.836,28.974L17.001,28.962L17.166,28.948L17.33,28.933L17.494,28.915L17.657,28.895L17.819,28.874L17.981,28.85L18.142,28.824L18.302,28.797L18.461,28.767L18.62,28.736L18.778,28.702L18.936,28.667L19.092,28.63L19.248,28.591L19.403,28.55L19.558,28.507L19.711,28.462L19.864,28.416L20.016,28.367L20.167,28.317L20.318,28.265L20.467,28.211L20.616,28.156L20.764,28.098L20.911,28.039L21.057,27.979L21.202,27.916L21.346,27.852L21.49,27.786L21.632,27.718L21.774,27.649L21.914,27.578L22.054,27.505L22.192,27.431L22.33,27.355L22.467,27.278L22.602,27.199L22.737,27.118L22.87,27.036L23.003,26.952L23.134,26.867L23.264,26.78L23.393,26.691L23.522,26.601L23.649,26.51L23.774,26.417L23.899,26.322L24.022,26.227L24.145,26.129L24.266,26.03L24.386,25.93L24.505,25.829L24.622,25.726L24.738,25.621L24.853,25.516L24.967,25.408L25.079,25.3L25.19,25.19L25.3,25.079L25.408,24.967L25.516,24.853L25.621,24.738L25.726,24.622L25.829,24.505L25.93,24.386L26.03,24.266L26.129,24.145L26.227,24.022L26.322,23.899L26.417,23.774L26.51,23.649L26.601,23.522L26.691,23.393L26.78,23.264L26.867,23.134L26.952,23.003L27.036,22.87L27.118,22.737L27.199,22.602L27.278,22.467L27.355,22.33L27.431,22.192L27.505,22.054L27.578,21.914L27.649,21.774L27.718,21.632L27.786,21.49L27.852,21.346L27.916,21.202L27.979,21.057L28.039,20.911L28.098,20.764L28.156,20.616L28.211,20.467L28.265,20.318L28.317,20.167L28.367,20.016L28.416,19.864L28.462,19.711L28.507,19.558L28.55,19.403L28.591,19.248L28.63,19.092L28.667,18.936L28.702,18.778L28.736,18.62L28.767,18.461L28.797,18.302L28.824,18.142L28.85,17.981L28.874,17.819L28.895,17.657L28.915,17.494L28.933,17.33L28.948,17.166L28.962,17.001L28.974,16.836L28.983,16.67L28.99,16.503L28.996,16.336L28.999,16.168L29,16L28.999,15.832L28.996,15.664L28.99,15.497L28.983,15.33L28.974,15.164L28.962,14.999L28.948,14.834L28.933,14.67L28.915,14.506L28.895,14.343L28.874,14.181L28.85,14.019L28.824,13.858L28.797,13.698L28.767,13.539L28.736,13.38L28.702,13.222L28.667,13.064L28.63,12.908L28.591,12.752L28.55,12.597L28.507,12.442L28.462,12.289L28.416,12.136L28.367,11.984L28.317,11.833L28.265,11.682L28.211,11.533L28.156,11.384L28.098,11.236L28.039,11.089L27.979,10.943L27.916,10.798L27.852,10.654L27.786,10.51L27.718,10.368L27.649,10.226L27.578,10.086L27.505,9.946L27.431,9.808L27.355,9.67L27.278,9.533L27.199,9.398L27.118,9.263L27.036,9.13L26.952,8.997L26.867,8.866L26.78,8.736L26.691,8.607L26.601,8.478L26.51,8.351L26.417,8.226L26.322,8.101L26.227,7.978L26.129,7.855L26.03,7.734L25.93,7.614L25.829,7.495L25.726,7.378L25.621,7.262L25.516,7.147L25.408,7.033L25.3,6.921L25.19,6.81L25.079,6.7L24.967,6.592L24.853,6.484L24.738,6.379L24.622,6.274L24.505,6.171L24.386,6.07L24.266,5.97L24.145,5.871L24.022,5.773L23.899,5.678L23.774,5.583L23.649,5.49L23.522,5.399L23.393,5.309L23.264,5.22L23.134,5.133L23.003,5.048L22.87,4.964L22.737,4.882L22.602,4.801L22.467,4.722L22.33,4.645L22.192,4.569L22.054,4.495L21.914,4.422L21.774,4.351L21.632,4.282L21.49,4.214L21.346,4.148L21.202,4.084L21.057,4.021L20.911,3.961L20.764,3.902L20.616,3.844L20.467,3.789L20.318,3.735L20.167,3.683L20.016,3.633L19.864,3.584L19.711,3.538L19.558,3.493L19.403,3.45L19.248,3.409L19.092,3.37L18.936,3.333L18.778,3.298L18.62,3.264L18.461,3.233L18.302,3.203L18.142,3.176L17.981,3.15L17.819,3.126L17.657,3.105L17.494,3.085L17.33,3.067L17.166,3.052L17.001,3.038L16.836,3.026L16.67,3.017L16.503,3.01L16.336,3.004L16.168,3.001L16,3L15.832,3.001Z"/>
        </g>
        <circle cx="4.5" cy="11.5" r="1.5"/>
        <clipPath id="_clip2">
            <path d="M16,16.5L6,23L6,26L26,26L26,23L16,16.5Z"/>
        </clipPath>
        <g clip-path="url(#_clip2)">
            <path d="M16.129,7.001L16.258,7.003L16.386,7.007L16.514,7.012L16.642,7.019L16.769,7.028L16.896,7.038L17.022,7.049L17.148,7.062L17.273,7.076L17.398,7.092L17.522,7.11L17.646,7.128L17.769,7.148L17.892,7.17L18.014,7.193L18.136,7.218L18.257,7.243L18.378,7.271L18.498,7.299L18.617,7.329L18.736,7.361L18.855,7.393L18.972,7.427L19.089,7.463L19.206,7.499L19.322,7.538L19.437,7.577L19.551,7.617L19.665,7.659L19.778,7.703L19.891,7.747L20.003,7.793L20.114,7.84L20.224,7.888L20.334,7.937L20.443,7.988L20.551,8.04L20.658,8.093L20.765,8.147L20.871,8.203L20.976,8.259L21.08,8.317L21.184,8.376L21.286,8.436L21.388,8.498L21.489,8.56L21.589,8.623L21.689,8.688L21.787,8.754L21.885,8.82L21.982,8.888L22.077,8.957L22.172,9.027L22.266,9.098L22.359,9.17L22.452,9.244L22.543,9.318L22.633,9.393L22.722,9.469L22.811,9.546L22.898,9.625L22.984,9.704L23.07,9.784L23.154,9.865L23.237,9.947L23.32,10.03L23.401,10.114L23.481,10.199L23.56,10.284L23.638,10.371L23.715,10.459L23.791,10.547L23.866,10.636L23.94,10.726L24.012,10.818L24.084,10.909L24.154,11.002L24.223,11.096L24.291,11.19L24.358,11.285L24.424,11.381L24.488,11.478L24.551,11.575L24.613,11.674L24.674,11.773L24.734,11.873L24.792,11.973L24.849,12.075L24.905,12.177L24.96,12.279L25.013,12.383L25.065,12.487L25.116,12.592L25.166,12.697L25.214,12.804L25.26,12.911L25.306,13.018L25.35,13.126L25.393,13.235L25.434,13.344L25.474,13.454L25.513,13.565L25.55,13.676L25.586,13.788L25.62,13.901L25.653,14.013L25.685,14.127L25.715,14.241L25.744,14.356L25.771,14.471L25.797,14.586L25.821,14.703L25.844,14.819L25.865,14.936L25.885,15.054L25.903,15.172L25.92,15.291L25.935,15.41L25.948,15.529L25.96,15.649L25.971,15.77L25.98,15.89L25.987,16.011L25.993,16.133L25.997,16.255L25.999,16.377L26,16.5L25.999,16.623L25.997,16.745L25.993,16.867L25.987,16.989L25.98,17.11L25.971,17.23L25.96,17.351L25.948,17.471L25.935,17.59L25.92,17.709L25.903,17.828L25.885,17.946L25.865,18.064L25.844,18.181L25.821,18.297L25.797,18.414L25.771,18.529L25.744,18.644L25.715,18.759L25.685,18.873L25.653,18.987L25.62,19.099L25.586,19.212L25.55,19.324L25.513,19.435L25.474,19.546L25.434,19.656L25.393,19.765L25.35,19.874L25.306,19.982L25.26,20.089L25.214,20.196L25.166,20.303L25.116,20.408L25.065,20.513L25.013,20.617L24.96,20.721L24.905,20.823L24.849,20.925L24.792,21.027L24.734,21.127L24.674,21.227L24.613,21.326L24.551,21.425L24.488,21.522L24.424,21.619L24.358,21.715L24.291,21.81L24.223,21.904L24.154,21.998L24.084,22.091L24.012,22.182L23.94,22.274L23.866,22.364L23.791,22.453L23.715,22.541L23.638,22.629L23.56,22.716L23.481,22.801L23.401,22.886L23.32,22.97L23.237,23.053L23.154,23.135L23.07,23.216L22.984,23.296L22.898,23.375L22.811,23.454L22.722,23.531L22.633,23.607L22.543,23.682L22.452,23.756L22.359,23.83L22.266,23.902L22.172,23.973L22.077,24.043L21.982,24.112L21.885,24.18L21.787,24.246L21.689,24.312L21.589,24.377L21.489,24.44L21.388,24.502L21.286,24.564L21.184,24.624L21.08,24.683L20.976,24.741L20.871,24.797L20.765,24.853L20.658,24.907L20.551,24.96L20.443,25.012L20.334,25.063L20.224,25.112L20.114,25.16L20.003,25.207L19.891,25.253L19.778,25.297L19.665,25.341L19.551,25.383L19.437,25.423L19.322,25.462L19.206,25.501L19.089,25.537L18.972,25.573L18.855,25.607L18.736,25.639L18.617,25.671L18.498,25.701L18.378,25.729L18.257,25.757L18.136,25.782L18.014,25.807L17.892,25.83L17.769,25.852L17.646,25.872L17.522,25.89L17.398,25.908L17.273,25.924L17.148,25.938L17.022,25.951L16.896,25.962L16.769,25.972L16.642,25.981L16.514,25.988L16.386,25.993L16.258,25.997L16.129,25.999L16,26L15.871,25.999L15.742,25.997L15.614,25.993L15.486,25.988L15.358,25.981L15.231,25.972L15.104,25.962L14.978,25.951L14.852,25.938L14.727,25.924L14.602,25.908L14.478,25.89L14.354,25.872L14.231,25.852L14.108,25.83L13.986,25.807L13.864,25.782L13.743,25.757L13.622,25.729L13.502,25.701L13.383,25.671L13.264,25.639L13.145,25.607L13.028,25.573L12.911,25.537L12.794,25.501L12.678,25.462L12.563,25.423L12.449,25.383L12.335,25.341L12.222,25.297L12.109,25.253L11.997,25.207L11.886,25.16L11.776,25.112L11.666,25.063L11.557,25.012L11.449,24.96L11.342,24.907L11.235,24.853L11.129,24.797L11.024,24.741L10.92,24.683L10.816,24.624L10.714,24.564L10.612,24.502L10.511,24.44L10.411,24.377L10.311,24.312L10.213,24.246L10.115,24.18L10.018,24.112L9.923,24.043L9.828,23.973L9.734,23.902L9.641,23.83L9.548,23.756L9.457,23.682L9.367,23.607L9.278,23.531L9.189,23.454L9.102,23.375L9.016,23.296L8.93,23.216L8.846,23.135L8.763,23.053L8.68,22.97L8.599,22.886L8.519,22.801L8.44,22.716L8.362,22.629L8.285,22.541L8.209,22.453L8.134,22.364L8.06,22.274L7.988,22.182L7.916,22.091L7.846,21.998L7.777,21.904L7.709,21.81L7.642,21.715L7.576,21.619L7.512,21.522L7.449,21.425L7.387,21.326L7.326,21.227L7.266,21.127L7.208,21.027L7.151,20.925L7.095,20.823L7.04,20.721L6.987,20.617L6.935,20.513L6.884,20.408L6.834,20.303L6.786,20.196L6.74,20.089L6.694,19.982L6.65,19.874L6.607,19.765L6.566,19.656L6.526,19.546L6.487,19.435L6.45,19.324L6.414,19.212L6.38,19.099L6.347,18.987L6.315,18.873L6.285,18.759L6.256,18.644L6.229,18.529L6.203,18.414L6.179,18.297L6.156,18.181L6.135,18.064L6.115,17.946L6.097,17.828L6.08,17.709L6.065,17.59L6.052,17.471L6.04,17.351L6.029,17.23L6.02,17.11L6.013,16.989L6.007,16.867L6.003,16.745L6.001,16.623L6,16.5L6.001,16.377L6.003,16.255L6.007,16.133L6.013,16.011L6.02,15.89L6.029,15.77L6.04,15.649L6.052,15.529L6.065,15.41L6.08,15.291L6.097,15.172L6.115,15.054L6.135,14.936L6.156,14.819L6.179,14.703L6.203,14.586L6.229,14.471L6.256,14.356L6.285,14.241L6.315,14.127L6.347,14.013L6.38,13.901L6.414,13.788L6.45,13.676L6.487,13.565L6.526,13.454L6.566,13.344L6.607,13.235L6.65,13.126L6.694,13.018L6.74,12.911L6.786,12.804L6.834,12.697L6.884,12.592L6.935,12.487L6.987,12.383L7.04,12.279L7.095,12.177L7.151,12.075L7.208,11.973L7.266,11.873L7.326,11.773L7.387,11.674L7.449,11.575L7.512,11.478L7.576,11.381L7.642,11.285L7.709,11.19L7.777,11.096L7.846,11.002L7.916,10.909L7.988,10.818L8.06,10.726L8.134,10.636L8.209,10.547L8.285,10.459L8.362,10.371L8.44,10.284L8.519,10.199L8.599,10.114L8.68,10.03L8.763,9.947L8.846,9.865L8.93,9.784L9.016,9.704L9.102,9.625L9.189,9.546L9.278,9.469L9.367,9.393L9.457,9.318L9.548,9.244L9.641,9.17L9.734,9.098L9.828,9.027L9.923,8.957L10.018,8.888L10.115,8.82L10.213,8.754L10.311,8.688L10.411,8.623L10.511,8.56L10.612,8.498L10.714,8.436L10.816,8.376L10.92,8.317L11.024,8.259L11.129,8.203L11.235,8.147L11.342,8.093L11.449,8.04L11.557,7.988L11.666,7.937L11.776,7.888L11.886,7.84L11.997,7.793L12.109,7.747L12.222,7.703L12.335,7.659L12.449,7.617L12.563,7.577L12.678,7.538L12.794,7.499L12.911,7.463L13.028,7.427L13.145,7.393L13.264,7.361L13.383,7.329L13.502,7.299L13.622,7.271L13.743,7.243L13.864,7.218L13.986,7.193L14.108,7.17L14.231,7.148L14.354,7.128L14.478,7.11L14.602,7.092L14.727,7.076L14.852,7.062L14.978,7.049L15.104,7.038L15.231,7.028L15.358,7.019L15.486,7.012L15.614,7.007L15.742,7.003L15.871,7.001L16,7L16.129,7.001ZM15.895,9.001L15.79,9.003L15.686,9.006L15.582,9.01L15.479,9.016L15.375,9.023L15.273,9.031L15.17,9.04L15.069,9.05L14.967,9.062L14.866,9.075L14.766,9.089L14.665,9.104L14.566,9.12L14.467,9.138L14.368,9.156L14.269,9.176L14.172,9.197L14.074,9.219L13.977,9.242L13.881,9.266L13.785,9.292L13.69,9.318L13.595,9.345L13.501,9.374L13.407,9.403L13.313,9.434L13.221,9.466L13.128,9.498L13.037,9.532L12.946,9.567L12.855,9.603L12.765,9.639L12.676,9.677L12.587,9.716L12.499,9.756L12.412,9.796L12.325,9.838L12.238,9.881L12.153,9.924L12.068,9.969L11.983,10.014L11.9,10.061L11.816,10.108L11.734,10.156L11.652,10.205L11.571,10.255L11.491,10.306L11.411,10.358L11.333,10.411L11.254,10.464L11.177,10.519L11.1,10.574L11.024,10.63L10.949,10.687L10.875,10.744L10.801,10.803L10.728,10.862L10.656,10.922L10.585,10.983L10.514,11.045L10.445,11.107L10.376,11.17L10.308,11.234L10.241,11.298L10.174,11.364L10.109,11.43L10.044,11.496L9.98,11.564L9.918,11.632L9.856,11.701L9.794,11.77L9.734,11.84L9.675,11.911L9.617,11.983L9.559,12.055L9.503,12.128L9.447,12.201L9.392,12.275L9.339,12.349L9.286,12.425L9.234,12.5L9.183,12.577L9.133,12.653L9.084,12.731L9.036,12.809L8.99,12.887L8.944,12.967L8.899,13.046L8.855,13.126L8.812,13.207L8.77,13.288L8.729,13.37L8.69,13.452L8.651,13.534L8.613,13.618L8.577,13.701L8.541,13.785L8.507,13.87L8.473,13.955L8.441,14.04L8.41,14.126L8.38,14.212L8.35,14.299L8.323,14.386L8.296,14.474L8.27,14.562L8.245,14.65L8.222,14.739L8.2,14.828L8.178,14.918L8.158,15.008L8.14,15.098L8.122,15.189L8.105,15.28L8.09,15.372L8.076,15.464L8.063,15.556L8.051,15.649L8.04,15.742L8.031,15.836L8.023,15.929L8.016,16.024L8.01,16.118L8.006,16.213L8.003,16.308L8.001,16.404L8,16.5L8.001,16.596L8.003,16.692L8.006,16.787L8.01,16.882L8.016,16.976L8.023,17.071L8.031,17.164L8.04,17.258L8.051,17.351L8.063,17.444L8.076,17.536L8.09,17.628L8.105,17.72L8.122,17.811L8.14,17.902L8.158,17.992L8.178,18.082L8.2,18.172L8.222,18.261L8.245,18.35L8.27,18.438L8.296,18.526L8.323,18.614L8.35,18.701L8.38,18.788L8.41,18.874L8.441,18.96L8.473,19.045L8.507,19.13L8.541,19.215L8.577,19.299L8.613,19.382L8.651,19.466L8.69,19.548L8.729,19.63L8.77,19.712L8.812,19.793L8.855,19.874L8.899,19.954L8.944,20.033L8.99,20.113L9.036,20.191L9.084,20.269L9.133,20.347L9.183,20.423L9.234,20.5L9.286,20.575L9.339,20.651L9.392,20.725L9.447,20.799L9.503,20.872L9.559,20.945L9.617,21.017L9.675,21.089L9.734,21.16L9.794,21.23L9.856,21.299L9.918,21.368L9.98,21.436L10.044,21.504L10.109,21.57L10.174,21.636L10.241,21.702L10.308,21.766L10.376,21.83L10.445,21.893L10.514,21.955L10.585,22.017L10.656,22.078L10.728,22.138L10.801,22.197L10.875,22.256L10.949,22.313L11.024,22.37L11.1,22.426L11.177,22.481L11.254,22.536L11.333,22.589L11.411,22.642L11.491,22.694L11.571,22.745L11.652,22.795L11.734,22.844L11.816,22.892L11.9,22.939L11.983,22.986L12.068,23.031L12.153,23.076L12.238,23.119L12.325,23.162L12.412,23.204L12.499,23.244L12.587,23.284L12.676,23.323L12.765,23.361L12.855,23.397L12.946,23.433L13.037,23.468L13.128,23.502L13.221,23.534L13.313,23.566L13.407,23.597L13.501,23.626L13.595,23.655L13.69,23.682L13.785,23.708L13.881,23.734L13.977,23.758L14.074,23.781L14.172,23.803L14.269,23.824L14.368,23.844L14.467,23.862L14.566,23.88L14.665,23.896L14.766,23.911L14.866,23.925L14.967,23.938L15.069,23.95L15.17,23.96L15.273,23.969L15.375,23.977L15.479,23.984L15.582,23.99L15.686,23.994L15.79,23.997L15.895,23.999L16,24L16.105,23.999L16.21,23.997L16.314,23.994L16.418,23.99L16.521,23.984L16.625,23.977L16.727,23.969L16.83,23.96L16.931,23.95L17.033,23.938L17.134,23.925L17.234,23.911L17.335,23.896L17.434,23.88L17.533,23.862L17.632,23.844L17.731,23.824L17.828,23.803L17.926,23.781L18.023,23.758L18.119,23.734L18.215,23.708L18.31,23.682L18.405,23.655L18.499,23.626L18.593,23.597L18.687,23.566L18.779,23.534L18.872,23.502L18.963,23.468L19.054,23.433L19.145,23.397L19.235,23.361L19.324,23.323L19.413,23.284L19.501,23.244L19.588,23.204L19.675,23.162L19.762,23.119L19.847,23.076L19.932,23.031L20.017,22.986L20.1,22.939L20.184,22.892L20.266,22.844L20.348,22.795L20.429,22.745L20.509,22.694L20.589,22.642L20.667,22.589L20.746,22.536L20.823,22.481L20.9,22.426L20.976,22.37L21.051,22.313L21.125,22.256L21.199,22.197L21.272,22.138L21.344,22.078L21.415,22.017L21.486,21.955L21.555,21.893L21.624,21.83L21.692,21.766L21.759,21.702L21.826,21.636L21.891,21.57L21.956,21.504L22.02,21.436L22.082,21.368L22.144,21.299L22.206,21.23L22.266,21.159L22.325,21.089L22.383,21.017L22.441,20.945L22.497,20.872L22.553,20.799L22.608,20.725L22.661,20.651L22.714,20.575L22.766,20.5L22.817,20.423L22.867,20.347L22.916,20.269L22.964,20.191L23.01,20.113L23.056,20.034L23.101,19.954L23.145,19.874L23.188,19.793L23.23,19.712L23.271,19.63L23.31,19.548L23.349,19.466L23.387,19.382L23.423,19.299L23.459,19.215L23.493,19.13L23.527,19.045L23.559,18.96L23.59,18.874L23.62,18.788L23.65,18.701L23.677,18.614L23.704,18.526L23.73,18.438L23.755,18.35L23.778,18.261L23.8,18.172L23.822,18.082L23.842,17.992L23.86,17.902L23.878,17.811L23.895,17.72L23.91,17.628L23.924,17.536L23.937,17.444L23.949,17.351L23.96,17.258L23.969,17.164L23.977,17.071L23.984,16.976L23.99,16.882L23.994,16.787L23.997,16.692L23.999,16.596L24,16.5L23.999,16.404L23.997,16.308L23.994,16.213L23.99,16.118L23.984,16.024L23.977,15.929L23.969,15.836L23.96,15.742L23.949,15.649L23.937,15.556L23.924,15.464L23.91,15.372L23.895,15.28L23.878,15.189L23.86,15.098L23.842,15.008L23.822,14.918L23.8,14.828L23.778,14.739L23.755,14.65L23.73,14.562L23.704,14.474L23.677,14.386L23.65,14.299L23.62,14.212L23.59,14.126L23.559,14.04L23.527,13.955L23.493,13.87L23.459,13.785L23.423,13.701L23.387,13.618L23.349,13.534L23.31,13.452L23.271,13.37L23.23,13.288L23.188,13.207L23.145,13.126L23.101,13.046L23.056,12.966L23.01,12.887L22.964,12.809L22.916,12.731L22.867,12.653L22.817,12.577L22.766,12.5L22.714,12.425L22.661,12.349L22.608,12.275L22.553,12.201L22.497,12.128L22.441,12.055L22.383,11.983L22.325,11.911L22.266,11.841L22.206,11.77L22.144,11.701L22.082,11.632L22.02,11.564L21.956,11.496L21.891,11.43L21.826,11.364L21.759,11.298L21.692,11.234L21.624,11.17L21.555,11.107L21.486,11.045L21.415,10.983L21.344,10.922L21.272,10.862L21.199,10.803L21.125,10.744L21.051,10.687L20.976,10.63L20.9,10.574L20.823,10.519L20.746,10.464L20.667,10.411L20.589,10.358L20.509,10.306L20.429,10.256L20.348,10.205L20.266,10.156L20.184,10.108L20.1,10.061L20.017,10.014L19.932,9.969L19.847,9.924L19.762,9.881L19.675,9.838L19.588,9.796L19.501,9.756L19.413,9.716L19.324,9.677L19.235,9.639L19.145,9.603L19.054,9.567L18.963,9.532L18.872,9.498L18.779,9.466L18.687,9.434L18.593,9.403L18.499,9.374L18.405,9.345L18.31,9.318L18.215,9.292L18.119,9.266L18.023,9.242L17.926,9.219L17.828,9.197L17.731,9.176L17.632,9.156L17.533,9.138L17.434,9.12L17.335,9.104L17.234,9.089L17.134,9.075L17.033,9.062L16.931,9.05L16.83,9.04L16.727,9.031L16.625,9.023L16.521,9.016L16.418,9.01L16.314,9.006L16.21,9.003L16.105,9.001L16,9L15.895,9.001Z"/>
        </g>
        <circle cx="22.5" cy="11.5" r="1.5"/>
        <path d="M7.4,8L7.602,8.002L7.761,8.013L7.92,8.024L8.078,8.038L8.235,8.052L8.391,8.068L8.546,8.086L8.699,8.105L8.852,8.125L9.004,8.146L9.154,8.169L9.302,8.193L9.449,8.219L9.595,8.246L9.739,8.274L9.881,8.304L10.021,8.334L10.159,8.367L10.295,8.4L10.429,8.434L10.561,8.47L10.691,8.507L10.818,8.545L10.942,8.585L11.065,8.625L11.184,8.667L11.301,8.71L11.415,8.754L11.527,8.799L11.635,8.846L11.74,8.893L11.842,8.942L11.941,8.991L12.036,9.042L12.131,9.094L12.226,9.149L12.32,9.207L12.414,9.267L12.507,9.33L12.599,9.395L12.689,9.463L12.734,9.498L12.779,9.534L12.823,9.571L12.867,9.608L12.91,9.646L12.953,9.684L12.995,9.724L13.037,9.764L13.078,9.804L13.119,9.846L13.159,9.888L13.198,9.931L13.237,9.974L13.276,10.019L13.313,10.064L13.35,10.109L13.386,10.156L13.421,10.203L13.456,10.251L13.489,10.3L13.522,10.35L13.554,10.4L13.585,10.451L13.615,10.503L13.644,10.556L13.673,10.61L13.7,10.664L13.726,10.719L13.751,10.775L13.776,10.832L13.799,10.889L13.821,10.948L13.841,11.007L13.861,11.067L13.879,11.128L13.897,11.189L13.913,11.252L13.927,11.315L13.941,11.379L13.953,11.444L13.964,11.51L13.973,11.577L13.981,11.644L13.988,11.713L13.993,11.782L13.997,11.853L13.999,11.924L14,11.996L13.999,12.073L13.997,12.15L13.993,12.227L13.987,12.303L13.98,12.378L13.972,12.453L13.961,12.527L13.95,12.601L13.937,12.674L13.922,12.746L13.906,12.818L13.889,12.889L13.87,12.959L13.85,13.028L13.829,13.097L13.806,13.165L13.782,13.232L13.756,13.298L13.73,13.363L13.702,13.427L13.672,13.491L13.642,13.553L13.611,13.614L13.578,13.675L13.544,13.734L13.509,13.793L13.473,13.85L13.436,13.906L13.397,13.961L13.358,14.015L13.317,14.068L13.276,14.12L13.234,14.17L13.19,14.219L13.146,14.267L13.101,14.314L13.054,14.359L13.007,14.403L12.959,14.445L12.91,14.487L12.861,14.526L12.81,14.565L12.759,14.602L12.707,14.637L12.654,14.671L12.6,14.704L12.546,14.734L12.491,14.764L12.435,14.791L12.379,14.818L12.321,14.842L12.264,14.865L12.205,14.886L12.147,14.905L12.087,14.923L12.027,14.939L11.967,14.953L11.905,14.965L11.844,14.976L11.782,14.984L11.719,14.991L11.656,14.996L11.593,14.999L11.529,15L11.508,14.999L11.484,14.997L11.457,14.994L11.428,14.99L11.363,14.979L11.29,14.964L11.213,14.946L11.131,14.926L11.047,14.903L10.963,14.88L10.88,14.855L10.8,14.831L10.724,14.807L10.654,14.784L10.593,14.762L10.541,14.742L10.5,14.725L10.485,14.718L10.472,14.712L10.373,14.668L10.274,14.626L10.174,14.586L10.074,14.547L9.973,14.51L9.872,14.474L9.771,14.439L9.669,14.406L9.567,14.374L9.464,14.344L9.361,14.315L9.258,14.287L9.154,14.261L9.05,14.236L8.945,14.212L8.84,14.19L8.734,14.169L8.628,14.149L8.522,14.13L8.415,14.112L8.308,14.096L8.2,14.081L8.092,14.067L7.983,14.054L7.874,14.042L7.764,14.032L7.654,14.022L7.543,14.013L7.432,14.006L7.32,14L7.208,13.994L7.095,13.99L6.982,13.994L6.868,14L6.754,14.006L6.639,14.013L6.524,14.022L6.409,14.032L6.293,14.042L6.178,14.054L6.062,14.067L5.946,14.081L5.83,14.096L5.715,14.112L5.6,14.13L5.484,14.149L5.37,14.169L5.255,14.19L5.141,14.212L5.028,14.236L4.915,14.261L4.803,14.287L4.691,14.315L4.58,14.344L4.47,14.374L4.361,14.406L4.253,14.439L4.146,14.474L4.04,14.51L3.935,14.547L3.831,14.586L3.728,14.626L3.627,14.668L3.528,14.712L3.515,14.718L3.5,14.725L3.459,14.742L3.407,14.762L3.346,14.784L3.276,14.807L3.2,14.831L3.12,14.855L3.037,14.88L2.953,14.903L2.869,14.926L2.787,14.946L2.71,14.964L2.637,14.979L2.572,14.99L2.543,14.994L2.516,14.997L2.492,14.999L2.471,15L2.407,14.999L2.344,14.996L2.281,14.991L2.218,14.984L2.156,14.976L2.095,14.965L2.033,14.953L1.973,14.939L1.913,14.923L1.853,14.905L1.795,14.886L1.736,14.865L1.679,14.842L1.621,14.818L1.565,14.791L1.509,14.764L1.454,14.734L1.4,14.704L1.346,14.671L1.293,14.637L1.241,14.602L1.19,14.565L1.139,14.526L1.09,14.487L1.041,14.445L0.993,14.403L0.946,14.359L0.899,14.314L0.854,14.267L0.81,14.219L0.766,14.17L0.724,14.12L0.683,14.068L0.642,14.015L0.603,13.961L0.564,13.906L0.527,13.85L0.491,13.793L0.456,13.734L0.422,13.675L0.389,13.614L0.358,13.553L0.328,13.491L0.298,13.427L0.27,13.363L0.244,13.298L0.218,13.232L0.194,13.165L0.171,13.097L0.15,13.028L0.13,12.959L0.111,12.889L0.094,12.818L0.078,12.746L0.063,12.674L0.05,12.601L0.039,12.527L0.028,12.453L0.02,12.378L0.013,12.303L0.007,12.227L0.003,12.15L0.001,12.073L0,11.996L0.001,11.924L0.003,11.853L0.007,11.782L0.012,11.713L0.019,11.644L0.027,11.577L0.036,11.51L0.047,11.444L0.059,11.379L0.073,11.315L0.087,11.252L0.103,11.189L0.121,11.128L0.139,11.067L0.159,11.007L0.179,10.948L0.201,10.889L0.224,10.832L0.249,10.775L0.274,10.719L0.3,10.664L0.327,10.61L0.356,10.556L0.385,10.503L0.415,10.451L0.446,10.4L0.478,10.35L0.511,10.3L0.544,10.251L0.579,10.203L0.614,10.156L0.65,10.109L0.687,10.064L0.724,10.019L0.763,9.974L0.802,9.931L0.841,9.888L0.881,9.846L0.922,9.804L0.963,9.764L1.005,9.724L1.047,9.684L1.09,9.646L1.133,9.608L1.177,9.571L1.221,9.534L1.266,9.498L1.311,9.463L1.401,9.395L1.493,9.33L1.586,9.267L1.68,9.207L1.774,9.149L1.869,9.094L1.964,9.042L2.059,8.991L2.158,8.942L2.262,8.893L2.37,8.846L2.482,8.799L2.597,8.754L2.716,8.71L2.839,8.667L2.965,8.625L3.094,8.585L3.226,8.545L3.361,8.507L3.499,8.47L3.639,8.434L3.782,8.4L3.927,8.367L4.074,8.334L4.223,8.304L4.374,8.274L4.527,8.246L4.681,8.219L4.836,8.193L4.992,8.169L5.15,8.146L5.308,8.125L5.467,8.105L5.627,8.086L5.787,8.068L5.947,8.052L6.108,8.038L6.268,8.024L6.428,8.013L6.588,8.002L6.79,8L6.957,8L7.033,8.001L7.095,8.002L7.157,8.001L7.233,8L7.4,8ZM7.191,10.001L7.095,10.003L6.999,10.001L6.949,10L6.801,10L6.663,10.002L6.566,10.008L6.423,10.018L6.28,10.03L6.138,10.043L5.995,10.057L5.852,10.073L5.71,10.09L5.569,10.108L5.429,10.127L5.29,10.147L5.152,10.168L5.015,10.191L4.881,10.214L4.748,10.239L4.618,10.264L4.49,10.291L4.364,10.318L4.242,10.346L4.122,10.375L4.006,10.405L3.893,10.435L3.784,10.466L3.68,10.497L3.58,10.529L3.484,10.56L3.394,10.592L3.308,10.624L3.229,10.655L3.156,10.685L3.089,10.715L3.029,10.743L2.972,10.771L2.916,10.801L2.857,10.833L2.799,10.867L2.742,10.902L2.687,10.937L2.633,10.973L2.582,11.01L2.527,11.051L2.508,11.066L2.484,11.085L2.462,11.104L2.439,11.123L2.418,11.142L2.397,11.161L2.376,11.179L2.356,11.198L2.337,11.217L2.319,11.236L2.301,11.255L2.284,11.274L2.267,11.292L2.251,11.311L2.236,11.329L2.221,11.347L2.207,11.366L2.194,11.384L2.181,11.402L2.168,11.42L2.157,11.437L2.145,11.455L2.135,11.473L2.125,11.49L2.115,11.508L2.106,11.525L2.097,11.543L2.089,11.56L2.081,11.578L2.073,11.595L2.066,11.613L2.059,11.631L2.053,11.65L2.047,11.668L2.041,11.687L2.035,11.707L2.03,11.727L2.026,11.747L2.021,11.768L2.017,11.79L2.013,11.812L2.01,11.836L2.007,11.86L2.005,11.885L2.003,11.911L2.001,11.938L2,11.966L2,11.996L2,12.031L2.002,12.067L2.003,12.102L2.006,12.136L2.009,12.17L2.013,12.203L2.017,12.236L2.023,12.269L2.028,12.3L2.035,12.332L2.041,12.362L2.049,12.393L2.057,12.422L2.065,12.451L2.074,12.479L2.083,12.507L2.093,12.534L2.103,12.56L2.114,12.586L2.124,12.611L2.136,12.635L2.147,12.659L2.159,12.681L2.17,12.703L2.182,12.724L2.195,12.745L2.207,12.764L2.219,12.783L2.232,12.801L2.244,12.818L2.257,12.834L2.269,12.849L2.281,12.864L2.293,12.877L2.305,12.89L2.316,12.902L2.328,12.913L2.339,12.923L2.349,12.933L2.36,12.941L2.369,12.949L2.379,12.956L2.388,12.963L2.396,12.968L2.404,12.974L2.411,12.978L2.426,12.974L2.487,12.957L2.547,12.939L2.604,12.922L2.656,12.905L2.697,12.892L2.7,12.891L2.846,12.827L2.98,12.772L3.114,12.719L3.248,12.669L3.383,12.621L3.518,12.575L3.653,12.531L3.789,12.49L3.925,12.45L4.061,12.413L4.197,12.377L4.334,12.343L4.47,12.311L4.607,12.281L4.743,12.252L4.88,12.225L5.016,12.2L5.152,12.176L5.289,12.154L5.424,12.134L5.56,12.114L5.696,12.097L5.831,12.08L5.965,12.065L6.1,12.052L6.234,12.039L6.367,12.028L6.5,12.018L6.632,12.01L6.764,12.002L6.895,11.996L7.095,11.988L7.295,11.996L7.426,12.002L7.556,12.01L7.687,12.019L7.817,12.029L7.947,12.04L8.078,12.053L8.208,12.067L8.338,12.082L8.468,12.099L8.598,12.117L8.728,12.137L8.857,12.158L8.987,12.181L9.116,12.205L9.246,12.231L9.375,12.259L9.504,12.288L9.633,12.319L9.762,12.352L9.89,12.386L10.019,12.422L10.147,12.46L10.275,12.5L10.402,12.542L10.53,12.585L10.657,12.63L10.783,12.677L10.91,12.726L11.036,12.777L11.161,12.83L11.299,12.89L11.303,12.892L11.344,12.905L11.396,12.922L11.453,12.939L11.513,12.957L11.574,12.974L11.589,12.978L11.596,12.974L11.604,12.968L11.612,12.963L11.621,12.956L11.631,12.949L11.64,12.941L11.651,12.933L11.661,12.923L11.672,12.913L11.684,12.902L11.695,12.89L11.707,12.877L11.719,12.864L11.731,12.849L11.744,12.834L11.756,12.818L11.768,12.801L11.781,12.783L11.793,12.764L11.805,12.745L11.818,12.724L11.83,12.703L11.841,12.681L11.853,12.659L11.864,12.635L11.876,12.611L11.886,12.586L11.897,12.561L11.907,12.534L11.917,12.507L11.926,12.479L11.935,12.451L11.943,12.422L11.951,12.393L11.959,12.362L11.965,12.332L11.972,12.3L11.977,12.269L11.983,12.236L11.987,12.203L11.991,12.17L11.994,12.136L11.997,12.102L11.998,12.067L12,12.031L12,11.996L12,11.966L11.999,11.938L11.997,11.911L11.995,11.885L11.993,11.86L11.99,11.836L11.987,11.812L11.983,11.79L11.979,11.768L11.974,11.747L11.97,11.727L11.965,11.707L11.959,11.687L11.953,11.668L11.947,11.65L11.941,11.631L11.934,11.613L11.927,11.595L11.919,11.578L11.911,11.56L11.903,11.543L11.894,11.525L11.885,11.508L11.875,11.49L11.865,11.473L11.855,11.455L11.843,11.437L11.832,11.419L11.819,11.402L11.806,11.384L11.793,11.366L11.779,11.347L11.764,11.329L11.749,11.311L11.733,11.292L11.716,11.274L11.699,11.255L11.681,11.236L11.663,11.217L11.644,11.198L11.624,11.179L11.603,11.161L11.582,11.142L11.561,11.123L11.538,11.104L11.516,11.085L11.492,11.066L11.473,11.051L11.418,11.01L11.367,10.973L11.313,10.937L11.258,10.902L11.201,10.867L11.143,10.833L11.084,10.801L11.026,10.77L10.965,10.739L10.9,10.708L10.83,10.677L10.757,10.645L10.678,10.614L10.596,10.582L10.51,10.55L10.42,10.519L10.326,10.488L10.229,10.457L10.128,10.427L10.024,10.397L9.917,10.368L9.808,10.34L9.695,10.312L9.58,10.285L9.463,10.26L9.343,10.235L9.22,10.211L9.096,10.188L8.97,10.166L8.841,10.145L8.712,10.125L8.58,10.106L8.447,10.089L8.312,10.072L8.177,10.057L8.04,10.043L7.902,10.03L7.763,10.018L7.623,10.008L7.527,10.002L7.389,10L7.241,10L7.191,10.001Z"/>
        <path d="M25.4,8L25.602,8.002L25.761,8.013L25.92,8.024L26.078,8.038L26.235,8.052L26.391,8.068L26.546,8.086L26.699,8.105L26.852,8.125L27.004,8.146L27.154,8.169L27.302,8.193L27.449,8.219L27.595,8.246L27.739,8.274L27.881,8.304L28.021,8.334L28.159,8.367L28.295,8.4L28.429,8.434L28.561,8.47L28.691,8.507L28.818,8.545L28.942,8.585L29.065,8.625L29.184,8.667L29.301,8.71L29.415,8.754L29.527,8.799L29.635,8.846L29.74,8.893L29.842,8.942L29.941,8.991L30.036,9.042L30.131,9.094L30.226,9.149L30.32,9.207L30.414,9.267L30.507,9.33L30.599,9.395L30.689,9.463L30.734,9.498L30.779,9.534L30.823,9.571L30.867,9.608L30.91,9.646L30.953,9.684L30.995,9.724L31.037,9.764L31.078,9.804L31.119,9.846L31.159,9.888L31.198,9.931L31.237,9.974L31.276,10.019L31.313,10.064L31.35,10.109L31.386,10.156L31.421,10.203L31.456,10.251L31.489,10.3L31.522,10.35L31.554,10.4L31.585,10.451L31.615,10.503L31.644,10.556L31.673,10.61L31.7,10.664L31.726,10.719L31.751,10.775L31.776,10.832L31.799,10.889L31.821,10.948L31.841,11.007L31.861,11.067L31.879,11.128L31.897,11.189L31.913,11.252L31.927,11.315L31.941,11.379L31.953,11.444L31.964,11.51L31.973,11.577L31.981,11.644L31.988,11.713L31.993,11.782L31.997,11.853L31.999,11.924L32,11.996L31.999,12.073L31.997,12.15L31.993,12.227L31.987,12.303L31.98,12.378L31.972,12.453L31.961,12.527L31.95,12.601L31.937,12.674L31.922,12.746L31.906,12.818L31.889,12.889L31.87,12.959L31.85,13.028L31.829,13.097L31.806,13.165L31.782,13.232L31.756,13.298L31.73,13.363L31.702,13.427L31.672,13.491L31.642,13.553L31.611,13.614L31.578,13.675L31.544,13.734L31.509,13.793L31.473,13.85L31.436,13.906L31.397,13.961L31.358,14.015L31.317,14.068L31.276,14.12L31.234,14.17L31.19,14.219L31.146,14.267L31.101,14.314L31.054,14.359L31.007,14.403L30.959,14.445L30.91,14.487L30.861,14.526L30.81,14.565L30.759,14.602L30.707,14.637L30.654,14.671L30.6,14.704L30.546,14.734L30.491,14.764L30.435,14.791L30.379,14.818L30.321,14.842L30.264,14.865L30.205,14.886L30.147,14.905L30.087,14.923L30.027,14.939L29.967,14.953L29.905,14.965L29.844,14.976L29.782,14.984L29.719,14.991L29.656,14.996L29.593,14.999L29.529,15L29.508,14.999L29.484,14.997L29.457,14.994L29.428,14.99L29.363,14.979L29.29,14.964L29.213,14.946L29.131,14.926L29.047,14.903L28.963,14.88L28.88,14.855L28.8,14.831L28.724,14.807L28.654,14.784L28.593,14.762L28.541,14.742L28.5,14.725L28.485,14.718L28.472,14.712L28.373,14.668L28.274,14.626L28.174,14.586L28.074,14.547L27.973,14.51L27.872,14.474L27.771,14.439L27.669,14.406L27.567,14.374L27.464,14.344L27.361,14.315L27.258,14.287L27.154,14.261L27.05,14.236L26.945,14.212L26.84,14.19L26.734,14.169L26.628,14.149L26.522,14.13L26.415,14.112L26.308,14.096L26.2,14.081L26.092,14.067L25.983,14.054L25.874,14.042L25.764,14.032L25.654,14.022L25.543,14.013L25.432,14.006L25.32,14L25.208,13.994L25.095,13.99L24.982,13.994L24.868,14L24.754,14.006L24.639,14.013L24.524,14.022L24.409,14.032L24.293,14.042L24.178,14.054L24.062,14.067L23.946,14.081L23.83,14.096L23.715,14.112L23.6,14.13L23.484,14.149L23.37,14.169L23.255,14.19L23.141,14.212L23.028,14.236L22.915,14.261L22.803,14.287L22.691,14.315L22.58,14.344L22.47,14.374L22.361,14.406L22.253,14.439L22.146,14.474L22.04,14.51L21.935,14.547L21.831,14.586L21.728,14.626L21.627,14.668L21.528,14.712L21.515,14.718L21.5,14.725L21.459,14.742L21.407,14.762L21.346,14.784L21.276,14.807L21.2,14.831L21.12,14.855L21.037,14.88L20.953,14.903L20.869,14.926L20.787,14.946L20.71,14.964L20.637,14.979L20.572,14.99L20.543,14.994L20.516,14.997L20.492,14.999L20.471,15L20.407,14.999L20.344,14.996L20.281,14.991L20.218,14.984L20.156,14.976L20.095,14.965L20.033,14.953L19.973,14.939L19.913,14.923L19.853,14.905L19.795,14.886L19.736,14.865L19.679,14.842L19.621,14.818L19.565,14.791L19.509,14.764L19.454,14.734L19.4,14.704L19.346,14.671L19.293,14.637L19.241,14.602L19.19,14.565L19.139,14.526L19.09,14.487L19.041,14.445L18.993,14.403L18.946,14.359L18.899,14.314L18.854,14.267L18.81,14.219L18.766,14.17L18.724,14.12L18.683,14.068L18.642,14.015L18.603,13.961L18.564,13.906L18.527,13.85L18.491,13.793L18.456,13.734L18.422,13.675L18.389,13.614L18.358,13.553L18.328,13.491L18.298,13.427L18.27,13.363L18.244,13.298L18.218,13.232L18.194,13.165L18.171,13.097L18.15,13.028L18.13,12.959L18.111,12.889L18.094,12.818L18.078,12.746L18.063,12.674L18.05,12.601L18.039,12.527L18.028,12.453L18.02,12.378L18.013,12.303L18.007,12.227L18.003,12.15L18.001,12.073L18,11.996L18.001,11.924L18.003,11.853L18.007,11.782L18.012,11.713L18.019,11.644L18.027,11.577L18.036,11.51L18.047,11.444L18.059,11.379L18.073,11.315L18.087,11.252L18.103,11.189L18.121,11.128L18.139,11.067L18.159,11.007L18.179,10.948L18.201,10.889L18.224,10.832L18.249,10.775L18.274,10.719L18.3,10.664L18.327,10.61L18.356,10.556L18.385,10.503L18.415,10.451L18.446,10.4L18.478,10.35L18.511,10.3L18.544,10.251L18.579,10.203L18.614,10.156L18.65,10.109L18.687,10.064L18.724,10.019L18.763,9.974L18.802,9.931L18.841,9.888L18.881,9.846L18.922,9.804L18.963,9.764L19.005,9.724L19.047,9.684L19.09,9.646L19.133,9.608L19.177,9.571L19.221,9.534L19.266,9.498L19.311,9.463L19.401,9.395L19.493,9.33L19.586,9.267L19.68,9.207L19.774,9.149L19.869,9.094L19.964,9.042L20.059,8.991L20.158,8.942L20.262,8.893L20.37,8.846L20.482,8.799L20.597,8.754L20.716,8.71L20.839,8.667L20.965,8.625L21.094,8.585L21.226,8.545L21.361,8.507L21.499,8.47L21.639,8.434L21.782,8.4L21.927,8.367L22.074,8.334L22.223,8.304L22.374,8.274L22.527,8.246L22.681,8.219L22.836,8.193L22.992,8.169L23.15,8.146L23.308,8.125L23.467,8.105L23.627,8.086L23.787,8.068L23.947,8.052L24.108,8.038L24.268,8.024L24.428,8.013L24.588,8.002L24.79,8L24.957,8L25.033,8.001L25.095,8.002L25.157,8.001L25.233,8L25.4,8ZM25.191,10.001L25.095,10.003L24.999,10.001L24.949,10L24.801,10L24.663,10.002L24.566,10.008L24.423,10.018L24.28,10.03L24.138,10.043L23.995,10.057L23.852,10.073L23.71,10.09L23.569,10.108L23.429,10.127L23.29,10.147L23.152,10.168L23.015,10.191L22.881,10.214L22.748,10.239L22.618,10.264L22.49,10.291L22.364,10.318L22.242,10.346L22.122,10.375L22.006,10.405L21.893,10.435L21.784,10.466L21.68,10.497L21.58,10.529L21.484,10.56L21.394,10.592L21.308,10.624L21.229,10.655L21.156,10.685L21.089,10.715L21.029,10.743L20.972,10.771L20.916,10.801L20.857,10.833L20.799,10.867L20.742,10.902L20.687,10.937L20.633,10.973L20.582,11.01L20.527,11.051L20.508,11.066L20.484,11.085L20.462,11.104L20.439,11.123L20.418,11.142L20.397,11.161L20.376,11.179L20.356,11.198L20.337,11.217L20.319,11.236L20.301,11.255L20.284,11.274L20.267,11.292L20.251,11.311L20.236,11.329L20.221,11.347L20.207,11.366L20.194,11.384L20.181,11.402L20.168,11.419L20.157,11.437L20.145,11.455L20.135,11.473L20.125,11.49L20.115,11.508L20.106,11.525L20.097,11.543L20.089,11.56L20.081,11.578L20.073,11.595L20.066,11.613L20.059,11.631L20.053,11.65L20.047,11.668L20.041,11.687L20.035,11.707L20.03,11.727L20.026,11.747L20.021,11.768L20.017,11.79L20.013,11.812L20.01,11.836L20.007,11.86L20.005,11.885L20.003,11.911L20.001,11.938L20,11.966L20,11.996L20,12.031L20.002,12.067L20.003,12.102L20.006,12.136L20.009,12.17L20.013,12.203L20.017,12.236L20.023,12.269L20.028,12.3L20.035,12.332L20.041,12.362L20.049,12.393L20.057,12.422L20.065,12.451L20.074,12.479L20.083,12.507L20.093,12.534L20.103,12.56L20.114,12.586L20.124,12.611L20.136,12.635L20.147,12.659L20.159,12.681L20.17,12.703L20.182,12.724L20.195,12.745L20.207,12.764L20.219,12.783L20.232,12.801L20.244,12.818L20.256,12.834L20.269,12.849L20.281,12.864L20.293,12.877L20.305,12.89L20.316,12.902L20.328,12.913L20.339,12.923L20.349,12.933L20.36,12.941L20.369,12.949L20.379,12.956L20.388,12.963L20.396,12.968L20.404,12.974L20.411,12.978L20.426,12.974L20.487,12.957L20.547,12.939L20.604,12.922L20.656,12.905L20.697,12.892L20.7,12.891L20.846,12.827L20.98,12.772L21.114,12.719L21.248,12.669L21.383,12.621L21.518,12.575L21.653,12.531L21.789,12.49L21.925,12.45L22.061,12.413L22.197,12.377L22.334,12.343L22.47,12.311L22.607,12.281L22.743,12.252L22.88,12.225L23.016,12.2L23.152,12.176L23.289,12.154L23.424,12.134L23.56,12.114L23.696,12.097L23.831,12.08L23.965,12.065L24.1,12.052L24.234,12.039L24.367,12.028L24.5,12.018L24.632,12.01L24.764,12.002L24.895,11.996L25.095,11.988L25.295,11.996L25.426,12.002L25.556,12.01L25.687,12.019L25.817,12.029L25.947,12.04L26.078,12.053L26.208,12.067L26.338,12.082L26.468,12.099L26.598,12.117L26.728,12.137L26.857,12.158L26.987,12.181L27.116,12.205L27.246,12.231L27.375,12.259L27.504,12.288L27.633,12.319L27.762,12.352L27.89,12.386L28.019,12.422L28.147,12.46L28.275,12.5L28.402,12.542L28.53,12.585L28.657,12.63L28.783,12.677L28.91,12.726L29.036,12.777L29.161,12.83L29.299,12.89L29.303,12.892L29.344,12.905L29.396,12.922L29.453,12.939L29.513,12.957L29.574,12.974L29.589,12.978L29.596,12.974L29.604,12.968L29.612,12.963L29.621,12.956L29.631,12.949L29.64,12.941L29.651,12.933L29.661,12.923L29.672,12.913L29.684,12.902L29.695,12.89L29.707,12.877L29.719,12.864L29.731,12.849L29.744,12.834L29.756,12.818L29.768,12.801L29.781,12.783L29.793,12.764L29.805,12.745L29.818,12.724L29.83,12.703L29.841,12.681L29.853,12.659L29.865,12.635L29.876,12.611L29.886,12.586L29.897,12.56L29.907,12.534L29.917,12.507L29.926,12.479L29.935,12.451L29.943,12.422L29.951,12.393L29.959,12.362L29.965,12.332L29.972,12.3L29.977,12.269L29.983,12.236L29.987,12.203L29.991,12.17L29.994,12.136L29.997,12.102L29.998,12.067L30,12.032L30,11.996L30,11.966L29.999,11.938L29.997,11.911L29.995,11.885L29.993,11.86L29.99,11.836L29.987,11.812L29.983,11.79L29.979,11.768L29.974,11.747L29.97,11.727L29.965,11.707L29.959,11.687L29.953,11.668L29.947,11.65L29.941,11.631L29.934,11.613L29.927,11.595L29.919,11.578L29.911,11.56L29.903,11.543L29.894,11.525L29.885,11.508L29.875,11.49L29.865,11.473L29.855,11.455L29.843,11.437L29.832,11.419L29.819,11.402L29.806,11.384L29.793,11.366L29.779,11.347L29.764,11.329L29.749,11.311L29.733,11.292L29.716,11.274L29.699,11.255L29.681,11.236L29.663,11.217L29.644,11.198L29.624,11.179L29.603,11.161L29.582,11.142L29.561,11.123L29.538,11.104L29.516,11.085L29.492,11.066L29.473,11.051L29.418,11.01L29.367,10.973L29.313,10.937L29.258,10.902L29.201,10.867L29.143,10.833L29.084,10.801L29.026,10.77L28.965,10.739L28.9,10.708L28.83,10.677L28.757,10.645L28.678,10.614L28.596,10.582L28.51,10.55L28.42,10.519L28.326,10.488L28.229,10.457L28.128,10.427L28.024,10.397L27.917,10.368L27.808,10.34L27.695,10.312L27.58,10.285L27.463,10.26L27.343,10.235L27.22,10.211L27.096,10.188L26.97,10.166L26.841,10.145L26.712,10.125L26.58,10.106L26.447,10.089L26.312,10.072L26.177,10.057L26.04,10.043L25.902,10.03L25.763,10.018L25.623,10.008L25.527,10.002L25.389,10L25.241,10L25.191,10.001Z"/>
    </g>
</svg>
