<?xml version="1.0" encoding="UTF-8" standalone="no"?>
<!DOCTYPE svg PUBLIC "-//W3C//DTD SVG 1.1//EN" "http://www.w3.org/Graphics/SVG/1.1/DTD/svg11.dtd">
<svg width="100%" height="100%" viewBox="0 0 32 32" version="1.1" xmlns="http://www.w3.org/2000/svg" xmlns:xlink="http://www.w3.org/1999/xlink" xml:space="preserve" xmlns:serif="http://www.serif.com/" style="fill-rule:evenodd;clip-rule:evenodd;stroke-linejoin:round;stroke-miterlimit:1.41421;">
    <g id="Main">
        <path d="M16.207,0.001L16.413,0.005L16.618,0.012L16.823,0.021L17.027,0.032L17.23,0.047L17.433,0.063L17.635,0.083L17.836,0.104L18.037,0.129L18.236,0.155L18.435,0.184L18.633,0.216L18.831,0.25L19.027,0.287L19.223,0.325L19.418,0.366L19.612,0.41L19.805,0.456L19.997,0.504L20.188,0.555L20.378,0.607L20.567,0.662L20.756,0.72L20.943,0.779L21.129,0.841L21.315,0.905L21.499,0.972L21.682,1.04L21.864,1.111L22.045,1.183L22.225,1.258L22.404,1.335L22.582,1.414L22.759,1.496L22.934,1.579L23.108,1.664L23.281,1.751L23.453,1.841L23.624,1.932L23.793,2.026L23.961,2.121L24.128,2.218L24.294,2.318L24.458,2.419L24.621,2.522L24.783,2.627L24.943,2.734L25.102,2.843L25.26,2.954L25.416,3.066L25.571,3.18L25.724,3.296L25.876,3.414L26.026,3.534L26.175,3.656L26.322,3.779L26.468,3.904L26.613,4.03L26.756,4.159L26.897,4.289L27.037,4.42L27.175,4.554L27.311,4.689L27.446,4.825L27.58,4.963L27.711,5.103L27.841,5.244L27.97,5.387L28.096,5.532L28.221,5.678L28.344,5.825L28.466,5.974L28.586,6.124L28.704,6.276L28.82,6.429L28.934,6.584L29.046,6.74L29.157,6.898L29.266,7.057L29.373,7.217L29.478,7.379L29.581,7.542L29.682,7.706L29.782,7.872L29.879,8.039L29.974,8.207L30.068,8.376L30.159,8.547L30.249,8.719L30.336,8.892L30.421,9.066L30.504,9.241L30.586,9.418L30.665,9.596L30.742,9.775L30.817,9.955L30.889,10.136L30.96,10.318L31.028,10.501L31.095,10.685L31.159,10.871L31.221,11.057L31.28,11.244L31.338,11.433L31.393,11.622L31.445,11.812L31.496,12.003L31.544,12.195L31.59,12.388L31.634,12.582L31.675,12.777L31.713,12.973L31.75,13.169L31.784,13.367L31.816,13.565L31.845,13.764L31.871,13.963L31.896,14.164L31.917,14.365L31.937,14.567L31.953,14.77L31.968,14.973L31.979,15.177L31.988,15.382L31.995,15.587L31.999,15.793L32,16L31.999,16.207L31.995,16.413L31.988,16.618L31.979,16.823L31.968,17.027L31.953,17.23L31.937,17.433L31.917,17.635L31.896,17.836L31.871,18.037L31.845,18.236L31.816,18.435L31.784,18.633L31.75,18.831L31.713,19.027L31.675,19.223L31.634,19.418L31.59,19.612L31.544,19.805L31.496,19.997L31.445,20.188L31.393,20.378L31.338,20.567L31.28,20.756L31.221,20.943L31.159,21.129L31.095,21.315L31.028,21.499L30.96,21.682L30.889,21.864L30.817,22.045L30.742,22.225L30.665,22.404L30.586,22.582L30.504,22.759L30.421,22.934L30.336,23.108L30.249,23.281L30.159,23.453L30.068,23.624L29.974,23.793L29.879,23.961L29.782,24.128L29.682,24.294L29.581,24.458L29.478,24.621L29.373,24.783L29.266,24.943L29.157,25.102L29.046,25.26L28.934,25.416L28.82,25.571L28.704,25.724L28.586,25.876L28.466,26.026L28.344,26.175L28.221,26.322L28.096,26.468L27.97,26.613L27.841,26.756L27.711,26.897L27.58,27.037L27.446,27.175L27.311,27.311L27.175,27.446L27.037,27.58L26.897,27.711L26.756,27.841L26.613,27.97L26.468,28.096L26.322,28.221L26.175,28.344L26.026,28.466L25.876,28.586L25.724,28.704L25.571,28.82L25.416,28.934L25.26,29.046L25.102,29.157L24.943,29.266L24.783,29.373L24.621,29.478L24.458,29.581L24.294,29.682L24.128,29.782L23.961,29.879L23.793,29.974L23.624,30.068L23.453,30.159L23.281,30.249L23.108,30.336L22.934,30.421L22.759,30.504L22.582,30.586L22.404,30.665L22.225,30.742L22.045,30.817L21.864,30.889L21.682,30.96L21.499,31.028L21.315,31.095L21.129,31.159L20.943,31.221L20.756,31.28L20.567,31.338L20.378,31.393L20.188,31.445L19.997,31.496L19.805,31.544L19.612,31.59L19.418,31.634L19.223,31.675L19.027,31.713L18.831,31.75L18.633,31.784L18.435,31.816L18.236,31.845L18.037,31.871L17.836,31.896L17.635,31.917L17.433,31.937L17.23,31.953L17.027,31.968L16.823,31.979L16.618,31.988L16.413,31.995L16.207,31.999L16,32L15.793,31.999L15.587,31.995L15.382,31.988L15.177,31.979L14.973,31.968L14.77,31.953L14.567,31.937L14.365,31.917L14.164,31.896L13.963,31.871L13.764,31.845L13.565,31.816L13.367,31.784L13.169,31.75L12.973,31.713L12.777,31.675L12.582,31.634L12.388,31.59L12.195,31.544L12.003,31.496L11.812,31.445L11.622,31.393L11.433,31.338L11.244,31.28L11.057,31.221L10.871,31.159L10.685,31.095L10.501,31.028L10.318,30.96L10.136,30.889L9.955,30.817L9.775,30.742L9.596,30.665L9.418,30.586L9.241,30.504L9.066,30.421L8.892,30.336L8.719,30.249L8.547,30.159L8.376,30.068L8.207,29.974L8.039,29.879L7.872,29.782L7.706,29.682L7.542,29.581L7.379,29.478L7.217,29.373L7.057,29.266L6.898,29.157L6.74,29.046L6.584,28.934L6.429,28.82L6.276,28.704L6.124,28.586L5.974,28.466L5.825,28.344L5.678,28.221L5.532,28.096L5.387,27.97L5.244,27.841L5.103,27.711L4.963,27.58L4.825,27.446L4.689,27.311L4.554,27.175L4.42,27.037L4.289,26.897L4.159,26.756L4.03,26.613L3.904,26.468L3.779,26.322L3.656,26.175L3.534,26.026L3.414,25.876L3.296,25.724L3.18,25.571L3.066,25.416L2.954,25.26L2.843,25.102L2.734,24.943L2.627,24.783L2.522,24.621L2.419,24.458L2.318,24.294L2.218,24.128L2.121,23.961L2.026,23.793L1.932,23.624L1.841,23.453L1.751,23.281L1.664,23.108L1.579,22.934L1.496,22.759L1.414,22.582L1.335,22.404L1.258,22.225L1.183,22.045L1.111,21.864L1.04,21.682L0.972,21.499L0.905,21.315L0.841,21.129L0.779,20.943L0.72,20.756L0.662,20.567L0.607,20.378L0.555,20.188L0.504,19.997L0.456,19.805L0.41,19.612L0.366,19.418L0.325,19.223L0.287,19.027L0.25,18.831L0.216,18.633L0.184,18.435L0.155,18.236L0.129,18.037L0.104,17.836L0.083,17.635L0.063,17.433L0.047,17.23L0.032,17.027L0.021,16.823L0.012,16.618L0.005,16.413L0.001,16.207L0,16L0.001,15.793L0.005,15.587L0.012,15.382L0.021,15.177L0.032,14.973L0.047,14.77L0.063,14.567L0.083,14.365L0.104,14.164L0.129,13.963L0.155,13.764L0.184,13.565L0.216,13.367L0.25,13.169L0.287,12.973L0.325,12.777L0.366,12.582L0.41,12.388L0.456,12.195L0.504,12.003L0.555,11.812L0.607,11.622L0.662,11.433L0.72,11.244L0.779,11.057L0.841,10.871L0.905,10.685L0.972,10.501L1.04,10.318L1.111,10.136L1.183,9.955L1.258,9.775L1.335,9.596L1.414,9.418L1.496,9.241L1.579,9.066L1.664,8.892L1.751,8.719L1.841,8.547L1.932,8.376L2.026,8.207L2.121,8.039L2.218,7.872L2.318,7.706L2.419,7.542L2.522,7.379L2.627,7.217L2.734,7.057L2.843,6.898L2.954,6.74L3.066,6.584L3.18,6.429L3.296,6.276L3.414,6.124L3.534,5.974L3.656,5.825L3.779,5.678L3.904,5.532L4.03,5.387L4.159,5.244L4.289,5.103L4.42,4.963L4.554,4.825L4.689,4.689L4.825,4.554L4.963,4.42L5.103,4.289L5.244,4.159L5.387,4.03L5.532,3.904L5.678,3.779L5.825,3.656L5.974,3.534L6.124,3.414L6.276,3.296L6.429,3.18L6.584,3.066L6.74,2.954L6.898,2.843L7.057,2.734L7.217,2.627L7.379,2.522L7.542,2.419L7.706,2.318L7.872,2.218L8.039,2.121L8.207,2.026L8.376,1.932L8.547,1.841L8.719,1.751L8.892,1.664L9.066,1.579L9.241,1.496L9.418,1.414L9.596,1.335L9.775,1.258L9.955,1.183L10.136,1.111L10.318,1.04L10.501,0.972L10.685,0.905L10.871,0.841L11.057,0.779L11.244,0.72L11.433,0.662L11.622,0.607L11.812,0.555L12.003,0.504L12.195,0.456L12.388,0.41L12.582,0.366L12.777,0.325L12.973,0.287L13.169,0.25L13.367,0.216L13.565,0.184L13.764,0.155L13.963,0.129L14.164,0.104L14.365,0.083L14.567,0.063L14.77,0.047L14.973,0.032L15.177,0.021L15.382,0.012L15.587,0.005L15.793,0.001L16,0L16.207,0.001ZM15.819,2.001L15.638,2.005L15.458,2.01L15.279,2.018L15.1,2.029L14.922,2.041L14.744,2.056L14.567,2.072L14.391,2.091L14.216,2.113L14.041,2.136L13.867,2.162L13.694,2.189L13.521,2.219L13.35,2.251L13.179,2.285L13.008,2.321L12.839,2.359L12.67,2.399L12.502,2.441L12.335,2.485L12.169,2.531L12.003,2.579L11.839,2.629L11.675,2.682L11.512,2.736L11.35,2.792L11.189,2.849L11.029,2.909L10.87,2.971L10.712,3.035L10.554,3.1L10.398,3.167L10.242,3.237L10.088,3.308L9.935,3.38L9.782,3.455L9.631,3.531L9.48,3.61L9.331,3.69L9.183,3.771L9.036,3.855L8.89,3.94L8.745,4.027L8.601,4.115L8.459,4.206L8.317,4.298L8.177,4.391L8.038,4.486L7.9,4.583L7.763,4.682L7.628,4.782L7.493,4.884L7.36,4.987L7.229,5.092L7.098,5.198L6.969,5.306L6.841,5.415L6.715,5.526L6.59,5.639L6.466,5.752L6.343,5.868L6.222,5.985L6.103,6.103L5.985,6.222L5.868,6.343L5.752,6.466L5.639,6.59L5.526,6.715L5.415,6.841L5.306,6.969L5.198,7.098L5.092,7.229L4.987,7.36L4.884,7.493L4.782,7.628L4.682,7.763L4.583,7.9L4.486,8.038L4.391,8.177L4.298,8.317L4.206,8.459L4.115,8.601L4.027,8.745L3.94,8.89L3.855,9.036L3.771,9.183L3.69,9.331L3.61,9.48L3.531,9.631L3.455,9.782L3.38,9.935L3.308,10.088L3.237,10.242L3.167,10.398L3.1,10.554L3.035,10.712L2.971,10.87L2.909,11.029L2.849,11.189L2.792,11.35L2.736,11.512L2.682,11.675L2.629,11.839L2.579,12.003L2.531,12.169L2.485,12.335L2.441,12.502L2.399,12.67L2.359,12.839L2.321,13.008L2.285,13.179L2.251,13.35L2.219,13.521L2.189,13.694L2.162,13.867L2.136,14.041L2.113,14.216L2.091,14.391L2.072,14.567L2.056,14.744L2.041,14.922L2.029,15.1L2.018,15.279L2.01,15.458L2.005,15.638L2.001,15.819L2,16L2.001,16.181L2.005,16.362L2.01,16.542L2.018,16.721L2.029,16.9L2.041,17.078L2.056,17.256L2.072,17.433L2.091,17.609L2.113,17.784L2.136,17.959L2.162,18.133L2.189,18.306L2.219,18.479L2.251,18.65L2.285,18.821L2.321,18.992L2.359,19.161L2.399,19.33L2.441,19.498L2.485,19.665L2.531,19.831L2.579,19.997L2.629,20.161L2.682,20.325L2.736,20.488L2.792,20.65L2.849,20.811L2.909,20.971L2.971,21.13L3.035,21.288L3.1,21.446L3.167,21.602L3.237,21.758L3.308,21.912L3.38,22.065L3.455,22.218L3.531,22.369L3.61,22.52L3.69,22.669L3.771,22.817L3.855,22.964L3.94,23.11L4.027,23.255L4.115,23.399L4.206,23.541L4.298,23.683L4.391,23.823L4.486,23.962L4.583,24.1L4.682,24.237L4.782,24.372L4.884,24.507L4.987,24.64L5.092,24.771L5.198,24.902L5.306,25.031L5.415,25.159L5.526,25.285L5.639,25.41L5.752,25.534L5.868,25.657L5.985,25.778L6.103,25.897L6.222,26.015L6.343,26.132L6.466,26.248L6.59,26.361L6.715,26.474L6.841,26.585L6.969,26.694L7.098,26.802L7.229,26.908L7.36,27.013L7.493,27.116L7.628,27.218L7.763,27.318L7.9,27.417L8.038,27.514L8.177,27.609L8.317,27.702L8.459,27.794L8.601,27.885L8.745,27.973L8.89,28.06L9.036,28.145L9.183,28.229L9.331,28.31L9.48,28.39L9.631,28.469L9.782,28.545L9.935,28.62L10.088,28.692L10.242,28.763L10.398,28.833L10.554,28.9L10.712,28.965L10.87,29.029L11.029,29.091L11.189,29.151L11.35,29.208L11.512,29.264L11.675,29.318L11.839,29.371L12.003,29.421L12.169,29.469L12.335,29.515L12.502,29.559L12.67,29.601L12.839,29.641L13.008,29.679L13.179,29.715L13.35,29.749L13.521,29.781L13.694,29.811L13.867,29.838L14.041,29.864L14.216,29.887L14.391,29.909L14.567,29.928L14.744,29.944L14.922,29.959L15.1,29.971L15.279,29.982L15.458,29.99L15.638,29.995L15.819,29.999L16,30L16.181,29.999L16.362,29.995L16.542,29.99L16.721,29.982L16.9,29.971L17.078,29.959L17.256,29.944L17.433,29.928L17.609,29.909L17.784,29.887L17.959,29.864L18.133,29.838L18.306,29.811L18.479,29.781L18.65,29.749L18.821,29.715L18.992,29.679L19.161,29.641L19.33,29.601L19.498,29.559L19.665,29.515L19.831,29.469L19.997,29.421L20.161,29.371L20.325,29.318L20.488,29.264L20.65,29.208L20.811,29.151L20.971,29.091L21.13,29.029L21.288,28.965L21.446,28.9L21.602,28.833L21.758,28.763L21.912,28.692L22.065,28.62L22.218,28.545L22.369,28.469L22.52,28.39L22.669,28.31L22.817,28.229L22.964,28.145L23.11,28.06L23.255,27.973L23.399,27.885L23.541,27.794L23.683,27.702L23.823,27.609L23.962,27.514L24.1,27.417L24.237,27.318L24.372,27.218L24.507,27.116L24.64,27.013L24.771,26.908L24.902,26.802L25.031,26.694L25.159,26.585L25.285,26.474L25.41,26.361L25.534,26.248L25.657,26.132L25.778,26.015L25.897,25.897L26.015,25.778L26.132,25.657L26.248,25.534L26.361,25.41L26.474,25.285L26.585,25.159L26.694,25.031L26.802,24.902L26.908,24.771L27.013,24.64L27.116,24.507L27.218,24.372L27.318,24.237L27.417,24.1L27.514,23.962L27.609,23.823L27.702,23.683L27.794,23.541L27.885,23.399L27.973,23.255L28.06,23.11L28.145,22.964L28.229,22.817L28.31,22.669L28.39,22.52L28.469,22.369L28.545,22.218L28.62,22.065L28.692,21.912L28.763,21.758L28.833,21.602L28.9,21.446L28.965,21.288L29.029,21.13L29.091,20.971L29.151,20.811L29.208,20.65L29.264,20.488L29.318,20.325L29.371,20.161L29.421,19.997L29.469,19.831L29.515,19.665L29.559,19.498L29.601,19.33L29.641,19.161L29.679,18.992L29.715,18.821L29.749,18.65L29.781,18.479L29.811,18.306L29.838,18.133L29.864,17.959L29.887,17.784L29.909,17.609L29.928,17.433L29.944,17.256L29.959,17.078L29.971,16.9L29.982,16.721L29.99,16.542L29.995,16.362L29.999,16.181L30,16L29.999,15.819L29.995,15.638L29.99,15.458L29.982,15.279L29.971,15.1L29.959,14.922L29.944,14.744L29.928,14.567L29.909,14.391L29.887,14.216L29.864,14.041L29.838,13.867L29.811,13.694L29.781,13.521L29.749,13.35L29.715,13.179L29.679,13.008L29.641,12.839L29.601,12.67L29.559,12.502L29.515,12.335L29.469,12.169L29.421,12.003L29.371,11.839L29.318,11.675L29.264,11.512L29.208,11.35L29.151,11.189L29.091,11.029L29.029,10.87L28.965,10.712L28.9,10.554L28.833,10.398L28.763,10.242L28.692,10.088L28.62,9.935L28.545,9.782L28.469,9.631L28.39,9.48L28.31,9.331L28.229,9.183L28.145,9.036L28.06,8.89L27.973,8.745L27.885,8.601L27.794,8.459L27.702,8.317L27.609,8.177L27.514,8.038L27.417,7.9L27.318,7.763L27.218,7.628L27.116,7.493L27.013,7.36L26.908,7.229L26.802,7.098L26.694,6.969L26.585,6.841L26.474,6.715L26.361,6.59L26.248,6.466L26.132,6.343L26.015,6.222L25.897,6.103L25.778,5.985L25.657,5.868L25.534,5.752L25.41,5.639L25.285,5.526L25.159,5.415L25.031,5.306L24.902,5.198L24.771,5.092L24.64,4.987L24.507,4.884L24.372,4.782L24.237,4.682L24.1,4.583L23.962,4.486L23.823,4.391L23.683,4.298L23.541,4.206L23.399,4.115L23.255,4.027L23.11,3.94L22.964,3.855L22.817,3.771L22.669,3.69L22.52,3.61L22.369,3.531L22.218,3.455L22.065,3.38L21.912,3.308L21.758,3.237L21.602,3.167L21.446,3.1L21.288,3.035L21.13,2.971L20.971,2.909L20.811,2.849L20.65,2.792L20.488,2.736L20.325,2.682L20.161,2.629L19.997,2.579L19.831,2.531L19.665,2.485L19.498,2.441L19.33,2.399L19.161,2.359L18.992,2.321L18.821,2.285L18.65,2.251L18.479,2.219L18.306,2.189L18.133,2.162L17.959,2.136L17.784,2.113L17.609,2.091L17.433,2.072L17.256,2.056L17.078,2.041L16.9,2.029L16.721,2.018L16.542,2.01L16.362,2.005L16.181,2.001L16,2L15.819,2.001Z"/>
        <path d="M16.116,0.001L16.232,0.005L16.348,0.012L16.463,0.021L16.578,0.032L16.692,0.047L16.806,0.063L16.92,0.083L17.033,0.104L17.146,0.129L17.258,0.155L17.37,0.184L17.481,0.216L17.592,0.25L17.703,0.287L17.813,0.325L17.922,0.366L18.031,0.41L18.14,0.456L18.248,0.504L18.356,0.555L18.463,0.607L18.569,0.662L18.675,0.72L18.78,0.779L18.885,0.841L18.99,0.905L19.093,0.972L19.196,1.04L19.299,1.111L19.401,1.183L19.502,1.258L19.602,1.335L19.702,1.414L19.802,1.496L19.9,1.579L19.998,1.664L20.096,1.751L20.192,1.841L20.288,1.932L20.384,2.026L20.478,2.121L20.572,2.218L20.665,2.318L20.758,2.419L20.849,2.522L20.94,2.627L21.031,2.734L21.12,2.843L21.209,2.954L21.296,3.066L21.383,3.18L21.47,3.296L21.555,3.414L21.64,3.534L21.723,3.656L21.806,3.779L21.888,3.904L21.97,4.03L22.05,4.159L22.13,4.289L22.208,4.42L22.286,4.554L22.363,4.689L22.439,4.825L22.514,4.963L22.588,5.103L22.661,5.244L22.733,5.387L22.804,5.532L22.874,5.678L22.944,5.825L23.012,5.974L23.079,6.124L23.146,6.276L23.211,6.429L23.275,6.584L23.339,6.74L23.401,6.898L23.462,7.057L23.522,7.217L23.581,7.379L23.639,7.542L23.696,7.706L23.752,7.872L23.807,8.039L23.861,8.207L23.913,8.376L23.964,8.547L24.015,8.719L24.064,8.892L24.112,9.066L24.159,9.241L24.204,9.418L24.249,9.596L24.292,9.775L24.334,9.955L24.375,10.136L24.415,10.318L24.454,10.501L24.491,10.685L24.527,10.871L24.562,11.057L24.595,11.244L24.627,11.433L24.658,11.622L24.688,11.812L24.716,12.003L24.744,12.195L24.769,12.388L24.794,12.582L24.817,12.777L24.839,12.973L24.859,13.169L24.878,13.367L24.896,13.565L24.913,13.764L24.928,13.963L24.941,14.164L24.953,14.365L24.964,14.567L24.974,14.77L24.982,14.973L24.988,15.177L24.993,15.382L24.997,15.587L24.999,15.793L25,16L24.999,16.207L24.997,16.413L24.993,16.618L24.988,16.823L24.982,17.027L24.974,17.23L24.964,17.433L24.953,17.635L24.941,17.836L24.928,18.037L24.913,18.236L24.896,18.435L24.878,18.633L24.859,18.831L24.839,19.027L24.817,19.223L24.794,19.418L24.769,19.612L24.744,19.805L24.716,19.997L24.688,20.188L24.658,20.378L24.627,20.567L24.595,20.756L24.562,20.943L24.527,21.129L24.491,21.315L24.454,21.499L24.415,21.682L24.375,21.864L24.334,22.045L24.292,22.225L24.249,22.404L24.204,22.582L24.159,22.759L24.112,22.934L24.064,23.108L24.015,23.281L23.964,23.453L23.913,23.624L23.861,23.793L23.807,23.961L23.752,24.128L23.696,24.294L23.639,24.458L23.581,24.621L23.522,24.783L23.462,24.943L23.401,25.102L23.339,25.26L23.275,25.416L23.211,25.571L23.146,25.724L23.079,25.876L23.012,26.026L22.944,26.175L22.874,26.322L22.804,26.468L22.733,26.613L22.661,26.756L22.588,26.897L22.514,27.037L22.439,27.175L22.363,27.311L22.286,27.446L22.208,27.58L22.13,27.711L22.05,27.841L21.97,27.97L21.888,28.096L21.806,28.221L21.723,28.344L21.64,28.466L21.555,28.586L21.47,28.704L21.383,28.82L21.296,28.934L21.209,29.046L21.12,29.157L21.031,29.266L20.94,29.373L20.849,29.478L20.758,29.581L20.665,29.682L20.572,29.782L20.478,29.879L20.384,29.974L20.288,30.068L20.192,30.159L20.096,30.249L19.998,30.336L19.9,30.421L19.802,30.504L19.702,30.586L19.602,30.665L19.502,30.742L19.401,30.817L19.299,30.889L19.196,30.96L19.093,31.028L18.99,31.095L18.885,31.159L18.78,31.221L18.675,31.28L18.569,31.338L18.463,31.393L18.356,31.445L18.248,31.496L18.14,31.544L18.031,31.59L17.922,31.634L17.813,31.675L17.703,31.713L17.592,31.75L17.481,31.784L17.37,31.816L17.258,31.845L17.146,31.871L17.033,31.896L16.92,31.917L16.806,31.937L16.692,31.953L16.578,31.968L16.463,31.979L16.348,31.988L16.232,31.995L16.116,31.999L16,32L15.884,31.999L15.768,31.995L15.652,31.988L15.537,31.979L15.422,31.968L15.308,31.953L15.194,31.937L15.08,31.917L14.967,31.896L14.854,31.871L14.742,31.845L14.63,31.816L14.519,31.784L14.408,31.75L14.297,31.713L14.187,31.675L14.078,31.634L13.969,31.59L13.86,31.544L13.752,31.496L13.644,31.445L13.537,31.393L13.431,31.338L13.325,31.28L13.22,31.221L13.115,31.159L13.01,31.095L12.907,31.028L12.804,30.96L12.701,30.889L12.599,30.817L12.498,30.742L12.398,30.665L12.298,30.586L12.198,30.504L12.1,30.421L12.002,30.336L11.904,30.249L11.808,30.159L11.712,30.068L11.616,29.974L11.522,29.879L11.428,29.782L11.335,29.682L11.242,29.581L11.151,29.478L11.06,29.373L10.969,29.266L10.88,29.157L10.791,29.046L10.704,28.934L10.617,28.82L10.53,28.704L10.445,28.586L10.36,28.466L10.277,28.344L10.194,28.221L10.112,28.096L10.03,27.97L9.95,27.841L9.87,27.711L9.792,27.58L9.714,27.446L9.637,27.311L9.561,27.175L9.486,27.037L9.412,26.897L9.339,26.756L9.267,26.613L9.196,26.468L9.126,26.322L9.056,26.175L8.988,26.026L8.921,25.876L8.854,25.724L8.789,25.571L8.725,25.416L8.661,25.26L8.599,25.102L8.538,24.943L8.478,24.783L8.419,24.621L8.361,24.458L8.304,24.294L8.248,24.128L8.193,23.961L8.139,23.793L8.087,23.624L8.036,23.453L7.985,23.281L7.936,23.108L7.888,22.934L7.841,22.759L7.796,22.582L7.751,22.404L7.708,22.225L7.666,22.045L7.625,21.864L7.585,21.682L7.546,21.499L7.509,21.315L7.473,21.129L7.438,20.943L7.405,20.756L7.373,20.567L7.342,20.378L7.312,20.188L7.284,19.997L7.256,19.805L7.231,19.612L7.206,19.418L7.183,19.223L7.161,19.027L7.141,18.831L7.122,18.633L7.104,18.435L7.087,18.236L7.072,18.037L7.059,17.836L7.047,17.635L7.036,17.433L7.026,17.23L7.018,17.027L7.012,16.823L7.007,16.618L7.003,16.413L7.001,16.207L7,16L7.001,15.793L7.003,15.587L7.007,15.382L7.012,15.177L7.018,14.973L7.026,14.77L7.036,14.567L7.047,14.365L7.059,14.164L7.072,13.963L7.087,13.764L7.104,13.565L7.122,13.367L7.141,13.169L7.161,12.973L7.183,12.777L7.206,12.582L7.231,12.388L7.256,12.195L7.284,12.003L7.312,11.812L7.342,11.622L7.373,11.433L7.405,11.244L7.438,11.057L7.473,10.871L7.509,10.685L7.546,10.501L7.585,10.318L7.625,10.136L7.666,9.955L7.708,9.775L7.751,9.596L7.796,9.418L7.841,9.241L7.888,9.066L7.936,8.892L7.985,8.719L8.036,8.547L8.087,8.376L8.139,8.207L8.193,8.039L8.248,7.872L8.304,7.706L8.361,7.542L8.419,7.379L8.478,7.217L8.538,7.057L8.599,6.898L8.661,6.74L8.725,6.584L8.789,6.429L8.854,6.276L8.921,6.124L8.988,5.974L9.056,5.825L9.126,5.678L9.196,5.532L9.267,5.387L9.339,5.244L9.412,5.103L9.486,4.963L9.561,4.825L9.637,4.689L9.714,4.554L9.792,4.42L9.87,4.289L9.95,4.159L10.03,4.03L10.112,3.904L10.194,3.779L10.277,3.656L10.36,3.534L10.445,3.414L10.53,3.296L10.617,3.18L10.704,3.066L10.791,2.954L10.88,2.843L10.969,2.734L11.06,2.627L11.151,2.522L11.242,2.419L11.335,2.318L11.428,2.218L11.522,2.121L11.616,2.026L11.712,1.932L11.808,1.841L11.904,1.751L12.002,1.664L12.1,1.579L12.198,1.496L12.298,1.414L12.398,1.335L12.498,1.258L12.599,1.183L12.701,1.111L12.804,1.04L12.907,0.972L13.01,0.905L13.115,0.841L13.22,0.779L13.325,0.72L13.431,0.662L13.537,0.607L13.644,0.555L13.752,0.504L13.86,0.456L13.969,0.41L14.078,0.366L14.187,0.325L14.297,0.287L14.408,0.25L14.519,0.216L14.63,0.184L14.742,0.155L14.854,0.129L14.967,0.104L15.08,0.083L15.194,0.063L15.308,0.047L15.422,0.032L15.537,0.021L15.652,0.012L15.768,0.005L15.884,0.001L16,0L16.116,0.001ZM15.929,2.001L15.858,2.003L15.787,2.007L15.717,2.013L15.647,2.02L15.576,2.029L15.506,2.039L15.436,2.051L15.366,2.064L15.296,2.079L15.225,2.096L15.155,2.115L15.084,2.135L15.014,2.156L14.943,2.18L14.872,2.205L14.8,2.232L14.728,2.26L14.657,2.29L14.584,2.323L14.512,2.357L14.439,2.393L14.366,2.43L14.293,2.47L14.22,2.511L14.146,2.555L14.073,2.6L13.999,2.647L13.924,2.697L13.85,2.748L13.775,2.801L13.701,2.856L13.626,2.914L13.551,2.973L13.476,3.034L13.401,3.097L13.326,3.163L13.251,3.23L13.176,3.299L13.101,3.371L13.026,3.444L12.952,3.519L12.877,3.597L12.803,3.676L12.728,3.758L12.654,3.841L12.58,3.926L12.507,4.014L12.433,4.103L12.36,4.194L12.288,4.287L12.215,4.382L12.143,4.479L12.071,4.578L12,4.679L11.929,4.782L11.859,4.886L11.789,4.993L11.72,5.101L11.651,5.211L11.582,5.323L11.514,5.437L11.447,5.552L11.38,5.669L11.314,5.788L11.249,5.909L11.184,6.031L11.12,6.155L11.056,6.28L10.994,6.408L10.932,6.537L10.87,6.667L10.81,6.799L10.75,6.933L10.691,7.068L10.632,7.205L10.575,7.344L10.518,7.483L10.462,7.625L10.407,7.768L10.353,7.912L10.3,8.058L10.248,8.205L10.196,8.353L10.146,8.503L10.096,8.654L10.047,8.807L10,8.961L9.953,9.116L9.907,9.273L9.862,9.43L9.818,9.589L9.776,9.75L9.734,9.911L9.693,10.074L9.653,10.238L9.615,10.403L9.577,10.569L9.541,10.736L9.505,10.905L9.471,11.074L9.438,11.245L9.406,11.417L9.375,11.589L9.345,11.763L9.317,11.938L9.289,12.113L9.263,12.29L9.238,12.468L9.214,12.646L9.191,12.826L9.17,13.006L9.15,13.187L9.131,13.369L9.113,13.552L9.096,13.736L9.081,13.921L9.067,14.106L9.055,14.292L9.043,14.479L9.033,14.667L9.024,14.855L9.017,15.044L9.011,15.234L9.006,15.425L9.003,15.616L9.001,15.808L9,16L9.001,16.192L9.003,16.384L9.006,16.575L9.011,16.766L9.017,16.956L9.024,17.145L9.033,17.333L9.043,17.521L9.055,17.708L9.067,17.894L9.081,18.079L9.096,18.264L9.113,18.448L9.131,18.631L9.15,18.813L9.17,18.994L9.191,19.174L9.214,19.354L9.238,19.532L9.263,19.71L9.289,19.887L9.317,20.062L9.345,20.237L9.375,20.411L9.406,20.583L9.438,20.755L9.471,20.926L9.505,21.095L9.541,21.264L9.577,21.431L9.615,21.597L9.653,21.762L9.693,21.926L9.734,22.089L9.776,22.25L9.818,22.411L9.862,22.57L9.907,22.727L9.953,22.884L10,23.039L10.047,23.193L10.096,23.346L10.146,23.497L10.196,23.647L10.248,23.795L10.3,23.942L10.353,24.088L10.407,24.232L10.462,24.375L10.518,24.517L10.575,24.656L10.632,24.795L10.691,24.932L10.75,25.067L10.81,25.201L10.87,25.333L10.932,25.463L10.994,25.592L11.056,25.72L11.12,25.845L11.184,25.969L11.249,26.091L11.314,26.212L11.38,26.331L11.447,26.448L11.514,26.563L11.582,26.677L11.651,26.789L11.72,26.899L11.789,27.007L11.859,27.114L11.929,27.218L12,27.321L12.071,27.422L12.143,27.521L12.215,27.618L12.287,27.713L12.36,27.806L12.433,27.897L12.507,27.986L12.58,28.074L12.654,28.159L12.728,28.242L12.803,28.324L12.877,28.403L12.952,28.481L13.026,28.556L13.101,28.629L13.176,28.701L13.251,28.77L13.326,28.837L13.401,28.903L13.476,28.966L13.551,29.027L13.626,29.086L13.701,29.144L13.775,29.199L13.85,29.252L13.924,29.303L13.999,29.353L14.073,29.4L14.146,29.445L14.22,29.489L14.293,29.53L14.366,29.57L14.439,29.607L14.512,29.643L14.584,29.677L14.657,29.71L14.728,29.74L14.8,29.768L14.872,29.795L14.943,29.82L15.014,29.844L15.084,29.865L15.155,29.885L15.225,29.904L15.296,29.921L15.366,29.936L15.436,29.949L15.506,29.961L15.576,29.971L15.647,29.98L15.717,29.987L15.787,29.993L15.858,29.997L15.929,29.999L16,30L16.071,29.999L16.142,29.997L16.213,29.993L16.283,29.987L16.353,29.98L16.424,29.971L16.494,29.961L16.564,29.949L16.634,29.936L16.704,29.921L16.775,29.904L16.845,29.885L16.916,29.865L16.986,29.844L17.057,29.82L17.128,29.795L17.2,29.768L17.272,29.74L17.343,29.71L17.416,29.677L17.488,29.643L17.561,29.607L17.634,29.57L17.707,29.53L17.78,29.489L17.854,29.445L17.927,29.4L18.001,29.353L18.076,29.303L18.15,29.252L18.225,29.199L18.299,29.144L18.374,29.086L18.449,29.027L18.524,28.966L18.599,28.903L18.674,28.837L18.749,28.77L18.824,28.701L18.899,28.629L18.974,28.556L19.048,28.481L19.123,28.403L19.197,28.324L19.272,28.242L19.346,28.159L19.42,28.074L19.493,27.986L19.567,27.897L19.64,27.806L19.713,27.713L19.785,27.618L19.857,27.521L19.929,27.422L20,27.321L20.071,27.218L20.141,27.114L20.211,27.007L20.28,26.899L20.349,26.789L20.418,26.677L20.486,26.563L20.553,26.448L20.62,26.331L20.686,26.212L20.751,26.091L20.816,25.969L20.88,25.845L20.944,25.72L21.006,25.592L21.068,25.463L21.13,25.333L21.19,25.201L21.25,25.067L21.309,24.932L21.368,24.795L21.425,24.656L21.482,24.517L21.538,24.375L21.593,24.232L21.647,24.088L21.7,23.942L21.752,23.795L21.804,23.647L21.854,23.497L21.904,23.346L21.953,23.193L22,23.039L22.047,22.884L22.093,22.727L22.138,22.57L22.182,22.411L22.224,22.25L22.266,22.089L22.307,21.926L22.347,21.762L22.385,21.597L22.423,21.431L22.459,21.264L22.495,21.095L22.529,20.926L22.562,20.755L22.594,20.583L22.625,20.411L22.655,20.237L22.683,20.062L22.711,19.887L22.737,19.71L22.762,19.532L22.786,19.354L22.809,19.174L22.83,18.994L22.85,18.813L22.869,18.631L22.887,18.448L22.904,18.264L22.919,18.079L22.933,17.894L22.945,17.708L22.957,17.521L22.967,17.333L22.976,17.145L22.983,16.956L22.989,16.766L22.994,16.575L22.997,16.384L22.999,16.192L23,16L22.999,15.808L22.997,15.616L22.994,15.425L22.989,15.234L22.983,15.044L22.976,14.855L22.967,14.667L22.957,14.479L22.945,14.292L22.933,14.106L22.919,13.921L22.904,13.736L22.887,13.552L22.869,13.369L22.85,13.187L22.83,13.006L22.809,12.826L22.786,12.646L22.762,12.468L22.737,12.29L22.711,12.113L22.683,11.938L22.655,11.763L22.625,11.589L22.594,11.417L22.562,11.245L22.529,11.074L22.495,10.905L22.459,10.736L22.423,10.569L22.385,10.403L22.347,10.238L22.307,10.074L22.266,9.911L22.224,9.75L22.182,9.589L22.138,9.43L22.093,9.273L22.047,9.116L22,8.961L21.953,8.807L21.904,8.654L21.854,8.503L21.804,8.353L21.752,8.205L21.7,8.058L21.647,7.912L21.593,7.768L21.538,7.625L21.482,7.483L21.425,7.344L21.368,7.205L21.309,7.068L21.25,6.933L21.19,6.799L21.13,6.667L21.068,6.537L21.006,6.408L20.944,6.28L20.88,6.155L20.816,6.031L20.751,5.909L20.686,5.788L20.62,5.669L20.553,5.552L20.486,5.437L20.418,5.323L20.349,5.211L20.28,5.101L20.211,4.993L20.141,4.886L20.071,4.782L20,4.679L19.929,4.578L19.857,4.479L19.785,4.382L19.712,4.287L19.64,4.194L19.567,4.103L19.493,4.014L19.42,3.926L19.346,3.841L19.272,3.758L19.197,3.676L19.123,3.597L19.048,3.519L18.974,3.444L18.899,3.371L18.824,3.299L18.749,3.23L18.674,3.163L18.599,3.097L18.524,3.034L18.449,2.973L18.374,2.914L18.299,2.856L18.225,2.801L18.15,2.748L18.076,2.697L18.001,2.647L17.927,2.6L17.854,2.555L17.78,2.511L17.707,2.47L17.634,2.43L17.561,2.393L17.488,2.357L17.416,2.323L17.343,2.29L17.272,2.26L17.2,2.232L17.128,2.205L17.057,2.18L16.986,2.156L16.916,2.135L16.845,2.115L16.775,2.096L16.704,2.079L16.634,2.064L16.564,2.051L16.494,2.039L16.424,2.029L16.353,2.02L16.283,2.013L16.213,2.007L16.142,2.003L16.071,2.001L16,2L15.929,2.001Z"/>
        <rect x="2.5" y="10" width="27.5" height="2"/>
        <rect x="2" y="20" width="28.5" height="2"/>
    </g>
</svg>
