<?xml version="1.0" encoding="UTF-8" standalone="no"?>
<!DOCTYPE svg PUBLIC "-//W3C//DTD SVG 1.1//EN" "http://www.w3.org/Graphics/SVG/1.1/DTD/svg11.dtd">
<svg width="100%" height="100%" viewBox="0 0 32 32" version="1.1" xmlns="http://www.w3.org/2000/svg" xmlns:xlink="http://www.w3.org/1999/xlink" xml:space="preserve" xmlns:serif="http://www.serif.com/" style="fill-rule:evenodd;clip-rule:evenodd;stroke-linejoin:round;stroke-miterlimit:1.41421;">
    <g id="Main">
        <path d="M16.181,2.001L16.361,2.005L16.541,2.01L16.72,2.018L16.899,2.028L17.077,2.041L17.254,2.055L17.431,2.072L17.607,2.091L17.782,2.113L17.957,2.136L18.131,2.161L18.304,2.189L18.477,2.219L18.649,2.251L18.82,2.285L18.99,2.321L19.16,2.359L19.329,2.399L19.497,2.441L19.664,2.485L19.831,2.531L19.996,2.58L20.161,2.63L20.325,2.682L20.488,2.736L20.65,2.792L20.812,2.85L20.972,2.91L21.131,2.972L21.29,3.035L21.447,3.101L21.604,3.168L21.759,3.238L21.914,3.309L22.067,3.381L22.22,3.456L22.371,3.533L22.522,3.611L22.671,3.691L22.819,3.772L22.966,3.856L23.112,3.941L23.257,4.028L23.401,4.117L23.544,4.207L23.685,4.299L23.825,4.392L23.964,4.488L24.102,4.584L24.239,4.683L24.374,4.783L24.508,4.884L24.641,4.988L24.773,5.092L24.903,5.199L25.032,5.306L25.16,5.416L25.286,5.526L25.411,5.639L25.535,5.753L25.657,5.868L25.778,5.984L25.898,6.102L26.016,6.222L26.132,6.343L26.247,6.465L26.361,6.589L26.474,6.714L26.584,6.84L26.694,6.968L26.801,7.097L26.908,7.227L27.012,7.359L27.116,7.492L27.217,7.626L27.317,7.761L27.416,7.898L27.512,8.036L27.608,8.175L27.701,8.315L27.793,8.456L27.883,8.599L27.972,8.743L28.059,8.888L28.144,9.034L28.228,9.181L28.309,9.329L28.389,9.478L28.467,9.629L28.544,9.78L28.619,9.933L28.691,10.086L28.762,10.241L28.832,10.396L28.899,10.553L28.965,10.71L29.028,10.869L29.09,11.028L29.15,11.188L29.208,11.35L29.264,11.512L29.318,11.675L29.37,11.839L29.42,12.004L29.469,12.169L29.515,12.336L29.559,12.503L29.601,12.671L29.641,12.84L29.679,13.01L29.715,13.18L29.749,13.351L29.781,13.523L29.811,13.696L29.839,13.869L29.864,14.043L29.887,14.218L29.909,14.393L29.928,14.569L29.945,14.746L29.959,14.923L29.972,15.101L29.982,15.28L29.99,15.459L29.995,15.639L29.999,15.819L30,16L29.999,16.181L29.995,16.361L29.99,16.541L29.982,16.72L29.972,16.899L29.959,17.077L29.945,17.254L29.928,17.431L29.909,17.607L29.887,17.782L29.864,17.957L29.839,18.131L29.811,18.304L29.781,18.477L29.749,18.649L29.715,18.82L29.679,18.99L29.641,19.16L29.601,19.329L29.559,19.497L29.515,19.664L29.469,19.831L29.42,19.996L29.37,20.161L29.318,20.325L29.264,20.488L29.208,20.65L29.15,20.812L29.09,20.972L29.028,21.131L28.965,21.29L28.899,21.447L28.832,21.604L28.762,21.759L28.691,21.914L28.619,22.067L28.544,22.22L28.467,22.371L28.389,22.522L28.309,22.671L28.228,22.819L28.144,22.966L28.059,23.112L27.972,23.257L27.883,23.401L27.793,23.544L27.701,23.685L27.608,23.825L27.512,23.964L27.416,24.102L27.317,24.239L27.217,24.374L27.116,24.508L27.012,24.641L26.908,24.773L26.801,24.903L26.694,25.032L26.584,25.16L26.474,25.286L26.361,25.411L26.247,25.535L26.132,25.657L26.016,25.778L25.898,25.898L25.778,26.016L25.657,26.132L25.535,26.247L25.411,26.361L25.286,26.474L25.16,26.584L25.032,26.694L24.903,26.801L24.773,26.908L24.641,27.012L24.508,27.116L24.374,27.217L24.239,27.317L24.102,27.416L23.964,27.512L23.825,27.608L23.685,27.701L23.544,27.793L23.401,27.883L23.257,27.972L23.112,28.059L22.966,28.144L22.819,28.228L22.671,28.309L22.522,28.389L22.371,28.467L22.22,28.544L22.067,28.619L21.914,28.691L21.759,28.762L21.604,28.832L21.447,28.899L21.29,28.965L21.131,29.028L20.972,29.09L20.812,29.15L20.65,29.208L20.488,29.264L20.325,29.318L20.161,29.37L19.996,29.42L19.831,29.469L19.664,29.515L19.497,29.559L19.329,29.601L19.16,29.641L18.99,29.679L18.82,29.715L18.649,29.749L18.477,29.781L18.304,29.811L18.131,29.839L17.957,29.864L17.782,29.887L17.607,29.909L17.431,29.928L17.254,29.945L17.077,29.959L16.899,29.972L16.72,29.982L16.541,29.99L16.361,29.995L16.181,29.999L16,30L15.819,29.999L15.639,29.995L15.459,29.99L15.28,29.982L15.101,29.972L14.923,29.959L14.746,29.945L14.569,29.928L14.393,29.909L14.218,29.887L14.043,29.864L13.869,29.839L13.696,29.811L13.523,29.781L13.351,29.749L13.18,29.715L13.01,29.679L12.84,29.641L12.671,29.601L12.503,29.559L12.336,29.515L12.169,29.469L12.004,29.42L11.839,29.37L11.675,29.318L11.512,29.264L11.35,29.208L11.188,29.15L11.028,29.09L10.869,29.028L10.71,28.965L10.553,28.899L10.396,28.832L10.241,28.762L10.086,28.691L9.933,28.619L9.78,28.544L9.629,28.467L9.478,28.389L9.329,28.309L9.181,28.228L9.034,28.144L8.888,28.059L8.743,27.972L8.599,27.883L8.456,27.793L8.315,27.701L8.175,27.608L8.036,27.512L7.898,27.416L7.761,27.317L7.626,27.217L7.492,27.116L7.359,27.012L7.227,26.908L7.097,26.801L6.968,26.694L6.84,26.584L6.714,26.474L6.589,26.361L6.465,26.247L6.343,26.132L6.222,26.016L6.102,25.898L5.984,25.778L5.868,25.657L5.753,25.535L5.639,25.411L5.526,25.286L5.416,25.16L5.306,25.032L5.199,24.903L5.092,24.773L4.988,24.641L4.884,24.508L4.783,24.374L4.683,24.239L4.584,24.102L4.488,23.964L4.392,23.825L4.299,23.685L4.207,23.544L4.117,23.401L4.028,23.257L3.941,23.112L3.856,22.966L3.772,22.819L3.691,22.671L3.611,22.522L3.533,22.371L3.456,22.22L3.381,22.067L3.309,21.914L3.238,21.759L3.168,21.604L3.101,21.447L3.035,21.29L2.972,21.131L2.91,20.972L2.85,20.812L2.792,20.65L2.736,20.488L2.682,20.325L2.63,20.161L2.58,19.996L2.531,19.831L2.485,19.664L2.441,19.497L2.399,19.329L2.359,19.16L2.321,18.99L2.285,18.82L2.251,18.649L2.219,18.477L2.189,18.304L2.161,18.131L2.136,17.957L2.113,17.782L2.091,17.607L2.072,17.431L2.055,17.254L2.041,17.077L2.028,16.899L2.018,16.72L2.01,16.541L2.005,16.361L2.001,16.181L2,16L2.001,15.819L2.005,15.639L2.01,15.459L2.018,15.28L2.028,15.101L2.041,14.923L2.055,14.746L2.072,14.569L2.091,14.393L2.113,14.218L2.136,14.043L2.161,13.869L2.189,13.696L2.219,13.523L2.251,13.351L2.285,13.18L2.321,13.01L2.359,12.84L2.399,12.671L2.441,12.503L2.485,12.336L2.531,12.169L2.58,12.004L2.63,11.839L2.682,11.675L2.736,11.512L2.792,11.35L2.85,11.188L2.91,11.028L2.972,10.869L3.035,10.71L3.101,10.553L3.168,10.396L3.238,10.241L3.309,10.086L3.381,9.933L3.456,9.78L3.533,9.629L3.611,9.478L3.691,9.329L3.772,9.181L3.856,9.034L3.941,8.888L4.028,8.743L4.117,8.599L4.207,8.456L4.299,8.315L4.392,8.175L4.488,8.036L4.584,7.898L4.683,7.761L4.783,7.626L4.884,7.492L4.988,7.359L5.092,7.227L5.199,7.097L5.306,6.968L5.416,6.84L5.526,6.714L5.639,6.589L5.753,6.465L5.868,6.343L5.984,6.222L6.102,6.102L6.222,5.984L6.343,5.868L6.465,5.753L6.589,5.639L6.714,5.526L6.84,5.416L6.968,5.306L7.097,5.199L7.227,5.092L7.359,4.988L7.492,4.884L7.626,4.783L7.761,4.683L7.898,4.584L8.036,4.488L8.175,4.392L8.315,4.299L8.456,4.207L8.599,4.117L8.743,4.028L8.888,3.941L9.034,3.856L9.181,3.772L9.329,3.691L9.478,3.611L9.629,3.533L9.78,3.456L9.933,3.381L10.086,3.309L10.241,3.238L10.396,3.168L10.553,3.101L10.71,3.035L10.869,2.972L11.028,2.91L11.188,2.85L11.35,2.792L11.512,2.736L11.675,2.682L11.839,2.63L12.004,2.58L12.169,2.531L12.336,2.485L12.503,2.441L12.671,2.399L12.84,2.359L13.01,2.321L13.18,2.285L13.351,2.251L13.523,2.219L13.696,2.189L13.869,2.161L14.043,2.136L14.218,2.113L14.393,2.091L14.569,2.072L14.746,2.055L14.923,2.041L15.101,2.028L15.28,2.018L15.459,2.01L15.639,2.005L15.819,2.001L16,2L16.181,2.001ZM15.845,4.001L15.69,4.004L15.535,4.009L15.381,4.016L15.228,4.024L15.075,4.035L14.923,4.048L14.772,4.062L14.621,4.078L14.47,4.097L14.321,4.117L14.172,4.138L14.023,4.162L13.875,4.188L13.728,4.215L13.581,4.244L13.435,4.275L13.29,4.307L13.146,4.342L13.002,4.378L12.859,4.416L12.716,4.455L12.574,4.497L12.433,4.54L12.293,4.584L12.153,4.63L12.015,4.678L11.877,4.728L11.739,4.779L11.603,4.832L11.467,4.887L11.332,4.943L11.198,5L11.065,5.06L10.933,5.121L10.801,5.183L10.671,5.247L10.541,5.312L10.412,5.379L10.284,5.448L10.157,5.518L10.031,5.59L9.906,5.663L9.782,5.737L9.658,5.813L9.536,5.89L9.415,5.969L9.295,6.049L9.175,6.131L9.057,6.214L8.94,6.299L8.824,6.384L8.709,6.472L8.595,6.56L8.482,6.65L8.37,6.741L8.259,6.834L8.15,6.927L8.041,7.022L7.934,7.119L7.828,7.216L7.723,7.315L7.619,7.415L7.517,7.517L7.415,7.619L7.315,7.723L7.216,7.828L7.119,7.934L7.022,8.041L6.927,8.15L6.834,8.259L6.741,8.37L6.65,8.482L6.56,8.595L6.472,8.709L6.384,8.824L6.299,8.94L6.214,9.057L6.131,9.175L6.049,9.295L5.969,9.415L5.89,9.536L5.813,9.658L5.737,9.782L5.663,9.906L5.59,10.031L5.518,10.157L5.448,10.284L5.379,10.412L5.312,10.541L5.247,10.671L5.183,10.801L5.121,10.933L5.06,11.065L5,11.198L4.943,11.332L4.887,11.467L4.832,11.603L4.779,11.739L4.728,11.877L4.678,12.015L4.63,12.153L4.584,12.293L4.54,12.433L4.497,12.574L4.455,12.716L4.416,12.859L4.378,13.002L4.342,13.146L4.307,13.29L4.275,13.435L4.244,13.581L4.215,13.728L4.188,13.875L4.162,14.023L4.138,14.172L4.117,14.321L4.097,14.47L4.078,14.621L4.062,14.772L4.048,14.923L4.035,15.075L4.024,15.228L4.016,15.381L4.009,15.535L4.004,15.69L4.001,15.845L4,16L4.001,16.155L4.004,16.31L4.009,16.465L4.016,16.619L4.024,16.772L4.035,16.925L4.048,17.077L4.062,17.228L4.078,17.379L4.097,17.53L4.117,17.679L4.138,17.828L4.162,17.977L4.188,18.125L4.215,18.272L4.244,18.419L4.275,18.565L4.307,18.71L4.342,18.854L4.378,18.998L4.416,19.141L4.455,19.284L4.497,19.426L4.539,19.567L4.584,19.707L4.63,19.847L4.678,19.985L4.728,20.123L4.779,20.261L4.832,20.397L4.887,20.533L4.943,20.668L5,20.802L5.06,20.935L5.121,21.067L5.183,21.199L5.247,21.329L5.312,21.459L5.379,21.588L5.448,21.716L5.518,21.843L5.59,21.969L5.663,22.094L5.737,22.218L5.813,22.342L5.89,22.464L5.969,22.585L6.049,22.705L6.131,22.825L6.214,22.943L6.299,23.06L6.384,23.176L6.472,23.291L6.56,23.405L6.65,23.518L6.741,23.63L6.834,23.741L6.927,23.85L7.022,23.959L7.119,24.066L7.216,24.172L7.315,24.277L7.415,24.381L7.517,24.483L7.619,24.585L7.723,24.685L7.828,24.784L7.934,24.881L8.041,24.978L8.15,25.073L8.259,25.166L8.37,25.259L8.482,25.35L8.595,25.44L8.709,25.528L8.824,25.616L8.94,25.701L9.057,25.786L9.175,25.869L9.295,25.951L9.415,26.031L9.536,26.11L9.658,26.187L9.782,26.263L9.906,26.337L10.031,26.41L10.157,26.482L10.284,26.552L10.412,26.621L10.541,26.688L10.671,26.753L10.801,26.817L10.933,26.879L11.065,26.94L11.198,27L11.332,27.057L11.467,27.113L11.603,27.168L11.739,27.221L11.877,27.272L12.015,27.322L12.153,27.37L12.293,27.416L12.433,27.46L12.574,27.503L12.716,27.545L12.859,27.584L13.002,27.622L13.146,27.658L13.29,27.693L13.435,27.725L13.581,27.756L13.728,27.785L13.875,27.812L14.023,27.838L14.172,27.862L14.321,27.883L14.47,27.903L14.621,27.922L14.772,27.938L14.923,27.952L15.075,27.965L15.228,27.976L15.381,27.984L15.535,27.991L15.69,27.996L15.845,27.999L16,28L16.155,27.999L16.31,27.996L16.465,27.991L16.619,27.984L16.772,27.976L16.925,27.965L17.077,27.952L17.228,27.938L17.379,27.922L17.53,27.903L17.679,27.883L17.828,27.862L17.977,27.838L18.125,27.812L18.272,27.785L18.419,27.756L18.565,27.725L18.71,27.693L18.854,27.658L18.998,27.622L19.141,27.584L19.284,27.545L19.426,27.503L19.567,27.46L19.707,27.416L19.847,27.37L19.985,27.322L20.123,27.272L20.261,27.221L20.397,27.168L20.533,27.113L20.668,27.057L20.802,27L20.935,26.94L21.067,26.879L21.199,26.817L21.329,26.753L21.459,26.688L21.588,26.621L21.716,26.552L21.843,26.482L21.969,26.41L22.094,26.337L22.218,26.263L22.342,26.187L22.464,26.11L22.585,26.031L22.705,25.951L22.825,25.869L22.943,25.786L23.06,25.701L23.176,25.616L23.291,25.528L23.405,25.44L23.518,25.35L23.63,25.259L23.741,25.166L23.85,25.073L23.959,24.978L24.066,24.881L24.172,24.784L24.277,24.685L24.381,24.585L24.483,24.483L24.585,24.381L24.685,24.277L24.784,24.172L24.881,24.066L24.978,23.959L25.073,23.85L25.166,23.741L25.259,23.63L25.35,23.518L25.44,23.405L25.528,23.291L25.616,23.176L25.701,23.06L25.786,22.943L25.869,22.825L25.951,22.705L26.031,22.585L26.11,22.464L26.187,22.342L26.263,22.218L26.337,22.094L26.41,21.969L26.482,21.843L26.552,21.716L26.621,21.588L26.688,21.459L26.753,21.329L26.817,21.199L26.879,21.067L26.94,20.935L27,20.802L27.057,20.668L27.113,20.533L27.168,20.397L27.221,20.261L27.272,20.123L27.322,19.985L27.37,19.847L27.416,19.707L27.46,19.567L27.503,19.426L27.545,19.284L27.584,19.141L27.622,18.998L27.658,18.854L27.693,18.71L27.725,18.565L27.756,18.419L27.785,18.272L27.812,18.125L27.838,17.977L27.862,17.828L27.883,17.679L27.903,17.53L27.922,17.379L27.938,17.228L27.952,17.077L27.965,16.925L27.976,16.772L27.984,16.619L27.991,16.465L27.996,16.31L27.999,16.155L28,16L27.999,15.845L27.996,15.69L27.991,15.535L27.984,15.381L27.976,15.228L27.965,15.075L27.952,14.923L27.938,14.772L27.922,14.621L27.903,14.47L27.883,14.321L27.862,14.172L27.838,14.023L27.812,13.875L27.785,13.728L27.756,13.581L27.725,13.435L27.693,13.29L27.658,13.146L27.622,13.002L27.584,12.859L27.545,12.716L27.503,12.574L27.46,12.433L27.416,12.293L27.37,12.153L27.322,12.015L27.272,11.877L27.221,11.739L27.168,11.603L27.113,11.467L27.057,11.332L27,11.198L26.94,11.065L26.879,10.933L26.817,10.801L26.753,10.671L26.688,10.541L26.621,10.412L26.552,10.284L26.482,10.157L26.41,10.031L26.337,9.906L26.263,9.782L26.187,9.658L26.11,9.536L26.031,9.415L25.951,9.295L25.869,9.175L25.786,9.057L25.701,8.94L25.616,8.824L25.528,8.709L25.44,8.595L25.35,8.482L25.259,8.37L25.166,8.259L25.073,8.15L24.978,8.041L24.881,7.934L24.784,7.828L24.685,7.723L24.585,7.619L24.483,7.517L24.381,7.415L24.277,7.315L24.172,7.216L24.066,7.119L23.959,7.022L23.85,6.927L23.741,6.834L23.63,6.741L23.518,6.65L23.405,6.56L23.291,6.472L23.176,6.384L23.06,6.299L22.943,6.214L22.825,6.131L22.705,6.049L22.585,5.969L22.464,5.89L22.342,5.813L22.218,5.737L22.094,5.663L21.969,5.59L21.843,5.518L21.716,5.448L21.588,5.379L21.459,5.312L21.329,5.247L21.199,5.183L21.067,5.121L20.935,5.06L20.802,5L20.668,4.943L20.533,4.887L20.397,4.832L20.261,4.779L20.123,4.728L19.985,4.678L19.847,4.63L19.707,4.584L19.567,4.539L19.426,4.497L19.284,4.455L19.141,4.416L18.998,4.378L18.854,4.342L18.71,4.307L18.565,4.275L18.419,4.244L18.272,4.215L18.125,4.188L17.977,4.162L17.828,4.138L17.679,4.117L17.53,4.097L17.379,4.078L17.228,4.062L17.077,4.048L16.925,4.035L16.772,4.024L16.619,4.016L16.465,4.009L16.31,4.004L16.155,4.001L16,4L15.845,4.001Z"/>
        <rect x="15" y="0" width="2" height="3.5"/>
        <rect x="15" y="28.75" width="2" height="3.5"/>
        <rect x="29" y="15" width="3" height="2"/>
        <rect x="0" y="15" width="3" height="2"/>
        <path d="M16.103,8.001L16.206,8.003L16.309,8.006L16.411,8.01L16.513,8.016L16.615,8.023L16.716,8.032L16.817,8.041L16.918,8.052L17.018,8.064L17.118,8.078L17.218,8.092L17.317,8.108L17.415,8.125L17.514,8.143L17.611,8.163L17.709,8.183L17.806,8.205L17.902,8.228L17.998,8.252L18.094,8.277L18.189,8.304L18.284,8.331L18.378,8.36L18.472,8.39L18.565,8.421L18.657,8.453L18.749,8.486L18.841,8.52L18.932,8.555L19.023,8.592L19.113,8.629L19.202,8.668L19.291,8.707L19.379,8.748L19.467,8.789L19.554,8.832L19.641,8.876L19.727,8.92L19.812,8.966L19.897,9.013L19.981,9.061L20.064,9.109L20.147,9.159L20.229,9.209L20.311,9.261L20.391,9.314L20.472,9.367L20.551,9.421L20.63,9.477L20.708,9.533L20.785,9.59L20.862,9.648L20.938,9.707L21.013,9.767L21.088,9.828L21.161,9.889L21.234,9.952L21.306,10.015L21.378,10.079L21.449,10.144L21.518,10.21L21.587,10.277L21.656,10.344L21.723,10.413L21.79,10.482L21.856,10.551L21.921,10.622L21.985,10.694L22.048,10.766L22.111,10.839L22.172,10.912L22.233,10.987L22.293,11.062L22.352,11.138L22.41,11.215L22.467,11.292L22.523,11.37L22.579,11.449L22.633,11.528L22.686,11.609L22.739,11.689L22.791,11.771L22.841,11.853L22.891,11.936L22.939,12.019L22.987,12.103L23.034,12.188L23.08,12.273L23.124,12.359L23.168,12.446L23.211,12.533L23.252,12.621L23.293,12.709L23.332,12.798L23.371,12.887L23.408,12.977L23.445,13.068L23.48,13.159L23.514,13.251L23.547,13.343L23.579,13.435L23.61,13.528L23.64,13.622L23.669,13.716L23.696,13.811L23.723,13.906L23.748,14.002L23.772,14.098L23.795,14.194L23.817,14.291L23.837,14.389L23.857,14.486L23.875,14.585L23.892,14.683L23.908,14.782L23.922,14.882L23.936,14.982L23.948,15.082L23.959,15.183L23.968,15.284L23.977,15.385L23.984,15.487L23.99,15.589L23.994,15.691L23.997,15.794L23.999,15.897L24,16L23.999,16.103L23.997,16.206L23.994,16.309L23.99,16.411L23.984,16.513L23.977,16.615L23.968,16.716L23.959,16.817L23.948,16.918L23.936,17.018L23.922,17.118L23.908,17.218L23.892,17.317L23.875,17.415L23.857,17.514L23.837,17.611L23.817,17.709L23.795,17.806L23.772,17.902L23.748,17.998L23.723,18.094L23.696,18.189L23.669,18.284L23.64,18.378L23.61,18.472L23.579,18.565L23.547,18.657L23.514,18.749L23.48,18.841L23.445,18.932L23.408,19.023L23.371,19.113L23.332,19.202L23.293,19.291L23.252,19.379L23.211,19.467L23.168,19.554L23.124,19.641L23.08,19.727L23.034,19.812L22.987,19.897L22.939,19.981L22.891,20.064L22.841,20.147L22.791,20.229L22.739,20.311L22.686,20.391L22.633,20.472L22.579,20.551L22.523,20.63L22.467,20.708L22.41,20.785L22.352,20.862L22.293,20.938L22.233,21.013L22.172,21.088L22.111,21.161L22.048,21.234L21.985,21.306L21.921,21.378L21.856,21.449L21.79,21.518L21.723,21.587L21.656,21.656L21.587,21.723L21.518,21.79L21.449,21.856L21.378,21.921L21.306,21.985L21.234,22.048L21.161,22.111L21.088,22.172L21.013,22.233L20.938,22.293L20.862,22.352L20.785,22.41L20.708,22.467L20.63,22.523L20.551,22.579L20.472,22.633L20.391,22.686L20.311,22.739L20.229,22.791L20.147,22.841L20.064,22.891L19.981,22.939L19.897,22.987L19.812,23.034L19.727,23.08L19.641,23.124L19.554,23.168L19.467,23.211L19.379,23.252L19.291,23.293L19.202,23.332L19.113,23.371L19.023,23.408L18.932,23.445L18.841,23.48L18.749,23.514L18.657,23.547L18.565,23.579L18.472,23.61L18.378,23.64L18.284,23.669L18.189,23.696L18.094,23.723L17.998,23.748L17.902,23.772L17.806,23.795L17.709,23.817L17.611,23.837L17.514,23.857L17.415,23.875L17.317,23.892L17.218,23.908L17.118,23.922L17.018,23.936L16.918,23.948L16.817,23.959L16.716,23.968L16.615,23.977L16.513,23.984L16.411,23.99L16.309,23.994L16.206,23.997L16.103,23.999L16,24L15.897,23.999L15.794,23.997L15.691,23.994L15.589,23.99L15.487,23.984L15.385,23.977L15.284,23.968L15.183,23.959L15.082,23.948L14.982,23.936L14.882,23.922L14.782,23.908L14.683,23.892L14.585,23.875L14.486,23.857L14.389,23.837L14.291,23.817L14.194,23.795L14.098,23.772L14.002,23.748L13.906,23.723L13.811,23.696L13.716,23.669L13.622,23.64L13.528,23.61L13.435,23.579L13.343,23.547L13.251,23.514L13.159,23.48L13.068,23.445L12.977,23.408L12.887,23.371L12.798,23.332L12.709,23.293L12.621,23.252L12.533,23.211L12.446,23.168L12.359,23.124L12.273,23.08L12.188,23.034L12.103,22.987L12.019,22.939L11.936,22.891L11.853,22.841L11.771,22.791L11.689,22.739L11.609,22.686L11.528,22.633L11.449,22.579L11.37,22.523L11.292,22.467L11.215,22.41L11.138,22.352L11.062,22.293L10.987,22.233L10.912,22.172L10.839,22.111L10.766,22.048L10.694,21.985L10.622,21.921L10.551,21.856L10.482,21.79L10.413,21.723L10.344,21.656L10.277,21.587L10.21,21.518L10.144,21.449L10.079,21.378L10.015,21.306L9.952,21.234L9.889,21.161L9.828,21.088L9.767,21.013L9.707,20.938L9.648,20.862L9.59,20.785L9.533,20.708L9.477,20.63L9.421,20.551L9.367,20.472L9.314,20.391L9.261,20.311L9.209,20.229L9.159,20.147L9.109,20.064L9.061,19.981L9.013,19.897L8.966,19.812L8.92,19.727L8.876,19.641L8.832,19.554L8.789,19.467L8.748,19.379L8.707,19.291L8.668,19.202L8.629,19.113L8.592,19.023L8.555,18.932L8.52,18.841L8.486,18.749L8.453,18.657L8.421,18.565L8.39,18.472L8.36,18.378L8.331,18.284L8.304,18.189L8.277,18.094L8.252,17.998L8.228,17.902L8.205,17.806L8.183,17.709L8.163,17.611L8.143,17.514L8.125,17.415L8.108,17.317L8.092,17.218L8.078,17.118L8.064,17.018L8.052,16.918L8.041,16.817L8.032,16.716L8.023,16.615L8.016,16.513L8.01,16.411L8.006,16.309L8.003,16.206L8.001,16.103L8,16L8.001,15.897L8.003,15.794L8.006,15.691L8.01,15.589L8.016,15.487L8.023,15.385L8.032,15.284L8.041,15.183L8.052,15.082L8.064,14.982L8.078,14.882L8.092,14.782L8.108,14.683L8.125,14.585L8.143,14.486L8.163,14.389L8.183,14.291L8.205,14.194L8.228,14.098L8.252,14.002L8.277,13.906L8.304,13.811L8.331,13.716L8.36,13.622L8.39,13.528L8.421,13.435L8.453,13.343L8.486,13.251L8.52,13.159L8.555,13.068L8.592,12.977L8.629,12.887L8.668,12.798L8.707,12.709L8.748,12.621L8.789,12.533L8.832,12.446L8.876,12.359L8.92,12.273L8.966,12.188L9.013,12.103L9.061,12.019L9.109,11.936L9.159,11.853L9.209,11.771L9.261,11.689L9.314,11.609L9.367,11.528L9.421,11.449L9.477,11.37L9.533,11.292L9.59,11.215L9.648,11.138L9.707,11.062L9.767,10.987L9.828,10.912L9.889,10.839L9.952,10.766L10.015,10.694L10.079,10.622L10.144,10.551L10.21,10.482L10.277,10.413L10.344,10.344L10.413,10.277L10.482,10.21L10.551,10.144L10.622,10.079L10.694,10.015L10.766,9.952L10.839,9.889L10.912,9.828L10.987,9.767L11.062,9.707L11.138,9.648L11.215,9.59L11.292,9.533L11.37,9.477L11.449,9.421L11.528,9.367L11.609,9.314L11.689,9.261L11.771,9.209L11.853,9.159L11.936,9.109L12.019,9.061L12.103,9.013L12.188,8.966L12.273,8.92L12.359,8.876L12.446,8.832L12.533,8.789L12.621,8.748L12.709,8.707L12.798,8.668L12.887,8.629L12.977,8.592L13.068,8.555L13.159,8.52L13.251,8.486L13.343,8.453L13.435,8.421L13.528,8.39L13.622,8.36L13.716,8.331L13.811,8.304L13.906,8.277L14.002,8.252L14.098,8.228L14.194,8.205L14.291,8.183L14.389,8.163L14.486,8.143L14.585,8.125L14.683,8.108L14.782,8.092L14.882,8.078L14.982,8.064L15.082,8.052L15.183,8.041L15.284,8.032L15.385,8.023L15.487,8.016L15.589,8.01L15.691,8.006L15.794,8.003L15.897,8.001L16,8L16.103,8.001ZM15.922,10.001L15.844,10.002L15.767,10.004L15.69,10.008L15.613,10.012L15.537,10.018L15.461,10.024L15.385,10.031L15.309,10.039L15.234,10.048L15.159,10.058L15.085,10.069L15.011,10.081L14.937,10.094L14.863,10.107L14.79,10.122L14.717,10.137L14.645,10.154L14.572,10.171L14.5,10.189L14.429,10.208L14.358,10.228L14.287,10.248L14.217,10.27L14.147,10.292L14.077,10.315L14.008,10.339L13.939,10.364L13.87,10.389L13.802,10.416L13.734,10.443L13.667,10.471L13.6,10.5L13.533,10.529L13.467,10.56L13.402,10.591L13.336,10.623L13.271,10.656L13.207,10.689L13.143,10.723L13.08,10.758L13.017,10.794L12.954,10.831L12.892,10.868L12.83,10.906L12.769,10.945L12.708,10.984L12.648,11.024L12.589,11.065L12.53,11.107L12.471,11.149L12.413,11.192L12.355,11.235L12.298,11.28L12.242,11.325L12.186,11.37L12.13,11.417L12.075,11.463L12.021,11.511L11.967,11.559L11.914,11.608L11.862,11.658L11.81,11.708L11.758,11.758L11.708,11.81L11.658,11.862L11.608,11.914L11.559,11.967L11.511,12.021L11.463,12.075L11.417,12.13L11.37,12.186L11.325,12.242L11.28,12.298L11.235,12.355L11.192,12.413L11.149,12.471L11.107,12.53L11.065,12.589L11.024,12.648L10.984,12.708L10.945,12.769L10.906,12.83L10.868,12.892L10.831,12.954L10.794,13.017L10.758,13.08L10.723,13.143L10.689,13.207L10.656,13.271L10.623,13.336L10.591,13.402L10.56,13.467L10.529,13.533L10.5,13.6L10.471,13.667L10.443,13.734L10.416,13.802L10.389,13.87L10.364,13.939L10.339,14.008L10.315,14.077L10.292,14.147L10.27,14.217L10.248,14.287L10.228,14.358L10.208,14.429L10.189,14.5L10.171,14.572L10.154,14.645L10.137,14.717L10.122,14.79L10.107,14.863L10.094,14.937L10.081,15.011L10.069,15.085L10.058,15.159L10.048,15.234L10.039,15.309L10.031,15.385L10.024,15.461L10.018,15.537L10.012,15.613L10.008,15.69L10.004,15.767L10.002,15.844L10.001,15.922L10,16L10.001,16.078L10.002,16.156L10.004,16.233L10.008,16.31L10.012,16.387L10.018,16.463L10.024,16.539L10.031,16.615L10.039,16.691L10.048,16.766L10.058,16.841L10.069,16.915L10.081,16.989L10.094,17.063L10.107,17.137L10.122,17.21L10.137,17.283L10.154,17.355L10.171,17.428L10.189,17.5L10.208,17.571L10.228,17.642L10.248,17.713L10.27,17.783L10.292,17.853L10.315,17.923L10.339,17.992L10.364,18.061L10.389,18.13L10.416,18.198L10.443,18.266L10.471,18.333L10.5,18.4L10.529,18.467L10.56,18.533L10.591,18.598L10.623,18.664L10.656,18.729L10.689,18.793L10.723,18.857L10.758,18.92L10.794,18.983L10.831,19.046L10.868,19.108L10.906,19.17L10.945,19.231L10.984,19.292L11.024,19.352L11.065,19.411L11.107,19.47L11.149,19.529L11.192,19.587L11.235,19.645L11.28,19.702L11.325,19.758L11.37,19.814L11.417,19.87L11.463,19.925L11.511,19.979L11.559,20.033L11.608,20.086L11.658,20.138L11.708,20.19L11.758,20.242L11.81,20.292L11.862,20.342L11.914,20.392L11.967,20.441L12.021,20.489L12.075,20.537L12.13,20.583L12.186,20.63L12.242,20.675L12.298,20.72L12.355,20.765L12.413,20.808L12.471,20.851L12.53,20.893L12.589,20.935L12.648,20.976L12.708,21.016L12.769,21.055L12.83,21.094L12.892,21.132L12.954,21.169L13.017,21.206L13.08,21.242L13.143,21.277L13.207,21.311L13.271,21.344L13.336,21.377L13.402,21.409L13.467,21.44L13.533,21.471L13.6,21.5L13.667,21.529L13.734,21.557L13.802,21.584L13.87,21.611L13.939,21.636L14.008,21.661L14.077,21.685L14.147,21.708L14.217,21.73L14.287,21.752L14.358,21.772L14.429,21.792L14.5,21.811L14.572,21.829L14.645,21.846L14.717,21.863L14.79,21.878L14.863,21.893L14.937,21.906L15.011,21.919L15.085,21.931L15.159,21.942L15.234,21.952L15.309,21.961L15.385,21.969L15.461,21.976L15.537,21.982L15.613,21.988L15.69,21.992L15.767,21.996L15.844,21.998L15.922,21.999L16,22L16.078,21.999L16.156,21.998L16.233,21.996L16.31,21.992L16.387,21.988L16.463,21.982L16.539,21.976L16.615,21.969L16.691,21.961L16.766,21.952L16.841,21.942L16.915,21.931L16.989,21.919L17.063,21.906L17.137,21.893L17.21,21.878L17.283,21.863L17.355,21.846L17.428,21.829L17.5,21.811L17.571,21.792L17.642,21.772L17.713,21.752L17.783,21.73L17.853,21.708L17.923,21.685L17.992,21.661L18.061,21.636L18.13,21.611L18.198,21.584L18.266,21.557L18.333,21.529L18.4,21.5L18.467,21.471L18.533,21.44L18.598,21.409L18.664,21.377L18.729,21.344L18.793,21.311L18.857,21.277L18.92,21.242L18.983,21.206L19.046,21.169L19.108,21.132L19.17,21.094L19.231,21.055L19.292,21.016L19.352,20.976L19.411,20.935L19.47,20.893L19.529,20.851L19.587,20.808L19.645,20.765L19.702,20.72L19.758,20.675L19.814,20.63L19.87,20.583L19.925,20.537L19.979,20.489L20.033,20.441L20.086,20.392L20.138,20.342L20.19,20.292L20.242,20.242L20.292,20.19L20.342,20.138L20.392,20.086L20.441,20.033L20.489,19.979L20.537,19.925L20.583,19.87L20.63,19.814L20.675,19.758L20.72,19.702L20.765,19.645L20.808,19.587L20.851,19.529L20.893,19.47L20.935,19.411L20.976,19.352L21.016,19.292L21.055,19.231L21.094,19.17L21.132,19.108L21.169,19.046L21.206,18.983L21.242,18.92L21.277,18.857L21.311,18.793L21.344,18.729L21.377,18.664L21.409,18.598L21.44,18.533L21.471,18.467L21.5,18.4L21.529,18.333L21.557,18.266L21.584,18.198L21.611,18.13L21.636,18.061L21.661,17.992L21.685,17.923L21.708,17.853L21.73,17.783L21.752,17.713L21.772,17.642L21.792,17.571L21.811,17.5L21.829,17.428L21.846,17.355L21.863,17.283L21.878,17.21L21.893,17.137L21.906,17.063L21.919,16.989L21.931,16.915L21.942,16.841L21.952,16.766L21.961,16.691L21.969,16.615L21.976,16.539L21.982,16.463L21.988,16.387L21.992,16.31L21.996,16.233L21.998,16.156L21.999,16.078L22,16L21.999,15.922L21.998,15.844L21.996,15.767L21.992,15.69L21.988,15.613L21.982,15.537L21.976,15.461L21.969,15.385L21.961,15.309L21.952,15.234L21.942,15.159L21.931,15.085L21.919,15.011L21.906,14.937L21.893,14.863L21.878,14.79L21.863,14.717L21.846,14.645L21.829,14.572L21.811,14.5L21.792,14.429L21.772,14.358L21.752,14.287L21.73,14.217L21.708,14.147L21.685,14.077L21.661,14.008L21.636,13.939L21.611,13.87L21.584,13.802L21.557,13.734L21.529,13.667L21.5,13.6L21.471,13.533L21.44,13.467L21.409,13.402L21.377,13.336L21.344,13.271L21.311,13.207L21.277,13.143L21.242,13.08L21.206,13.017L21.169,12.954L21.132,12.892L21.094,12.83L21.055,12.769L21.016,12.708L20.976,12.648L20.935,12.589L20.893,12.53L20.851,12.471L20.808,12.413L20.765,12.355L20.72,12.298L20.675,12.242L20.63,12.186L20.583,12.13L20.537,12.075L20.489,12.021L20.441,11.967L20.392,11.914L20.342,11.862L20.292,11.81L20.242,11.758L20.19,11.708L20.138,11.658L20.086,11.608L20.033,11.559L19.979,11.511L19.925,11.463L19.87,11.417L19.814,11.37L19.758,11.325L19.702,11.28L19.645,11.235L19.587,11.192L19.529,11.149L19.47,11.107L19.411,11.065L19.352,11.024L19.292,10.984L19.231,10.945L19.17,10.906L19.108,10.868L19.046,10.831L18.983,10.794L18.92,10.758L18.857,10.723L18.793,10.689L18.729,10.656L18.664,10.623L18.598,10.591L18.533,10.56L18.467,10.529L18.4,10.5L18.333,10.471L18.266,10.443L18.198,10.416L18.13,10.389L18.061,10.364L17.992,10.339L17.923,10.315L17.853,10.292L17.783,10.27L17.713,10.248L17.642,10.228L17.571,10.208L17.5,10.189L17.428,10.171L17.355,10.154L17.283,10.137L17.21,10.122L17.137,10.107L17.063,10.094L16.989,10.081L16.915,10.069L16.841,10.058L16.766,10.048L16.691,10.039L16.615,10.031L16.539,10.024L16.463,10.018L16.387,10.012L16.31,10.008L16.233,10.004L16.156,10.002L16.078,10.001L16,10L15.922,10.001Z"/>
    </g>
</svg>
