<?xml version="1.0" encoding="UTF-8" standalone="no"?>
<!DOCTYPE svg PUBLIC "-//W3C//DTD SVG 1.1//EN" "http://www.w3.org/Graphics/SVG/1.1/DTD/svg11.dtd">
<svg width="100%" height="100%" viewBox="0 0 32 32" version="1.1" xmlns="http://www.w3.org/2000/svg" xmlns:xlink="http://www.w3.org/1999/xlink" xml:space="preserve" xmlns:serif="http://www.serif.com/" style="fill-rule:evenodd;clip-rule:evenodd;stroke-linejoin:round;stroke-miterlimit:1.41421;">
    <g id="Main">
        <path d="M23.116,7.001L23.231,7.006L23.346,7.013L23.46,7.023L23.573,7.036L23.685,7.052L23.796,7.07L23.906,7.091L24.016,7.115L24.124,7.142L24.231,7.171L24.338,7.202L24.443,7.237L24.547,7.273L24.649,7.312L24.751,7.354L24.851,7.398L24.95,7.444L25.048,7.493L25.144,7.543L25.239,7.597L25.333,7.652L25.425,7.709L25.515,7.769L25.604,7.831L25.692,7.894L25.778,7.96L25.862,8.028L25.944,8.098L26.025,8.17L26.104,8.243L26.181,8.319L26.257,8.396L26.33,8.475L26.402,8.556L26.472,8.638L26.54,8.722L26.606,8.808L26.669,8.896L26.731,8.985L26.791,9.075L26.848,9.167L26.903,9.261L26.957,9.356L27.007,9.452L27.056,9.55L27.102,9.649L27.146,9.749L27.188,9.851L27.227,9.953L27.263,10.057L27.298,10.162L27.329,10.269L27.358,10.376L27.385,10.484L27.409,10.594L27.43,10.704L27.448,10.815L27.464,10.927L27.477,11.04L27.487,11.154L27.494,11.269L27.499,11.384L27.5,11.5L27.499,11.616L27.494,11.731L27.487,11.846L27.477,11.96L27.464,12.073L27.448,12.185L27.43,12.296L27.409,12.406L27.385,12.516L27.358,12.624L27.329,12.731L27.298,12.838L27.263,12.943L27.227,13.047L27.188,13.149L27.146,13.251L27.102,13.351L27.056,13.45L27.007,13.548L26.957,13.644L26.903,13.739L26.848,13.833L26.791,13.925L26.731,14.015L26.669,14.104L26.606,14.192L26.54,14.278L26.472,14.362L26.402,14.444L26.33,14.525L26.257,14.604L26.181,14.681L26.104,14.757L26.025,14.83L25.944,14.902L25.862,14.972L25.778,15.04L25.692,15.106L25.604,15.169L25.515,15.231L25.425,15.291L25.333,15.348L25.239,15.403L25.144,15.457L25.048,15.507L24.95,15.556L24.851,15.602L24.751,15.646L24.649,15.688L24.547,15.727L24.443,15.763L24.338,15.798L24.231,15.829L24.124,15.858L24.016,15.885L23.906,15.909L23.796,15.93L23.685,15.948L23.573,15.964L23.46,15.977L23.346,15.987L23.231,15.994L23.116,15.999L23,16L22.884,15.999L22.769,15.994L22.654,15.987L22.54,15.977L22.427,15.964L22.315,15.948L22.204,15.93L22.094,15.909L21.984,15.885L21.876,15.858L21.769,15.829L21.662,15.798L21.557,15.763L21.453,15.727L21.351,15.688L21.249,15.646L21.149,15.602L21.05,15.556L20.952,15.507L20.856,15.457L20.761,15.403L20.667,15.348L20.575,15.291L20.485,15.231L20.396,15.169L20.308,15.106L20.222,15.04L20.138,14.972L20.056,14.902L19.975,14.83L19.896,14.757L19.819,14.681L19.743,14.604L19.67,14.525L19.598,14.444L19.528,14.362L19.46,14.278L19.394,14.192L19.331,14.104L19.269,14.015L19.209,13.925L19.152,13.833L19.097,13.739L19.043,13.644L18.993,13.548L18.944,13.45L18.898,13.351L18.854,13.251L18.812,13.149L18.773,13.047L18.737,12.943L18.702,12.838L18.671,12.731L18.642,12.624L18.615,12.516L18.591,12.406L18.57,12.296L18.552,12.185L18.536,12.073L18.523,11.96L18.513,11.846L18.506,11.731L18.501,11.616L18.5,11.5L18.501,11.384L18.506,11.269L18.513,11.154L18.523,11.04L18.536,10.927L18.552,10.815L18.57,10.704L18.591,10.594L18.615,10.484L18.642,10.376L18.671,10.269L18.702,10.162L18.737,10.057L18.773,9.953L18.812,9.851L18.854,9.749L18.898,9.649L18.944,9.55L18.993,9.452L19.043,9.356L19.097,9.261L19.152,9.167L19.209,9.075L19.269,8.985L19.331,8.896L19.394,8.808L19.46,8.722L19.528,8.638L19.598,8.556L19.67,8.475L19.743,8.396L19.819,8.319L19.896,8.243L19.975,8.17L20.056,8.098L20.138,8.028L20.222,7.96L20.308,7.894L20.396,7.831L20.485,7.769L20.575,7.709L20.667,7.652L20.761,7.597L20.856,7.543L20.952,7.493L21.05,7.444L21.149,7.398L21.249,7.354L21.351,7.312L21.453,7.273L21.557,7.237L21.662,7.202L21.769,7.171L21.876,7.142L21.984,7.115L22.094,7.091L22.204,7.07L22.315,7.052L22.427,7.036L22.54,7.023L22.654,7.013L22.769,7.006L22.884,7.001L23,7L23.116,7.001ZM22.935,9.001L22.87,9.003L22.806,9.008L22.742,9.013L22.68,9.02L22.618,9.029L22.556,9.039L22.495,9.051L22.435,9.064L22.375,9.079L22.316,9.095L22.257,9.112L22.199,9.131L22.142,9.151L22.085,9.173L22.029,9.196L21.973,9.22L21.918,9.246L21.864,9.273L21.811,9.301L21.758,9.33L21.706,9.361L21.655,9.393L21.605,9.426L21.555,9.461L21.506,9.496L21.458,9.533L21.412,9.571L21.365,9.61L21.32,9.65L21.276,9.691L21.233,9.733L21.191,9.776L21.15,9.82L21.11,9.865L21.071,9.912L21.033,9.958L20.996,10.006L20.961,10.055L20.926,10.105L20.893,10.155L20.861,10.206L20.83,10.258L20.801,10.311L20.773,10.364L20.746,10.418L20.72,10.473L20.696,10.529L20.673,10.585L20.651,10.642L20.631,10.699L20.612,10.757L20.595,10.816L20.579,10.875L20.564,10.935L20.551,10.995L20.539,11.056L20.529,11.118L20.52,11.18L20.513,11.242L20.508,11.306L20.503,11.37L20.501,11.435L20.5,11.5L20.501,11.565L20.503,11.63L20.508,11.694L20.513,11.758L20.52,11.82L20.529,11.882L20.539,11.944L20.551,12.005L20.564,12.065L20.579,12.125L20.595,12.184L20.612,12.243L20.631,12.301L20.651,12.358L20.673,12.415L20.696,12.471L20.72,12.527L20.746,12.582L20.773,12.636L20.801,12.689L20.83,12.742L20.861,12.794L20.893,12.845L20.926,12.895L20.961,12.945L20.996,12.994L21.033,13.042L21.071,13.088L21.11,13.135L21.15,13.18L21.191,13.224L21.233,13.267L21.276,13.309L21.32,13.35L21.365,13.39L21.412,13.429L21.459,13.467L21.506,13.504L21.555,13.539L21.605,13.574L21.655,13.607L21.706,13.639L21.758,13.67L21.811,13.699L21.864,13.727L21.918,13.754L21.973,13.78L22.029,13.804L22.085,13.827L22.142,13.849L22.199,13.869L22.257,13.888L22.316,13.905L22.375,13.921L22.435,13.936L22.495,13.949L22.556,13.961L22.617,13.971L22.68,13.98L22.743,13.987L22.806,13.992L22.87,13.997L22.935,13.999L23,14L23.065,13.999L23.13,13.997L23.194,13.992L23.257,13.987L23.32,13.98L23.383,13.971L23.444,13.961L23.505,13.949L23.565,13.936L23.625,13.921L23.684,13.905L23.743,13.888L23.801,13.869L23.858,13.849L23.915,13.827L23.971,13.804L24.027,13.78L24.082,13.754L24.136,13.727L24.189,13.699L24.242,13.67L24.294,13.639L24.345,13.607L24.395,13.574L24.445,13.539L24.494,13.504L24.541,13.467L24.588,13.429L24.635,13.39L24.68,13.35L24.724,13.309L24.767,13.267L24.809,13.224L24.85,13.18L24.89,13.135L24.929,13.088L24.967,13.042L25.004,12.994L25.039,12.945L25.074,12.895L25.107,12.845L25.139,12.794L25.17,12.742L25.199,12.689L25.227,12.636L25.254,12.582L25.28,12.527L25.304,12.471L25.327,12.415L25.349,12.358L25.369,12.301L25.388,12.243L25.405,12.184L25.421,12.125L25.436,12.065L25.449,12.005L25.461,11.944L25.471,11.882L25.48,11.82L25.487,11.758L25.492,11.694L25.497,11.63L25.499,11.565L25.5,11.5L25.499,11.435L25.497,11.37L25.492,11.306L25.487,11.242L25.48,11.18L25.471,11.118L25.461,11.056L25.449,10.995L25.436,10.935L25.421,10.875L25.405,10.816L25.388,10.757L25.369,10.699L25.349,10.642L25.327,10.585L25.304,10.529L25.28,10.473L25.254,10.418L25.227,10.364L25.199,10.311L25.17,10.258L25.139,10.206L25.107,10.155L25.074,10.105L25.039,10.055L25.004,10.006L24.967,9.958L24.929,9.912L24.89,9.865L24.85,9.82L24.809,9.776L24.767,9.733L24.724,9.691L24.68,9.65L24.635,9.61L24.588,9.571L24.542,9.533L24.494,9.496L24.445,9.461L24.395,9.426L24.345,9.393L24.294,9.361L24.242,9.33L24.189,9.301L24.136,9.273L24.082,9.246L24.027,9.22L23.971,9.196L23.915,9.173L23.858,9.151L23.801,9.131L23.743,9.112L23.684,9.095L23.625,9.079L23.565,9.064L23.505,9.051L23.444,9.039L23.382,9.029L23.32,9.02L23.258,9.013L23.194,9.008L23.13,9.003L23.065,9.001L23,9L22.935,9.001Z"/>
        <path d="M16.116,7.001L16.231,7.006L16.346,7.013L16.46,7.023L16.573,7.036L16.685,7.052L16.796,7.07L16.906,7.091L17.016,7.115L17.124,7.142L17.231,7.171L17.338,7.202L17.443,7.237L17.547,7.273L17.649,7.312L17.751,7.354L17.851,7.398L17.95,7.444L18.048,7.493L18.144,7.543L18.239,7.597L18.333,7.652L18.425,7.709L18.515,7.769L18.604,7.831L18.692,7.894L18.778,7.96L18.862,8.028L18.944,8.098L19.025,8.17L19.104,8.243L19.181,8.319L19.257,8.396L19.33,8.475L19.402,8.556L19.472,8.638L19.54,8.722L19.606,8.808L19.669,8.896L19.731,8.985L19.791,9.075L19.848,9.167L19.903,9.261L19.957,9.356L20.007,9.452L20.056,9.55L20.102,9.649L20.146,9.749L20.188,9.851L20.227,9.953L20.263,10.057L20.298,10.162L20.329,10.269L20.358,10.376L20.385,10.484L20.409,10.594L20.43,10.704L20.448,10.815L20.464,10.927L20.477,11.04L20.487,11.154L20.494,11.269L20.499,11.384L20.5,11.5L20.499,11.616L20.494,11.731L20.487,11.846L20.477,11.96L20.464,12.073L20.448,12.185L20.43,12.296L20.409,12.406L20.385,12.516L20.358,12.624L20.329,12.731L20.298,12.838L20.263,12.943L20.227,13.047L20.188,13.149L20.146,13.251L20.102,13.351L20.056,13.45L20.007,13.548L19.957,13.644L19.903,13.739L19.848,13.833L19.791,13.925L19.731,14.015L19.669,14.104L19.606,14.192L19.54,14.278L19.472,14.362L19.402,14.444L19.33,14.525L19.257,14.604L19.181,14.681L19.104,14.757L19.025,14.83L18.944,14.902L18.862,14.972L18.778,15.04L18.692,15.106L18.604,15.169L18.515,15.231L18.425,15.291L18.333,15.348L18.239,15.403L18.144,15.457L18.048,15.507L17.95,15.556L17.851,15.602L17.751,15.646L17.649,15.688L17.547,15.727L17.443,15.763L17.338,15.798L17.231,15.829L17.124,15.858L17.016,15.885L16.906,15.909L16.796,15.93L16.685,15.948L16.573,15.964L16.46,15.977L16.346,15.987L16.231,15.994L16.116,15.999L16,16L15.884,15.999L15.769,15.994L15.654,15.987L15.54,15.977L15.427,15.964L15.315,15.948L15.204,15.93L15.094,15.909L14.984,15.885L14.876,15.858L14.769,15.829L14.662,15.798L14.557,15.763L14.453,15.727L14.351,15.688L14.249,15.646L14.149,15.602L14.05,15.556L13.952,15.507L13.856,15.457L13.761,15.403L13.667,15.348L13.575,15.291L13.485,15.231L13.396,15.169L13.308,15.106L13.222,15.04L13.138,14.972L13.056,14.902L12.975,14.83L12.896,14.757L12.819,14.681L12.743,14.604L12.67,14.525L12.598,14.444L12.528,14.362L12.46,14.278L12.394,14.192L12.331,14.104L12.269,14.015L12.209,13.925L12.152,13.833L12.097,13.739L12.043,13.644L11.993,13.548L11.944,13.45L11.898,13.351L11.854,13.251L11.812,13.149L11.773,13.047L11.737,12.943L11.702,12.838L11.671,12.731L11.642,12.624L11.615,12.516L11.591,12.406L11.57,12.296L11.552,12.185L11.536,12.073L11.523,11.96L11.513,11.846L11.506,11.731L11.501,11.616L11.5,11.5L11.501,11.384L11.506,11.269L11.513,11.154L11.523,11.04L11.536,10.927L11.552,10.815L11.57,10.704L11.591,10.594L11.615,10.484L11.642,10.376L11.671,10.269L11.702,10.162L11.737,10.057L11.773,9.953L11.812,9.851L11.854,9.749L11.898,9.649L11.944,9.55L11.993,9.452L12.043,9.356L12.097,9.261L12.152,9.167L12.209,9.075L12.269,8.985L12.331,8.896L12.394,8.808L12.46,8.722L12.528,8.638L12.598,8.556L12.67,8.475L12.743,8.396L12.819,8.319L12.896,8.243L12.975,8.17L13.056,8.098L13.138,8.028L13.222,7.96L13.308,7.894L13.396,7.831L13.485,7.769L13.575,7.709L13.667,7.652L13.761,7.597L13.856,7.543L13.952,7.493L14.05,7.444L14.149,7.398L14.249,7.354L14.351,7.312L14.453,7.273L14.557,7.237L14.662,7.202L14.769,7.171L14.876,7.142L14.984,7.115L15.094,7.091L15.204,7.07L15.315,7.052L15.427,7.036L15.54,7.023L15.654,7.013L15.769,7.006L15.884,7.001L16,7L16.116,7.001ZM15.935,9.001L15.87,9.003L15.806,9.008L15.742,9.013L15.68,9.02L15.618,9.029L15.556,9.039L15.495,9.051L15.435,9.064L15.375,9.079L15.316,9.095L15.257,9.112L15.199,9.131L15.142,9.151L15.085,9.173L15.029,9.196L14.973,9.22L14.918,9.246L14.864,9.273L14.811,9.301L14.758,9.33L14.706,9.361L14.655,9.393L14.605,9.426L14.555,9.461L14.506,9.496L14.458,9.533L14.412,9.571L14.365,9.61L14.32,9.65L14.276,9.691L14.233,9.733L14.191,9.776L14.15,9.82L14.11,9.865L14.071,9.912L14.033,9.958L13.996,10.006L13.961,10.055L13.926,10.105L13.893,10.155L13.861,10.206L13.83,10.258L13.801,10.311L13.773,10.364L13.746,10.418L13.72,10.473L13.696,10.529L13.673,10.585L13.651,10.642L13.631,10.699L13.612,10.757L13.595,10.816L13.579,10.875L13.564,10.935L13.551,10.995L13.539,11.056L13.529,11.118L13.52,11.18L13.513,11.242L13.508,11.306L13.503,11.37L13.501,11.435L13.5,11.5L13.501,11.565L13.503,11.63L13.508,11.694L13.513,11.758L13.52,11.82L13.529,11.882L13.539,11.944L13.551,12.005L13.564,12.065L13.579,12.125L13.595,12.184L13.612,12.243L13.631,12.301L13.651,12.358L13.673,12.415L13.696,12.471L13.72,12.527L13.746,12.582L13.773,12.636L13.801,12.689L13.83,12.742L13.861,12.794L13.893,12.845L13.926,12.895L13.961,12.945L13.996,12.994L14.033,13.042L14.071,13.088L14.11,13.135L14.15,13.18L14.191,13.224L14.233,13.267L14.276,13.309L14.32,13.35L14.365,13.39L14.412,13.429L14.458,13.467L14.506,13.504L14.555,13.539L14.605,13.574L14.655,13.607L14.706,13.639L14.758,13.67L14.811,13.699L14.864,13.727L14.918,13.754L14.973,13.78L15.029,13.804L15.085,13.827L15.142,13.849L15.199,13.869L15.257,13.888L15.316,13.905L15.375,13.921L15.435,13.936L15.495,13.949L15.556,13.961L15.617,13.971L15.68,13.98L15.743,13.987L15.806,13.992L15.87,13.997L15.935,13.999L16,14L16.065,13.999L16.13,13.997L16.194,13.992L16.257,13.987L16.32,13.98L16.383,13.971L16.444,13.961L16.505,13.949L16.565,13.936L16.625,13.921L16.684,13.905L16.743,13.888L16.801,13.869L16.858,13.849L16.915,13.827L16.971,13.804L17.027,13.78L17.082,13.754L17.136,13.727L17.189,13.699L17.242,13.67L17.294,13.639L17.345,13.607L17.395,13.574L17.445,13.539L17.494,13.504L17.542,13.467L17.588,13.429L17.635,13.39L17.68,13.35L17.724,13.309L17.767,13.267L17.809,13.224L17.85,13.18L17.89,13.135L17.929,13.088L17.967,13.042L18.004,12.994L18.039,12.945L18.074,12.895L18.107,12.845L18.139,12.794L18.17,12.742L18.199,12.689L18.227,12.636L18.254,12.582L18.28,12.527L18.304,12.471L18.327,12.415L18.349,12.358L18.369,12.301L18.388,12.243L18.405,12.184L18.421,12.125L18.436,12.065L18.449,12.005L18.461,11.944L18.471,11.883L18.48,11.82L18.487,11.757L18.492,11.694L18.497,11.63L18.499,11.565L18.5,11.5L18.499,11.435L18.497,11.37L18.492,11.306L18.487,11.243L18.48,11.18L18.471,11.117L18.461,11.056L18.449,10.995L18.436,10.935L18.421,10.875L18.405,10.816L18.388,10.757L18.369,10.699L18.349,10.642L18.327,10.585L18.304,10.529L18.28,10.473L18.254,10.418L18.227,10.364L18.199,10.311L18.17,10.258L18.139,10.206L18.107,10.155L18.074,10.105L18.039,10.055L18.004,10.006L17.967,9.958L17.929,9.912L17.89,9.865L17.85,9.82L17.809,9.776L17.767,9.733L17.724,9.691L17.68,9.65L17.635,9.61L17.588,9.571L17.542,9.533L17.494,9.496L17.445,9.461L17.395,9.426L17.345,9.393L17.294,9.361L17.242,9.33L17.189,9.301L17.136,9.273L17.082,9.246L17.027,9.22L16.971,9.196L16.915,9.173L16.858,9.151L16.801,9.131L16.743,9.112L16.684,9.095L16.625,9.079L16.565,9.064L16.505,9.051L16.444,9.039L16.382,9.029L16.32,9.02L16.258,9.013L16.194,9.008L16.13,9.003L16.065,9.001L16,9L15.935,9.001Z"/>
        <path d="M9.116,7.001L9.231,7.006L9.346,7.013L9.46,7.023L9.573,7.036L9.685,7.052L9.796,7.07L9.906,7.091L10.016,7.115L10.124,7.142L10.231,7.171L10.338,7.202L10.443,7.237L10.547,7.273L10.649,7.312L10.751,7.354L10.851,7.398L10.95,7.444L11.048,7.493L11.144,7.543L11.239,7.597L11.333,7.652L11.425,7.709L11.515,7.769L11.604,7.831L11.692,7.894L11.778,7.96L11.862,8.028L11.944,8.098L12.025,8.17L12.104,8.243L12.181,8.319L12.257,8.396L12.33,8.475L12.402,8.556L12.472,8.638L12.54,8.722L12.606,8.808L12.669,8.896L12.731,8.985L12.791,9.075L12.848,9.167L12.903,9.261L12.957,9.356L13.007,9.452L13.056,9.55L13.102,9.649L13.146,9.749L13.188,9.851L13.227,9.953L13.263,10.057L13.298,10.162L13.329,10.269L13.358,10.376L13.385,10.484L13.409,10.594L13.43,10.704L13.448,10.815L13.464,10.927L13.477,11.04L13.487,11.154L13.494,11.269L13.499,11.384L13.5,11.5L13.499,11.616L13.494,11.731L13.487,11.846L13.477,11.96L13.464,12.073L13.448,12.185L13.43,12.296L13.409,12.406L13.385,12.516L13.358,12.624L13.329,12.731L13.298,12.838L13.263,12.943L13.227,13.047L13.188,13.149L13.146,13.251L13.102,13.351L13.056,13.45L13.007,13.548L12.957,13.644L12.903,13.739L12.848,13.833L12.791,13.925L12.731,14.015L12.669,14.104L12.606,14.192L12.54,14.278L12.472,14.362L12.402,14.444L12.33,14.525L12.257,14.604L12.181,14.681L12.104,14.757L12.025,14.83L11.944,14.902L11.862,14.972L11.778,15.04L11.692,15.106L11.604,15.169L11.515,15.231L11.425,15.291L11.333,15.348L11.239,15.403L11.144,15.457L11.048,15.507L10.95,15.556L10.851,15.602L10.751,15.646L10.649,15.688L10.547,15.727L10.443,15.763L10.338,15.798L10.231,15.829L10.124,15.858L10.016,15.885L9.906,15.909L9.796,15.93L9.685,15.948L9.573,15.964L9.46,15.977L9.346,15.987L9.231,15.994L9.116,15.999L9,16L8.884,15.999L8.769,15.994L8.654,15.987L8.54,15.977L8.427,15.964L8.315,15.948L8.204,15.93L8.094,15.909L7.984,15.885L7.876,15.858L7.769,15.829L7.662,15.798L7.557,15.763L7.453,15.727L7.351,15.688L7.249,15.646L7.149,15.602L7.05,15.556L6.952,15.507L6.856,15.457L6.761,15.403L6.667,15.348L6.575,15.291L6.485,15.231L6.396,15.169L6.308,15.106L6.222,15.04L6.138,14.972L6.056,14.902L5.975,14.83L5.896,14.757L5.819,14.681L5.743,14.604L5.67,14.525L5.598,14.444L5.528,14.362L5.46,14.278L5.394,14.192L5.331,14.104L5.269,14.015L5.209,13.925L5.152,13.833L5.097,13.739L5.043,13.644L4.993,13.548L4.944,13.45L4.898,13.351L4.854,13.251L4.812,13.149L4.773,13.047L4.737,12.943L4.702,12.838L4.671,12.731L4.642,12.624L4.615,12.516L4.591,12.406L4.57,12.296L4.552,12.185L4.536,12.073L4.523,11.96L4.513,11.846L4.506,11.731L4.501,11.616L4.5,11.5L4.501,11.384L4.506,11.269L4.513,11.154L4.523,11.04L4.536,10.927L4.552,10.815L4.57,10.704L4.591,10.594L4.615,10.484L4.642,10.376L4.671,10.269L4.702,10.162L4.737,10.057L4.773,9.953L4.812,9.851L4.854,9.749L4.898,9.649L4.944,9.55L4.993,9.452L5.043,9.356L5.097,9.261L5.152,9.167L5.209,9.075L5.269,8.985L5.331,8.896L5.394,8.808L5.46,8.722L5.528,8.638L5.598,8.556L5.67,8.475L5.743,8.396L5.819,8.319L5.896,8.243L5.975,8.17L6.056,8.098L6.138,8.028L6.222,7.96L6.308,7.894L6.396,7.831L6.485,7.769L6.575,7.709L6.667,7.652L6.761,7.597L6.856,7.543L6.952,7.493L7.05,7.444L7.149,7.398L7.249,7.354L7.351,7.312L7.453,7.273L7.557,7.237L7.662,7.202L7.769,7.171L7.876,7.142L7.984,7.115L8.094,7.091L8.204,7.07L8.315,7.052L8.427,7.036L8.54,7.023L8.654,7.013L8.769,7.006L8.884,7.001L9,7L9.116,7.001ZM8.935,9.001L8.87,9.003L8.806,9.008L8.742,9.013L8.68,9.02L8.618,9.029L8.556,9.039L8.495,9.051L8.435,9.064L8.375,9.079L8.316,9.095L8.257,9.112L8.199,9.131L8.142,9.151L8.085,9.173L8.029,9.196L7.973,9.22L7.918,9.246L7.864,9.273L7.811,9.301L7.758,9.33L7.706,9.361L7.655,9.393L7.605,9.426L7.555,9.461L7.506,9.496L7.458,9.533L7.412,9.571L7.365,9.61L7.32,9.65L7.276,9.691L7.233,9.733L7.191,9.776L7.15,9.82L7.11,9.865L7.071,9.912L7.033,9.958L6.996,10.006L6.961,10.055L6.926,10.105L6.893,10.155L6.861,10.206L6.83,10.258L6.801,10.311L6.773,10.364L6.746,10.418L6.72,10.473L6.696,10.529L6.673,10.585L6.651,10.642L6.631,10.699L6.612,10.757L6.595,10.816L6.579,10.875L6.564,10.935L6.551,10.995L6.539,11.056L6.529,11.118L6.52,11.18L6.513,11.242L6.508,11.306L6.503,11.37L6.501,11.435L6.5,11.5L6.501,11.565L6.503,11.63L6.508,11.694L6.513,11.758L6.52,11.82L6.529,11.882L6.539,11.944L6.551,12.005L6.564,12.065L6.579,12.125L6.595,12.184L6.612,12.243L6.631,12.301L6.651,12.358L6.673,12.415L6.696,12.471L6.72,12.527L6.746,12.582L6.773,12.636L6.801,12.689L6.83,12.742L6.861,12.794L6.893,12.845L6.926,12.895L6.961,12.945L6.996,12.994L7.033,13.042L7.071,13.088L7.11,13.135L7.15,13.18L7.191,13.224L7.233,13.267L7.276,13.309L7.32,13.35L7.365,13.39L7.412,13.429L7.458,13.467L7.506,13.504L7.555,13.539L7.605,13.574L7.655,13.607L7.706,13.639L7.758,13.67L7.811,13.699L7.864,13.727L7.918,13.754L7.973,13.78L8.029,13.804L8.085,13.827L8.142,13.849L8.199,13.869L8.257,13.888L8.316,13.905L8.375,13.921L8.435,13.936L8.495,13.949L8.556,13.961L8.617,13.971L8.68,13.98L8.743,13.987L8.806,13.992L8.87,13.997L8.935,13.999L9,14L9.065,13.999L9.13,13.997L9.194,13.992L9.257,13.987L9.32,13.98L9.383,13.971L9.444,13.961L9.505,13.949L9.565,13.936L9.625,13.921L9.684,13.905L9.743,13.888L9.801,13.869L9.858,13.849L9.915,13.827L9.971,13.804L10.027,13.78L10.082,13.754L10.136,13.727L10.189,13.699L10.242,13.67L10.294,13.639L10.345,13.607L10.395,13.574L10.445,13.539L10.494,13.504L10.542,13.467L10.588,13.429L10.635,13.39L10.68,13.35L10.724,13.309L10.767,13.267L10.809,13.224L10.85,13.18L10.89,13.135L10.929,13.088L10.967,13.042L11.004,12.994L11.039,12.945L11.074,12.895L11.107,12.845L11.139,12.794L11.17,12.742L11.199,12.689L11.227,12.636L11.254,12.582L11.28,12.527L11.304,12.471L11.327,12.415L11.349,12.358L11.369,12.301L11.388,12.243L11.405,12.184L11.421,12.125L11.436,12.065L11.449,12.005L11.461,11.944L11.471,11.882L11.48,11.82L11.487,11.758L11.492,11.694L11.497,11.63L11.499,11.565L11.5,11.5L11.499,11.435L11.497,11.37L11.492,11.306L11.487,11.242L11.48,11.18L11.471,11.118L11.461,11.056L11.449,10.995L11.436,10.935L11.421,10.875L11.405,10.816L11.388,10.757L11.369,10.699L11.349,10.642L11.327,10.585L11.304,10.529L11.28,10.473L11.254,10.418L11.227,10.364L11.199,10.311L11.17,10.258L11.139,10.206L11.107,10.155L11.074,10.105L11.039,10.055L11.004,10.006L10.967,9.958L10.929,9.912L10.89,9.865L10.85,9.82L10.809,9.776L10.767,9.733L10.724,9.691L10.68,9.65L10.635,9.61L10.588,9.571L10.542,9.533L10.494,9.496L10.445,9.461L10.395,9.426L10.345,9.393L10.294,9.361L10.242,9.33L10.189,9.301L10.136,9.273L10.082,9.246L10.027,9.22L9.971,9.196L9.915,9.173L9.858,9.151L9.801,9.131L9.743,9.112L9.684,9.095L9.625,9.079L9.565,9.064L9.505,9.051L9.444,9.039L9.382,9.029L9.32,9.02L9.258,9.013L9.194,9.008L9.13,9.003L9.065,9.001L9,9L8.935,9.001Z"/>
        <path d="M19.616,13.001L19.731,13.006L19.846,13.013L19.96,13.023L20.073,13.036L20.185,13.052L20.296,13.07L20.406,13.091L20.516,13.115L20.624,13.142L20.731,13.171L20.838,13.202L20.943,13.237L21.047,13.273L21.149,13.312L21.251,13.354L21.351,13.398L21.45,13.444L21.548,13.493L21.644,13.543L21.739,13.597L21.833,13.652L21.925,13.709L22.015,13.769L22.104,13.831L22.192,13.894L22.278,13.96L22.362,14.028L22.444,14.098L22.525,14.17L22.604,14.243L22.681,14.319L22.757,14.396L22.83,14.475L22.902,14.556L22.972,14.638L23.04,14.722L23.106,14.808L23.169,14.896L23.231,14.985L23.291,15.075L23.348,15.167L23.403,15.261L23.457,15.356L23.507,15.452L23.556,15.55L23.602,15.649L23.646,15.749L23.688,15.851L23.727,15.953L23.763,16.057L23.798,16.162L23.829,16.269L23.858,16.376L23.885,16.484L23.909,16.594L23.93,16.704L23.948,16.815L23.964,16.927L23.977,17.04L23.987,17.154L23.994,17.269L23.999,17.384L24,17.5L23.999,17.616L23.994,17.731L23.987,17.846L23.977,17.96L23.964,18.073L23.948,18.185L23.93,18.296L23.909,18.406L23.885,18.516L23.858,18.624L23.829,18.731L23.798,18.838L23.763,18.943L23.727,19.047L23.688,19.149L23.646,19.251L23.602,19.351L23.556,19.45L23.507,19.548L23.457,19.644L23.403,19.739L23.348,19.833L23.291,19.925L23.231,20.015L23.169,20.104L23.106,20.192L23.04,20.278L22.972,20.362L22.902,20.444L22.83,20.525L22.757,20.604L22.681,20.681L22.604,20.757L22.525,20.83L22.444,20.902L22.362,20.972L22.278,21.04L22.192,21.106L22.104,21.169L22.015,21.231L21.925,21.291L21.833,21.348L21.739,21.403L21.644,21.457L21.548,21.507L21.45,21.556L21.351,21.602L21.251,21.646L21.149,21.688L21.047,21.727L20.943,21.763L20.838,21.798L20.731,21.829L20.624,21.858L20.516,21.885L20.406,21.909L20.296,21.93L20.185,21.948L20.073,21.964L19.96,21.977L19.846,21.987L19.731,21.994L19.616,21.999L19.5,22L19.384,21.999L19.269,21.994L19.154,21.987L19.04,21.977L18.927,21.964L18.815,21.948L18.704,21.93L18.594,21.909L18.484,21.885L18.376,21.858L18.269,21.829L18.162,21.798L18.057,21.763L17.953,21.727L17.851,21.688L17.749,21.646L17.649,21.602L17.55,21.556L17.452,21.507L17.356,21.457L17.261,21.403L17.167,21.348L17.075,21.291L16.985,21.231L16.896,21.169L16.808,21.106L16.722,21.04L16.638,20.972L16.556,20.902L16.475,20.83L16.396,20.757L16.319,20.681L16.243,20.604L16.17,20.525L16.098,20.444L16.028,20.362L15.96,20.278L15.894,20.192L15.831,20.104L15.769,20.015L15.709,19.925L15.652,19.833L15.597,19.739L15.543,19.644L15.493,19.548L15.444,19.45L15.398,19.351L15.354,19.251L15.312,19.149L15.273,19.047L15.237,18.943L15.202,18.838L15.171,18.731L15.142,18.624L15.115,18.516L15.091,18.406L15.07,18.296L15.052,18.185L15.036,18.073L15.023,17.96L15.013,17.846L15.006,17.731L15.001,17.616L15,17.5L15.001,17.384L15.006,17.269L15.013,17.154L15.023,17.04L15.036,16.927L15.052,16.815L15.07,16.704L15.091,16.594L15.115,16.484L15.142,16.376L15.171,16.269L15.202,16.162L15.237,16.057L15.273,15.953L15.312,15.851L15.354,15.749L15.398,15.649L15.444,15.55L15.493,15.452L15.543,15.356L15.597,15.261L15.652,15.167L15.709,15.075L15.769,14.985L15.831,14.896L15.894,14.808L15.96,14.722L16.028,14.638L16.098,14.556L16.17,14.475L16.243,14.396L16.319,14.319L16.396,14.243L16.475,14.17L16.556,14.098L16.638,14.028L16.722,13.96L16.808,13.894L16.896,13.831L16.985,13.769L17.075,13.709L17.167,13.652L17.261,13.597L17.356,13.543L17.452,13.493L17.55,13.444L17.649,13.398L17.749,13.354L17.851,13.312L17.953,13.273L18.057,13.237L18.162,13.202L18.269,13.171L18.376,13.142L18.484,13.115L18.594,13.091L18.704,13.07L18.815,13.052L18.927,13.036L19.04,13.023L19.154,13.013L19.269,13.006L19.384,13.001L19.5,13L19.616,13.001ZM19.435,15.001L19.37,15.003L19.306,15.008L19.242,15.013L19.18,15.02L19.117,15.029L19.056,15.039L18.995,15.051L18.935,15.064L18.875,15.079L18.816,15.095L18.757,15.112L18.699,15.131L18.642,15.151L18.585,15.173L18.529,15.196L18.473,15.22L18.418,15.246L18.364,15.273L18.311,15.301L18.258,15.33L18.206,15.361L18.155,15.393L18.105,15.426L18.055,15.461L18.006,15.496L17.959,15.533L17.912,15.571L17.865,15.61L17.82,15.65L17.776,15.691L17.733,15.733L17.691,15.776L17.65,15.82L17.61,15.865L17.571,15.912L17.533,15.959L17.496,16.006L17.461,16.055L17.426,16.105L17.393,16.155L17.361,16.206L17.33,16.258L17.301,16.311L17.273,16.364L17.246,16.418L17.22,16.473L17.196,16.529L17.173,16.585L17.151,16.642L17.131,16.699L17.112,16.757L17.095,16.816L17.079,16.875L17.064,16.935L17.051,16.995L17.039,17.056L17.029,17.118L17.02,17.18L17.013,17.242L17.008,17.306L17.003,17.37L17.001,17.435L17,17.5L17.001,17.565L17.003,17.63L17.008,17.694L17.013,17.758L17.02,17.82L17.029,17.882L17.039,17.944L17.051,18.005L17.064,18.065L17.079,18.125L17.095,18.184L17.112,18.243L17.131,18.301L17.151,18.358L17.173,18.415L17.196,18.471L17.22,18.527L17.246,18.582L17.273,18.636L17.301,18.689L17.33,18.742L17.361,18.794L17.393,18.845L17.426,18.895L17.461,18.945L17.496,18.994L17.533,19.041L17.571,19.088L17.61,19.135L17.65,19.18L17.691,19.224L17.733,19.267L17.776,19.309L17.82,19.35L17.865,19.39L17.912,19.429L17.959,19.467L18.006,19.504L18.055,19.539L18.105,19.574L18.155,19.607L18.206,19.639L18.258,19.67L18.311,19.699L18.364,19.727L18.418,19.754L18.473,19.78L18.529,19.804L18.585,19.827L18.642,19.849L18.699,19.869L18.757,19.888L18.816,19.905L18.875,19.921L18.935,19.936L18.995,19.949L19.056,19.961L19.118,19.971L19.18,19.98L19.242,19.987L19.306,19.992L19.37,19.997L19.435,19.999L19.5,20L19.565,19.999L19.63,19.997L19.694,19.992L19.758,19.987L19.82,19.98L19.882,19.971L19.944,19.961L20.005,19.949L20.065,19.936L20.125,19.921L20.184,19.905L20.243,19.888L20.301,19.869L20.358,19.849L20.415,19.827L20.471,19.804L20.527,19.78L20.582,19.754L20.636,19.727L20.689,19.699L20.742,19.67L20.794,19.639L20.845,19.607L20.895,19.574L20.945,19.539L20.994,19.504L21.042,19.467L21.088,19.429L21.135,19.39L21.18,19.35L21.224,19.309L21.267,19.267L21.309,19.224L21.35,19.18L21.39,19.135L21.429,19.088L21.467,19.041L21.504,18.994L21.539,18.945L21.574,18.895L21.607,18.845L21.639,18.794L21.67,18.742L21.699,18.689L21.727,18.636L21.754,18.582L21.78,18.527L21.804,18.471L21.827,18.415L21.849,18.358L21.869,18.301L21.888,18.243L21.905,18.184L21.921,18.125L21.936,18.065L21.949,18.005L21.961,17.944L21.971,17.882L21.98,17.82L21.987,17.758L21.992,17.694L21.997,17.63L21.999,17.565L22,17.5L21.999,17.435L21.997,17.37L21.992,17.306L21.987,17.242L21.98,17.18L21.971,17.118L21.961,17.056L21.949,16.995L21.936,16.935L21.921,16.875L21.905,16.816L21.888,16.757L21.869,16.699L21.849,16.642L21.827,16.585L21.804,16.529L21.78,16.473L21.754,16.418L21.727,16.364L21.699,16.311L21.67,16.258L21.639,16.206L21.607,16.155L21.574,16.105L21.539,16.055L21.504,16.006L21.467,15.959L21.429,15.912L21.39,15.865L21.35,15.82L21.309,15.776L21.267,15.733L21.224,15.691L21.18,15.65L21.135,15.61L21.088,15.571L21.042,15.533L20.994,15.496L20.945,15.461L20.895,15.426L20.845,15.393L20.794,15.361L20.742,15.33L20.689,15.301L20.636,15.273L20.582,15.246L20.527,15.22L20.471,15.196L20.415,15.173L20.358,15.151L20.301,15.131L20.243,15.112L20.184,15.095L20.125,15.079L20.065,15.064L20.005,15.051L19.944,15.039L19.882,15.029L19.82,15.02L19.758,15.013L19.694,15.008L19.63,15.003L19.565,15.001L19.5,15L19.435,15.001Z"/>
        <path d="M16.116,19.001L16.231,19.006L16.346,19.013L16.46,19.023L16.573,19.036L16.685,19.052L16.796,19.07L16.906,19.091L17.016,19.115L17.124,19.142L17.231,19.171L17.338,19.202L17.443,19.237L17.547,19.273L17.649,19.312L17.751,19.354L17.851,19.398L17.95,19.444L18.048,19.493L18.144,19.543L18.239,19.597L18.333,19.652L18.425,19.709L18.515,19.769L18.604,19.831L18.692,19.894L18.778,19.96L18.862,20.028L18.944,20.098L19.025,20.17L19.104,20.243L19.181,20.319L19.257,20.396L19.33,20.475L19.402,20.556L19.472,20.638L19.54,20.722L19.606,20.808L19.669,20.896L19.731,20.985L19.791,21.075L19.848,21.167L19.903,21.261L19.957,21.356L20.007,21.452L20.056,21.55L20.102,21.649L20.146,21.749L20.188,21.851L20.227,21.953L20.263,22.057L20.298,22.162L20.329,22.269L20.358,22.376L20.385,22.484L20.409,22.594L20.43,22.704L20.448,22.815L20.464,22.927L20.477,23.04L20.487,23.154L20.494,23.269L20.499,23.384L20.5,23.5L20.499,23.616L20.494,23.731L20.487,23.846L20.477,23.96L20.464,24.073L20.448,24.185L20.43,24.296L20.409,24.406L20.385,24.516L20.358,24.624L20.329,24.731L20.298,24.838L20.263,24.943L20.227,25.047L20.188,25.149L20.146,25.251L20.102,25.351L20.056,25.45L20.007,25.548L19.957,25.644L19.903,25.739L19.848,25.833L19.791,25.925L19.731,26.015L19.669,26.104L19.606,26.192L19.54,26.278L19.472,26.362L19.402,26.444L19.33,26.525L19.257,26.604L19.181,26.681L19.104,26.757L19.025,26.83L18.944,26.902L18.862,26.972L18.778,27.04L18.692,27.106L18.604,27.169L18.515,27.231L18.425,27.291L18.333,27.348L18.239,27.403L18.144,27.457L18.048,27.507L17.95,27.556L17.851,27.602L17.751,27.646L17.649,27.688L17.547,27.727L17.443,27.763L17.338,27.798L17.231,27.829L17.124,27.858L17.016,27.885L16.906,27.909L16.796,27.93L16.685,27.948L16.573,27.964L16.46,27.977L16.346,27.987L16.231,27.994L16.116,27.999L16,28L15.884,27.999L15.769,27.994L15.654,27.987L15.54,27.977L15.427,27.964L15.315,27.948L15.204,27.93L15.094,27.909L14.984,27.885L14.876,27.858L14.769,27.829L14.662,27.798L14.557,27.763L14.453,27.727L14.351,27.688L14.249,27.646L14.149,27.602L14.05,27.556L13.952,27.507L13.856,27.457L13.761,27.403L13.667,27.348L13.575,27.291L13.485,27.231L13.396,27.169L13.308,27.106L13.222,27.04L13.138,26.972L13.056,26.902L12.975,26.83L12.896,26.757L12.819,26.681L12.743,26.604L12.67,26.525L12.598,26.444L12.528,26.362L12.46,26.278L12.394,26.192L12.331,26.104L12.269,26.015L12.209,25.925L12.152,25.833L12.097,25.739L12.043,25.644L11.993,25.548L11.944,25.45L11.898,25.351L11.854,25.251L11.812,25.149L11.773,25.047L11.737,24.943L11.702,24.838L11.671,24.731L11.642,24.624L11.615,24.516L11.591,24.406L11.57,24.296L11.552,24.185L11.536,24.073L11.523,23.96L11.513,23.846L11.506,23.731L11.501,23.616L11.5,23.5L11.501,23.384L11.506,23.269L11.513,23.154L11.523,23.04L11.536,22.927L11.552,22.815L11.57,22.704L11.591,22.594L11.615,22.484L11.642,22.376L11.671,22.269L11.702,22.162L11.737,22.057L11.773,21.953L11.812,21.851L11.854,21.749L11.898,21.649L11.944,21.55L11.993,21.452L12.043,21.356L12.097,21.261L12.152,21.167L12.209,21.075L12.269,20.985L12.331,20.896L12.394,20.808L12.46,20.722L12.528,20.638L12.598,20.556L12.67,20.475L12.743,20.396L12.819,20.319L12.896,20.243L12.975,20.17L13.056,20.098L13.138,20.028L13.222,19.96L13.308,19.894L13.396,19.831L13.485,19.769L13.575,19.709L13.667,19.652L13.761,19.597L13.856,19.543L13.952,19.493L14.05,19.444L14.149,19.398L14.249,19.354L14.351,19.312L14.453,19.273L14.557,19.237L14.662,19.202L14.769,19.171L14.876,19.142L14.984,19.115L15.094,19.091L15.204,19.07L15.315,19.052L15.427,19.036L15.54,19.023L15.654,19.013L15.769,19.006L15.884,19.001L16,19L16.116,19.001ZM15.935,21.001L15.87,21.003L15.806,21.008L15.742,21.013L15.68,21.02L15.618,21.029L15.556,21.039L15.495,21.051L15.435,21.064L15.375,21.079L15.316,21.095L15.257,21.112L15.199,21.131L15.142,21.151L15.085,21.173L15.029,21.196L14.973,21.22L14.918,21.246L14.864,21.273L14.811,21.301L14.758,21.33L14.706,21.361L14.655,21.393L14.605,21.426L14.555,21.461L14.506,21.496L14.458,21.533L14.412,21.571L14.365,21.61L14.32,21.65L14.276,21.691L14.233,21.733L14.191,21.776L14.15,21.82L14.11,21.865L14.071,21.912L14.033,21.958L13.996,22.006L13.961,22.055L13.926,22.105L13.893,22.155L13.861,22.206L13.83,22.258L13.801,22.311L13.773,22.364L13.746,22.418L13.72,22.473L13.696,22.529L13.673,22.585L13.651,22.642L13.631,22.699L13.612,22.757L13.595,22.816L13.579,22.875L13.564,22.935L13.551,22.995L13.539,23.056L13.529,23.118L13.52,23.18L13.513,23.242L13.508,23.306L13.503,23.37L13.501,23.435L13.5,23.5L13.501,23.565L13.503,23.63L13.508,23.694L13.513,23.758L13.52,23.82L13.529,23.882L13.539,23.944L13.551,24.005L13.564,24.065L13.579,24.125L13.595,24.184L13.612,24.243L13.631,24.301L13.651,24.358L13.673,24.415L13.696,24.471L13.72,24.527L13.746,24.582L13.773,24.636L13.801,24.689L13.83,24.742L13.861,24.794L13.893,24.845L13.926,24.895L13.961,24.945L13.996,24.994L14.033,25.042L14.071,25.089L14.11,25.135L14.15,25.18L14.191,25.224L14.233,25.267L14.276,25.309L14.32,25.35L14.365,25.39L14.412,25.429L14.458,25.467L14.506,25.504L14.555,25.539L14.605,25.574L14.655,25.607L14.706,25.639L14.758,25.67L14.811,25.699L14.864,25.727L14.918,25.754L14.973,25.78L15.029,25.804L15.085,25.827L15.142,25.849L15.199,25.869L15.257,25.888L15.316,25.905L15.375,25.921L15.435,25.936L15.495,25.949L15.556,25.961L15.618,25.971L15.68,25.98L15.742,25.987L15.806,25.992L15.87,25.997L15.935,25.999L16,26L16.065,25.999L16.13,25.997L16.194,25.992L16.258,25.987L16.32,25.98L16.382,25.971L16.444,25.961L16.505,25.949L16.565,25.936L16.625,25.921L16.684,25.905L16.743,25.888L16.801,25.869L16.858,25.849L16.915,25.827L16.971,25.804L17.027,25.78L17.082,25.754L17.136,25.727L17.189,25.699L17.242,25.67L17.294,25.639L17.345,25.607L17.395,25.574L17.445,25.539L17.494,25.504L17.542,25.467L17.588,25.429L17.635,25.39L17.68,25.35L17.724,25.309L17.767,25.267L17.809,25.224L17.85,25.18L17.89,25.135L17.929,25.088L17.967,25.042L18.004,24.994L18.039,24.945L18.074,24.895L18.107,24.845L18.139,24.794L18.17,24.742L18.199,24.689L18.227,24.636L18.254,24.582L18.28,24.527L18.304,24.471L18.327,24.415L18.349,24.358L18.369,24.301L18.388,24.243L18.405,24.184L18.421,24.125L18.436,24.065L18.449,24.005L18.461,23.944L18.471,23.883L18.48,23.82L18.487,23.757L18.492,23.694L18.497,23.63L18.499,23.565L18.5,23.5L18.499,23.435L18.497,23.37L18.492,23.306L18.487,23.243L18.48,23.18L18.471,23.117L18.461,23.056L18.449,22.995L18.436,22.935L18.421,22.875L18.405,22.816L18.388,22.757L18.369,22.699L18.349,22.642L18.327,22.585L18.304,22.529L18.28,22.473L18.254,22.418L18.227,22.364L18.199,22.311L18.17,22.258L18.139,22.206L18.107,22.155L18.074,22.105L18.039,22.055L18.004,22.006L17.967,21.958L17.929,21.912L17.89,21.865L17.85,21.82L17.809,21.776L17.767,21.733L17.724,21.691L17.68,21.65L17.635,21.61L17.588,21.571L17.542,21.533L17.494,21.496L17.445,21.461L17.395,21.426L17.345,21.393L17.294,21.361L17.242,21.33L17.189,21.301L17.136,21.273L17.082,21.246L17.027,21.22L16.971,21.196L16.915,21.173L16.858,21.151L16.801,21.131L16.743,21.112L16.684,21.095L16.625,21.079L16.565,21.064L16.505,21.051L16.444,21.039L16.382,21.029L16.32,21.02L16.258,21.013L16.194,21.008L16.13,21.003L16.065,21.001L16,21L15.935,21.001Z"/>
        <path d="M12.616,13.001L12.731,13.006L12.846,13.013L12.96,13.023L13.073,13.036L13.185,13.052L13.296,13.07L13.406,13.091L13.516,13.115L13.624,13.142L13.731,13.171L13.838,13.202L13.943,13.237L14.047,13.273L14.149,13.312L14.251,13.354L14.351,13.398L14.45,13.444L14.548,13.493L14.644,13.543L14.739,13.597L14.833,13.652L14.925,13.709L15.015,13.769L15.104,13.831L15.192,13.894L15.278,13.96L15.362,14.028L15.444,14.098L15.525,14.17L15.604,14.243L15.681,14.319L15.757,14.396L15.83,14.475L15.902,14.556L15.972,14.638L16.04,14.722L16.106,14.808L16.169,14.896L16.231,14.985L16.291,15.075L16.348,15.167L16.403,15.261L16.457,15.356L16.507,15.452L16.556,15.55L16.602,15.649L16.646,15.749L16.688,15.851L16.727,15.953L16.763,16.057L16.798,16.162L16.829,16.269L16.858,16.376L16.885,16.484L16.909,16.594L16.93,16.704L16.948,16.815L16.964,16.927L16.977,17.04L16.987,17.154L16.994,17.269L16.999,17.384L17,17.5L16.999,17.616L16.994,17.731L16.987,17.846L16.977,17.96L16.964,18.073L16.948,18.185L16.93,18.296L16.909,18.406L16.885,18.516L16.858,18.624L16.829,18.731L16.798,18.838L16.763,18.943L16.727,19.047L16.688,19.149L16.646,19.251L16.602,19.351L16.556,19.45L16.507,19.548L16.457,19.644L16.403,19.739L16.348,19.833L16.291,19.925L16.231,20.015L16.169,20.104L16.106,20.192L16.04,20.278L15.972,20.362L15.902,20.444L15.83,20.525L15.757,20.604L15.681,20.681L15.604,20.757L15.525,20.83L15.444,20.902L15.362,20.972L15.278,21.04L15.192,21.106L15.104,21.169L15.015,21.231L14.925,21.291L14.833,21.348L14.739,21.403L14.644,21.457L14.548,21.507L14.45,21.556L14.351,21.602L14.251,21.646L14.149,21.688L14.047,21.727L13.943,21.763L13.838,21.798L13.731,21.829L13.624,21.858L13.516,21.885L13.406,21.909L13.296,21.93L13.185,21.948L13.073,21.964L12.96,21.977L12.846,21.987L12.731,21.994L12.616,21.999L12.5,22L12.384,21.999L12.269,21.994L12.154,21.987L12.04,21.977L11.927,21.964L11.815,21.948L11.704,21.93L11.594,21.909L11.484,21.885L11.376,21.858L11.269,21.829L11.162,21.798L11.057,21.763L10.953,21.727L10.851,21.688L10.749,21.646L10.649,21.602L10.55,21.556L10.452,21.507L10.356,21.457L10.261,21.403L10.167,21.348L10.075,21.291L9.985,21.231L9.896,21.169L9.808,21.106L9.722,21.04L9.638,20.972L9.556,20.902L9.475,20.83L9.396,20.757L9.319,20.681L9.243,20.604L9.17,20.525L9.098,20.444L9.028,20.362L8.96,20.278L8.894,20.192L8.831,20.104L8.769,20.015L8.709,19.925L8.652,19.833L8.597,19.739L8.543,19.644L8.493,19.548L8.444,19.45L8.398,19.351L8.354,19.251L8.312,19.149L8.273,19.047L8.237,18.943L8.202,18.838L8.171,18.731L8.142,18.624L8.115,18.516L8.091,18.406L8.07,18.296L8.052,18.185L8.036,18.073L8.023,17.96L8.013,17.846L8.006,17.731L8.001,17.616L8,17.5L8.001,17.384L8.006,17.269L8.013,17.154L8.023,17.04L8.036,16.927L8.052,16.815L8.07,16.704L8.091,16.594L8.115,16.484L8.142,16.376L8.171,16.269L8.202,16.162L8.237,16.057L8.273,15.953L8.312,15.851L8.354,15.749L8.398,15.649L8.444,15.55L8.493,15.452L8.543,15.356L8.597,15.261L8.652,15.167L8.709,15.075L8.769,14.985L8.831,14.896L8.894,14.808L8.96,14.722L9.028,14.638L9.098,14.556L9.17,14.475L9.243,14.396L9.319,14.319L9.396,14.243L9.475,14.17L9.556,14.098L9.638,14.028L9.722,13.96L9.808,13.894L9.896,13.831L9.985,13.769L10.075,13.709L10.167,13.652L10.261,13.597L10.356,13.543L10.452,13.493L10.55,13.444L10.649,13.398L10.749,13.354L10.851,13.312L10.953,13.273L11.057,13.237L11.162,13.202L11.269,13.171L11.376,13.142L11.484,13.115L11.594,13.091L11.704,13.07L11.815,13.052L11.927,13.036L12.04,13.023L12.154,13.013L12.269,13.006L12.384,13.001L12.5,13L12.616,13.001ZM12.435,15.001L12.37,15.003L12.306,15.008L12.242,15.013L12.18,15.02L12.118,15.029L12.056,15.039L11.995,15.051L11.935,15.064L11.875,15.079L11.816,15.095L11.757,15.112L11.699,15.131L11.642,15.151L11.585,15.173L11.529,15.196L11.473,15.22L11.418,15.246L11.364,15.273L11.311,15.301L11.258,15.33L11.206,15.361L11.155,15.393L11.105,15.426L11.055,15.461L11.006,15.496L10.958,15.533L10.912,15.571L10.865,15.61L10.82,15.65L10.776,15.691L10.733,15.733L10.691,15.776L10.65,15.82L10.61,15.865L10.571,15.912L10.533,15.959L10.496,16.006L10.461,16.055L10.426,16.105L10.393,16.155L10.361,16.206L10.33,16.258L10.301,16.311L10.273,16.364L10.246,16.418L10.22,16.473L10.196,16.529L10.173,16.585L10.151,16.642L10.131,16.699L10.112,16.757L10.095,16.816L10.079,16.875L10.064,16.935L10.051,16.995L10.039,17.056L10.029,17.118L10.02,17.18L10.013,17.242L10.008,17.306L10.003,17.37L10.001,17.435L10,17.5L10.001,17.565L10.003,17.63L10.008,17.694L10.013,17.758L10.02,17.82L10.029,17.882L10.039,17.944L10.051,18.005L10.064,18.065L10.079,18.125L10.095,18.184L10.112,18.243L10.131,18.301L10.151,18.358L10.173,18.415L10.196,18.471L10.22,18.527L10.246,18.582L10.273,18.636L10.301,18.689L10.33,18.742L10.361,18.794L10.393,18.845L10.426,18.895L10.461,18.945L10.496,18.994L10.533,19.041L10.571,19.088L10.61,19.135L10.65,19.18L10.691,19.224L10.733,19.267L10.776,19.309L10.82,19.35L10.865,19.39L10.912,19.429L10.958,19.467L11.006,19.504L11.055,19.539L11.105,19.574L11.155,19.607L11.206,19.639L11.258,19.67L11.311,19.699L11.364,19.727L11.418,19.754L11.473,19.78L11.529,19.804L11.585,19.827L11.642,19.849L11.699,19.869L11.757,19.888L11.816,19.905L11.875,19.921L11.935,19.936L11.995,19.949L12.056,19.961L12.118,19.971L12.18,19.98L12.242,19.987L12.306,19.992L12.37,19.997L12.435,19.999L12.5,20L12.565,19.999L12.63,19.997L12.694,19.992L12.758,19.987L12.82,19.98L12.882,19.971L12.944,19.961L13.005,19.949L13.065,19.936L13.125,19.921L13.184,19.905L13.243,19.888L13.301,19.869L13.358,19.849L13.415,19.827L13.471,19.804L13.527,19.78L13.582,19.754L13.636,19.727L13.689,19.699L13.742,19.67L13.794,19.639L13.845,19.607L13.895,19.574L13.945,19.539L13.994,19.504L14.042,19.467L14.088,19.429L14.135,19.39L14.18,19.35L14.224,19.309L14.267,19.267L14.309,19.224L14.35,19.18L14.39,19.135L14.429,19.088L14.467,19.041L14.504,18.994L14.539,18.945L14.574,18.895L14.607,18.845L14.639,18.794L14.67,18.742L14.699,18.689L14.727,18.636L14.754,18.582L14.78,18.527L14.804,18.471L14.827,18.415L14.849,18.358L14.869,18.301L14.888,18.243L14.905,18.184L14.921,18.125L14.936,18.065L14.949,18.005L14.961,17.944L14.971,17.882L14.98,17.82L14.987,17.758L14.992,17.694L14.997,17.63L14.999,17.565L15,17.5L14.999,17.435L14.997,17.37L14.992,17.306L14.987,17.242L14.98,17.18L14.971,17.118L14.961,17.056L14.949,16.995L14.936,16.935L14.921,16.875L14.905,16.816L14.888,16.757L14.869,16.699L14.849,16.642L14.827,16.585L14.804,16.529L14.78,16.473L14.754,16.418L14.727,16.364L14.699,16.311L14.67,16.258L14.639,16.206L14.607,16.155L14.574,16.105L14.539,16.055L14.504,16.006L14.467,15.959L14.429,15.912L14.39,15.865L14.35,15.82L14.309,15.776L14.267,15.733L14.224,15.691L14.18,15.65L14.135,15.61L14.088,15.571L14.042,15.533L13.994,15.496L13.945,15.461L13.895,15.426L13.845,15.393L13.794,15.361L13.742,15.33L13.689,15.301L13.636,15.273L13.582,15.246L13.527,15.22L13.471,15.196L13.415,15.173L13.358,15.151L13.301,15.131L13.243,15.112L13.184,15.095L13.125,15.079L13.065,15.064L13.005,15.051L12.944,15.039L12.882,15.029L12.82,15.02L12.758,15.013L12.694,15.008L12.63,15.003L12.565,15.001L12.5,15L12.435,15.001Z"/>
        <path d="M18.934,3.143L16.934,8.358L15.066,7.642L17.066,2.427L18.934,3.143Z"/>
        <path d="M22.871,3L22.946,3.001L23.022,3.003L23.097,3.006L23.173,3.01L23.248,3.015L23.323,3.021L23.399,3.028L23.474,3.035L23.549,3.044L23.624,3.054L23.699,3.065L23.774,3.077L23.849,3.089L23.924,3.103L23.998,3.118L24.073,3.134L24.147,3.151L24.222,3.169L24.296,3.188L24.37,3.207L24.443,3.228L24.517,3.25L24.591,3.273L24.664,3.297L24.737,3.322L24.81,3.349L24.882,3.376L24.955,3.404L25.027,3.433L25.099,3.463L25.171,3.495L25.242,3.527L25.313,3.561L25.384,3.595L25.455,3.631L25.526,3.668L25.595,3.705L25.665,3.744L25.733,3.783L25.801,3.824L25.868,3.865L25.934,3.907L26,3.949L25.975,4.061L25.949,4.173L25.92,4.284L25.89,4.396L25.857,4.507L25.823,4.618L25.787,4.729L25.748,4.839L25.708,4.949L25.666,5.059L25.622,5.169L25.576,5.278L25.528,5.387L25.478,5.495L25.426,5.603L25.372,5.711L25.332,5.787L25.292,5.862L25.251,5.936L25.209,6.01L25.167,6.083L25.124,6.155L25.08,6.227L25.035,6.298L24.99,6.368L24.944,6.437L24.897,6.506L24.85,6.574L24.801,6.641L24.753,6.708L24.703,6.774L24.653,6.839L24.602,6.904L24.551,6.967L24.499,7.03L24.446,7.092L24.393,7.154L24.339,7.215L24.285,7.275L24.23,7.334L24.174,7.392L24.118,7.45L24.061,7.507L24.004,7.563L23.946,7.618L23.888,7.673L23.829,7.727L23.769,7.78L23.709,7.832L23.649,7.884L23.588,7.935L23.526,7.985L23.464,8.034L23.402,8.082L23.339,8.13L23.276,8.176L23.212,8.222L23.148,8.268L23.083,8.312L23.018,8.356L22.953,8.398L22.887,8.44L22.821,8.481L22.754,8.521L22.687,8.561L22.62,8.599L22.552,8.637L22.484,8.674L22.415,8.71L22.346,8.745L22.277,8.78L22.208,8.813L22.138,8.846L22.068,8.878L21.998,8.909L21.927,8.939L21.856,8.968L21.785,8.997L21.713,9.024L21.642,9.051L21.57,9.077L21.498,9.101L21.425,9.125L21.352,9.149L21.28,9.171L21.207,9.192L21.133,9.213L21.06,9.232L20.986,9.251L20.912,9.268L20.838,9.285L20.764,9.301L20.69,9.316L20.616,9.33L20.541,9.343L20.466,9.356L20.392,9.367L20.317,9.377L20.242,9.387L20.167,9.395L20.092,9.403L20.016,9.41L19.941,9.415L19.866,9.42L19.791,9.424L19.715,9.427L19.64,9.429L19.564,9.429L19.489,9.429L19.413,9.428L19.338,9.426L19.262,9.424L19.187,9.42L19.112,9.415L19.036,9.409L18.961,9.402L18.886,9.394L18.81,9.385L18.735,9.376L18.66,9.365L18.585,9.353L18.51,9.34L18.436,9.326L18.361,9.311L18.287,9.296L18.212,9.279L18.138,9.261L18.064,9.242L17.99,9.222L17.916,9.201L17.842,9.179L17.769,9.156L17.696,9.132L17.623,9.107L17.55,9.081L17.477,9.054L17.405,9.026L17.333,8.996L17.261,8.966L17.189,8.935L17.117,8.902L17.046,8.869L16.975,8.834L16.905,8.799L16.834,8.762L16.764,8.724L16.695,8.686L16.626,8.646L16.559,8.606L16.491,8.565L16.425,8.523L16.36,8.48L16.384,8.368L16.411,8.257L16.439,8.145L16.47,8.034L16.502,7.923L16.537,7.812L16.573,7.701L16.611,7.591L16.651,7.48L16.694,7.37L16.738,7.261L16.784,7.152L16.832,7.043L16.882,6.934L16.934,6.826L16.988,6.719L17.027,6.643L17.068,6.568L17.109,6.493L17.15,6.42L17.193,6.347L17.236,6.274L17.28,6.203L17.324,6.132L17.37,6.062L17.416,5.992L17.463,5.924L17.51,5.855L17.558,5.788L17.607,5.722L17.656,5.656L17.706,5.591L17.757,5.526L17.809,5.462L17.861,5.399L17.913,5.337L17.967,5.276L18.02,5.215L18.075,5.155L18.13,5.096L18.185,5.037L18.242,4.98L18.298,4.923L18.356,4.867L18.414,4.811L18.472,4.756L18.531,4.703L18.59,4.65L18.65,4.597L18.711,4.546L18.772,4.495L18.833,4.445L18.895,4.396L18.958,4.347L19.02,4.3L19.084,4.253L19.147,4.207L19.212,4.162L19.276,4.118L19.341,4.074L19.407,4.031L19.473,3.989L19.539,3.948L19.606,3.908L19.673,3.869L19.74,3.83L19.808,3.792L19.876,3.755L19.944,3.719L20.013,3.684L20.082,3.65L20.152,3.616L20.221,3.583L20.291,3.552L20.362,3.521L20.433,3.491L20.503,3.461L20.575,3.433L20.646,3.405L20.718,3.379L20.79,3.353L20.862,3.328L20.934,3.304L21.007,3.281L21.08,3.259L21.153,3.237L21.226,3.217L21.3,3.198L21.373,3.179L21.447,3.161L21.521,3.144L21.595,3.128L21.669,3.113L21.744,3.099L21.818,3.086L21.893,3.074L21.968,3.063L22.043,3.052L22.118,3.043L22.193,3.034L22.268,3.027L22.343,3.02L22.418,3.014L22.494,3.01L22.569,3.006L22.644,3.003L22.72,3.001L22.795,3L22.871,3ZM22.757,5.001L22.707,5.002L22.657,5.004L22.607,5.006L22.557,5.01L22.506,5.013L22.456,5.018L22.406,5.023L22.356,5.029L22.305,5.035L22.255,5.042L22.205,5.05L22.154,5.058L22.104,5.067L22.053,5.076L22.003,5.086L21.953,5.097L21.903,5.109L21.852,5.121L21.802,5.133L21.752,5.147L21.702,5.161L21.652,5.175L21.602,5.191L21.552,5.206L21.502,5.223L21.453,5.24L21.403,5.258L21.354,5.276L21.304,5.295L21.255,5.315L21.206,5.335L21.157,5.356L21.108,5.377L21.059,5.399L21.011,5.422L20.963,5.446L20.914,5.47L20.866,5.494L20.819,5.519L20.771,5.545L20.724,5.571L20.677,5.598L20.63,5.626L20.583,5.654L20.536,5.683L20.49,5.713L20.444,5.743L20.398,5.773L20.353,5.804L20.308,5.836L20.263,5.869L20.218,5.902L20.174,5.935L20.13,5.969L20.086,6.004L20.042,6.039L19.999,6.075L19.956,6.112L19.914,6.149L19.872,6.187L19.83,6.225L19.789,6.264L19.748,6.303L19.707,6.343L19.666,6.383L19.627,6.424L19.587,6.466L19.548,6.508L19.509,6.551L19.47,6.594L19.432,6.638L19.395,6.682L19.358,6.727L19.321,6.773L19.285,6.819L19.249,6.866L19.213,6.913L19.178,6.961L19.144,7.009L19.11,7.058L19.076,7.107L19.043,7.157L19.011,7.208L18.978,7.259L18.947,7.31L18.916,7.362L18.906,7.379L18.91,7.379L18.959,7.387L19.008,7.394L19.057,7.401L19.106,7.406L19.155,7.411L19.204,7.416L19.254,7.42L19.303,7.423L19.353,7.426L19.403,7.428L19.453,7.429L19.502,7.429L19.552,7.429L19.602,7.429L19.652,7.428L19.702,7.426L19.753,7.423L19.803,7.42L19.853,7.416L19.903,7.412L19.954,7.407L20.004,7.401L20.054,7.395L20.105,7.388L20.155,7.38L20.205,7.372L20.256,7.363L20.306,7.353L20.356,7.343L20.407,7.332L20.457,7.321L20.507,7.309L20.557,7.296L20.608,7.283L20.658,7.269L20.708,7.254L20.758,7.239L20.807,7.223L20.857,7.207L20.907,7.19L20.956,7.172L21.006,7.153L21.055,7.134L21.105,7.115L21.154,7.095L21.203,7.074L21.251,7.052L21.3,7.03L21.349,7.007L21.397,6.984L21.445,6.96L21.493,6.935L21.541,6.91L21.588,6.885L21.636,6.858L21.683,6.831L21.73,6.803L21.777,6.775L21.823,6.746L21.869,6.717L21.915,6.687L21.961,6.656L22.007,6.625L22.052,6.593L22.097,6.561L22.141,6.528L22.186,6.494L22.23,6.46L22.274,6.425L22.317,6.39L22.36,6.354L22.403,6.318L22.446,6.281L22.488,6.243L22.529,6.205L22.571,6.166L22.612,6.127L22.653,6.087L22.693,6.046L22.733,6.005L22.773,5.964L22.812,5.921L22.851,5.879L22.889,5.835L22.927,5.792L22.965,5.747L23.002,5.702L23.038,5.657L23.075,5.611L23.111,5.564L23.146,5.517L23.181,5.469L23.216,5.421L23.25,5.372L23.283,5.323L23.316,5.273L23.349,5.222L23.381,5.171L23.413,5.119L23.444,5.067L23.453,5.051L23.45,5.05L23.401,5.043L23.352,5.035L23.303,5.029L23.254,5.023L23.204,5.018L23.155,5.014L23.106,5.01L23.056,5.007L23.006,5.004L22.957,5.002L22.907,5.001L22.857,5L22.807,5L22.757,5.001Z"/>
    </g>
</svg>
