<?xml version="1.0" encoding="UTF-8" standalone="no"?>
<!DOCTYPE svg PUBLIC "-//W3C//DTD SVG 1.1//EN" "http://www.w3.org/Graphics/SVG/1.1/DTD/svg11.dtd">
<svg width="100%" height="100%" viewBox="0 0 32 32" version="1.1" xmlns="http://www.w3.org/2000/svg" xmlns:xlink="http://www.w3.org/1999/xlink" xml:space="preserve" xmlns:serif="http://www.serif.com/" style="fill-rule:evenodd;clip-rule:evenodd;stroke-linejoin:round;stroke-miterlimit:1.41421;">
    <g id="Main">
        <path d="M16.155,2.107L16.311,2.213L16.468,2.317L16.627,2.42L16.788,2.522L16.949,2.622L17.113,2.721L17.277,2.818L17.443,2.914L17.61,3.009L17.779,3.102L17.949,3.193L18.12,3.284L18.293,3.372L18.467,3.46L18.642,3.545L18.818,3.63L18.996,3.712L19.175,3.794L19.355,3.873L19.536,3.952L19.719,4.028L19.903,4.103L20.088,4.177L20.274,4.248L20.461,4.319L20.649,4.387L20.838,4.454L21.029,4.52L21.22,4.583L21.413,4.646L21.606,4.706L21.801,4.765L21.997,4.822L22.194,4.877L22.391,4.931L22.59,4.982L22.79,5.033L22.99,5.081L23.192,5.128L23.394,5.172L23.598,5.215L23.802,5.257L24.007,5.296L24.213,5.334L24.42,5.37L24.628,5.404L24.836,5.436L25.046,5.466L25.256,5.494L25.467,5.521L25.678,5.546L25.891,5.568L26.104,5.589L26.318,5.608L26.533,5.625L26.748,5.64L26.964,5.653L27.181,5.664L27.398,5.673L27.616,5.68L27.835,5.685L28.054,5.688L28.274,5.689L28.492,5.688L28.709,5.685L28.926,5.68L29.142,5.673L29.358,5.664L29.572,5.653L29.787,5.641L30,5.626L29.984,13.192L29.973,13.366L29.96,13.539L29.945,13.712L29.928,13.885L29.91,14.057L29.889,14.229L29.867,14.4L29.843,14.571L29.817,14.742L29.789,14.912L29.759,15.081L29.728,15.25L29.695,15.419L29.66,15.587L29.623,15.755L29.584,15.922L29.544,16.089L29.502,16.255L29.458,16.421L29.413,16.586L29.365,16.751L29.316,16.915L29.265,17.078L29.213,17.241L29.159,17.404L29.103,17.566L29.046,17.727L28.986,17.888L28.926,18.048L28.863,18.208L28.799,18.367L28.733,18.526L28.666,18.684L28.597,18.841L28.526,18.998L28.454,19.154L28.38,19.309L28.305,19.464L28.228,19.618L28.149,19.772L28.069,19.924L27.987,20.077L27.904,20.228L27.819,20.379L27.732,20.529L27.644,20.679L27.555,20.828L27.464,20.976L27.372,21.123L27.278,21.27L27.182,21.416L27.085,21.561L26.987,21.706L26.887,21.849L26.786,21.993L26.683,22.135L26.579,22.276L26.473,22.417L26.366,22.557L26.258,22.697L26.148,22.835L26.037,22.973L25.924,23.11L25.81,23.246L25.694,23.381L25.578,23.516L25.459,23.649L25.34,23.782L25.219,23.914L25.097,24.045L24.973,24.176L24.849,24.305L24.722,24.434L24.595,24.562L24.466,24.688L24.336,24.815L24.205,24.94L24.072,25.064L23.938,25.187L23.803,25.31L23.667,25.431L23.529,25.552L23.391,25.672L23.25,25.79L23.109,25.908L22.967,26.025L22.823,26.141L22.678,26.256L22.532,26.37L22.385,26.483L22.237,26.595L22.087,26.706L21.936,26.817L21.785,26.926L21.632,27.034L21.477,27.141L21.322,27.247L21.166,27.352L21.009,27.456L20.85,27.559L20.69,27.661L20.53,27.762L20.368,27.862L20.205,27.961L20.041,28.059L19.876,28.156L19.71,28.251L19.543,28.346L19.375,28.439L19.206,28.532L19.036,28.623L18.865,28.713L18.693,28.802L18.52,28.89L18.346,28.977L18.172,29.063L17.996,29.147L17.819,29.231L17.641,29.313L17.462,29.394L17.283,29.474L17.102,29.553L16.921,29.63L16.738,29.707L16.555,29.782L16.371,29.856L16.186,29.928L16,30L15.814,29.928L15.629,29.856L15.445,29.782L15.262,29.707L15.079,29.63L14.898,29.553L14.717,29.474L14.538,29.394L14.359,29.313L14.181,29.231L14.004,29.147L13.828,29.063L13.654,28.977L13.48,28.89L13.307,28.802L13.135,28.713L12.964,28.623L12.794,28.532L12.625,28.439L12.457,28.346L12.29,28.251L12.124,28.156L11.959,28.059L11.795,27.961L11.632,27.862L11.47,27.762L11.31,27.661L11.15,27.559L10.991,27.456L10.834,27.352L10.678,27.247L10.523,27.141L10.368,27.034L10.215,26.926L10.064,26.817L9.913,26.706L9.763,26.595L9.615,26.483L9.468,26.37L9.322,26.256L9.177,26.141L9.033,26.025L8.891,25.908L8.75,25.79L8.609,25.672L8.471,25.552L8.333,25.431L8.197,25.31L8.062,25.187L7.928,25.064L7.795,24.94L7.664,24.815L7.534,24.688L7.405,24.562L7.278,24.434L7.151,24.305L7.027,24.176L6.903,24.045L6.781,23.914L6.66,23.782L6.541,23.649L6.422,23.516L6.306,23.381L6.19,23.246L6.076,23.11L5.963,22.973L5.852,22.835L5.742,22.697L5.634,22.557L5.527,22.417L5.421,22.276L5.317,22.135L5.214,21.993L5.113,21.849L5.013,21.706L4.915,21.561L4.818,21.416L4.722,21.27L4.628,21.123L4.536,20.976L4.445,20.828L4.356,20.679L4.268,20.529L4.181,20.379L4.096,20.228L4.013,20.077L3.931,19.924L3.851,19.772L3.772,19.618L3.695,19.464L3.62,19.309L3.546,19.154L3.474,18.998L3.403,18.841L3.334,18.684L3.267,18.526L3.201,18.367L3.137,18.208L3.074,18.048L3.014,17.888L2.954,17.727L2.897,17.566L2.841,17.404L2.787,17.241L2.735,17.078L2.684,16.915L2.635,16.751L2.587,16.586L2.542,16.421L2.498,16.255L2.456,16.089L2.416,15.922L2.377,15.755L2.34,15.587L2.305,15.419L2.272,15.25L2.241,15.081L2.211,14.912L2.183,14.742L2.157,14.571L2.133,14.4L2.111,14.229L2.09,14.057L2.072,13.885L2.055,13.712L2.04,13.539L2.027,13.366L2.016,13.192L2,5.626L2.213,5.641L2.428,5.653L2.642,5.664L2.858,5.673L3.074,5.68L3.291,5.685L3.508,5.688L3.726,5.689L3.946,5.688L4.165,5.685L4.384,5.68L4.602,5.673L4.819,5.664L5.036,5.653L5.252,5.64L5.467,5.625L5.682,5.608L5.896,5.589L6.109,5.568L6.322,5.546L6.533,5.521L6.744,5.494L6.954,5.466L7.164,5.436L7.372,5.404L7.58,5.37L7.787,5.334L7.993,5.296L8.198,5.257L8.402,5.215L8.606,5.172L8.808,5.128L9.01,5.081L9.21,5.033L9.41,4.982L9.609,4.931L9.806,4.877L10.003,4.822L10.199,4.765L10.394,4.706L10.587,4.646L10.78,4.583L10.971,4.52L11.162,4.454L11.351,4.387L11.539,4.319L11.726,4.248L11.912,4.177L12.097,4.103L12.281,4.028L12.463,3.952L12.645,3.873L12.825,3.794L13.004,3.712L13.181,3.63L13.358,3.545L13.533,3.46L13.707,3.372L13.88,3.284L14.051,3.193L14.221,3.102L14.39,3.009L14.557,2.914L14.723,2.818L14.887,2.721L15.051,2.622L15.212,2.522L15.373,2.42L15.532,2.317L15.689,2.213L15.845,2.107L16,2L16.155,2.107ZM15.915,4.437L15.733,4.544L15.55,4.65L15.365,4.755L15.179,4.857L14.992,4.958L14.803,5.058L14.613,5.155L14.422,5.252L14.229,5.346L14.035,5.439L13.84,5.53L13.643,5.619L13.445,5.706L13.246,5.792L13.046,5.876L12.845,5.958L12.642,6.039L12.438,6.118L12.233,6.195L12.027,6.27L11.82,6.343L11.612,6.414L11.402,6.484L11.192,6.552L10.98,6.618L10.767,6.682L10.553,6.744L10.339,6.805L10.123,6.863L9.906,6.92L9.688,6.975L9.47,7.027L9.25,7.078L9.029,7.127L8.808,7.174L8.585,7.219L8.362,7.262L8.137,7.303L7.912,7.342L7.686,7.379L7.459,7.414L7.231,7.447L7.003,7.478L6.774,7.506L6.543,7.533L6.313,7.558L6.081,7.58L5.848,7.601L5.615,7.619L5.382,7.636L5.147,7.65L4.912,7.662L4.676,7.672L4.439,7.679L4.202,7.685L4.004,7.688L4.016,13.126L4.022,13.227L4.034,13.378L4.047,13.53L4.061,13.68L4.078,13.831L4.095,13.981L4.115,14.131L4.136,14.281L4.159,14.43L4.183,14.578L4.209,14.727L4.237,14.875L4.266,15.022L4.296,15.169L4.328,15.316L4.362,15.462L4.398,15.609L4.434,15.754L4.473,15.899L4.513,16.044L4.554,16.189L4.597,16.333L4.642,16.476L4.688,16.619L4.735,16.762L4.784,16.905L4.835,17.046L4.887,17.188L4.941,17.329L4.996,17.47L5.052,17.61L5.11,17.75L5.17,17.889L5.231,18.028L5.293,18.166L5.357,18.304L5.422,18.442L5.489,18.579L5.557,18.715L5.627,18.851L5.698,18.987L5.77,19.122L5.844,19.256L5.92,19.39L5.997,19.524L6.075,19.657L6.154,19.789L6.235,19.921L6.318,20.053L6.402,20.183L6.487,20.314L6.573,20.443L6.661,20.573L6.75,20.701L6.841,20.829L6.933,20.957L7.027,21.084L7.121,21.21L7.217,21.336L7.315,21.461L7.413,21.585L7.513,21.709L7.615,21.832L7.717,21.955L7.821,22.076L7.927,22.198L8.033,22.318L8.141,22.438L8.25,22.557L8.361,22.676L8.472,22.794L8.585,22.911L8.7,23.027L8.815,23.143L8.932,23.258L9.05,23.372L9.169,23.486L9.289,23.599L9.411,23.711L9.534,23.822L9.658,23.933L9.783,24.043L9.909,24.152L10.037,24.26L10.166,24.367L10.296,24.474L10.427,24.58L10.559,24.685L10.692,24.789L10.827,24.892L10.963,24.995L11.099,25.096L11.237,25.197L11.376,25.297L11.517,25.396L11.658,25.494L11.8,25.592L11.944,25.688L12.088,25.784L12.234,25.878L12.38,25.972L12.528,26.065L12.677,26.157L12.826,26.248L12.977,26.338L13.129,26.427L13.282,26.515L13.436,26.602L13.59,26.688L13.746,26.773L13.903,26.857L14.061,26.941L14.22,27.023L14.379,27.104L14.54,27.184L14.702,27.263L14.864,27.341L15.028,27.419L15.192,27.495L15.357,27.57L15.524,27.644L15.691,27.716L15.859,27.788L16,27.847L16.141,27.788L16.309,27.716L16.476,27.644L16.643,27.57L16.808,27.495L16.972,27.419L17.136,27.341L17.298,27.263L17.46,27.184L17.621,27.104L17.78,27.023L17.939,26.941L18.097,26.857L18.254,26.773L18.41,26.688L18.564,26.602L18.718,26.515L18.871,26.427L19.023,26.338L19.174,26.248L19.323,26.157L19.472,26.065L19.62,25.972L19.766,25.878L19.912,25.784L20.056,25.688L20.2,25.592L20.342,25.494L20.483,25.396L20.624,25.297L20.763,25.197L20.901,25.096L21.037,24.995L21.173,24.892L21.308,24.789L21.441,24.685L21.573,24.58L21.704,24.474L21.834,24.367L21.963,24.26L22.091,24.152L22.217,24.043L22.342,23.933L22.466,23.822L22.589,23.711L22.711,23.599L22.831,23.486L22.95,23.372L23.068,23.258L23.185,23.143L23.3,23.027L23.415,22.911L23.528,22.794L23.639,22.676L23.75,22.557L23.859,22.438L23.967,22.318L24.073,22.198L24.179,22.076L24.283,21.955L24.385,21.832L24.487,21.709L24.587,21.585L24.685,21.461L24.783,21.336L24.879,21.21L24.973,21.084L25.067,20.957L25.159,20.829L25.25,20.701L25.339,20.573L25.427,20.443L25.513,20.314L25.598,20.183L25.682,20.053L25.765,19.921L25.846,19.789L25.925,19.657L26.003,19.524L26.08,19.39L26.156,19.256L26.23,19.122L26.302,18.987L26.373,18.851L26.443,18.715L26.511,18.579L26.578,18.442L26.643,18.304L26.707,18.166L26.769,18.028L26.83,17.889L26.89,17.75L26.948,17.61L27.004,17.47L27.059,17.329L27.113,17.188L27.165,17.046L27.216,16.905L27.265,16.762L27.312,16.619L27.358,16.476L27.403,16.333L27.446,16.189L27.487,16.044L27.527,15.899L27.566,15.754L27.602,15.609L27.638,15.463L27.672,15.316L27.704,15.169L27.734,15.022L27.763,14.875L27.791,14.727L27.817,14.578L27.841,14.43L27.864,14.281L27.885,14.131L27.905,13.981L27.922,13.831L27.939,13.68L27.953,13.53L27.966,13.378L27.978,13.227L27.984,13.126L27.996,7.688L27.798,7.685L27.561,7.679L27.324,7.672L27.088,7.662L26.853,7.65L26.618,7.636L26.385,7.619L26.152,7.601L25.919,7.58L25.687,7.558L25.457,7.533L25.226,7.506L24.997,7.478L24.769,7.447L24.541,7.414L24.314,7.379L24.088,7.342L23.863,7.303L23.638,7.262L23.415,7.219L23.192,7.174L22.971,7.127L22.75,7.078L22.53,7.027L22.312,6.975L22.094,6.92L21.877,6.863L21.661,6.805L21.446,6.744L21.233,6.682L21.02,6.618L20.808,6.552L20.598,6.484L20.388,6.414L20.18,6.343L19.973,6.27L19.767,6.195L19.562,6.118L19.358,6.039L19.155,5.958L18.954,5.876L18.754,5.792L18.555,5.706L18.357,5.619L18.16,5.53L17.965,5.439L17.771,5.346L17.578,5.252L17.387,5.155L17.197,5.058L17.008,4.958L16.821,4.857L16.635,4.755L16.45,4.65L16.267,4.544L16.085,4.437L16,4.385L15.915,4.437Z"/>
    </g>
</svg>
