<?xml version="1.0" encoding="UTF-8" standalone="no"?>
<!DOCTYPE svg PUBLIC "-//W3C//DTD SVG 1.1//EN" "http://www.w3.org/Graphics/SVG/1.1/DTD/svg11.dtd">
<svg width="100%" height="100%" viewBox="0 0 32 32" version="1.1" xmlns="http://www.w3.org/2000/svg" xmlns:xlink="http://www.w3.org/1999/xlink" xml:space="preserve" xmlns:serif="http://www.serif.com/" style="fill-rule:evenodd;clip-rule:evenodd;stroke-linejoin:round;stroke-miterlimit:1.41421;">
    <g id="Main">
        <path d="M16.132,1.115L16.266,1.228L16.401,1.34L16.537,1.45L16.674,1.559L16.813,1.666L16.953,1.772L17.094,1.876L17.236,1.979L17.379,2.081L17.524,2.18L17.669,2.279L17.816,2.375L17.964,2.47L18.113,2.564L18.263,2.656L18.414,2.746L18.566,2.835L18.719,2.922L18.873,3.007L19.029,3.091L19.185,3.173L19.342,3.253L19.501,3.332L19.66,3.409L19.82,3.484L19.981,3.558L20.144,3.63L20.307,3.7L20.471,3.768L20.636,3.834L20.802,3.899L20.968,3.962L21.136,4.023L21.304,4.082L21.474,4.14L21.644,4.195L21.815,4.249L21.987,4.301L22.159,4.351L22.333,4.399L22.507,4.445L22.682,4.489L22.857,4.532L23.034,4.572L23.211,4.61L23.389,4.647L23.568,4.681L23.747,4.714L23.927,4.744L24.108,4.772L24.289,4.799L24.471,4.823L24.653,4.845L24.837,4.866L25.021,4.884L25.205,4.9L25.39,4.914L25.576,4.926L25.762,4.935L25.949,4.943L26.136,4.948L26.324,4.952L26.512,4.953L26.699,4.952L26.885,4.948L27.07,4.943L27.255,4.936L27.44,4.926L27.624,4.914L27.807,4.901L27.99,4.885L27.977,12.991L27.967,13.177L27.956,13.363L27.943,13.549L27.929,13.734L27.913,13.918L27.895,14.102L27.876,14.286L27.855,14.469L27.833,14.652L27.809,14.834L27.784,15.016L27.757,15.197L27.729,15.378L27.699,15.558L27.667,15.738L27.634,15.917L27.599,16.095L27.563,16.273L27.526,16.451L27.487,16.628L27.446,16.804L27.404,16.98L27.361,17.155L27.316,17.33L27.27,17.504L27.222,17.678L27.173,17.851L27.122,18.023L27.07,18.195L27.016,18.366L26.962,18.536L26.905,18.706L26.847,18.875L26.788,19.044L26.728,19.212L26.666,19.379L26.603,19.545L26.538,19.711L26.472,19.876L26.405,20.041L26.336,20.205L26.266,20.368L26.195,20.53L26.122,20.692L26.048,20.853L25.973,21.013L25.896,21.172L25.818,21.331L25.739,21.489L25.659,21.646L25.577,21.803L25.494,21.958L25.41,22.113L25.324,22.267L25.237,22.421L25.149,22.573L25.06,22.725L24.97,22.876L24.878,23.026L24.785,23.175L24.691,23.323L24.596,23.471L24.499,23.618L24.401,23.763L24.303,23.908L24.203,24.052L24.101,24.196L23.999,24.338L23.896,24.479L23.791,24.62L23.685,24.76L23.578,24.898L23.47,25.036L23.361,25.173L23.251,25.309L23.139,25.444L23.027,25.578L22.913,25.711L22.799,25.843L22.683,25.975L22.566,26.105L22.448,26.234L22.33,26.362L22.21,26.49L22.089,26.616L21.967,26.741L21.844,26.865L21.719,26.989L21.594,27.111L21.468,27.232L21.341,27.352L21.213,27.471L21.084,27.589L20.954,27.706L20.823,27.822L20.691,27.937L20.558,28.05L20.424,28.163L20.289,28.275L20.154,28.385L20.017,28.494L19.879,28.602L19.741,28.71L19.601,28.815L19.461,28.92L19.32,29.024L19.178,29.126L19.035,29.228L18.891,29.328L18.746,29.427L18.601,29.525L18.454,29.621L18.307,29.717L18.159,29.811L18.01,29.904L17.86,29.996L17.709,30.086L17.558,30.176L17.405,30.264L17.252,30.351L17.099,30.436L16.944,30.521L16.788,30.604L16.632,30.686L16.475,30.766L16.318,30.845L16.159,30.923L16,31L15.841,30.923L15.682,30.845L15.525,30.766L15.368,30.686L15.212,30.604L15.056,30.521L14.901,30.436L14.748,30.351L14.595,30.264L14.442,30.176L14.291,30.086L14.14,29.996L13.99,29.904L13.841,29.811L13.693,29.717L13.546,29.621L13.399,29.525L13.254,29.427L13.109,29.328L12.965,29.228L12.822,29.126L12.68,29.024L12.539,28.92L12.399,28.815L12.259,28.71L12.121,28.602L11.983,28.494L11.846,28.385L11.711,28.275L11.576,28.163L11.442,28.05L11.309,27.937L11.177,27.822L11.046,27.706L10.916,27.589L10.787,27.471L10.659,27.352L10.532,27.232L10.406,27.111L10.281,26.989L10.156,26.865L10.033,26.741L9.911,26.616L9.79,26.49L9.67,26.362L9.552,26.234L9.434,26.105L9.317,25.975L9.201,25.843L9.087,25.711L8.973,25.578L8.861,25.444L8.749,25.309L8.639,25.173L8.53,25.036L8.422,24.898L8.315,24.76L8.209,24.62L8.104,24.479L8.001,24.338L7.899,24.196L7.797,24.052L7.697,23.908L7.599,23.763L7.501,23.618L7.404,23.471L7.309,23.323L7.215,23.175L7.122,23.026L7.03,22.876L6.94,22.725L6.851,22.573L6.763,22.421L6.676,22.267L6.59,22.113L6.506,21.958L6.423,21.803L6.341,21.646L6.261,21.489L6.182,21.331L6.104,21.172L6.027,21.013L5.952,20.853L5.878,20.692L5.805,20.53L5.734,20.368L5.664,20.205L5.595,20.041L5.528,19.876L5.462,19.711L5.397,19.545L5.334,19.379L5.272,19.212L5.212,19.044L5.153,18.875L5.095,18.706L5.038,18.536L4.984,18.366L4.93,18.195L4.878,18.023L4.827,17.851L4.778,17.678L4.73,17.504L4.684,17.33L4.639,17.155L4.596,16.98L4.554,16.804L4.513,16.628L4.474,16.451L4.437,16.273L4.401,16.095L4.366,15.917L4.333,15.738L4.301,15.558L4.271,15.378L4.243,15.197L4.216,15.016L4.191,14.834L4.167,14.652L4.145,14.469L4.124,14.286L4.105,14.102L4.087,13.918L4.071,13.734L4.057,13.549L4.044,13.363L4.033,13.177L4.023,12.991L4.01,4.885L4.193,4.901L4.376,4.914L4.56,4.926L4.745,4.936L4.93,4.943L5.115,4.948L5.301,4.952L5.488,4.953L5.676,4.952L5.864,4.948L6.051,4.943L6.238,4.935L6.424,4.926L6.61,4.914L6.795,4.9L6.979,4.884L7.163,4.866L7.347,4.845L7.529,4.823L7.711,4.799L7.892,4.772L8.073,4.744L8.253,4.714L8.432,4.681L8.611,4.647L8.789,4.61L8.966,4.572L9.143,4.532L9.318,4.489L9.493,4.445L9.667,4.399L9.841,4.351L10.013,4.301L10.185,4.249L10.356,4.195L10.526,4.14L10.696,4.082L10.864,4.023L11.032,3.962L11.198,3.899L11.364,3.834L11.529,3.768L11.693,3.7L11.856,3.63L12.018,3.558L12.18,3.484L12.34,3.409L12.499,3.332L12.658,3.253L12.815,3.173L12.971,3.091L13.126,3.007L13.281,2.922L13.434,2.835L13.586,2.746L13.737,2.656L13.887,2.564L14.036,2.47L14.184,2.375L14.331,2.279L14.476,2.18L14.621,2.081L14.764,1.979L14.906,1.876L15.047,1.772L15.187,1.666L15.325,1.559L15.463,1.45L15.599,1.34L15.734,1.228L15.868,1.115L16,1L16.132,1.115ZM15.928,3.606L15.767,3.72L15.604,3.832L15.44,3.943L15.275,4.051L15.109,4.158L14.941,4.264L14.773,4.367L14.603,4.469L14.431,4.568L14.259,4.666L14.085,4.762L13.911,4.857L13.735,4.949L13.558,5.039L13.38,5.128L13.2,5.215L13.02,5.299L12.838,5.382L12.656,5.463L12.472,5.542L12.287,5.619L12.102,5.694L11.915,5.766L11.727,5.837L11.538,5.906L11.349,5.973L11.158,6.038L10.966,6.1L10.774,6.161L10.58,6.219L10.386,6.275L10.19,6.329L9.994,6.381L9.797,6.431L9.599,6.479L9.401,6.524L9.201,6.567L9.001,6.608L8.8,6.647L8.598,6.684L8.395,6.718L8.192,6.75L7.988,6.78L7.783,6.807L7.577,6.832L7.371,6.855L7.164,6.875L6.957,6.893L6.749,6.909L6.54,6.922L6.331,6.933L6.121,6.942L6.013,6.945L6.023,12.938L6.03,13.066L6.04,13.235L6.052,13.403L6.065,13.57L6.079,13.737L6.095,13.904L6.112,14.07L6.131,14.236L6.151,14.401L6.173,14.566L6.196,14.731L6.22,14.895L6.246,15.058L6.273,15.221L6.301,15.384L6.331,15.546L6.363,15.707L6.395,15.868L6.429,16.029L6.464,16.189L6.501,16.348L6.539,16.507L6.578,16.666L6.619,16.824L6.661,16.981L6.704,17.138L6.748,17.295L6.794,17.451L6.841,17.606L6.89,17.761L6.939,17.915L6.99,18.068L7.043,18.221L7.096,18.374L7.151,18.525L7.207,18.677L7.264,18.827L7.322,18.977L7.382,19.127L7.443,19.275L7.505,19.423L7.568,19.571L7.633,19.718L7.699,19.864L7.766,20.01L7.834,20.155L7.903,20.299L7.973,20.442L8.045,20.585L8.118,20.727L8.192,20.869L8.267,21.01L8.343,21.15L8.421,21.289L8.499,21.428L8.579,21.566L8.659,21.703L8.741,21.84L8.824,21.976L8.908,22.111L8.994,22.245L9.08,22.379L9.167,22.511L9.256,22.643L9.345,22.775L9.436,22.905L9.527,23.035L9.62,23.164L9.714,23.292L9.808,23.419L9.904,23.545L10.001,23.671L10.099,23.796L10.198,23.92L10.297,24.043L10.398,24.165L10.5,24.287L10.603,24.407L10.707,24.527L10.812,24.646L10.917,24.764L11.024,24.881L11.132,24.997L11.24,25.112L11.35,25.226L11.46,25.34L11.572,25.452L11.684,25.564L11.797,25.674L11.911,25.784L12.027,25.893L12.143,26.001L12.259,26.108L12.377,26.213L12.496,26.318L12.615,26.422L12.736,26.525L12.857,26.627L12.979,26.728L13.102,26.828L13.226,26.927L13.35,27.025L13.476,27.122L13.602,27.218L13.729,27.313L13.857,27.407L13.985,27.499L14.115,27.591L14.245,27.682L14.376,27.771L14.508,27.86L14.64,27.947L14.774,28.034L14.908,28.119L15.042,28.203L15.178,28.286L15.314,28.368L15.451,28.449L15.589,28.529L15.728,28.607L15.867,28.685L16,28.757L16.133,28.685L16.272,28.607L16.411,28.529L16.549,28.449L16.686,28.368L16.822,28.286L16.958,28.203L17.092,28.119L17.226,28.034L17.36,27.947L17.492,27.86L17.624,27.771L17.755,27.682L17.885,27.591L18.015,27.499L18.143,27.407L18.271,27.313L18.398,27.218L18.524,27.122L18.65,27.025L18.774,26.927L18.898,26.828L19.021,26.728L19.143,26.627L19.264,26.525L19.385,26.422L19.504,26.318L19.623,26.213L19.741,26.108L19.857,26.001L19.973,25.893L20.089,25.784L20.203,25.674L20.316,25.564L20.428,25.452L20.54,25.34L20.65,25.226L20.76,25.112L20.868,24.997L20.976,24.881L21.083,24.764L21.188,24.646L21.293,24.527L21.397,24.407L21.5,24.287L21.602,24.165L21.703,24.043L21.802,23.92L21.901,23.796L21.999,23.671L22.096,23.545L22.192,23.419L22.286,23.292L22.38,23.164L22.473,23.035L22.564,22.905L22.655,22.775L22.744,22.643L22.833,22.511L22.92,22.379L23.006,22.245L23.092,22.111L23.176,21.976L23.259,21.84L23.341,21.703L23.421,21.566L23.501,21.428L23.579,21.289L23.657,21.15L23.733,21.01L23.808,20.869L23.882,20.727L23.955,20.585L24.027,20.442L24.097,20.299L24.166,20.155L24.234,20.01L24.301,19.864L24.367,19.718L24.432,19.571L24.495,19.423L24.557,19.275L24.618,19.127L24.678,18.977L24.736,18.827L24.793,18.677L24.849,18.525L24.904,18.374L24.957,18.221L25.01,18.068L25.061,17.915L25.11,17.761L25.159,17.606L25.206,17.451L25.252,17.295L25.296,17.138L25.339,16.981L25.381,16.824L25.422,16.666L25.461,16.508L25.499,16.348L25.536,16.189L25.571,16.029L25.605,15.868L25.637,15.707L25.669,15.546L25.699,15.384L25.727,15.221L25.754,15.058L25.78,14.895L25.804,14.731L25.827,14.566L25.849,14.401L25.869,14.236L25.888,14.07L25.905,13.904L25.921,13.737L25.935,13.57L25.948,13.403L25.96,13.235L25.97,13.066L25.977,12.938L25.987,6.945L25.879,6.942L25.669,6.933L25.46,6.922L25.251,6.909L25.043,6.893L24.836,6.875L24.629,6.855L24.423,6.832L24.217,6.807L24.012,6.78L23.808,6.75L23.605,6.718L23.402,6.684L23.2,6.647L22.999,6.608L22.799,6.567L22.599,6.524L22.401,6.479L22.203,6.431L22.006,6.381L21.81,6.329L21.614,6.275L21.42,6.219L21.226,6.161L21.034,6.1L20.842,6.038L20.651,5.973L20.462,5.906L20.273,5.837L20.085,5.766L19.898,5.694L19.713,5.619L19.528,5.542L19.344,5.463L19.162,5.382L18.98,5.299L18.8,5.215L18.62,5.128L18.442,5.039L18.265,4.949L18.089,4.857L17.915,4.762L17.741,4.666L17.568,4.568L17.397,4.469L17.227,4.367L17.059,4.264L16.891,4.158L16.725,4.051L16.56,3.943L16.396,3.832L16.233,3.72L16.072,3.606L16,3.554L15.928,3.606Z"/>
    </g>
</svg>
