<?xml version="1.0" encoding="UTF-8" standalone="no"?>
<!DOCTYPE svg PUBLIC "-//W3C//DTD SVG 1.1//EN" "http://www.w3.org/Graphics/SVG/1.1/DTD/svg11.dtd">
<svg width="100%" height="100%" viewBox="0 0 32 32" version="1.1" xmlns="http://www.w3.org/2000/svg" xmlns:xlink="http://www.w3.org/1999/xlink" xml:space="preserve" xmlns:serif="http://www.serif.com/" style="fill-rule:evenodd;clip-rule:evenodd;stroke-linejoin:round;stroke-miterlimit:1.41421;">
    <g id="Main">
        <path d="M23.61,3.001L23.719,3.003L23.828,3.006L23.937,3.011L24.046,3.017L24.154,3.025L24.261,3.034L24.369,3.044L24.475,3.055L24.582,3.068L24.688,3.083L24.794,3.098L24.899,3.115L25.004,3.133L25.108,3.152L25.212,3.173L25.316,3.195L25.419,3.218L25.521,3.242L25.623,3.268L25.725,3.295L25.826,3.323L25.926,3.352L26.026,3.382L26.126,3.414L26.225,3.447L26.323,3.481L26.421,3.516L26.519,3.552L26.615,3.59L26.712,3.629L26.807,3.668L26.902,3.709L26.997,3.751L27.091,3.794L27.184,3.839L27.276,3.884L27.368,3.93L27.46,3.978L27.55,4.027L27.64,4.076L27.73,4.127L27.818,4.179L27.906,4.231L27.993,4.285L28.08,4.34L28.166,4.396L28.251,4.452L28.335,4.51L28.419,4.569L28.502,4.629L28.584,4.69L28.666,4.751L28.746,4.814L28.826,4.877L28.905,4.942L28.984,5.007L29.061,5.074L29.138,5.141L29.214,5.209L29.289,5.278L29.363,5.348L29.437,5.419L29.509,5.491L29.581,5.563L29.652,5.637L29.722,5.711L29.791,5.786L29.859,5.862L29.926,5.939L29.993,6.016L30.058,6.095L30.123,6.174L30.186,6.254L30.249,6.334L30.31,6.416L30.371,6.498L30.431,6.581L30.49,6.665L30.548,6.749L30.604,6.834L30.66,6.92L30.715,7.007L30.769,7.094L30.821,7.182L30.873,7.27L30.924,7.36L30.973,7.45L31.022,7.54L31.07,7.632L31.116,7.724L31.161,7.816L31.206,7.909L31.249,8.003L31.291,8.098L31.332,8.193L31.371,8.288L31.41,8.385L31.448,8.481L31.484,8.579L31.519,8.677L31.553,8.775L31.586,8.874L31.618,8.974L31.648,9.074L31.677,9.174L31.705,9.275L31.732,9.377L31.758,9.479L31.782,9.581L31.805,9.684L31.827,9.788L31.848,9.892L31.867,9.996L31.885,10.101L31.902,10.206L31.917,10.312L31.932,10.418L31.945,10.525L31.956,10.631L31.966,10.739L31.975,10.846L31.983,10.954L31.989,11.063L31.994,11.172L31.997,11.281L31.999,11.39L32,11.5L31.999,11.598L31.998,11.696L31.995,11.794L31.991,11.891L31.986,11.988L31.98,12.085L31.973,12.181L31.965,12.277L31.956,12.373L31.945,12.469L31.934,12.564L31.921,12.659L31.908,12.754L31.894,12.848L31.878,12.942L31.861,13.035L31.844,13.129L31.825,13.221L31.806,13.314L31.785,13.406L31.763,13.498L31.741,13.589L31.717,13.68L31.693,13.771L31.667,13.861L31.641,13.951L31.613,14.04L31.585,14.129L31.556,14.217L31.525,14.305L31.494,14.393L31.462,14.48L31.429,14.567L31.395,14.653L31.36,14.739L31.324,14.824L31.288,14.909L31.25,14.994L31.212,15.078L31.172,15.161L31.132,15.244L31.091,15.326L31.049,15.408L31.006,15.49L30.962,15.57L30.918,15.651L30.873,15.731L30.826,15.81L30.779,15.889L30.731,15.967L30.683,16.044L30.633,16.121L30.583,16.198L30.532,16.274L30.48,16.349L30.428,16.424L30.374,16.498L30.32,16.572L30.265,16.645L30.209,16.717L30.153,16.789L30.095,16.86L30.037,16.93L29.979,17L30,17L29.893,17.099L29.82,17.181L29.746,17.262L29.671,17.343L29.595,17.422L29.518,17.5L29.44,17.577L29.361,17.654L29.281,17.729L29.2,17.803L29.119,17.876L29.036,17.948L28.952,18.019L28.867,18.089L28.782,18.158L28.695,18.226L28.608,18.293L16,30L3.392,18.293L3.305,18.226L3.218,18.158L3.133,18.089L3.048,18.019L2.964,17.948L2.881,17.876L2.8,17.803L2.719,17.729L2.639,17.654L2.56,17.577L2.482,17.5L2.405,17.422L2.329,17.343L2.254,17.262L2.18,17.181L2.107,17.099L2,17L2.021,17L1.963,16.93L1.905,16.86L1.847,16.789L1.791,16.717L1.735,16.645L1.68,16.572L1.626,16.498L1.572,16.424L1.52,16.349L1.468,16.274L1.417,16.198L1.367,16.121L1.317,16.044L1.269,15.967L1.221,15.889L1.174,15.81L1.127,15.731L1.082,15.651L1.038,15.57L0.994,15.49L0.951,15.408L0.909,15.326L0.868,15.244L0.828,15.161L0.788,15.078L0.75,14.994L0.712,14.909L0.676,14.824L0.64,14.739L0.605,14.653L0.571,14.567L0.538,14.48L0.506,14.393L0.475,14.305L0.444,14.217L0.415,14.129L0.387,14.04L0.359,13.951L0.333,13.861L0.307,13.771L0.283,13.68L0.259,13.589L0.237,13.498L0.215,13.406L0.194,13.314L0.175,13.221L0.156,13.129L0.139,13.035L0.122,12.942L0.106,12.848L0.092,12.754L0.079,12.659L0.066,12.564L0.055,12.469L0.044,12.373L0.035,12.277L0.027,12.181L0.02,12.085L0.014,11.988L0.009,11.891L0.005,11.794L0.002,11.696L0.001,11.598L0,11.5L0.001,11.39L0.003,11.281L0.006,11.172L0.011,11.063L0.017,10.954L0.025,10.846L0.034,10.739L0.044,10.631L0.055,10.525L0.068,10.418L0.083,10.312L0.098,10.206L0.115,10.101L0.133,9.996L0.152,9.892L0.173,9.788L0.195,9.684L0.218,9.581L0.242,9.479L0.268,9.377L0.295,9.275L0.323,9.174L0.352,9.074L0.382,8.974L0.414,8.874L0.447,8.775L0.481,8.677L0.516,8.579L0.552,8.481L0.59,8.385L0.629,8.288L0.668,8.193L0.709,8.098L0.751,8.003L0.794,7.909L0.839,7.816L0.884,7.724L0.93,7.632L0.978,7.54L1.027,7.45L1.076,7.36L1.127,7.27L1.179,7.182L1.231,7.094L1.285,7.007L1.34,6.92L1.396,6.834L1.452,6.749L1.51,6.665L1.569,6.581L1.629,6.498L1.69,6.416L1.751,6.334L1.814,6.254L1.877,6.174L1.942,6.095L2.007,6.016L2.074,5.939L2.141,5.862L2.209,5.786L2.278,5.711L2.348,5.637L2.419,5.563L2.491,5.491L2.563,5.419L2.637,5.348L2.711,5.278L2.786,5.209L2.862,5.141L2.939,5.074L3.016,5.007L3.095,4.942L3.174,4.877L3.254,4.814L3.334,4.751L3.416,4.69L3.498,4.629L3.581,4.569L3.665,4.51L3.749,4.452L3.834,4.396L3.92,4.34L4.007,4.285L4.094,4.231L4.182,4.179L4.27,4.127L4.36,4.076L4.45,4.027L4.54,3.978L4.632,3.93L4.724,3.884L4.816,3.839L4.909,3.794L5.003,3.751L5.098,3.709L5.193,3.668L5.288,3.629L5.385,3.59L5.481,3.552L5.579,3.516L5.677,3.481L5.775,3.447L5.874,3.414L5.974,3.382L6.074,3.352L6.174,3.323L6.275,3.295L6.377,3.268L6.479,3.242L6.581,3.218L6.684,3.195L6.788,3.173L6.892,3.152L6.996,3.133L7.101,3.115L7.206,3.098L7.312,3.083L7.418,3.068L7.525,3.055L7.631,3.044L7.739,3.034L7.846,3.025L7.954,3.017L8.063,3.011L8.172,3.006L8.281,3.003L8.39,3.001L8.5,3L8.652,3.001L8.803,3.005L8.953,3.012L9.103,3.021L9.252,3.033L9.401,3.047L9.548,3.064L9.695,3.084L9.841,3.105L9.987,3.13L10.131,3.157L10.274,3.186L10.417,3.217L10.559,3.251L10.7,3.288L10.84,3.327L10.978,3.368L11.116,3.411L11.253,3.457L11.389,3.504L11.524,3.554L11.658,3.607L11.79,3.661L11.922,3.718L12.052,3.777L12.181,3.837L12.309,3.9L12.436,3.965L12.561,4.033L12.685,4.102L12.808,4.173L12.93,4.246L13.05,4.321L13.169,4.398L13.287,4.477L13.403,4.558L13.518,4.64L13.631,4.725L13.743,4.811L13.853,4.899L13.962,4.989L14.07,5.081L14.175,5.174L14.28,5.27L14.382,5.366L14.483,5.465L14.583,5.565L14.68,5.667L14.776,5.77L14.871,5.875L14.963,5.982L15.054,6.09L15.143,6.2L15.231,6.311L15.316,6.423L15.4,6.537L15.481,6.653L15.561,6.77L15.639,6.888L15.715,7.007L15.79,7.128L15.862,7.251L15.932,7.374L16,7.499L16.068,7.374L16.138,7.251L16.21,7.128L16.285,7.007L16.361,6.888L16.439,6.77L16.519,6.653L16.6,6.537L16.684,6.423L16.769,6.311L16.857,6.2L16.946,6.09L17.037,5.982L17.129,5.875L17.224,5.77L17.32,5.667L17.417,5.565L17.517,5.465L17.618,5.366L17.72,5.27L17.825,5.174L17.93,5.081L18.038,4.989L18.147,4.899L18.257,4.811L18.369,4.725L18.482,4.64L18.597,4.558L18.713,4.477L18.831,4.398L18.95,4.321L19.07,4.246L19.192,4.173L19.315,4.102L19.439,4.033L19.564,3.965L19.691,3.9L19.819,3.837L19.948,3.777L20.078,3.718L20.21,3.661L20.342,3.607L20.476,3.554L20.611,3.504L20.747,3.457L20.884,3.411L21.022,3.368L21.16,3.327L21.3,3.288L21.441,3.251L21.583,3.217L21.726,3.186L21.869,3.157L22.013,3.13L22.159,3.105L22.305,3.084L22.452,3.064L22.599,3.047L22.748,3.033L22.897,3.021L23.047,3.012L23.197,3.005L23.348,3.001L23.5,3L23.61,3.001ZM23.383,5.001L23.267,5.004L23.152,5.009L23.037,5.016L22.923,5.025L22.809,5.036L22.696,5.049L22.584,5.064L22.472,5.081L22.361,5.099L22.251,5.12L22.142,5.142L22.033,5.166L21.925,5.192L21.817,5.22L21.711,5.25L21.605,5.281L21.499,5.314L21.395,5.349L21.291,5.385L21.189,5.423L21.087,5.463L20.985,5.505L20.885,5.548L20.786,5.593L20.687,5.639L20.589,5.687L20.492,5.737L20.397,5.788L20.302,5.841L20.208,5.896L20.115,5.951L20.023,6.009L19.931,6.068L19.842,6.128L19.753,6.19L19.665,6.253L19.578,6.318L19.492,6.384L19.408,6.452L19.324,6.521L19.242,6.591L19.161,6.663L19.081,6.735L19.002,6.81L18.925,6.885L18.849,6.962L18.774,7.04L18.7,7.119L18.628,7.2L18.557,7.281L18.487,7.364L18.419,7.448L18.352,7.533L18.287,7.619L18.223,7.707L18.16,7.795L18.099,7.885L18.039,7.975L17.981,8.067L17.924,8.159L17.869,8.253L17.816,8.347L16.641,10.499L15.359,10.499L14.184,8.347L14.131,8.253L14.076,8.159L14.019,8.067L13.961,7.975L13.901,7.885L13.84,7.795L13.777,7.707L13.713,7.619L13.648,7.533L13.581,7.448L13.513,7.364L13.443,7.281L13.372,7.2L13.3,7.119L13.226,7.04L13.151,6.962L13.075,6.885L12.998,6.81L12.919,6.735L12.839,6.663L12.758,6.591L12.676,6.521L12.592,6.452L12.508,6.384L12.422,6.318L12.335,6.253L12.247,6.19L12.158,6.128L12.069,6.068L11.977,6.009L11.885,5.951L11.792,5.896L11.698,5.841L11.603,5.788L11.508,5.737L11.411,5.687L11.313,5.639L11.214,5.593L11.115,5.548L11.015,5.505L10.913,5.463L10.811,5.423L10.709,5.385L10.605,5.349L10.501,5.314L10.395,5.281L10.289,5.25L10.183,5.22L10.075,5.192L9.967,5.166L9.858,5.142L9.749,5.12L9.639,5.099L9.528,5.081L9.416,5.064L9.304,5.049L9.191,5.036L9.077,5.025L8.963,5.016L8.848,5.009L8.733,5.004L8.617,5.001L8.498,5L8.416,5.001L8.331,5.002L8.248,5.005L8.164,5.009L8.081,5.013L7.998,5.019L7.916,5.026L7.834,5.034L7.752,5.043L7.671,5.052L7.589,5.063L7.509,5.075L7.428,5.088L7.348,5.102L7.269,5.116L7.189,5.132L7.11,5.149L7.032,5.167L6.953,5.185L6.876,5.205L6.798,5.225L6.721,5.246L6.644,5.269L6.568,5.292L6.492,5.316L6.417,5.341L6.342,5.367L6.267,5.394L6.193,5.422L6.119,5.45L6.045,5.48L5.972,5.51L5.9,5.541L5.828,5.574L5.756,5.607L5.685,5.64L5.614,5.675L5.544,5.71L5.474,5.747L5.405,5.784L5.336,5.822L5.268,5.86L5.2,5.9L5.133,5.94L5.066,5.981L5,6.023L4.934,6.066L4.869,6.11L4.804,6.154L4.74,6.199L4.677,6.245L4.614,6.291L4.551,6.338L4.49,6.386L4.428,6.435L4.368,6.484L4.308,6.535L4.248,6.585L4.189,6.637L4.131,6.689L4.074,6.742L4.017,6.796L3.961,6.85L3.905,6.905L3.85,6.961L3.796,7.017L3.742,7.074L3.689,7.131L3.637,7.189L3.585,7.248L3.535,7.308L3.484,7.368L3.435,7.428L3.386,7.49L3.338,7.551L3.291,7.614L3.245,7.677L3.199,7.74L3.154,7.804L3.11,7.869L3.066,7.934L3.023,8L2.981,8.066L2.94,8.133L2.9,8.2L2.86,8.268L2.822,8.336L2.784,8.405L2.747,8.474L2.71,8.544L2.675,8.614L2.64,8.685L2.607,8.756L2.574,8.828L2.541,8.9L2.51,8.972L2.48,9.045L2.45,9.119L2.422,9.193L2.394,9.267L2.367,9.342L2.341,9.417L2.316,9.492L2.292,9.568L2.269,9.644L2.246,9.721L2.225,9.798L2.205,9.876L2.185,9.953L2.167,10.032L2.149,10.11L2.132,10.189L2.116,10.269L2.102,10.348L2.088,10.428L2.075,10.509L2.063,10.589L2.052,10.671L2.043,10.752L2.034,10.834L2.026,10.916L2.019,10.998L2.013,11.081L2.009,11.164L2.005,11.248L2.002,11.331L2.001,11.416L2,11.501L2,11.575L2.002,11.651L2.004,11.726L2.007,11.8L2.011,11.875L2.015,11.949L2.021,12.023L2.027,12.097L2.034,12.17L2.042,12.243L2.051,12.316L2.06,12.388L2.07,12.461L2.082,12.533L2.093,12.604L2.106,12.676L2.119,12.747L2.134,12.818L2.149,12.888L2.164,12.959L2.181,13.029L2.198,13.098L2.216,13.168L2.235,13.237L2.254,13.306L2.274,13.374L2.295,13.442L2.317,13.51L2.339,13.578L2.362,13.645L2.386,13.712L2.411,13.778L2.436,13.844L2.462,13.91L2.488,13.976L2.516,14.041L2.544,14.106L2.573,14.17L2.602,14.234L2.632,14.298L2.663,14.361L2.694,14.424L2.726,14.487L2.759,14.549L2.792,14.611L2.826,14.672L2.861,14.733L2.896,14.794L2.932,14.854L2.969,14.914L3.006,14.973L3.044,15.032L3.082,15.09L3.121,15.149L3.161,15.206L3.201,15.263L3.242,15.32L3.284,15.377L3.326,15.432L3.369,15.488L3.412,15.543L3.456,15.597L3.5,15.651L3.579,15.745L3.666,15.844L3.723,15.906L3.781,15.967L3.839,16.028L3.898,16.088L3.958,16.147L4.018,16.206L4.08,16.263L4.142,16.32L4.204,16.376L4.268,16.431L4.332,16.486L4.397,16.54L4.463,16.592L4.529,16.644L4.683,16.762L16,27.271L27.317,16.762L27.471,16.644L27.538,16.592L27.603,16.539L27.668,16.486L27.732,16.431L27.796,16.376L27.858,16.32L27.92,16.263L27.982,16.206L28.042,16.147L28.102,16.088L28.161,16.028L28.219,15.967L28.277,15.906L28.333,15.844L28.421,15.745L28.5,15.651L28.544,15.597L28.588,15.543L28.631,15.488L28.674,15.432L28.716,15.377L28.758,15.32L28.799,15.263L28.839,15.206L28.879,15.149L28.918,15.09L28.956,15.032L28.994,14.973L29.031,14.914L29.068,14.854L29.104,14.794L29.139,14.733L29.174,14.672L29.208,14.611L29.241,14.549L29.274,14.487L29.306,14.424L29.337,14.361L29.368,14.298L29.398,14.234L29.427,14.17L29.456,14.106L29.484,14.041L29.512,13.976L29.538,13.91L29.564,13.844L29.589,13.778L29.614,13.712L29.638,13.645L29.661,13.578L29.683,13.51L29.705,13.442L29.726,13.374L29.746,13.306L29.765,13.237L29.784,13.168L29.802,13.098L29.819,13.029L29.836,12.959L29.851,12.888L29.866,12.818L29.881,12.747L29.894,12.676L29.907,12.604L29.918,12.533L29.93,12.461L29.94,12.388L29.949,12.316L29.958,12.243L29.966,12.17L29.973,12.097L29.979,12.023L29.985,11.949L29.989,11.875L29.993,11.8L29.996,11.726L29.998,11.651L30,11.575L30,11.501L29.999,11.416L29.998,11.331L29.995,11.248L29.991,11.164L29.987,11.081L29.981,10.998L29.974,10.916L29.966,10.834L29.957,10.752L29.948,10.671L29.937,10.589L29.925,10.509L29.912,10.428L29.898,10.348L29.884,10.269L29.868,10.189L29.851,10.11L29.833,10.032L29.815,9.953L29.795,9.876L29.775,9.798L29.753,9.721L29.731,9.644L29.708,9.568L29.684,9.492L29.659,9.417L29.633,9.342L29.606,9.267L29.578,9.193L29.55,9.119L29.52,9.045L29.49,8.972L29.459,8.9L29.426,8.828L29.393,8.756L29.36,8.685L29.325,8.614L29.29,8.544L29.253,8.474L29.216,8.405L29.178,8.336L29.14,8.268L29.1,8.2L29.06,8.133L29.019,8.066L28.977,8L28.934,7.934L28.89,7.869L28.846,7.804L28.801,7.74L28.755,7.677L28.709,7.614L28.662,7.551L28.614,7.49L28.565,7.428L28.516,7.368L28.465,7.308L28.415,7.248L28.363,7.189L28.311,7.131L28.258,7.074L28.204,7.017L28.15,6.961L28.095,6.905L28.039,6.85L27.983,6.796L27.926,6.742L27.869,6.689L27.811,6.637L27.752,6.585L27.692,6.535L27.632,6.484L27.572,6.435L27.51,6.386L27.449,6.338L27.386,6.291L27.323,6.245L27.26,6.199L27.196,6.154L27.131,6.11L27.066,6.066L27,6.023L26.934,5.981L26.867,5.94L26.8,5.9L26.732,5.86L26.664,5.822L26.595,5.784L26.526,5.747L26.456,5.71L26.386,5.675L26.315,5.64L26.244,5.607L26.172,5.574L26.1,5.541L26.028,5.51L25.955,5.48L25.881,5.45L25.807,5.422L25.733,5.394L25.658,5.367L25.583,5.341L25.508,5.316L25.432,5.292L25.356,5.269L25.279,5.246L25.202,5.225L25.124,5.205L25.047,5.185L24.968,5.167L24.89,5.149L24.811,5.132L24.731,5.116L24.652,5.102L24.572,5.088L24.491,5.075L24.411,5.063L24.329,5.052L24.248,5.043L24.166,5.034L24.084,5.026L24.002,5.019L23.919,5.013L23.836,5.009L23.752,5.005L23.669,5.002L23.584,5.001L23.502,5L23.383,5.001Z"/>
    </g>
</svg>
