<?xml version="1.0" encoding="UTF-8" standalone="no"?>
<!DOCTYPE svg PUBLIC "-//W3C//DTD SVG 1.1//EN" "http://www.w3.org/Graphics/SVG/1.1/DTD/svg11.dtd">
<svg width="100%" height="100%" viewBox="0 0 32 32" version="1.1" xmlns="http://www.w3.org/2000/svg" xmlns:xlink="http://www.w3.org/1999/xlink" xml:space="preserve" xmlns:serif="http://www.serif.com/" style="fill-rule:evenodd;clip-rule:evenodd;stroke-linejoin:round;stroke-miterlimit:1.41421;">
    <g id="Main">
        <path d="M32,25L0,25L0,7L32,7L32,25ZM2,9L2,23L30,23L30,9L2,9Z"/>
        <path d="M4,13L3,13L3,11L4,11L4,13ZM6,13L5,13L5,11L6,11L6,13ZM8,13L7,13L7,11L8,11L8,13ZM10,13L9,13L9,11L10,11L10,13ZM12,13L11,13L11,11L12,11L12,13ZM14,13L13,13L13,11L14,11L14,13ZM16,13L15,13L15,11L16,11L16,13ZM18,13L17,13L17,11L18,11L18,13ZM20,13L19,13L19,11L20,11L20,13ZM22,13L21,13L21,11L22,11L22,13ZM24,13L23,13L23,11L24,11L24,13ZM26,13L25,13L25,11L26,11L26,13ZM28,13L27,13L27,11L28,11L28,13Z"/>
        <path d="M12,17L11,17L11,15L12,15L12,17ZM14,17L13,17L13,15L14,15L14,17ZM16,17L15,17L15,15L16,15L16,17ZM18,17L17,17L17,15L18,15L18,17ZM20,17L19,17L19,15L20,15L20,17ZM22,17L21,17L21,15L22,15L22,17Z"/>
        <rect x="3" y="15" width="6" height="2"/>
        <rect x="23" y="15" width="6" height="2"/>
        <rect x="10" y="19" width="12" height="2"/>
        <rect x="3" y="19" width="5" height="2"/>
        <rect x="24" y="19" width="5" height="2"/>
    </g>
</svg>
