<?xml version="1.0" encoding="UTF-8" standalone="no"?>
<!DOCTYPE svg PUBLIC "-//W3C//DTD SVG 1.1//EN" "http://www.w3.org/Graphics/SVG/1.1/DTD/svg11.dtd">
<svg width="100%" height="100%" viewBox="0 0 32 32" version="1.1" xmlns="http://www.w3.org/2000/svg" xmlns:xlink="http://www.w3.org/1999/xlink" xml:space="preserve" xmlns:serif="http://www.serif.com/" style="fill-rule:evenodd;clip-rule:evenodd;stroke-linejoin:round;stroke-miterlimit:1.41421;">
    <g id="Main">
        <path d="M7.59,24.001L7.68,24.004L7.769,24.009L7.858,24.016L7.946,24.024L8.033,24.035L8.119,24.047L8.205,24.061L8.29,24.077L8.374,24.095L8.458,24.114L8.54,24.135L8.622,24.158L8.703,24.182L8.783,24.208L8.862,24.236L8.94,24.265L9.017,24.296L9.093,24.328L9.168,24.362L9.242,24.398L9.314,24.435L9.386,24.473L9.456,24.513L9.526,24.554L9.594,24.596L9.66,24.64L9.726,24.685L9.79,24.732L9.853,24.78L9.914,24.829L9.974,24.879L10.033,24.931L10.09,24.983L10.146,25.037L10.2,25.092L10.253,25.148L10.304,25.206L10.354,25.264L10.402,25.323L10.448,25.384L10.493,25.445L10.536,25.507L10.577,25.571L10.617,25.635L10.655,25.7L10.691,25.766L10.725,25.833L10.757,25.9L10.787,25.969L10.816,26.038L10.843,26.108L10.867,26.179L10.89,26.251L10.91,26.323L10.929,26.396L10.945,26.469L10.96,26.543L10.972,26.618L10.982,26.693L10.99,26.769L10.995,26.846L10.999,26.923L11,27L10.999,27.077L10.995,27.154L10.99,27.231L10.982,27.307L10.972,27.382L10.96,27.457L10.945,27.531L10.929,27.604L10.91,27.677L10.89,27.749L10.867,27.821L10.843,27.892L10.816,27.962L10.787,28.031L10.757,28.1L10.725,28.167L10.691,28.234L10.655,28.3L10.617,28.365L10.577,28.429L10.536,28.493L10.493,28.555L10.448,28.616L10.402,28.677L10.354,28.736L10.304,28.794L10.253,28.852L10.2,28.908L10.146,28.963L10.09,29.017L10.033,29.069L9.974,29.121L9.914,29.171L9.853,29.22L9.79,29.268L9.726,29.315L9.66,29.36L9.594,29.404L9.526,29.446L9.456,29.487L9.386,29.527L9.314,29.565L9.242,29.602L9.168,29.638L9.093,29.672L9.017,29.704L8.94,29.735L8.862,29.764L8.783,29.792L8.703,29.818L8.622,29.842L8.54,29.865L8.458,29.886L8.374,29.905L8.29,29.923L8.205,29.939L8.119,29.953L8.033,29.965L7.946,29.976L7.858,29.984L7.769,29.991L7.68,29.996L7.59,29.999L7.5,30L7.41,29.999L7.32,29.996L7.231,29.991L7.142,29.984L7.054,29.976L6.967,29.965L6.881,29.953L6.795,29.939L6.71,29.923L6.626,29.905L6.542,29.886L6.46,29.865L6.378,29.842L6.297,29.818L6.217,29.792L6.138,29.764L6.06,29.735L5.983,29.704L5.907,29.672L5.832,29.638L5.758,29.602L5.686,29.565L5.614,29.527L5.544,29.487L5.474,29.446L5.406,29.404L5.34,29.36L5.274,29.315L5.21,29.268L5.147,29.22L5.086,29.171L5.026,29.121L4.967,29.069L4.91,29.017L4.854,28.963L4.8,28.908L4.747,28.852L4.696,28.794L4.646,28.736L4.598,28.677L4.552,28.616L4.507,28.555L4.464,28.493L4.423,28.429L4.383,28.365L4.345,28.3L4.309,28.234L4.275,28.167L4.243,28.1L4.213,28.031L4.184,27.962L4.157,27.892L4.133,27.821L4.11,27.749L4.09,27.677L4.071,27.604L4.055,27.531L4.04,27.457L4.028,27.382L4.018,27.307L4.01,27.231L4.005,27.154L4.001,27.077L4,27L4.001,26.923L4.005,26.846L4.01,26.769L4.018,26.693L4.028,26.618L4.04,26.543L4.055,26.469L4.071,26.396L4.09,26.323L4.11,26.251L4.133,26.179L4.157,26.108L4.184,26.038L4.213,25.969L4.243,25.9L4.275,25.833L4.309,25.766L4.345,25.7L4.383,25.635L4.423,25.571L4.464,25.507L4.507,25.445L4.552,25.384L4.598,25.323L4.646,25.264L4.696,25.206L4.747,25.148L4.8,25.092L4.854,25.037L4.91,24.983L4.967,24.931L5.026,24.879L5.086,24.829L5.147,24.78L5.21,24.732L5.274,24.685L5.34,24.64L5.406,24.596L5.474,24.554L5.544,24.513L5.614,24.473L5.686,24.435L5.758,24.398L5.832,24.362L5.907,24.328L5.983,24.296L6.06,24.265L6.138,24.236L6.217,24.208L6.297,24.182L6.378,24.158L6.46,24.135L6.542,24.114L6.626,24.095L6.71,24.077L6.795,24.061L6.881,24.047L6.967,24.035L7.054,24.024L7.142,24.016L7.231,24.009L7.32,24.004L7.41,24.001L7.5,24L7.59,24.001ZM7.453,26.001L7.407,26.002L7.361,26.005L7.316,26.008L7.271,26.012L7.227,26.018L7.184,26.024L7.141,26.031L7.099,26.039L7.057,26.048L7.016,26.057L6.975,26.067L6.936,26.079L6.896,26.09L6.858,26.103L6.82,26.116L6.783,26.13L6.747,26.145L6.712,26.16L6.677,26.175L6.643,26.192L6.61,26.208L6.578,26.226L6.546,26.243L6.516,26.262L6.486,26.28L6.457,26.299L6.429,26.318L6.403,26.338L6.377,26.357L6.351,26.378L6.327,26.398L6.304,26.418L6.282,26.438L6.261,26.459L6.24,26.48L6.221,26.5L6.203,26.521L6.185,26.541L6.169,26.562L6.153,26.582L6.139,26.602L6.125,26.622L6.112,26.642L6.1,26.661L6.089,26.68L6.078,26.699L6.069,26.718L6.06,26.737L6.052,26.755L6.044,26.773L6.038,26.791L6.031,26.809L6.026,26.826L6.021,26.843L6.017,26.861L6.013,26.878L6.009,26.895L6.007,26.912L6.004,26.929L6.003,26.946L6.001,26.964L6,26.982L6,27L6,27.018L6.001,27.036L6.003,27.054L6.004,27.071L6.007,27.088L6.009,27.105L6.013,27.122L6.017,27.139L6.021,27.157L6.026,27.174L6.031,27.191L6.038,27.209L6.044,27.227L6.052,27.245L6.06,27.263L6.069,27.282L6.078,27.301L6.089,27.32L6.1,27.339L6.112,27.358L6.125,27.378L6.139,27.398L6.153,27.418L6.169,27.438L6.185,27.459L6.203,27.479L6.221,27.5L6.24,27.52L6.261,27.541L6.282,27.562L6.304,27.582L6.327,27.602L6.351,27.623L6.377,27.643L6.402,27.662L6.429,27.682L6.457,27.701L6.486,27.72L6.516,27.738L6.546,27.757L6.578,27.774L6.61,27.792L6.643,27.808L6.677,27.825L6.712,27.84L6.747,27.855L6.783,27.87L6.82,27.884L6.858,27.897L6.896,27.91L6.936,27.921L6.975,27.933L7.016,27.943L7.057,27.952L7.099,27.961L7.141,27.969L7.184,27.976L7.227,27.982L7.271,27.988L7.316,27.992L7.361,27.995L7.407,27.998L7.453,27.999L7.5,28L7.547,27.999L7.593,27.998L7.639,27.995L7.684,27.992L7.729,27.988L7.773,27.982L7.816,27.976L7.859,27.969L7.901,27.961L7.943,27.952L7.984,27.943L8.025,27.933L8.064,27.921L8.104,27.91L8.142,27.897L8.18,27.884L8.217,27.87L8.253,27.855L8.288,27.84L8.323,27.825L8.357,27.808L8.39,27.792L8.422,27.774L8.454,27.757L8.484,27.738L8.514,27.72L8.543,27.701L8.571,27.682L8.598,27.662L8.623,27.643L8.649,27.623L8.673,27.602L8.696,27.582L8.718,27.562L8.739,27.541L8.76,27.52L8.779,27.5L8.797,27.479L8.815,27.459L8.831,27.438L8.847,27.418L8.861,27.398L8.875,27.378L8.888,27.358L8.9,27.339L8.911,27.32L8.922,27.301L8.931,27.282L8.94,27.263L8.948,27.245L8.956,27.227L8.962,27.209L8.969,27.191L8.974,27.174L8.979,27.157L8.983,27.139L8.987,27.122L8.991,27.105L8.993,27.088L8.996,27.071L8.997,27.054L8.999,27.036L9,27.018L9,27L9,26.982L8.999,26.964L8.997,26.946L8.996,26.929L8.993,26.912L8.991,26.895L8.987,26.878L8.983,26.861L8.979,26.843L8.974,26.826L8.969,26.809L8.962,26.791L8.956,26.773L8.948,26.755L8.94,26.737L8.931,26.718L8.922,26.699L8.911,26.68L8.9,26.661L8.888,26.642L8.875,26.622L8.861,26.602L8.847,26.582L8.831,26.562L8.815,26.541L8.797,26.521L8.779,26.5L8.76,26.48L8.739,26.459L8.718,26.438L8.696,26.418L8.673,26.398L8.649,26.377L8.623,26.357L8.597,26.338L8.571,26.318L8.543,26.299L8.514,26.28L8.484,26.262L8.454,26.243L8.422,26.226L8.39,26.208L8.357,26.192L8.323,26.175L8.288,26.16L8.253,26.145L8.217,26.13L8.18,26.116L8.142,26.103L8.104,26.09L8.064,26.079L8.025,26.067L7.984,26.057L7.943,26.048L7.901,26.039L7.859,26.031L7.816,26.024L7.773,26.018L7.729,26.012L7.684,26.008L7.639,26.005L7.593,26.002L7.547,26.001L7.5,26L7.453,26.001Z"/>
        <path d="M23.59,18.001L23.68,18.004L23.769,18.009L23.858,18.016L23.946,18.024L24.033,18.035L24.119,18.047L24.205,18.061L24.29,18.077L24.374,18.095L24.458,18.114L24.54,18.135L24.622,18.158L24.703,18.182L24.783,18.208L24.862,18.236L24.94,18.265L25.017,18.296L25.093,18.328L25.168,18.362L25.242,18.398L25.314,18.435L25.386,18.473L25.456,18.513L25.526,18.554L25.594,18.596L25.66,18.64L25.726,18.685L25.79,18.732L25.853,18.78L25.914,18.829L25.974,18.879L26.033,18.931L26.09,18.983L26.146,19.037L26.2,19.092L26.253,19.148L26.304,19.206L26.354,19.264L26.402,19.323L26.448,19.384L26.493,19.445L26.536,19.507L26.577,19.571L26.617,19.635L26.655,19.7L26.691,19.766L26.725,19.833L26.757,19.9L26.787,19.969L26.816,20.038L26.843,20.108L26.867,20.179L26.89,20.251L26.91,20.323L26.929,20.396L26.945,20.469L26.96,20.543L26.972,20.618L26.982,20.693L26.99,20.769L26.995,20.846L26.999,20.923L27,21L26.999,21.077L26.995,21.154L26.99,21.231L26.982,21.307L26.972,21.382L26.96,21.457L26.945,21.531L26.929,21.604L26.91,21.677L26.89,21.749L26.867,21.821L26.843,21.892L26.816,21.962L26.787,22.031L26.757,22.1L26.725,22.167L26.691,22.234L26.655,22.3L26.617,22.365L26.577,22.429L26.536,22.493L26.493,22.555L26.448,22.616L26.402,22.677L26.354,22.736L26.304,22.794L26.253,22.852L26.2,22.908L26.146,22.963L26.09,23.017L26.033,23.069L25.974,23.121L25.914,23.171L25.853,23.22L25.79,23.268L25.726,23.315L25.66,23.36L25.594,23.404L25.526,23.446L25.456,23.487L25.386,23.527L25.314,23.565L25.242,23.602L25.168,23.638L25.093,23.672L25.017,23.704L24.94,23.735L24.862,23.764L24.783,23.792L24.703,23.818L24.622,23.842L24.54,23.865L24.458,23.886L24.374,23.905L24.29,23.923L24.205,23.939L24.119,23.953L24.033,23.965L23.946,23.976L23.858,23.984L23.769,23.991L23.68,23.996L23.59,23.999L23.5,24L23.41,23.999L23.32,23.996L23.231,23.991L23.142,23.984L23.054,23.976L22.967,23.965L22.881,23.953L22.795,23.939L22.71,23.923L22.626,23.905L22.542,23.886L22.46,23.865L22.378,23.842L22.297,23.818L22.217,23.792L22.138,23.764L22.06,23.735L21.983,23.704L21.907,23.672L21.832,23.638L21.758,23.602L21.686,23.565L21.614,23.527L21.544,23.487L21.474,23.446L21.406,23.404L21.34,23.36L21.274,23.315L21.21,23.268L21.147,23.22L21.086,23.171L21.026,23.121L20.967,23.069L20.91,23.017L20.854,22.963L20.8,22.908L20.747,22.852L20.696,22.794L20.646,22.736L20.598,22.677L20.552,22.616L20.507,22.555L20.464,22.493L20.423,22.429L20.383,22.365L20.345,22.3L20.309,22.234L20.275,22.167L20.243,22.1L20.213,22.031L20.184,21.962L20.157,21.892L20.133,21.821L20.11,21.749L20.09,21.677L20.071,21.604L20.055,21.531L20.04,21.457L20.028,21.382L20.018,21.307L20.01,21.231L20.005,21.154L20.001,21.077L20,21L20.001,20.923L20.005,20.846L20.01,20.769L20.018,20.693L20.028,20.618L20.04,20.543L20.055,20.469L20.071,20.396L20.09,20.323L20.11,20.251L20.133,20.179L20.157,20.108L20.184,20.038L20.213,19.969L20.243,19.9L20.275,19.833L20.309,19.766L20.345,19.7L20.383,19.635L20.423,19.571L20.464,19.507L20.507,19.445L20.552,19.384L20.598,19.323L20.646,19.264L20.696,19.206L20.747,19.148L20.8,19.092L20.854,19.037L20.91,18.983L20.967,18.931L21.026,18.879L21.086,18.829L21.147,18.78L21.21,18.732L21.274,18.685L21.34,18.64L21.406,18.596L21.474,18.554L21.544,18.513L21.614,18.473L21.686,18.435L21.758,18.398L21.832,18.362L21.907,18.328L21.983,18.296L22.06,18.265L22.138,18.236L22.217,18.208L22.297,18.182L22.378,18.158L22.46,18.135L22.542,18.114L22.626,18.095L22.71,18.077L22.795,18.061L22.881,18.047L22.967,18.035L23.054,18.024L23.142,18.016L23.231,18.009L23.32,18.004L23.41,18.001L23.5,18L23.59,18.001ZM23.453,20.001L23.407,20.002L23.361,20.005L23.316,20.008L23.271,20.012L23.227,20.018L23.184,20.024L23.141,20.031L23.099,20.039L23.057,20.048L23.016,20.057L22.975,20.067L22.936,20.079L22.896,20.09L22.858,20.103L22.82,20.116L22.783,20.13L22.747,20.145L22.712,20.16L22.677,20.175L22.643,20.192L22.61,20.208L22.578,20.226L22.546,20.243L22.516,20.262L22.486,20.28L22.457,20.299L22.429,20.318L22.403,20.338L22.377,20.357L22.351,20.378L22.327,20.398L22.304,20.418L22.282,20.438L22.261,20.459L22.24,20.48L22.221,20.5L22.203,20.521L22.185,20.541L22.169,20.562L22.153,20.582L22.139,20.602L22.125,20.622L22.112,20.642L22.1,20.661L22.089,20.68L22.078,20.699L22.069,20.718L22.06,20.737L22.052,20.755L22.044,20.773L22.038,20.791L22.031,20.809L22.026,20.826L22.021,20.843L22.017,20.861L22.013,20.878L22.009,20.895L22.007,20.912L22.004,20.929L22.003,20.946L22.001,20.964L22,20.982L22,21L22,21.018L22.001,21.036L22.003,21.054L22.004,21.071L22.007,21.088L22.009,21.105L22.013,21.122L22.017,21.139L22.021,21.157L22.026,21.174L22.031,21.191L22.038,21.209L22.044,21.227L22.052,21.245L22.06,21.263L22.069,21.282L22.078,21.301L22.089,21.32L22.1,21.339L22.112,21.358L22.125,21.378L22.139,21.398L22.153,21.418L22.169,21.438L22.185,21.459L22.203,21.479L22.221,21.5L22.24,21.52L22.261,21.541L22.282,21.562L22.304,21.582L22.327,21.602L22.351,21.622L22.377,21.643L22.403,21.662L22.429,21.682L22.457,21.701L22.486,21.72L22.516,21.738L22.546,21.757L22.578,21.774L22.61,21.792L22.643,21.808L22.677,21.825L22.712,21.84L22.747,21.855L22.783,21.87L22.82,21.884L22.858,21.897L22.896,21.91L22.936,21.921L22.975,21.933L23.016,21.943L23.057,21.952L23.099,21.961L23.141,21.969L23.184,21.976L23.227,21.982L23.271,21.988L23.316,21.992L23.361,21.995L23.407,21.998L23.453,21.999L23.5,22L23.547,21.999L23.593,21.998L23.639,21.995L23.684,21.992L23.729,21.988L23.773,21.982L23.816,21.976L23.859,21.969L23.901,21.961L23.943,21.952L23.984,21.943L24.025,21.933L24.064,21.921L24.104,21.91L24.142,21.897L24.18,21.884L24.217,21.87L24.253,21.855L24.288,21.84L24.323,21.825L24.357,21.808L24.39,21.792L24.422,21.774L24.454,21.757L24.484,21.738L24.514,21.72L24.543,21.701L24.571,21.682L24.597,21.662L24.624,21.642L24.649,21.622L24.673,21.602L24.696,21.582L24.718,21.562L24.739,21.541L24.76,21.52L24.779,21.5L24.797,21.479L24.815,21.459L24.831,21.438L24.847,21.418L24.861,21.398L24.875,21.378L24.888,21.358L24.9,21.339L24.911,21.32L24.922,21.301L24.931,21.282L24.94,21.263L24.948,21.245L24.956,21.227L24.962,21.209L24.969,21.191L24.974,21.174L24.979,21.157L24.983,21.139L24.987,21.122L24.991,21.105L24.993,21.088L24.996,21.071L24.997,21.054L24.999,21.036L25,21.018L25,21L25,20.982L24.999,20.964L24.997,20.946L24.996,20.929L24.993,20.912L24.991,20.895L24.987,20.878L24.983,20.861L24.979,20.843L24.974,20.826L24.969,20.809L24.962,20.791L24.956,20.773L24.948,20.755L24.94,20.737L24.931,20.718L24.922,20.699L24.911,20.68L24.9,20.661L24.888,20.642L24.875,20.622L24.861,20.602L24.847,20.582L24.831,20.562L24.815,20.541L24.797,20.521L24.779,20.5L24.76,20.48L24.739,20.459L24.718,20.438L24.696,20.418L24.673,20.398L24.649,20.378L24.624,20.358L24.597,20.338L24.571,20.318L24.543,20.299L24.514,20.28L24.484,20.262L24.454,20.243L24.422,20.226L24.39,20.208L24.357,20.192L24.323,20.175L24.288,20.16L24.253,20.145L24.217,20.13L24.18,20.116L24.142,20.103L24.104,20.09L24.064,20.079L24.025,20.067L23.984,20.057L23.943,20.048L23.901,20.039L23.859,20.031L23.816,20.024L23.773,20.018L23.729,20.012L23.684,20.008L23.639,20.005L23.593,20.002L23.547,20.001L23.5,20L23.453,20.001Z"/>
        <path d="M27,0.881L27,21L25,21L25,3.205L11,5.83L11,27L9,27L9,4.17L26.916,0.811L27,0.881Z"/>
        <path d="M26.184,6.983L10.184,9.983L9.816,8.017L25.816,5.017L26.184,6.983Z"/>
    </g>
</svg>
