<?xml version="1.0" encoding="UTF-8" standalone="no"?>
<!DOCTYPE svg PUBLIC "-//W3C//DTD SVG 1.1//EN" "http://www.w3.org/Graphics/SVG/1.1/DTD/svg11.dtd">
<svg width="100%" height="100%" viewBox="0 0 32 32" version="1.1" xmlns="http://www.w3.org/2000/svg" xmlns:xlink="http://www.w3.org/1999/xlink" xml:space="preserve" xmlns:serif="http://www.serif.com/" style="fill-rule:evenodd;clip-rule:evenodd;stroke-linejoin:round;stroke-miterlimit:1.41421;">
    <g id="Main">
        <path d="M23.371,2L23.446,2.001L23.522,2.003L23.597,2.006L23.673,2.01L23.748,2.015L23.823,2.021L23.899,2.028L23.974,2.035L24.049,2.044L24.124,2.054L24.199,2.065L24.274,2.077L24.349,2.089L24.424,2.103L24.498,2.118L24.573,2.134L24.647,2.151L24.722,2.169L24.796,2.188L24.87,2.207L24.943,2.228L25.017,2.25L25.091,2.273L25.164,2.297L25.237,2.322L25.31,2.349L25.382,2.376L25.455,2.404L25.527,2.433L25.599,2.463L25.671,2.495L25.742,2.527L25.813,2.561L25.884,2.595L25.955,2.631L26.026,2.668L26.095,2.705L26.165,2.744L26.233,2.783L26.301,2.824L26.368,2.865L26.434,2.907L26.5,2.949L26.475,3.061L26.449,3.173L26.42,3.284L26.39,3.396L26.357,3.507L26.323,3.618L26.287,3.729L26.248,3.839L26.208,3.949L26.166,4.059L26.122,4.169L26.076,4.278L26.028,4.387L25.978,4.495L25.926,4.603L25.872,4.711L25.832,4.787L25.792,4.862L25.751,4.936L25.709,5.01L25.667,5.083L25.624,5.155L25.58,5.227L25.535,5.298L25.49,5.368L25.444,5.437L25.397,5.506L25.35,5.574L25.301,5.641L25.253,5.708L25.203,5.774L25.153,5.839L25.102,5.904L25.051,5.967L24.999,6.03L24.946,6.092L24.893,6.154L24.839,6.215L24.785,6.275L24.73,6.334L24.674,6.392L24.618,6.45L24.561,6.507L24.504,6.563L24.446,6.618L24.388,6.673L24.329,6.727L24.269,6.78L24.209,6.832L24.149,6.884L24.088,6.935L24.026,6.985L23.964,7.034L23.902,7.082L23.839,7.13L23.776,7.176L23.712,7.222L23.648,7.268L23.583,7.312L23.518,7.356L23.453,7.398L23.387,7.44L23.321,7.481L23.254,7.521L23.187,7.561L23.12,7.599L23.052,7.637L22.984,7.674L22.915,7.71L22.846,7.745L22.777,7.78L22.708,7.813L22.638,7.846L22.568,7.878L22.498,7.909L22.427,7.939L22.356,7.968L22.285,7.997L22.213,8.024L22.142,8.051L22.07,8.077L21.998,8.101L21.925,8.125L21.852,8.149L21.78,8.171L21.707,8.192L21.633,8.213L21.56,8.232L21.486,8.251L21.412,8.268L21.338,8.285L21.264,8.301L21.19,8.316L21.116,8.33L21.041,8.343L20.966,8.356L20.892,8.367L20.817,8.377L20.742,8.387L20.667,8.395L20.592,8.403L20.516,8.41L20.441,8.415L20.366,8.42L20.291,8.424L20.215,8.427L20.14,8.429L20.064,8.429L19.989,8.429L19.913,8.428L19.838,8.426L19.762,8.424L19.687,8.42L19.612,8.415L19.536,8.409L19.461,8.402L19.386,8.394L19.31,8.385L19.235,8.376L19.16,8.365L19.085,8.353L19.01,8.34L18.936,8.326L18.861,8.311L18.787,8.296L18.712,8.279L18.638,8.261L18.564,8.242L18.49,8.222L18.416,8.201L18.342,8.179L18.269,8.156L18.196,8.132L18.123,8.107L18.05,8.081L17.977,8.054L17.905,8.026L17.833,7.996L17.761,7.966L17.689,7.935L17.617,7.902L17.546,7.869L17.475,7.834L17.405,7.799L17.334,7.762L17.264,7.724L17.195,7.686L17.126,7.646L17.059,7.606L16.991,7.565L16.925,7.523L16.86,7.48L16.884,7.368L16.911,7.257L16.939,7.145L16.97,7.034L17.002,6.923L17.037,6.812L17.073,6.701L17.111,6.591L17.151,6.48L17.194,6.37L17.238,6.261L17.284,6.152L17.332,6.043L17.382,5.934L17.434,5.826L17.488,5.719L17.527,5.643L17.568,5.568L17.609,5.493L17.65,5.42L17.693,5.347L17.736,5.274L17.78,5.203L17.824,5.132L17.87,5.062L17.916,4.992L17.963,4.924L18.01,4.855L18.058,4.788L18.107,4.722L18.156,4.656L18.206,4.591L18.257,4.526L18.309,4.462L18.361,4.399L18.413,4.337L18.467,4.276L18.52,4.215L18.575,4.155L18.63,4.096L18.685,4.037L18.742,3.98L18.798,3.923L18.856,3.867L18.914,3.811L18.972,3.756L19.031,3.703L19.09,3.65L19.15,3.597L19.211,3.546L19.272,3.495L19.333,3.445L19.395,3.396L19.458,3.347L19.52,3.3L19.584,3.253L19.647,3.207L19.712,3.162L19.776,3.118L19.841,3.074L19.907,3.031L19.973,2.989L20.039,2.948L20.106,2.908L20.173,2.869L20.24,2.83L20.308,2.792L20.376,2.755L20.444,2.719L20.513,2.684L20.582,2.65L20.652,2.616L20.721,2.583L20.791,2.552L20.862,2.521L20.933,2.491L21.003,2.461L21.075,2.433L21.146,2.405L21.218,2.379L21.29,2.353L21.362,2.328L21.434,2.304L21.507,2.281L21.58,2.259L21.653,2.237L21.726,2.217L21.8,2.198L21.873,2.179L21.947,2.161L22.021,2.144L22.095,2.128L22.169,2.113L22.244,2.099L22.318,2.086L22.393,2.074L22.468,2.063L22.543,2.052L22.618,2.043L22.693,2.034L22.768,2.027L22.843,2.02L22.918,2.014L22.994,2.01L23.069,2.006L23.144,2.003L23.22,2.001L23.295,2L23.371,2ZM23.257,4.001L23.207,4.002L23.157,4.004L23.107,4.006L23.057,4.01L23.006,4.013L22.956,4.018L22.906,4.023L22.856,4.029L22.805,4.035L22.755,4.042L22.705,4.05L22.654,4.058L22.604,4.067L22.553,4.076L22.503,4.086L22.453,4.097L22.403,4.109L22.352,4.121L22.302,4.133L22.252,4.147L22.202,4.161L22.152,4.175L22.102,4.191L22.052,4.206L22.002,4.223L21.953,4.24L21.903,4.258L21.854,4.276L21.804,4.295L21.755,4.315L21.706,4.335L21.657,4.356L21.608,4.377L21.559,4.399L21.511,4.422L21.463,4.446L21.414,4.47L21.366,4.494L21.319,4.519L21.271,4.545L21.224,4.571L21.177,4.599L21.13,4.626L21.083,4.654L21.036,4.683L20.99,4.713L20.944,4.743L20.898,4.773L20.853,4.804L20.808,4.836L20.763,4.869L20.718,4.902L20.674,4.935L20.63,4.969L20.586,5.004L20.542,5.039L20.499,5.075L20.456,5.112L20.414,5.149L20.372,5.187L20.33,5.225L20.289,5.264L20.248,5.303L20.207,5.343L20.166,5.383L20.126,5.424L20.087,5.466L20.048,5.508L20.009,5.551L19.97,5.594L19.933,5.638L19.895,5.682L19.858,5.727L19.821,5.773L19.785,5.819L19.749,5.866L19.713,5.913L19.678,5.961L19.644,6.009L19.61,6.058L19.576,6.107L19.543,6.157L19.511,6.208L19.478,6.259L19.447,6.31L19.416,6.362L19.406,6.379L19.41,6.379L19.459,6.387L19.508,6.394L19.557,6.401L19.606,6.406L19.655,6.411L19.704,6.416L19.754,6.42L19.803,6.423L19.853,6.426L19.903,6.428L19.953,6.429L20.002,6.429L20.052,6.429L20.102,6.429L20.152,6.428L20.202,6.426L20.253,6.423L20.303,6.42L20.353,6.416L20.403,6.412L20.454,6.407L20.504,6.401L20.554,6.395L20.605,6.388L20.655,6.38L20.705,6.372L20.756,6.363L20.806,6.353L20.856,6.343L20.907,6.332L20.957,6.321L21.007,6.309L21.057,6.296L21.108,6.283L21.158,6.269L21.208,6.254L21.258,6.239L21.307,6.223L21.357,6.207L21.407,6.19L21.456,6.172L21.506,6.153L21.555,6.134L21.605,6.115L21.654,6.095L21.703,6.074L21.751,6.052L21.8,6.03L21.849,6.007L21.897,5.984L21.945,5.96L21.993,5.935L22.041,5.91L22.088,5.885L22.136,5.858L22.183,5.831L22.23,5.803L22.277,5.775L22.323,5.746L22.369,5.717L22.415,5.687L22.461,5.656L22.507,5.625L22.552,5.593L22.597,5.561L22.641,5.528L22.686,5.494L22.73,5.46L22.774,5.425L22.817,5.39L22.86,5.354L22.903,5.318L22.946,5.281L22.988,5.243L23.029,5.205L23.071,5.166L23.112,5.127L23.153,5.087L23.193,5.046L23.233,5.005L23.273,4.964L23.312,4.921L23.351,4.879L23.389,4.835L23.427,4.792L23.465,4.747L23.502,4.702L23.538,4.657L23.575,4.611L23.611,4.564L23.646,4.517L23.681,4.469L23.716,4.421L23.75,4.372L23.783,4.323L23.816,4.273L23.849,4.222L23.881,4.171L23.913,4.119L23.944,4.067L23.953,4.051L23.95,4.05L23.901,4.043L23.852,4.035L23.803,4.029L23.754,4.023L23.704,4.018L23.655,4.014L23.606,4.01L23.556,4.007L23.506,4.004L23.457,4.002L23.407,4.001L23.357,4L23.307,4L23.257,4.001Z"/>
        <path d="M19.462,2.775L17.462,9.775L15.538,9.225L17.538,2.225L19.462,2.775Z"/>
        <path d="M16.196,4.002L16.392,4.006L16.587,4.014L16.781,4.025L16.974,4.039L17.167,4.056L17.359,4.076L17.55,4.099L17.739,4.125L17.928,4.155L18.116,4.187L18.304,4.221L18.49,4.259L18.675,4.3L18.859,4.343L19.034,4.388L18.543,6.326L18.383,6.286L18.23,6.25L18.076,6.216L17.921,6.185L17.765,6.156L17.609,6.129L17.451,6.105L17.293,6.083L17.134,6.064L16.974,6.047L16.814,6.033L16.652,6.021L16.49,6.012L16.328,6.005L16.164,6.001L15.999,6L15.871,6.001L15.742,6.003L15.613,6.007L15.485,6.013L15.357,6.02L15.23,6.029L15.103,6.04L14.977,6.052L14.851,6.065L14.726,6.08L14.601,6.097L14.477,6.115L14.353,6.135L14.23,6.156L14.107,6.179L13.985,6.203L13.863,6.229L13.742,6.256L13.622,6.285L13.502,6.315L13.382,6.347L13.263,6.379L13.145,6.414L13.028,6.45L12.911,6.487L12.794,6.526L12.679,6.566L12.564,6.607L12.449,6.65L12.335,6.694L12.222,6.739L12.11,6.786L11.998,6.834L11.887,6.883L11.777,6.934L11.667,6.986L11.558,7.04L11.45,7.094L11.343,7.15L11.236,7.207L11.13,7.265L11.025,7.325L10.921,7.386L10.817,7.448L10.715,7.511L10.613,7.576L10.512,7.641L10.412,7.708L10.312,7.776L10.214,7.845L10.116,7.916L10.019,7.987L9.923,8.06L9.828,8.134L9.734,8.208L9.641,8.284L9.549,8.361L9.458,8.44L9.367,8.519L9.278,8.599L9.19,8.68L9.102,8.763L9.016,8.846L8.93,8.93L8.846,9.016L8.763,9.102L8.68,9.19L8.599,9.278L8.519,9.367L8.44,9.458L8.361,9.549L8.284,9.641L8.208,9.734L8.134,9.828L8.06,9.923L7.987,10.019L7.916,10.116L7.845,10.214L7.776,10.312L7.708,10.412L7.641,10.512L7.576,10.613L7.511,10.715L7.448,10.817L7.386,10.921L7.325,11.025L7.265,11.13L7.207,11.236L7.15,11.343L7.094,11.45L7.04,11.558L6.986,11.667L6.934,11.777L6.883,11.887L6.834,11.998L6.786,12.11L6.739,12.222L6.694,12.335L6.65,12.449L6.607,12.564L6.566,12.679L6.526,12.794L6.487,12.911L6.45,13.028L6.414,13.145L6.379,13.263L6.347,13.382L6.315,13.502L6.285,13.622L6.256,13.742L6.229,13.863L6.203,13.985L6.179,14.107L6.156,14.23L6.135,14.353L6.115,14.477L6.097,14.601L6.08,14.726L6.065,14.851L6.052,14.977L6.04,15.103L6.029,15.23L6.02,15.357L6.013,15.485L6.007,15.613L6.003,15.742L6.001,15.871L6,16L6.001,16.129L6.003,16.258L6.007,16.387L6.013,16.515L6.02,16.643L6.029,16.77L6.04,16.897L6.052,17.023L6.065,17.149L6.08,17.274L6.097,17.399L6.115,17.523L6.135,17.647L6.156,17.77L6.179,17.893L6.203,18.015L6.229,18.137L6.256,18.258L6.285,18.378L6.315,18.498L6.347,18.618L6.379,18.737L6.414,18.855L6.45,18.972L6.487,19.089L6.526,19.206L6.566,19.321L6.607,19.436L6.65,19.551L6.694,19.665L6.739,19.778L6.786,19.89L6.834,20.002L6.883,20.113L6.934,20.223L6.986,20.333L7.04,20.442L7.094,20.55L7.15,20.657L7.207,20.764L7.265,20.87L7.325,20.975L7.386,21.079L7.448,21.183L7.511,21.285L7.576,21.387L7.641,21.488L7.708,21.588L7.776,21.688L7.845,21.786L7.916,21.884L7.987,21.981L8.06,22.077L8.134,22.172L8.208,22.266L8.284,22.359L8.361,22.451L8.44,22.542L8.519,22.633L8.599,22.722L8.68,22.81L8.763,22.898L8.846,22.984L8.93,23.07L9.016,23.154L9.102,23.237L9.19,23.32L9.278,23.401L9.367,23.481L9.458,23.56L9.549,23.639L9.641,23.716L9.734,23.792L9.828,23.866L9.923,23.94L10.019,24.013L10.116,24.084L10.214,24.155L10.312,24.224L10.412,24.292L10.512,24.359L10.613,24.424L10.715,24.489L10.817,24.552L10.921,24.614L11.025,24.675L11.13,24.735L11.236,24.793L11.343,24.85L11.45,24.906L11.558,24.96L11.667,25.014L11.777,25.066L11.887,25.117L11.998,25.166L12.11,25.214L12.222,25.261L12.335,25.306L12.449,25.35L12.564,25.393L12.679,25.434L12.794,25.474L12.911,25.513L13.028,25.55L13.145,25.586L13.263,25.62L13.382,25.653L13.502,25.685L13.622,25.715L13.742,25.744L13.863,25.771L13.985,25.797L14.107,25.821L14.23,25.844L14.353,25.865L14.477,25.885L14.601,25.903L14.726,25.92L14.851,25.935L14.977,25.948L15.103,25.96L15.23,25.971L15.357,25.98L15.485,25.987L15.613,25.993L15.742,25.997L15.871,25.999L16,26L16.129,25.999L16.258,25.997L16.387,25.993L16.515,25.987L16.643,25.98L16.77,25.971L16.897,25.96L17.023,25.948L17.149,25.935L17.274,25.92L17.399,25.903L17.523,25.885L17.647,25.865L17.77,25.844L17.893,25.821L18.015,25.797L18.137,25.771L18.258,25.744L18.378,25.715L18.498,25.685L18.618,25.653L18.737,25.62L18.855,25.586L18.972,25.55L19.089,25.513L19.206,25.474L19.321,25.434L19.436,25.393L19.551,25.35L19.665,25.306L19.778,25.261L19.89,25.214L20.002,25.166L20.113,25.117L20.223,25.066L20.333,25.014L20.442,24.96L20.55,24.906L20.657,24.85L20.764,24.793L20.87,24.735L20.975,24.675L21.079,24.614L21.183,24.552L21.285,24.489L21.387,24.424L21.488,24.359L21.588,24.292L21.688,24.224L21.786,24.155L21.884,24.084L21.981,24.013L22.077,23.94L22.172,23.866L22.266,23.792L22.359,23.716L22.451,23.639L22.542,23.56L22.633,23.481L22.722,23.401L22.81,23.32L22.898,23.237L22.984,23.154L23.07,23.07L23.154,22.984L23.237,22.898L23.32,22.81L23.401,22.722L23.481,22.633L23.56,22.542L23.639,22.451L23.716,22.359L23.792,22.266L23.866,22.172L23.94,22.077L24.013,21.981L24.084,21.884L24.155,21.786L24.224,21.688L24.292,21.588L24.359,21.488L24.424,21.387L24.489,21.285L24.552,21.183L24.614,21.079L24.675,20.975L24.735,20.87L24.793,20.764L24.85,20.657L24.906,20.55L24.96,20.442L25.014,20.333L25.066,20.223L25.117,20.113L25.166,20.002L25.214,19.89L25.261,19.778L25.306,19.665L25.35,19.551L25.393,19.436L25.434,19.321L25.474,19.206L25.513,19.089L25.55,18.972L25.586,18.855L25.62,18.737L25.653,18.618L25.685,18.498L25.715,18.378L25.744,18.258L25.771,18.137L25.797,18.015L25.821,17.893L25.844,17.77L25.865,17.647L25.885,17.523L25.903,17.399L25.92,17.274L25.935,17.149L25.948,17.023L25.96,16.897L25.971,16.77L25.98,16.643L25.987,16.515L25.993,16.387L25.997,16.258L25.999,16.129L26,16.001L25.999,15.844L25.995,15.688L25.989,15.534L25.981,15.38L25.97,15.226L25.958,15.073L25.942,14.921L25.925,14.77L25.905,14.619L25.883,14.469L25.859,14.32L25.833,14.171L25.804,14.023L25.774,13.876L25.741,13.73L25.706,13.585L25.669,13.441L25.63,13.297L25.589,13.154L25.546,13.012L25.5,12.871L25.453,12.731L25.404,12.592L25.352,12.454L25.299,12.317L25.244,12.181L25.187,12.045L25.127,11.911L25.066,11.778L25.003,11.646L24.939,11.515L24.872,11.385L24.804,11.256L24.733,11.128L24.661,11.001L24.587,10.876L24.512,10.751L24.434,10.628L24.355,10.506L24.274,10.386L24.192,10.266L24.107,10.148L24.021,10.031L23.934,9.915L23.845,9.801L23.754,9.688L23.661,9.576L23.567,9.466L23.472,9.357L23.375,9.249L23.276,9.143L23.176,9.038L23.074,8.935L22.971,8.833L22.866,8.733L22.76,8.634L22.653,8.537L22.544,8.441L22.434,8.347L22.322,8.255L22.209,8.164L22.095,8.074L21.98,7.986L21.857,7.896L23.043,6.286L23.177,6.385L23.316,6.49L23.453,6.597L23.588,6.706L23.722,6.817L23.854,6.93L23.985,7.045L24.113,7.161L24.24,7.28L24.366,7.4L24.489,7.522L24.611,7.645L24.731,7.771L24.849,7.898L24.966,8.027L25.08,8.158L25.193,8.29L25.304,8.424L25.413,8.559L25.52,8.696L25.625,8.835L25.728,8.975L25.829,9.117L25.928,9.26L26.025,9.405L26.12,9.552L26.213,9.699L26.303,9.849L26.392,9.999L26.479,10.151L26.563,10.305L26.645,10.459L26.725,10.615L26.803,10.773L26.879,10.932L26.952,11.092L27.023,11.253L27.092,11.415L27.158,11.579L27.222,11.744L27.284,11.91L27.343,12.077L27.4,12.245L27.454,12.415L27.506,12.585L27.556,12.757L27.603,12.929L27.647,13.103L27.689,13.278L27.729,13.453L27.765,13.63L27.8,13.807L27.831,13.986L27.86,14.165L27.886,14.345L27.91,14.526L27.931,14.708L27.949,14.89L27.965,15.073L27.977,15.257L27.987,15.442L27.994,15.627L27.999,15.813L28,15.999L27.999,16.155L27.996,16.309L27.991,16.463L27.984,16.616L27.976,16.769L27.965,16.922L27.952,17.074L27.938,17.225L27.922,17.376L27.904,17.526L27.884,17.676L27.862,17.825L27.838,17.974L27.812,18.122L27.785,18.27L27.756,18.416L27.725,18.563L27.692,18.708L27.658,18.853L27.622,18.997L27.584,19.141L27.544,19.283L27.503,19.425L27.46,19.567L27.415,19.707L27.369,19.847L27.321,19.986L27.271,20.125L27.22,20.262L27.167,20.399L27.112,20.535L27.056,20.67L26.998,20.804L26.939,20.937L26.878,21.07L26.815,21.201L26.751,21.332L26.686,21.462L26.619,21.591L26.55,21.719L26.48,21.846L26.409,21.972L26.336,22.097L26.261,22.222L26.185,22.345L26.108,22.467L26.029,22.588L25.949,22.708L25.867,22.828L25.784,22.946L25.7,23.063L25.614,23.179L25.527,23.294L25.439,23.408L25.349,23.52L25.258,23.632L25.166,23.742L25.072,23.852L24.977,23.96L24.881,24.067L24.784,24.173L24.685,24.278L24.585,24.381L24.484,24.484L24.381,24.585L24.278,24.685L24.173,24.784L24.067,24.881L23.96,24.977L23.852,25.072L23.742,25.166L23.632,25.258L23.52,25.349L23.408,25.439L23.294,25.527L23.179,25.614L23.063,25.7L22.946,25.784L22.828,25.867L22.708,25.949L22.588,26.029L22.467,26.108L22.345,26.185L22.222,26.261L22.097,26.336L21.972,26.409L21.846,26.48L21.719,26.55L21.591,26.619L21.462,26.686L21.332,26.751L21.201,26.815L21.07,26.878L20.937,26.939L20.804,26.998L20.67,27.056L20.535,27.112L20.399,27.167L20.262,27.22L20.125,27.271L19.986,27.321L19.847,27.369L19.707,27.415L19.567,27.46L19.425,27.503L19.283,27.544L19.141,27.584L18.997,27.622L18.853,27.658L18.708,27.692L18.563,27.725L18.416,27.756L18.27,27.785L18.122,27.812L17.974,27.838L17.825,27.862L17.676,27.884L17.526,27.904L17.376,27.922L17.225,27.938L17.074,27.952L16.922,27.965L16.769,27.976L16.616,27.984L16.463,27.991L16.309,27.996L16.155,27.999L16,28L15.845,27.999L15.691,27.996L15.537,27.991L15.384,27.984L15.231,27.976L15.078,27.965L14.926,27.952L14.775,27.938L14.624,27.922L14.474,27.904L14.324,27.884L14.175,27.862L14.026,27.838L13.878,27.812L13.73,27.785L13.584,27.756L13.437,27.725L13.292,27.692L13.147,27.658L13.003,27.622L12.859,27.584L12.717,27.544L12.575,27.503L12.433,27.46L12.293,27.415L12.153,27.369L12.014,27.321L11.875,27.271L11.738,27.22L11.601,27.167L11.465,27.112L11.33,27.056L11.196,26.998L11.063,26.939L10.93,26.878L10.799,26.815L10.668,26.751L10.538,26.686L10.409,26.619L10.281,26.55L10.154,26.48L10.028,26.409L9.903,26.336L9.778,26.261L9.655,26.185L9.533,26.108L9.412,26.029L9.292,25.949L9.172,25.867L9.054,25.784L8.937,25.7L8.821,25.614L8.706,25.527L8.592,25.439L8.48,25.349L8.368,25.258L8.258,25.166L8.148,25.072L8.04,24.977L7.933,24.881L7.827,24.784L7.722,24.685L7.619,24.585L7.516,24.484L7.415,24.381L7.315,24.278L7.216,24.173L7.119,24.067L7.023,23.96L6.928,23.852L6.834,23.742L6.742,23.632L6.651,23.52L6.561,23.408L6.473,23.294L6.386,23.179L6.3,23.063L6.216,22.946L6.133,22.828L6.051,22.708L5.971,22.588L5.892,22.467L5.815,22.345L5.739,22.222L5.664,22.097L5.591,21.972L5.52,21.846L5.45,21.719L5.381,21.591L5.314,21.462L5.249,21.332L5.185,21.201L5.122,21.07L5.061,20.937L5.002,20.804L4.944,20.67L4.888,20.535L4.833,20.399L4.78,20.262L4.729,20.125L4.679,19.986L4.631,19.847L4.585,19.707L4.54,19.567L4.497,19.425L4.456,19.283L4.416,19.141L4.378,18.997L4.342,18.853L4.308,18.708L4.275,18.563L4.244,18.416L4.215,18.27L4.188,18.122L4.162,17.974L4.138,17.825L4.116,17.676L4.096,17.526L4.078,17.376L4.062,17.225L4.048,17.074L4.035,16.922L4.024,16.769L4.016,16.616L4.009,16.463L4.004,16.309L4.001,16.155L4,16L4.001,15.845L4.004,15.691L4.009,15.537L4.016,15.384L4.024,15.231L4.035,15.078L4.048,14.926L4.062,14.775L4.078,14.624L4.096,14.474L4.116,14.324L4.138,14.175L4.162,14.026L4.188,13.878L4.215,13.73L4.244,13.584L4.275,13.437L4.308,13.292L4.342,13.147L4.378,13.003L4.416,12.859L4.456,12.717L4.497,12.575L4.54,12.433L4.585,12.293L4.631,12.153L4.679,12.014L4.729,11.875L4.78,11.738L4.833,11.601L4.888,11.465L4.944,11.33L5.002,11.196L5.061,11.063L5.122,10.93L5.185,10.799L5.249,10.668L5.314,10.538L5.381,10.409L5.45,10.281L5.52,10.154L5.591,10.028L5.664,9.903L5.739,9.778L5.815,9.655L5.892,9.533L5.971,9.412L6.051,9.292L6.133,9.172L6.216,9.054L6.3,8.937L6.386,8.821L6.473,8.706L6.561,8.592L6.651,8.48L6.742,8.368L6.834,8.258L6.928,8.148L7.023,8.04L7.119,7.933L7.216,7.827L7.315,7.722L7.415,7.619L7.516,7.516L7.619,7.415L7.722,7.315L7.827,7.216L7.933,7.119L8.04,7.023L8.148,6.928L8.258,6.834L8.368,6.742L8.48,6.651L8.592,6.561L8.706,6.473L8.821,6.386L8.937,6.3L9.054,6.216L9.172,6.133L9.292,6.051L9.412,5.971L9.533,5.892L9.655,5.815L9.778,5.739L9.903,5.664L10.028,5.591L10.154,5.52L10.281,5.45L10.409,5.381L10.538,5.314L10.668,5.249L10.799,5.185L10.93,5.122L11.063,5.061L11.196,5.002L11.33,4.944L11.465,4.888L11.601,4.833L11.738,4.78L11.875,4.729L12.014,4.679L12.153,4.631L12.293,4.585L12.433,4.54L12.575,4.497L12.717,4.456L12.859,4.416L13.003,4.378L13.147,4.342L13.292,4.308L13.437,4.275L13.584,4.244L13.73,4.215L13.878,4.188L14.026,4.162L14.175,4.138L14.324,4.116L14.474,4.096L14.624,4.078L14.775,4.062L14.926,4.048L15.078,4.035L15.231,4.024L15.384,4.016L15.537,4.009L15.691,4.004L15.845,4.001L16.001,4L16.196,4.002Z"/>
    </g>
</svg>
