<?xml version="1.0" encoding="UTF-8" standalone="no"?>
<!DOCTYPE svg PUBLIC "-//W3C//DTD SVG 1.1//EN" "http://www.w3.org/Graphics/SVG/1.1/DTD/svg11.dtd">
<svg width="100%" height="100%" viewBox="0 0 32 32" version="1.1" xmlns="http://www.w3.org/2000/svg" xmlns:xlink="http://www.w3.org/1999/xlink" xml:space="preserve" xmlns:serif="http://www.serif.com/" style="fill-rule:evenodd;clip-rule:evenodd;stroke-linejoin:round;stroke-miterlimit:1.41421;">
    <g id="Main">
        <path d="M16.116,1.001L16.232,1.003L16.348,1.007L16.463,1.012L16.578,1.018L16.692,1.026L16.806,1.036L16.92,1.047L17.033,1.059L17.146,1.072L17.258,1.087L17.37,1.104L17.481,1.122L17.592,1.141L17.703,1.161L17.813,1.183L17.922,1.206L18.031,1.231L18.14,1.256L18.248,1.284L18.356,1.312L18.463,1.342L18.569,1.373L18.675,1.405L18.78,1.438L18.885,1.473L18.99,1.509L19.093,1.546L19.196,1.585L19.299,1.625L19.401,1.666L19.502,1.708L19.602,1.751L19.702,1.796L19.802,1.841L19.9,1.888L19.998,1.936L20.096,1.985L20.192,2.036L20.288,2.087L20.384,2.139L20.478,2.193L20.572,2.248L20.665,2.304L20.758,2.361L20.849,2.419L20.94,2.478L21.031,2.538L21.12,2.599L21.209,2.661L21.296,2.725L21.383,2.789L21.47,2.854L21.555,2.921L21.64,2.988L21.723,3.056L21.806,3.126L21.888,3.196L21.97,3.267L22.05,3.339L22.13,3.412L22.208,3.486L22.286,3.561L22.363,3.637L22.439,3.714L22.514,3.792L22.588,3.87L22.661,3.95L22.733,4.03L22.804,4.112L22.874,4.194L22.944,4.277L23.012,4.36L23.079,4.445L23.146,4.53L23.211,4.617L23.275,4.704L23.339,4.791L23.401,4.88L23.462,4.969L23.522,5.06L23.581,5.151L23.639,5.242L23.696,5.335L23.752,5.428L23.807,5.522L23.861,5.616L23.913,5.712L23.964,5.808L24.015,5.904L24.064,6.002L24.112,6.1L24.159,6.198L24.204,6.298L24.249,6.398L24.292,6.498L24.334,6.599L24.375,6.701L24.415,6.804L24.454,6.907L24.491,7.01L24.527,7.115L24.562,7.22L24.595,7.325L24.627,7.431L24.658,7.537L24.688,7.644L24.716,7.752L24.744,7.86L24.769,7.969L24.794,8.078L24.817,8.187L24.839,8.297L24.859,8.408L24.878,8.519L24.896,8.63L24.913,8.742L24.928,8.854L24.941,8.967L24.953,9.08L24.964,9.194L24.974,9.308L24.982,9.422L24.988,9.537L24.993,9.652L24.997,9.768L24.999,9.884L25,10L24.999,10.116L24.997,10.232L24.993,10.348L24.988,10.463L24.982,10.578L24.974,10.692L24.964,10.806L24.953,10.92L24.941,11.033L24.928,11.146L24.913,11.258L24.896,11.37L24.878,11.481L24.859,11.592L24.839,11.703L24.817,11.813L24.794,11.922L24.769,12.031L24.744,12.14L24.716,12.248L24.688,12.356L24.658,12.463L24.627,12.569L24.595,12.675L24.562,12.78L24.527,12.885L24.491,12.99L24.454,13.093L24.415,13.196L24.375,13.299L24.334,13.401L24.292,13.502L24.249,13.602L24.204,13.702L24.159,13.802L24.112,13.9L24.064,13.998L24.015,14.096L23.964,14.192L23.913,14.288L23.861,14.384L23.807,14.478L23.752,14.572L23.696,14.665L23.639,14.758L23.581,14.849L23.522,14.94L23.462,15.031L23.401,15.12L23.339,15.209L23.275,15.296L23.211,15.383L23.146,15.47L23.079,15.555L23.012,15.64L22.944,15.723L22.874,15.806L22.804,15.888L22.733,15.97L22.661,16.05L22.588,16.13L22.514,16.208L22.439,16.286L22.363,16.363L22.286,16.439L22.208,16.514L22.13,16.588L22.05,16.661L21.97,16.733L21.888,16.804L21.806,16.874L21.723,16.944L21.64,17.012L21.555,17.079L21.47,17.146L21.383,17.211L21.296,17.275L21.209,17.339L21.12,17.401L21.031,17.462L20.94,17.522L20.849,17.581L20.758,17.639L20.665,17.696L20.572,17.752L20.478,17.807L20.384,17.861L20.288,17.913L20.192,17.964L20.096,18.015L19.998,18.064L19.9,18.112L19.802,18.159L19.702,18.204L19.602,18.249L19.502,18.292L19.401,18.334L19.299,18.375L19.196,18.415L19.093,18.454L18.99,18.491L18.885,18.527L18.78,18.562L18.675,18.595L18.569,18.627L18.463,18.658L18.356,18.688L18.248,18.716L18.14,18.744L18.031,18.769L17.922,18.794L17.813,18.817L17.703,18.839L17.592,18.859L17.481,18.878L17.37,18.896L17.258,18.913L17.146,18.928L17.033,18.941L16.92,18.953L16.806,18.964L16.692,18.974L16.578,18.982L16.463,18.988L16.348,18.993L16.232,18.997L16.116,18.999L16,19L15.884,18.999L15.768,18.997L15.652,18.993L15.537,18.988L15.422,18.982L15.308,18.974L15.194,18.964L15.08,18.953L14.967,18.941L14.854,18.928L14.742,18.913L14.63,18.896L14.519,18.878L14.408,18.859L14.297,18.839L14.187,18.817L14.078,18.794L13.969,18.769L13.86,18.744L13.752,18.716L13.644,18.688L13.537,18.658L13.431,18.627L13.325,18.595L13.22,18.562L13.115,18.527L13.01,18.491L12.907,18.454L12.804,18.415L12.701,18.375L12.599,18.334L12.498,18.292L12.398,18.249L12.298,18.204L12.198,18.159L12.1,18.112L12.002,18.064L11.904,18.015L11.808,17.964L11.712,17.913L11.616,17.861L11.522,17.807L11.428,17.752L11.335,17.696L11.242,17.639L11.151,17.581L11.06,17.522L10.969,17.462L10.88,17.401L10.791,17.339L10.704,17.275L10.617,17.211L10.53,17.146L10.445,17.079L10.36,17.012L10.277,16.944L10.194,16.874L10.112,16.804L10.03,16.733L9.95,16.661L9.87,16.588L9.792,16.514L9.714,16.439L9.637,16.363L9.561,16.286L9.486,16.208L9.412,16.13L9.339,16.05L9.267,15.97L9.196,15.888L9.126,15.806L9.056,15.723L8.988,15.64L8.921,15.555L8.854,15.47L8.789,15.383L8.725,15.296L8.661,15.209L8.599,15.12L8.538,15.031L8.478,14.94L8.419,14.849L8.361,14.758L8.304,14.665L8.248,14.572L8.193,14.478L8.139,14.384L8.087,14.288L8.036,14.192L7.985,14.096L7.936,13.998L7.888,13.9L7.841,13.802L7.796,13.702L7.751,13.602L7.708,13.502L7.666,13.401L7.625,13.299L7.585,13.196L7.546,13.093L7.509,12.99L7.473,12.885L7.438,12.78L7.405,12.675L7.373,12.569L7.342,12.463L7.312,12.356L7.284,12.248L7.256,12.14L7.231,12.031L7.206,11.922L7.183,11.813L7.161,11.703L7.141,11.592L7.122,11.481L7.104,11.37L7.087,11.258L7.072,11.146L7.059,11.033L7.047,10.92L7.036,10.806L7.026,10.692L7.018,10.578L7.012,10.463L7.007,10.348L7.003,10.232L7.001,10.116L7,10L7.001,9.884L7.003,9.768L7.007,9.652L7.012,9.537L7.018,9.422L7.026,9.308L7.036,9.194L7.047,9.08L7.059,8.967L7.072,8.854L7.087,8.742L7.104,8.63L7.122,8.519L7.141,8.408L7.161,8.297L7.183,8.187L7.206,8.078L7.231,7.969L7.256,7.86L7.284,7.752L7.312,7.644L7.342,7.537L7.373,7.431L7.405,7.325L7.438,7.22L7.473,7.115L7.509,7.01L7.546,6.907L7.585,6.804L7.625,6.701L7.666,6.599L7.708,6.498L7.751,6.398L7.796,6.298L7.841,6.198L7.888,6.1L7.936,6.002L7.985,5.904L8.036,5.808L8.087,5.712L8.139,5.616L8.193,5.522L8.248,5.428L8.304,5.335L8.361,5.242L8.419,5.151L8.478,5.06L8.538,4.969L8.599,4.88L8.661,4.791L8.725,4.704L8.789,4.617L8.854,4.53L8.921,4.445L8.988,4.36L9.056,4.277L9.126,4.194L9.196,4.112L9.267,4.03L9.339,3.95L9.412,3.87L9.486,3.792L9.561,3.714L9.637,3.637L9.714,3.561L9.792,3.486L9.87,3.412L9.95,3.339L10.03,3.267L10.112,3.196L10.194,3.126L10.277,3.056L10.36,2.988L10.445,2.921L10.53,2.854L10.617,2.789L10.704,2.725L10.791,2.661L10.88,2.599L10.969,2.538L11.06,2.478L11.151,2.419L11.242,2.361L11.335,2.304L11.428,2.248L11.522,2.193L11.616,2.139L11.712,2.087L11.808,2.036L11.904,1.985L12.002,1.936L12.1,1.888L12.198,1.841L12.298,1.796L12.398,1.751L12.498,1.708L12.599,1.666L12.701,1.625L12.804,1.585L12.907,1.546L13.01,1.509L13.115,1.473L13.22,1.438L13.325,1.405L13.431,1.373L13.537,1.342L13.644,1.312L13.752,1.284L13.86,1.256L13.969,1.231L14.078,1.206L14.187,1.183L14.297,1.161L14.408,1.141L14.519,1.122L14.63,1.104L14.742,1.087L14.854,1.072L14.967,1.059L15.08,1.047L15.194,1.036L15.308,1.026L15.422,1.018L15.537,1.012L15.652,1.007L15.768,1.003L15.884,1.001L16,1L16.116,1.001ZM15.909,3.001L15.819,3.002L15.728,3.005L15.639,3.009L15.549,3.014L15.46,3.021L15.371,3.028L15.283,3.036L15.195,3.046L15.107,3.056L15.02,3.068L14.933,3.081L14.846,3.095L14.76,3.109L14.674,3.125L14.589,3.142L14.503,3.16L14.419,3.179L14.335,3.199L14.251,3.22L14.167,3.242L14.084,3.265L14.002,3.29L13.919,3.315L13.838,3.341L13.756,3.368L13.675,3.396L13.595,3.424L13.515,3.454L13.435,3.485L13.356,3.517L13.278,3.55L13.2,3.583L13.122,3.618L13.045,3.653L12.968,3.69L12.892,3.727L12.816,3.765L12.741,3.804L12.667,3.844L12.593,3.885L12.519,3.927L12.446,3.969L12.374,4.013L12.302,4.057L12.23,4.102L12.16,4.148L12.089,4.195L12.02,4.243L11.951,4.291L11.882,4.34L11.815,4.39L11.747,4.441L11.681,4.493L11.615,4.545L11.55,4.599L11.485,4.653L11.421,4.707L11.358,4.763L11.295,4.819L11.233,4.876L11.172,4.934L11.111,4.992L11.052,5.052L10.992,5.111L10.934,5.172L10.876,5.233L10.819,5.295L10.763,5.358L10.707,5.421L10.653,5.485L10.599,5.55L10.545,5.615L10.493,5.681L10.441,5.747L10.39,5.815L10.34,5.882L10.291,5.951L10.243,6.02L10.195,6.089L10.148,6.16L10.102,6.23L10.057,6.302L10.013,6.374L9.969,6.446L9.927,6.519L9.885,6.593L9.844,6.667L9.804,6.741L9.765,6.816L9.727,6.892L9.69,6.968L9.653,7.045L9.618,7.122L9.583,7.2L9.55,7.278L9.517,7.356L9.485,7.435L9.454,7.515L9.424,7.595L9.395,7.675L9.368,7.756L9.341,7.838L9.315,7.919L9.29,8.002L9.265,8.084L9.242,8.167L9.22,8.251L9.199,8.335L9.179,8.419L9.16,8.503L9.142,8.589L9.125,8.674L9.109,8.76L9.095,8.846L9.081,8.933L9.068,9.02L9.056,9.107L9.046,9.195L9.036,9.283L9.028,9.371L9.021,9.46L9.014,9.549L9.009,9.639L9.005,9.728L9.002,9.819L9.001,9.909L9,10L9.001,10.091L9.002,10.181L9.005,10.272L9.009,10.361L9.014,10.451L9.021,10.54L9.028,10.629L9.036,10.717L9.046,10.805L9.056,10.893L9.068,10.98L9.081,11.067L9.095,11.154L9.109,11.24L9.125,11.326L9.142,11.411L9.16,11.497L9.179,11.581L9.199,11.665L9.22,11.749L9.242,11.833L9.265,11.916L9.29,11.998L9.315,12.081L9.341,12.162L9.368,12.244L9.395,12.325L9.424,12.405L9.454,12.485L9.485,12.565L9.517,12.644L9.55,12.722L9.583,12.8L9.618,12.878L9.653,12.955L9.69,13.032L9.727,13.108L9.765,13.184L9.804,13.259L9.844,13.333L9.885,13.407L9.927,13.481L9.969,13.554L10.013,13.626L10.057,13.698L10.102,13.77L10.148,13.84L10.195,13.911L10.243,13.98L10.291,14.049L10.34,14.118L10.39,14.185L10.441,14.253L10.493,14.319L10.545,14.385L10.599,14.45L10.653,14.515L10.707,14.579L10.763,14.642L10.819,14.705L10.876,14.767L10.934,14.828L10.992,14.889L11.052,14.948L11.111,15.008L11.172,15.066L11.233,15.124L11.295,15.181L11.358,15.237L11.421,15.293L11.485,15.347L11.55,15.401L11.615,15.455L11.681,15.507L11.747,15.559L11.815,15.61L11.882,15.66L11.951,15.709L12.02,15.757L12.089,15.805L12.16,15.852L12.23,15.898L12.302,15.943L12.374,15.987L12.446,16.031L12.519,16.073L12.593,16.115L12.667,16.156L12.741,16.196L12.816,16.235L12.892,16.273L12.968,16.31L13.045,16.347L13.122,16.382L13.2,16.417L13.278,16.45L13.356,16.483L13.435,16.515L13.515,16.546L13.595,16.576L13.675,16.605L13.756,16.632L13.838,16.659L13.919,16.685L14.002,16.71L14.084,16.735L14.167,16.758L14.251,16.78L14.335,16.801L14.419,16.821L14.503,16.84L14.589,16.858L14.674,16.875L14.76,16.891L14.846,16.905L14.933,16.919L15.02,16.932L15.107,16.944L15.195,16.954L15.283,16.964L15.371,16.972L15.46,16.979L15.549,16.986L15.639,16.991L15.728,16.995L15.819,16.998L15.909,16.999L16,17L16.091,16.999L16.181,16.998L16.272,16.995L16.361,16.991L16.451,16.986L16.54,16.979L16.629,16.972L16.717,16.964L16.805,16.954L16.893,16.944L16.98,16.932L17.067,16.919L17.154,16.905L17.24,16.891L17.326,16.875L17.411,16.858L17.497,16.84L17.581,16.821L17.665,16.801L17.749,16.78L17.833,16.758L17.916,16.735L17.998,16.71L18.081,16.685L18.162,16.659L18.244,16.632L18.325,16.605L18.405,16.576L18.485,16.546L18.565,16.515L18.644,16.483L18.722,16.45L18.8,16.417L18.878,16.382L18.955,16.347L19.032,16.31L19.108,16.273L19.184,16.235L19.259,16.196L19.333,16.156L19.407,16.115L19.481,16.073L19.554,16.031L19.626,15.987L19.698,15.943L19.77,15.898L19.84,15.852L19.911,15.805L19.98,15.757L20.049,15.709L20.118,15.66L20.185,15.61L20.253,15.559L20.319,15.507L20.385,15.455L20.45,15.401L20.515,15.347L20.579,15.293L20.642,15.237L20.705,15.181L20.767,15.124L20.828,15.066L20.889,15.008L20.948,14.948L21.008,14.889L21.066,14.828L21.124,14.767L21.181,14.705L21.237,14.642L21.293,14.579L21.347,14.515L21.401,14.45L21.455,14.385L21.507,14.319L21.559,14.253L21.61,14.185L21.66,14.118L21.709,14.049L21.757,13.98L21.805,13.911L21.852,13.84L21.898,13.77L21.943,13.698L21.987,13.626L22.031,13.554L22.073,13.481L22.115,13.407L22.156,13.333L22.196,13.259L22.235,13.184L22.273,13.108L22.31,13.032L22.347,12.955L22.382,12.878L22.417,12.8L22.45,12.722L22.483,12.644L22.515,12.565L22.546,12.485L22.576,12.405L22.604,12.325L22.632,12.244L22.659,12.162L22.685,12.081L22.71,11.998L22.735,11.916L22.758,11.833L22.78,11.749L22.801,11.665L22.821,11.581L22.84,11.497L22.858,11.411L22.875,11.326L22.891,11.24L22.905,11.154L22.919,11.067L22.932,10.98L22.944,10.893L22.954,10.805L22.964,10.717L22.972,10.629L22.979,10.54L22.986,10.451L22.991,10.361L22.995,10.272L22.998,10.181L22.999,10.091L23,10L22.999,9.909L22.998,9.819L22.995,9.728L22.991,9.639L22.986,9.549L22.979,9.46L22.972,9.371L22.964,9.283L22.954,9.195L22.944,9.107L22.932,9.02L22.919,8.933L22.905,8.846L22.891,8.76L22.875,8.674L22.858,8.589L22.84,8.503L22.821,8.419L22.801,8.335L22.78,8.251L22.758,8.167L22.735,8.084L22.71,8.002L22.685,7.919L22.659,7.838L22.632,7.756L22.604,7.675L22.576,7.595L22.546,7.515L22.515,7.435L22.483,7.356L22.45,7.278L22.417,7.2L22.382,7.122L22.347,7.045L22.31,6.968L22.273,6.892L22.235,6.816L22.196,6.741L22.156,6.667L22.115,6.593L22.073,6.519L22.031,6.446L21.987,6.374L21.943,6.302L21.898,6.23L21.852,6.16L21.805,6.089L21.757,6.02L21.709,5.951L21.66,5.882L21.61,5.815L21.559,5.747L21.507,5.681L21.455,5.615L21.401,5.55L21.347,5.485L21.293,5.421L21.237,5.358L21.181,5.295L21.124,5.233L21.066,5.172L21.008,5.111L20.948,5.052L20.889,4.992L20.828,4.934L20.767,4.876L20.705,4.819L20.642,4.763L20.579,4.707L20.515,4.653L20.45,4.599L20.385,4.545L20.319,4.493L20.253,4.441L20.185,4.39L20.118,4.34L20.049,4.291L19.98,4.243L19.911,4.195L19.84,4.148L19.77,4.102L19.698,4.057L19.626,4.013L19.554,3.969L19.481,3.927L19.407,3.885L19.333,3.844L19.259,3.804L19.184,3.765L19.108,3.727L19.032,3.69L18.955,3.653L18.878,3.618L18.8,3.583L18.722,3.55L18.644,3.517L18.565,3.485L18.485,3.454L18.405,3.424L18.325,3.396L18.244,3.368L18.162,3.341L18.081,3.315L17.998,3.29L17.916,3.265L17.833,3.242L17.749,3.22L17.665,3.199L17.581,3.179L17.497,3.16L17.411,3.142L17.326,3.125L17.24,3.109L17.154,3.095L17.067,3.081L16.98,3.068L16.893,3.056L16.805,3.046L16.717,3.036L16.629,3.028L16.54,3.021L16.451,3.014L16.361,3.009L16.272,3.005L16.181,3.002L16.091,3.001L16,3L15.909,3.001Z"/>
        <clipPath id="_clip1">
            <rect x="1" y="17" width="30" height="14"/>
        </clipPath>
        <g clip-path="url(#_clip1)">
            <path d="M16.181,17.001L16.361,17.005L16.541,17.01L16.72,17.018L16.899,17.028L17.077,17.041L17.254,17.055L17.431,17.072L17.607,17.091L17.782,17.113L17.957,17.136L18.131,17.161L18.304,17.189L18.477,17.219L18.649,17.251L18.82,17.285L18.99,17.321L19.16,17.359L19.329,17.399L19.497,17.441L19.664,17.485L19.831,17.531L19.996,17.58L20.161,17.63L20.325,17.682L20.488,17.736L20.65,17.792L20.812,17.85L20.972,17.91L21.131,17.972L21.29,18.035L21.447,18.101L21.604,18.168L21.759,18.238L21.914,18.309L22.067,18.381L22.22,18.456L22.371,18.533L22.522,18.611L22.671,18.691L22.819,18.772L22.966,18.856L23.112,18.941L23.257,19.028L23.401,19.117L23.544,19.207L23.685,19.299L23.825,19.392L23.964,19.488L24.102,19.584L24.239,19.683L24.374,19.783L24.508,19.884L24.641,19.988L24.773,20.092L24.903,20.199L25.032,20.306L25.16,20.416L25.286,20.526L25.411,20.639L25.535,20.753L25.657,20.868L25.778,20.984L25.898,21.102L26.016,21.222L26.132,21.343L26.247,21.465L26.361,21.589L26.474,21.714L26.584,21.84L26.694,21.968L26.801,22.097L26.908,22.227L27.012,22.359L27.116,22.492L27.217,22.626L27.317,22.761L27.416,22.898L27.512,23.036L27.608,23.175L27.701,23.315L27.793,23.456L27.883,23.599L27.972,23.743L28.059,23.888L28.144,24.034L28.228,24.181L28.309,24.329L28.389,24.478L28.467,24.629L28.544,24.78L28.619,24.933L28.691,25.086L28.762,25.241L28.832,25.396L28.899,25.553L28.965,25.71L29.028,25.869L29.09,26.028L29.15,26.188L29.208,26.35L29.264,26.512L29.318,26.675L29.37,26.839L29.42,27.004L29.469,27.169L29.515,27.336L29.559,27.503L29.601,27.671L29.641,27.84L29.679,28.01L29.715,28.18L29.749,28.351L29.781,28.523L29.811,28.696L29.839,28.869L29.864,29.043L29.887,29.218L29.909,29.393L29.928,29.569L29.945,29.746L29.959,29.923L29.972,30.101L29.982,30.28L29.99,30.459L29.995,30.639L29.999,30.819L30,31L29.999,31.181L29.995,31.361L29.99,31.541L29.982,31.72L29.972,31.899L29.959,32.077L29.945,32.254L29.928,32.431L29.909,32.607L29.887,32.782L29.864,32.957L29.839,33.131L29.811,33.304L29.781,33.477L29.749,33.649L29.715,33.82L29.679,33.99L29.641,34.16L29.601,34.329L29.559,34.497L29.515,34.664L29.469,34.831L29.42,34.996L29.37,35.161L29.318,35.325L29.264,35.488L29.208,35.65L29.15,35.812L29.09,35.972L29.028,36.131L28.965,36.29L28.899,36.447L28.832,36.604L28.762,36.759L28.691,36.914L28.619,37.067L28.544,37.22L28.467,37.371L28.389,37.522L28.309,37.671L28.228,37.819L28.144,37.966L28.059,38.112L27.972,38.257L27.883,38.401L27.793,38.544L27.701,38.685L27.608,38.825L27.512,38.964L27.416,39.102L27.317,39.239L27.217,39.374L27.116,39.508L27.012,39.641L26.908,39.773L26.801,39.903L26.694,40.032L26.584,40.16L26.474,40.286L26.361,40.411L26.247,40.535L26.132,40.657L26.016,40.778L25.898,40.898L25.778,41.016L25.657,41.132L25.535,41.247L25.411,41.361L25.286,41.474L25.16,41.584L25.032,41.694L24.903,41.801L24.773,41.908L24.641,42.012L24.508,42.116L24.374,42.217L24.239,42.317L24.102,42.416L23.964,42.512L23.825,42.608L23.685,42.701L23.544,42.793L23.401,42.883L23.257,42.972L23.112,43.059L22.966,43.144L22.819,43.228L22.671,43.309L22.522,43.389L22.371,43.467L22.22,43.544L22.067,43.619L21.914,43.691L21.759,43.762L21.604,43.832L21.447,43.899L21.29,43.965L21.131,44.028L20.972,44.09L20.812,44.15L20.65,44.208L20.488,44.264L20.325,44.318L20.161,44.37L19.996,44.42L19.831,44.469L19.664,44.515L19.497,44.559L19.329,44.601L19.16,44.641L18.99,44.679L18.82,44.715L18.649,44.749L18.477,44.781L18.304,44.811L18.131,44.839L17.957,44.864L17.782,44.887L17.607,44.909L17.431,44.928L17.254,44.945L17.077,44.959L16.899,44.972L16.72,44.982L16.541,44.99L16.361,44.995L16.181,44.999L16,45L15.819,44.999L15.639,44.995L15.459,44.99L15.28,44.982L15.101,44.972L14.923,44.959L14.746,44.945L14.569,44.928L14.393,44.909L14.218,44.887L14.043,44.864L13.869,44.839L13.696,44.811L13.523,44.781L13.351,44.749L13.18,44.715L13.01,44.679L12.84,44.641L12.671,44.601L12.503,44.559L12.336,44.515L12.169,44.469L12.004,44.42L11.839,44.37L11.675,44.318L11.512,44.264L11.35,44.208L11.188,44.15L11.028,44.09L10.869,44.028L10.71,43.965L10.553,43.899L10.396,43.832L10.241,43.762L10.086,43.691L9.933,43.619L9.78,43.544L9.629,43.467L9.478,43.389L9.329,43.309L9.181,43.228L9.034,43.144L8.888,43.059L8.743,42.972L8.599,42.883L8.456,42.793L8.315,42.701L8.175,42.608L8.036,42.512L7.898,42.416L7.761,42.317L7.626,42.217L7.492,42.116L7.359,42.012L7.227,41.908L7.097,41.801L6.968,41.694L6.84,41.584L6.714,41.474L6.589,41.361L6.465,41.247L6.343,41.132L6.222,41.016L6.102,40.898L5.984,40.778L5.868,40.657L5.753,40.535L5.639,40.411L5.526,40.286L5.416,40.16L5.306,40.032L5.199,39.903L5.092,39.773L4.988,39.641L4.884,39.508L4.783,39.374L4.683,39.239L4.584,39.102L4.488,38.964L4.392,38.825L4.299,38.685L4.207,38.544L4.117,38.401L4.028,38.257L3.941,38.112L3.856,37.966L3.772,37.819L3.691,37.671L3.611,37.522L3.533,37.371L3.456,37.22L3.381,37.067L3.309,36.914L3.238,36.759L3.168,36.604L3.101,36.447L3.035,36.29L2.972,36.131L2.91,35.972L2.85,35.812L2.792,35.65L2.736,35.488L2.682,35.325L2.63,35.161L2.58,34.996L2.531,34.831L2.485,34.664L2.441,34.497L2.399,34.329L2.359,34.16L2.321,33.99L2.285,33.82L2.251,33.649L2.219,33.477L2.189,33.304L2.161,33.131L2.136,32.957L2.113,32.782L2.091,32.607L2.072,32.431L2.055,32.254L2.041,32.077L2.028,31.899L2.018,31.72L2.01,31.541L2.005,31.361L2.001,31.181L2,31L2.001,30.819L2.005,30.639L2.01,30.459L2.018,30.28L2.028,30.101L2.041,29.923L2.055,29.746L2.072,29.569L2.091,29.393L2.113,29.218L2.136,29.043L2.161,28.869L2.189,28.696L2.219,28.523L2.251,28.351L2.285,28.18L2.321,28.01L2.359,27.84L2.399,27.671L2.441,27.503L2.485,27.336L2.531,27.169L2.58,27.004L2.63,26.839L2.682,26.675L2.736,26.512L2.792,26.35L2.85,26.188L2.91,26.028L2.972,25.869L3.035,25.71L3.101,25.553L3.168,25.396L3.238,25.241L3.309,25.086L3.381,24.933L3.456,24.78L3.533,24.629L3.611,24.478L3.691,24.329L3.772,24.181L3.856,24.034L3.941,23.888L4.028,23.743L4.117,23.599L4.207,23.456L4.299,23.315L4.392,23.175L4.488,23.036L4.584,22.898L4.683,22.761L4.783,22.626L4.884,22.492L4.988,22.359L5.092,22.227L5.199,22.097L5.306,21.968L5.416,21.84L5.526,21.714L5.639,21.589L5.753,21.465L5.868,21.343L5.984,21.222L6.102,21.102L6.222,20.984L6.343,20.868L6.465,20.753L6.589,20.639L6.714,20.526L6.84,20.416L6.968,20.306L7.097,20.199L7.227,20.092L7.359,19.988L7.492,19.884L7.626,19.783L7.761,19.683L7.898,19.584L8.036,19.488L8.175,19.392L8.315,19.299L8.456,19.207L8.599,19.117L8.743,19.028L8.888,18.941L9.034,18.856L9.181,18.772L9.329,18.691L9.478,18.611L9.629,18.533L9.78,18.456L9.933,18.381L10.086,18.309L10.241,18.238L10.396,18.168L10.553,18.101L10.71,18.035L10.869,17.972L11.028,17.91L11.188,17.85L11.35,17.792L11.512,17.736L11.675,17.682L11.839,17.63L12.004,17.58L12.169,17.531L12.336,17.485L12.503,17.441L12.671,17.399L12.84,17.359L13.01,17.321L13.18,17.285L13.351,17.251L13.523,17.219L13.696,17.189L13.869,17.161L14.043,17.136L14.218,17.113L14.393,17.091L14.569,17.072L14.746,17.055L14.923,17.041L15.101,17.028L15.28,17.018L15.459,17.01L15.639,17.005L15.819,17.001L16,17L16.181,17.001ZM15.845,19.001L15.69,19.004L15.535,19.009L15.381,19.016L15.228,19.024L15.075,19.035L14.923,19.048L14.772,19.062L14.621,19.078L14.47,19.097L14.321,19.117L14.172,19.138L14.023,19.162L13.875,19.188L13.728,19.215L13.581,19.244L13.435,19.275L13.29,19.307L13.146,19.342L13.002,19.378L12.859,19.416L12.716,19.455L12.574,19.497L12.433,19.539L12.293,19.584L12.153,19.63L12.015,19.678L11.877,19.728L11.739,19.779L11.603,19.832L11.467,19.887L11.332,19.943L11.198,20L11.065,20.06L10.933,20.121L10.801,20.183L10.671,20.247L10.541,20.312L10.412,20.379L10.284,20.448L10.157,20.518L10.031,20.59L9.906,20.663L9.782,20.737L9.658,20.813L9.536,20.89L9.415,20.969L9.295,21.049L9.175,21.131L9.057,21.214L8.94,21.299L8.824,21.384L8.709,21.472L8.595,21.56L8.482,21.65L8.37,21.741L8.259,21.834L8.15,21.927L8.041,22.022L7.934,22.119L7.828,22.216L7.723,22.315L7.619,22.415L7.517,22.517L7.415,22.619L7.315,22.723L7.216,22.828L7.119,22.934L7.022,23.041L6.927,23.15L6.834,23.259L6.741,23.37L6.65,23.482L6.56,23.595L6.472,23.709L6.384,23.824L6.299,23.94L6.214,24.057L6.131,24.175L6.049,24.295L5.969,24.415L5.89,24.536L5.813,24.658L5.737,24.782L5.663,24.906L5.59,25.031L5.518,25.157L5.448,25.284L5.379,25.412L5.312,25.541L5.247,25.671L5.183,25.801L5.121,25.933L5.06,26.065L5,26.198L4.943,26.332L4.887,26.467L4.832,26.603L4.779,26.739L4.728,26.877L4.678,27.015L4.63,27.153L4.584,27.293L4.54,27.433L4.497,27.574L4.455,27.716L4.416,27.859L4.378,28.002L4.342,28.146L4.307,28.29L4.275,28.435L4.244,28.581L4.215,28.728L4.188,28.875L4.162,29.023L4.138,29.172L4.117,29.321L4.097,29.47L4.078,29.621L4.062,29.772L4.048,29.923L4.035,30.075L4.024,30.228L4.016,30.381L4.009,30.535L4.004,30.69L4.001,30.845L4,31L4.001,31.155L4.004,31.31L4.009,31.465L4.016,31.619L4.024,31.772L4.035,31.925L4.048,32.077L4.062,32.228L4.078,32.379L4.097,32.53L4.117,32.679L4.138,32.828L4.162,32.977L4.188,33.125L4.215,33.272L4.244,33.419L4.275,33.565L4.307,33.71L4.342,33.854L4.378,33.998L4.416,34.141L4.455,34.284L4.497,34.426L4.54,34.567L4.584,34.707L4.63,34.847L4.678,34.985L4.728,35.123L4.779,35.261L4.832,35.397L4.887,35.533L4.943,35.668L5,35.802L5.06,35.935L5.121,36.067L5.183,36.199L5.247,36.329L5.312,36.459L5.379,36.588L5.448,36.716L5.518,36.843L5.59,36.969L5.663,37.094L5.737,37.218L5.813,37.342L5.89,37.464L5.969,37.585L6.049,37.705L6.131,37.825L6.214,37.943L6.299,38.06L6.384,38.176L6.472,38.291L6.56,38.405L6.65,38.518L6.741,38.63L6.834,38.741L6.927,38.85L7.022,38.959L7.119,39.066L7.216,39.172L7.315,39.277L7.415,39.381L7.517,39.483L7.619,39.585L7.723,39.685L7.828,39.784L7.934,39.881L8.041,39.978L8.15,40.073L8.259,40.166L8.37,40.259L8.482,40.35L8.595,40.44L8.709,40.528L8.824,40.616L8.94,40.701L9.057,40.786L9.175,40.869L9.295,40.951L9.415,41.031L9.536,41.11L9.658,41.187L9.782,41.263L9.906,41.337L10.031,41.41L10.157,41.482L10.284,41.552L10.412,41.621L10.541,41.688L10.671,41.753L10.801,41.817L10.933,41.879L11.065,41.94L11.198,42L11.332,42.057L11.467,42.113L11.603,42.168L11.739,42.221L11.877,42.272L12.015,42.322L12.153,42.37L12.293,42.416L12.433,42.461L12.574,42.503L12.716,42.545L12.859,42.584L13.002,42.622L13.146,42.658L13.29,42.693L13.435,42.725L13.581,42.756L13.728,42.785L13.875,42.812L14.023,42.838L14.172,42.862L14.321,42.883L14.47,42.903L14.621,42.922L14.772,42.938L14.923,42.952L15.075,42.965L15.228,42.976L15.381,42.984L15.535,42.991L15.69,42.996L15.845,42.999L16,43L16.155,42.999L16.31,42.996L16.465,42.991L16.619,42.984L16.772,42.976L16.925,42.965L17.077,42.952L17.228,42.938L17.379,42.922L17.53,42.903L17.679,42.883L17.828,42.862L17.977,42.838L18.125,42.812L18.272,42.785L18.419,42.756L18.565,42.725L18.71,42.693L18.854,42.658L18.998,42.622L19.141,42.584L19.284,42.545L19.426,42.503L19.567,42.461L19.707,42.416L19.847,42.37L19.985,42.322L20.123,42.272L20.261,42.221L20.397,42.168L20.533,42.113L20.668,42.057L20.802,42L20.935,41.94L21.067,41.879L21.199,41.817L21.329,41.753L21.459,41.688L21.588,41.621L21.716,41.552L21.843,41.482L21.969,41.41L22.094,41.337L22.218,41.263L22.342,41.187L22.464,41.11L22.585,41.031L22.705,40.951L22.825,40.869L22.943,40.786L23.06,40.701L23.176,40.616L23.291,40.528L23.405,40.44L23.518,40.35L23.63,40.259L23.741,40.166L23.85,40.073L23.959,39.978L24.066,39.881L24.172,39.784L24.277,39.685L24.381,39.585L24.483,39.483L24.585,39.381L24.685,39.277L24.784,39.172L24.881,39.066L24.978,38.959L25.073,38.85L25.166,38.741L25.259,38.63L25.35,38.518L25.44,38.405L25.528,38.291L25.616,38.176L25.701,38.06L25.786,37.943L25.869,37.825L25.951,37.705L26.031,37.585L26.11,37.464L26.187,37.342L26.263,37.218L26.337,37.094L26.41,36.969L26.482,36.843L26.552,36.716L26.621,36.588L26.688,36.459L26.753,36.329L26.817,36.199L26.879,36.067L26.94,35.935L27,35.802L27.057,35.668L27.113,35.533L27.168,35.397L27.221,35.261L27.272,35.123L27.322,34.985L27.37,34.847L27.416,34.707L27.46,34.567L27.503,34.426L27.545,34.284L27.584,34.141L27.622,33.998L27.658,33.854L27.693,33.71L27.725,33.565L27.756,33.419L27.785,33.272L27.812,33.125L27.838,32.977L27.862,32.828L27.883,32.679L27.903,32.53L27.922,32.379L27.938,32.228L27.952,32.077L27.965,31.925L27.976,31.772L27.984,31.619L27.991,31.465L27.996,31.31L27.999,31.155L28,31L27.999,30.845L27.996,30.69L27.991,30.535L27.984,30.381L27.976,30.228L27.965,30.075L27.952,29.923L27.938,29.772L27.922,29.621L27.903,29.47L27.883,29.321L27.862,29.172L27.838,29.023L27.812,28.875L27.785,28.728L27.756,28.581L27.725,28.435L27.693,28.29L27.658,28.146L27.622,28.002L27.584,27.859L27.545,27.716L27.503,27.574L27.46,27.433L27.416,27.293L27.37,27.153L27.322,27.015L27.272,26.877L27.221,26.739L27.168,26.603L27.113,26.467L27.057,26.332L27,26.198L26.94,26.065L26.879,25.933L26.817,25.801L26.753,25.671L26.688,25.541L26.621,25.412L26.552,25.284L26.482,25.157L26.41,25.031L26.337,24.906L26.263,24.782L26.187,24.658L26.11,24.536L26.031,24.415L25.951,24.295L25.869,24.175L25.786,24.057L25.701,23.94L25.616,23.824L25.528,23.709L25.44,23.595L25.35,23.482L25.259,23.37L25.166,23.259L25.073,23.15L24.978,23.041L24.881,22.934L24.784,22.828L24.685,22.723L24.585,22.619L24.483,22.517L24.381,22.415L24.277,22.315L24.172,22.216L24.066,22.119L23.959,22.022L23.85,21.927L23.741,21.834L23.63,21.741L23.518,21.65L23.405,21.56L23.291,21.472L23.176,21.384L23.06,21.299L22.943,21.214L22.825,21.131L22.705,21.049L22.585,20.969L22.464,20.89L22.342,20.813L22.218,20.737L22.094,20.663L21.969,20.59L21.843,20.518L21.716,20.448L21.588,20.379L21.459,20.312L21.329,20.247L21.199,20.183L21.067,20.121L20.935,20.06L20.802,20L20.668,19.943L20.533,19.887L20.397,19.832L20.261,19.779L20.123,19.728L19.985,19.678L19.847,19.63L19.707,19.584L19.567,19.539L19.426,19.497L19.284,19.455L19.141,19.416L18.998,19.378L18.854,19.342L18.71,19.307L18.565,19.275L18.419,19.244L18.272,19.215L18.125,19.188L17.977,19.162L17.828,19.138L17.679,19.117L17.53,19.097L17.379,19.078L17.228,19.062L17.077,19.048L16.925,19.035L16.772,19.024L16.619,19.016L16.465,19.009L16.31,19.004L16.155,19.001L16,19L15.845,19.001Z"/>
        </g>
    </g>
</svg>
