<?xml version="1.0" encoding="UTF-8" standalone="no"?>
<!DOCTYPE svg PUBLIC "-//W3C//DTD SVG 1.1//EN" "http://www.w3.org/Graphics/SVG/1.1/DTD/svg11.dtd">
<svg width="100%" height="100%" viewBox="0 0 32 32" version="1.1" xmlns="http://www.w3.org/2000/svg" xmlns:xlink="http://www.w3.org/1999/xlink" xml:space="preserve" xmlns:serif="http://www.serif.com/" style="fill-rule:evenodd;clip-rule:evenodd;stroke-linejoin:round;stroke-miterlimit:1.41421;">
    <g id="Main">
        <path d="M32,26L0,26L0,6L32,6L32,26ZM2,8L2,24L30,24L30,8L2,8Z"/>
        <path d="M11,18L5,18L5,6L11,6L11,18ZM7,8L7,16L9,16L9,8L7,8Z"/>
        <path d="M19,18L13,18L13,6L19,6L19,18ZM15,8L15,16L17,16L17,8L15,8Z"/>
        <path d="M27,18L21,18L21,6L27,6L27,18ZM23,8L23,16L25,16L25,8L23,8Z"/>
        <rect x="7" y="18" width="2" height="6.5"/>
        <rect x="15" y="18" width="2" height="6.5"/>
        <rect x="23" y="18" width="2" height="6.5"/>
    </g>
</svg>
