<?xml version="1.0" encoding="UTF-8" standalone="no"?>
<!DOCTYPE svg PUBLIC "-//W3C//DTD SVG 1.1//EN" "http://www.w3.org/Graphics/SVG/1.1/DTD/svg11.dtd">
<svg width="100%" height="100%" viewBox="0 0 32 32" version="1.1" xmlns="http://www.w3.org/2000/svg" xmlns:xlink="http://www.w3.org/1999/xlink" xml:space="preserve" xmlns:serif="http://www.serif.com/" style="fill-rule:evenodd;clip-rule:evenodd;stroke-linejoin:round;stroke-miterlimit:1.41421;">
    <g id="Main">
        <clipPath id="_clip1">
            <path d="M13,2L13,16L19,16L19,2L30,2L30,30L2,30L2,2L13,2Z"/>
        </clipPath>
        <g clip-path="url(#_clip1)">
            <path d="M16.181,2.001L16.361,2.005L16.541,2.01L16.72,2.018L16.899,2.028L17.077,2.041L17.254,2.055L17.431,2.072L17.607,2.091L17.782,2.113L17.957,2.136L18.131,2.161L18.304,2.189L18.477,2.219L18.649,2.251L18.82,2.285L18.99,2.321L19.16,2.359L19.329,2.399L19.497,2.441L19.664,2.485L19.831,2.531L19.996,2.58L20.161,2.63L20.325,2.682L20.488,2.736L20.65,2.792L20.812,2.85L20.972,2.91L21.131,2.972L21.29,3.035L21.447,3.101L21.604,3.168L21.759,3.238L21.914,3.309L22.067,3.381L22.22,3.456L22.371,3.533L22.522,3.611L22.671,3.691L22.819,3.772L22.966,3.856L23.112,3.941L23.257,4.028L23.401,4.117L23.544,4.207L23.685,4.299L23.825,4.392L23.964,4.488L24.102,4.584L24.239,4.683L24.374,4.783L24.508,4.884L24.641,4.988L24.773,5.092L24.903,5.199L25.032,5.306L25.16,5.416L25.286,5.526L25.411,5.639L25.535,5.753L25.657,5.868L25.778,5.984L25.898,6.102L26.016,6.222L26.132,6.343L26.247,6.465L26.361,6.589L26.474,6.714L26.584,6.84L26.694,6.968L26.801,7.097L26.908,7.227L27.012,7.359L27.116,7.492L27.217,7.626L27.317,7.761L27.416,7.898L27.512,8.036L27.608,8.175L27.701,8.315L27.793,8.456L27.883,8.599L27.972,8.743L28.059,8.888L28.144,9.034L28.228,9.181L28.309,9.329L28.389,9.478L28.467,9.629L28.544,9.78L28.619,9.933L28.691,10.086L28.762,10.241L28.832,10.396L28.899,10.553L28.965,10.71L29.028,10.869L29.09,11.028L29.15,11.188L29.208,11.35L29.264,11.512L29.318,11.675L29.37,11.839L29.42,12.004L29.469,12.169L29.515,12.336L29.559,12.503L29.601,12.671L29.641,12.84L29.679,13.01L29.715,13.18L29.749,13.351L29.781,13.523L29.811,13.696L29.839,13.869L29.864,14.043L29.887,14.218L29.909,14.393L29.928,14.569L29.945,14.746L29.959,14.923L29.972,15.101L29.982,15.28L29.99,15.459L29.995,15.639L29.999,15.819L30,16L29.999,16.181L29.995,16.361L29.99,16.541L29.982,16.72L29.972,16.899L29.959,17.077L29.945,17.254L29.928,17.431L29.909,17.607L29.887,17.782L29.864,17.957L29.839,18.131L29.811,18.304L29.781,18.477L29.749,18.649L29.715,18.82L29.679,18.99L29.641,19.16L29.601,19.329L29.559,19.497L29.515,19.664L29.469,19.831L29.42,19.996L29.37,20.161L29.318,20.325L29.264,20.488L29.208,20.65L29.15,20.812L29.09,20.972L29.028,21.131L28.965,21.29L28.899,21.447L28.832,21.604L28.762,21.759L28.691,21.914L28.619,22.067L28.544,22.22L28.467,22.371L28.389,22.522L28.309,22.671L28.228,22.819L28.144,22.966L28.059,23.112L27.972,23.257L27.883,23.401L27.793,23.544L27.701,23.685L27.608,23.825L27.512,23.964L27.416,24.102L27.317,24.239L27.217,24.374L27.116,24.508L27.012,24.641L26.908,24.773L26.801,24.903L26.694,25.032L26.584,25.16L26.474,25.286L26.361,25.411L26.247,25.535L26.132,25.657L26.016,25.778L25.898,25.898L25.778,26.016L25.657,26.132L25.535,26.247L25.411,26.361L25.286,26.474L25.16,26.584L25.032,26.694L24.903,26.801L24.773,26.908L24.641,27.012L24.508,27.116L24.374,27.217L24.239,27.317L24.102,27.416L23.964,27.512L23.825,27.608L23.685,27.701L23.544,27.793L23.401,27.883L23.257,27.972L23.112,28.059L22.966,28.144L22.819,28.228L22.671,28.309L22.522,28.389L22.371,28.467L22.22,28.544L22.067,28.619L21.914,28.691L21.759,28.762L21.604,28.832L21.447,28.899L21.29,28.965L21.131,29.028L20.972,29.09L20.812,29.15L20.65,29.208L20.488,29.264L20.325,29.318L20.161,29.37L19.996,29.42L19.831,29.469L19.664,29.515L19.497,29.559L19.329,29.601L19.16,29.641L18.99,29.679L18.82,29.715L18.649,29.749L18.477,29.781L18.304,29.811L18.131,29.839L17.957,29.864L17.782,29.887L17.607,29.909L17.431,29.928L17.254,29.945L17.077,29.959L16.899,29.972L16.72,29.982L16.541,29.99L16.361,29.995L16.181,29.999L16,30L15.819,29.999L15.639,29.995L15.459,29.99L15.28,29.982L15.101,29.972L14.923,29.959L14.746,29.945L14.569,29.928L14.393,29.909L14.218,29.887L14.043,29.864L13.869,29.839L13.696,29.811L13.523,29.781L13.351,29.749L13.18,29.715L13.01,29.679L12.84,29.641L12.671,29.601L12.503,29.559L12.336,29.515L12.169,29.469L12.004,29.42L11.839,29.37L11.675,29.318L11.512,29.264L11.35,29.208L11.188,29.15L11.028,29.09L10.869,29.028L10.71,28.965L10.553,28.899L10.396,28.832L10.241,28.762L10.086,28.691L9.933,28.619L9.78,28.544L9.629,28.467L9.478,28.389L9.329,28.309L9.181,28.228L9.034,28.144L8.888,28.059L8.743,27.972L8.599,27.883L8.456,27.793L8.315,27.701L8.175,27.608L8.036,27.512L7.898,27.416L7.761,27.317L7.626,27.217L7.492,27.116L7.359,27.012L7.227,26.908L7.097,26.801L6.968,26.694L6.84,26.584L6.714,26.474L6.589,26.361L6.465,26.247L6.343,26.132L6.222,26.016L6.102,25.898L5.984,25.778L5.868,25.657L5.753,25.535L5.639,25.411L5.526,25.286L5.416,25.16L5.306,25.032L5.199,24.903L5.092,24.773L4.988,24.641L4.884,24.508L4.783,24.374L4.683,24.239L4.584,24.102L4.488,23.964L4.392,23.825L4.299,23.685L4.207,23.544L4.117,23.401L4.028,23.257L3.941,23.112L3.856,22.966L3.772,22.819L3.691,22.671L3.611,22.522L3.533,22.371L3.456,22.22L3.381,22.067L3.309,21.914L3.238,21.759L3.168,21.604L3.101,21.447L3.035,21.29L2.972,21.131L2.91,20.972L2.85,20.812L2.792,20.65L2.736,20.488L2.682,20.325L2.63,20.161L2.58,19.996L2.531,19.831L2.485,19.664L2.441,19.497L2.399,19.329L2.359,19.16L2.321,18.99L2.285,18.82L2.251,18.649L2.219,18.477L2.189,18.304L2.161,18.131L2.136,17.957L2.113,17.782L2.091,17.607L2.072,17.431L2.055,17.254L2.041,17.077L2.028,16.899L2.018,16.72L2.01,16.541L2.005,16.361L2.001,16.181L2,16L2.001,15.819L2.005,15.639L2.01,15.459L2.018,15.28L2.028,15.101L2.041,14.923L2.055,14.746L2.072,14.569L2.091,14.393L2.113,14.218L2.136,14.043L2.161,13.869L2.189,13.696L2.219,13.523L2.251,13.351L2.285,13.18L2.321,13.01L2.359,12.84L2.399,12.671L2.441,12.503L2.485,12.336L2.531,12.169L2.58,12.004L2.63,11.839L2.682,11.675L2.736,11.512L2.792,11.35L2.85,11.188L2.91,11.028L2.972,10.869L3.035,10.71L3.101,10.553L3.168,10.396L3.238,10.241L3.309,10.086L3.381,9.933L3.456,9.78L3.533,9.629L3.611,9.478L3.691,9.329L3.772,9.181L3.856,9.034L3.941,8.888L4.028,8.743L4.117,8.599L4.207,8.456L4.299,8.315L4.392,8.175L4.488,8.036L4.584,7.898L4.683,7.761L4.783,7.626L4.884,7.492L4.988,7.359L5.092,7.227L5.199,7.097L5.306,6.968L5.416,6.84L5.526,6.714L5.639,6.589L5.753,6.465L5.868,6.343L5.984,6.222L6.102,6.102L6.222,5.984L6.343,5.868L6.465,5.753L6.589,5.639L6.714,5.526L6.84,5.416L6.968,5.306L7.097,5.199L7.227,5.092L7.359,4.988L7.492,4.884L7.626,4.783L7.761,4.683L7.898,4.584L8.036,4.488L8.175,4.392L8.315,4.299L8.456,4.207L8.599,4.117L8.743,4.028L8.888,3.941L9.034,3.856L9.181,3.772L9.329,3.691L9.478,3.611L9.629,3.533L9.78,3.456L9.933,3.381L10.086,3.309L10.241,3.238L10.396,3.168L10.553,3.101L10.71,3.035L10.869,2.972L11.028,2.91L11.188,2.85L11.35,2.792L11.512,2.736L11.675,2.682L11.839,2.63L12.004,2.58L12.169,2.531L12.336,2.485L12.503,2.441L12.671,2.399L12.84,2.359L13.01,2.321L13.18,2.285L13.351,2.251L13.523,2.219L13.696,2.189L13.869,2.161L14.043,2.136L14.218,2.113L14.393,2.091L14.569,2.072L14.746,2.055L14.923,2.041L15.101,2.028L15.28,2.018L15.459,2.01L15.639,2.005L15.819,2.001L16,2L16.181,2.001ZM15.845,4.001L15.69,4.004L15.535,4.009L15.381,4.016L15.228,4.024L15.075,4.035L14.923,4.048L14.772,4.062L14.621,4.078L14.47,4.097L14.321,4.117L14.172,4.138L14.023,4.162L13.875,4.188L13.728,4.215L13.581,4.244L13.435,4.275L13.29,4.307L13.146,4.342L13.002,4.378L12.859,4.416L12.716,4.455L12.574,4.497L12.433,4.54L12.293,4.584L12.153,4.63L12.015,4.678L11.877,4.728L11.739,4.779L11.603,4.832L11.467,4.887L11.332,4.943L11.198,5L11.065,5.06L10.933,5.121L10.801,5.183L10.671,5.247L10.541,5.312L10.412,5.379L10.284,5.448L10.157,5.518L10.031,5.59L9.906,5.663L9.782,5.737L9.658,5.813L9.536,5.89L9.415,5.969L9.295,6.049L9.175,6.131L9.057,6.214L8.94,6.299L8.824,6.384L8.709,6.472L8.595,6.56L8.482,6.65L8.37,6.741L8.259,6.834L8.15,6.927L8.041,7.022L7.934,7.119L7.828,7.216L7.723,7.315L7.619,7.415L7.517,7.517L7.415,7.619L7.315,7.723L7.216,7.828L7.119,7.934L7.022,8.041L6.927,8.15L6.834,8.259L6.741,8.37L6.65,8.482L6.56,8.595L6.472,8.709L6.384,8.824L6.299,8.94L6.214,9.057L6.131,9.175L6.049,9.295L5.969,9.415L5.89,9.536L5.813,9.658L5.737,9.782L5.663,9.906L5.59,10.031L5.518,10.157L5.448,10.284L5.379,10.412L5.312,10.541L5.247,10.671L5.183,10.801L5.121,10.933L5.06,11.065L5,11.198L4.943,11.332L4.887,11.467L4.832,11.603L4.779,11.739L4.728,11.877L4.678,12.015L4.63,12.153L4.584,12.293L4.54,12.433L4.497,12.574L4.455,12.716L4.416,12.859L4.378,13.002L4.342,13.146L4.307,13.29L4.275,13.435L4.244,13.581L4.215,13.728L4.188,13.875L4.162,14.023L4.138,14.172L4.117,14.321L4.097,14.47L4.078,14.621L4.062,14.772L4.048,14.923L4.035,15.075L4.024,15.228L4.016,15.381L4.009,15.535L4.004,15.69L4.001,15.845L4,16L4.001,16.155L4.004,16.31L4.009,16.465L4.016,16.619L4.024,16.772L4.035,16.925L4.048,17.077L4.062,17.228L4.078,17.379L4.097,17.53L4.117,17.679L4.138,17.828L4.162,17.977L4.188,18.125L4.215,18.272L4.244,18.419L4.275,18.565L4.307,18.71L4.342,18.854L4.378,18.998L4.416,19.141L4.455,19.284L4.497,19.426L4.539,19.567L4.584,19.707L4.63,19.847L4.678,19.985L4.728,20.123L4.779,20.261L4.832,20.397L4.887,20.533L4.943,20.668L5,20.802L5.06,20.935L5.121,21.067L5.183,21.199L5.247,21.329L5.312,21.459L5.379,21.588L5.448,21.716L5.518,21.843L5.59,21.969L5.663,22.094L5.737,22.218L5.813,22.342L5.89,22.464L5.969,22.585L6.049,22.705L6.131,22.825L6.214,22.943L6.299,23.06L6.384,23.176L6.472,23.291L6.56,23.405L6.65,23.518L6.741,23.63L6.834,23.741L6.927,23.85L7.022,23.959L7.119,24.066L7.216,24.172L7.315,24.277L7.415,24.381L7.517,24.483L7.619,24.585L7.723,24.685L7.828,24.784L7.934,24.881L8.041,24.978L8.15,25.073L8.259,25.166L8.37,25.259L8.482,25.35L8.595,25.44L8.709,25.528L8.824,25.616L8.94,25.701L9.057,25.786L9.175,25.869L9.295,25.951L9.415,26.031L9.536,26.11L9.658,26.187L9.782,26.263L9.906,26.337L10.031,26.41L10.157,26.482L10.284,26.552L10.412,26.621L10.541,26.688L10.671,26.753L10.801,26.817L10.933,26.879L11.065,26.94L11.198,27L11.332,27.057L11.467,27.113L11.603,27.168L11.739,27.221L11.877,27.272L12.015,27.322L12.153,27.37L12.293,27.416L12.433,27.46L12.574,27.503L12.716,27.545L12.859,27.584L13.002,27.622L13.146,27.658L13.29,27.693L13.435,27.725L13.581,27.756L13.728,27.785L13.875,27.812L14.023,27.838L14.172,27.862L14.321,27.883L14.47,27.903L14.621,27.922L14.772,27.938L14.923,27.952L15.075,27.965L15.228,27.976L15.381,27.984L15.535,27.991L15.69,27.996L15.845,27.999L16,28L16.155,27.999L16.31,27.996L16.465,27.991L16.619,27.984L16.772,27.976L16.925,27.965L17.077,27.952L17.228,27.938L17.379,27.922L17.53,27.903L17.679,27.883L17.828,27.862L17.977,27.838L18.125,27.812L18.272,27.785L18.419,27.756L18.565,27.725L18.71,27.693L18.854,27.658L18.998,27.622L19.141,27.584L19.284,27.545L19.426,27.503L19.567,27.46L19.707,27.416L19.847,27.37L19.985,27.322L20.123,27.272L20.261,27.221L20.397,27.168L20.533,27.113L20.668,27.057L20.802,27L20.935,26.94L21.067,26.879L21.199,26.817L21.329,26.753L21.459,26.688L21.588,26.621L21.716,26.552L21.843,26.482L21.969,26.41L22.094,26.337L22.218,26.263L22.342,26.187L22.464,26.11L22.585,26.031L22.705,25.951L22.825,25.869L22.943,25.786L23.06,25.701L23.176,25.616L23.291,25.528L23.405,25.44L23.518,25.35L23.63,25.259L23.741,25.166L23.85,25.073L23.959,24.978L24.066,24.881L24.172,24.784L24.277,24.685L24.381,24.585L24.483,24.483L24.585,24.381L24.685,24.277L24.784,24.172L24.881,24.066L24.978,23.959L25.073,23.85L25.166,23.741L25.259,23.63L25.35,23.518L25.44,23.405L25.528,23.291L25.616,23.176L25.701,23.06L25.786,22.943L25.869,22.825L25.951,22.705L26.031,22.585L26.11,22.464L26.187,22.342L26.263,22.218L26.337,22.094L26.41,21.969L26.482,21.843L26.552,21.716L26.621,21.588L26.688,21.459L26.753,21.329L26.817,21.199L26.879,21.067L26.94,20.935L27,20.802L27.057,20.668L27.113,20.533L27.168,20.397L27.221,20.261L27.272,20.123L27.322,19.985L27.37,19.847L27.416,19.707L27.46,19.567L27.503,19.426L27.545,19.284L27.584,19.141L27.622,18.998L27.658,18.854L27.693,18.71L27.725,18.565L27.756,18.419L27.785,18.272L27.812,18.125L27.838,17.977L27.862,17.828L27.883,17.679L27.903,17.53L27.922,17.379L27.938,17.228L27.952,17.077L27.965,16.925L27.976,16.772L27.984,16.619L27.991,16.465L27.996,16.31L27.999,16.155L28,16L27.999,15.845L27.996,15.69L27.991,15.535L27.984,15.381L27.976,15.228L27.965,15.075L27.952,14.923L27.938,14.772L27.922,14.621L27.903,14.47L27.883,14.321L27.862,14.172L27.838,14.023L27.812,13.875L27.785,13.728L27.756,13.581L27.725,13.435L27.693,13.29L27.658,13.146L27.622,13.002L27.584,12.859L27.545,12.716L27.503,12.574L27.46,12.433L27.416,12.293L27.37,12.153L27.322,12.015L27.272,11.877L27.221,11.739L27.168,11.603L27.113,11.467L27.057,11.332L27,11.198L26.94,11.065L26.879,10.933L26.817,10.801L26.753,10.671L26.688,10.541L26.621,10.412L26.552,10.284L26.482,10.157L26.41,10.031L26.337,9.906L26.263,9.782L26.187,9.658L26.11,9.536L26.031,9.415L25.951,9.295L25.869,9.175L25.786,9.057L25.701,8.94L25.616,8.824L25.528,8.709L25.44,8.595L25.35,8.482L25.259,8.37L25.166,8.259L25.073,8.15L24.978,8.041L24.881,7.934L24.784,7.828L24.685,7.723L24.585,7.619L24.483,7.517L24.381,7.415L24.277,7.315L24.172,7.216L24.066,7.119L23.959,7.022L23.85,6.927L23.741,6.834L23.63,6.741L23.518,6.65L23.405,6.56L23.291,6.472L23.176,6.384L23.06,6.299L22.943,6.214L22.825,6.131L22.705,6.049L22.585,5.969L22.464,5.89L22.342,5.813L22.218,5.737L22.094,5.663L21.969,5.59L21.843,5.518L21.716,5.448L21.588,5.379L21.459,5.312L21.329,5.247L21.199,5.183L21.067,5.121L20.935,5.06L20.802,5L20.668,4.943L20.533,4.887L20.397,4.832L20.261,4.779L20.123,4.728L19.985,4.678L19.847,4.63L19.707,4.584L19.567,4.539L19.426,4.497L19.284,4.455L19.141,4.416L18.998,4.378L18.854,4.342L18.71,4.307L18.565,4.275L18.419,4.244L18.272,4.215L18.125,4.188L17.977,4.162L17.828,4.138L17.679,4.117L17.53,4.097L17.379,4.078L17.228,4.062L17.077,4.048L16.925,4.035L16.772,4.024L16.619,4.016L16.465,4.009L16.31,4.004L16.155,4.001L16,4L15.845,4.001Z"/>
        </g>
        <rect x="15" y="0" width="2" height="16"/>
    </g>
</svg>
