<?xml version="1.0" encoding="UTF-8" standalone="no"?>
<!DOCTYPE svg PUBLIC "-//W3C//DTD SVG 1.1//EN" "http://www.w3.org/Graphics/SVG/1.1/DTD/svg11.dtd">
<svg width="100%" height="100%" viewBox="0 0 32 32" version="1.1" xmlns="http://www.w3.org/2000/svg" xmlns:xlink="http://www.w3.org/1999/xlink" xml:space="preserve" xmlns:serif="http://www.serif.com/" style="fill-rule:evenodd;clip-rule:evenodd;stroke-linejoin:round;stroke-miterlimit:1.41421;">
    <g id="Main">
        <path d="M16.207,0.001L16.413,0.005L16.618,0.012L16.823,0.021L17.027,0.032L17.23,0.047L17.433,0.063L17.635,0.083L17.836,0.104L18.037,0.129L18.236,0.155L18.435,0.184L18.633,0.216L18.831,0.25L19.027,0.287L19.223,0.325L19.418,0.366L19.612,0.41L19.805,0.456L19.997,0.504L20.188,0.555L20.378,0.607L20.567,0.662L20.756,0.72L20.943,0.779L21.129,0.841L21.315,0.905L21.499,0.972L21.682,1.04L21.864,1.111L22.045,1.183L22.225,1.258L22.404,1.335L22.582,1.414L22.759,1.496L22.934,1.579L23.108,1.664L23.281,1.751L23.453,1.841L23.624,1.932L23.793,2.026L23.961,2.121L24.128,2.218L24.294,2.318L24.458,2.419L24.621,2.522L24.783,2.627L24.943,2.734L25.102,2.843L25.26,2.954L25.416,3.066L25.571,3.18L25.724,3.296L25.876,3.414L26.026,3.534L26.175,3.656L26.322,3.779L26.468,3.904L26.613,4.03L26.756,4.159L26.897,4.289L27.037,4.42L27.175,4.554L27.311,4.689L27.446,4.825L27.58,4.963L27.711,5.103L27.841,5.244L27.97,5.387L28.096,5.532L28.221,5.678L28.344,5.825L28.466,5.974L28.586,6.124L28.704,6.276L28.82,6.429L28.934,6.584L29.046,6.74L29.157,6.898L29.266,7.057L29.373,7.217L29.478,7.379L29.581,7.542L29.682,7.706L29.782,7.872L29.879,8.039L29.974,8.207L30.068,8.376L30.159,8.547L30.249,8.719L30.336,8.892L30.421,9.066L30.504,9.241L30.586,9.418L30.665,9.596L30.742,9.775L30.817,9.955L30.889,10.136L30.96,10.318L31.028,10.501L31.095,10.685L31.159,10.871L31.221,11.057L31.28,11.244L31.338,11.433L31.393,11.622L31.445,11.812L31.496,12.003L31.544,12.195L31.59,12.388L31.634,12.582L31.675,12.777L31.713,12.973L31.75,13.169L31.784,13.367L31.816,13.565L31.845,13.764L31.871,13.963L31.896,14.164L31.917,14.365L31.937,14.567L31.953,14.77L31.968,14.973L31.979,15.177L31.988,15.382L31.995,15.587L31.999,15.793L32,16L31.999,16.207L31.995,16.413L31.988,16.618L31.979,16.823L31.968,17.027L31.953,17.23L31.937,17.433L31.917,17.635L31.896,17.836L31.871,18.037L31.845,18.236L31.816,18.435L31.784,18.633L31.75,18.831L31.713,19.027L31.675,19.223L31.634,19.418L31.59,19.612L31.544,19.805L31.496,19.997L31.445,20.188L31.393,20.378L31.338,20.567L31.28,20.756L31.221,20.943L31.159,21.129L31.095,21.315L31.028,21.499L30.96,21.682L30.889,21.864L30.817,22.045L30.742,22.225L30.665,22.404L30.586,22.582L30.504,22.759L30.421,22.934L30.336,23.108L30.249,23.281L30.159,23.453L30.068,23.624L29.974,23.793L29.879,23.961L29.782,24.128L29.682,24.294L29.581,24.458L29.478,24.621L29.373,24.783L29.266,24.943L29.157,25.102L29.046,25.26L28.934,25.416L28.82,25.571L28.704,25.724L28.586,25.876L28.466,26.026L28.344,26.175L28.221,26.322L28.096,26.468L27.97,26.613L27.841,26.756L27.711,26.897L27.58,27.037L27.446,27.175L27.311,27.311L27.175,27.446L27.037,27.58L26.897,27.711L26.756,27.841L26.613,27.97L26.468,28.096L26.322,28.221L26.175,28.344L26.026,28.466L25.876,28.586L25.724,28.704L25.571,28.82L25.416,28.934L25.26,29.046L25.102,29.157L24.943,29.266L24.783,29.373L24.621,29.478L24.458,29.581L24.294,29.682L24.128,29.782L23.961,29.879L23.793,29.974L23.624,30.068L23.453,30.159L23.281,30.249L23.108,30.336L22.934,30.421L22.759,30.504L22.582,30.586L22.404,30.665L22.225,30.742L22.045,30.817L21.864,30.889L21.682,30.96L21.499,31.028L21.315,31.095L21.129,31.159L20.943,31.221L20.756,31.28L20.567,31.338L20.378,31.393L20.188,31.445L19.997,31.496L19.805,31.544L19.612,31.59L19.418,31.634L19.223,31.675L19.027,31.713L18.831,31.75L18.633,31.784L18.435,31.816L18.236,31.845L18.037,31.871L17.836,31.896L17.635,31.917L17.433,31.937L17.23,31.953L17.027,31.968L16.823,31.979L16.618,31.988L16.413,31.995L16.207,31.999L16,32L15.793,31.999L15.587,31.995L15.382,31.988L15.177,31.979L14.973,31.968L14.77,31.953L14.567,31.937L14.365,31.917L14.164,31.896L13.963,31.871L13.764,31.845L13.565,31.816L13.367,31.784L13.169,31.75L12.973,31.713L12.777,31.675L12.582,31.634L12.388,31.59L12.195,31.544L12.003,31.496L11.812,31.445L11.622,31.393L11.433,31.338L11.244,31.28L11.057,31.221L10.871,31.159L10.685,31.095L10.501,31.028L10.318,30.96L10.136,30.889L9.955,30.817L9.775,30.742L9.596,30.665L9.418,30.586L9.241,30.504L9.066,30.421L8.892,30.336L8.719,30.249L8.547,30.159L8.376,30.068L8.207,29.974L8.039,29.879L7.872,29.782L7.706,29.682L7.542,29.581L7.379,29.478L7.217,29.373L7.057,29.266L6.898,29.157L6.74,29.046L6.584,28.934L6.429,28.82L6.276,28.704L6.124,28.586L5.974,28.466L5.825,28.344L5.678,28.221L5.532,28.096L5.387,27.97L5.244,27.841L5.103,27.711L4.963,27.58L4.825,27.446L4.689,27.311L4.554,27.175L4.42,27.037L4.289,26.897L4.159,26.756L4.03,26.613L3.904,26.468L3.779,26.322L3.656,26.175L3.534,26.026L3.414,25.876L3.296,25.724L3.18,25.571L3.066,25.416L2.954,25.26L2.843,25.102L2.734,24.943L2.627,24.783L2.522,24.621L2.419,24.458L2.318,24.294L2.218,24.128L2.121,23.961L2.026,23.793L1.932,23.624L1.841,23.453L1.751,23.281L1.664,23.108L1.579,22.934L1.496,22.759L1.414,22.582L1.335,22.404L1.258,22.225L1.183,22.045L1.111,21.864L1.04,21.682L0.972,21.499L0.905,21.315L0.841,21.129L0.779,20.943L0.72,20.756L0.662,20.567L0.607,20.378L0.555,20.188L0.504,19.997L0.456,19.805L0.41,19.612L0.366,19.418L0.325,19.223L0.287,19.027L0.25,18.831L0.216,18.633L0.184,18.435L0.155,18.236L0.129,18.037L0.104,17.836L0.083,17.635L0.063,17.433L0.047,17.23L0.032,17.027L0.021,16.823L0.012,16.618L0.005,16.413L0.001,16.207L0,16L0.001,15.793L0.005,15.587L0.012,15.382L0.021,15.177L0.032,14.973L0.047,14.77L0.063,14.567L0.083,14.365L0.104,14.164L0.129,13.963L0.155,13.764L0.184,13.565L0.216,13.367L0.25,13.169L0.287,12.973L0.325,12.777L0.366,12.582L0.41,12.388L0.456,12.195L0.504,12.003L0.555,11.812L0.607,11.622L0.662,11.433L0.72,11.244L0.779,11.057L0.841,10.871L0.905,10.685L0.972,10.501L1.04,10.318L1.111,10.136L1.183,9.955L1.258,9.775L1.335,9.596L1.414,9.418L1.496,9.241L1.579,9.066L1.664,8.892L1.751,8.719L1.841,8.547L1.932,8.376L2.026,8.207L2.121,8.039L2.218,7.872L2.318,7.706L2.419,7.542L2.522,7.379L2.627,7.217L2.734,7.057L2.843,6.898L2.954,6.74L3.066,6.584L3.18,6.429L3.296,6.276L3.414,6.124L3.534,5.974L3.656,5.825L3.779,5.678L3.904,5.532L4.03,5.387L4.159,5.244L4.289,5.103L4.42,4.963L4.554,4.825L4.689,4.689L4.825,4.554L4.963,4.42L5.103,4.289L5.244,4.159L5.387,4.03L5.532,3.904L5.678,3.779L5.825,3.656L5.974,3.534L6.124,3.414L6.276,3.296L6.429,3.18L6.584,3.066L6.74,2.954L6.898,2.843L7.057,2.734L7.217,2.627L7.379,2.522L7.542,2.419L7.706,2.318L7.872,2.218L8.039,2.121L8.207,2.026L8.376,1.932L8.547,1.841L8.719,1.751L8.892,1.664L9.066,1.579L9.241,1.496L9.418,1.414L9.596,1.335L9.775,1.258L9.955,1.183L10.136,1.111L10.318,1.04L10.501,0.972L10.685,0.905L10.871,0.841L11.057,0.779L11.244,0.72L11.433,0.662L11.622,0.607L11.812,0.555L12.003,0.504L12.195,0.456L12.388,0.41L12.582,0.366L12.777,0.325L12.973,0.287L13.169,0.25L13.367,0.216L13.565,0.184L13.764,0.155L13.963,0.129L14.164,0.104L14.365,0.083L14.567,0.063L14.77,0.047L14.973,0.032L15.177,0.021L15.382,0.012L15.587,0.005L15.793,0.001L16,0L16.207,0.001ZM15.819,2.001L15.638,2.005L15.458,2.01L15.279,2.018L15.1,2.029L14.922,2.041L14.744,2.056L14.567,2.072L14.391,2.091L14.216,2.113L14.041,2.136L13.867,2.162L13.694,2.189L13.521,2.219L13.35,2.251L13.179,2.285L13.008,2.321L12.839,2.359L12.67,2.399L12.502,2.441L12.335,2.485L12.169,2.531L12.003,2.579L11.839,2.629L11.675,2.682L11.512,2.736L11.35,2.792L11.189,2.849L11.029,2.909L10.87,2.971L10.712,3.035L10.554,3.1L10.398,3.167L10.242,3.237L10.088,3.308L9.935,3.38L9.782,3.455L9.631,3.531L9.48,3.61L9.331,3.69L9.183,3.771L9.036,3.855L8.89,3.94L8.745,4.027L8.601,4.115L8.459,4.206L8.317,4.298L8.177,4.391L8.038,4.486L7.9,4.583L7.763,4.682L7.628,4.782L7.493,4.884L7.36,4.987L7.229,5.092L7.098,5.198L6.969,5.306L6.841,5.415L6.715,5.526L6.59,5.639L6.466,5.752L6.343,5.868L6.222,5.985L6.103,6.103L5.985,6.222L5.868,6.343L5.752,6.466L5.639,6.59L5.526,6.715L5.415,6.841L5.306,6.969L5.198,7.098L5.092,7.229L4.987,7.36L4.884,7.493L4.782,7.628L4.682,7.763L4.583,7.9L4.486,8.038L4.391,8.177L4.298,8.317L4.206,8.459L4.115,8.601L4.027,8.745L3.94,8.89L3.855,9.036L3.771,9.183L3.69,9.331L3.61,9.48L3.531,9.631L3.455,9.782L3.38,9.935L3.308,10.088L3.237,10.242L3.167,10.398L3.1,10.554L3.035,10.712L2.971,10.87L2.909,11.029L2.849,11.189L2.792,11.35L2.736,11.512L2.682,11.675L2.629,11.839L2.579,12.003L2.531,12.169L2.485,12.335L2.441,12.502L2.399,12.67L2.359,12.839L2.321,13.008L2.285,13.179L2.251,13.35L2.219,13.521L2.189,13.694L2.162,13.867L2.136,14.041L2.113,14.216L2.091,14.391L2.072,14.567L2.056,14.744L2.041,14.922L2.029,15.1L2.018,15.279L2.01,15.458L2.005,15.638L2.001,15.819L2,16L2.001,16.181L2.005,16.362L2.01,16.542L2.018,16.721L2.029,16.9L2.041,17.078L2.056,17.256L2.072,17.433L2.091,17.609L2.113,17.784L2.136,17.959L2.162,18.133L2.189,18.306L2.219,18.479L2.251,18.65L2.285,18.821L2.321,18.992L2.359,19.161L2.399,19.33L2.441,19.498L2.485,19.665L2.531,19.831L2.579,19.997L2.629,20.161L2.682,20.325L2.736,20.488L2.792,20.65L2.849,20.811L2.909,20.971L2.971,21.13L3.035,21.288L3.1,21.446L3.167,21.602L3.237,21.758L3.308,21.912L3.38,22.065L3.455,22.218L3.531,22.369L3.61,22.52L3.69,22.669L3.771,22.817L3.855,22.964L3.94,23.11L4.027,23.255L4.115,23.399L4.206,23.541L4.298,23.683L4.391,23.823L4.486,23.962L4.583,24.1L4.682,24.237L4.782,24.372L4.884,24.507L4.987,24.64L5.092,24.771L5.198,24.902L5.306,25.031L5.415,25.159L5.526,25.285L5.639,25.41L5.752,25.534L5.868,25.657L5.985,25.778L6.103,25.897L6.222,26.015L6.343,26.132L6.466,26.248L6.59,26.361L6.715,26.474L6.841,26.585L6.969,26.694L7.098,26.802L7.229,26.908L7.36,27.013L7.493,27.116L7.628,27.218L7.763,27.318L7.9,27.417L8.038,27.514L8.177,27.609L8.317,27.702L8.459,27.794L8.601,27.885L8.745,27.973L8.89,28.06L9.036,28.145L9.183,28.229L9.331,28.31L9.48,28.39L9.631,28.469L9.782,28.545L9.935,28.62L10.088,28.692L10.242,28.763L10.398,28.833L10.554,28.9L10.712,28.965L10.87,29.029L11.029,29.091L11.189,29.151L11.35,29.208L11.512,29.264L11.675,29.318L11.839,29.371L12.003,29.421L12.169,29.469L12.335,29.515L12.502,29.559L12.67,29.601L12.839,29.641L13.008,29.679L13.179,29.715L13.35,29.749L13.521,29.781L13.694,29.811L13.867,29.838L14.041,29.864L14.216,29.887L14.391,29.909L14.567,29.928L14.744,29.944L14.922,29.959L15.1,29.971L15.279,29.982L15.458,29.99L15.638,29.995L15.819,29.999L16,30L16.181,29.999L16.362,29.995L16.542,29.99L16.721,29.982L16.9,29.971L17.078,29.959L17.256,29.944L17.433,29.928L17.609,29.909L17.784,29.887L17.959,29.864L18.133,29.838L18.306,29.811L18.479,29.781L18.65,29.749L18.821,29.715L18.992,29.679L19.161,29.641L19.33,29.601L19.498,29.559L19.665,29.515L19.831,29.469L19.997,29.421L20.161,29.371L20.325,29.318L20.488,29.264L20.65,29.208L20.811,29.151L20.971,29.091L21.13,29.029L21.288,28.965L21.446,28.9L21.602,28.833L21.758,28.763L21.912,28.692L22.065,28.62L22.218,28.545L22.369,28.469L22.52,28.39L22.669,28.31L22.817,28.229L22.964,28.145L23.11,28.06L23.255,27.973L23.399,27.885L23.541,27.794L23.683,27.702L23.823,27.609L23.962,27.514L24.1,27.417L24.237,27.318L24.372,27.218L24.507,27.116L24.64,27.013L24.771,26.908L24.902,26.802L25.031,26.694L25.159,26.585L25.285,26.474L25.41,26.361L25.534,26.248L25.657,26.132L25.778,26.015L25.897,25.897L26.015,25.778L26.132,25.657L26.248,25.534L26.361,25.41L26.474,25.285L26.585,25.159L26.694,25.031L26.802,24.902L26.908,24.771L27.013,24.64L27.116,24.507L27.218,24.372L27.318,24.237L27.417,24.1L27.514,23.962L27.609,23.823L27.702,23.683L27.794,23.541L27.885,23.399L27.973,23.255L28.06,23.11L28.145,22.964L28.229,22.817L28.31,22.669L28.39,22.52L28.469,22.369L28.545,22.218L28.62,22.065L28.692,21.912L28.763,21.758L28.833,21.602L28.9,21.446L28.965,21.288L29.029,21.13L29.091,20.971L29.151,20.811L29.208,20.65L29.264,20.488L29.318,20.325L29.371,20.161L29.421,19.997L29.469,19.831L29.515,19.665L29.559,19.498L29.601,19.33L29.641,19.161L29.679,18.992L29.715,18.821L29.749,18.65L29.781,18.479L29.811,18.306L29.838,18.133L29.864,17.959L29.887,17.784L29.909,17.609L29.928,17.433L29.944,17.256L29.959,17.078L29.971,16.9L29.982,16.721L29.99,16.542L29.995,16.362L29.999,16.181L30,16L29.999,15.819L29.995,15.638L29.99,15.458L29.982,15.279L29.971,15.1L29.959,14.922L29.944,14.744L29.928,14.567L29.909,14.391L29.887,14.216L29.864,14.041L29.838,13.867L29.811,13.694L29.781,13.521L29.749,13.35L29.715,13.179L29.679,13.008L29.641,12.839L29.601,12.67L29.559,12.502L29.515,12.335L29.469,12.169L29.421,12.003L29.371,11.839L29.318,11.675L29.264,11.512L29.208,11.35L29.151,11.189L29.091,11.029L29.029,10.87L28.965,10.712L28.9,10.554L28.833,10.398L28.763,10.242L28.692,10.088L28.62,9.935L28.545,9.782L28.469,9.631L28.39,9.48L28.31,9.331L28.229,9.183L28.145,9.036L28.06,8.89L27.973,8.745L27.885,8.601L27.794,8.459L27.702,8.317L27.609,8.177L27.514,8.038L27.417,7.9L27.318,7.763L27.218,7.628L27.116,7.493L27.013,7.36L26.908,7.229L26.802,7.098L26.694,6.969L26.585,6.841L26.474,6.715L26.361,6.59L26.248,6.466L26.132,6.343L26.015,6.222L25.897,6.103L25.778,5.985L25.657,5.868L25.534,5.752L25.41,5.639L25.285,5.526L25.159,5.415L25.031,5.306L24.902,5.198L24.771,5.092L24.64,4.987L24.507,4.884L24.372,4.782L24.237,4.682L24.1,4.583L23.962,4.486L23.823,4.391L23.683,4.298L23.541,4.206L23.399,4.115L23.255,4.027L23.11,3.94L22.964,3.855L22.817,3.771L22.669,3.69L22.52,3.61L22.369,3.531L22.218,3.455L22.065,3.38L21.912,3.308L21.758,3.237L21.602,3.167L21.446,3.1L21.288,3.035L21.13,2.971L20.971,2.909L20.811,2.849L20.65,2.792L20.488,2.736L20.325,2.682L20.161,2.629L19.997,2.579L19.831,2.531L19.665,2.485L19.498,2.441L19.33,2.399L19.161,2.359L18.992,2.321L18.821,2.285L18.65,2.251L18.479,2.219L18.306,2.189L18.133,2.162L17.959,2.136L17.784,2.113L17.609,2.091L17.433,2.072L17.256,2.056L17.078,2.041L16.9,2.029L16.721,2.018L16.542,2.01L16.362,2.005L16.181,2.001L16,2L15.819,2.001Z"/>
        <path d="M16.076,6L16.151,6.002L16.226,6.004L16.301,6.008L16.375,6.012L16.45,6.018L16.524,6.024L16.598,6.032L16.672,6.04L16.745,6.049L16.818,6.059L16.891,6.07L16.964,6.082L17.036,6.095L17.108,6.109L17.18,6.124L17.251,6.14L17.322,6.156L17.393,6.174L17.463,6.192L17.534,6.212L17.603,6.232L17.673,6.253L17.742,6.275L17.81,6.297L17.878,6.321L17.946,6.345L18.014,6.371L18.081,6.397L18.15,6.425L18.279,6.48L18.41,6.539L18.538,6.602L18.665,6.668L18.79,6.736L18.913,6.808L19.034,6.883L19.153,6.96L19.271,7.04L19.386,7.124L19.499,7.209L19.61,7.298L19.718,7.389L19.825,7.483L19.929,7.579L20.031,7.678L20.13,7.779L20.227,7.883L20.322,7.989L20.414,8.097L20.504,8.207L20.591,8.32L20.675,8.435L20.757,8.552L20.837,8.671L20.913,8.792L20.987,8.915L21.058,9.04L21.126,9.167L21.191,9.295L21.253,9.426L21.313,9.558L21.369,9.692L21.422,9.827L21.472,9.964L21.519,10.103L21.563,10.243L21.603,10.385L21.64,10.528L21.674,10.669L21.69,10.745L21.705,10.818L21.719,10.891L21.732,10.965L21.744,11.038L21.755,11.113L21.766,11.187L21.775,11.262L21.784,11.337L21.792,11.412L21.799,11.487L21.805,11.563L21.81,11.639L21.814,11.715L21.817,11.792L21.82,11.868L21.821,11.945L21.821,12.025L21.82,12.173L21.815,12.322L21.806,12.469L21.795,12.614L21.78,12.757L21.761,12.898L21.74,13.036L21.716,13.173L21.688,13.308L21.658,13.44L21.625,13.57L21.589,13.698L21.55,13.824L21.508,13.947L21.464,14.068L21.418,14.187L21.369,14.304L21.318,14.418L21.264,14.53L21.209,14.64L21.152,14.747L21.092,14.852L21.031,14.955L20.968,15.056L20.904,15.154L20.838,15.25L20.77,15.343L20.702,15.434L20.632,15.524L20.561,15.61L20.489,15.695L20.416,15.778L20.342,15.858L20.268,15.937L20.192,16.013L20.117,16.087L20.041,16.16L19.964,16.23L19.887,16.299L19.81,16.366L19.733,16.431L19.656,16.494L19.579,16.555L19.502,16.615L19.425,16.673L19.348,16.73L19.272,16.785L19.196,16.838L19.121,16.89L19.044,16.942L18.898,17.038L18.754,17.129L18.613,17.215L18.476,17.297L18.345,17.373L18.219,17.445L18.107,17.509L18.066,17.533L18.033,17.554L18.001,17.575L17.969,17.598L17.938,17.622L17.907,17.648L17.876,17.674L17.845,17.702L17.815,17.731L17.785,17.761L17.755,17.793L17.726,17.826L17.697,17.86L17.669,17.895L17.641,17.932L17.613,17.97L17.586,18.008L17.559,18.049L17.532,18.09L17.506,18.132L17.481,18.175L17.456,18.219L17.432,18.264L17.408,18.31L17.385,18.357L17.363,18.405L17.341,18.453L17.32,18.502L17.299,18.552L17.279,18.602L17.26,18.653L17.241,18.704L17.223,18.755L17.206,18.807L17.19,18.858L17.174,18.91L17.158,18.963L17.144,19.015L17.13,19.067L17.118,19.116L17.093,19.223L17.071,19.325L17.052,19.426L17.036,19.525L17.022,19.62L17.011,19.713L17.001,19.801L16.995,19.885L16.99,19.963L16.987,20.035L16.986,20.1L16.987,20.166L16.991,20.341L16.995,20.512L16.998,20.797L17,20.99L17,21.06L15,21.065L15,20.999L14.999,20.817L14.995,20.544L14.992,20.384L14.988,20.202L14.986,20.099L14.988,19.985L14.992,19.867L14.999,19.745L15.01,19.618L15.023,19.488L15.04,19.355L15.059,19.218L15.083,19.077L15.11,18.934L15.14,18.788L15.174,18.643L15.194,18.566L15.214,18.49L15.235,18.415L15.257,18.339L15.28,18.262L15.305,18.185L15.331,18.108L15.358,18.031L15.386,17.954L15.415,17.876L15.446,17.799L15.479,17.721L15.512,17.643L15.547,17.566L15.584,17.488L15.622,17.411L15.662,17.334L15.703,17.257L15.746,17.18L15.791,17.104L15.837,17.028L15.886,16.952L15.936,16.878L15.988,16.803L16.042,16.73L16.098,16.657L16.156,16.585L16.216,16.514L16.279,16.444L16.343,16.375L16.41,16.308L16.479,16.241L16.55,16.176L16.624,16.113L16.7,16.051L16.778,15.991L16.859,15.933L16.942,15.877L17.027,15.824L17.107,15.777L17.228,15.708L17.344,15.642L17.461,15.574L17.579,15.503L17.697,15.431L17.816,15.356L17.937,15.277L17.994,15.238L18.053,15.197L18.111,15.156L18.17,15.114L18.228,15.071L18.285,15.028L18.343,14.983L18.399,14.938L18.455,14.892L18.511,14.845L18.566,14.798L18.62,14.749L18.674,14.7L18.726,14.65L18.778,14.599L18.829,14.547L18.879,14.494L18.929,14.44L18.977,14.386L19.024,14.33L19.07,14.274L19.115,14.216L19.159,14.158L19.202,14.098L19.244,14.037L19.285,13.976L19.324,13.913L19.362,13.849L19.399,13.783L19.435,13.717L19.469,13.649L19.502,13.58L19.534,13.509L19.564,13.437L19.593,13.363L19.62,13.288L19.646,13.211L19.67,13.132L19.693,13.051L19.714,12.969L19.733,12.884L19.751,12.797L19.767,12.709L19.781,12.618L19.793,12.525L19.803,12.429L19.811,12.331L19.817,12.231L19.82,12.128L19.821,12.02L19.821,11.97L19.82,11.917L19.819,11.865L19.816,11.813L19.813,11.761L19.81,11.709L19.806,11.658L19.801,11.606L19.796,11.555L19.79,11.504L19.784,11.454L19.776,11.403L19.769,11.353L19.76,11.303L19.752,11.253L19.742,11.204L19.732,11.154L19.722,11.108L19.699,11.008L19.674,10.911L19.646,10.816L19.617,10.721L19.585,10.628L19.552,10.536L19.516,10.445L19.478,10.355L19.438,10.266L19.396,10.178L19.353,10.092L19.307,10.007L19.259,9.923L19.21,9.841L19.159,9.759L19.106,9.68L19.051,9.602L18.994,9.525L18.936,9.45L18.876,9.376L18.815,9.304L18.752,9.233L18.687,9.164L18.621,9.097L18.554,9.032L18.485,8.968L18.414,8.906L18.342,8.846L18.269,8.787L18.195,8.731L18.119,8.676L18.042,8.623L17.964,8.572L17.885,8.524L17.805,8.477L17.723,8.432L17.641,8.389L17.557,8.349L17.473,8.31L17.384,8.272L17.344,8.256L17.3,8.239L17.257,8.223L17.213,8.207L17.169,8.192L17.125,8.177L17.08,8.163L17.035,8.15L16.99,8.137L16.945,8.124L16.9,8.112L16.854,8.101L16.808,8.09L16.762,8.08L16.716,8.071L16.67,8.062L16.623,8.053L16.576,8.045L16.529,8.038L16.482,8.032L16.435,8.026L16.387,8.02L16.34,8.016L16.292,8.012L16.243,8.008L16.195,8.005L16.147,8.003L16.098,8.001L16.049,8L16,8L15.951,8L15.902,8.001L15.853,8.003L15.805,8.005L15.757,8.008L15.708,8.012L15.66,8.016L15.613,8.02L15.565,8.026L15.518,8.032L15.471,8.038L15.424,8.045L15.377,8.053L15.33,8.062L15.284,8.071L15.238,8.08L15.192,8.09L15.146,8.101L15.1,8.112L15.055,8.124L15.01,8.137L14.965,8.15L14.92,8.163L14.875,8.177L14.831,8.192L14.787,8.207L14.743,8.223L14.7,8.239L14.656,8.256L14.616,8.272L14.527,8.31L14.443,8.349L14.359,8.389L14.277,8.432L14.195,8.477L14.115,8.524L14.036,8.572L13.958,8.623L13.881,8.676L13.805,8.731L13.731,8.787L13.658,8.846L13.586,8.906L13.515,8.968L13.446,9.032L13.379,9.097L13.313,9.164L13.248,9.233L13.185,9.304L13.124,9.376L13.064,9.45L13.006,9.525L12.949,9.602L12.894,9.68L12.841,9.759L12.79,9.84L12.741,9.923L12.693,10.007L12.648,10.092L12.604,10.178L12.562,10.266L12.522,10.355L12.484,10.445L12.448,10.536L12.415,10.628L12.383,10.721L12.354,10.816L12.326,10.911L12.301,11.008L12.278,11.108L12.268,11.154L12.258,11.204L12.248,11.253L12.24,11.303L12.231,11.353L12.224,11.403L12.216,11.454L12.21,11.504L12.204,11.555L12.199,11.606L12.194,11.658L12.19,11.709L12.187,11.761L12.184,11.813L12.181,11.865L12.18,11.917L12.179,11.97L12.179,12.028L10.179,12.016L10.179,11.945L10.18,11.868L10.183,11.792L10.186,11.715L10.19,11.639L10.195,11.563L10.201,11.487L10.208,11.412L10.216,11.337L10.225,11.262L10.234,11.187L10.245,11.113L10.256,11.038L10.268,10.965L10.281,10.891L10.295,10.818L10.31,10.745L10.326,10.669L10.36,10.528L10.397,10.385L10.437,10.243L10.481,10.103L10.528,9.964L10.578,9.827L10.631,9.692L10.687,9.558L10.747,9.426L10.809,9.295L10.874,9.167L10.942,9.04L11.013,8.915L11.087,8.792L11.164,8.671L11.243,8.552L11.325,8.435L11.409,8.32L11.496,8.207L11.586,8.097L11.678,7.989L11.773,7.883L11.87,7.779L11.969,7.678L12.071,7.579L12.175,7.483L12.282,7.389L12.391,7.298L12.501,7.209L12.614,7.124L12.729,7.04L12.847,6.96L12.966,6.883L13.087,6.808L13.21,6.736L13.335,6.668L13.462,6.602L13.59,6.539L13.721,6.48L13.85,6.425L13.919,6.397L13.986,6.371L14.054,6.345L14.122,6.321L14.19,6.297L14.258,6.275L14.327,6.253L14.397,6.232L14.466,6.212L14.537,6.192L14.607,6.174L14.678,6.156L14.749,6.14L14.82,6.124L14.892,6.109L14.964,6.095L15.036,6.082L15.109,6.07L15.182,6.059L15.255,6.049L15.328,6.04L15.402,6.032L15.476,6.024L15.55,6.018L15.625,6.012L15.699,6.008L15.774,6.004L15.849,6.002L15.924,6L16,6L16.076,6Z"/>
        <rect x="15" y="24" width="2" height="2"/>
    </g>
</svg>
