<?xml version="1.0" encoding="UTF-8" standalone="no"?>
<!DOCTYPE svg PUBLIC "-//W3C//DTD SVG 1.1//EN" "http://www.w3.org/Graphics/SVG/1.1/DTD/svg11.dtd">
<svg width="100%" height="100%" viewBox="0 0 32 32" version="1.1" xmlns="http://www.w3.org/2000/svg" xmlns:xlink="http://www.w3.org/1999/xlink" xml:space="preserve" xmlns:serif="http://www.serif.com/" style="fill-rule:evenodd;clip-rule:evenodd;stroke-linejoin:round;stroke-miterlimit:1.41421;">
    <g id="Main">
        <path d="M32,26L0,26L0,6L32,6L32,26ZM2,8L2,24L30,24L30,8L2,8Z"/>
        <path d="M16.447,1.894L4.447,7.894L3.553,6.106L15.553,0.106L16.447,1.894Z"/>
        <rect x="4" y="11" width="10" height="2"/>
        <rect x="4" y="15" width="10" height="2"/>
        <rect x="4" y="19" width="10" height="2"/>
        <path d="M22.077,10L22.155,10.002L22.232,10.004L22.309,10.008L22.385,10.012L22.461,10.018L22.537,10.024L22.613,10.031L22.689,10.039L22.764,10.048L22.839,10.058L22.913,10.069L22.988,10.081L23.062,10.094L23.135,10.107L23.209,10.122L23.282,10.137L23.354,10.154L23.427,10.171L23.499,10.189L23.57,10.208L23.642,10.228L23.713,10.248L23.783,10.27L23.854,10.292L23.924,10.315L23.993,10.339L24.062,10.364L24.131,10.39L24.199,10.416L24.267,10.444L24.335,10.472L24.402,10.501L24.468,10.53L24.534,10.561L24.6,10.592L24.666,10.624L24.731,10.657L24.795,10.69L24.859,10.725L24.922,10.76L24.986,10.795L25.048,10.832L25.11,10.869L25.172,10.907L25.233,10.946L25.294,10.985L25.354,11.025L25.413,11.066L25.472,11.108L25.531,11.15L25.589,11.193L25.646,11.236L25.703,11.28L25.76,11.325L25.816,11.371L25.871,11.417L25.926,11.464L25.98,11.511L26.033,11.559L26.086,11.608L26.139,11.658L26.191,11.708L26.242,11.758L26.292,11.809L26.342,11.861L26.392,11.914L26.441,11.967L26.489,12.02L26.536,12.074L26.583,12.129L26.629,12.184L26.675,12.24L26.72,12.297L26.764,12.354L26.807,12.411L26.85,12.469L26.892,12.528L26.934,12.587L26.975,12.646L27.015,12.706L27.054,12.767L27.093,12.828L27.131,12.89L27.168,12.952L27.205,13.014L27.24,13.078L27.275,13.141L27.31,13.205L27.343,13.269L27.376,13.334L27.408,13.4L27.439,13.466L27.47,13.532L27.499,13.598L27.528,13.665L27.556,13.733L27.584,13.801L27.61,13.869L27.636,13.938L27.661,14.007L27.685,14.076L27.708,14.146L27.73,14.217L27.752,14.287L27.772,14.358L27.792,14.43L27.811,14.501L27.829,14.573L27.846,14.646L27.863,14.718L27.878,14.791L27.893,14.865L27.906,14.938L27.919,15.012L27.931,15.087L27.942,15.161L27.952,15.236L27.961,15.311L27.969,15.387L27.976,15.463L27.982,15.539L27.988,15.615L27.992,15.691L27.996,15.768L27.998,15.845L28,15.923L28,16L28,16.077L27.998,16.155L27.996,16.232L27.992,16.309L27.988,16.385L27.982,16.461L27.976,16.537L27.969,16.613L27.961,16.689L27.952,16.764L27.942,16.839L27.931,16.913L27.919,16.988L27.906,17.062L27.893,17.135L27.878,17.209L27.863,17.282L27.846,17.354L27.829,17.427L27.811,17.499L27.792,17.57L27.772,17.642L27.752,17.713L27.73,17.783L27.708,17.854L27.685,17.924L27.661,17.993L27.636,18.062L27.61,18.131L27.584,18.199L27.556,18.267L27.528,18.335L27.499,18.402L27.47,18.468L27.439,18.534L27.408,18.6L27.376,18.666L27.343,18.731L27.31,18.795L27.275,18.859L27.24,18.922L27.205,18.986L27.168,19.048L27.131,19.11L27.093,19.172L27.054,19.233L27.015,19.294L26.975,19.354L26.934,19.413L26.892,19.472L26.85,19.531L26.807,19.589L26.764,19.646L26.72,19.703L26.675,19.76L26.629,19.816L26.583,19.871L26.536,19.926L26.489,19.98L26.441,20.033L26.392,20.086L26.342,20.139L26.292,20.191L26.242,20.242L26.191,20.292L26.139,20.342L26.086,20.392L26.033,20.441L25.98,20.489L25.926,20.536L25.871,20.583L25.816,20.629L25.76,20.675L25.703,20.72L25.646,20.764L25.589,20.807L25.531,20.85L25.472,20.892L25.413,20.934L25.354,20.975L25.294,21.015L25.233,21.054L25.172,21.093L25.11,21.131L25.048,21.168L24.986,21.205L24.922,21.24L24.859,21.275L24.795,21.31L24.731,21.343L24.666,21.376L24.6,21.408L24.534,21.439L24.468,21.47L24.402,21.499L24.335,21.528L24.267,21.556L24.199,21.584L24.131,21.61L24.062,21.636L23.993,21.661L23.924,21.685L23.854,21.708L23.783,21.73L23.713,21.752L23.642,21.772L23.57,21.792L23.499,21.811L23.427,21.829L23.354,21.846L23.282,21.863L23.209,21.878L23.135,21.893L23.062,21.906L22.988,21.919L22.913,21.931L22.839,21.942L22.764,21.952L22.689,21.961L22.613,21.969L22.537,21.976L22.461,21.982L22.385,21.988L22.309,21.992L22.232,21.996L22.155,21.998L22.077,22L22,22L21.923,22L21.845,21.998L21.768,21.996L21.691,21.992L21.615,21.988L21.539,21.982L21.463,21.976L21.387,21.969L21.311,21.961L21.236,21.952L21.161,21.942L21.087,21.931L21.012,21.919L20.938,21.906L20.865,21.893L20.791,21.878L20.718,21.863L20.646,21.846L20.573,21.829L20.501,21.811L20.43,21.792L20.358,21.772L20.287,21.752L20.217,21.73L20.146,21.708L20.076,21.685L20.007,21.661L19.938,21.636L19.869,21.61L19.801,21.584L19.733,21.556L19.665,21.528L19.598,21.499L19.532,21.47L19.466,21.439L19.4,21.408L19.334,21.376L19.269,21.343L19.205,21.31L19.141,21.275L19.078,21.24L19.014,21.205L18.952,21.168L18.89,21.131L18.828,21.093L18.767,21.054L18.706,21.015L18.646,20.975L18.587,20.934L18.528,20.892L18.469,20.85L18.411,20.807L18.354,20.764L18.297,20.72L18.24,20.675L18.184,20.629L18.129,20.583L18.074,20.536L18.02,20.489L17.967,20.441L17.914,20.392L17.861,20.342L17.809,20.292L17.758,20.242L17.708,20.191L17.658,20.139L17.608,20.086L17.559,20.033L17.511,19.98L17.464,19.926L17.417,19.871L17.371,19.816L17.325,19.76L17.28,19.703L17.236,19.646L17.193,19.589L17.15,19.531L17.108,19.472L17.066,19.413L17.025,19.354L16.985,19.294L16.946,19.233L16.907,19.172L16.869,19.11L16.832,19.048L16.795,18.986L16.76,18.922L16.725,18.859L16.69,18.795L16.657,18.731L16.624,18.666L16.592,18.6L16.561,18.534L16.53,18.468L16.501,18.402L16.472,18.335L16.444,18.267L16.416,18.199L16.39,18.131L16.364,18.062L16.339,17.993L16.315,17.924L16.292,17.854L16.27,17.783L16.248,17.713L16.228,17.642L16.208,17.57L16.189,17.499L16.171,17.427L16.154,17.354L16.137,17.282L16.122,17.209L16.107,17.135L16.094,17.062L16.081,16.988L16.069,16.913L16.058,16.839L16.048,16.764L16.039,16.689L16.031,16.613L16.024,16.537L16.018,16.461L16.012,16.385L16.008,16.309L16.004,16.232L16.002,16.155L16,16.077L16,16L16,15.923L16.002,15.845L16.004,15.768L16.008,15.691L16.012,15.615L16.018,15.539L16.024,15.463L16.031,15.387L16.039,15.311L16.048,15.236L16.058,15.161L16.069,15.087L16.081,15.012L16.094,14.938L16.107,14.865L16.122,14.791L16.137,14.718L16.154,14.646L16.171,14.573L16.189,14.501L16.208,14.43L16.228,14.358L16.248,14.287L16.27,14.217L16.292,14.146L16.315,14.076L16.339,14.007L16.364,13.938L16.39,13.869L16.416,13.801L16.444,13.733L16.472,13.665L16.501,13.598L16.53,13.532L16.561,13.466L16.592,13.4L16.624,13.334L16.657,13.269L16.69,13.205L16.725,13.141L16.76,13.078L16.795,13.014L16.832,12.952L16.869,12.89L16.907,12.828L16.946,12.767L16.985,12.706L17.025,12.646L17.066,12.587L17.108,12.528L17.15,12.469L17.193,12.411L17.236,12.354L17.28,12.297L17.325,12.24L17.371,12.184L17.417,12.129L17.464,12.074L17.511,12.02L17.559,11.967L17.608,11.914L17.658,11.861L17.708,11.809L17.758,11.758L17.809,11.708L17.861,11.658L17.914,11.608L17.967,11.559L18.02,11.511L18.074,11.464L18.129,11.417L18.184,11.371L18.24,11.325L18.297,11.28L18.354,11.236L18.411,11.193L18.469,11.15L18.528,11.108L18.587,11.066L18.646,11.025L18.706,10.985L18.767,10.946L18.828,10.907L18.89,10.869L18.952,10.832L19.014,10.795L19.078,10.76L19.141,10.725L19.205,10.69L19.269,10.657L19.334,10.624L19.4,10.592L19.466,10.561L19.532,10.53L19.598,10.501L19.665,10.472L19.733,10.444L19.801,10.416L19.869,10.39L19.938,10.364L20.007,10.339L20.076,10.315L20.146,10.292L20.217,10.27L20.287,10.248L20.358,10.228L20.43,10.208L20.501,10.189L20.573,10.171L20.646,10.154L20.718,10.137L20.791,10.122L20.865,10.107L20.938,10.094L21.012,10.081L21.087,10.069L21.161,10.058L21.236,10.048L21.311,10.039L21.387,10.031L21.463,10.024L21.539,10.018L21.615,10.012L21.691,10.008L21.768,10.004L21.845,10.002L21.923,10L22,10L22.077,10ZM21.948,12L21.896,12.001L21.844,12.003L21.793,12.005L21.742,12.008L21.691,12.012L21.64,12.016L21.589,12.021L21.539,12.026L21.489,12.032L21.439,12.039L21.389,12.046L21.34,12.054L21.291,12.063L21.242,12.072L21.193,12.081L21.144,12.092L21.096,12.102L21.048,12.114L21,12.126L20.952,12.138L20.905,12.152L20.858,12.165L20.811,12.18L20.764,12.194L20.718,12.21L20.672,12.226L20.626,12.242L20.58,12.259L20.535,12.277L20.49,12.295L20.445,12.314L20.4,12.333L20.356,12.353L20.312,12.373L20.268,12.394L20.225,12.415L20.182,12.437L20.139,12.459L20.096,12.482L20.054,12.505L20.012,12.529L19.97,12.553L19.929,12.578L19.888,12.604L19.847,12.629L19.806,12.656L19.766,12.682L19.726,12.71L19.687,12.737L19.648,12.766L19.609,12.794L19.571,12.823L19.533,12.853L19.495,12.883L19.458,12.913L19.421,12.944L19.384,12.976L19.348,13.007L19.312,13.039L19.276,13.072L19.241,13.105L19.207,13.139L19.172,13.172L19.139,13.207L19.105,13.241L19.072,13.276L19.039,13.312L19.007,13.348L18.976,13.384L18.944,13.421L18.913,13.458L18.883,13.495L18.853,13.533L18.823,13.571L18.794,13.609L18.766,13.648L18.737,13.687L18.71,13.726L18.682,13.766L18.656,13.806L18.629,13.847L18.604,13.888L18.578,13.929L18.553,13.97L18.529,14.012L18.505,14.054L18.482,14.096L18.459,14.139L18.437,14.182L18.415,14.225L18.394,14.268L18.373,14.312L18.353,14.356L18.333,14.4L18.314,14.445L18.295,14.49L18.277,14.535L18.259,14.58L18.242,14.626L18.226,14.672L18.21,14.718L18.194,14.764L18.18,14.811L18.165,14.858L18.152,14.905L18.138,14.952L18.126,15L18.114,15.048L18.102,15.096L18.092,15.144L18.081,15.193L18.072,15.242L18.063,15.291L18.054,15.34L18.046,15.389L18.039,15.439L18.032,15.489L18.026,15.539L18.021,15.589L18.016,15.64L18.012,15.691L18.008,15.742L18.005,15.793L18.003,15.844L18.001,15.896L18,15.948L18,16L18,16.052L18.001,16.104L18.003,16.156L18.005,16.207L18.008,16.258L18.012,16.309L18.016,16.36L18.021,16.411L18.026,16.461L18.032,16.511L18.039,16.561L18.046,16.611L18.054,16.66L18.063,16.709L18.072,16.758L18.081,16.807L18.092,16.856L18.102,16.904L18.114,16.952L18.126,17L18.138,17.048L18.152,17.095L18.165,17.142L18.18,17.189L18.194,17.236L18.21,17.282L18.226,17.328L18.242,17.374L18.259,17.42L18.277,17.465L18.295,17.51L18.314,17.555L18.333,17.6L18.353,17.644L18.373,17.688L18.394,17.732L18.415,17.775L18.437,17.818L18.459,17.861L18.482,17.904L18.505,17.946L18.529,17.988L18.553,18.03L18.578,18.071L18.604,18.112L18.629,18.153L18.656,18.194L18.682,18.234L18.71,18.274L18.737,18.313L18.766,18.352L18.794,18.391L18.823,18.429L18.853,18.467L18.883,18.505L18.913,18.542L18.944,18.579L18.976,18.616L19.007,18.652L19.039,18.688L19.072,18.724L19.105,18.759L19.139,18.793L19.172,18.828L19.207,18.861L19.241,18.895L19.276,18.928L19.312,18.961L19.348,18.993L19.384,19.024L19.421,19.056L19.458,19.087L19.495,19.117L19.533,19.147L19.571,19.177L19.609,19.206L19.648,19.234L19.687,19.263L19.726,19.29L19.766,19.318L19.806,19.344L19.847,19.371L19.888,19.396L19.929,19.422L19.97,19.447L20.012,19.471L20.054,19.495L20.096,19.518L20.139,19.541L20.182,19.563L20.225,19.585L20.268,19.606L20.312,19.627L20.356,19.647L20.4,19.667L20.445,19.686L20.49,19.705L20.535,19.723L20.58,19.741L20.626,19.758L20.672,19.774L20.718,19.79L20.764,19.806L20.811,19.82L20.858,19.835L20.905,19.848L20.952,19.862L21,19.874L21.048,19.886L21.096,19.898L21.144,19.908L21.193,19.919L21.242,19.928L21.291,19.937L21.34,19.946L21.389,19.954L21.439,19.961L21.489,19.968L21.539,19.974L21.589,19.979L21.64,19.984L21.691,19.988L21.742,19.992L21.793,19.995L21.844,19.997L21.896,19.999L21.948,20L22,20L22.052,20L22.104,19.999L22.156,19.997L22.207,19.995L22.258,19.992L22.309,19.988L22.36,19.984L22.411,19.979L22.461,19.974L22.511,19.968L22.561,19.961L22.611,19.954L22.66,19.946L22.709,19.937L22.758,19.928L22.807,19.919L22.856,19.908L22.904,19.898L22.952,19.886L23,19.874L23.048,19.862L23.095,19.848L23.142,19.835L23.189,19.82L23.236,19.806L23.282,19.79L23.328,19.774L23.374,19.758L23.42,19.741L23.465,19.723L23.51,19.705L23.555,19.686L23.6,19.667L23.644,19.647L23.688,19.627L23.732,19.606L23.775,19.585L23.818,19.563L23.861,19.541L23.904,19.518L23.946,19.495L23.988,19.471L24.03,19.447L24.071,19.422L24.112,19.396L24.153,19.371L24.194,19.344L24.234,19.318L24.274,19.29L24.313,19.263L24.352,19.234L24.391,19.206L24.429,19.177L24.467,19.147L24.505,19.117L24.542,19.087L24.579,19.056L24.616,19.024L24.652,18.993L24.688,18.961L24.724,18.928L24.759,18.895L24.793,18.861L24.828,18.828L24.861,18.793L24.895,18.759L24.928,18.724L24.961,18.688L24.993,18.652L25.024,18.616L25.056,18.579L25.087,18.542L25.117,18.505L25.147,18.467L25.177,18.429L25.206,18.391L25.234,18.352L25.263,18.313L25.29,18.274L25.318,18.234L25.344,18.194L25.371,18.153L25.396,18.112L25.422,18.071L25.447,18.03L25.471,17.988L25.495,17.946L25.518,17.904L25.541,17.861L25.563,17.818L25.585,17.775L25.606,17.732L25.627,17.688L25.647,17.644L25.667,17.6L25.686,17.555L25.705,17.51L25.723,17.465L25.741,17.42L25.758,17.374L25.774,17.328L25.79,17.282L25.806,17.236L25.82,17.189L25.835,17.142L25.848,17.095L25.862,17.048L25.874,17L25.886,16.952L25.898,16.904L25.908,16.856L25.919,16.807L25.928,16.758L25.937,16.709L25.946,16.66L25.954,16.611L25.961,16.561L25.968,16.511L25.974,16.461L25.979,16.411L25.984,16.36L25.988,16.309L25.992,16.258L25.995,16.207L25.997,16.156L25.999,16.104L26,16.052L26,16L26,15.948L25.999,15.896L25.997,15.844L25.995,15.793L25.992,15.742L25.988,15.691L25.984,15.64L25.979,15.589L25.974,15.539L25.968,15.489L25.961,15.439L25.954,15.389L25.946,15.34L25.937,15.291L25.928,15.242L25.919,15.193L25.908,15.144L25.898,15.096L25.886,15.048L25.874,15L25.862,14.952L25.848,14.905L25.835,14.858L25.82,14.811L25.806,14.764L25.79,14.718L25.774,14.672L25.758,14.626L25.741,14.58L25.723,14.535L25.705,14.49L25.686,14.445L25.667,14.4L25.647,14.356L25.627,14.312L25.606,14.268L25.585,14.225L25.563,14.182L25.541,14.139L25.518,14.096L25.495,14.054L25.471,14.012L25.447,13.97L25.422,13.929L25.396,13.888L25.371,13.847L25.344,13.806L25.318,13.766L25.29,13.726L25.263,13.687L25.234,13.648L25.206,13.609L25.177,13.571L25.147,13.533L25.117,13.495L25.087,13.458L25.056,13.421L25.024,13.384L24.993,13.348L24.961,13.312L24.928,13.276L24.895,13.241L24.861,13.207L24.828,13.172L24.793,13.139L24.759,13.105L24.724,13.072L24.688,13.039L24.652,13.007L24.616,12.976L24.579,12.944L24.542,12.913L24.505,12.883L24.467,12.853L24.429,12.823L24.391,12.794L24.352,12.766L24.313,12.737L24.274,12.71L24.234,12.682L24.194,12.656L24.153,12.629L24.112,12.604L24.071,12.578L24.03,12.553L23.988,12.529L23.946,12.505L23.904,12.482L23.861,12.459L23.818,12.437L23.775,12.415L23.732,12.394L23.688,12.373L23.644,12.353L23.6,12.333L23.555,12.314L23.51,12.295L23.465,12.277L23.42,12.259L23.374,12.242L23.328,12.226L23.282,12.21L23.236,12.194L23.189,12.18L23.142,12.165L23.095,12.152L23.048,12.138L23,12.126L22.952,12.114L22.904,12.102L22.856,12.092L22.807,12.081L22.758,12.072L22.709,12.063L22.66,12.054L22.611,12.046L22.561,12.039L22.511,12.032L22.461,12.026L22.411,12.021L22.36,12.016L22.309,12.012L22.258,12.008L22.207,12.005L22.156,12.003L22.104,12.001L22.052,12L22,12L21.948,12Z"/>
        <path d="M22.039,14.5L22.077,14.502L22.115,14.504L22.153,14.508L22.191,14.512L22.228,14.517L22.265,14.523L22.302,14.53L22.339,14.538L22.375,14.547L22.41,14.557L22.446,14.567L22.481,14.579L22.516,14.591L22.55,14.604L22.584,14.618L22.617,14.633L22.65,14.648L22.683,14.664L22.715,14.681L22.746,14.699L22.778,14.717L22.808,14.736L22.838,14.756L22.868,14.777L22.897,14.798L22.926,14.82L22.954,14.843L22.981,14.866L23.008,14.89L23.035,14.914L23.06,14.94L23.086,14.965L23.11,14.992L23.134,15.019L23.157,15.046L23.18,15.074L23.202,15.103L23.223,15.132L23.244,15.162L23.264,15.192L23.283,15.222L23.301,15.254L23.319,15.285L23.336,15.317L23.352,15.35L23.367,15.383L23.382,15.416L23.396,15.45L23.409,15.484L23.421,15.519L23.433,15.554L23.443,15.59L23.453,15.625L23.462,15.661L23.47,15.698L23.477,15.735L23.483,15.772L23.488,15.809L23.492,15.847L23.496,15.885L23.498,15.923L23.5,15.961L23.5,16L23.5,16.039L23.498,16.077L23.496,16.115L23.492,16.153L23.488,16.191L23.483,16.228L23.477,16.265L23.47,16.302L23.462,16.339L23.453,16.375L23.443,16.41L23.433,16.446L23.421,16.481L23.409,16.516L23.396,16.55L23.382,16.584L23.367,16.617L23.352,16.65L23.336,16.683L23.319,16.715L23.301,16.746L23.283,16.778L23.264,16.808L23.244,16.838L23.223,16.868L23.202,16.897L23.18,16.926L23.157,16.954L23.134,16.981L23.11,17.008L23.086,17.035L23.06,17.06L23.035,17.086L23.008,17.11L22.981,17.134L22.954,17.157L22.926,17.18L22.897,17.202L22.868,17.223L22.838,17.244L22.808,17.264L22.778,17.283L22.746,17.301L22.715,17.319L22.683,17.336L22.65,17.352L22.617,17.367L22.584,17.382L22.55,17.396L22.516,17.409L22.481,17.421L22.446,17.433L22.41,17.443L22.375,17.453L22.339,17.462L22.302,17.47L22.265,17.477L22.228,17.483L22.191,17.488L22.153,17.492L22.115,17.496L22.077,17.498L22.039,17.5L22,17.5L21.961,17.5L21.923,17.498L21.885,17.496L21.847,17.492L21.809,17.488L21.772,17.483L21.735,17.477L21.698,17.47L21.661,17.462L21.625,17.453L21.59,17.443L21.554,17.433L21.519,17.421L21.484,17.409L21.45,17.396L21.416,17.382L21.383,17.367L21.35,17.352L21.317,17.336L21.285,17.319L21.254,17.301L21.222,17.283L21.192,17.264L21.162,17.244L21.132,17.223L21.103,17.202L21.074,17.18L21.046,17.157L21.019,17.134L20.992,17.11L20.965,17.086L20.94,17.06L20.914,17.035L20.89,17.008L20.866,16.981L20.843,16.954L20.82,16.926L20.798,16.897L20.777,16.868L20.756,16.838L20.736,16.808L20.717,16.778L20.699,16.746L20.681,16.715L20.664,16.683L20.648,16.65L20.633,16.617L20.618,16.584L20.604,16.55L20.591,16.516L20.579,16.481L20.567,16.446L20.557,16.41L20.547,16.375L20.538,16.339L20.53,16.302L20.523,16.265L20.517,16.228L20.512,16.191L20.508,16.153L20.504,16.115L20.502,16.077L20.5,16.039L20.5,16L20.5,15.961L20.502,15.923L20.504,15.885L20.508,15.847L20.512,15.809L20.517,15.772L20.523,15.735L20.53,15.698L20.538,15.661L20.547,15.625L20.557,15.59L20.567,15.554L20.579,15.519L20.591,15.484L20.604,15.45L20.618,15.416L20.633,15.383L20.648,15.35L20.664,15.317L20.681,15.285L20.699,15.254L20.717,15.222L20.736,15.192L20.756,15.162L20.777,15.132L20.798,15.103L20.82,15.074L20.843,15.046L20.866,15.019L20.89,14.992L20.914,14.965L20.94,14.94L20.965,14.914L20.992,14.89L21.019,14.866L21.046,14.843L21.074,14.82L21.103,14.798L21.132,14.777L21.162,14.756L21.192,14.736L21.222,14.717L21.254,14.699L21.285,14.681L21.317,14.664L21.35,14.648L21.383,14.633L21.416,14.618L21.45,14.604L21.484,14.591L21.519,14.579L21.554,14.567L21.59,14.557L21.625,14.547L21.661,14.538L21.698,14.53L21.735,14.523L21.772,14.517L21.809,14.512L21.847,14.508L21.885,14.504L21.923,14.502L21.961,14.5L22,14.5L22.039,14.5ZM21.988,15.5L21.976,15.5L21.963,15.501L21.951,15.502L21.938,15.504L21.926,15.506L21.913,15.508L21.901,15.51L21.888,15.513L21.876,15.516L21.864,15.519L21.851,15.523L21.839,15.527L21.827,15.531L21.816,15.535L21.804,15.54L21.793,15.545L21.781,15.55L21.77,15.556L21.76,15.561L21.749,15.567L21.739,15.574L21.728,15.58L21.718,15.586L21.709,15.593L21.699,15.6L21.69,15.607L21.681,15.615L21.672,15.622L21.663,15.63L21.654,15.638L21.646,15.646L21.638,15.654L21.63,15.663L21.622,15.672L21.615,15.681L21.607,15.69L21.6,15.699L21.593,15.709L21.587,15.718L21.58,15.728L21.574,15.739L21.567,15.749L21.561,15.76L21.556,15.77L21.55,15.781L21.545,15.793L21.54,15.804L21.535,15.816L21.531,15.827L21.527,15.839L21.523,15.851L21.519,15.864L21.516,15.876L21.513,15.888L21.51,15.901L21.508,15.913L21.506,15.926L21.504,15.938L21.502,15.951L21.501,15.963L21.5,15.976L21.5,15.988L21.5,16L21.5,16.024L21.502,16.049L21.506,16.074L21.51,16.099L21.516,16.124L21.523,16.149L21.531,16.173L21.54,16.196L21.55,16.219L21.561,16.24L21.574,16.261L21.586,16.282L21.6,16.301L21.615,16.319L21.63,16.337L21.646,16.354L21.663,16.37L21.681,16.385L21.699,16.4L21.718,16.414L21.739,16.426L21.76,16.439L21.781,16.45L21.804,16.46L21.827,16.469L21.851,16.477L21.876,16.484L21.901,16.49L21.926,16.494L21.951,16.498L21.976,16.5L22,16.5L22.012,16.5L22.024,16.5L22.037,16.499L22.049,16.498L22.062,16.496L22.074,16.494L22.087,16.492L22.099,16.49L22.112,16.487L22.124,16.484L22.136,16.481L22.149,16.477L22.161,16.473L22.173,16.469L22.184,16.465L22.196,16.46L22.207,16.455L22.219,16.45L22.23,16.444L22.24,16.439L22.251,16.433L22.261,16.426L22.272,16.42L22.282,16.414L22.291,16.407L22.301,16.4L22.31,16.393L22.319,16.385L22.328,16.378L22.337,16.37L22.346,16.362L22.354,16.354L22.362,16.346L22.37,16.337L22.378,16.328L22.385,16.319L22.393,16.31L22.4,16.301L22.407,16.291L22.414,16.281L22.42,16.272L22.426,16.261L22.433,16.251L22.438,16.24L22.444,16.23L22.45,16.219L22.455,16.207L22.46,16.196L22.465,16.184L22.469,16.173L22.473,16.161L22.477,16.149L22.481,16.136L22.484,16.124L22.487,16.112L22.49,16.099L22.492,16.087L22.494,16.074L22.496,16.062L22.498,16.049L22.499,16.037L22.5,16.024L22.5,16.012L22.5,16L22.5,15.988L22.5,15.976L22.499,15.963L22.498,15.951L22.496,15.938L22.494,15.926L22.492,15.913L22.49,15.901L22.487,15.888L22.484,15.876L22.481,15.864L22.477,15.851L22.473,15.839L22.469,15.827L22.465,15.816L22.46,15.804L22.455,15.793L22.45,15.781L22.444,15.77L22.438,15.76L22.433,15.749L22.426,15.739L22.42,15.728L22.414,15.718L22.407,15.709L22.4,15.699L22.393,15.69L22.385,15.681L22.378,15.672L22.37,15.663L22.362,15.654L22.354,15.646L22.346,15.638L22.337,15.63L22.328,15.622L22.319,15.615L22.31,15.607L22.301,15.6L22.291,15.593L22.282,15.586L22.272,15.58L22.261,15.574L22.251,15.567L22.24,15.561L22.23,15.556L22.219,15.55L22.207,15.545L22.196,15.54L22.184,15.535L22.173,15.531L22.161,15.527L22.149,15.523L22.136,15.519L22.124,15.516L22.112,15.513L22.099,15.51L22.087,15.508L22.074,15.506L22.062,15.504L22.049,15.502L22.037,15.501L22.024,15.5L22.012,15.5L22,15.5L21.988,15.5Z"/>
    </g>
</svg>
