<?xml version="1.0" encoding="UTF-8" standalone="no"?>
<!DOCTYPE svg PUBLIC "-//W3C//DTD SVG 1.1//EN" "http://www.w3.org/Graphics/SVG/1.1/DTD/svg11.dtd">
<svg width="100%" height="100%" viewBox="0 0 32 32" version="1.1" xmlns="http://www.w3.org/2000/svg" xmlns:xlink="http://www.w3.org/1999/xlink" xml:space="preserve" xmlns:serif="http://www.serif.com/" style="fill-rule:evenodd;clip-rule:evenodd;stroke-linejoin:round;stroke-miterlimit:2;">
    <g transform="matrix(6.12323e-17,1,-1,6.12323e-17,32,-3.55271e-15)">
        <g id="DashGroup">
            <g transform="matrix(1,0,0,1,1,0)">
                <rect x="2" y="2" width="2" height="2"/>
                <path d="M4,3.95L4,4L3.9,4L3.9,3.95L4,3.95ZM4,3.85L3.95,3.85L3.95,3.9L4,3.9L4,3.85ZM4,3.75L3.95,3.75L3.95,3.8L4,3.8L4,3.75ZM4,3.7L4,3.65L3.95,3.65L3.95,3.7L4,3.7ZM4,3.55L3.95,3.55L3.95,3.6L4,3.6L4,3.55ZM4,3.45L3.95,3.45L3.95,3.5L4,3.5L4,3.45ZM4,3.4L4,3.35L3.95,3.35L3.95,3.4L4,3.4ZM4,3.25L3.95,3.25L3.95,3.3L4,3.3L4,3.25ZM4,3.15L3.95,3.15L3.95,3.2L4,3.2L4,3.15ZM4,3.05L3.95,3.05L3.95,3.1L4,3.1L4,3.05ZM4,2.95L3.95,2.95L3.95,3L4,3L4,2.95ZM4,2.85L3.95,2.85L3.95,2.9L4,2.9L4,2.85ZM4,2.8L4,2.75L3.95,2.75L3.95,2.8L4,2.8ZM4,2.7L4,2.65L3.95,2.65L3.95,2.7L4,2.7ZM4,2.55L3.95,2.55L3.95,2.6L4,2.6L4,2.55ZM4,2.45L3.95,2.45L3.95,2.5L4,2.5L4,2.45ZM4,2.35L3.95,2.35L3.95,2.4L4,2.4L4,2.35ZM4,2.25L3.95,2.25L3.95,2.3L4,2.3L4,2.25ZM4,2.15L3.95,2.15L3.95,2.2L4,2.2L4,2.15ZM3.95,2L4,2L4,2.049L3.999,2.05L4,2.05L4,2.1L3.95,2.1L3.95,2ZM3.85,2L3.85,2.05L3.9,2.05L3.9,2L3.85,2ZM3.8,4L3.85,4L3.85,3.95L3.8,3.95L3.8,4ZM3.75,2L3.75,2.05L3.8,2.05L3.8,2L3.75,2ZM3.7,4L3.75,4L3.75,3.95L3.7,3.95L3.7,4ZM3.65,2L3.65,2.05L3.7,2.05L3.7,2L3.65,2ZM3.6,4L3.65,4L3.65,3.95L3.6,3.95L3.6,4ZM3.55,2L3.55,2.05L3.6,2.05L3.6,2L3.55,2ZM3.5,4L3.55,4L3.55,3.95L3.5,3.95L3.5,4ZM3.45,2L3.45,2.05L3.5,2.05L3.5,2L3.45,2ZM3.4,4L3.45,4L3.45,3.95L3.4,3.95L3.4,4ZM3.35,2L3.35,2.05L3.4,2.05L3.4,2L3.35,2ZM3.3,4L3.35,4L3.35,3.95L3.3,3.95L3.3,4ZM3.25,2L3.25,2.05L3.3,2.05L3.3,2L3.25,2ZM3.2,4L3.25,4L3.25,3.95L3.2,3.95L3.2,4ZM3.15,2L3.15,2.05L3.2,2.05L3.2,2L3.15,2ZM3.1,4L3.15,4L3.15,3.95L3.1,3.95L3.1,4ZM3.05,2L3.05,2.05L3.1,2.05L3.1,2L3.05,2ZM3,4L3.05,4L3.05,3.95L3,3.95L3,4ZM2.95,2L2.95,2.05L3,2.05L3,2L2.95,2ZM2.9,4L2.95,4L2.95,3.95L2.9,3.95L2.9,4ZM2.85,2L2.85,2.05L2.9,2.05L2.9,2L2.85,2ZM2.8,4L2.85,4L2.85,3.95L2.8,3.95L2.8,4ZM2.75,2L2.75,2.05L2.8,2.05L2.8,2L2.75,2ZM2.7,4L2.75,4L2.75,3.95L2.7,3.95L2.7,4ZM2.65,2L2.65,2.05L2.7,2.05L2.7,2L2.65,2ZM2.6,4L2.65,4L2.65,3.95L2.6,3.95L2.6,4ZM2.55,2L2.55,2.05L2.6,2.05L2.6,2L2.55,2ZM2.5,4L2.55,4L2.55,3.95L2.5,3.95L2.5,4ZM2.45,2L2.45,2.05L2.5,2.05L2.5,2L2.45,2ZM2.4,4L2.45,4L2.45,3.95L2.4,3.95L2.4,4ZM2.35,2L2.35,2.05L2.4,2.05L2.4,2L2.35,2ZM2.3,4L2.35,4L2.35,3.95L2.3,3.95L2.3,4ZM2.25,2L2.25,2.05L2.3,2.05L2.3,2L2.25,2ZM2.2,4L2.25,4L2.25,3.95L2.2,3.95L2.2,4ZM2.15,2L2.15,2.05L2.2,2.05L2.2,2L2.15,2ZM2.1,4L2.15,4L2.15,3.95L2.1,3.95L2.1,4ZM2,2L2.1,2L2.1,2.05L2,2.05L2,2ZM2,2.4L2,2.45L2.05,2.45L2.05,2.4L2,2.4ZM2,2.3L2,2.35L2.05,2.35L2.05,2.3L2,2.3ZM2,3.8L2,3.85L2.05,3.85L2.05,3.8L2,3.8ZM2,2.6L2,2.65L2.05,2.65L2.05,2.6L2,2.6ZM2,2.5L2,2.55L2.05,2.55L2.05,2.5L2,2.5ZM2,2.2L2,2.25L2.05,2.25L2.05,2.2L2,2.2ZM2,2.1L2,2.15L2.05,2.15L2.05,2.1L2,2.1ZM2,3.5L2,3.55L2.05,3.55L2.05,3.5L2,3.5ZM2,3.6L2,3.65L2.05,3.65L2.05,3.6L2,3.6ZM2,3.7L2,3.75L2.05,3.75L2.05,3.7L2,3.7ZM2,2.7L2,2.75L2.05,2.75L2.05,2.7L2,2.7ZM2,3.2L2,3.25L2.05,3.25L2.05,3.2L2,3.2ZM2,3.4L2,3.45L2.05,3.45L2.05,3.4L2,3.4ZM2.05,3.9L2.05,4L2,4L2,3.9L2.05,3.9ZM2,3L2,3.05L2.05,3.05L2.05,3L2,3ZM2,3.1L2,3.15L2.05,3.15L2.05,3.1L2,3.1ZM2,3.3L2,3.35L2.05,3.35L2.05,3.3L2,3.3ZM2,2.8L2,2.85L2.05,2.85L2.05,2.8L2,2.8ZM2,2.9L2,2.95L2.05,2.95L2.05,2.9L2,2.9Z" style="fill:white;"/>
            </g>
            <g transform="matrix(1,0,0,1,0,3)">
                <rect x="2" y="2" width="2" height="2"/>
                <path d="M4,3.95L4,4L3.9,4L3.9,3.95L4,3.95ZM4,3.85L3.95,3.85L3.95,3.9L4,3.9L4,3.85ZM4,3.8L4,3.75L3.95,3.75L3.95,3.8L4,3.8ZM4,3.65L3.95,3.65L3.95,3.7L4,3.7L4,3.65ZM4,3.55L3.95,3.55L3.95,3.6L4,3.6L4,3.55ZM4,3.5L4,3.45L3.95,3.45L3.95,3.5L4,3.5ZM4,3.4L4,3.35L3.95,3.35L3.95,3.4L4,3.4ZM4,3.25L3.95,3.25L3.95,3.3L4,3.3L4,3.25ZM4,3.15L3.95,3.15L3.95,3.2L4,3.2L4,3.15ZM4,3.05L3.95,3.05L3.95,3.1L4,3.1L4,3.05ZM4,2.95L3.95,2.95L3.95,3L4,3L4,2.95ZM4,2.85L3.95,2.85L3.95,2.9L4,2.9L4,2.85ZM4,2.75L3.95,2.75L3.95,2.8L4,2.8L4,2.75ZM4,2.65L3.95,2.65L3.95,2.7L4,2.7L4,2.65ZM4,2.55L3.95,2.55L3.95,2.6L4,2.6L4,2.55ZM4,2.5L4,2.45L3.95,2.45L3.95,2.5L4,2.5ZM4,2.35L3.95,2.35L3.95,2.4L4,2.4L4,2.35ZM4,2.25L3.95,2.25L3.95,2.3L4,2.3L4,2.25ZM4,2.15L3.95,2.15L3.95,2.2L4,2.2L4,2.15ZM3.95,2L4,2L4,2.05L3.999,2.05L4,2.05L4,2.1L3.95,2.1L3.95,2ZM3.85,2L3.85,2.05L3.9,2.05L3.9,2L3.85,2ZM3.8,4L3.85,4L3.85,3.95L3.8,3.95L3.8,4ZM3.75,2L3.75,2.05L3.8,2.05L3.8,2L3.75,2ZM3.7,4L3.75,4L3.75,3.95L3.7,3.95L3.7,4ZM3.65,2L3.65,2.05L3.7,2.05L3.7,2L3.65,2ZM3.6,4L3.65,4L3.65,3.95L3.6,3.95L3.6,4ZM3.55,2L3.55,2.05L3.6,2.05L3.6,2L3.55,2ZM3.5,4L3.55,4L3.55,3.95L3.5,3.95L3.5,4ZM3.45,2L3.45,2.05L3.5,2.05L3.5,2L3.45,2ZM3.4,4L3.45,4L3.45,3.95L3.4,3.95L3.4,4ZM3.35,2L3.35,2.05L3.4,2.05L3.4,2L3.35,2ZM3.3,4L3.35,4L3.35,3.95L3.3,3.95L3.3,4ZM3.25,2L3.25,2.05L3.3,2.05L3.3,2L3.25,2ZM3.2,4L3.25,4L3.25,3.95L3.2,3.95L3.2,4ZM3.15,2L3.15,2.05L3.2,2.05L3.2,2L3.15,2ZM3.1,4L3.15,4L3.15,3.95L3.1,3.95L3.1,4ZM3.05,2L3.05,2.05L3.1,2.05L3.1,2L3.05,2ZM3,4L3.05,4L3.05,3.95L3,3.95L3,4ZM2.95,2L2.95,2.05L3,2.05L3,2L2.95,2ZM2.9,4L2.95,4L2.95,3.95L2.9,3.95L2.9,4ZM2.85,2L2.85,2.05L2.9,2.05L2.9,2L2.85,2ZM2.8,4L2.85,4L2.85,3.95L2.8,3.95L2.8,4ZM2.75,2L2.75,2.05L2.8,2.05L2.8,2L2.75,2ZM2.7,4L2.75,4L2.75,3.95L2.7,3.95L2.7,4ZM2.65,2L2.65,2.05L2.7,2.05L2.7,2L2.65,2ZM2.6,4L2.65,4L2.65,3.95L2.6,3.95L2.6,4ZM2.55,2L2.55,2.05L2.6,2.05L2.6,2L2.55,2ZM2.5,4L2.55,4L2.55,3.95L2.5,3.95L2.5,4ZM2.45,2L2.45,2.05L2.5,2.05L2.5,2L2.45,2ZM2.4,4L2.45,4L2.45,3.95L2.4,3.95L2.4,4ZM2.35,2L2.35,2.05L2.4,2.05L2.4,2L2.35,2ZM2.3,4L2.35,4L2.35,3.95L2.3,3.95L2.3,4ZM2.25,2L2.25,2.05L2.3,2.05L2.3,2L2.25,2ZM2.2,4L2.25,4L2.25,3.95L2.2,3.95L2.2,4ZM2.15,2L2.15,2.05L2.2,2.05L2.2,2L2.15,2ZM2.1,4L2.15,4L2.15,3.95L2.1,3.95L2.1,4ZM2,2L2.1,2L2.1,2.05L2,2.05L2,2ZM2,3.8L2,3.85L2.05,3.85L2.05,3.8L2,3.8ZM2,2.7L2,2.75L2.05,2.75L2.05,2.7L2,2.7ZM2,2.6L2,2.65L2.05,2.65L2.05,2.6L2,2.6ZM2,2.5L2,2.55L2.05,2.55L2.05,2.5L2,2.5ZM2,2.4L2,2.45L2.05,2.45L2.05,2.4L2,2.4ZM2,2.3L2,2.35L2.05,2.35L2.05,2.3L2,2.3ZM2,2.2L2,2.25L2.05,2.25L2.05,2.2L2,2.2ZM2,3L2,3.05L2.05,3.05L2.05,3L2,3ZM2,3.7L2,3.75L2.05,3.75L2.05,3.7L2,3.7ZM2,2.8L2,2.85L2.05,2.85L2.05,2.8L2,2.8ZM2,2.9L2,2.95L2.05,2.95L2.05,2.9L2,2.9ZM2,2.1L2,2.15L2.05,2.15L2.05,2.1L2,2.1ZM2,3.1L2,3.15L2.05,3.15L2.05,3.1L2,3.1ZM2,3.2L2,3.25L2.05,3.25L2.05,3.2L2,3.2ZM2,3.3L2,3.35L2.05,3.35L2.05,3.3L2,3.3ZM2,3.4L2,3.45L2.05,3.45L2.05,3.4L2,3.4ZM2,3.5L2,3.55L2.05,3.55L2.05,3.5L2,3.5ZM2,3.6L2,3.65L2.05,3.65L2.05,3.6L2,3.6ZM2.05,3.9L2.05,4L2,4L2,3.9L2.05,3.9Z" style="fill:white;"/>
            </g>
            <g transform="matrix(1,0,0,1,26,3)">
                <rect x="2" y="2" width="2" height="2"/>
                <path d="M4,3.95L4,4L3.9,4L3.9,3.95L4,3.95ZM4,3.85L3.95,3.85L3.95,3.9L4,3.9L4,3.85ZM4,3.8L4,3.75L3.95,3.75L3.95,3.8L4,3.8ZM4,3.65L3.95,3.65L3.95,3.7L4,3.7L4,3.65ZM4,3.55L3.95,3.55L3.95,3.6L4,3.6L4,3.55ZM4,3.45L3.95,3.45L3.95,3.5L4,3.5L4,3.45ZM4,3.35L3.95,3.35L3.95,3.4L4,3.4L4,3.35ZM4,3.25L3.95,3.25L3.95,3.3L4,3.3L4,3.25ZM4,3.15L3.95,3.15L3.95,3.2L4,3.2L4,3.15ZM4,3.05L3.95,3.05L3.95,3.1L4,3.1L4,3.05ZM4,2.95L3.95,2.95L3.95,3L4,3L4,2.95ZM4,2.85L3.95,2.85L3.95,2.9L4,2.9L4,2.85ZM4,2.75L3.95,2.75L3.95,2.8L4,2.8L4,2.75ZM4,2.65L3.95,2.65L3.95,2.7L4,2.7L4,2.65ZM4,2.6L4,2.55L3.95,2.55L3.95,2.6L4,2.6ZM4,2.45L3.95,2.45L3.95,2.5L4,2.5L4,2.45ZM4,2.35L3.95,2.35L3.95,2.4L4,2.4L4,2.35ZM4,2.25L3.95,2.25L3.95,2.3L4,2.3L4,2.25ZM4,2.15L3.95,2.15L3.95,2.2L4,2.2L4,2.15ZM3.95,2L4,2L4,2.05L3.999,2.05L4,2.05L4,2.1L3.95,2.1L3.95,2ZM3.85,2L3.85,2.05L3.9,2.05L3.9,2L3.85,2ZM3.8,4L3.85,4L3.85,3.95L3.8,3.95L3.8,4ZM3.75,2L3.75,2.05L3.8,2.05L3.8,2L3.75,2ZM3.7,4L3.75,4L3.75,3.95L3.7,3.95L3.7,4ZM3.65,2L3.65,2.05L3.7,2.05L3.7,2L3.65,2ZM3.6,4L3.65,4L3.65,3.95L3.6,3.95L3.6,4ZM3.55,2L3.55,2.05L3.6,2.05L3.6,2L3.55,2ZM3.5,4L3.55,4L3.55,3.95L3.5,3.95L3.5,4ZM3.45,2L3.45,2.05L3.5,2.05L3.5,2L3.45,2ZM3.4,4L3.45,4L3.45,3.95L3.4,3.95L3.4,4ZM3.35,2L3.35,2.05L3.4,2.05L3.4,2L3.35,2ZM3.3,4L3.35,4L3.35,3.95L3.3,3.95L3.3,4ZM3.25,2L3.25,2.05L3.3,2.05L3.3,2L3.25,2ZM3.2,4L3.25,4L3.25,3.95L3.2,3.95L3.2,4ZM3.15,2L3.15,2.05L3.2,2.05L3.2,2L3.15,2ZM3.1,4L3.15,4L3.15,3.95L3.1,3.95L3.1,4ZM3.05,2L3.05,2.05L3.1,2.05L3.1,2L3.05,2ZM3,4L3.05,4L3.05,3.95L3,3.95L3,4ZM2.95,2L2.95,2.05L3,2.05L3,2L2.95,2ZM2.9,4L2.95,4L2.95,3.95L2.9,3.95L2.9,4ZM2.85,2L2.85,2.05L2.9,2.05L2.9,2L2.85,2ZM2.8,4L2.85,4L2.85,3.95L2.8,3.95L2.8,4ZM2.75,2L2.75,2.05L2.8,2.05L2.8,2L2.75,2ZM2.7,4L2.75,4L2.75,3.95L2.7,3.95L2.7,4ZM2.65,2L2.65,2.05L2.7,2.05L2.7,2L2.65,2ZM2.6,4L2.65,4L2.65,3.95L2.6,3.95L2.6,4ZM2.55,2L2.55,2.05L2.6,2.05L2.6,2L2.55,2ZM2.5,4L2.55,4L2.55,3.95L2.5,3.95L2.5,4ZM2.45,2L2.45,2.05L2.5,2.05L2.5,2L2.45,2ZM2.4,4L2.45,4L2.45,3.95L2.4,3.95L2.4,4ZM2.35,2L2.35,2.05L2.4,2.05L2.4,2L2.35,2ZM2.3,4L2.35,4L2.35,3.95L2.3,3.95L2.3,4ZM2.25,2L2.25,2.05L2.3,2.05L2.3,2L2.25,2ZM2.2,4L2.25,4L2.25,3.95L2.2,3.95L2.2,4ZM2.15,2L2.15,2.05L2.2,2.05L2.2,2L2.15,2ZM2.1,4L2.15,4L2.15,3.95L2.1,3.95L2.1,4ZM2,2L2.1,2L2.1,2.05L2,2.05L2,2ZM2,3.5L2,3.55L2.05,3.55L2.05,3.5L2,3.5ZM2,2.4L2,2.45L2.05,2.45L2.05,2.4L2,2.4ZM2,2.3L2,2.35L2.05,2.35L2.05,2.3L2,2.3ZM2,2.2L2,2.25L2.05,2.25L2.05,2.2L2,2.2ZM2,2.1L2,2.15L2.05,2.15L2.05,2.1L2,2.1ZM2,3.4L2,3.45L2.05,3.45L2.05,3.4L2,3.4ZM2,3.7L2,3.75L2.05,3.75L2.05,3.7L2,3.7ZM2,3.8L2,3.85L2.05,3.85L2.05,3.8L2,3.8ZM2,2.5L2,2.55L2.05,2.55L2.05,2.5L2,2.5ZM2.05,3.9L2.05,4L2,4L2,3.9L2.05,3.9ZM2,3.6L2,3.65L2.05,3.65L2.05,3.6L2,3.6ZM2,2.8L2,2.85L2.05,2.85L2.05,2.8L2,2.8ZM2,2.7L2,2.75L2.05,2.75L2.05,2.7L2,2.7ZM2,2.6L2,2.65L2.05,2.65L2.05,2.6L2,2.6ZM2,3.2L2,3.25L2.05,3.25L2.05,3.2L2,3.2ZM2,3.3L2,3.35L2.05,3.35L2.05,3.3L2,3.3ZM2,3L2,3.05L2.05,3.05L2.05,3L2,3ZM2,3.1L2,3.15L2.05,3.15L2.05,3.1L2,3.1ZM2,2.9L2,2.95L2.05,2.95L2.05,2.9L2,2.9Z" style="fill:white;"/>
            </g>
            <g transform="matrix(1,0,0,1,0,23)">
                <rect x="2" y="2" width="2" height="2"/>
                <path d="M4,3.95L4,4L3.9,4L3.9,3.95L4,3.95ZM4,3.85L3.95,3.85L3.95,3.9L4,3.9L4,3.85ZM4,3.8L4,3.75L3.95,3.75L3.95,3.8L4,3.8ZM4,3.65L3.95,3.65L3.95,3.7L4,3.7L4,3.65ZM4,3.6L4,3.55L3.95,3.55L3.95,3.6L4,3.6ZM4,3.5L4,3.45L3.95,3.45L3.95,3.5L4,3.5ZM4,3.35L3.95,3.35L3.95,3.4L4,3.4L4,3.35ZM4,3.25L3.95,3.25L3.95,3.3L4,3.3L4,3.25ZM4,3.15L3.95,3.15L3.95,3.2L4,3.2L4,3.15ZM4,3.05L3.95,3.05L3.95,3.1L4,3.1L4,3.05ZM4,2.95L3.95,2.95L3.95,3L4,3L4,2.95ZM4,2.85L3.95,2.85L3.95,2.9L4,2.9L4,2.85ZM4,2.75L3.95,2.75L3.95,2.8L4,2.8L4,2.75ZM4,2.65L3.95,2.65L3.95,2.7L4,2.7L4,2.65ZM4,2.55L3.95,2.55L3.95,2.6L4,2.6L4,2.55ZM4,2.45L3.95,2.45L3.95,2.5L4,2.5L4,2.45ZM4,2.35L3.95,2.35L3.95,2.4L4,2.4L4,2.35ZM4,2.25L3.95,2.25L3.95,2.3L4,2.3L4,2.25ZM4,2.15L3.95,2.15L3.95,2.2L4,2.2L4,2.15ZM3.95,2L4,2L4,2.05L3.999,2.05L4,2.05L4,2.1L3.95,2.1L3.95,2ZM3.85,2L3.85,2.05L3.9,2.05L3.9,2L3.85,2ZM3.8,4L3.85,4L3.85,3.95L3.8,3.95L3.8,4ZM3.75,2L3.75,2.05L3.8,2.05L3.8,2L3.75,2ZM3.7,4L3.75,4L3.75,3.95L3.7,3.95L3.7,4ZM3.65,2L3.65,2.05L3.7,2.05L3.7,2L3.65,2ZM3.6,4L3.65,4L3.65,3.95L3.6,3.95L3.6,4ZM3.55,2L3.55,2.05L3.6,2.05L3.6,2L3.55,2ZM3.5,4L3.55,4L3.55,3.95L3.5,3.95L3.5,4ZM3.45,2L3.45,2.05L3.5,2.05L3.5,2L3.45,2ZM3.4,4L3.45,4L3.45,3.95L3.4,3.95L3.4,4ZM3.35,2L3.35,2.05L3.4,2.05L3.4,2L3.35,2ZM3.3,4L3.35,4L3.35,3.95L3.3,3.95L3.3,4ZM3.25,2L3.25,2.05L3.3,2.05L3.3,2L3.25,2ZM3.2,4L3.25,4L3.25,3.95L3.2,3.95L3.2,4ZM3.15,2L3.15,2.05L3.2,2.05L3.2,2L3.15,2ZM3.1,4L3.15,4L3.15,3.95L3.1,3.95L3.1,4ZM3.05,2L3.05,2.05L3.1,2.05L3.1,2L3.05,2ZM3,4L3.05,4L3.05,3.95L3,3.95L3,4ZM2.95,2L2.95,2.05L3,2.05L3,2L2.95,2ZM2.9,4L2.95,4L2.95,3.95L2.9,3.95L2.9,4ZM2.85,2L2.85,2.05L2.9,2.05L2.9,2L2.85,2ZM2.8,4L2.85,4L2.85,3.95L2.8,3.95L2.8,4ZM2.75,2L2.75,2.05L2.8,2.05L2.8,2L2.75,2ZM2.7,4L2.75,4L2.75,3.95L2.7,3.95L2.7,4ZM2.65,2L2.65,2.05L2.7,2.05L2.7,2L2.65,2ZM2.6,4L2.65,4L2.65,3.95L2.6,3.95L2.6,4ZM2.55,2L2.55,2.05L2.6,2.05L2.6,2L2.55,2ZM2.5,4L2.55,4L2.55,3.95L2.5,3.95L2.5,4ZM2.45,2L2.45,2.05L2.5,2.05L2.5,2L2.45,2ZM2.4,4L2.45,4L2.45,3.95L2.4,3.95L2.4,4ZM2.35,2L2.35,2.05L2.4,2.05L2.4,2L2.35,2ZM2.3,4L2.35,4L2.35,3.95L2.3,3.95L2.3,4ZM2.25,2L2.25,2.05L2.3,2.05L2.3,2L2.25,2ZM2.2,4L2.25,4L2.25,3.95L2.2,3.95L2.2,4ZM2.15,2L2.15,2.05L2.2,2.05L2.2,2L2.15,2ZM2.1,4L2.15,4L2.15,3.95L2.1,3.95L2.1,4ZM2,2L2.1,2L2.1,2.05L2,2.05L2,2ZM2.05,3.9L2.05,4L2,4L2,3.9L2.05,3.9ZM2,2.2L2,2.25L2.05,2.25L2.05,2.2L2,2.2ZM2,2.1L2,2.15L2.05,2.15L2.05,2.1L2,2.1ZM2,3.4L2,3.45L2.05,3.45L2.05,3.4L2,3.4ZM2,3.5L2,3.55L2.05,3.55L2.05,3.5L2,3.5ZM2,3.6L2,3.65L2.05,3.65L2.05,3.6L2,3.6ZM2,3.7L2,3.75L2.05,3.75L2.05,3.7L2,3.7ZM2,3.8L2,3.85L2.05,3.85L2.05,3.8L2,3.8ZM2,2.7L2,2.75L2.05,2.75L2.05,2.7L2,2.7ZM2,2.8L2,2.85L2.05,2.85L2.05,2.8L2,2.8ZM2,2.5L2,2.55L2.05,2.55L2.05,2.5L2,2.5ZM2,2.4L2,2.45L2.05,2.45L2.05,2.4L2,2.4ZM2,2.3L2,2.35L2.05,2.35L2.05,2.3L2,2.3ZM2,3L2,3.05L2.05,3.05L2.05,3L2,3ZM2,3.1L2,3.15L2.05,3.15L2.05,3.1L2,3.1ZM2,3.2L2,3.25L2.05,3.25L2.05,3.2L2,3.2ZM2,3.3L2,3.35L2.05,3.35L2.05,3.3L2,3.3ZM2,2.9L2,2.95L2.05,2.95L2.05,2.9L2,2.9ZM2,2.6L2,2.65L2.05,2.65L2.05,2.6L2,2.6Z" style="fill:white;"/>
            </g>
            <g transform="matrix(1,0,0,1,26,23)">
                <rect x="2" y="2" width="2" height="2"/>
                <path d="M4,3.95L4,4L3.9,4L3.9,3.95L4,3.95ZM4,3.85L3.95,3.85L3.95,3.9L4,3.9L4,3.85ZM4,3.8L4,3.75L3.95,3.75L3.95,3.8L4,3.8ZM4,3.65L3.95,3.65L3.95,3.7L4,3.7L4,3.65ZM4,3.55L3.95,3.55L3.95,3.6L4,3.6L4,3.55ZM4,3.45L3.95,3.45L3.95,3.5L4,3.5L4,3.45ZM4,3.35L3.95,3.35L3.95,3.4L4,3.4L4,3.35ZM4,3.25L3.95,3.25L3.95,3.3L4,3.3L4,3.25ZM4,3.15L3.95,3.15L3.95,3.2L4,3.2L4,3.15ZM4,3.05L3.95,3.05L3.95,3.1L4,3.1L4,3.05ZM4,2.95L3.95,2.95L3.95,3L4,3L4,2.95ZM4,2.85L3.95,2.85L3.95,2.9L4,2.9L4,2.85ZM4,2.75L3.95,2.75L3.95,2.8L4,2.8L4,2.75ZM4,2.65L3.95,2.65L3.95,2.7L4,2.7L4,2.65ZM4,2.6L4,2.55L3.95,2.55L3.95,2.6L4,2.6ZM4,2.45L3.95,2.45L3.95,2.5L4,2.5L4,2.45ZM4,2.35L3.95,2.35L3.95,2.4L4,2.4L4,2.35ZM4,2.25L3.95,2.25L3.95,2.3L4,2.3L4,2.25ZM4,2.15L3.95,2.15L3.95,2.2L4,2.2L4,2.15ZM3.95,2L4,2L4,2.05L3.999,2.05L4,2.05L4,2.1L3.95,2.1L3.95,2ZM3.85,2L3.85,2.05L3.9,2.05L3.9,2L3.85,2ZM3.8,4L3.85,4L3.85,3.95L3.8,3.95L3.8,4ZM3.75,2L3.75,2.05L3.8,2.05L3.8,2L3.75,2ZM3.7,4L3.75,4L3.75,3.95L3.7,3.95L3.7,4ZM3.65,2L3.65,2.05L3.7,2.05L3.7,2L3.65,2ZM3.6,4L3.65,4L3.65,3.95L3.6,3.95L3.6,4ZM3.55,2L3.55,2.05L3.6,2.05L3.6,2L3.55,2ZM3.5,4L3.55,4L3.55,3.95L3.5,3.95L3.5,4ZM3.45,2L3.45,2.05L3.5,2.05L3.5,2L3.45,2ZM3.4,4L3.45,4L3.45,3.95L3.4,3.95L3.4,4ZM3.35,2L3.35,2.05L3.4,2.05L3.4,2L3.35,2ZM3.3,4L3.35,4L3.35,3.95L3.3,3.95L3.3,4ZM3.25,2L3.25,2.05L3.3,2.05L3.3,2L3.25,2ZM3.2,4L3.25,4L3.25,3.95L3.2,3.95L3.2,4ZM3.15,2L3.15,2.05L3.2,2.05L3.2,2L3.15,2ZM3.1,4L3.15,4L3.15,3.95L3.1,3.95L3.1,4ZM3.05,2L3.05,2.05L3.1,2.05L3.1,2L3.05,2ZM3,4L3.05,4L3.05,3.95L3,3.95L3,4ZM2.95,2L2.95,2.05L3,2.05L3,2L2.95,2ZM2.9,4L2.95,4L2.95,3.95L2.9,3.95L2.9,4ZM2.85,2L2.85,2.05L2.9,2.05L2.9,2L2.85,2ZM2.8,4L2.85,4L2.85,3.95L2.8,3.95L2.8,4ZM2.75,2L2.75,2.05L2.8,2.05L2.8,2L2.75,2ZM2.7,4L2.75,4L2.75,3.95L2.7,3.95L2.7,4ZM2.65,2L2.65,2.05L2.7,2.05L2.7,2L2.65,2ZM2.6,4L2.65,4L2.65,3.95L2.6,3.95L2.6,4ZM2.55,2L2.55,2.05L2.6,2.05L2.6,2L2.55,2ZM2.5,4L2.55,4L2.55,3.95L2.5,3.95L2.5,4ZM2.45,2L2.45,2.05L2.5,2.05L2.5,2L2.45,2ZM2.4,4L2.45,4L2.45,3.95L2.4,3.95L2.4,4ZM2.35,2L2.35,2.05L2.4,2.05L2.4,2L2.35,2ZM2.3,4L2.35,4L2.35,3.95L2.3,3.95L2.3,4ZM2.25,2L2.25,2.05L2.3,2.05L2.3,2L2.25,2ZM2.2,4L2.25,4L2.25,3.95L2.2,3.95L2.2,4ZM2.15,2L2.15,2.05L2.2,2.05L2.2,2L2.15,2ZM2.1,4L2.15,4L2.15,3.95L2.1,3.95L2.1,4ZM2,2L2.1,2L2.1,2.05L2,2.05L2,2ZM2,3.5L2,3.55L2.05,3.55L2.05,3.5L2,3.5ZM2,2.4L2,2.45L2.05,2.45L2.05,2.4L2,2.4ZM2,2.3L2,2.35L2.05,2.35L2.05,2.3L2,2.3ZM2,2.2L2,2.25L2.05,2.25L2.05,2.2L2,2.2ZM2,2.1L2,2.15L2.05,2.15L2.05,2.1L2,2.1ZM2,3.4L2,3.45L2.05,3.45L2.05,3.4L2,3.4ZM2,3.7L2,3.75L2.05,3.75L2.05,3.7L2,3.7ZM2,3.8L2,3.85L2.05,3.85L2.05,3.8L2,3.8ZM2,2.5L2,2.55L2.05,2.55L2.05,2.5L2,2.5ZM2.05,3.9L2.05,4L2,4L2,3.9L2.05,3.9ZM2,3.6L2,3.65L2.05,3.65L2.05,3.6L2,3.6ZM2,2.8L2,2.85L2.05,2.85L2.05,2.8L2,2.8ZM2,2.7L2,2.75L2.05,2.75L2.05,2.7L2,2.7ZM2,2.6L2,2.65L2.05,2.65L2.05,2.6L2,2.6ZM2,3.2L2,3.25L2.05,3.25L2.05,3.2L2,3.2ZM2,3.3L2,3.35L2.05,3.35L2.05,3.3L2,3.3ZM2,3L2,3.05L2.05,3.05L2.05,3L2,3ZM2,3.1L2,3.15L2.05,3.15L2.05,3.1L2,3.1ZM2,2.9L2,2.95L2.05,2.95L2.05,2.9L2,2.9Z" style="fill:white;"/>
            </g>
        </g>
        <g id="DashGroup1" serif:id="DashGroup" transform="matrix(1,0,0,1,4,0)">
            <g transform="matrix(1,0,0,1,1,0)">
                <rect x="2" y="2" width="2" height="2"/>
                <path d="M4,3.95L4,4L3.9,4L3.9,3.95L4,3.95ZM4,3.85L3.95,3.85L3.95,3.9L4,3.9L4,3.85ZM4,3.8L4,3.75L3.95,3.75L3.95,3.8L4,3.8ZM4,3.65L3.95,3.65L3.95,3.7L4,3.7L4,3.65ZM4,3.55L3.95,3.55L3.95,3.6L4,3.6L4,3.55ZM4,3.45L3.95,3.45L3.95,3.5L4,3.5L4,3.45ZM4,3.35L3.95,3.35L3.95,3.4L4,3.4L4,3.35ZM4,3.25L3.95,3.25L3.95,3.3L4,3.3L4,3.25ZM4,3.15L3.95,3.15L3.95,3.2L4,3.2L4,3.15ZM4,3.05L3.95,3.05L3.95,3.1L4,3.1L4,3.05ZM4,2.95L3.95,2.95L3.95,3L4,3L4,2.95ZM4,2.9L4,2.85L3.95,2.85L3.95,2.9L4,2.9ZM4,2.75L3.95,2.75L3.95,2.8L4,2.8L4,2.75ZM4,2.65L3.95,2.65L3.95,2.7L4,2.7L4,2.65ZM4,2.6L4,2.55L3.95,2.55L3.95,2.6L4,2.6ZM4,2.45L3.95,2.45L3.95,2.5L4,2.5L4,2.45ZM4,2.35L3.95,2.35L3.95,2.4L4,2.4L4,2.35ZM4,2.25L3.95,2.25L3.95,2.3L4,2.3L4,2.25ZM4,2.2L4,2.15L3.95,2.15L3.95,2.2L4,2.2ZM3.95,2L4,2L4,2.049L3.999,2.05L4,2.05L4,2.1L3.95,2.1L3.95,2ZM3.85,2L3.85,2.05L3.9,2.05L3.9,2L3.85,2ZM3.8,4L3.85,4L3.85,3.95L3.8,3.95L3.8,4ZM3.75,2L3.75,2.05L3.8,2.05L3.8,2L3.75,2ZM3.7,4L3.75,4L3.75,3.95L3.7,3.95L3.7,4ZM3.65,2L3.65,2.05L3.7,2.05L3.7,2L3.65,2ZM3.6,4L3.65,4L3.65,3.95L3.6,3.95L3.6,4ZM3.55,2L3.55,2.05L3.6,2.05L3.6,2L3.55,2ZM3.5,4L3.55,4L3.55,3.95L3.5,3.95L3.5,4ZM3.45,2L3.45,2.05L3.5,2.05L3.5,2L3.45,2ZM3.4,4L3.45,4L3.45,3.95L3.4,3.95L3.4,4ZM3.35,2L3.35,2.05L3.4,2.05L3.4,2L3.35,2ZM3.3,4L3.35,4L3.35,3.95L3.3,3.95L3.3,4ZM3.25,2L3.25,2.05L3.3,2.05L3.3,2L3.25,2ZM3.2,4L3.25,4L3.25,3.95L3.2,3.95L3.2,4ZM3.15,2L3.15,2.05L3.2,2.05L3.2,2L3.15,2ZM3.1,4L3.15,4L3.15,3.95L3.1,3.95L3.1,4ZM3.05,2L3.05,2.05L3.1,2.05L3.1,2L3.05,2ZM3,4L3.05,4L3.05,3.95L3,3.95L3,4ZM2.95,2L2.95,2.05L3,2.05L3,2L2.95,2ZM2.9,4L2.95,4L2.95,3.95L2.9,3.95L2.9,4ZM2.85,2L2.85,2.05L2.9,2.05L2.9,2L2.85,2ZM2.8,4L2.85,4L2.85,3.95L2.8,3.95L2.8,4ZM2.75,2L2.75,2.05L2.8,2.05L2.8,2L2.75,2ZM2.7,4L2.75,4L2.75,3.95L2.7,3.95L2.7,4ZM2.65,2L2.65,2.05L2.7,2.05L2.7,2L2.65,2ZM2.6,4L2.65,4L2.65,3.95L2.6,3.95L2.6,4ZM2.55,2L2.55,2.05L2.6,2.05L2.6,2L2.55,2ZM2.5,4L2.55,4L2.55,3.95L2.5,3.95L2.5,4ZM2.45,2L2.45,2.05L2.5,2.05L2.5,2L2.45,2ZM2.4,4L2.45,4L2.45,3.95L2.4,3.95L2.4,4ZM2.35,2L2.35,2.05L2.4,2.05L2.4,2L2.35,2ZM2.3,4L2.35,4L2.35,3.95L2.3,3.95L2.3,4ZM2.25,2L2.25,2.05L2.3,2.05L2.3,2L2.25,2ZM2.2,4L2.25,4L2.25,3.95L2.2,3.95L2.2,4ZM2.15,2L2.15,2.05L2.2,2.05L2.2,2L2.15,2ZM2.1,4L2.15,4L2.15,3.95L2.1,3.95L2.1,4ZM2,2L2.1,2L2.1,2.05L2,2.05L2,2ZM2,3.8L2,3.85L2.05,3.85L2.05,3.8L2,3.8ZM2,3.7L2,3.75L2.05,3.75L2.05,3.7L2,3.7ZM2,3.5L2,3.55L2.05,3.55L2.05,3.5L2,3.5ZM2,2.3L2,2.35L2.05,2.35L2.05,2.3L2,2.3ZM2,2.2L2,2.25L2.05,2.25L2.05,2.2L2,2.2ZM2,2.1L2,2.15L2.05,2.15L2.05,2.1L2,2.1ZM2,3.4L2,3.45L2.05,3.45L2.05,3.4L2,3.4ZM2,3.6L2,3.65L2.05,3.65L2.05,3.6L2,3.6ZM2.05,3.9L2.05,4L2,4L2,3.9L2.05,3.9ZM2,2.4L2,2.45L2.05,2.45L2.05,2.4L2,2.4ZM2,3.3L2,3.35L2.05,3.35L2.05,3.3L2,3.3ZM2,2.8L2,2.85L2.05,2.85L2.05,2.8L2,2.8ZM2,2.7L2,2.75L2.05,2.75L2.05,2.7L2,2.7ZM2,2.6L2,2.65L2.05,2.65L2.05,2.6L2,2.6ZM2,2.5L2,2.55L2.05,2.55L2.05,2.5L2,2.5ZM2,3.2L2,3.25L2.05,3.25L2.05,3.2L2,3.2ZM2,3L2,3.05L2.05,3.05L2.05,3L2,3ZM2,3.1L2,3.15L2.05,3.15L2.05,3.1L2,3.1ZM2,2.9L2,2.95L2.05,2.95L2.05,2.9L2,2.9Z" style="fill:white;"/>
            </g>
            <g transform="matrix(1,0,0,1,5,0)">
                <rect x="2" y="2" width="2" height="2"/>
                <path d="M4,3.95L4,4L3.9,4L3.9,3.95L4,3.95ZM4,3.9L4,3.85L3.95,3.85L3.95,3.9L4,3.9ZM4,3.8L4,3.75L3.95,3.75L3.95,3.8L4,3.8ZM4,3.65L3.95,3.65L3.95,3.7L4,3.7L4,3.65ZM4,3.55L3.95,3.55L3.95,3.6L4,3.6L4,3.55ZM4,3.45L3.95,3.45L3.95,3.5L4,3.5L4,3.45ZM4,3.35L3.95,3.35L3.95,3.4L4,3.4L4,3.35ZM4,3.25L3.95,3.25L3.95,3.3L4,3.3L4,3.25ZM4,3.15L3.95,3.15L3.95,3.2L4,3.2L4,3.15ZM4,3.05L3.95,3.05L3.95,3.1L4,3.1L4,3.05ZM4,2.95L3.95,2.95L3.95,3L4,3L4,2.95ZM4,2.9L4,2.85L3.95,2.85L3.95,2.9L4,2.9ZM4,2.8L4,2.75L3.95,2.75L3.95,2.8L4,2.8ZM4,2.65L3.95,2.65L3.95,2.7L4,2.7L4,2.65ZM4,2.55L3.95,2.55L3.95,2.6L4,2.6L4,2.55ZM4,2.5L4,2.45L3.95,2.45L3.95,2.5L4,2.5ZM4,2.4L4,2.35L3.95,2.35L3.95,2.4L4,2.4ZM4,2.25L3.95,2.25L3.95,2.3L4,2.3L4,2.25ZM4,2.15L3.95,2.15L3.95,2.2L4,2.2L4,2.15ZM3.95,2L4,2L4,2.049L3.999,2.05L4,2.05L4,2.1L3.95,2.1L3.95,2ZM3.85,2L3.85,2.05L3.9,2.05L3.9,2L3.85,2ZM3.8,4L3.85,4L3.85,3.95L3.8,3.95L3.8,4ZM3.75,2L3.75,2.05L3.8,2.05L3.8,2L3.75,2ZM3.7,4L3.75,4L3.75,3.95L3.7,3.95L3.7,4ZM3.65,2L3.65,2.05L3.7,2.05L3.7,2L3.65,2ZM3.6,4L3.65,4L3.65,3.95L3.6,3.95L3.6,4ZM3.55,2L3.55,2.05L3.6,2.05L3.6,2L3.55,2ZM3.5,4L3.55,4L3.55,3.95L3.5,3.95L3.5,4ZM3.45,2L3.45,2.05L3.5,2.05L3.5,2L3.45,2ZM3.4,4L3.45,4L3.45,3.95L3.4,3.95L3.4,4ZM3.35,2L3.35,2.05L3.4,2.05L3.4,2L3.35,2ZM3.3,4L3.35,4L3.35,3.95L3.3,3.95L3.3,4ZM3.25,2L3.25,2.05L3.3,2.05L3.3,2L3.25,2ZM3.2,4L3.25,4L3.25,3.95L3.2,3.95L3.2,4ZM3.15,2L3.15,2.05L3.2,2.05L3.2,2L3.15,2ZM3.1,4L3.15,4L3.15,3.95L3.1,3.95L3.1,4ZM3.05,2L3.05,2.05L3.1,2.05L3.1,2L3.05,2ZM3,4L3.05,4L3.05,3.95L3,3.95L3,4ZM2.95,2L2.95,2.05L3,2.05L3,2L2.95,2ZM2.9,4L2.95,4L2.95,3.95L2.9,3.95L2.9,4ZM2.85,2L2.85,2.05L2.9,2.05L2.9,2L2.85,2ZM2.8,4L2.85,4L2.85,3.95L2.8,3.95L2.8,4ZM2.75,2L2.75,2.05L2.8,2.05L2.8,2L2.75,2ZM2.7,4L2.75,4L2.75,3.95L2.7,3.95L2.7,4ZM2.65,2L2.65,2.05L2.7,2.05L2.7,2L2.65,2ZM2.6,4L2.65,4L2.65,3.95L2.6,3.95L2.6,4ZM2.55,2L2.55,2.05L2.6,2.05L2.6,2L2.55,2ZM2.5,4L2.55,4L2.55,3.95L2.5,3.95L2.5,4ZM2.45,2L2.45,2.05L2.5,2.05L2.5,2L2.45,2ZM2.4,4L2.45,4L2.45,3.95L2.4,3.95L2.4,4ZM2.35,2L2.35,2.05L2.4,2.05L2.4,2L2.35,2ZM2.3,4L2.35,4L2.35,3.95L2.3,3.95L2.3,4ZM2.25,2L2.25,2.05L2.3,2.05L2.3,2L2.25,2ZM2.2,4L2.25,4L2.25,3.95L2.2,3.95L2.2,4ZM2.15,2L2.15,2.05L2.2,2.05L2.2,2L2.15,2ZM2.1,4L2.15,4L2.15,3.95L2.1,3.95L2.1,4ZM2,2L2.1,2L2.1,2.05L2,2.05L2,2ZM2,3.8L2,3.85L2.05,3.85L2.05,3.8L2,3.8ZM2,3.7L2,3.75L2.05,3.75L2.05,3.7L2,3.7ZM2,3.6L2,3.65L2.05,3.65L2.05,3.6L2,3.6ZM2.05,3.9L2.05,4L2,4L2,3.9L2.05,3.9ZM2,2.3L2,2.35L2.05,2.35L2.05,2.3L2,2.3ZM2,2.2L2,2.25L2.05,2.25L2.05,2.2L2,2.2ZM2,2.1L2,2.15L2.05,2.15L2.05,2.1L2,2.1ZM2,3.5L2,3.55L2.05,3.55L2.05,3.5L2,3.5ZM2,2.4L2,2.45L2.05,2.45L2.05,2.4L2,2.4ZM2,2.8L2,2.85L2.05,2.85L2.05,2.8L2,2.8ZM2,3L2,3.05L2.05,3.05L2.05,3L2,3ZM2,3.2L2,3.25L2.05,3.25L2.05,3.2L2,3.2ZM2,3.3L2,3.35L2.05,3.35L2.05,3.3L2,3.3ZM2,3.4L2,3.45L2.05,3.45L2.05,3.4L2,3.4ZM2,2.9L2,2.95L2.05,2.95L2.05,2.9L2,2.9ZM2,2.5L2,2.55L2.05,2.55L2.05,2.5L2,2.5ZM2,2.7L2,2.75L2.05,2.75L2.05,2.7L2,2.7ZM2,2.6L2,2.65L2.05,2.65L2.05,2.6L2,2.6ZM2,3.1L2,3.15L2.05,3.15L2.05,3.1L2,3.1Z" style="fill:white;"/>
            </g>
            <g transform="matrix(1,0,0,1,9,0)">
                <g id="DashGroup2" serif:id="DashGroup">
                    <rect x="2" y="2" width="2" height="2"/>
                    <path d="M4,3.95L4,4L3.9,4L3.9,3.95L4,3.95ZM4,3.85L3.95,3.85L3.95,3.9L4,3.9L4,3.85ZM4,3.8L4,3.75L3.95,3.75L3.95,3.8L4,3.8ZM4,3.65L3.95,3.65L3.95,3.7L4,3.7L4,3.65ZM4,3.55L3.95,3.55L3.95,3.6L4,3.6L4,3.55ZM4,3.45L3.95,3.45L3.95,3.5L4,3.5L4,3.45ZM4,3.35L3.95,3.35L3.95,3.4L4,3.4L4,3.35ZM4,3.25L3.95,3.25L3.95,3.3L4,3.3L4,3.25ZM4,3.15L3.95,3.15L3.95,3.2L4,3.2L4,3.15ZM4,3.05L3.95,3.05L3.95,3.1L4,3.1L4,3.05ZM4,2.95L3.95,2.95L3.95,3L4,3L4,2.95ZM4,2.85L3.95,2.85L3.95,2.9L4,2.9L4,2.85ZM4,2.75L3.95,2.75L3.95,2.8L4,2.8L4,2.75ZM4,2.65L3.95,2.65L3.95,2.7L4,2.7L4,2.65ZM4,2.55L3.95,2.55L3.95,2.6L4,2.6L4,2.55ZM4,2.45L3.95,2.45L3.95,2.5L4,2.5L4,2.45ZM4,2.35L3.95,2.35L3.95,2.4L4,2.4L4,2.35ZM4,2.25L3.95,2.25L3.95,2.3L4,2.3L4,2.25ZM4,2.15L3.95,2.15L3.95,2.2L4,2.2L4,2.15ZM3.95,2L4,2L4,2.049L3.999,2.05L4,2.05L4,2.1L3.95,2.1L3.95,2ZM3.85,2L3.85,2.05L3.9,2.05L3.9,2L3.85,2ZM3.8,4L3.85,4L3.85,3.95L3.8,3.95L3.8,4ZM3.75,2L3.75,2.05L3.8,2.05L3.8,2L3.75,2ZM3.7,4L3.75,4L3.75,3.95L3.7,3.95L3.7,4ZM3.65,2L3.65,2.05L3.7,2.05L3.7,2L3.65,2ZM3.6,4L3.65,4L3.65,3.95L3.6,3.95L3.6,4ZM3.55,2L3.55,2.05L3.6,2.05L3.6,2L3.55,2ZM3.5,4L3.55,4L3.55,3.95L3.5,3.95L3.5,4ZM3.45,2L3.45,2.05L3.5,2.05L3.5,2L3.45,2ZM3.4,4L3.45,4L3.45,3.95L3.4,3.95L3.4,4ZM3.35,2L3.35,2.05L3.4,2.05L3.4,2L3.35,2ZM3.3,4L3.35,4L3.35,3.95L3.3,3.95L3.3,4ZM3.25,2L3.25,2.05L3.3,2.05L3.3,2L3.25,2ZM3.2,4L3.25,4L3.25,3.95L3.2,3.95L3.2,4ZM3.15,2L3.15,2.05L3.2,2.05L3.2,2L3.15,2ZM3.1,4L3.15,4L3.15,3.95L3.1,3.95L3.1,4ZM3.05,2L3.05,2.05L3.1,2.05L3.1,2L3.05,2ZM3,4L3.05,4L3.05,3.95L3,3.95L3,4ZM2.95,2L2.95,2.05L3,2.05L3,2L2.95,2ZM2.9,4L2.95,4L2.95,3.95L2.9,3.95L2.9,4ZM2.85,2L2.85,2.05L2.9,2.05L2.9,2L2.85,2ZM2.8,4L2.85,4L2.85,3.95L2.8,3.95L2.8,4ZM2.75,2L2.75,2.05L2.8,2.05L2.8,2L2.75,2ZM2.7,4L2.75,4L2.75,3.95L2.7,3.95L2.7,4ZM2.65,2L2.65,2.05L2.7,2.05L2.7,2L2.65,2ZM2.6,4L2.65,4L2.65,3.95L2.6,3.95L2.6,4ZM2.55,2L2.55,2.05L2.6,2.05L2.6,2L2.55,2ZM2.5,4L2.55,4L2.55,3.95L2.5,3.95L2.5,4ZM2.45,2L2.45,2.05L2.5,2.05L2.5,2L2.45,2ZM2.4,4L2.45,4L2.45,3.95L2.4,3.95L2.4,4ZM2.35,2L2.35,2.05L2.4,2.05L2.4,2L2.35,2ZM2.3,4L2.35,4L2.35,3.95L2.3,3.95L2.3,4ZM2.25,2L2.25,2.05L2.3,2.05L2.3,2L2.25,2ZM2.2,4L2.25,4L2.25,3.95L2.2,3.95L2.2,4ZM2.15,2L2.15,2.05L2.2,2.05L2.2,2L2.15,2ZM2.1,4L2.15,4L2.15,3.95L2.1,3.95L2.1,4ZM2,2L2.1,2L2.1,2.05L2,2.05L2,2ZM2,3.8L2,3.85L2.05,3.85L2.05,3.8L2,3.8ZM2,3.6L2,3.65L2.05,3.65L2.05,3.6L2,3.6ZM2,3.7L2,3.75L2.05,3.75L2.05,3.7L2,3.7ZM2,3.5L2,3.55L2.05,3.55L2.05,3.5L2,3.5ZM2,2.4L2,2.45L2.05,2.45L2.05,2.4L2,2.4ZM2,3.4L2,3.45L2.05,3.45L2.05,3.4L2,3.4ZM2.05,3.9L2.05,4L2,4L2,3.9L2.05,3.9ZM2,2.8L2,2.85L2.05,2.85L2.05,2.8L2,2.8ZM2,2.7L2,2.75L2.05,2.75L2.05,2.7L2,2.7ZM2,2.6L2,2.65L2.05,2.65L2.05,2.6L2,2.6ZM2,2.3L2,2.35L2.05,2.35L2.05,2.3L2,2.3ZM2,2.2L2,2.25L2.05,2.25L2.05,2.2L2,2.2ZM2,2.5L2,2.55L2.05,2.55L2.05,2.5L2,2.5ZM2,2.1L2,2.15L2.05,2.15L2.05,2.1L2,2.1ZM2,3L2,3.05L2.05,3.05L2.05,3L2,3ZM2,3.1L2,3.15L2.05,3.15L2.05,3.1L2,3.1ZM2,3.2L2,3.25L2.05,3.25L2.05,3.2L2,3.2ZM2,3.3L2,3.35L2.05,3.35L2.05,3.3L2,3.3ZM2,2.9L2,2.95L2.05,2.95L2.05,2.9L2,2.9Z" style="fill:white;"/>
                </g>
            </g>
            <g transform="matrix(1,0,0,1,13,0)">
                <rect x="2" y="2" width="2" height="2"/>
                <path d="M4,3.95L4,4L3.9,4L3.9,3.95L4,3.95ZM4,3.9L4,3.85L3.95,3.85L3.95,3.9L4,3.9ZM4,3.75L3.95,3.75L3.95,3.8L4,3.8L4,3.75ZM4,3.65L3.95,3.65L3.95,3.7L4,3.7L4,3.65ZM4,3.55L3.95,3.55L3.95,3.6L4,3.6L4,3.55ZM4,3.45L3.95,3.45L3.95,3.5L4,3.5L4,3.45ZM4,3.35L3.95,3.35L3.95,3.4L4,3.4L4,3.35ZM4,3.25L3.95,3.25L3.95,3.3L4,3.3L4,3.25ZM4,3.15L3.95,3.15L3.95,3.2L4,3.2L4,3.15ZM4,3.05L3.95,3.05L3.95,3.1L4,3.1L4,3.05ZM4,2.95L3.95,2.95L3.95,3L4,3L4,2.95ZM4,2.85L3.95,2.85L3.95,2.9L4,2.9L4,2.85ZM4,2.8L4,2.75L3.95,2.75L3.95,2.8L4,2.8ZM4,2.65L3.95,2.65L3.95,2.7L4,2.7L4,2.65ZM4,2.6L4,2.55L3.95,2.55L3.95,2.6L4,2.6ZM4,2.45L3.95,2.45L3.95,2.5L4,2.5L4,2.45ZM4,2.35L3.95,2.35L3.95,2.4L4,2.4L4,2.35ZM4,2.25L3.95,2.25L3.95,2.3L4,2.3L4,2.25ZM4,2.15L3.95,2.15L3.95,2.2L4,2.2L4,2.15ZM3.95,2L4,2L4,2.049L3.999,2.05L4,2.05L4,2.1L3.95,2.1L3.95,2ZM3.85,2L3.85,2.05L3.9,2.05L3.9,2L3.85,2ZM3.8,4L3.85,4L3.85,3.95L3.8,3.95L3.8,4ZM3.75,2L3.75,2.05L3.8,2.05L3.8,2L3.75,2ZM3.7,4L3.75,4L3.75,3.95L3.7,3.95L3.7,4ZM3.65,2L3.65,2.05L3.7,2.05L3.7,2L3.65,2ZM3.6,4L3.65,4L3.65,3.95L3.6,3.95L3.6,4ZM3.55,2L3.55,2.05L3.6,2.05L3.6,2L3.55,2ZM3.5,4L3.55,4L3.55,3.95L3.5,3.95L3.5,4ZM3.45,2L3.45,2.05L3.5,2.05L3.5,2L3.45,2ZM3.4,4L3.45,4L3.45,3.95L3.4,3.95L3.4,4ZM3.35,2L3.35,2.05L3.4,2.05L3.4,2L3.35,2ZM3.3,4L3.35,4L3.35,3.95L3.3,3.95L3.3,4ZM3.25,2L3.25,2.05L3.3,2.05L3.3,2L3.25,2ZM3.2,4L3.25,4L3.25,3.95L3.2,3.95L3.2,4ZM3.15,2L3.15,2.05L3.2,2.05L3.2,2L3.15,2ZM3.1,4L3.15,4L3.15,3.95L3.1,3.95L3.1,4ZM3.05,2L3.05,2.05L3.1,2.05L3.1,2L3.05,2ZM3,4L3.05,4L3.05,3.95L3,3.95L3,4ZM2.95,2L2.95,2.05L3,2.05L3,2L2.95,2ZM2.9,4L2.95,4L2.95,3.95L2.9,3.95L2.9,4ZM2.85,2L2.85,2.05L2.9,2.05L2.9,2L2.85,2ZM2.8,4L2.85,4L2.85,3.95L2.8,3.95L2.8,4ZM2.75,2L2.75,2.05L2.8,2.05L2.8,2L2.75,2ZM2.7,4L2.75,4L2.75,3.95L2.7,3.95L2.7,4ZM2.65,2L2.65,2.05L2.7,2.05L2.7,2L2.65,2ZM2.6,4L2.65,4L2.65,3.95L2.6,3.95L2.6,4ZM2.55,2L2.55,2.05L2.6,2.05L2.6,2L2.55,2ZM2.5,4L2.55,4L2.55,3.95L2.5,3.95L2.5,4ZM2.45,2L2.45,2.05L2.5,2.05L2.5,2L2.45,2ZM2.4,4L2.45,4L2.45,3.95L2.4,3.95L2.4,4ZM2.35,2L2.35,2.05L2.4,2.05L2.4,2L2.35,2ZM2.3,4L2.35,4L2.35,3.95L2.3,3.95L2.3,4ZM2.25,2L2.25,2.05L2.3,2.05L2.3,2L2.25,2ZM2.2,4L2.25,4L2.25,3.95L2.2,3.95L2.2,4ZM2.15,2L2.15,2.05L2.2,2.05L2.2,2L2.15,2ZM2.1,4L2.15,4L2.15,3.95L2.1,3.95L2.1,4ZM2,2L2.1,2L2.1,2.05L2,2.05L2,2ZM2.05,3.9L2.05,4L2,4L2,3.9L2.05,3.9ZM2,3.8L2,3.85L2.05,3.85L2.05,3.8L2,3.8ZM2,3.7L2,3.75L2.05,3.75L2.05,3.7L2,3.7ZM2,2.1L2,2.15L2.05,2.15L2.05,2.1L2,2.1ZM2,2.7L2,2.75L2.05,2.75L2.05,2.7L2,2.7ZM2,2.6L2,2.65L2.05,2.65L2.05,2.6L2,2.6ZM2,2.5L2,2.55L2.05,2.55L2.05,2.5L2,2.5ZM2,2.4L2,2.45L2.05,2.45L2.05,2.4L2,2.4ZM2,2.3L2,2.35L2.05,2.35L2.05,2.3L2,2.3ZM2,2.8L2,2.85L2.05,2.85L2.05,2.8L2,2.8ZM2,3L2,3.05L2.05,3.05L2.05,3L2,3ZM2,3.1L2,3.15L2.05,3.15L2.05,3.1L2,3.1ZM2,3.2L2,3.25L2.05,3.25L2.05,3.2L2,3.2ZM2,3.3L2,3.35L2.05,3.35L2.05,3.3L2,3.3ZM2,3.4L2,3.45L2.05,3.45L2.05,3.4L2,3.4ZM2,3.5L2,3.55L2.05,3.55L2.05,3.5L2,3.5ZM2,3.6L2,3.65L2.05,3.65L2.05,3.6L2,3.6ZM2,2.9L2,2.95L2.05,2.95L2.05,2.9L2,2.9ZM2,2.2L2,2.25L2.05,2.25L2.05,2.2L2,2.2Z" style="fill:white;"/>
            </g>
            <g transform="matrix(1,0,0,1,17,0)">
                <g id="DashGroup3" serif:id="DashGroup">
                    <rect x="2" y="2" width="2" height="2"/>
                    <path d="M4,3.95L4,4L3.9,4L3.9,3.95L4,3.95ZM4,3.85L3.95,3.85L3.95,3.9L4,3.9L4,3.85ZM4,3.75L3.95,3.75L3.95,3.8L4,3.8L4,3.75ZM4,3.65L3.95,3.65L3.95,3.7L4,3.7L4,3.65ZM4,3.6L4,3.55L3.95,3.55L3.95,3.6L4,3.6ZM4,3.45L3.95,3.45L3.95,3.5L4,3.5L4,3.45ZM4,3.35L3.95,3.35L3.95,3.4L4,3.4L4,3.35ZM4,3.25L3.95,3.25L3.95,3.3L4,3.3L4,3.25ZM4,3.15L3.95,3.15L3.95,3.2L4,3.2L4,3.15ZM4,3.05L3.95,3.05L3.95,3.1L4,3.1L4,3.05ZM4,2.95L3.95,2.95L3.95,3L4,3L4,2.95ZM4,2.85L3.95,2.85L3.95,2.9L4,2.9L4,2.85ZM4,2.8L4,2.75L3.95,2.75L3.95,2.8L4,2.8ZM4,2.65L3.95,2.65L3.95,2.7L4,2.7L4,2.65ZM4,2.55L3.95,2.55L3.95,2.6L4,2.6L4,2.55ZM4,2.45L3.95,2.45L3.95,2.5L4,2.5L4,2.45ZM4,2.35L3.95,2.35L3.95,2.4L4,2.4L4,2.35ZM4,2.25L3.95,2.25L3.95,2.3L4,2.3L4,2.25ZM4,2.15L3.95,2.15L3.95,2.2L4,2.2L4,2.15ZM3.95,2L4,2L4,2.049L3.999,2.05L4,2.05L4,2.1L3.95,2.1L3.95,2ZM3.85,2L3.85,2.05L3.9,2.05L3.9,2L3.85,2ZM3.8,4L3.85,4L3.85,3.95L3.8,3.95L3.8,4ZM3.75,2L3.75,2.05L3.8,2.05L3.8,2L3.75,2ZM3.7,4L3.75,4L3.75,3.95L3.7,3.95L3.7,4ZM3.65,2L3.65,2.05L3.7,2.05L3.7,2L3.65,2ZM3.6,4L3.65,4L3.65,3.95L3.6,3.95L3.6,4ZM3.55,2L3.55,2.05L3.6,2.05L3.6,2L3.55,2ZM3.5,4L3.55,4L3.55,3.95L3.5,3.95L3.5,4ZM3.45,2L3.45,2.05L3.5,2.05L3.5,2L3.45,2ZM3.4,4L3.45,4L3.45,3.95L3.4,3.95L3.4,4ZM3.35,2L3.35,2.05L3.4,2.05L3.4,2L3.35,2ZM3.3,4L3.35,4L3.35,3.95L3.3,3.95L3.3,4ZM3.25,2L3.25,2.05L3.3,2.05L3.3,2L3.25,2ZM3.2,4L3.25,4L3.25,3.95L3.2,3.95L3.2,4ZM3.15,2L3.15,2.05L3.2,2.05L3.2,2L3.15,2ZM3.1,4L3.15,4L3.15,3.95L3.1,3.95L3.1,4ZM3.05,2L3.05,2.05L3.1,2.05L3.1,2L3.05,2ZM3,4L3.05,4L3.05,3.95L3,3.95L3,4ZM2.95,2L2.95,2.05L3,2.05L3,2L2.95,2ZM2.9,4L2.95,4L2.95,3.95L2.9,3.95L2.9,4ZM2.85,2L2.85,2.05L2.9,2.05L2.9,2L2.85,2ZM2.8,4L2.85,4L2.85,3.95L2.8,3.95L2.8,4ZM2.75,2L2.75,2.05L2.8,2.05L2.8,2L2.75,2ZM2.7,4L2.75,4L2.75,3.95L2.7,3.95L2.7,4ZM2.65,2L2.65,2.05L2.7,2.05L2.7,2L2.65,2ZM2.6,4L2.65,4L2.65,3.95L2.6,3.95L2.6,4ZM2.55,2L2.55,2.05L2.6,2.05L2.6,2L2.55,2ZM2.5,4L2.55,4L2.55,3.95L2.5,3.95L2.5,4ZM2.45,2L2.45,2.05L2.5,2.05L2.5,2L2.45,2ZM2.4,4L2.45,4L2.45,3.95L2.4,3.95L2.4,4ZM2.35,2L2.35,2.05L2.4,2.05L2.4,2L2.35,2ZM2.3,4L2.35,4L2.35,3.95L2.3,3.95L2.3,4ZM2.25,2L2.25,2.05L2.3,2.05L2.3,2L2.25,2ZM2.2,4L2.25,4L2.25,3.95L2.2,3.95L2.2,4ZM2.15,2L2.15,2.05L2.2,2.05L2.2,2L2.15,2ZM2.1,4L2.15,4L2.15,3.95L2.1,3.95L2.1,4ZM2,2L2.1,2L2.1,2.05L2,2.05L2,2ZM2,2.1L2,2.15L2.05,2.15L2.05,2.1L2,2.1ZM2,3.8L2,3.85L2.05,3.85L2.05,3.8L2,3.8ZM2,2.2L2,2.25L2.05,2.25L2.05,2.2L2,2.2ZM2,3.5L2,3.55L2.05,3.55L2.05,3.5L2,3.5ZM2.05,3.9L2.05,4L2,4L2,3.9L2.05,3.9ZM2,2.3L2,2.35L2.05,2.35L2.05,2.3L2,2.3ZM2,3.2L2,3.25L2.05,3.25L2.05,3.2L2,3.2ZM2,3.3L2,3.35L2.05,3.35L2.05,3.3L2,3.3ZM2,3.4L2,3.45L2.05,3.45L2.05,3.4L2,3.4ZM2,2.4L2,2.45L2.05,2.45L2.05,2.4L2,2.4ZM2,3.7L2,3.75L2.05,3.75L2.05,3.7L2,3.7ZM2,3.6L2,3.65L2.05,3.65L2.05,3.6L2,3.6ZM2,2.8L2,2.85L2.05,2.85L2.05,2.8L2,2.8ZM2,2.7L2,2.75L2.05,2.75L2.05,2.7L2,2.7ZM2,2.6L2,2.65L2.05,2.65L2.05,2.6L2,2.6ZM2,2.5L2,2.55L2.05,2.55L2.05,2.5L2,2.5ZM2,3L2,3.05L2.05,3.05L2.05,3L2,3ZM2,3.1L2,3.15L2.05,3.15L2.05,3.1L2,3.1ZM2,2.9L2,2.95L2.05,2.95L2.05,2.9L2,2.9Z" style="fill:white;"/>
                </g>
            </g>
            <g transform="matrix(1,0,0,1,21,0)">
                <rect x="2" y="2" width="2" height="2"/>
                <path d="M4,3.95L4,4L3.9,4L3.9,3.95L4,3.95ZM4,3.85L3.95,3.85L3.95,3.9L4,3.9L4,3.85ZM4,3.75L3.95,3.75L3.95,3.8L4,3.8L4,3.75ZM4,3.65L3.95,3.65L3.95,3.7L4,3.7L4,3.65ZM4,3.55L3.95,3.55L3.95,3.6L4,3.6L4,3.55ZM4,3.45L3.95,3.45L3.95,3.5L4,3.5L4,3.45ZM4,3.35L3.95,3.35L3.95,3.4L4,3.4L4,3.35ZM4,3.25L3.95,3.25L3.95,3.3L4,3.3L4,3.25ZM4,3.15L3.95,3.15L3.95,3.2L4,3.2L4,3.15ZM4,3.05L3.95,3.05L3.95,3.1L4,3.1L4,3.05ZM4,2.95L3.95,2.95L3.95,3L4,3L4,2.95ZM4,2.85L3.95,2.85L3.95,2.9L4,2.9L4,2.85ZM4,2.8L4,2.75L3.95,2.75L3.95,2.8L4,2.8ZM4,2.7L4,2.65L3.95,2.65L3.95,2.7L4,2.7ZM4,2.55L3.95,2.55L3.95,2.6L4,2.6L4,2.55ZM4,2.45L3.95,2.45L3.95,2.5L4,2.5L4,2.45ZM4,2.35L3.95,2.35L3.95,2.4L4,2.4L4,2.35ZM4,2.25L3.95,2.25L3.95,2.3L4,2.3L4,2.25ZM4,2.15L3.95,2.15L3.95,2.2L4,2.2L4,2.15ZM3.95,2L4,2L4,2.049L3.999,2.05L4,2.05L4,2.1L3.95,2.1L3.95,2ZM3.85,2L3.85,2.05L3.9,2.05L3.9,2L3.85,2ZM3.8,4L3.85,4L3.85,3.95L3.8,3.95L3.8,4ZM3.75,2L3.75,2.05L3.8,2.05L3.8,2L3.75,2ZM3.7,4L3.75,4L3.75,3.95L3.7,3.95L3.7,4ZM3.65,2L3.65,2.05L3.7,2.05L3.7,2L3.65,2ZM3.6,4L3.65,4L3.65,3.95L3.6,3.95L3.6,4ZM3.55,2L3.55,2.05L3.6,2.05L3.6,2L3.55,2ZM3.5,4L3.55,4L3.55,3.95L3.5,3.95L3.5,4ZM3.45,2L3.45,2.05L3.5,2.05L3.5,2L3.45,2ZM3.4,4L3.45,4L3.45,3.95L3.4,3.95L3.4,4ZM3.35,2L3.35,2.05L3.4,2.05L3.4,2L3.35,2ZM3.3,4L3.35,4L3.35,3.95L3.3,3.95L3.3,4ZM3.25,2L3.25,2.05L3.3,2.05L3.3,2L3.25,2ZM3.2,4L3.25,4L3.25,3.95L3.2,3.95L3.2,4ZM3.15,2L3.15,2.05L3.2,2.05L3.2,2L3.15,2ZM3.1,4L3.15,4L3.15,3.95L3.1,3.95L3.1,4ZM3.05,2L3.05,2.05L3.1,2.05L3.1,2L3.05,2ZM3,4L3.05,4L3.05,3.95L3,3.95L3,4ZM2.95,2L2.95,2.05L3,2.05L3,2L2.95,2ZM2.9,4L2.95,4L2.95,3.95L2.9,3.95L2.9,4ZM2.85,2L2.85,2.05L2.9,2.05L2.9,2L2.85,2ZM2.8,4L2.85,4L2.85,3.95L2.8,3.95L2.8,4ZM2.75,2L2.75,2.05L2.8,2.05L2.8,2L2.75,2ZM2.7,4L2.75,4L2.75,3.95L2.7,3.95L2.7,4ZM2.65,2L2.65,2.05L2.7,2.05L2.7,2L2.65,2ZM2.6,4L2.65,4L2.65,3.95L2.6,3.95L2.6,4ZM2.55,2L2.55,2.05L2.6,2.05L2.6,2L2.55,2ZM2.5,4L2.55,4L2.55,3.95L2.5,3.95L2.5,4ZM2.45,2L2.45,2.05L2.5,2.05L2.5,2L2.45,2ZM2.4,4L2.45,4L2.45,3.95L2.4,3.95L2.4,4ZM2.35,2L2.35,2.05L2.4,2.05L2.4,2L2.35,2ZM2.3,4L2.35,4L2.35,3.95L2.3,3.95L2.3,4ZM2.25,2L2.25,2.05L2.3,2.05L2.3,2L2.25,2ZM2.2,4L2.25,4L2.25,3.95L2.2,3.95L2.2,4ZM2.15,2L2.15,2.05L2.2,2.05L2.2,2L2.15,2ZM2.1,4L2.15,4L2.15,3.95L2.1,3.95L2.1,4ZM2,2L2.1,2L2.1,2.05L2,2.05L2,2ZM2.05,3.9L2.05,4L2,4L2,3.9L2.05,3.9ZM2,2.4L2,2.45L2.05,2.45L2.05,2.4L2,2.4ZM2,2.3L2,2.35L2.05,2.35L2.05,2.3L2,2.3ZM2,2.2L2,2.25L2.05,2.25L2.05,2.2L2,2.2ZM2,2.1L2,2.15L2.05,2.15L2.05,2.1L2,2.1ZM2,3.7L2,3.75L2.05,3.75L2.05,3.7L2,3.7ZM2,3.8L2,3.85L2.05,3.85L2.05,3.8L2,3.8ZM2,2.6L2,2.65L2.05,2.65L2.05,2.6L2,2.6ZM2,2.5L2,2.55L2.05,2.55L2.05,2.5L2,2.5ZM2,2.7L2,2.75L2.05,2.75L2.05,2.7L2,2.7ZM2,3.5L2,3.55L2.05,3.55L2.05,3.5L2,3.5ZM2,3.6L2,3.65L2.05,3.65L2.05,3.6L2,3.6ZM2,3.4L2,3.45L2.05,3.45L2.05,3.4L2,3.4ZM2,2.8L2,2.85L2.05,2.85L2.05,2.8L2,2.8ZM2,3.2L2,3.25L2.05,3.25L2.05,3.2L2,3.2ZM2,3.3L2,3.35L2.05,3.35L2.05,3.3L2,3.3ZM2,2.9L2,2.95L2.05,2.95L2.05,2.9L2,2.9ZM2,3L2,3.05L2.05,3.05L2.05,3L2,3ZM2,3.1L2,3.15L2.05,3.15L2.05,3.1L2,3.1Z" style="fill:white;"/>
            </g>
            <g transform="matrix(1,0,0,1,1,26)">
                <rect x="2" y="2" width="2" height="2"/>
                <path d="M3.9,3.95L4,3.95L4,4L3.9,4L3.9,3.95ZM4,3.85L3.95,3.85L3.95,3.9L4,3.9L4,3.85ZM4,3.75L3.95,3.75L3.95,3.8L4,3.8L4,3.75ZM4,3.65L3.95,3.65L3.95,3.7L4,3.7L4,3.65ZM4,3.55L3.95,3.55L3.95,3.6L4,3.6L4,3.55ZM4,3.45L3.95,3.45L3.95,3.5L4,3.5L4,3.45ZM4,3.35L3.95,3.35L3.95,3.4L4,3.4L4,3.35ZM4,3.25L3.95,3.25L3.95,3.3L4,3.3L4,3.25ZM4,3.15L3.95,3.15L3.95,3.2L4,3.2L4,3.15ZM4,3.05L3.95,3.05L3.95,3.1L4,3.1L4,3.05ZM4,2.95L3.95,2.95L3.95,3L4,3L4,2.95ZM4,2.85L3.95,2.85L3.95,2.9L4,2.9L4,2.85ZM4,2.75L3.95,2.75L3.95,2.8L4,2.8L4,2.75ZM4,2.65L3.95,2.65L3.95,2.7L4,2.7L4,2.65ZM4,2.6L4,2.55L3.95,2.55L3.95,2.6L4,2.6ZM4,2.45L3.95,2.45L3.95,2.5L4,2.5L4,2.45ZM4,2.35L3.95,2.35L3.95,2.4L4,2.4L4,2.35ZM4,2.25L3.95,2.25L3.95,2.3L4,2.3L4,2.25ZM4,2.2L4,2.15L3.95,2.15L3.95,2.2L4,2.2ZM3.95,2L4,2L4,2.05L3.999,2.05L4,2.05L4,2.1L3.95,2.1L3.95,2ZM3.85,2L3.85,2.05L3.9,2.05L3.9,2L3.85,2ZM3.8,4L3.85,4L3.85,3.95L3.8,3.95L3.8,4ZM3.75,2L3.75,2.05L3.8,2.05L3.8,2L3.75,2ZM3.7,4L3.75,4L3.75,3.95L3.7,3.95L3.7,4ZM3.65,2L3.65,2.05L3.7,2.05L3.7,2L3.65,2ZM3.6,4L3.65,4L3.65,3.95L3.6,3.95L3.6,4ZM3.55,2L3.55,2.05L3.6,2.05L3.6,2L3.55,2ZM3.5,4L3.55,4L3.55,3.95L3.5,3.95L3.5,4ZM3.45,2L3.45,2.05L3.5,2.05L3.5,2L3.45,2ZM3.4,4L3.45,4L3.45,3.95L3.4,3.95L3.4,4ZM3.35,2L3.35,2.05L3.4,2.05L3.4,2L3.35,2ZM3.3,4L3.35,4L3.35,3.95L3.3,3.95L3.3,4ZM3.25,2L3.25,2.05L3.3,2.05L3.3,2L3.25,2ZM3.2,4L3.25,4L3.25,3.95L3.2,3.95L3.2,4ZM3.15,2L3.15,2.05L3.2,2.05L3.2,2L3.15,2ZM3.1,4L3.15,4L3.15,3.95L3.1,3.95L3.1,4ZM3.05,2L3.05,2.05L3.1,2.05L3.1,2L3.05,2ZM3,4L3.05,4L3.05,3.95L3,3.95L3,4ZM2.95,2L2.95,2.05L3,2.05L3,2L2.95,2ZM2.9,4L2.95,4L2.95,3.95L2.9,3.95L2.9,4ZM2.85,2L2.85,2.05L2.9,2.05L2.9,2L2.85,2ZM2.8,4L2.85,4L2.85,3.95L2.8,3.95L2.8,4ZM2.75,2L2.75,2.05L2.8,2.05L2.8,2L2.75,2ZM2.7,4L2.75,4L2.75,3.95L2.7,3.95L2.7,4ZM2.65,2L2.65,2.05L2.7,2.05L2.7,2L2.65,2ZM2.6,4L2.65,4L2.65,3.95L2.6,3.95L2.6,4ZM2.55,2L2.55,2.05L2.6,2.05L2.6,2L2.55,2ZM2.5,4L2.55,4L2.55,3.95L2.5,3.95L2.5,4ZM2.45,2L2.45,2.05L2.5,2.05L2.5,2L2.45,2ZM2.4,4L2.45,4L2.45,3.95L2.4,3.95L2.4,4ZM2.35,2L2.35,2.05L2.4,2.05L2.4,2L2.35,2ZM2.3,4L2.35,4L2.35,3.95L2.3,3.95L2.3,4ZM2.25,2L2.25,2.05L2.3,2.05L2.3,2L2.25,2ZM2.2,4L2.25,4L2.25,3.95L2.2,3.95L2.2,4ZM2.15,2L2.15,2.05L2.2,2.05L2.2,2L2.15,2ZM2.1,4L2.15,4L2.15,3.95L2.1,3.95L2.1,4ZM2,2L2.1,2L2.1,2.05L2,2.05L2,2ZM2,3.8L2,3.85L2.05,3.85L2.05,3.8L2,3.8ZM2,3.6L2,3.65L2.05,3.65L2.05,3.6L2,3.6ZM2,3.7L2,3.75L2.05,3.75L2.05,3.7L2,3.7ZM2,3.5L2,3.55L2.05,3.55L2.05,3.5L2,3.5ZM2,3.4L2,3.45L2.05,3.45L2.05,3.4L2,3.4ZM2.05,3.9L2.05,4L2,4L2,3.9L2.05,3.9ZM2,2.5L2,2.55L2.05,2.55L2.05,2.5L2,2.5ZM2,2.4L2,2.45L2.05,2.45L2.05,2.4L2,2.4ZM2,3.2L2,3.25L2.05,3.25L2.05,3.2L2,3.2ZM2,2.8L2,2.85L2.05,2.85L2.05,2.8L2,2.8ZM2,2.6L2,2.65L2.05,2.65L2.05,2.6L2,2.6ZM2,2.3L2,2.35L2.05,2.35L2.05,2.3L2,2.3ZM2,2.2L2,2.25L2.05,2.25L2.05,2.2L2,2.2ZM2,2.1L2,2.15L2.05,2.15L2.05,2.1L2,2.1ZM2,3.3L2,3.35L2.05,3.35L2.05,3.3L2,3.3ZM2,2.7L2,2.75L2.05,2.75L2.05,2.7L2,2.7ZM2,3L2,3.05L2.05,3.05L2.05,3L2,3ZM2,3.1L2,3.15L2.05,3.15L2.05,3.1L2,3.1ZM2,2.9L2,2.95L2.05,2.95L2.05,2.9L2,2.9Z" style="fill:white;"/>
            </g>
            <g transform="matrix(1,0,0,1,5,26)">
                <rect x="2" y="2" width="2" height="2"/>
                <path d="M3.9,3.95L4,3.95L4,4L3.9,4L3.9,3.95ZM4,3.9L4,3.85L3.95,3.85L3.95,3.9L4,3.9ZM4,3.8L4,3.75L3.95,3.75L3.95,3.8L4,3.8ZM4,3.65L3.95,3.65L3.95,3.7L4,3.7L4,3.65ZM4,3.55L3.95,3.55L3.95,3.6L4,3.6L4,3.55ZM4,3.45L3.95,3.45L3.95,3.5L4,3.5L4,3.45ZM4,3.35L3.95,3.35L3.95,3.4L4,3.4L4,3.35ZM4,3.25L3.95,3.25L3.95,3.3L4,3.3L4,3.25ZM4,3.15L3.95,3.15L3.95,3.2L4,3.2L4,3.15ZM4,3.05L3.95,3.05L3.95,3.1L4,3.1L4,3.05ZM4,2.95L3.95,2.95L3.95,3L4,3L4,2.95ZM4,2.9L4,2.85L3.95,2.85L3.95,2.9L4,2.9ZM4,2.8L4,2.75L3.95,2.75L3.95,2.8L4,2.8ZM4,2.65L3.95,2.65L3.95,2.7L4,2.7L4,2.65ZM4,2.55L3.95,2.55L3.95,2.6L4,2.6L4,2.55ZM4,2.5L4,2.45L3.95,2.45L3.95,2.5L4,2.5ZM4,2.4L4,2.35L3.95,2.35L3.95,2.4L4,2.4ZM4,2.25L3.95,2.25L3.95,2.3L4,2.3L4,2.25ZM4,2.15L3.95,2.15L3.95,2.2L4,2.2L4,2.15ZM3.95,2L4,2L4,2.05L3.999,2.05L4,2.05L4,2.1L3.95,2.1L3.95,2ZM3.85,2L3.85,2.05L3.9,2.05L3.9,2L3.85,2ZM3.8,4L3.85,4L3.85,3.95L3.8,3.95L3.8,4ZM3.75,2L3.75,2.05L3.8,2.05L3.8,2L3.75,2ZM3.7,4L3.75,4L3.75,3.95L3.7,3.95L3.7,4ZM3.65,2L3.65,2.05L3.7,2.05L3.7,2L3.65,2ZM3.6,4L3.65,4L3.65,3.95L3.6,3.95L3.6,4ZM3.55,2L3.55,2.05L3.6,2.05L3.6,2L3.55,2ZM3.5,4L3.55,4L3.55,3.95L3.5,3.95L3.5,4ZM3.45,2L3.45,2.05L3.5,2.05L3.5,2L3.45,2ZM3.4,4L3.45,4L3.45,3.95L3.4,3.95L3.4,4ZM3.35,2L3.35,2.05L3.4,2.05L3.4,2L3.35,2ZM3.3,4L3.35,4L3.35,3.95L3.3,3.95L3.3,4ZM3.25,2L3.25,2.05L3.3,2.05L3.3,2L3.25,2ZM3.2,4L3.25,4L3.25,3.95L3.2,3.95L3.2,4ZM3.15,2L3.15,2.05L3.2,2.05L3.2,2L3.15,2ZM3.1,4L3.15,4L3.15,3.95L3.1,3.95L3.1,4ZM3.05,2L3.05,2.05L3.1,2.05L3.1,2L3.05,2ZM3,4L3.05,4L3.05,3.95L3,3.95L3,4ZM2.95,2L2.95,2.05L3,2.05L3,2L2.95,2ZM2.9,4L2.95,4L2.95,3.95L2.9,3.95L2.9,4ZM2.85,2L2.85,2.05L2.9,2.05L2.9,2L2.85,2ZM2.8,4L2.85,4L2.85,3.95L2.8,3.95L2.8,4ZM2.75,2L2.75,2.05L2.8,2.05L2.8,2L2.75,2ZM2.7,4L2.75,4L2.75,3.95L2.7,3.95L2.7,4ZM2.65,2L2.65,2.05L2.7,2.05L2.7,2L2.65,2ZM2.6,4L2.65,4L2.65,3.95L2.6,3.95L2.6,4ZM2.55,2L2.55,2.05L2.6,2.05L2.6,2L2.55,2ZM2.5,4L2.55,4L2.55,3.95L2.5,3.95L2.5,4ZM2.45,2L2.45,2.05L2.5,2.05L2.5,2L2.45,2ZM2.4,4L2.45,4L2.45,3.95L2.4,3.95L2.4,4ZM2.35,2L2.35,2.05L2.4,2.05L2.4,2L2.35,2ZM2.3,4L2.35,4L2.35,3.95L2.3,3.95L2.3,4ZM2.25,2L2.25,2.05L2.3,2.05L2.3,2L2.25,2ZM2.2,4L2.25,4L2.25,3.95L2.2,3.95L2.2,4ZM2.15,2L2.15,2.05L2.2,2.05L2.2,2L2.15,2ZM2.1,4L2.15,4L2.15,3.95L2.1,3.95L2.1,4ZM2,2L2.1,2L2.1,2.05L2,2.05L2,2ZM2,3.8L2,3.85L2.05,3.85L2.05,3.8L2,3.8ZM2,3.7L2,3.75L2.05,3.75L2.05,3.7L2,3.7ZM2,3.6L2,3.65L2.05,3.65L2.05,3.6L2,3.6ZM2.05,3.9L2.05,4L2,4L2,3.9L2.05,3.9ZM2,2.3L2,2.35L2.05,2.35L2.05,2.3L2,2.3ZM2,2.2L2,2.25L2.05,2.25L2.05,2.2L2,2.2ZM2,2.1L2,2.15L2.05,2.15L2.05,2.1L2,2.1ZM2,3.5L2,3.55L2.05,3.55L2.05,3.5L2,3.5ZM2,2.4L2,2.45L2.05,2.45L2.05,2.4L2,2.4ZM2,2.8L2,2.85L2.05,2.85L2.05,2.8L2,2.8ZM2,3L2,3.05L2.05,3.05L2.05,3L2,3ZM2,3.2L2,3.25L2.05,3.25L2.05,3.2L2,3.2ZM2,3.3L2,3.35L2.05,3.35L2.05,3.3L2,3.3ZM2,3.4L2,3.45L2.05,3.45L2.05,3.4L2,3.4ZM2,2.9L2,2.95L2.05,2.95L2.05,2.9L2,2.9ZM2,2.5L2,2.55L2.05,2.55L2.05,2.5L2,2.5ZM2,2.7L2,2.75L2.05,2.75L2.05,2.7L2,2.7ZM2,2.6L2,2.65L2.05,2.65L2.05,2.6L2,2.6ZM2,3.1L2,3.15L2.05,3.15L2.05,3.1L2,3.1Z" style="fill:white;"/>
            </g>
            <g transform="matrix(1,0,0,1,9,26)">
                <rect x="2" y="2" width="2" height="2"/>
                <path d="M4,3.95L4,4L3.9,4L3.9,3.95L4,3.95ZM4,3.85L3.95,3.85L3.95,3.9L4,3.9L4,3.85ZM4,3.8L4,3.75L3.95,3.75L3.95,3.8L4,3.8ZM4,3.65L3.95,3.65L3.95,3.7L4,3.7L4,3.65ZM4,3.55L3.95,3.55L3.95,3.6L4,3.6L4,3.55ZM4,3.45L3.95,3.45L3.95,3.5L4,3.5L4,3.45ZM4,3.35L3.95,3.35L3.95,3.4L4,3.4L4,3.35ZM4,3.25L3.95,3.25L3.95,3.3L4,3.3L4,3.25ZM4,3.15L3.95,3.15L3.95,3.2L4,3.2L4,3.15ZM4,3.05L3.95,3.05L3.95,3.1L4,3.1L4,3.05ZM4,2.95L3.95,2.95L3.95,3L4,3L4,2.95ZM4,2.85L3.95,2.85L3.95,2.9L4,2.9L4,2.85ZM4,2.75L3.95,2.75L3.95,2.8L4,2.8L4,2.75ZM4,2.65L3.95,2.65L3.95,2.7L4,2.7L4,2.65ZM4,2.55L3.95,2.55L3.95,2.6L4,2.6L4,2.55ZM4,2.45L3.95,2.45L3.95,2.5L4,2.5L4,2.45ZM4,2.35L3.95,2.35L3.95,2.4L4,2.4L4,2.35ZM4,2.25L3.95,2.25L3.95,2.3L4,2.3L4,2.25ZM4,2.15L3.95,2.15L3.95,2.2L4,2.2L4,2.15ZM3.95,2L4,2L4,2.05L3.999,2.05L4,2.05L4,2.1L3.95,2.1L3.95,2ZM3.85,2L3.85,2.05L3.9,2.05L3.9,2L3.85,2ZM3.8,4L3.85,4L3.85,3.95L3.8,3.95L3.8,4ZM3.75,2L3.75,2.05L3.8,2.05L3.8,2L3.75,2ZM3.7,4L3.75,4L3.75,3.95L3.7,3.95L3.7,4ZM3.65,2L3.65,2.05L3.7,2.05L3.7,2L3.65,2ZM3.6,4L3.65,4L3.65,3.95L3.6,3.95L3.6,4ZM3.55,2L3.55,2.05L3.6,2.05L3.6,2L3.55,2ZM3.5,4L3.55,4L3.55,3.95L3.5,3.95L3.5,4ZM3.45,2L3.45,2.05L3.5,2.05L3.5,2L3.45,2ZM3.4,4L3.45,4L3.45,3.95L3.4,3.95L3.4,4ZM3.35,2L3.35,2.05L3.4,2.05L3.4,2L3.35,2ZM3.3,4L3.35,4L3.35,3.95L3.3,3.95L3.3,4ZM3.25,2L3.25,2.05L3.3,2.05L3.3,2L3.25,2ZM3.2,4L3.25,4L3.25,3.95L3.2,3.95L3.2,4ZM3.15,2L3.15,2.05L3.2,2.05L3.2,2L3.15,2ZM3.1,4L3.15,4L3.15,3.95L3.1,3.95L3.1,4ZM3.05,2L3.05,2.05L3.1,2.05L3.1,2L3.05,2ZM3,4L3.05,4L3.05,3.95L3,3.95L3,4ZM2.95,2L2.95,2.05L3,2.05L3,2L2.95,2ZM2.9,4L2.95,4L2.95,3.95L2.9,3.95L2.9,4ZM2.85,2L2.85,2.05L2.9,2.05L2.9,2L2.85,2ZM2.8,4L2.85,4L2.85,3.95L2.8,3.95L2.8,4ZM2.75,2L2.75,2.05L2.8,2.05L2.8,2L2.75,2ZM2.7,4L2.75,4L2.75,3.95L2.7,3.95L2.7,4ZM2.65,2L2.65,2.05L2.7,2.05L2.7,2L2.65,2ZM2.6,4L2.65,4L2.65,3.95L2.6,3.95L2.6,4ZM2.55,2L2.55,2.05L2.6,2.05L2.6,2L2.55,2ZM2.5,4L2.55,4L2.55,3.95L2.5,3.95L2.5,4ZM2.45,2L2.45,2.05L2.5,2.05L2.5,2L2.45,2ZM2.4,4L2.45,4L2.45,3.95L2.4,3.95L2.4,4ZM2.35,2L2.35,2.05L2.4,2.05L2.4,2L2.35,2ZM2.3,4L2.35,4L2.35,3.95L2.3,3.95L2.3,4ZM2.25,2L2.25,2.05L2.3,2.05L2.3,2L2.25,2ZM2.2,4L2.25,4L2.25,3.95L2.2,3.95L2.2,4ZM2.15,2L2.15,2.05L2.2,2.05L2.2,2L2.15,2ZM2.1,4L2.15,4L2.15,3.95L2.1,3.95L2.1,4ZM2,2L2.1,2L2.1,2.05L2,2.05L2,2ZM2,3.8L2,3.85L2.05,3.85L2.05,3.8L2,3.8ZM2,3.7L2,3.75L2.05,3.75L2.05,3.7L2,3.7ZM2,2.6L2,2.65L2.05,2.65L2.05,2.6L2,2.6ZM2,2.5L2,2.55L2.05,2.55L2.05,2.5L2,2.5ZM2,2.4L2,2.45L2.05,2.45L2.05,2.4L2,2.4ZM2,2.3L2,2.35L2.05,2.35L2.05,2.3L2,2.3ZM2,2.2L2,2.25L2.05,2.25L2.05,2.2L2,2.2ZM2,2.1L2,2.15L2.05,2.15L2.05,2.1L2,2.1ZM2,3.6L2,3.65L2.05,3.65L2.05,3.6L2,3.6ZM2.05,3.9L2.05,4L2,4L2,3.9L2.05,3.9ZM2,3.4L2,3.45L2.05,3.45L2.05,3.4L2,3.4ZM2,3.5L2,3.55L2.05,3.55L2.05,3.5L2,3.5ZM2,2.7L2,2.75L2.05,2.75L2.05,2.7L2,2.7ZM2,2.8L2,2.85L2.05,2.85L2.05,2.8L2,2.8ZM2,2.9L2,2.95L2.05,2.95L2.05,2.9L2,2.9ZM2,3L2,3.05L2.05,3.05L2.05,3L2,3ZM2,3.1L2,3.15L2.05,3.15L2.05,3.1L2,3.1ZM2,3.2L2,3.25L2.05,3.25L2.05,3.2L2,3.2ZM2,3.3L2,3.35L2.05,3.35L2.05,3.3L2,3.3Z" style="fill:white;"/>
            </g>
            <g transform="matrix(1,0,0,1,13,26)">
                <rect x="2" y="2" width="2" height="2"/>
                <path d="M4,3.95L4,4L3.9,4L3.9,3.95L4,3.95ZM4,3.85L3.95,3.85L3.95,3.9L4,3.9L4,3.85ZM4,3.75L3.95,3.75L3.95,3.8L4,3.8L4,3.75ZM4,3.65L3.95,3.65L3.95,3.7L4,3.7L4,3.65ZM4,3.55L3.95,3.55L3.95,3.6L4,3.6L4,3.55ZM4,3.45L3.95,3.45L3.95,3.5L4,3.5L4,3.45ZM4,3.4L4,3.35L3.95,3.35L3.95,3.4L4,3.4ZM4,3.25L3.95,3.25L3.95,3.3L4,3.3L4,3.25ZM4,3.15L3.95,3.15L3.95,3.2L4,3.2L4,3.15ZM4,3.05L3.95,3.05L3.95,3.1L4,3.1L4,3.05ZM4,2.95L3.95,2.95L3.95,3L4,3L4,2.95ZM4,2.85L3.95,2.85L3.95,2.9L4,2.9L4,2.85ZM4,2.75L3.95,2.75L3.95,2.8L4,2.8L4,2.75ZM4,2.65L3.95,2.65L3.95,2.7L4,2.7L4,2.65ZM4,2.6L4,2.55L3.95,2.55L3.95,2.6L4,2.6ZM4,2.45L3.95,2.45L3.95,2.5L4,2.5L4,2.45ZM4,2.35L3.95,2.35L3.95,2.4L4,2.4L4,2.35ZM4,2.25L3.95,2.25L3.95,2.3L4,2.3L4,2.25ZM4,2.15L3.95,2.15L3.95,2.2L4,2.2L4,2.15ZM3.95,2L4,2L4,2.05L3.999,2.05L4,2.05L4,2.1L3.95,2.1L3.95,2ZM3.85,2L3.85,2.05L3.9,2.05L3.9,2L3.85,2ZM3.8,4L3.85,4L3.85,3.95L3.8,3.95L3.8,4ZM3.75,2L3.75,2.05L3.8,2.05L3.8,2L3.75,2ZM3.7,4L3.75,4L3.75,3.95L3.7,3.95L3.7,4ZM3.65,2L3.65,2.05L3.7,2.05L3.7,2L3.65,2ZM3.6,4L3.65,4L3.65,3.95L3.6,3.95L3.6,4ZM3.55,2L3.55,2.05L3.6,2.05L3.6,2L3.55,2ZM3.5,4L3.55,4L3.55,3.95L3.5,3.95L3.5,4ZM3.45,2L3.45,2.05L3.5,2.05L3.5,2L3.45,2ZM3.4,4L3.45,4L3.45,3.95L3.4,3.95L3.4,4ZM3.35,2L3.35,2.05L3.4,2.05L3.4,2L3.35,2ZM3.3,4L3.35,4L3.35,3.95L3.3,3.95L3.3,4ZM3.25,2L3.25,2.05L3.3,2.05L3.3,2L3.25,2ZM3.2,4L3.25,4L3.25,3.95L3.2,3.95L3.2,4ZM3.15,2L3.15,2.05L3.2,2.05L3.2,2L3.15,2ZM3.1,4L3.15,4L3.15,3.95L3.1,3.95L3.1,4ZM3.05,2L3.05,2.05L3.1,2.05L3.1,2L3.05,2ZM3,4L3.05,4L3.05,3.95L3,3.95L3,4ZM2.95,2L2.95,2.05L3,2.05L3,2L2.95,2ZM2.9,4L2.95,4L2.95,3.95L2.9,3.95L2.9,4ZM2.85,2L2.85,2.05L2.9,2.05L2.9,2L2.85,2ZM2.8,4L2.85,4L2.85,3.95L2.8,3.95L2.8,4ZM2.75,2L2.75,2.05L2.8,2.05L2.8,2L2.75,2ZM2.7,4L2.75,4L2.75,3.95L2.7,3.95L2.7,4ZM2.65,2L2.65,2.05L2.7,2.05L2.7,2L2.65,2ZM2.6,4L2.65,4L2.65,3.95L2.6,3.95L2.6,4ZM2.55,2L2.55,2.05L2.6,2.05L2.6,2L2.55,2ZM2.5,4L2.55,4L2.55,3.95L2.5,3.95L2.5,4ZM2.45,2L2.45,2.05L2.5,2.05L2.5,2L2.45,2ZM2.4,4L2.45,4L2.45,3.95L2.4,3.95L2.4,4ZM2.35,2L2.35,2.05L2.4,2.05L2.4,2L2.35,2ZM2.3,4L2.35,4L2.35,3.95L2.3,3.95L2.3,4ZM2.25,2L2.25,2.05L2.3,2.05L2.3,2L2.25,2ZM2.2,4L2.25,4L2.25,3.95L2.2,3.95L2.2,4ZM2.15,2L2.15,2.05L2.2,2.05L2.2,2L2.15,2ZM2.1,4L2.15,4L2.15,3.95L2.1,3.95L2.1,4ZM2,2L2.1,2L2.1,2.05L2,2.05L2,2ZM2.05,3.9L2.05,4L2,4L2,3.9L2.05,3.9ZM2,2.1L2,2.15L2.05,2.15L2.05,2.1L2,2.1ZM2,3.8L2,3.85L2.05,3.85L2.05,3.8L2,3.8ZM2,2.7L2,2.75L2.05,2.75L2.05,2.7L2,2.7ZM2,2.6L2,2.65L2.05,2.65L2.05,2.6L2,2.6ZM2,2.5L2,2.55L2.05,2.55L2.05,2.5L2,2.5ZM2,2.4L2,2.45L2.05,2.45L2.05,2.4L2,2.4ZM2,2.3L2,2.35L2.05,2.35L2.05,2.3L2,2.3ZM2,2.2L2,2.25L2.05,2.25L2.05,2.2L2,2.2ZM2,2.8L2,2.85L2.05,2.85L2.05,2.8L2,2.8ZM2,3.6L2,3.65L2.05,3.65L2.05,3.6L2,3.6ZM2,3.7L2,3.75L2.05,3.75L2.05,3.7L2,3.7ZM2,3.5L2,3.55L2.05,3.55L2.05,3.5L2,3.5ZM2,3L2,3.05L2.05,3.05L2.05,3L2,3ZM2,3.3L2,3.35L2.05,3.35L2.05,3.3L2,3.3ZM2,3.4L2,3.45L2.05,3.45L2.05,3.4L2,3.4ZM2,2.9L2,2.95L2.05,2.95L2.05,2.9L2,2.9ZM2,3.1L2,3.15L2.05,3.15L2.05,3.1L2,3.1ZM2,3.2L2,3.25L2.05,3.25L2.05,3.2L2,3.2Z" style="fill:white;"/>
            </g>
            <g transform="matrix(1,0,0,1,17,26)">
                <rect x="2" y="2" width="2" height="2"/>
                <path d="M4,3.95L4,4L3.9,4L3.9,3.95L4,3.95ZM4,3.85L3.95,3.85L3.95,3.9L4,3.9L4,3.85ZM4,3.75L3.95,3.75L3.95,3.8L4,3.8L4,3.75ZM4,3.65L3.95,3.65L3.95,3.7L4,3.7L4,3.65ZM4,3.6L4,3.55L3.95,3.55L3.95,3.6L4,3.6ZM4,3.45L3.95,3.45L3.95,3.5L4,3.5L4,3.45ZM4,3.35L3.95,3.35L3.95,3.4L4,3.4L4,3.35ZM4,3.25L3.95,3.25L3.95,3.3L4,3.3L4,3.25ZM4,3.15L3.95,3.15L3.95,3.2L4,3.2L4,3.15ZM4,3.05L3.95,3.05L3.95,3.1L4,3.1L4,3.05ZM4,2.95L3.95,2.95L3.95,3L4,3L4,2.95ZM4,2.85L3.95,2.85L3.95,2.9L4,2.9L4,2.85ZM4,2.8L4,2.75L3.95,2.75L3.95,2.8L4,2.8ZM4,2.65L3.95,2.65L3.95,2.7L4,2.7L4,2.65ZM4,2.55L3.95,2.55L3.95,2.6L4,2.6L4,2.55ZM4,2.45L3.95,2.45L3.95,2.5L4,2.5L4,2.45ZM4,2.35L3.95,2.35L3.95,2.4L4,2.4L4,2.35ZM4,2.25L3.95,2.25L3.95,2.3L4,2.3L4,2.25ZM4,2.15L3.95,2.15L3.95,2.2L4,2.2L4,2.15ZM3.95,2L4,2L4,2.05L3.999,2.05L4,2.05L4,2.1L3.95,2.1L3.95,2ZM3.85,2L3.85,2.05L3.9,2.05L3.9,2L3.85,2ZM3.8,4L3.85,4L3.85,3.95L3.8,3.95L3.8,4ZM3.75,2L3.75,2.05L3.8,2.05L3.8,2L3.75,2ZM3.7,4L3.75,4L3.75,3.95L3.7,3.95L3.7,4ZM3.65,2L3.65,2.05L3.7,2.05L3.7,2L3.65,2ZM3.6,4L3.65,4L3.65,3.95L3.6,3.95L3.6,4ZM3.55,2L3.55,2.05L3.6,2.05L3.6,2L3.55,2ZM3.5,4L3.55,4L3.55,3.95L3.5,3.95L3.5,4ZM3.45,2L3.45,2.05L3.5,2.05L3.5,2L3.45,2ZM3.4,4L3.45,4L3.45,3.95L3.4,3.95L3.4,4ZM3.35,2L3.35,2.05L3.4,2.05L3.4,2L3.35,2ZM3.3,4L3.35,4L3.35,3.95L3.3,3.95L3.3,4ZM3.25,2L3.25,2.05L3.3,2.05L3.3,2L3.25,2ZM3.2,4L3.25,4L3.25,3.95L3.2,3.95L3.2,4ZM3.15,2L3.15,2.05L3.2,2.05L3.2,2L3.15,2ZM3.1,4L3.15,4L3.15,3.95L3.1,3.95L3.1,4ZM3.05,2L3.05,2.05L3.1,2.05L3.1,2L3.05,2ZM3,4L3.05,4L3.05,3.95L3,3.95L3,4ZM2.95,2L2.95,2.05L3,2.05L3,2L2.95,2ZM2.9,4L2.95,4L2.95,3.95L2.9,3.95L2.9,4ZM2.85,2L2.85,2.05L2.9,2.05L2.9,2L2.85,2ZM2.8,4L2.85,4L2.85,3.95L2.8,3.95L2.8,4ZM2.75,2L2.75,2.05L2.8,2.05L2.8,2L2.75,2ZM2.7,4L2.75,4L2.75,3.95L2.7,3.95L2.7,4ZM2.65,2L2.65,2.05L2.7,2.05L2.7,2L2.65,2ZM2.6,4L2.65,4L2.65,3.95L2.6,3.95L2.6,4ZM2.55,2L2.55,2.05L2.6,2.05L2.6,2L2.55,2ZM2.5,4L2.55,4L2.55,3.95L2.5,3.95L2.5,4ZM2.45,2L2.45,2.05L2.5,2.05L2.5,2L2.45,2ZM2.4,4L2.45,4L2.45,3.95L2.4,3.95L2.4,4ZM2.35,2L2.35,2.05L2.4,2.05L2.4,2L2.35,2ZM2.3,4L2.35,4L2.35,3.95L2.3,3.95L2.3,4ZM2.25,2L2.25,2.05L2.3,2.05L2.3,2L2.25,2ZM2.2,4L2.25,4L2.25,3.95L2.2,3.95L2.2,4ZM2.15,2L2.15,2.05L2.2,2.05L2.2,2L2.15,2ZM2.1,4L2.15,4L2.15,3.95L2.1,3.95L2.1,4ZM2,2L2.1,2L2.1,2.05L2,2.05L2,2ZM2,2.1L2,2.15L2.05,2.15L2.05,2.1L2,2.1ZM2,3.8L2,3.85L2.05,3.85L2.05,3.8L2,3.8ZM2,2.2L2,2.25L2.05,2.25L2.05,2.2L2,2.2ZM2,3.5L2,3.55L2.05,3.55L2.05,3.5L2,3.5ZM2.05,3.9L2.05,4L2,4L2,3.9L2.05,3.9ZM2,2.3L2,2.35L2.05,2.35L2.05,2.3L2,2.3ZM2,3.2L2,3.25L2.05,3.25L2.05,3.2L2,3.2ZM2,3.3L2,3.35L2.05,3.35L2.05,3.3L2,3.3ZM2,3.4L2,3.45L2.05,3.45L2.05,3.4L2,3.4ZM2,2.4L2,2.45L2.05,2.45L2.05,2.4L2,2.4ZM2,3.7L2,3.75L2.05,3.75L2.05,3.7L2,3.7ZM2,3.6L2,3.65L2.05,3.65L2.05,3.6L2,3.6ZM2,2.8L2,2.85L2.05,2.85L2.05,2.8L2,2.8ZM2,2.7L2,2.75L2.05,2.75L2.05,2.7L2,2.7ZM2,2.6L2,2.65L2.05,2.65L2.05,2.6L2,2.6ZM2,2.5L2,2.55L2.05,2.55L2.05,2.5L2,2.5ZM2,3L2,3.05L2.05,3.05L2.05,3L2,3ZM2,3.1L2,3.15L2.05,3.15L2.05,3.1L2,3.1ZM2,2.9L2,2.95L2.05,2.95L2.05,2.9L2,2.9Z" style="fill:white;"/>
            </g>
            <g transform="matrix(1,0,0,1,21,26)">
                <rect x="2" y="2" width="2" height="2"/>
                <path d="M4,3.95L4,4L3.9,4L3.9,3.95L4,3.95ZM4,3.85L3.95,3.85L3.95,3.9L4,3.9L4,3.85ZM4,3.75L3.95,3.75L3.95,3.8L4,3.8L4,3.75ZM4,3.65L3.95,3.65L3.95,3.7L4,3.7L4,3.65ZM4,3.55L3.95,3.55L3.95,3.6L4,3.6L4,3.55ZM4,3.45L3.95,3.45L3.95,3.5L4,3.5L4,3.45ZM4,3.35L3.95,3.35L3.95,3.4L4,3.4L4,3.35ZM4,3.25L3.95,3.25L3.95,3.3L4,3.3L4,3.25ZM4,3.15L3.95,3.15L3.95,3.2L4,3.2L4,3.15ZM4,3.05L3.95,3.05L3.95,3.1L4,3.1L4,3.05ZM4,2.95L3.95,2.95L3.95,3L4,3L4,2.95ZM4,2.85L3.95,2.85L3.95,2.9L4,2.9L4,2.85ZM4,2.8L4,2.75L3.95,2.75L3.95,2.8L4,2.8ZM4,2.7L4,2.65L3.95,2.65L3.95,2.7L4,2.7ZM4,2.55L3.95,2.55L3.95,2.6L4,2.6L4,2.55ZM4,2.45L3.95,2.45L3.95,2.5L4,2.5L4,2.45ZM4,2.35L3.95,2.35L3.95,2.4L4,2.4L4,2.35ZM4,2.25L3.95,2.25L3.95,2.3L4,2.3L4,2.25ZM4,2.15L3.95,2.15L3.95,2.2L4,2.2L4,2.15ZM3.95,2L4,2L4,2.05L3.999,2.05L4,2.05L4,2.1L3.95,2.1L3.95,2ZM3.85,2L3.85,2.05L3.9,2.05L3.9,2L3.85,2ZM3.8,4L3.85,4L3.85,3.95L3.8,3.95L3.8,4ZM3.75,2L3.75,2.05L3.8,2.05L3.8,2L3.75,2ZM3.7,4L3.75,4L3.75,3.95L3.7,3.95L3.7,4ZM3.65,2L3.65,2.05L3.7,2.05L3.7,2L3.65,2ZM3.6,4L3.65,4L3.65,3.95L3.6,3.95L3.6,4ZM3.55,2L3.55,2.05L3.6,2.05L3.6,2L3.55,2ZM3.5,4L3.55,4L3.55,3.95L3.5,3.95L3.5,4ZM3.45,2L3.45,2.05L3.5,2.05L3.5,2L3.45,2ZM3.4,4L3.45,4L3.45,3.95L3.4,3.95L3.4,4ZM3.35,2L3.35,2.05L3.4,2.05L3.4,2L3.35,2ZM3.3,4L3.35,4L3.35,3.95L3.3,3.95L3.3,4ZM3.25,2L3.25,2.05L3.3,2.05L3.3,2L3.25,2ZM3.2,4L3.25,4L3.25,3.95L3.2,3.95L3.2,4ZM3.15,2L3.15,2.05L3.2,2.05L3.2,2L3.15,2ZM3.1,4L3.15,4L3.15,3.95L3.1,3.95L3.1,4ZM3.05,2L3.05,2.05L3.1,2.05L3.1,2L3.05,2ZM3,4L3.05,4L3.05,3.95L3,3.95L3,4ZM2.95,2L2.95,2.05L3,2.05L3,2L2.95,2ZM2.9,4L2.95,4L2.95,3.95L2.9,3.95L2.9,4ZM2.85,2L2.85,2.05L2.9,2.05L2.9,2L2.85,2ZM2.8,4L2.85,4L2.85,3.95L2.8,3.95L2.8,4ZM2.75,2L2.75,2.05L2.8,2.05L2.8,2L2.75,2ZM2.7,4L2.75,4L2.75,3.95L2.7,3.95L2.7,4ZM2.65,2L2.65,2.05L2.7,2.05L2.7,2L2.65,2ZM2.6,4L2.65,4L2.65,3.95L2.6,3.95L2.6,4ZM2.55,2L2.55,2.05L2.6,2.05L2.6,2L2.55,2ZM2.5,4L2.55,4L2.55,3.95L2.5,3.95L2.5,4ZM2.45,2L2.45,2.05L2.5,2.05L2.5,2L2.45,2ZM2.4,4L2.45,4L2.45,3.95L2.4,3.95L2.4,4ZM2.35,2L2.35,2.05L2.4,2.05L2.4,2L2.35,2ZM2.3,4L2.35,4L2.35,3.95L2.3,3.95L2.3,4ZM2.25,2L2.25,2.05L2.3,2.05L2.3,2L2.25,2ZM2.2,4L2.25,4L2.25,3.95L2.2,3.95L2.2,4ZM2.15,2L2.15,2.05L2.2,2.05L2.2,2L2.15,2ZM2.1,4L2.15,4L2.15,3.95L2.1,3.95L2.1,4ZM2,2L2.1,2L2.1,2.05L2,2.05L2,2ZM2.05,3.9L2.05,4L2,4L2,3.9L2.05,3.9ZM2,2.4L2,2.45L2.05,2.45L2.05,2.4L2,2.4ZM2,2.3L2,2.35L2.05,2.35L2.05,2.3L2,2.3ZM2,2.2L2,2.25L2.05,2.25L2.05,2.2L2,2.2ZM2,2.1L2,2.15L2.05,2.15L2.05,2.1L2,2.1ZM2,3.7L2,3.75L2.05,3.75L2.05,3.7L2,3.7ZM2,3.8L2,3.85L2.05,3.85L2.05,3.8L2,3.8ZM2,2.6L2,2.65L2.05,2.65L2.05,2.6L2,2.6ZM2,2.5L2,2.55L2.05,2.55L2.05,2.5L2,2.5ZM2,2.7L2,2.75L2.05,2.75L2.05,2.7L2,2.7ZM2,3.5L2,3.55L2.05,3.55L2.05,3.5L2,3.5ZM2,3.6L2,3.65L2.05,3.65L2.05,3.6L2,3.6ZM2,3.4L2,3.45L2.05,3.45L2.05,3.4L2,3.4ZM2,2.8L2,2.85L2.05,2.85L2.05,2.8L2,2.8ZM2,3.2L2,3.25L2.05,3.25L2.05,3.2L2,3.2ZM2,3.3L2,3.35L2.05,3.35L2.05,3.3L2,3.3ZM2,2.9L2,2.95L2.05,2.95L2.05,2.9L2,2.9ZM2,3L2,3.05L2.05,3.05L2.05,3L2,3ZM2,3.1L2,3.15L2.05,3.15L2.05,3.1L2,3.1Z" style="fill:white;"/>
            </g>
            <g transform="matrix(1,0,0,1,-3,26)">
                <g id="DashGroup4" serif:id="DashGroup">
                    <rect x="2" y="2" width="2" height="2"/>
                    <path d="M3.9,3.95L4,3.95L4,4L3.9,4L3.9,3.95ZM4,3.85L3.95,3.85L3.95,3.9L4,3.9L4,3.85ZM4,3.75L3.95,3.75L3.95,3.8L4,3.8L4,3.75ZM4,3.7L4,3.65L3.95,3.65L3.95,3.7L4,3.7ZM4,3.55L3.95,3.55L3.95,3.6L4,3.6L4,3.55ZM4,3.45L3.95,3.45L3.95,3.5L4,3.5L4,3.45ZM4,3.4L4,3.35L3.95,3.35L3.95,3.4L4,3.4ZM4,3.25L3.95,3.25L3.95,3.3L4,3.3L4,3.25ZM4,3.15L3.95,3.15L3.95,3.2L4,3.2L4,3.15ZM4,3.05L3.95,3.05L3.95,3.1L4,3.1L4,3.05ZM4,2.95L3.95,2.95L3.95,3L4,3L4,2.95ZM4,2.85L3.95,2.85L3.95,2.9L4,2.9L4,2.85ZM4,2.8L4,2.75L3.95,2.75L3.95,2.8L4,2.8ZM4,2.7L4,2.65L3.95,2.65L3.95,2.7L4,2.7ZM4,2.55L3.95,2.55L3.95,2.6L4,2.6L4,2.55ZM4,2.45L3.95,2.45L3.95,2.5L4,2.5L4,2.45ZM4,2.35L3.95,2.35L3.95,2.4L4,2.4L4,2.35ZM4,2.25L3.95,2.25L3.95,2.3L4,2.3L4,2.25ZM4,2.15L3.95,2.15L3.95,2.2L4,2.2L4,2.15ZM3.95,2L4,2L4,2.05L3.999,2.05L4,2.05L4,2.1L3.95,2.1L3.95,2ZM3.85,2L3.85,2.05L3.9,2.05L3.9,2L3.85,2ZM3.8,4L3.85,4L3.85,3.95L3.8,3.95L3.8,4ZM3.75,2L3.75,2.05L3.8,2.05L3.8,2L3.75,2ZM3.7,4L3.75,4L3.75,3.95L3.7,3.95L3.7,4ZM3.65,2L3.65,2.05L3.7,2.05L3.7,2L3.65,2ZM3.6,4L3.65,4L3.65,3.95L3.6,3.95L3.6,4ZM3.55,2L3.55,2.05L3.6,2.05L3.6,2L3.55,2ZM3.5,4L3.55,4L3.55,3.95L3.5,3.95L3.5,4ZM3.45,2L3.45,2.05L3.5,2.05L3.5,2L3.45,2ZM3.4,4L3.45,4L3.45,3.95L3.4,3.95L3.4,4ZM3.35,2L3.35,2.05L3.4,2.05L3.4,2L3.35,2ZM3.3,4L3.35,4L3.35,3.95L3.3,3.95L3.3,4ZM3.25,2L3.25,2.05L3.3,2.05L3.3,2L3.25,2ZM3.2,4L3.25,4L3.25,3.95L3.2,3.95L3.2,4ZM3.15,2L3.15,2.05L3.2,2.05L3.2,2L3.15,2ZM3.1,4L3.15,4L3.15,3.95L3.1,3.95L3.1,4ZM3.05,2L3.05,2.05L3.1,2.05L3.1,2L3.05,2ZM3,4L3.05,4L3.05,3.95L3,3.95L3,4ZM2.95,2L2.95,2.05L3,2.05L3,2L2.95,2ZM2.9,4L2.95,4L2.95,3.95L2.9,3.95L2.9,4ZM2.85,2L2.85,2.05L2.9,2.05L2.9,2L2.85,2ZM2.8,4L2.85,4L2.85,3.95L2.8,3.95L2.8,4ZM2.75,2L2.75,2.05L2.8,2.05L2.8,2L2.75,2ZM2.7,4L2.75,4L2.75,3.95L2.7,3.95L2.7,4ZM2.65,2L2.65,2.05L2.7,2.05L2.7,2L2.65,2ZM2.6,4L2.65,4L2.65,3.95L2.6,3.95L2.6,4ZM2.55,2L2.55,2.05L2.6,2.05L2.6,2L2.55,2ZM2.5,4L2.55,4L2.55,3.95L2.5,3.95L2.5,4ZM2.45,2L2.45,2.05L2.5,2.05L2.5,2L2.45,2ZM2.4,4L2.45,4L2.45,3.95L2.4,3.95L2.4,4ZM2.35,2L2.35,2.05L2.4,2.05L2.4,2L2.35,2ZM2.3,4L2.35,4L2.35,3.95L2.3,3.95L2.3,4ZM2.25,2L2.25,2.05L2.3,2.05L2.3,2L2.25,2ZM2.2,4L2.25,4L2.25,3.95L2.2,3.95L2.2,4ZM2.15,2L2.15,2.05L2.2,2.05L2.2,2L2.15,2ZM2.1,4L2.15,4L2.15,3.95L2.1,3.95L2.1,4ZM2,2L2.1,2L2.1,2.05L2,2.05L2,2ZM2,2.4L2,2.45L2.05,2.45L2.05,2.4L2,2.4ZM2,2.3L2,2.35L2.05,2.35L2.05,2.3L2,2.3ZM2,3.8L2,3.85L2.05,3.85L2.05,3.8L2,3.8ZM2,2.6L2,2.65L2.05,2.65L2.05,2.6L2,2.6ZM2,2.5L2,2.55L2.05,2.55L2.05,2.5L2,2.5ZM2,2.2L2,2.25L2.05,2.25L2.05,2.2L2,2.2ZM2,2.1L2,2.15L2.05,2.15L2.05,2.1L2,2.1ZM2,3.5L2,3.55L2.05,3.55L2.05,3.5L2,3.5ZM2,3.6L2,3.65L2.05,3.65L2.05,3.6L2,3.6ZM2,3.7L2,3.75L2.05,3.75L2.05,3.7L2,3.7ZM2,2.7L2,2.75L2.05,2.75L2.05,2.7L2,2.7ZM2,3.2L2,3.25L2.05,3.25L2.05,3.2L2,3.2ZM2,3.4L2,3.45L2.05,3.45L2.05,3.4L2,3.4ZM2.05,3.9L2.05,4L2,4L2,3.9L2.05,3.9ZM2,3L2,3.05L2.05,3.05L2.05,3L2,3ZM2,3.1L2,3.15L2.05,3.15L2.05,3.1L2,3.1ZM2,3.3L2,3.35L2.05,3.35L2.05,3.3L2,3.3ZM2,2.8L2,2.85L2.05,2.85L2.05,2.8L2,2.8ZM2,2.9L2,2.95L2.05,2.95L2.05,2.9L2,2.9Z" style="fill:white;"/>
                </g>
            </g>
        </g>
        <g transform="matrix(6.12323e-17,-1,1,6.12323e-17,1.59328e-15,32)">
            <path d="M26,22L26,30L6,30L6,22L8,22L8,28L24,28L24,22L26,22ZM26,10L24,10L24,4C24,4 8,4 8,4L8,10L6,10L6,2L26,2L26,10Z"/>
        </g>
    </g>
    <g transform="matrix(12,0,0,12,14.566,18.826)">
        <path d="M0.119,-0.127C0.139,-0.127 0.156,-0.12 0.169,-0.107C0.182,-0.094 0.189,-0.077 0.189,-0.058C0.189,-0.039 0.182,-0.022 0.169,-0.009C0.156,0.005 0.139,0.012 0.119,0.012C0.1,0.012 0.083,0.005 0.07,-0.009C0.057,-0.022 0.05,-0.039 0.05,-0.058C0.05,-0.077 0.057,-0.094 0.07,-0.107C0.083,-0.12 0.1,-0.127 0.119,-0.127ZM0.119,-0.495C0.139,-0.495 0.156,-0.488 0.169,-0.475C0.182,-0.462 0.189,-0.445 0.189,-0.426C0.189,-0.407 0.182,-0.39 0.169,-0.377C0.156,-0.363 0.139,-0.356 0.119,-0.356C0.1,-0.356 0.083,-0.363 0.07,-0.377C0.057,-0.39 0.05,-0.407 0.05,-0.426C0.05,-0.445 0.057,-0.462 0.07,-0.475C0.083,-0.488 0.1,-0.495 0.119,-0.495Z" style="fill-rule:nonzero;"/>
    </g>
    <g transform="matrix(11.1684,0,0,11.1684,19.8754,19.7675)">
        <path d="M0.323,-0L0.323,-0.171L0.013,-0.171L0.013,-0.252L0.339,-0.716L0.411,-0.716L0.411,-0.252L0.508,-0.252L0.508,-0.171L0.411,-0.171L0.411,-0L0.323,-0ZM0.323,-0.252L0.323,-0.575L0.099,-0.252L0.323,-0.252Z" style="fill-rule:nonzero;"/>
    </g>
    <g transform="matrix(11.1684,0,0,11.1684,6.02102,19.8002)">
        <path d="M0.042,-0.189L0.13,-0.201C0.14,-0.151 0.157,-0.115 0.181,-0.093C0.206,-0.071 0.235,-0.06 0.27,-0.06C0.311,-0.06 0.346,-0.074 0.375,-0.103C0.403,-0.132 0.417,-0.167 0.417,-0.209C0.417,-0.25 0.404,-0.283 0.378,-0.309C0.352,-0.336 0.318,-0.349 0.277,-0.349C0.261,-0.349 0.24,-0.345 0.215,-0.339L0.225,-0.416C0.231,-0.415 0.236,-0.415 0.239,-0.415C0.277,-0.415 0.31,-0.425 0.34,-0.444C0.37,-0.464 0.385,-0.494 0.385,-0.535C0.385,-0.567 0.374,-0.594 0.353,-0.615C0.331,-0.636 0.303,-0.646 0.268,-0.646C0.234,-0.646 0.205,-0.636 0.183,-0.614C0.16,-0.593 0.145,-0.561 0.139,-0.518L0.051,-0.533C0.062,-0.592 0.086,-0.638 0.124,-0.67C0.162,-0.703 0.209,-0.719 0.266,-0.719C0.305,-0.719 0.341,-0.71 0.374,-0.694C0.407,-0.677 0.432,-0.654 0.449,-0.625C0.467,-0.596 0.476,-0.565 0.476,-0.533C0.476,-0.502 0.467,-0.474 0.451,-0.448C0.434,-0.423 0.41,-0.403 0.377,-0.388C0.419,-0.378 0.452,-0.358 0.476,-0.327C0.499,-0.296 0.511,-0.258 0.511,-0.211C0.511,-0.149 0.488,-0.096 0.442,-0.052C0.397,-0.009 0.339,0.013 0.27,0.013C0.207,0.013 0.155,-0.006 0.113,-0.043C0.072,-0.081 0.048,-0.129 0.042,-0.189Z" style="fill-rule:nonzero;"/>
    </g>
</svg>
