<?xml version="1.0" encoding="UTF-8" standalone="no"?>
<!DOCTYPE svg PUBLIC "-//W3C//DTD SVG 1.1//EN" "http://www.w3.org/Graphics/SVG/1.1/DTD/svg11.dtd">
<svg width="100%" height="100%" viewBox="0 0 32 32" version="1.1" xmlns="http://www.w3.org/2000/svg" xmlns:xlink="http://www.w3.org/1999/xlink" xml:space="preserve" xmlns:serif="http://www.serif.com/" style="fill-rule:evenodd;clip-rule:evenodd;stroke-linejoin:round;stroke-miterlimit:2;">
    <g transform="matrix(0.903226,0,0,1.64706,1.09677,-9.52941)">
        <path d="M32,7L1,7L1,24L32,24L32,7ZM29.786,8.214L29.786,22.786C29.786,22.786 3.214,22.786 3.214,22.786C3.214,22.786 3.214,8.214 3.214,8.214L29.786,8.214Z"/>
    </g>
    <g transform="matrix(12,0,0,12,6.634,19.942)">
        <path d="M0.323,-0.669L0.323,-0L0.231,-0L0.231,-0.571L0.075,-0.476L0.035,-0.541L0.242,-0.669L0.323,-0.669Z" style="fill-rule:nonzero;"/>
    </g>
    <g transform="matrix(12,0,0,12,14.566,18.826)">
        <path d="M0.119,-0.127C0.139,-0.127 0.156,-0.12 0.169,-0.107C0.182,-0.094 0.189,-0.077 0.189,-0.058C0.189,-0.039 0.182,-0.022 0.169,-0.009C0.156,0.005 0.139,0.012 0.119,0.012C0.1,0.012 0.083,0.005 0.07,-0.009C0.057,-0.022 0.05,-0.039 0.05,-0.058C0.05,-0.077 0.057,-0.094 0.07,-0.107C0.083,-0.12 0.1,-0.127 0.119,-0.127ZM0.119,-0.495C0.139,-0.495 0.156,-0.488 0.169,-0.475C0.182,-0.462 0.189,-0.445 0.189,-0.426C0.189,-0.407 0.182,-0.39 0.169,-0.377C0.156,-0.363 0.139,-0.356 0.119,-0.356C0.1,-0.356 0.083,-0.363 0.07,-0.377C0.057,-0.39 0.05,-0.407 0.05,-0.426C0.05,-0.445 0.057,-0.462 0.07,-0.475C0.083,-0.488 0.1,-0.495 0.119,-0.495Z" style="fill-rule:nonzero;"/>
    </g>
    <g transform="matrix(12,0,0,12,20.07,19.942)">
        <path d="M0.323,-0.669L0.323,-0L0.231,-0L0.231,-0.571L0.075,-0.476L0.035,-0.541L0.242,-0.669L0.323,-0.669Z" style="fill-rule:nonzero;"/>
    </g>
</svg>
