<?xml version="1.0" encoding="UTF-8" standalone="no"?>
<!DOCTYPE svg PUBLIC "-//W3C//DTD SVG 1.1//EN" "http://www.w3.org/Graphics/SVG/1.1/DTD/svg11.dtd">
<svg width="100%" height="100%" viewBox="0 0 32 32" version="1.1" xmlns="http://www.w3.org/2000/svg" xmlns:xlink="http://www.w3.org/1999/xlink" xml:space="preserve" xmlns:serif="http://www.serif.com/" style="fill-rule:evenodd;clip-rule:evenodd;stroke-linejoin:round;stroke-miterlimit:2;">
    <g>
        <g id="DashGroup">
            <g transform="matrix(1,0,0,1,1,0)">
                <rect x="2" y="2" width="2" height="2"/>
                <path d="M2.05,4L2,4L2,3.9L2.05,3.9L2.05,4ZM2.15,4L2.15,3.95L2.1,3.95L2.1,4L2.15,4ZM2.25,4L2.25,3.95L2.2,3.95L2.2,4L2.25,4ZM2.35,4L2.35,3.95L2.3,3.95L2.3,4L2.35,4ZM2.45,4L2.45,3.95L2.4,3.95L2.4,4L2.45,4ZM2.55,4L2.55,3.95L2.5,3.95L2.5,4L2.55,4ZM2.65,4L2.65,3.95L2.6,3.95L2.6,4L2.65,4ZM2.75,4L2.75,3.95L2.7,3.95L2.7,4L2.75,4ZM2.85,4L2.85,3.95L2.8,3.95L2.8,4L2.85,4ZM2.95,4L2.95,3.95L2.9,3.95L2.9,4L2.95,4ZM3.05,4L3.05,3.95L3,3.95L3,4L3.05,4ZM3.15,4L3.15,3.95L3.1,3.95L3.1,4L3.15,4ZM3.25,4L3.25,3.95L3.2,3.95L3.2,4L3.25,4ZM3.35,4L3.35,3.95L3.3,3.95L3.3,4L3.35,4ZM3.45,4L3.45,3.95L3.4,3.95L3.4,4L3.45,4ZM3.55,4L3.55,3.95L3.5,3.95L3.5,4L3.55,4ZM3.65,4L3.65,3.95L3.6,3.95L3.6,4L3.65,4ZM3.75,4L3.75,3.95L3.7,3.95L3.7,4L3.75,4ZM3.85,4L3.85,3.95L3.8,3.95L3.8,4L3.85,4ZM4,3.95L4,4L3.9,4L3.9,3.95L4,3.95ZM4,3.85L3.95,3.85L3.95,3.9L4,3.9L4,3.85ZM2,3.8L2,3.85L2.05,3.85L2.05,3.8L2,3.8ZM4,3.75L3.95,3.75L3.95,3.8L4,3.8L4,3.75ZM2,3.7L2,3.75L2.05,3.75L2.05,3.7L2,3.7ZM4,3.65L3.95,3.65L3.95,3.7L4,3.7L4,3.65ZM2,3.6L2,3.65L2.05,3.65L2.05,3.6L2,3.6ZM4,3.55L3.95,3.55L3.95,3.6L4,3.6L4,3.55ZM2,3.5L2,3.55L2.05,3.55L2.05,3.5L2,3.5ZM4,3.45L3.95,3.45L3.95,3.5L4,3.5L4,3.45ZM2,3.4L2,3.45L2.05,3.45L2.05,3.4L2,3.4ZM4,3.35L3.95,3.35L3.95,3.4L4,3.4L4,3.35ZM2,3.3L2,3.35L2.05,3.35L2.05,3.3L2,3.3ZM4,3.25L3.95,3.25L3.95,3.3L4,3.3L4,3.25ZM2,3.2L2,3.25L2.05,3.25L2.05,3.2L2,3.2ZM4,3.15L3.95,3.15L3.95,3.2L4,3.2L4,3.15ZM2,3.1L2,3.15L2.05,3.15L2.05,3.1L2,3.1ZM4,3.05L3.95,3.05L3.95,3.1L4,3.1L4,3.05ZM2,3L2,3.05L2.05,3.05L2.05,3L2,3ZM4,2.95L3.95,2.95L3.95,3L4,3L4,2.95ZM2,2.9L2,2.95L2.05,2.95L2.05,2.9L2,2.9ZM4,2.85L3.95,2.85L3.95,2.9L4,2.9L4,2.85ZM2,2.8L2,2.85L2.05,2.85L2.05,2.8L2,2.8ZM4,2.75L3.95,2.75L3.95,2.8L4,2.8L4,2.75ZM2,2.7L2,2.75L2.05,2.75L2.05,2.7L2,2.7ZM4,2.65L3.95,2.65L3.95,2.7L4,2.7L4,2.65ZM2,2.6L2,2.65L2.05,2.65L2.05,2.6L2,2.6ZM4,2.55L3.95,2.55L3.95,2.6L4,2.6L4,2.55ZM2,2.5L2,2.55L2.05,2.55L2.05,2.5L2,2.5ZM4,2.45L3.95,2.45L3.95,2.5L4,2.5L4,2.45ZM2,2.4L2,2.45L2.05,2.45L2.05,2.4L2,2.4ZM4,2.35L3.95,2.35L3.95,2.4L4,2.4L4,2.35ZM2,2.3L2,2.35L2.05,2.35L2.05,2.3L2,2.3ZM4,2.25L3.95,2.25L3.95,2.3L4,2.3L4,2.25ZM2,2.2L2,2.25L2.05,2.25L2.05,2.2L2,2.2ZM4,2.15L3.95,2.15L3.95,2.2L4,2.2L4,2.15ZM2,2.1L2,2.15L2.05,2.15L2.05,2.1L2,2.1ZM4,2.1L3.95,2.1L3.95,2L4,2L4,2.1ZM2.9,2L2.85,2L2.85,2.05L2.9,2.05L2.9,2ZM3.2,2L3.15,2L3.15,2.05L3.2,2.05L3.2,2ZM3.3,2L3.25,2L3.25,2.05L3.3,2.05L3.3,2ZM3.4,2L3.35,2L3.35,2.05L3.4,2.05L3.4,2ZM3.5,2L3.45,2L3.45,2.05L3.5,2.05L3.5,2ZM3.6,2L3.55,2L3.55,2.05L3.6,2.05L3.6,2ZM3.7,2L3.65,2L3.65,2.05L3.7,2.05L3.7,2ZM3.8,2L3.75,2L3.75,2.05L3.8,2.05L3.8,2ZM3,2L2.95,2L2.95,2.05L3,2.05L3,2ZM3.1,2L3.05,2L3.05,2.05L3.1,2.05L3.1,2ZM2.1,2.05L2,2.05L2,2L2.1,2L2.1,2.05ZM2.2,2L2.15,2L2.15,2.05L2.2,2.05L2.2,2ZM2.3,2L2.25,2L2.25,2.05L2.3,2.05L2.3,2ZM2.4,2L2.35,2L2.35,2.05L2.4,2.05L2.4,2ZM2.5,2L2.45,2L2.45,2.05L2.5,2.05L2.5,2ZM2.6,2L2.55,2L2.55,2.05L2.6,2.05L2.6,2ZM2.7,2L2.65,2L2.65,2.05L2.7,2.05L2.7,2ZM2.8,2L2.75,2L2.75,2.05L2.8,2.05L2.8,2ZM3.9,2L3.85,2L3.85,2.05L3.9,2.05L3.9,2Z" style="fill:white;"/>
            </g>
            <g transform="matrix(1,0,0,1,0,3)">
                <rect x="2" y="2" width="2" height="2"/>
                <path d="M2.05,4L2,4L2,3.9L2.05,3.9L2.05,4ZM2.1,4L2.15,4L2.15,3.95L2.1,3.95L2.1,4ZM2.2,4L2.25,4L2.25,3.95L2.2,3.95L2.2,4ZM2.35,4L2.35,3.95L2.3,3.95L2.3,4L2.35,4ZM2.4,4L2.45,4L2.45,3.95L2.4,3.95L2.4,4ZM2.55,4L2.55,3.95L2.5,3.95L2.5,4L2.55,4ZM2.65,4L2.65,3.95L2.6,3.95L2.6,4L2.65,4ZM2.75,4L2.75,3.95L2.7,3.95L2.7,4L2.75,4ZM2.85,4L2.85,3.95L2.8,3.95L2.8,4L2.85,4ZM2.95,4L2.95,3.95L2.9,3.95L2.9,4L2.95,4ZM3.05,4L3.05,3.95L3,3.95L3,4L3.05,4ZM3.15,4L3.15,3.95L3.1,3.95L3.1,4L3.15,4ZM3.2,4L3.25,4L3.25,3.95L3.2,3.95L3.2,4ZM3.35,4L3.35,3.95L3.3,3.95L3.3,4L3.35,4ZM3.4,4L3.45,4L3.45,3.95L3.4,3.95L3.4,4ZM3.55,4L3.55,3.95L3.5,3.95L3.5,4L3.55,4ZM3.65,4L3.65,3.95L3.6,3.95L3.6,4L3.65,4ZM3.75,4L3.75,3.95L3.7,3.95L3.7,4L3.75,4ZM3.85,4L3.85,3.95L3.8,3.95L3.8,4L3.85,4ZM4,3.95L4,4L3.9,4L3.9,3.95L4,3.95ZM4,3.85L3.95,3.85L3.95,3.9L4,3.9L4,3.85ZM2,3.8L2,3.85L2.05,3.85L2.05,3.8L2,3.8ZM4,3.75L3.95,3.75L3.95,3.8L4,3.8L4,3.75ZM2,3.7L2,3.75L2.05,3.75L2.05,3.7L2,3.7ZM4,3.65L3.95,3.65L3.95,3.7L4,3.7L4,3.65ZM2,3.6L2,3.65L2.05,3.65L2.05,3.6L2,3.6ZM4,3.55L3.95,3.55L3.95,3.6L4,3.6L4,3.55ZM2,3.5L2,3.55L2.05,3.55L2.05,3.5L2,3.5ZM4,3.45L3.95,3.45L3.95,3.5L4,3.5L4,3.45ZM2,3.4L2,3.45L2.05,3.45L2.05,3.4L2,3.4ZM4,3.35L3.95,3.35L3.95,3.4L4,3.4L4,3.35ZM2,3.3L2,3.35L2.05,3.35L2.05,3.3L2,3.3ZM4,3.25L3.95,3.25L3.95,3.3L4,3.3L4,3.25ZM2,3.2L2,3.25L2.05,3.25L2.05,3.2L2,3.2ZM4,3.15L3.95,3.15L3.95,3.2L4,3.2L4,3.15ZM2,3.1L2,3.15L2.05,3.15L2.05,3.1L2,3.1ZM4,3.05L3.95,3.05L3.95,3.1L4,3.1L4,3.05ZM2,3L2,3.05L2.05,3.05L2.05,3L2,3ZM4,2.95L3.95,2.95L3.95,3L4,3L4,2.95ZM2,2.9L2,2.95L2.05,2.95L2.05,2.9L2,2.9ZM4,2.85L3.95,2.85L3.95,2.9L4,2.9L4,2.85ZM2,2.8L2,2.85L2.05,2.85L2.05,2.8L2,2.8ZM4,2.75L3.95,2.75L3.95,2.8L4,2.8L4,2.75ZM2,2.7L2,2.75L2.05,2.75L2.05,2.7L2,2.7ZM4,2.65L3.95,2.65L3.95,2.7L4,2.7L4,2.65ZM2,2.6L2,2.65L2.05,2.65L2.05,2.6L2,2.6ZM4,2.55L3.95,2.55L3.95,2.6L4,2.6L4,2.55ZM2,2.5L2,2.55L2.05,2.55L2.05,2.5L2,2.5ZM4,2.45L3.95,2.45L3.95,2.5L4,2.5L4,2.45ZM2,2.4L2,2.45L2.05,2.45L2.05,2.4L2,2.4ZM4,2.35L3.95,2.35L3.95,2.4L4,2.4L4,2.35ZM2,2.3L2,2.35L2.05,2.35L2.05,2.3L2,2.3ZM4,2.25L3.95,2.25L3.95,2.3L4,2.3L4,2.25ZM2,2.2L2,2.25L2.05,2.25L2.05,2.2L2,2.2ZM4,2.15L3.95,2.15L3.95,2.2L4,2.2L4,2.15ZM2,2.1L2,2.15L2.05,2.15L2.05,2.1L2,2.1ZM4,2.1L3.95,2.1L3.95,2L4,2L4,2.1ZM2.8,2L2.75,2L2.75,2.05L2.8,2.05L2.8,2ZM2.6,2L2.55,2L2.55,2.05L2.6,2.05L2.6,2ZM2.7,2L2.65,2L2.65,2.05L2.7,2.05L2.7,2ZM2.5,2L2.45,2L2.45,2.05L2.5,2.05L2.5,2ZM3,2L2.95,2L2.95,2.05L3,2.05L3,2ZM2.4,2L2.35,2L2.35,2.05L2.4,2.05L2.4,2ZM2.3,2L2.25,2L2.25,2.05L2.3,2.05L2.3,2ZM2.2,2L2.15,2L2.15,2.05L2.2,2.05L2.2,2ZM2.1,2.05L2,2.05L2,2L2.1,2L2.1,2.05ZM3.8,2L3.75,2L3.75,2.05L3.8,2.05L3.8,2ZM2.9,2L2.85,2L2.85,2.05L2.9,2.05L2.9,2ZM3.1,2L3.05,2L3.05,2.05L3.1,2.05L3.1,2ZM3.9,2L3.85,2L3.85,2.05L3.9,2.05L3.9,2ZM3.6,2L3.55,2L3.55,2.05L3.6,2.05L3.6,2ZM3.7,2L3.65,2L3.65,2.05L3.7,2.05L3.7,2ZM3.3,2L3.25,2L3.25,2.05L3.3,2.05L3.3,2ZM3.4,2L3.35,2L3.35,2.05L3.4,2.05L3.4,2ZM3.5,2L3.45,2L3.45,2.05L3.5,2.05L3.5,2ZM3.2,2L3.15,2L3.15,2.05L3.2,2.05L3.2,2Z" style="fill:white;"/>
            </g>
            <g transform="matrix(1,0,0,1,26,3)">
                <rect x="2" y="2" width="2" height="2"/>
                <path d="M2.05,4L2,4L2,3.9L2.05,3.9L2.05,4ZM2.1,4L2.15,4L2.15,3.95L2.1,3.95L2.1,4ZM2.2,4L2.25,4L2.25,3.95L2.2,3.95L2.2,4ZM2.35,4L2.35,3.95L2.3,3.95L2.3,4L2.35,4ZM2.4,4L2.45,4L2.45,3.95L2.4,3.95L2.4,4ZM2.55,4L2.55,3.95L2.5,3.95L2.5,4L2.55,4ZM2.65,4L2.65,3.95L2.6,3.95L2.6,4L2.65,4ZM2.75,4L2.75,3.95L2.7,3.95L2.7,4L2.75,4ZM2.85,4L2.85,3.95L2.8,3.95L2.8,4L2.85,4ZM2.95,4L2.95,3.95L2.9,3.95L2.9,4L2.95,4ZM3.05,4L3.05,3.95L3,3.95L3,4L3.05,4ZM3.15,4L3.15,3.95L3.1,3.95L3.1,4L3.15,4ZM3.2,4L3.25,4L3.25,3.95L3.2,3.95L3.2,4ZM3.35,4L3.35,3.95L3.3,3.95L3.3,4L3.35,4ZM3.4,4L3.45,4L3.45,3.95L3.4,3.95L3.4,4ZM3.55,4L3.55,3.95L3.5,3.95L3.5,4L3.55,4ZM3.65,4L3.65,3.95L3.6,3.95L3.6,4L3.65,4ZM3.75,4L3.75,3.95L3.7,3.95L3.7,4L3.75,4ZM3.85,4L3.85,3.95L3.8,3.95L3.8,4L3.85,4ZM4,3.95L4,4L3.9,4L3.9,3.95L4,3.95ZM4,3.85L3.95,3.85L3.95,3.9L4,3.9L4,3.85ZM2,3.8L2,3.85L2.05,3.85L2.05,3.8L2,3.8ZM4,3.75L3.95,3.75L3.95,3.8L4,3.8L4,3.75ZM2,3.7L2,3.75L2.05,3.75L2.05,3.7L2,3.7ZM4,3.65L3.95,3.65L3.95,3.7L4,3.7L4,3.65ZM2,3.6L2,3.65L2.05,3.65L2.05,3.6L2,3.6ZM4,3.55L3.95,3.55L3.95,3.6L4,3.6L4,3.55ZM2,3.5L2,3.55L2.05,3.55L2.05,3.5L2,3.5ZM4,3.45L3.95,3.45L3.95,3.5L4,3.5L4,3.45ZM2,3.4L2,3.45L2.05,3.45L2.05,3.4L2,3.4ZM4,3.35L3.95,3.35L3.95,3.4L4,3.4L4,3.35ZM2,3.3L2,3.35L2.05,3.35L2.05,3.3L2,3.3ZM4,3.25L3.95,3.25L3.95,3.3L4,3.3L4,3.25ZM2,3.2L2,3.25L2.05,3.25L2.05,3.2L2,3.2ZM4,3.15L3.95,3.15L3.95,3.2L4,3.2L4,3.15ZM2,3.1L2,3.15L2.05,3.15L2.05,3.1L2,3.1ZM4,3.05L3.95,3.05L3.95,3.1L4,3.1L4,3.05ZM2,3L2,3.05L2.05,3.05L2.05,3L2,3ZM4,2.95L3.95,2.95L3.95,3L4,3L4,2.95ZM2,2.9L2,2.95L2.05,2.95L2.05,2.9L2,2.9ZM4,2.85L3.95,2.85L3.95,2.9L4,2.9L4,2.85ZM2,2.8L2,2.85L2.05,2.85L2.05,2.8L2,2.8ZM4,2.75L3.95,2.75L3.95,2.8L4,2.8L4,2.75ZM2,2.7L2,2.75L2.05,2.75L2.05,2.7L2,2.7ZM4,2.65L3.95,2.65L3.95,2.7L4,2.7L4,2.65ZM2,2.6L2,2.65L2.05,2.65L2.05,2.6L2,2.6ZM4,2.55L3.95,2.55L3.95,2.6L4,2.6L4,2.55ZM2,2.5L2,2.55L2.05,2.55L2.05,2.5L2,2.5ZM4,2.45L3.95,2.45L3.95,2.5L4,2.5L4,2.45ZM2,2.4L2,2.45L2.05,2.45L2.05,2.4L2,2.4ZM4,2.35L3.95,2.35L3.95,2.4L4,2.4L4,2.35ZM2,2.3L2,2.35L2.05,2.35L2.05,2.3L2,2.3ZM4,2.25L3.95,2.25L3.95,2.3L4,2.3L4,2.25ZM2,2.2L2,2.25L2.05,2.25L2.05,2.2L2,2.2ZM4,2.15L3.95,2.15L3.95,2.2L4,2.2L4,2.15ZM2,2.1L2,2.15L2.05,2.15L2.05,2.1L2,2.1ZM4,2.1L3.95,2.1L3.95,2L4,2L4,2.1ZM2.8,2L2.75,2L2.75,2.05L2.8,2.05L2.8,2ZM2.6,2L2.55,2L2.55,2.05L2.6,2.05L2.6,2ZM2.7,2L2.65,2L2.65,2.05L2.7,2.05L2.7,2ZM2.5,2L2.45,2L2.45,2.05L2.5,2.05L2.5,2ZM3,2L2.95,2L2.95,2.05L3,2.05L3,2ZM2.4,2L2.35,2L2.35,2.05L2.4,2.05L2.4,2ZM2.3,2L2.25,2L2.25,2.05L2.3,2.05L2.3,2ZM2.2,2L2.15,2L2.15,2.05L2.2,2.05L2.2,2ZM2.1,2.05L2,2.05L2,2L2.1,2L2.1,2.05ZM3.8,2L3.75,2L3.75,2.05L3.8,2.05L3.8,2ZM2.9,2L2.85,2L2.85,2.05L2.9,2.05L2.9,2ZM3.1,2L3.05,2L3.05,2.05L3.1,2.05L3.1,2ZM3.9,2L3.85,2L3.85,2.05L3.9,2.05L3.9,2ZM3.6,2L3.55,2L3.55,2.05L3.6,2.05L3.6,2ZM3.7,2L3.65,2L3.65,2.05L3.7,2.05L3.7,2ZM3.3,2L3.25,2L3.25,2.05L3.3,2.05L3.3,2ZM3.4,2L3.35,2L3.35,2.05L3.4,2.05L3.4,2ZM3.5,2L3.45,2L3.45,2.05L3.5,2.05L3.5,2ZM3.2,2L3.15,2L3.15,2.05L3.2,2.05L3.2,2Z" style="fill:white;"/>
            </g>
            <g transform="matrix(1,0,0,1,0,23)">
                <rect x="2" y="2" width="2" height="2"/>
                <path d="M2.05,4L2,4L2,3.9L2.05,3.9L2.05,4ZM2.15,4L2.15,3.95L2.1,3.95L2.1,4L2.15,4ZM2.25,4L2.25,3.95L2.2,3.95L2.2,4L2.25,4ZM2.35,4L2.35,3.95L2.3,3.95L2.3,4L2.35,4ZM2.45,4L2.45,3.95L2.4,3.95L2.4,4L2.45,4ZM2.55,4L2.55,3.95L2.5,3.95L2.5,4L2.55,4ZM2.65,4L2.65,3.95L2.6,3.95L2.6,4L2.65,4ZM2.75,4L2.75,3.95L2.7,3.95L2.7,4L2.75,4ZM2.85,4L2.85,3.95L2.8,3.95L2.8,4L2.85,4ZM2.95,4L2.95,3.95L2.9,3.95L2.9,4L2.95,4ZM3.05,4L3.05,3.95L3,3.95L3,4L3.05,4ZM3.15,4L3.15,3.95L3.1,3.95L3.1,4L3.15,4ZM3.2,4L3.25,4L3.25,3.95L3.2,3.95L3.2,4ZM3.35,4L3.35,3.95L3.3,3.95L3.3,4L3.35,4ZM3.45,4L3.45,3.95L3.4,3.95L3.4,4L3.45,4ZM3.55,4L3.55,3.95L3.5,3.95L3.5,4L3.55,4ZM3.65,4L3.65,3.95L3.6,3.95L3.6,4L3.65,4ZM3.75,4L3.75,3.95L3.7,3.95L3.7,4L3.75,4ZM3.85,4L3.85,3.95L3.8,3.95L3.8,4L3.85,4ZM4,3.95L4,4L3.9,4L3.9,3.95L4,3.95ZM4,3.85L3.95,3.85L3.95,3.9L4,3.9L4,3.85ZM2,3.8L2,3.85L2.05,3.85L2.05,3.8L2,3.8ZM4,3.75L3.95,3.75L3.95,3.8L4,3.8L4,3.75ZM2,3.7L2,3.75L2.05,3.75L2.05,3.7L2,3.7ZM4,3.65L3.95,3.65L3.95,3.7L4,3.7L4,3.65ZM2,3.6L2,3.65L2.05,3.65L2.05,3.6L2,3.6ZM4,3.55L3.95,3.55L3.95,3.6L4,3.6L4,3.55ZM2,3.5L2,3.55L2.05,3.55L2.05,3.5L2,3.5ZM4,3.45L3.95,3.45L3.95,3.5L4,3.5L4,3.45ZM2,3.4L2,3.45L2.05,3.45L2.05,3.4L2,3.4ZM4,3.35L3.95,3.35L3.95,3.4L4,3.4L4,3.35ZM2,3.3L2,3.35L2.05,3.35L2.05,3.3L2,3.3ZM4,3.25L3.95,3.25L3.95,3.3L4,3.3L4,3.25ZM2,3.2L2,3.25L2.05,3.25L2.05,3.2L2,3.2ZM4,3.15L3.95,3.15L3.95,3.2L4,3.2L4,3.15ZM2,3.1L2,3.15L2.05,3.15L2.05,3.1L2,3.1ZM4,3.05L3.95,3.05L3.95,3.1L4,3.1L4,3.05ZM2,3L2,3.05L2.05,3.05L2.05,3L2,3ZM4,2.95L3.95,2.95L3.95,3L4,3L4,2.95ZM2,2.9L2,2.95L2.05,2.95L2.05,2.9L2,2.9ZM4,2.85L3.95,2.85L3.95,2.9L4,2.9L4,2.85ZM2,2.8L2,2.85L2.05,2.85L2.05,2.8L2,2.8ZM4,2.75L3.95,2.75L3.95,2.8L4,2.8L4,2.75ZM2,2.7L2,2.75L2.05,2.75L2.05,2.7L2,2.7ZM4,2.65L3.95,2.65L3.95,2.7L4,2.7L4,2.65ZM2,2.6L2,2.65L2.05,2.65L2.05,2.6L2,2.6ZM4,2.55L3.95,2.55L3.95,2.6L4,2.6L4,2.55ZM2,2.5L2,2.55L2.05,2.55L2.05,2.5L2,2.5ZM4,2.45L3.95,2.45L3.95,2.5L4,2.5L4,2.45ZM2,2.4L2,2.45L2.05,2.45L2.05,2.4L2,2.4ZM4,2.35L3.95,2.35L3.95,2.4L4,2.4L4,2.35ZM2,2.3L2,2.35L2.05,2.35L2.05,2.3L2,2.3ZM4,2.25L3.95,2.25L3.95,2.3L4,2.3L4,2.25ZM2,2.2L2,2.25L2.05,2.25L2.05,2.2L2,2.2ZM4,2.15L3.95,2.15L3.95,2.2L4,2.2L4,2.15ZM2,2.1L2,2.15L2.05,2.15L2.05,2.1L2,2.1ZM4,2.1L3.95,2.1L3.95,2L4,2L4,2.1ZM2.2,2L2.15,2L2.15,2.05L2.2,2.05L2.2,2ZM2.3,2L2.25,2L2.25,2.05L2.3,2.05L2.3,2ZM2.4,2L2.35,2L2.35,2.05L2.4,2.05L2.4,2ZM2.5,2L2.45,2L2.45,2.05L2.5,2.05L2.5,2ZM2.6,2L2.55,2L2.55,2.05L2.6,2.05L2.6,2ZM2.1,2.05L2,2.05L2,2L2.1,2L2.1,2.05ZM3.7,2L3.65,2L3.65,2.05L3.7,2.05L3.7,2ZM3.8,2L3.75,2L3.75,2.05L3.8,2.05L3.8,2ZM3.9,2L3.85,2L3.85,2.05L3.9,2.05L3.9,2ZM3.6,2L3.55,2L3.55,2.05L3.6,2.05L3.6,2ZM3.2,2L3.15,2L3.15,2.05L3.2,2.05L3.2,2ZM3.3,2L3.25,2L3.25,2.05L3.3,2.05L3.3,2ZM3.4,2L3.35,2L3.35,2.05L3.4,2.05L3.4,2ZM3.5,2L3.45,2L3.45,2.05L3.5,2.05L3.5,2ZM3.1,2L3.05,2L3.05,2.05L3.1,2.05L3.1,2ZM2.9,2L2.85,2L2.85,2.05L2.9,2.05L2.9,2ZM3,2L2.95,2L2.95,2.05L3,2.05L3,2ZM2.7,2L2.65,2L2.65,2.05L2.7,2.05L2.7,2ZM2.8,2L2.75,2L2.75,2.05L2.8,2.05L2.8,2Z" style="fill:white;"/>
            </g>
            <g transform="matrix(1,0,0,1,26,23)">
                <rect x="2" y="2" width="2" height="2"/>
                <path d="M2.05,4L2,4L2,3.9L2.05,3.9L2.05,4ZM2.15,4L2.15,3.95L2.1,3.95L2.1,4L2.15,4ZM2.25,4L2.25,3.95L2.2,3.95L2.2,4L2.25,4ZM2.35,4L2.35,3.95L2.3,3.95L2.3,4L2.35,4ZM2.45,4L2.45,3.95L2.4,3.95L2.4,4L2.45,4ZM2.55,4L2.55,3.95L2.5,3.95L2.5,4L2.55,4ZM2.65,4L2.65,3.95L2.6,3.95L2.6,4L2.65,4ZM2.75,4L2.75,3.95L2.7,3.95L2.7,4L2.75,4ZM2.85,4L2.85,3.95L2.8,3.95L2.8,4L2.85,4ZM2.95,4L2.95,3.95L2.9,3.95L2.9,4L2.95,4ZM3.05,4L3.05,3.95L3,3.95L3,4L3.05,4ZM3.15,4L3.15,3.95L3.1,3.95L3.1,4L3.15,4ZM3.2,4L3.25,4L3.25,3.95L3.2,3.95L3.2,4ZM3.35,4L3.35,3.95L3.3,3.95L3.3,4L3.35,4ZM3.45,4L3.45,3.95L3.4,3.95L3.4,4L3.45,4ZM3.55,4L3.55,3.95L3.5,3.95L3.5,4L3.55,4ZM3.65,4L3.65,3.95L3.6,3.95L3.6,4L3.65,4ZM3.75,4L3.75,3.95L3.7,3.95L3.7,4L3.75,4ZM3.85,4L3.85,3.95L3.8,3.95L3.8,4L3.85,4ZM4,3.95L4,4L3.9,4L3.9,3.95L4,3.95ZM4,3.85L3.95,3.85L3.95,3.9L4,3.9L4,3.85ZM2,3.8L2,3.85L2.05,3.85L2.05,3.8L2,3.8ZM4,3.75L3.95,3.75L3.95,3.8L4,3.8L4,3.75ZM2,3.7L2,3.75L2.05,3.75L2.05,3.7L2,3.7ZM4,3.65L3.95,3.65L3.95,3.7L4,3.7L4,3.65ZM2,3.6L2,3.65L2.05,3.65L2.05,3.6L2,3.6ZM4,3.55L3.95,3.55L3.95,3.6L4,3.6L4,3.55ZM2,3.5L2,3.55L2.05,3.55L2.05,3.5L2,3.5ZM4,3.45L3.95,3.45L3.95,3.5L4,3.5L4,3.45ZM2,3.4L2,3.45L2.05,3.45L2.05,3.4L2,3.4ZM4,3.35L3.95,3.35L3.95,3.4L4,3.4L4,3.35ZM2,3.3L2,3.35L2.05,3.35L2.05,3.3L2,3.3ZM4,3.25L3.95,3.25L3.95,3.3L4,3.3L4,3.25ZM2,3.2L2,3.25L2.05,3.25L2.05,3.2L2,3.2ZM4,3.15L3.95,3.15L3.95,3.2L4,3.2L4,3.15ZM2,3.1L2,3.15L2.05,3.15L2.05,3.1L2,3.1ZM4,3.05L3.95,3.05L3.95,3.1L4,3.1L4,3.05ZM2,3L2,3.05L2.05,3.05L2.05,3L2,3ZM4,2.95L3.95,2.95L3.95,3L4,3L4,2.95ZM2,2.9L2,2.95L2.05,2.95L2.05,2.9L2,2.9ZM4,2.85L3.95,2.85L3.95,2.9L4,2.9L4,2.85ZM2,2.8L2,2.85L2.05,2.85L2.05,2.8L2,2.8ZM4,2.75L3.95,2.75L3.95,2.8L4,2.8L4,2.75ZM2,2.7L2,2.75L2.05,2.75L2.05,2.7L2,2.7ZM4,2.65L3.95,2.65L3.95,2.7L4,2.7L4,2.65ZM2,2.6L2,2.65L2.05,2.65L2.05,2.6L2,2.6ZM4,2.55L3.95,2.55L3.95,2.6L4,2.6L4,2.55ZM2,2.5L2,2.55L2.05,2.55L2.05,2.5L2,2.5ZM4,2.45L3.95,2.45L3.95,2.5L4,2.5L4,2.45ZM2,2.4L2,2.45L2.05,2.45L2.05,2.4L2,2.4ZM4,2.35L3.95,2.35L3.95,2.4L4,2.4L4,2.35ZM2,2.3L2,2.35L2.05,2.35L2.05,2.3L2,2.3ZM4,2.25L3.95,2.25L3.95,2.3L4,2.3L4,2.25ZM2,2.2L2,2.25L2.05,2.25L2.05,2.2L2,2.2ZM4,2.15L3.95,2.15L3.95,2.2L4,2.2L4,2.15ZM2,2.1L2,2.15L2.05,2.15L2.05,2.1L2,2.1ZM4,2.1L3.95,2.1L3.95,2L4,2L4,2.1ZM2.2,2L2.15,2L2.15,2.05L2.2,2.05L2.2,2ZM2.3,2L2.25,2L2.25,2.05L2.3,2.05L2.3,2ZM2.4,2L2.35,2L2.35,2.05L2.4,2.05L2.4,2ZM2.5,2L2.45,2L2.45,2.05L2.5,2.05L2.5,2ZM2.6,2L2.55,2L2.55,2.05L2.6,2.05L2.6,2ZM2.1,2.05L2,2.05L2,2L2.1,2L2.1,2.05ZM3.7,2L3.65,2L3.65,2.05L3.7,2.05L3.7,2ZM3.8,2L3.75,2L3.75,2.05L3.8,2.05L3.8,2ZM3.9,2L3.85,2L3.85,2.05L3.9,2.05L3.9,2ZM3.6,2L3.55,2L3.55,2.05L3.6,2.05L3.6,2ZM3.2,2L3.15,2L3.15,2.05L3.2,2.05L3.2,2ZM3.3,2L3.25,2L3.25,2.05L3.3,2.05L3.3,2ZM3.4,2L3.35,2L3.35,2.05L3.4,2.05L3.4,2ZM3.5,2L3.45,2L3.45,2.05L3.5,2.05L3.5,2ZM3.1,2L3.05,2L3.05,2.05L3.1,2.05L3.1,2ZM2.9,2L2.85,2L2.85,2.05L2.9,2.05L2.9,2ZM3,2L2.95,2L2.95,2.05L3,2.05L3,2ZM2.7,2L2.65,2L2.65,2.05L2.7,2.05L2.7,2ZM2.8,2L2.75,2L2.75,2.05L2.8,2.05L2.8,2Z" style="fill:white;"/>
            </g>
        </g>
        <g id="DashGroup1" serif:id="DashGroup" transform="matrix(1,0,0,1,4,0)">
            <g transform="matrix(1,0,0,1,1,0)">
                <rect x="2" y="2" width="2" height="2"/>
                <path d="M2.05,3.9L2.05,4L2,4L2,3.9L2.05,3.9ZM2.15,4L2.15,3.95L2.1,3.95L2.1,4L2.15,4ZM2.25,4L2.25,3.95L2.2,3.95L2.2,4L2.25,4ZM2.35,4L2.35,3.95L2.3,3.95L2.3,4L2.35,4ZM2.45,4L2.45,3.95L2.4,3.95L2.4,4L2.45,4ZM2.55,4L2.55,3.95L2.5,3.95L2.5,4L2.55,4ZM2.65,4L2.65,3.95L2.6,3.95L2.6,4L2.65,4ZM2.75,4L2.75,3.95L2.7,3.95L2.7,4L2.75,4ZM2.85,4L2.85,3.95L2.8,3.95L2.8,4L2.85,4ZM2.95,4L2.95,3.95L2.9,3.95L2.9,4L2.95,4ZM3.05,4L3.05,3.95L3,3.95L3,4L3.05,4ZM3.15,4L3.15,3.95L3.1,3.95L3.1,4L3.15,4ZM3.25,4L3.25,3.95L3.2,3.95L3.2,4L3.25,4ZM3.35,4L3.35,3.95L3.3,3.95L3.3,4L3.35,4ZM3.45,4L3.45,3.95L3.4,3.95L3.4,4L3.45,4ZM3.55,4L3.55,3.95L3.5,3.95L3.5,4L3.55,4ZM3.65,4L3.65,3.95L3.6,3.95L3.6,4L3.65,4ZM3.75,4L3.75,3.95L3.7,3.95L3.7,4L3.75,4ZM3.85,4L3.85,3.95L3.8,3.95L3.8,4L3.85,4ZM4,3.95L4,4L3.9,4L3.9,3.95L4,3.95ZM4,3.85L3.95,3.85L3.95,3.9L4,3.9L4,3.85ZM2,3.8L2,3.85L2.05,3.85L2.05,3.8L2,3.8ZM4,3.75L3.95,3.75L3.95,3.8L4,3.8L4,3.75ZM2,3.7L2,3.75L2.05,3.75L2.05,3.7L2,3.7ZM4,3.65L3.95,3.65L3.95,3.7L4,3.7L4,3.65ZM2,3.6L2,3.65L2.05,3.65L2.05,3.6L2,3.6ZM4,3.55L3.95,3.55L3.95,3.6L4,3.6L4,3.55ZM2,3.5L2,3.55L2.05,3.55L2.05,3.5L2,3.5ZM4,3.45L3.95,3.45L3.95,3.5L4,3.5L4,3.45ZM2,3.4L2,3.45L2.05,3.45L2.05,3.4L2,3.4ZM4,3.35L3.95,3.35L3.95,3.4L4,3.4L4,3.35ZM2,3.3L2,3.35L2.05,3.35L2.05,3.3L2,3.3ZM4,3.25L3.95,3.25L3.95,3.3L4,3.3L4,3.25ZM2,3.2L2,3.25L2.05,3.25L2.05,3.2L2,3.2ZM4,3.15L3.95,3.15L3.95,3.2L4,3.2L4,3.15ZM2,3.1L2,3.15L2.05,3.15L2.05,3.1L2,3.1ZM4,3.05L3.95,3.05L3.95,3.1L4,3.1L4,3.05ZM2,3L2,3.05L2.05,3.05L2.05,3L2,3ZM4,2.95L3.95,2.95L3.95,3L4,3L4,2.95ZM2,2.9L2,2.95L2.05,2.95L2.05,2.9L2,2.9ZM4,2.85L3.95,2.85L3.95,2.9L4,2.9L4,2.85ZM2,2.8L2,2.85L2.05,2.85L2.05,2.8L2,2.8ZM4,2.75L3.95,2.75L3.95,2.8L4,2.8L4,2.75ZM2,2.7L2,2.75L2.05,2.75L2.05,2.7L2,2.7ZM4,2.65L3.95,2.65L3.95,2.7L4,2.7L4,2.65ZM2,2.6L2,2.65L2.05,2.65L2.05,2.6L2,2.6ZM4,2.55L3.95,2.55L3.95,2.6L4,2.6L4,2.55ZM2,2.5L2,2.55L2.05,2.55L2.05,2.5L2,2.5ZM4,2.45L3.95,2.45L3.95,2.5L4,2.5L4,2.45ZM2,2.4L2,2.45L2.05,2.45L2.05,2.4L2,2.4ZM4,2.35L3.95,2.35L3.95,2.4L4,2.4L4,2.35ZM2,2.3L2,2.35L2.05,2.35L2.05,2.3L2,2.3ZM4,2.25L3.95,2.25L3.95,2.3L4,2.3L4,2.25ZM2,2.2L2,2.25L2.05,2.25L2.05,2.2L2,2.2ZM4,2.15L3.95,2.15L3.95,2.2L4,2.2L4,2.15ZM2,2.1L2,2.15L2.05,2.15L2.05,2.1L2,2.1ZM4,2.1L3.95,2.1L3.95,2L4,2L4,2.1ZM2.9,2L2.85,2L2.85,2.05L2.9,2.05L2.9,2ZM3.2,2L3.15,2L3.15,2.05L3.2,2.05L3.2,2ZM3.3,2L3.25,2L3.25,2.05L3.3,2.05L3.3,2ZM3.4,2L3.35,2L3.35,2.05L3.4,2.05L3.4,2ZM3.5,2L3.45,2L3.45,2.05L3.5,2.05L3.5,2ZM3.6,2L3.55,2L3.55,2.05L3.6,2.05L3.6,2ZM3.7,2L3.65,2L3.65,2.05L3.7,2.05L3.7,2ZM3.8,2L3.75,2L3.75,2.05L3.8,2.05L3.8,2ZM3,2L2.95,2L2.95,2.05L3,2.05L3,2ZM3.1,2L3.05,2L3.05,2.05L3.1,2.05L3.1,2ZM2.1,2.05L2,2.05L2,2L2.1,2L2.1,2.05ZM2.2,2L2.15,2L2.15,2.05L2.2,2.05L2.2,2ZM2.3,2L2.25,2L2.25,2.05L2.3,2.05L2.3,2ZM2.4,2L2.35,2L2.35,2.05L2.4,2.05L2.4,2ZM2.5,2L2.45,2L2.45,2.05L2.5,2.05L2.5,2ZM2.6,2L2.55,2L2.55,2.05L2.6,2.05L2.6,2ZM2.7,2L2.65,2L2.65,2.05L2.7,2.05L2.7,2ZM2.8,2L2.75,2L2.75,2.05L2.8,2.05L2.8,2ZM3.9,2L3.85,2L3.85,2.05L3.9,2.05L3.9,2Z" style="fill:white;"/>
            </g>
            <g transform="matrix(1,0,0,1,5,0)">
                <rect x="2" y="2" width="2" height="2"/>
                <path d="M2.05,3.9L2.05,4L2,4L2,3.9L2.05,3.9ZM2.15,4L2.15,3.95L2.1,3.95L2.1,4L2.15,4ZM2.25,4L2.25,3.95L2.2,3.95L2.2,4L2.25,4ZM2.35,4L2.35,3.95L2.3,3.95L2.3,4L2.35,4ZM2.45,4L2.45,3.95L2.4,3.95L2.4,4L2.45,4ZM2.55,4L2.55,3.95L2.5,3.95L2.5,4L2.55,4ZM2.65,4L2.65,3.95L2.6,3.95L2.6,4L2.65,4ZM2.75,4L2.75,3.95L2.7,3.95L2.7,4L2.75,4ZM2.85,4L2.85,3.95L2.8,3.95L2.8,4L2.85,4ZM2.95,4L2.95,3.95L2.9,3.95L2.9,4L2.95,4ZM3.05,4L3.05,3.95L3,3.95L3,4L3.05,4ZM3.15,4L3.15,3.95L3.1,3.95L3.1,4L3.15,4ZM3.25,4L3.25,3.95L3.2,3.95L3.2,4L3.25,4ZM3.35,4L3.35,3.95L3.3,3.95L3.3,4L3.35,4ZM3.45,4L3.45,3.95L3.4,3.95L3.4,4L3.45,4ZM3.55,4L3.55,3.95L3.5,3.95L3.5,4L3.55,4ZM3.65,4L3.65,3.95L3.6,3.95L3.6,4L3.65,4ZM3.75,4L3.75,3.95L3.7,3.95L3.7,4L3.75,4ZM3.85,4L3.85,3.95L3.8,3.95L3.8,4L3.85,4ZM4,3.95L4,4L3.9,4L3.9,3.95L4,3.95ZM4,3.85L3.95,3.85L3.95,3.9L4,3.9L4,3.85ZM2,3.8L2,3.85L2.05,3.85L2.05,3.8L2,3.8ZM4,3.75L3.95,3.75L3.95,3.8L4,3.8L4,3.75ZM2,3.7L2,3.75L2.05,3.75L2.05,3.7L2,3.7ZM4,3.65L3.95,3.65L3.95,3.7L4,3.7L4,3.65ZM2,3.6L2,3.65L2.05,3.65L2.05,3.6L2,3.6ZM4,3.55L3.95,3.55L3.95,3.6L4,3.6L4,3.55ZM2,3.5L2,3.55L2.05,3.55L2.05,3.5L2,3.5ZM4,3.45L3.95,3.45L3.95,3.5L4,3.5L4,3.45ZM2,3.4L2,3.45L2.05,3.45L2.05,3.4L2,3.4ZM4,3.35L3.95,3.35L3.95,3.4L4,3.4L4,3.35ZM2,3.3L2,3.35L2.05,3.35L2.05,3.3L2,3.3ZM4,3.25L3.95,3.25L3.95,3.3L4,3.3L4,3.25ZM2,3.2L2,3.25L2.05,3.25L2.05,3.2L2,3.2ZM4,3.15L3.95,3.15L3.95,3.2L4,3.2L4,3.15ZM2,3.1L2,3.15L2.05,3.15L2.05,3.1L2,3.1ZM4,3.05L3.95,3.05L3.95,3.1L4,3.1L4,3.05ZM2,3L2,3.05L2.05,3.05L2.05,3L2,3ZM4,2.95L3.95,2.95L3.95,3L4,3L4,2.95ZM2,2.9L2,2.95L2.05,2.95L2.05,2.9L2,2.9ZM4,2.85L3.95,2.85L3.95,2.9L4,2.9L4,2.85ZM2,2.8L2,2.85L2.05,2.85L2.05,2.8L2,2.8ZM4,2.75L3.95,2.75L3.95,2.8L4,2.8L4,2.75ZM2,2.7L2,2.75L2.05,2.75L2.05,2.7L2,2.7ZM4,2.65L3.95,2.65L3.95,2.7L4,2.7L4,2.65ZM2,2.6L2,2.65L2.05,2.65L2.05,2.6L2,2.6ZM4,2.55L3.95,2.55L3.95,2.6L4,2.6L4,2.55ZM2,2.5L2,2.55L2.05,2.55L2.05,2.5L2,2.5ZM4,2.45L3.95,2.45L3.95,2.5L4,2.5L4,2.45ZM2,2.4L2,2.45L2.05,2.45L2.05,2.4L2,2.4ZM4,2.35L3.95,2.35L3.95,2.4L4,2.4L4,2.35ZM2,2.3L2,2.35L2.05,2.35L2.05,2.3L2,2.3ZM4,2.25L3.95,2.25L3.95,2.3L4,2.3L4,2.25ZM2,2.2L2,2.25L2.05,2.25L2.05,2.2L2,2.2ZM4,2.15L3.95,2.15L3.95,2.2L4,2.2L4,2.15ZM2,2.1L2,2.15L2.05,2.15L2.05,2.1L2,2.1ZM4,2.1L3.95,2.1L3.95,2L4,2L4,2.1ZM2.9,2L2.85,2L2.85,2.05L2.9,2.05L2.9,2ZM3.2,2L3.15,2L3.15,2.05L3.2,2.05L3.2,2ZM3.3,2L3.25,2L3.25,2.05L3.3,2.05L3.3,2ZM3.4,2L3.35,2L3.35,2.05L3.4,2.05L3.4,2ZM3.5,2L3.45,2L3.45,2.05L3.5,2.05L3.5,2ZM3.6,2L3.55,2L3.55,2.05L3.6,2.05L3.6,2ZM3.7,2L3.65,2L3.65,2.05L3.7,2.05L3.7,2ZM3.8,2L3.75,2L3.75,2.05L3.8,2.05L3.8,2ZM3,2L2.95,2L2.95,2.05L3,2.05L3,2ZM3.1,2L3.05,2L3.05,2.05L3.1,2.05L3.1,2ZM2.1,2.05L2,2.05L2,2L2.1,2L2.1,2.05ZM2.2,2L2.15,2L2.15,2.05L2.2,2.05L2.2,2ZM2.3,2L2.25,2L2.25,2.05L2.3,2.05L2.3,2ZM2.4,2L2.35,2L2.35,2.05L2.4,2.05L2.4,2ZM2.5,2L2.45,2L2.45,2.05L2.5,2.05L2.5,2ZM2.6,2L2.55,2L2.55,2.05L2.6,2.05L2.6,2ZM2.7,2L2.65,2L2.65,2.05L2.7,2.05L2.7,2ZM2.8,2L2.75,2L2.75,2.05L2.8,2.05L2.8,2ZM3.9,2L3.85,2L3.85,2.05L3.9,2.05L3.9,2Z" style="fill:white;"/>
            </g>
            <g transform="matrix(1,0,0,1,9,0)">
                <g id="DashGroup2" serif:id="DashGroup">
                    <rect x="2" y="2" width="2" height="2"/>
                    <path d="M2.05,4L2,4L2,3.9L2.05,3.9L2.05,4ZM2.15,4L2.15,3.95L2.1,3.95L2.1,4L2.15,4ZM2.25,4L2.25,3.95L2.2,3.95L2.2,4L2.25,4ZM2.35,4L2.35,3.95L2.3,3.95L2.3,4L2.35,4ZM2.45,4L2.45,3.95L2.4,3.95L2.4,4L2.45,4ZM2.55,4L2.55,3.95L2.5,3.95L2.5,4L2.55,4ZM2.65,4L2.65,3.95L2.6,3.95L2.6,4L2.65,4ZM2.75,4L2.75,3.95L2.7,3.95L2.7,4L2.75,4ZM2.85,4L2.85,3.95L2.8,3.95L2.8,4L2.85,4ZM2.95,4L2.95,3.95L2.9,3.95L2.9,4L2.95,4ZM3.05,4L3.05,3.95L3,3.95L3,4L3.05,4ZM3.15,4L3.15,3.95L3.1,3.95L3.1,4L3.15,4ZM3.25,4L3.25,3.95L3.2,3.95L3.2,4L3.25,4ZM3.35,4L3.35,3.95L3.3,3.95L3.3,4L3.35,4ZM3.45,4L3.45,3.95L3.4,3.95L3.4,4L3.45,4ZM3.55,4L3.55,3.95L3.5,3.95L3.5,4L3.55,4ZM3.65,4L3.65,3.95L3.6,3.95L3.6,4L3.65,4ZM3.75,4L3.75,3.95L3.7,3.95L3.7,4L3.75,4ZM3.85,4L3.85,3.95L3.8,3.95L3.8,4L3.85,4ZM4,3.95L4,4L3.9,4L3.9,3.95L4,3.95ZM4,3.85L3.95,3.85L3.95,3.9L4,3.9L4,3.85ZM2,3.8L2,3.85L2.05,3.85L2.05,3.8L2,3.8ZM4,3.75L3.95,3.75L3.95,3.8L4,3.8L4,3.75ZM2,3.7L2,3.75L2.05,3.75L2.05,3.7L2,3.7ZM4,3.65L3.95,3.65L3.95,3.7L4,3.7L4,3.65ZM2,3.6L2,3.65L2.05,3.65L2.05,3.6L2,3.6ZM4,3.55L3.95,3.55L3.95,3.6L4,3.6L4,3.55ZM2,3.5L2,3.55L2.05,3.55L2.05,3.5L2,3.5ZM4,3.45L3.95,3.45L3.95,3.5L4,3.5L4,3.45ZM2,3.4L2,3.45L2.05,3.45L2.05,3.4L2,3.4ZM4,3.35L3.95,3.35L3.95,3.4L4,3.4L4,3.35ZM2,3.3L2,3.35L2.05,3.35L2.05,3.3L2,3.3ZM4,3.25L3.95,3.25L3.95,3.3L4,3.3L4,3.25ZM2,3.2L2,3.25L2.05,3.25L2.05,3.2L2,3.2ZM4,3.15L3.95,3.15L3.95,3.2L4,3.2L4,3.15ZM2,3.1L2,3.15L2.05,3.15L2.05,3.1L2,3.1ZM4,3.05L3.95,3.05L3.95,3.1L4,3.1L4,3.05ZM2,3L2,3.05L2.05,3.05L2.05,3L2,3ZM4,2.95L3.95,2.95L3.95,3L4,3L4,2.95ZM2,2.9L2,2.95L2.05,2.95L2.05,2.9L2,2.9ZM4,2.85L3.95,2.85L3.95,2.9L4,2.9L4,2.85ZM2,2.8L2,2.85L2.05,2.85L2.05,2.8L2,2.8ZM4,2.75L3.95,2.75L3.95,2.8L4,2.8L4,2.75ZM2,2.7L2,2.75L2.05,2.75L2.05,2.7L2,2.7ZM4,2.65L3.95,2.65L3.95,2.7L4,2.7L4,2.65ZM2,2.6L2,2.65L2.05,2.65L2.05,2.6L2,2.6ZM4,2.55L3.95,2.55L3.95,2.6L4,2.6L4,2.55ZM2,2.5L2,2.55L2.05,2.55L2.05,2.5L2,2.5ZM4,2.45L3.95,2.45L3.95,2.5L4,2.5L4,2.45ZM2,2.4L2,2.45L2.05,2.45L2.05,2.4L2,2.4ZM4,2.35L3.95,2.35L3.95,2.4L4,2.4L4,2.35ZM2,2.3L2,2.35L2.05,2.35L2.05,2.3L2,2.3ZM4,2.25L3.95,2.25L3.95,2.3L4,2.3L4,2.25ZM2,2.2L2,2.25L2.05,2.25L2.05,2.2L2,2.2ZM4,2.15L3.95,2.15L3.95,2.2L4,2.2L4,2.15ZM2,2.1L2,2.15L2.05,2.15L2.05,2.1L2,2.1ZM4,2.1L3.95,2.1L3.95,2L4,2L4,2.1ZM2.9,2L2.85,2L2.85,2.05L2.9,2.05L2.9,2ZM3.2,2L3.15,2L3.15,2.05L3.2,2.05L3.2,2ZM3.3,2L3.25,2L3.25,2.05L3.3,2.05L3.3,2ZM3.4,2L3.35,2L3.35,2.05L3.4,2.05L3.4,2ZM3.5,2L3.45,2L3.45,2.05L3.5,2.05L3.5,2ZM3.6,2L3.55,2L3.55,2.05L3.6,2.05L3.6,2ZM3.7,2L3.65,2L3.65,2.05L3.7,2.05L3.7,2ZM3.8,2L3.75,2L3.75,2.05L3.8,2.05L3.8,2ZM3,2L2.95,2L2.95,2.05L3,2.05L3,2ZM3.1,2L3.05,2L3.05,2.05L3.1,2.05L3.1,2ZM2.1,2.05L2,2.05L2,2L2.1,2L2.1,2.05ZM2.2,2L2.15,2L2.15,2.05L2.2,2.05L2.2,2ZM2.3,2L2.25,2L2.25,2.05L2.3,2.05L2.3,2ZM2.4,2L2.35,2L2.35,2.05L2.4,2.05L2.4,2ZM2.5,2L2.45,2L2.45,2.05L2.5,2.05L2.5,2ZM2.6,2L2.55,2L2.55,2.05L2.6,2.05L2.6,2ZM2.7,2L2.65,2L2.65,2.05L2.7,2.05L2.7,2ZM2.8,2L2.75,2L2.75,2.05L2.8,2.05L2.8,2ZM3.9,2L3.85,2L3.85,2.05L3.9,2.05L3.9,2Z" style="fill:white;"/>
                </g>
            </g>
            <g transform="matrix(1,0,0,1,13,0)">
                <rect x="2" y="2" width="2" height="2"/>
                <path d="M2.05,3.9L2.05,4L2,4L2,3.9L2.05,3.9ZM2.15,4L2.15,3.95L2.1,3.95L2.1,4L2.15,4ZM2.25,4L2.25,3.95L2.2,3.95L2.2,4L2.25,4ZM2.35,4L2.35,3.95L2.3,3.95L2.3,4L2.35,4ZM2.45,4L2.45,3.95L2.4,3.95L2.4,4L2.45,4ZM2.55,4L2.55,3.95L2.5,3.95L2.5,4L2.55,4ZM2.65,4L2.65,3.95L2.6,3.95L2.6,4L2.65,4ZM2.75,4L2.75,3.95L2.7,3.95L2.7,4L2.75,4ZM2.85,4L2.85,3.95L2.8,3.95L2.8,4L2.85,4ZM2.95,4L2.95,3.95L2.9,3.95L2.9,4L2.95,4ZM3.05,4L3.05,3.95L3,3.95L3,4L3.05,4ZM3.15,4L3.15,3.95L3.1,3.95L3.1,4L3.15,4ZM3.25,4L3.25,3.95L3.2,3.95L3.2,4L3.25,4ZM3.35,4L3.35,3.95L3.3,3.95L3.3,4L3.35,4ZM3.45,4L3.45,3.95L3.4,3.95L3.4,4L3.45,4ZM3.55,4L3.55,3.95L3.5,3.95L3.5,4L3.55,4ZM3.65,4L3.65,3.95L3.6,3.95L3.6,4L3.65,4ZM3.75,4L3.75,3.95L3.7,3.95L3.7,4L3.75,4ZM3.85,4L3.85,3.95L3.8,3.95L3.8,4L3.85,4ZM4,3.95L4,4L3.9,4L3.9,3.95L4,3.95ZM4,3.85L3.95,3.85L3.95,3.9L4,3.9L4,3.85ZM2,3.8L2,3.85L2.05,3.85L2.05,3.8L2,3.8ZM4,3.75L3.95,3.75L3.95,3.8L4,3.8L4,3.75ZM2,3.7L2,3.75L2.05,3.75L2.05,3.7L2,3.7ZM4,3.65L3.95,3.65L3.95,3.7L4,3.7L4,3.65ZM2,3.6L2,3.65L2.05,3.65L2.05,3.6L2,3.6ZM4,3.55L3.95,3.55L3.95,3.6L4,3.6L4,3.55ZM2,3.5L2,3.55L2.05,3.55L2.05,3.5L2,3.5ZM4,3.45L3.95,3.45L3.95,3.5L4,3.5L4,3.45ZM2,3.4L2,3.45L2.05,3.45L2.05,3.4L2,3.4ZM4,3.35L3.95,3.35L3.95,3.4L4,3.4L4,3.35ZM2,3.3L2,3.35L2.05,3.35L2.05,3.3L2,3.3ZM4,3.25L3.95,3.25L3.95,3.3L4,3.3L4,3.25ZM2,3.2L2,3.25L2.05,3.25L2.05,3.2L2,3.2ZM4,3.15L3.95,3.15L3.95,3.2L4,3.2L4,3.15ZM2,3.1L2,3.15L2.05,3.15L2.05,3.1L2,3.1ZM4,3.05L3.95,3.05L3.95,3.1L4,3.1L4,3.05ZM2,3L2,3.05L2.05,3.05L2.05,3L2,3ZM4,2.95L3.95,2.95L3.95,3L4,3L4,2.95ZM2,2.9L2,2.95L2.05,2.95L2.05,2.9L2,2.9ZM4,2.85L3.95,2.85L3.95,2.9L4,2.9L4,2.85ZM2,2.8L2,2.85L2.05,2.85L2.05,2.8L2,2.8ZM4,2.75L3.95,2.75L3.95,2.8L4,2.8L4,2.75ZM2,2.7L2,2.75L2.05,2.75L2.05,2.7L2,2.7ZM4,2.65L3.95,2.65L3.95,2.7L4,2.7L4,2.65ZM2,2.6L2,2.65L2.05,2.65L2.05,2.6L2,2.6ZM4,2.55L3.95,2.55L3.95,2.6L4,2.6L4,2.55ZM2,2.5L2,2.55L2.05,2.55L2.05,2.5L2,2.5ZM4,2.45L3.95,2.45L3.95,2.5L4,2.5L4,2.45ZM2,2.4L2,2.45L2.05,2.45L2.05,2.4L2,2.4ZM4,2.35L3.95,2.35L3.95,2.4L4,2.4L4,2.35ZM2,2.3L2,2.35L2.05,2.35L2.05,2.3L2,2.3ZM4,2.25L3.95,2.25L3.95,2.3L4,2.3L4,2.25ZM2,2.2L2,2.25L2.05,2.25L2.05,2.2L2,2.2ZM4,2.15L3.95,2.15L3.95,2.2L4,2.2L4,2.15ZM2,2.1L2,2.15L2.05,2.15L2.05,2.1L2,2.1ZM4,2.1L3.95,2.1L3.95,2L4,2L4,2.1ZM2.9,2L2.85,2L2.85,2.05L2.9,2.05L2.9,2ZM3.2,2L3.15,2L3.15,2.05L3.2,2.05L3.2,2ZM3.3,2L3.25,2L3.25,2.05L3.3,2.05L3.3,2ZM3.4,2L3.35,2L3.35,2.05L3.4,2.05L3.4,2ZM3.5,2L3.45,2L3.45,2.05L3.5,2.05L3.5,2ZM3.6,2L3.55,2L3.55,2.05L3.6,2.05L3.6,2ZM3.7,2L3.65,2L3.65,2.05L3.7,2.05L3.7,2ZM3.8,2L3.75,2L3.75,2.05L3.8,2.05L3.8,2ZM3,2L2.95,2L2.95,2.05L3,2.05L3,2ZM3.1,2L3.05,2L3.05,2.05L3.1,2.05L3.1,2ZM2.1,2.05L2,2.05L2,2L2.1,2L2.1,2.05ZM2.2,2L2.15,2L2.15,2.05L2.2,2.05L2.2,2ZM2.3,2L2.25,2L2.25,2.05L2.3,2.05L2.3,2ZM2.4,2L2.35,2L2.35,2.05L2.4,2.05L2.4,2ZM2.5,2L2.45,2L2.45,2.05L2.5,2.05L2.5,2ZM2.6,2L2.55,2L2.55,2.05L2.6,2.05L2.6,2ZM2.7,2L2.65,2L2.65,2.05L2.7,2.05L2.7,2ZM2.8,2L2.75,2L2.75,2.05L2.8,2.05L2.8,2ZM3.9,2L3.85,2L3.85,2.05L3.9,2.05L3.9,2Z" style="fill:white;"/>
            </g>
            <g transform="matrix(1,0,0,1,17,0)">
                <g id="DashGroup3" serif:id="DashGroup">
                    <rect x="2" y="2" width="2" height="2"/>
                    <path d="M2.05,4L2,4L2,3.9L2.05,3.9L2.05,4ZM2.15,4L2.15,3.95L2.1,3.95L2.1,4L2.15,4ZM2.25,4L2.25,3.95L2.2,3.95L2.2,4L2.25,4ZM2.35,4L2.35,3.95L2.3,3.95L2.3,4L2.35,4ZM2.45,4L2.45,3.95L2.4,3.95L2.4,4L2.45,4ZM2.55,4L2.55,3.95L2.5,3.95L2.5,4L2.55,4ZM2.65,4L2.65,3.95L2.6,3.95L2.6,4L2.65,4ZM2.75,4L2.75,3.95L2.7,3.95L2.7,4L2.75,4ZM2.85,4L2.85,3.95L2.8,3.95L2.8,4L2.85,4ZM2.95,4L2.95,3.95L2.9,3.95L2.9,4L2.95,4ZM3.05,4L3.05,3.95L3,3.95L3,4L3.05,4ZM3.15,4L3.15,3.95L3.1,3.95L3.1,4L3.15,4ZM3.25,4L3.25,3.95L3.2,3.95L3.2,4L3.25,4ZM3.35,4L3.35,3.95L3.3,3.95L3.3,4L3.35,4ZM3.45,4L3.45,3.95L3.4,3.95L3.4,4L3.45,4ZM3.55,4L3.55,3.95L3.5,3.95L3.5,4L3.55,4ZM3.65,4L3.65,3.95L3.6,3.95L3.6,4L3.65,4ZM3.75,4L3.75,3.95L3.7,3.95L3.7,4L3.75,4ZM3.85,4L3.85,3.95L3.8,3.95L3.8,4L3.85,4ZM4,3.95L4,4L3.9,4L3.9,3.95L4,3.95ZM4,3.85L3.95,3.85L3.95,3.9L4,3.9L4,3.85ZM2,3.8L2,3.85L2.05,3.85L2.05,3.8L2,3.8ZM4,3.75L3.95,3.75L3.95,3.8L4,3.8L4,3.75ZM2,3.7L2,3.75L2.05,3.75L2.05,3.7L2,3.7ZM4,3.65L3.95,3.65L3.95,3.7L4,3.7L4,3.65ZM2,3.6L2,3.65L2.05,3.65L2.05,3.6L2,3.6ZM4,3.55L3.95,3.55L3.95,3.6L4,3.6L4,3.55ZM2,3.5L2,3.55L2.05,3.55L2.05,3.5L2,3.5ZM4,3.45L3.95,3.45L3.95,3.5L4,3.5L4,3.45ZM2,3.4L2,3.45L2.05,3.45L2.05,3.4L2,3.4ZM4,3.35L3.95,3.35L3.95,3.4L4,3.4L4,3.35ZM2,3.3L2,3.35L2.05,3.35L2.05,3.3L2,3.3ZM4,3.25L3.95,3.25L3.95,3.3L4,3.3L4,3.25ZM2,3.2L2,3.25L2.05,3.25L2.05,3.2L2,3.2ZM4,3.15L3.95,3.15L3.95,3.2L4,3.2L4,3.15ZM2,3.1L2,3.15L2.05,3.15L2.05,3.1L2,3.1ZM4,3.05L3.95,3.05L3.95,3.1L4,3.1L4,3.05ZM2,3L2,3.05L2.05,3.05L2.05,3L2,3ZM4,2.95L3.95,2.95L3.95,3L4,3L4,2.95ZM2,2.9L2,2.95L2.05,2.95L2.05,2.9L2,2.9ZM4,2.85L3.95,2.85L3.95,2.9L4,2.9L4,2.85ZM2,2.8L2,2.85L2.05,2.85L2.05,2.8L2,2.8ZM4,2.75L3.95,2.75L3.95,2.8L4,2.8L4,2.75ZM2,2.7L2,2.75L2.05,2.75L2.05,2.7L2,2.7ZM4,2.65L3.95,2.65L3.95,2.7L4,2.7L4,2.65ZM2,2.6L2,2.65L2.05,2.65L2.05,2.6L2,2.6ZM4,2.55L3.95,2.55L3.95,2.6L4,2.6L4,2.55ZM2,2.5L2,2.55L2.05,2.55L2.05,2.5L2,2.5ZM4,2.45L3.95,2.45L3.95,2.5L4,2.5L4,2.45ZM2,2.4L2,2.45L2.05,2.45L2.05,2.4L2,2.4ZM4,2.35L3.95,2.35L3.95,2.4L4,2.4L4,2.35ZM2,2.3L2,2.35L2.05,2.35L2.05,2.3L2,2.3ZM4,2.25L3.95,2.25L3.95,2.3L4,2.3L4,2.25ZM2,2.2L2,2.25L2.05,2.25L2.05,2.2L2,2.2ZM4,2.15L3.95,2.15L3.95,2.2L4,2.2L4,2.15ZM2,2.1L2,2.15L2.05,2.15L2.05,2.1L2,2.1ZM4,2.1L3.95,2.1L3.95,2L4,2L4,2.1ZM2.9,2L2.85,2L2.85,2.05L2.9,2.05L2.9,2ZM3.2,2L3.15,2L3.15,2.05L3.2,2.05L3.2,2ZM3.3,2L3.25,2L3.25,2.05L3.3,2.05L3.3,2ZM3.4,2L3.35,2L3.35,2.05L3.4,2.05L3.4,2ZM3.5,2L3.45,2L3.45,2.05L3.5,2.05L3.5,2ZM3.6,2L3.55,2L3.55,2.05L3.6,2.05L3.6,2ZM3.7,2L3.65,2L3.65,2.05L3.7,2.05L3.7,2ZM3.8,2L3.75,2L3.75,2.05L3.8,2.05L3.8,2ZM3,2L2.95,2L2.95,2.05L3,2.05L3,2ZM3.1,2L3.05,2L3.05,2.05L3.1,2.05L3.1,2ZM2.1,2.05L2,2.05L2,2L2.1,2L2.1,2.05ZM2.2,2L2.15,2L2.15,2.05L2.2,2.05L2.2,2ZM2.3,2L2.25,2L2.25,2.05L2.3,2.05L2.3,2ZM2.4,2L2.35,2L2.35,2.05L2.4,2.05L2.4,2ZM2.5,2L2.45,2L2.45,2.05L2.5,2.05L2.5,2ZM2.6,2L2.55,2L2.55,2.05L2.6,2.05L2.6,2ZM2.7,2L2.65,2L2.65,2.05L2.7,2.05L2.7,2ZM2.8,2L2.75,2L2.75,2.05L2.8,2.05L2.8,2ZM3.9,2L3.85,2L3.85,2.05L3.9,2.05L3.9,2Z" style="fill:white;"/>
                </g>
            </g>
            <g transform="matrix(1,0,0,1,21,0)">
                <rect x="2" y="2" width="2" height="2"/>
                <path d="M2.05,3.9L2.05,4L2,4L2,3.9L2.05,3.9ZM2.15,4L2.15,3.95L2.1,3.95L2.1,4L2.15,4ZM2.25,4L2.25,3.95L2.2,3.95L2.2,4L2.25,4ZM2.35,4L2.35,3.95L2.3,3.95L2.3,4L2.35,4ZM2.45,4L2.45,3.95L2.4,3.95L2.4,4L2.45,4ZM2.55,4L2.55,3.95L2.5,3.95L2.5,4L2.55,4ZM2.65,4L2.65,3.95L2.6,3.95L2.6,4L2.65,4ZM2.75,4L2.75,3.95L2.7,3.95L2.7,4L2.75,4ZM2.85,4L2.85,3.95L2.8,3.95L2.8,4L2.85,4ZM2.95,4L2.95,3.95L2.9,3.95L2.9,4L2.95,4ZM3.05,4L3.05,3.95L3,3.95L3,4L3.05,4ZM3.15,4L3.15,3.95L3.1,3.95L3.1,4L3.15,4ZM3.25,4L3.25,3.95L3.2,3.95L3.2,4L3.25,4ZM3.35,4L3.35,3.95L3.3,3.95L3.3,4L3.35,4ZM3.45,4L3.45,3.95L3.4,3.95L3.4,4L3.45,4ZM3.55,4L3.55,3.95L3.5,3.95L3.5,4L3.55,4ZM3.65,4L3.65,3.95L3.6,3.95L3.6,4L3.65,4ZM3.75,4L3.75,3.95L3.7,3.95L3.7,4L3.75,4ZM3.85,4L3.85,3.95L3.8,3.95L3.8,4L3.85,4ZM4,3.95L4,4L3.9,4L3.9,3.95L4,3.95ZM4,3.85L3.95,3.85L3.95,3.9L4,3.9L4,3.85ZM2,3.8L2,3.85L2.05,3.85L2.05,3.8L2,3.8ZM4,3.75L3.95,3.75L3.95,3.8L4,3.8L4,3.75ZM2,3.7L2,3.75L2.05,3.75L2.05,3.7L2,3.7ZM4,3.65L3.95,3.65L3.95,3.7L4,3.7L4,3.65ZM2,3.6L2,3.65L2.05,3.65L2.05,3.6L2,3.6ZM4,3.55L3.95,3.55L3.95,3.6L4,3.6L4,3.55ZM2,3.5L2,3.55L2.05,3.55L2.05,3.5L2,3.5ZM4,3.45L3.95,3.45L3.95,3.5L4,3.5L4,3.45ZM2,3.4L2,3.45L2.05,3.45L2.05,3.4L2,3.4ZM4,3.35L3.95,3.35L3.95,3.4L4,3.4L4,3.35ZM2,3.3L2,3.35L2.05,3.35L2.05,3.3L2,3.3ZM4,3.25L3.95,3.25L3.95,3.3L4,3.3L4,3.25ZM2,3.2L2,3.25L2.05,3.25L2.05,3.2L2,3.2ZM4,3.15L3.95,3.15L3.95,3.2L4,3.2L4,3.15ZM2,3.1L2,3.15L2.05,3.15L2.05,3.1L2,3.1ZM4,3.05L3.95,3.05L3.95,3.1L4,3.1L4,3.05ZM2,3L2,3.05L2.05,3.05L2.05,3L2,3ZM4,2.95L3.95,2.95L3.95,3L4,3L4,2.95ZM2,2.9L2,2.95L2.05,2.95L2.05,2.9L2,2.9ZM4,2.85L3.95,2.85L3.95,2.9L4,2.9L4,2.85ZM2,2.8L2,2.85L2.05,2.85L2.05,2.8L2,2.8ZM4,2.75L3.95,2.75L3.95,2.8L4,2.8L4,2.75ZM2,2.7L2,2.75L2.05,2.75L2.05,2.7L2,2.7ZM4,2.65L3.95,2.65L3.95,2.7L4,2.7L4,2.65ZM2,2.6L2,2.65L2.05,2.65L2.05,2.6L2,2.6ZM4,2.55L3.95,2.55L3.95,2.6L4,2.6L4,2.55ZM2,2.5L2,2.55L2.05,2.55L2.05,2.5L2,2.5ZM4,2.45L3.95,2.45L3.95,2.5L4,2.5L4,2.45ZM2,2.4L2,2.45L2.05,2.45L2.05,2.4L2,2.4ZM4,2.35L3.95,2.35L3.95,2.4L4,2.4L4,2.35ZM2,2.3L2,2.35L2.05,2.35L2.05,2.3L2,2.3ZM4,2.25L3.95,2.25L3.95,2.3L4,2.3L4,2.25ZM2,2.2L2,2.25L2.05,2.25L2.05,2.2L2,2.2ZM4,2.15L3.95,2.15L3.95,2.2L4,2.2L4,2.15ZM2,2.1L2,2.15L2.05,2.15L2.05,2.1L2,2.1ZM4,2.1L3.95,2.1L3.95,2L4,2L4,2.1ZM2.9,2L2.85,2L2.85,2.05L2.9,2.05L2.9,2ZM3.2,2L3.15,2L3.15,2.05L3.2,2.05L3.2,2ZM3.3,2L3.25,2L3.25,2.05L3.3,2.05L3.3,2ZM3.4,2L3.35,2L3.35,2.05L3.4,2.05L3.4,2ZM3.5,2L3.45,2L3.45,2.05L3.5,2.05L3.5,2ZM3.6,2L3.55,2L3.55,2.05L3.6,2.05L3.6,2ZM3.7,2L3.65,2L3.65,2.05L3.7,2.05L3.7,2ZM3.8,2L3.75,2L3.75,2.05L3.8,2.05L3.8,2ZM3,2L2.95,2L2.95,2.05L3,2.05L3,2ZM3.1,2L3.05,2L3.05,2.05L3.1,2.05L3.1,2ZM2.1,2.05L2,2.05L2,2L2.1,2L2.1,2.05ZM2.2,2L2.15,2L2.15,2.05L2.2,2.05L2.2,2ZM2.3,2L2.25,2L2.25,2.05L2.3,2.05L2.3,2ZM2.4,2L2.35,2L2.35,2.05L2.4,2.05L2.4,2ZM2.5,2L2.45,2L2.45,2.05L2.5,2.05L2.5,2ZM2.6,2L2.55,2L2.55,2.05L2.6,2.05L2.6,2ZM2.7,2L2.65,2L2.65,2.05L2.7,2.05L2.7,2ZM2.8,2L2.75,2L2.75,2.05L2.8,2.05L2.8,2ZM3.9,2L3.85,2L3.85,2.05L3.9,2.05L3.9,2Z" style="fill:white;"/>
            </g>
            <g transform="matrix(1,0,0,1,1,26)">
                <rect x="2" y="2" width="2" height="2"/>
                <path d="M2.05,3.9L2.05,4L2,4L2,3.9L2.05,3.9ZM2.15,4L2.15,3.95L2.1,3.95L2.1,4L2.15,4ZM2.2,4L2.25,4L2.25,3.95L2.2,3.95L2.2,4ZM2.35,4L2.35,3.95L2.3,3.95L2.3,4L2.35,4ZM2.45,4L2.45,3.95L2.4,3.95L2.4,4L2.45,4ZM2.55,4L2.55,3.95L2.5,3.95L2.5,4L2.55,4ZM2.65,4L2.65,3.95L2.6,3.95L2.6,4L2.65,4ZM2.75,4L2.75,3.95L2.7,3.95L2.7,4L2.75,4ZM2.85,4L2.85,3.95L2.8,3.95L2.8,4L2.85,4ZM2.95,4L2.95,3.95L2.9,3.95L2.9,4L2.95,4ZM3.05,4L3.05,3.95L3,3.95L3,4L3.05,4ZM3.15,4L3.15,3.95L3.1,3.95L3.1,4L3.15,4ZM3.25,4L3.25,3.95L3.2,3.95L3.2,4L3.25,4ZM3.35,4L3.35,3.95L3.3,3.95L3.3,4L3.35,4ZM3.4,4L3.45,4L3.45,3.95L3.4,3.95L3.4,4ZM3.55,4L3.55,3.95L3.5,3.95L3.5,4L3.55,4ZM3.6,4L3.65,4L3.65,3.95L3.6,3.95L3.6,4ZM3.75,4L3.75,3.95L3.7,3.95L3.7,4L3.75,4ZM3.85,4L3.85,3.95L3.8,3.95L3.8,4L3.85,4ZM4,3.95L4,4L3.9,4L3.9,3.95L4,3.95ZM4,3.85L3.95,3.85L3.95,3.9L4,3.9L4,3.85ZM2,3.8L2,3.85L2.05,3.85L2.05,3.8L2,3.8ZM4,3.75L3.95,3.75L3.95,3.8L4,3.8L4,3.75ZM2,3.7L2,3.75L2.05,3.75L2.05,3.7L2,3.7ZM4,3.65L3.95,3.65L3.95,3.7L4,3.7L4,3.65ZM2,3.6L2,3.65L2.05,3.65L2.05,3.6L2,3.6ZM4,3.55L3.95,3.55L3.95,3.6L4,3.6L4,3.55ZM2,3.5L2,3.55L2.05,3.55L2.05,3.5L2,3.5ZM4,3.45L3.95,3.45L3.95,3.5L4,3.5L4,3.45ZM2,3.4L2,3.45L2.05,3.45L2.05,3.4L2,3.4ZM4,3.35L3.95,3.35L3.95,3.4L4,3.4L4,3.35ZM2,3.3L2,3.35L2.05,3.35L2.05,3.3L2,3.3ZM4,3.25L3.95,3.25L3.95,3.3L4,3.3L4,3.25ZM2,3.2L2,3.25L2.05,3.25L2.05,3.2L2,3.2ZM4,3.15L3.95,3.15L3.95,3.2L4,3.2L4,3.15ZM2,3.1L2,3.15L2.05,3.15L2.05,3.1L2,3.1ZM4,3.05L3.95,3.05L3.95,3.1L4,3.1L4,3.05ZM2,3L2,3.05L2.05,3.05L2.05,3L2,3ZM4,2.95L3.95,2.95L3.95,3L4,3L4,2.95ZM2,2.9L2,2.95L2.05,2.95L2.05,2.9L2,2.9ZM4,2.85L3.95,2.85L3.95,2.9L4,2.9L4,2.85ZM2,2.8L2,2.85L2.05,2.85L2.05,2.8L2,2.8ZM4,2.75L3.95,2.75L3.95,2.8L4,2.8L4,2.75ZM2,2.7L2,2.75L2.05,2.75L2.05,2.7L2,2.7ZM4,2.65L3.95,2.65L3.95,2.7L4,2.7L4,2.65ZM2,2.6L2,2.65L2.05,2.65L2.05,2.6L2,2.6ZM4,2.55L3.95,2.55L3.95,2.6L4,2.6L4,2.55ZM2,2.5L2,2.55L2.05,2.55L2.05,2.5L2,2.5ZM4,2.45L3.95,2.45L3.95,2.5L4,2.5L4,2.45ZM2,2.4L2,2.45L2.05,2.45L2.05,2.4L2,2.4ZM4,2.35L3.95,2.35L3.95,2.4L4,2.4L4,2.35ZM2,2.3L2,2.35L2.05,2.35L2.05,2.3L2,2.3ZM4,2.25L3.95,2.25L3.95,2.3L4,2.3L4,2.25ZM2,2.2L2,2.25L2.05,2.25L2.05,2.2L2,2.2ZM4,2.15L3.95,2.15L3.95,2.2L4,2.2L4,2.15ZM2,2.1L2,2.15L2.05,2.15L2.05,2.1L2,2.1ZM4,2.1L3.95,2.1L3.95,2L4,2L4,2.1ZM3.5,2L3.45,2L3.45,2.05L3.5,2.05L3.5,2ZM3.8,2L3.75,2L3.75,2.05L3.8,2.05L3.8,2ZM2.3,2L2.25,2L2.25,2.05L2.3,2.05L2.3,2ZM2.2,2L2.15,2L2.15,2.05L2.2,2.05L2.2,2ZM3.2,2L3.15,2L3.15,2.05L3.2,2.05L3.2,2ZM3.3,2L3.25,2L3.25,2.05L3.3,2.05L3.3,2ZM2.5,2L2.45,2L2.45,2.05L2.5,2.05L2.5,2ZM3.4,2L3.35,2L3.35,2.05L3.4,2.05L3.4,2ZM2.4,2L2.35,2L2.35,2.05L2.4,2.05L2.4,2ZM3.6,2L3.55,2L3.55,2.05L3.6,2.05L3.6,2ZM3.9,2L3.85,2L3.85,2.05L3.9,2.05L3.9,2ZM2.6,2L2.55,2L2.55,2.05L2.6,2.05L2.6,2ZM3.7,2L3.65,2L3.65,2.05L3.7,2.05L3.7,2ZM3.1,2L3.05,2L3.05,2.05L3.1,2.05L3.1,2ZM2.1,2.05L2,2.05L2,2L2.1,2L2.1,2.05ZM2.8,2L2.75,2L2.75,2.05L2.8,2.05L2.8,2ZM2.7,2L2.65,2L2.65,2.05L2.7,2.05L2.7,2ZM3,2L2.95,2L2.95,2.05L3,2.05L3,2ZM2.9,2L2.85,2L2.85,2.05L2.9,2.05L2.9,2Z" style="fill:white;"/>
            </g>
            <g transform="matrix(1,0,0,1,5,26)">
                <rect x="2" y="2" width="2" height="2"/>
                <path d="M2.05,3.9L2.05,4L2,4L2,3.9L2.05,3.9ZM2.15,4L2.15,3.95L2.1,3.95L2.1,4L2.15,4ZM2.2,4L2.25,4L2.25,3.95L2.2,3.95L2.2,4ZM2.35,4L2.35,3.95L2.3,3.95L2.3,4L2.35,4ZM2.45,4L2.45,3.95L2.4,3.95L2.4,4L2.45,4ZM2.55,4L2.55,3.95L2.5,3.95L2.5,4L2.55,4ZM2.65,4L2.65,3.95L2.6,3.95L2.6,4L2.65,4ZM2.75,4L2.75,3.95L2.7,3.95L2.7,4L2.75,4ZM2.85,4L2.85,3.95L2.8,3.95L2.8,4L2.85,4ZM2.95,4L2.95,3.95L2.9,3.95L2.9,4L2.95,4ZM3.05,4L3.05,3.95L3,3.95L3,4L3.05,4ZM3.15,4L3.15,3.95L3.1,3.95L3.1,4L3.15,4ZM3.25,4L3.25,3.95L3.2,3.95L3.2,4L3.25,4ZM3.35,4L3.35,3.95L3.3,3.95L3.3,4L3.35,4ZM3.4,4L3.45,4L3.45,3.95L3.4,3.95L3.4,4ZM3.55,4L3.55,3.95L3.5,3.95L3.5,4L3.55,4ZM3.6,4L3.65,4L3.65,3.95L3.6,3.95L3.6,4ZM3.75,4L3.75,3.95L3.7,3.95L3.7,4L3.75,4ZM3.85,4L3.85,3.95L3.8,3.95L3.8,4L3.85,4ZM4,3.95L4,4L3.9,4L3.9,3.95L4,3.95ZM4,3.85L3.95,3.85L3.95,3.9L4,3.9L4,3.85ZM2,3.8L2,3.85L2.05,3.85L2.05,3.8L2,3.8ZM4,3.75L3.95,3.75L3.95,3.8L4,3.8L4,3.75ZM2,3.7L2,3.75L2.05,3.75L2.05,3.7L2,3.7ZM4,3.65L3.95,3.65L3.95,3.7L4,3.7L4,3.65ZM2,3.6L2,3.65L2.05,3.65L2.05,3.6L2,3.6ZM4,3.55L3.95,3.55L3.95,3.6L4,3.6L4,3.55ZM2,3.5L2,3.55L2.05,3.55L2.05,3.5L2,3.5ZM4,3.45L3.95,3.45L3.95,3.5L4,3.5L4,3.45ZM2,3.4L2,3.45L2.05,3.45L2.05,3.4L2,3.4ZM4,3.35L3.95,3.35L3.95,3.4L4,3.4L4,3.35ZM2,3.3L2,3.35L2.05,3.35L2.05,3.3L2,3.3ZM4,3.25L3.95,3.25L3.95,3.3L4,3.3L4,3.25ZM2,3.2L2,3.25L2.05,3.25L2.05,3.2L2,3.2ZM4,3.15L3.95,3.15L3.95,3.2L4,3.2L4,3.15ZM2,3.1L2,3.15L2.05,3.15L2.05,3.1L2,3.1ZM4,3.05L3.95,3.05L3.95,3.1L4,3.1L4,3.05ZM2,3L2,3.05L2.05,3.05L2.05,3L2,3ZM4,2.95L3.95,2.95L3.95,3L4,3L4,2.95ZM2,2.9L2,2.95L2.05,2.95L2.05,2.9L2,2.9ZM4,2.85L3.95,2.85L3.95,2.9L4,2.9L4,2.85ZM2,2.8L2,2.85L2.05,2.85L2.05,2.8L2,2.8ZM4,2.75L3.95,2.75L3.95,2.8L4,2.8L4,2.75ZM2,2.7L2,2.75L2.05,2.75L2.05,2.7L2,2.7ZM4,2.65L3.95,2.65L3.95,2.7L4,2.7L4,2.65ZM2,2.6L2,2.65L2.05,2.65L2.05,2.6L2,2.6ZM4,2.55L3.95,2.55L3.95,2.6L4,2.6L4,2.55ZM2,2.5L2,2.55L2.05,2.55L2.05,2.5L2,2.5ZM4,2.45L3.95,2.45L3.95,2.5L4,2.5L4,2.45ZM2,2.4L2,2.45L2.05,2.45L2.05,2.4L2,2.4ZM4,2.35L3.95,2.35L3.95,2.4L4,2.4L4,2.35ZM2,2.3L2,2.35L2.05,2.35L2.05,2.3L2,2.3ZM4,2.25L3.95,2.25L3.95,2.3L4,2.3L4,2.25ZM2,2.2L2,2.25L2.05,2.25L2.05,2.2L2,2.2ZM4,2.15L3.95,2.15L3.95,2.2L4,2.2L4,2.15ZM2,2.1L2,2.15L2.05,2.15L2.05,2.1L2,2.1ZM4,2.1L3.95,2.1L3.95,2L4,2L4,2.1ZM3.5,2L3.45,2L3.45,2.05L3.5,2.05L3.5,2ZM3.8,2L3.75,2L3.75,2.05L3.8,2.05L3.8,2ZM2.3,2L2.25,2L2.25,2.05L2.3,2.05L2.3,2ZM2.2,2L2.15,2L2.15,2.05L2.2,2.05L2.2,2ZM3.2,2L3.15,2L3.15,2.05L3.2,2.05L3.2,2ZM3.3,2L3.25,2L3.25,2.05L3.3,2.05L3.3,2ZM2.5,2L2.45,2L2.45,2.05L2.5,2.05L2.5,2ZM3.4,2L3.35,2L3.35,2.05L3.4,2.05L3.4,2ZM2.4,2L2.35,2L2.35,2.05L2.4,2.05L2.4,2ZM3.6,2L3.55,2L3.55,2.05L3.6,2.05L3.6,2ZM3.9,2L3.85,2L3.85,2.05L3.9,2.05L3.9,2ZM2.6,2L2.55,2L2.55,2.05L2.6,2.05L2.6,2ZM3.7,2L3.65,2L3.65,2.05L3.7,2.05L3.7,2ZM3.1,2L3.05,2L3.05,2.05L3.1,2.05L3.1,2ZM2.1,2.05L2,2.05L2,2L2.1,2L2.1,2.05ZM2.8,2L2.75,2L2.75,2.05L2.8,2.05L2.8,2ZM2.7,2L2.65,2L2.65,2.05L2.7,2.05L2.7,2ZM3,2L2.95,2L2.95,2.05L3,2.05L3,2ZM2.9,2L2.85,2L2.85,2.05L2.9,2.05L2.9,2Z" style="fill:white;"/>
            </g>
            <g transform="matrix(1,0,0,1,9,26)">
                <rect x="2" y="2" width="2" height="2"/>
                <path d="M2.05,4L2,4L2,3.9L2.05,3.9L2.05,4ZM2.15,4L2.15,3.95L2.1,3.95L2.1,4L2.15,4ZM2.2,4L2.25,4L2.25,3.95L2.2,3.95L2.2,4ZM2.35,4L2.35,3.95L2.3,3.95L2.3,4L2.35,4ZM2.45,4L2.45,3.95L2.4,3.95L2.4,4L2.45,4ZM2.55,4L2.55,3.95L2.5,3.95L2.5,4L2.55,4ZM2.65,4L2.65,3.95L2.6,3.95L2.6,4L2.65,4ZM2.75,4L2.75,3.95L2.7,3.95L2.7,4L2.75,4ZM2.85,4L2.85,3.95L2.8,3.95L2.8,4L2.85,4ZM2.95,4L2.95,3.95L2.9,3.95L2.9,4L2.95,4ZM3.05,4L3.05,3.95L3,3.95L3,4L3.05,4ZM3.15,4L3.15,3.95L3.1,3.95L3.1,4L3.15,4ZM3.25,4L3.25,3.95L3.2,3.95L3.2,4L3.25,4ZM3.35,4L3.35,3.95L3.3,3.95L3.3,4L3.35,4ZM3.4,4L3.45,4L3.45,3.95L3.4,3.95L3.4,4ZM3.55,4L3.55,3.95L3.5,3.95L3.5,4L3.55,4ZM3.6,4L3.65,4L3.65,3.95L3.6,3.95L3.6,4ZM3.75,4L3.75,3.95L3.7,3.95L3.7,4L3.75,4ZM3.85,4L3.85,3.95L3.8,3.95L3.8,4L3.85,4ZM4,3.95L4,4L3.9,4L3.9,3.95L4,3.95ZM4,3.85L3.95,3.85L3.95,3.9L4,3.9L4,3.85ZM2,3.8L2,3.85L2.05,3.85L2.05,3.8L2,3.8ZM4,3.75L3.95,3.75L3.95,3.8L4,3.8L4,3.75ZM2,3.7L2,3.75L2.05,3.75L2.05,3.7L2,3.7ZM4,3.65L3.95,3.65L3.95,3.7L4,3.7L4,3.65ZM2,3.6L2,3.65L2.05,3.65L2.05,3.6L2,3.6ZM4,3.55L3.95,3.55L3.95,3.6L4,3.6L4,3.55ZM2,3.5L2,3.55L2.05,3.55L2.05,3.5L2,3.5ZM4,3.45L3.95,3.45L3.95,3.5L4,3.5L4,3.45ZM2,3.4L2,3.45L2.05,3.45L2.05,3.4L2,3.4ZM4,3.35L3.95,3.35L3.95,3.4L4,3.4L4,3.35ZM2,3.3L2,3.35L2.05,3.35L2.05,3.3L2,3.3ZM4,3.25L3.95,3.25L3.95,3.3L4,3.3L4,3.25ZM2,3.2L2,3.25L2.05,3.25L2.05,3.2L2,3.2ZM4,3.15L3.95,3.15L3.95,3.2L4,3.2L4,3.15ZM2,3.1L2,3.15L2.05,3.15L2.05,3.1L2,3.1ZM4,3.05L3.95,3.05L3.95,3.1L4,3.1L4,3.05ZM2,3L2,3.05L2.05,3.05L2.05,3L2,3ZM4,2.95L3.95,2.95L3.95,3L4,3L4,2.95ZM2,2.9L2,2.95L2.05,2.95L2.05,2.9L2,2.9ZM4,2.85L3.95,2.85L3.95,2.9L4,2.9L4,2.85ZM2,2.8L2,2.85L2.05,2.85L2.05,2.8L2,2.8ZM4,2.75L3.95,2.75L3.95,2.8L4,2.8L4,2.75ZM2,2.7L2,2.75L2.05,2.75L2.05,2.7L2,2.7ZM4,2.65L3.95,2.65L3.95,2.7L4,2.7L4,2.65ZM2,2.6L2,2.65L2.05,2.65L2.05,2.6L2,2.6ZM4,2.55L3.95,2.55L3.95,2.6L4,2.6L4,2.55ZM2,2.5L2,2.55L2.05,2.55L2.05,2.5L2,2.5ZM4,2.45L3.95,2.45L3.95,2.5L4,2.5L4,2.45ZM2,2.4L2,2.45L2.05,2.45L2.05,2.4L2,2.4ZM4,2.35L3.95,2.35L3.95,2.4L4,2.4L4,2.35ZM2,2.3L2,2.35L2.05,2.35L2.05,2.3L2,2.3ZM4,2.25L3.95,2.25L3.95,2.3L4,2.3L4,2.25ZM2,2.2L2,2.25L2.05,2.25L2.05,2.2L2,2.2ZM4,2.15L3.95,2.15L3.95,2.2L4,2.2L4,2.15ZM2,2.1L2,2.15L2.05,2.15L2.05,2.1L2,2.1ZM4,2.1L3.95,2.1L3.95,2L4,2L4,2.1ZM3.5,2L3.45,2L3.45,2.05L3.5,2.05L3.5,2ZM3.8,2L3.75,2L3.75,2.05L3.8,2.05L3.8,2ZM2.3,2L2.25,2L2.25,2.05L2.3,2.05L2.3,2ZM2.2,2L2.15,2L2.15,2.05L2.2,2.05L2.2,2ZM3.2,2L3.15,2L3.15,2.05L3.2,2.05L3.2,2ZM3.3,2L3.25,2L3.25,2.05L3.3,2.05L3.3,2ZM2.5,2L2.45,2L2.45,2.05L2.5,2.05L2.5,2ZM3.4,2L3.35,2L3.35,2.05L3.4,2.05L3.4,2ZM2.4,2L2.35,2L2.35,2.05L2.4,2.05L2.4,2ZM3.6,2L3.55,2L3.55,2.05L3.6,2.05L3.6,2ZM3.9,2L3.85,2L3.85,2.05L3.9,2.05L3.9,2ZM2.6,2L2.55,2L2.55,2.05L2.6,2.05L2.6,2ZM3.7,2L3.65,2L3.65,2.05L3.7,2.05L3.7,2ZM3.1,2L3.05,2L3.05,2.05L3.1,2.05L3.1,2ZM2.1,2.05L2,2.05L2,2L2.1,2L2.1,2.05ZM2.8,2L2.75,2L2.75,2.05L2.8,2.05L2.8,2ZM2.7,2L2.65,2L2.65,2.05L2.7,2.05L2.7,2ZM3,2L2.95,2L2.95,2.05L3,2.05L3,2ZM2.9,2L2.85,2L2.85,2.05L2.9,2.05L2.9,2Z" style="fill:white;"/>
            </g>
            <g transform="matrix(1,0,0,1,13,26)">
                <rect x="2" y="2" width="2" height="2"/>
                <path d="M2.05,3.9L2.05,4L2,4L2,3.9L2.05,3.9ZM2.15,4L2.15,3.95L2.1,3.95L2.1,4L2.15,4ZM2.2,4L2.25,4L2.25,3.95L2.2,3.95L2.2,4ZM2.35,4L2.35,3.95L2.3,3.95L2.3,4L2.35,4ZM2.45,4L2.45,3.95L2.4,3.95L2.4,4L2.45,4ZM2.55,4L2.55,3.95L2.5,3.95L2.5,4L2.55,4ZM2.65,4L2.65,3.95L2.6,3.95L2.6,4L2.65,4ZM2.75,4L2.75,3.95L2.7,3.95L2.7,4L2.75,4ZM2.85,4L2.85,3.95L2.8,3.95L2.8,4L2.85,4ZM2.95,4L2.95,3.95L2.9,3.95L2.9,4L2.95,4ZM3.05,4L3.05,3.95L3,3.95L3,4L3.05,4ZM3.15,4L3.15,3.95L3.1,3.95L3.1,4L3.15,4ZM3.25,4L3.25,3.95L3.2,3.95L3.2,4L3.25,4ZM3.35,4L3.35,3.95L3.3,3.95L3.3,4L3.35,4ZM3.4,4L3.45,4L3.45,3.95L3.4,3.95L3.4,4ZM3.55,4L3.55,3.95L3.5,3.95L3.5,4L3.55,4ZM3.6,4L3.65,4L3.65,3.95L3.6,3.95L3.6,4ZM3.75,4L3.75,3.95L3.7,3.95L3.7,4L3.75,4ZM3.85,4L3.85,3.95L3.8,3.95L3.8,4L3.85,4ZM4,3.95L4,4L3.9,4L3.9,3.95L4,3.95ZM4,3.85L3.95,3.85L3.95,3.9L4,3.9L4,3.85ZM2,3.8L2,3.85L2.05,3.85L2.05,3.8L2,3.8ZM4,3.75L3.95,3.75L3.95,3.8L4,3.8L4,3.75ZM2,3.7L2,3.75L2.05,3.75L2.05,3.7L2,3.7ZM4,3.65L3.95,3.65L3.95,3.7L4,3.7L4,3.65ZM2,3.6L2,3.65L2.05,3.65L2.05,3.6L2,3.6ZM4,3.55L3.95,3.55L3.95,3.6L4,3.6L4,3.55ZM2,3.5L2,3.55L2.05,3.55L2.05,3.5L2,3.5ZM4,3.45L3.95,3.45L3.95,3.5L4,3.5L4,3.45ZM2,3.4L2,3.45L2.05,3.45L2.05,3.4L2,3.4ZM4,3.35L3.95,3.35L3.95,3.4L4,3.4L4,3.35ZM2,3.3L2,3.35L2.05,3.35L2.05,3.3L2,3.3ZM4,3.25L3.95,3.25L3.95,3.3L4,3.3L4,3.25ZM2,3.2L2,3.25L2.05,3.25L2.05,3.2L2,3.2ZM4,3.15L3.95,3.15L3.95,3.2L4,3.2L4,3.15ZM2,3.1L2,3.15L2.05,3.15L2.05,3.1L2,3.1ZM4,3.05L3.95,3.05L3.95,3.1L4,3.1L4,3.05ZM2,3L2,3.05L2.05,3.05L2.05,3L2,3ZM4,2.95L3.95,2.95L3.95,3L4,3L4,2.95ZM2,2.9L2,2.95L2.05,2.95L2.05,2.9L2,2.9ZM4,2.85L3.95,2.85L3.95,2.9L4,2.9L4,2.85ZM2,2.8L2,2.85L2.05,2.85L2.05,2.8L2,2.8ZM4,2.75L3.95,2.75L3.95,2.8L4,2.8L4,2.75ZM2,2.7L2,2.75L2.05,2.75L2.05,2.7L2,2.7ZM4,2.65L3.95,2.65L3.95,2.7L4,2.7L4,2.65ZM2,2.6L2,2.65L2.05,2.65L2.05,2.6L2,2.6ZM4,2.55L3.95,2.55L3.95,2.6L4,2.6L4,2.55ZM2,2.5L2,2.55L2.05,2.55L2.05,2.5L2,2.5ZM4,2.45L3.95,2.45L3.95,2.5L4,2.5L4,2.45ZM2,2.4L2,2.45L2.05,2.45L2.05,2.4L2,2.4ZM4,2.35L3.95,2.35L3.95,2.4L4,2.4L4,2.35ZM2,2.3L2,2.35L2.05,2.35L2.05,2.3L2,2.3ZM4,2.25L3.95,2.25L3.95,2.3L4,2.3L4,2.25ZM2,2.2L2,2.25L2.05,2.25L2.05,2.2L2,2.2ZM4,2.15L3.95,2.15L3.95,2.2L4,2.2L4,2.15ZM2,2.1L2,2.15L2.05,2.15L2.05,2.1L2,2.1ZM4,2.1L3.95,2.1L3.95,2L4,2L4,2.1ZM3.5,2L3.45,2L3.45,2.05L3.5,2.05L3.5,2ZM3.8,2L3.75,2L3.75,2.05L3.8,2.05L3.8,2ZM2.3,2L2.25,2L2.25,2.05L2.3,2.05L2.3,2ZM2.2,2L2.15,2L2.15,2.05L2.2,2.05L2.2,2ZM3.2,2L3.15,2L3.15,2.05L3.2,2.05L3.2,2ZM3.3,2L3.25,2L3.25,2.05L3.3,2.05L3.3,2ZM2.5,2L2.45,2L2.45,2.05L2.5,2.05L2.5,2ZM3.4,2L3.35,2L3.35,2.05L3.4,2.05L3.4,2ZM2.4,2L2.35,2L2.35,2.05L2.4,2.05L2.4,2ZM3.6,2L3.55,2L3.55,2.05L3.6,2.05L3.6,2ZM3.9,2L3.85,2L3.85,2.05L3.9,2.05L3.9,2ZM2.6,2L2.55,2L2.55,2.05L2.6,2.05L2.6,2ZM3.7,2L3.65,2L3.65,2.05L3.7,2.05L3.7,2ZM3.1,2L3.05,2L3.05,2.05L3.1,2.05L3.1,2ZM2.1,2.05L2,2.05L2,2L2.1,2L2.1,2.05ZM2.8,2L2.75,2L2.75,2.05L2.8,2.05L2.8,2ZM2.7,2L2.65,2L2.65,2.05L2.7,2.05L2.7,2ZM3,2L2.95,2L2.95,2.05L3,2.05L3,2ZM2.9,2L2.85,2L2.85,2.05L2.9,2.05L2.9,2Z" style="fill:white;"/>
            </g>
            <g transform="matrix(1,0,0,1,17,26)">
                <rect x="2" y="2" width="2" height="2"/>
                <path d="M2.05,4L2,4L2,3.9L2.05,3.9L2.05,4ZM2.15,4L2.15,3.95L2.1,3.95L2.1,4L2.15,4ZM2.2,4L2.25,4L2.25,3.95L2.2,3.95L2.2,4ZM2.35,4L2.35,3.95L2.3,3.95L2.3,4L2.35,4ZM2.45,4L2.45,3.95L2.4,3.95L2.4,4L2.45,4ZM2.55,4L2.55,3.95L2.5,3.95L2.5,4L2.55,4ZM2.65,4L2.65,3.95L2.6,3.95L2.6,4L2.65,4ZM2.75,4L2.75,3.95L2.7,3.95L2.7,4L2.75,4ZM2.85,4L2.85,3.95L2.8,3.95L2.8,4L2.85,4ZM2.95,4L2.95,3.95L2.9,3.95L2.9,4L2.95,4ZM3.05,4L3.05,3.95L3,3.95L3,4L3.05,4ZM3.15,4L3.15,3.95L3.1,3.95L3.1,4L3.15,4ZM3.25,4L3.25,3.95L3.2,3.95L3.2,4L3.25,4ZM3.35,4L3.35,3.95L3.3,3.95L3.3,4L3.35,4ZM3.4,4L3.45,4L3.45,3.95L3.4,3.95L3.4,4ZM3.55,4L3.55,3.95L3.5,3.95L3.5,4L3.55,4ZM3.6,4L3.65,4L3.65,3.95L3.6,3.95L3.6,4ZM3.75,4L3.75,3.95L3.7,3.95L3.7,4L3.75,4ZM3.85,4L3.85,3.95L3.8,3.95L3.8,4L3.85,4ZM4,3.95L4,4L3.9,4L3.9,3.95L4,3.95ZM4,3.85L3.95,3.85L3.95,3.9L4,3.9L4,3.85ZM2,3.8L2,3.85L2.05,3.85L2.05,3.8L2,3.8ZM4,3.75L3.95,3.75L3.95,3.8L4,3.8L4,3.75ZM2,3.7L2,3.75L2.05,3.75L2.05,3.7L2,3.7ZM4,3.65L3.95,3.65L3.95,3.7L4,3.7L4,3.65ZM2,3.6L2,3.65L2.05,3.65L2.05,3.6L2,3.6ZM4,3.55L3.95,3.55L3.95,3.6L4,3.6L4,3.55ZM2,3.5L2,3.55L2.05,3.55L2.05,3.5L2,3.5ZM4,3.45L3.95,3.45L3.95,3.5L4,3.5L4,3.45ZM2,3.4L2,3.45L2.05,3.45L2.05,3.4L2,3.4ZM4,3.35L3.95,3.35L3.95,3.4L4,3.4L4,3.35ZM2,3.3L2,3.35L2.05,3.35L2.05,3.3L2,3.3ZM4,3.25L3.95,3.25L3.95,3.3L4,3.3L4,3.25ZM2,3.2L2,3.25L2.05,3.25L2.05,3.2L2,3.2ZM4,3.15L3.95,3.15L3.95,3.2L4,3.2L4,3.15ZM2,3.1L2,3.15L2.05,3.15L2.05,3.1L2,3.1ZM4,3.05L3.95,3.05L3.95,3.1L4,3.1L4,3.05ZM2,3L2,3.05L2.05,3.05L2.05,3L2,3ZM4,2.95L3.95,2.95L3.95,3L4,3L4,2.95ZM2,2.9L2,2.95L2.05,2.95L2.05,2.9L2,2.9ZM4,2.85L3.95,2.85L3.95,2.9L4,2.9L4,2.85ZM2,2.8L2,2.85L2.05,2.85L2.05,2.8L2,2.8ZM4,2.75L3.95,2.75L3.95,2.8L4,2.8L4,2.75ZM2,2.7L2,2.75L2.05,2.75L2.05,2.7L2,2.7ZM4,2.65L3.95,2.65L3.95,2.7L4,2.7L4,2.65ZM2,2.6L2,2.65L2.05,2.65L2.05,2.6L2,2.6ZM4,2.55L3.95,2.55L3.95,2.6L4,2.6L4,2.55ZM2,2.5L2,2.55L2.05,2.55L2.05,2.5L2,2.5ZM4,2.45L3.95,2.45L3.95,2.5L4,2.5L4,2.45ZM2,2.4L2,2.45L2.05,2.45L2.05,2.4L2,2.4ZM4,2.35L3.95,2.35L3.95,2.4L4,2.4L4,2.35ZM2,2.3L2,2.35L2.05,2.35L2.05,2.3L2,2.3ZM4,2.25L3.95,2.25L3.95,2.3L4,2.3L4,2.25ZM2,2.2L2,2.25L2.05,2.25L2.05,2.2L2,2.2ZM4,2.15L3.95,2.15L3.95,2.2L4,2.2L4,2.15ZM2,2.1L2,2.15L2.05,2.15L2.05,2.1L2,2.1ZM4,2.1L3.95,2.1L3.95,2L4,2L4,2.1ZM3.5,2L3.45,2L3.45,2.05L3.5,2.05L3.5,2ZM3.8,2L3.75,2L3.75,2.05L3.8,2.05L3.8,2ZM2.3,2L2.25,2L2.25,2.05L2.3,2.05L2.3,2ZM2.2,2L2.15,2L2.15,2.05L2.2,2.05L2.2,2ZM3.2,2L3.15,2L3.15,2.05L3.2,2.05L3.2,2ZM3.3,2L3.25,2L3.25,2.05L3.3,2.05L3.3,2ZM2.5,2L2.45,2L2.45,2.05L2.5,2.05L2.5,2ZM3.4,2L3.35,2L3.35,2.05L3.4,2.05L3.4,2ZM2.4,2L2.35,2L2.35,2.05L2.4,2.05L2.4,2ZM3.6,2L3.55,2L3.55,2.05L3.6,2.05L3.6,2ZM3.9,2L3.85,2L3.85,2.05L3.9,2.05L3.9,2ZM2.6,2L2.55,2L2.55,2.05L2.6,2.05L2.6,2ZM3.7,2L3.65,2L3.65,2.05L3.7,2.05L3.7,2ZM3.1,2L3.05,2L3.05,2.05L3.1,2.05L3.1,2ZM2.1,2.05L2,2.05L2,2L2.1,2L2.1,2.05ZM2.8,2L2.75,2L2.75,2.05L2.8,2.05L2.8,2ZM2.7,2L2.65,2L2.65,2.05L2.7,2.05L2.7,2ZM3,2L2.95,2L2.95,2.05L3,2.05L3,2ZM2.9,2L2.85,2L2.85,2.05L2.9,2.05L2.9,2Z" style="fill:white;"/>
            </g>
            <g transform="matrix(1,0,0,1,21,26)">
                <rect x="2" y="2" width="2" height="2"/>
                <path d="M2.05,3.9L2.05,4L2,4L2,3.9L2.05,3.9ZM2.15,4L2.15,3.95L2.1,3.95L2.1,4L2.15,4ZM2.2,4L2.25,4L2.25,3.95L2.2,3.95L2.2,4ZM2.35,4L2.35,3.95L2.3,3.95L2.3,4L2.35,4ZM2.45,4L2.45,3.95L2.4,3.95L2.4,4L2.45,4ZM2.55,4L2.55,3.95L2.5,3.95L2.5,4L2.55,4ZM2.65,4L2.65,3.95L2.6,3.95L2.6,4L2.65,4ZM2.75,4L2.75,3.95L2.7,3.95L2.7,4L2.75,4ZM2.85,4L2.85,3.95L2.8,3.95L2.8,4L2.85,4ZM2.95,4L2.95,3.95L2.9,3.95L2.9,4L2.95,4ZM3.05,4L3.05,3.95L3,3.95L3,4L3.05,4ZM3.15,4L3.15,3.95L3.1,3.95L3.1,4L3.15,4ZM3.25,4L3.25,3.95L3.2,3.95L3.2,4L3.25,4ZM3.35,4L3.35,3.95L3.3,3.95L3.3,4L3.35,4ZM3.4,4L3.45,4L3.45,3.95L3.4,3.95L3.4,4ZM3.55,4L3.55,3.95L3.5,3.95L3.5,4L3.55,4ZM3.6,4L3.65,4L3.65,3.95L3.6,3.95L3.6,4ZM3.75,4L3.75,3.95L3.7,3.95L3.7,4L3.75,4ZM3.85,4L3.85,3.95L3.8,3.95L3.8,4L3.85,4ZM4,3.95L4,4L3.9,4L3.9,3.95L4,3.95ZM4,3.85L3.95,3.85L3.95,3.9L4,3.9L4,3.85ZM2,3.8L2,3.85L2.05,3.85L2.05,3.8L2,3.8ZM4,3.75L3.95,3.75L3.95,3.8L4,3.8L4,3.75ZM2,3.7L2,3.75L2.05,3.75L2.05,3.7L2,3.7ZM4,3.65L3.95,3.65L3.95,3.7L4,3.7L4,3.65ZM2,3.6L2,3.65L2.05,3.65L2.05,3.6L2,3.6ZM4,3.55L3.95,3.55L3.95,3.6L4,3.6L4,3.55ZM2,3.5L2,3.55L2.05,3.55L2.05,3.5L2,3.5ZM4,3.45L3.95,3.45L3.95,3.5L4,3.5L4,3.45ZM2,3.4L2,3.45L2.05,3.45L2.05,3.4L2,3.4ZM4,3.35L3.95,3.35L3.95,3.4L4,3.4L4,3.35ZM2,3.3L2,3.35L2.05,3.35L2.05,3.3L2,3.3ZM4,3.25L3.95,3.25L3.95,3.3L4,3.3L4,3.25ZM2,3.2L2,3.25L2.05,3.25L2.05,3.2L2,3.2ZM4,3.15L3.95,3.15L3.95,3.2L4,3.2L4,3.15ZM2,3.1L2,3.15L2.05,3.15L2.05,3.1L2,3.1ZM4,3.05L3.95,3.05L3.95,3.1L4,3.1L4,3.05ZM2,3L2,3.05L2.05,3.05L2.05,3L2,3ZM4,2.95L3.95,2.95L3.95,3L4,3L4,2.95ZM2,2.9L2,2.95L2.05,2.95L2.05,2.9L2,2.9ZM4,2.85L3.95,2.85L3.95,2.9L4,2.9L4,2.85ZM2,2.8L2,2.85L2.05,2.85L2.05,2.8L2,2.8ZM4,2.75L3.95,2.75L3.95,2.8L4,2.8L4,2.75ZM2,2.7L2,2.75L2.05,2.75L2.05,2.7L2,2.7ZM4,2.65L3.95,2.65L3.95,2.7L4,2.7L4,2.65ZM2,2.6L2,2.65L2.05,2.65L2.05,2.6L2,2.6ZM4,2.55L3.95,2.55L3.95,2.6L4,2.6L4,2.55ZM2,2.5L2,2.55L2.05,2.55L2.05,2.5L2,2.5ZM4,2.45L3.95,2.45L3.95,2.5L4,2.5L4,2.45ZM2,2.4L2,2.45L2.05,2.45L2.05,2.4L2,2.4ZM4,2.35L3.95,2.35L3.95,2.4L4,2.4L4,2.35ZM2,2.3L2,2.35L2.05,2.35L2.05,2.3L2,2.3ZM4,2.25L3.95,2.25L3.95,2.3L4,2.3L4,2.25ZM2,2.2L2,2.25L2.05,2.25L2.05,2.2L2,2.2ZM4,2.15L3.95,2.15L3.95,2.2L4,2.2L4,2.15ZM2,2.1L2,2.15L2.05,2.15L2.05,2.1L2,2.1ZM4,2.1L3.95,2.1L3.95,2L4,2L4,2.1ZM3.5,2L3.45,2L3.45,2.05L3.5,2.05L3.5,2ZM3.8,2L3.75,2L3.75,2.05L3.8,2.05L3.8,2ZM2.3,2L2.25,2L2.25,2.05L2.3,2.05L2.3,2ZM2.2,2L2.15,2L2.15,2.05L2.2,2.05L2.2,2ZM3.2,2L3.15,2L3.15,2.05L3.2,2.05L3.2,2ZM3.3,2L3.25,2L3.25,2.05L3.3,2.05L3.3,2ZM2.5,2L2.45,2L2.45,2.05L2.5,2.05L2.5,2ZM3.4,2L3.35,2L3.35,2.05L3.4,2.05L3.4,2ZM2.4,2L2.35,2L2.35,2.05L2.4,2.05L2.4,2ZM3.6,2L3.55,2L3.55,2.05L3.6,2.05L3.6,2ZM3.9,2L3.85,2L3.85,2.05L3.9,2.05L3.9,2ZM2.6,2L2.55,2L2.55,2.05L2.6,2.05L2.6,2ZM3.7,2L3.65,2L3.65,2.05L3.7,2.05L3.7,2ZM3.1,2L3.05,2L3.05,2.05L3.1,2.05L3.1,2ZM2.1,2.05L2,2.05L2,2L2.1,2L2.1,2.05ZM2.8,2L2.75,2L2.75,2.05L2.8,2.05L2.8,2ZM2.7,2L2.65,2L2.65,2.05L2.7,2.05L2.7,2ZM3,2L2.95,2L2.95,2.05L3,2.05L3,2ZM2.9,2L2.85,2L2.85,2.05L2.9,2.05L2.9,2Z" style="fill:white;"/>
            </g>
            <g transform="matrix(1,0,0,1,-3,26)">
                <g id="DashGroup4" serif:id="DashGroup">
                    <rect x="2" y="2" width="2" height="2"/>
                    <path d="M2.05,4L2,4L2,3.9L2.05,3.9L2.05,4ZM2.15,4L2.15,3.95L2.1,3.95L2.1,4L2.15,4ZM2.2,4L2.25,4L2.25,3.95L2.2,3.95L2.2,4ZM2.35,4L2.35,3.95L2.3,3.95L2.3,4L2.35,4ZM2.45,4L2.45,3.95L2.4,3.95L2.4,4L2.45,4ZM2.55,4L2.55,3.95L2.5,3.95L2.5,4L2.55,4ZM2.65,4L2.65,3.95L2.6,3.95L2.6,4L2.65,4ZM2.75,4L2.75,3.95L2.7,3.95L2.7,4L2.75,4ZM2.85,4L2.85,3.95L2.8,3.95L2.8,4L2.85,4ZM2.95,4L2.95,3.95L2.9,3.95L2.9,4L2.95,4ZM3.05,4L3.05,3.95L3,3.95L3,4L3.05,4ZM3.15,4L3.15,3.95L3.1,3.95L3.1,4L3.15,4ZM3.25,4L3.25,3.95L3.2,3.95L3.2,4L3.25,4ZM3.35,4L3.35,3.95L3.3,3.95L3.3,4L3.35,4ZM3.4,4L3.45,4L3.45,3.95L3.4,3.95L3.4,4ZM3.55,4L3.55,3.95L3.5,3.95L3.5,4L3.55,4ZM3.6,4L3.65,4L3.65,3.95L3.6,3.95L3.6,4ZM3.75,4L3.75,3.95L3.7,3.95L3.7,4L3.75,4ZM3.85,4L3.85,3.95L3.8,3.95L3.8,4L3.85,4ZM4,3.95L4,4L3.9,4L3.9,3.95L4,3.95ZM4,3.85L3.95,3.85L3.95,3.9L4,3.9L4,3.85ZM2,3.8L2,3.85L2.05,3.85L2.05,3.8L2,3.8ZM4,3.75L3.95,3.75L3.95,3.8L4,3.8L4,3.75ZM2,3.7L2,3.75L2.05,3.75L2.05,3.7L2,3.7ZM4,3.65L3.95,3.65L3.95,3.7L4,3.7L4,3.65ZM2,3.6L2,3.65L2.05,3.65L2.05,3.6L2,3.6ZM4,3.55L3.95,3.55L3.95,3.6L4,3.6L4,3.55ZM2,3.5L2,3.55L2.05,3.55L2.05,3.5L2,3.5ZM4,3.45L3.95,3.45L3.95,3.5L4,3.5L4,3.45ZM2,3.4L2,3.45L2.05,3.45L2.05,3.4L2,3.4ZM4,3.35L3.95,3.35L3.95,3.4L4,3.4L4,3.35ZM2,3.3L2,3.35L2.05,3.35L2.05,3.3L2,3.3ZM4,3.25L3.95,3.25L3.95,3.3L4,3.3L4,3.25ZM2,3.2L2,3.25L2.05,3.25L2.05,3.2L2,3.2ZM4,3.15L3.95,3.15L3.95,3.2L4,3.2L4,3.15ZM2,3.1L2,3.15L2.05,3.15L2.05,3.1L2,3.1ZM4,3.05L3.95,3.05L3.95,3.1L4,3.1L4,3.05ZM2,3L2,3.05L2.05,3.05L2.05,3L2,3ZM4,2.95L3.95,2.95L3.95,3L4,3L4,2.95ZM2,2.9L2,2.95L2.05,2.95L2.05,2.9L2,2.9ZM4,2.85L3.95,2.85L3.95,2.9L4,2.9L4,2.85ZM2,2.8L2,2.85L2.05,2.85L2.05,2.8L2,2.8ZM4,2.75L3.95,2.75L3.95,2.8L4,2.8L4,2.75ZM2,2.7L2,2.75L2.05,2.75L2.05,2.7L2,2.7ZM4,2.65L3.95,2.65L3.95,2.7L4,2.7L4,2.65ZM2,2.6L2,2.65L2.05,2.65L2.05,2.6L2,2.6ZM4,2.55L3.95,2.55L3.95,2.6L4,2.6L4,2.55ZM2,2.5L2,2.55L2.05,2.55L2.05,2.5L2,2.5ZM4,2.45L3.95,2.45L3.95,2.5L4,2.5L4,2.45ZM2,2.4L2,2.45L2.05,2.45L2.05,2.4L2,2.4ZM4,2.35L3.95,2.35L3.95,2.4L4,2.4L4,2.35ZM2,2.3L2,2.35L2.05,2.35L2.05,2.3L2,2.3ZM4,2.25L3.95,2.25L3.95,2.3L4,2.3L4,2.25ZM2,2.2L2,2.25L2.05,2.25L2.05,2.2L2,2.2ZM4,2.15L3.95,2.15L3.95,2.2L4,2.2L4,2.15ZM2,2.1L2,2.15L2.05,2.15L2.05,2.1L2,2.1ZM4,2.1L3.95,2.1L3.95,2L4,2L4,2.1ZM3.5,2L3.45,2L3.45,2.05L3.5,2.05L3.5,2ZM3.8,2L3.75,2L3.75,2.05L3.8,2.05L3.8,2ZM2.3,2L2.25,2L2.25,2.05L2.3,2.05L2.3,2ZM2.2,2L2.15,2L2.15,2.05L2.2,2.05L2.2,2ZM3.2,2L3.15,2L3.15,2.05L3.2,2.05L3.2,2ZM3.3,2L3.25,2L3.25,2.05L3.3,2.05L3.3,2ZM2.5,2L2.45,2L2.45,2.05L2.5,2.05L2.5,2ZM3.4,2L3.35,2L3.35,2.05L3.4,2.05L3.4,2ZM2.4,2L2.35,2L2.35,2.05L2.4,2.05L2.4,2ZM3.6,2L3.55,2L3.55,2.05L3.6,2.05L3.6,2ZM3.9,2L3.85,2L3.85,2.05L3.9,2.05L3.9,2ZM2.6,2L2.55,2L2.55,2.05L2.6,2.05L2.6,2ZM3.7,2L3.65,2L3.65,2.05L3.7,2.05L3.7,2ZM3.1,2L3.05,2L3.05,2.05L3.1,2.05L3.1,2ZM2.1,2.05L2,2.05L2,2L2.1,2L2.1,2.05ZM2.8,2L2.75,2L2.75,2.05L2.8,2.05L2.8,2ZM2.7,2L2.65,2L2.65,2.05L2.7,2.05L2.7,2ZM3,2L2.95,2L2.95,2.05L3,2.05L3,2ZM2.9,2L2.85,2L2.85,2.05L2.9,2.05L2.9,2Z" style="fill:white;"/>
                </g>
            </g>
        </g>
        <g transform="matrix(0.903226,0,0,0.941176,1.09677,1.18199)">
            <path d="M32,7L1,7L1,24L32,24L32,7ZM29.786,9.125L29.786,21.875C29.786,21.875 3.214,21.875 3.214,21.875C3.214,21.875 3.214,9.125 3.214,9.125L29.786,9.125Z"/>
        </g>
    </g>
    <g transform="matrix(12,0,0,12,17.1754,18.6682)">
        <path d="M0.119,-0.127C0.139,-0.127 0.156,-0.12 0.169,-0.107C0.182,-0.094 0.189,-0.077 0.189,-0.058C0.189,-0.039 0.182,-0.022 0.169,-0.009C0.156,0.005 0.139,0.012 0.119,0.012C0.1,0.012 0.083,0.005 0.07,-0.009C0.057,-0.022 0.05,-0.039 0.05,-0.058C0.05,-0.077 0.057,-0.094 0.07,-0.107C0.083,-0.12 0.1,-0.127 0.119,-0.127ZM0.119,-0.495C0.139,-0.495 0.156,-0.488 0.169,-0.475C0.182,-0.462 0.189,-0.445 0.189,-0.426C0.189,-0.407 0.182,-0.39 0.169,-0.377C0.156,-0.363 0.139,-0.356 0.119,-0.356C0.1,-0.356 0.083,-0.363 0.07,-0.377C0.057,-0.39 0.05,-0.407 0.05,-0.426C0.05,-0.445 0.057,-0.462 0.07,-0.475C0.083,-0.488 0.1,-0.495 0.119,-0.495Z" style="fill-rule:nonzero;"/>
    </g>
    <g transform="matrix(10,0,0,10,4.94531,19.3029)">
        <path d="M0.373,-0L0.285,-0L0.285,-0.56C0.264,-0.54 0.236,-0.52 0.201,-0.5C0.167,-0.479 0.136,-0.464 0.109,-0.454L0.109,-0.539C0.158,-0.562 0.201,-0.59 0.238,-0.623C0.275,-0.656 0.301,-0.688 0.316,-0.719L0.373,-0.719L0.373,-0Z" style="fill-rule:nonzero;"/>
    </g>
    <g transform="matrix(10,0,0,10,10.5068,19.3029)">
        <path d="M0.498,-0.541L0.41,-0.534C0.402,-0.568 0.391,-0.593 0.377,-0.609C0.353,-0.634 0.324,-0.646 0.289,-0.646C0.261,-0.646 0.236,-0.639 0.215,-0.623C0.188,-0.603 0.166,-0.573 0.15,-0.535C0.134,-0.496 0.126,-0.441 0.125,-0.369C0.146,-0.401 0.172,-0.425 0.203,-0.441C0.233,-0.457 0.265,-0.464 0.299,-0.464C0.357,-0.464 0.407,-0.443 0.448,-0.4C0.49,-0.357 0.51,-0.301 0.51,-0.232C0.51,-0.188 0.501,-0.146 0.481,-0.107C0.462,-0.069 0.435,-0.039 0.401,-0.019C0.368,0.002 0.329,0.012 0.286,0.012C0.213,0.012 0.153,-0.015 0.107,-0.069C0.061,-0.122 0.038,-0.211 0.038,-0.335C0.038,-0.473 0.063,-0.574 0.114,-0.637C0.159,-0.691 0.219,-0.719 0.294,-0.719C0.351,-0.719 0.397,-0.703 0.433,-0.671C0.469,-0.64 0.49,-0.596 0.498,-0.541ZM0.139,-0.232C0.139,-0.202 0.145,-0.173 0.158,-0.145C0.171,-0.117 0.189,-0.096 0.212,-0.082C0.235,-0.067 0.259,-0.06 0.285,-0.06C0.322,-0.06 0.354,-0.075 0.38,-0.105C0.407,-0.135 0.42,-0.176 0.42,-0.227C0.42,-0.277 0.407,-0.316 0.381,-0.344C0.354,-0.372 0.321,-0.387 0.281,-0.387C0.242,-0.387 0.208,-0.372 0.18,-0.344C0.153,-0.316 0.139,-0.278 0.139,-0.232Z" style="fill-rule:nonzero;"/>
    </g>
    <g transform="matrix(10,0,0,10,20.8438,19.3029)">
        <path d="M0.055,-0.166L0.139,-0.173C0.146,-0.134 0.16,-0.105 0.18,-0.087C0.2,-0.069 0.226,-0.06 0.258,-0.06C0.285,-0.06 0.309,-0.066 0.329,-0.079C0.349,-0.091 0.366,-0.108 0.379,-0.128C0.392,-0.149 0.403,-0.177 0.412,-0.212C0.42,-0.247 0.425,-0.283 0.425,-0.319C0.425,-0.323 0.425,-0.329 0.424,-0.337C0.407,-0.309 0.383,-0.286 0.352,-0.269C0.322,-0.251 0.289,-0.243 0.253,-0.243C0.194,-0.243 0.144,-0.264 0.103,-0.307C0.062,-0.35 0.042,-0.407 0.042,-0.477C0.042,-0.55 0.063,-0.608 0.106,-0.652C0.149,-0.697 0.202,-0.719 0.267,-0.719C0.313,-0.719 0.356,-0.706 0.394,-0.681C0.433,-0.656 0.462,-0.62 0.482,-0.574C0.502,-0.528 0.512,-0.46 0.512,-0.373C0.512,-0.281 0.502,-0.208 0.482,-0.154C0.463,-0.1 0.433,-0.059 0.394,-0.03C0.355,-0.002 0.309,0.012 0.256,0.012C0.2,0.012 0.154,-0.003 0.119,-0.034C0.083,-0.066 0.062,-0.109 0.055,-0.166ZM0.415,-0.481C0.415,-0.532 0.401,-0.572 0.374,-0.602C0.347,-0.631 0.315,-0.646 0.277,-0.646C0.238,-0.646 0.204,-0.63 0.175,-0.598C0.146,-0.566 0.132,-0.525 0.132,-0.474C0.132,-0.429 0.146,-0.392 0.173,-0.363C0.201,-0.335 0.235,-0.32 0.275,-0.32C0.316,-0.32 0.349,-0.335 0.375,-0.363C0.401,-0.392 0.415,-0.431 0.415,-0.481Z" style="fill-rule:nonzero;"/>
    </g>
</svg>
