<?xml version="1.0" encoding="UTF-8" standalone="no"?>
<!DOCTYPE svg PUBLIC "-//W3C//DTD SVG 1.1//EN" "http://www.w3.org/Graphics/SVG/1.1/DTD/svg11.dtd">
<svg width="100%" height="100%" viewBox="0 0 32 32" version="1.1" xmlns="http://www.w3.org/2000/svg" xmlns:xlink="http://www.w3.org/1999/xlink" xml:space="preserve" xmlns:serif="http://www.serif.com/" style="fill-rule:evenodd;clip-rule:evenodd;stroke-linejoin:round;stroke-miterlimit:1.41421;">
    <g id="Main">
        <path d="M14.707,18.707L1.707,31.707L0.293,30.293L13.293,17.293L14.707,18.707Z"/>
        <clipPath id="_clip1">
            <path d="M19.625,22L21,11L16.875,0L10,0L10,22L19.625,22Z"/>
        </clipPath>
        <g clip-path="url(#_clip1)">
            <path d="M21.142,0.001L21.284,0.004L21.425,0.008L21.566,0.014L21.706,0.022L21.846,0.032L21.985,0.044L22.124,0.057L22.262,0.072L22.4,0.088L22.537,0.107L22.674,0.127L22.81,0.149L22.946,0.172L23.081,0.197L23.216,0.224L23.35,0.252L23.483,0.282L23.616,0.313L23.748,0.347L23.879,0.381L24.01,0.418L24.14,0.455L24.27,0.495L24.398,0.536L24.526,0.578L24.654,0.622L24.781,0.668L24.907,0.715L25.032,0.764L25.156,0.814L25.28,0.865L25.403,0.918L25.525,0.972L25.647,1.028L25.767,1.085L25.887,1.144L26.006,1.204L26.124,1.266L26.241,1.328L26.358,1.393L26.474,1.458L26.588,1.525L26.702,1.593L26.815,1.663L26.927,1.734L27.038,1.806L27.148,1.88L27.258,1.955L27.366,2.031L27.473,2.108L27.58,2.187L27.685,2.266L27.79,2.347L27.893,2.43L27.995,2.513L28.097,2.598L28.197,2.684L28.296,2.771L28.395,2.859L28.492,2.948L28.588,3.039L28.683,3.131L28.777,3.223L28.869,3.317L28.961,3.412L29.052,3.508L29.141,3.605L29.229,3.704L29.316,3.803L29.402,3.903L29.487,4.005L29.57,4.107L29.653,4.21L29.734,4.315L29.813,4.42L29.892,4.527L29.969,4.634L30.045,4.742L30.12,4.852L30.194,4.962L30.266,5.073L30.337,5.185L30.407,5.298L30.475,5.412L30.542,5.526L30.607,5.642L30.672,5.759L30.734,5.876L30.796,5.994L30.856,6.113L30.915,6.233L30.972,6.353L31.028,6.475L31.082,6.597L31.135,6.72L31.186,6.844L31.236,6.968L31.285,7.093L31.332,7.219L31.378,7.346L31.422,7.474L31.464,7.602L31.505,7.73L31.545,7.86L31.582,7.99L31.619,8.121L31.653,8.252L31.687,8.384L31.718,8.517L31.748,8.65L31.776,8.784L31.803,8.919L31.828,9.054L31.851,9.19L31.873,9.326L31.893,9.463L31.912,9.6L31.928,9.738L31.943,9.876L31.956,10.015L31.968,10.154L31.978,10.294L31.986,10.434L31.992,10.575L31.996,10.716L31.999,10.858L32,11L31.999,11.142L31.996,11.284L31.992,11.425L31.986,11.566L31.978,11.706L31.968,11.846L31.956,11.985L31.943,12.124L31.928,12.262L31.912,12.4L31.893,12.537L31.873,12.674L31.851,12.81L31.828,12.946L31.803,13.081L31.776,13.216L31.748,13.35L31.718,13.483L31.687,13.616L31.653,13.748L31.619,13.879L31.582,14.01L31.545,14.14L31.505,14.27L31.464,14.398L31.422,14.526L31.378,14.654L31.332,14.781L31.285,14.907L31.236,15.032L31.186,15.156L31.135,15.28L31.082,15.403L31.028,15.525L30.972,15.647L30.915,15.767L30.856,15.887L30.796,16.006L30.734,16.124L30.672,16.241L30.607,16.358L30.542,16.474L30.475,16.588L30.407,16.702L30.337,16.815L30.266,16.927L30.194,17.038L30.12,17.148L30.045,17.258L29.969,17.366L29.892,17.473L29.813,17.58L29.734,17.685L29.653,17.79L29.57,17.893L29.487,17.995L29.402,18.097L29.316,18.197L29.229,18.296L29.141,18.395L29.052,18.492L28.961,18.588L28.869,18.683L28.777,18.777L28.683,18.869L28.588,18.961L28.492,19.052L28.395,19.141L28.296,19.229L28.197,19.316L28.097,19.402L27.995,19.487L27.893,19.57L27.79,19.653L27.685,19.734L27.58,19.813L27.473,19.892L27.366,19.969L27.258,20.045L27.148,20.12L27.038,20.194L26.927,20.266L26.815,20.337L26.702,20.407L26.588,20.475L26.474,20.542L26.358,20.607L26.241,20.672L26.124,20.734L26.006,20.796L25.887,20.856L25.767,20.915L25.647,20.972L25.525,21.028L25.403,21.082L25.28,21.135L25.156,21.186L25.032,21.236L24.907,21.285L24.781,21.332L24.654,21.378L24.526,21.422L24.398,21.464L24.27,21.505L24.14,21.545L24.01,21.582L23.879,21.619L23.748,21.653L23.616,21.687L23.483,21.718L23.35,21.748L23.216,21.776L23.081,21.803L22.946,21.828L22.81,21.851L22.674,21.873L22.537,21.893L22.4,21.912L22.262,21.928L22.124,21.943L21.985,21.956L21.846,21.968L21.706,21.978L21.566,21.986L21.425,21.992L21.284,21.996L21.142,21.999L21,22L20.858,21.999L20.716,21.996L20.575,21.992L20.434,21.986L20.294,21.978L20.154,21.968L20.015,21.956L19.876,21.943L19.738,21.928L19.6,21.912L19.463,21.893L19.326,21.873L19.19,21.851L19.054,21.828L18.919,21.803L18.784,21.776L18.65,21.748L18.517,21.718L18.384,21.687L18.252,21.653L18.121,21.619L17.99,21.582L17.86,21.545L17.73,21.505L17.602,21.464L17.474,21.422L17.346,21.378L17.219,21.332L17.093,21.285L16.968,21.236L16.844,21.186L16.72,21.135L16.597,21.082L16.475,21.028L16.353,20.972L16.233,20.915L16.113,20.856L15.994,20.796L15.876,20.734L15.759,20.672L15.642,20.607L15.526,20.542L15.412,20.475L15.298,20.407L15.185,20.337L15.073,20.266L14.962,20.194L14.852,20.12L14.742,20.045L14.634,19.969L14.527,19.892L14.42,19.813L14.315,19.734L14.21,19.653L14.107,19.57L14.005,19.487L13.903,19.402L13.803,19.316L13.704,19.229L13.605,19.141L13.508,19.052L13.412,18.961L13.317,18.869L13.223,18.777L13.131,18.683L13.039,18.588L12.948,18.492L12.859,18.395L12.771,18.296L12.684,18.197L12.598,18.097L12.513,17.995L12.43,17.893L12.347,17.79L12.266,17.685L12.187,17.58L12.108,17.473L12.031,17.366L11.955,17.258L11.88,17.148L11.806,17.038L11.734,16.927L11.663,16.815L11.593,16.702L11.525,16.588L11.458,16.474L11.393,16.358L11.328,16.241L11.266,16.124L11.204,16.006L11.144,15.887L11.085,15.767L11.028,15.647L10.972,15.525L10.918,15.403L10.865,15.28L10.814,15.156L10.764,15.032L10.715,14.907L10.668,14.781L10.622,14.654L10.578,14.526L10.536,14.398L10.495,14.27L10.455,14.14L10.418,14.01L10.381,13.879L10.347,13.748L10.313,13.616L10.282,13.483L10.252,13.35L10.224,13.216L10.197,13.081L10.172,12.946L10.149,12.81L10.127,12.674L10.107,12.537L10.088,12.4L10.072,12.262L10.057,12.124L10.044,11.985L10.032,11.846L10.022,11.706L10.014,11.566L10.008,11.425L10.004,11.284L10.001,11.142L10,11L10.001,10.858L10.004,10.716L10.008,10.575L10.014,10.434L10.022,10.294L10.032,10.154L10.044,10.015L10.057,9.876L10.072,9.738L10.088,9.6L10.107,9.463L10.127,9.326L10.149,9.19L10.172,9.054L10.197,8.919L10.224,8.784L10.252,8.65L10.282,8.517L10.313,8.384L10.347,8.252L10.381,8.121L10.418,7.99L10.455,7.86L10.495,7.73L10.536,7.602L10.578,7.474L10.622,7.346L10.668,7.219L10.715,7.093L10.764,6.968L10.814,6.844L10.865,6.72L10.918,6.597L10.972,6.475L11.028,6.353L11.085,6.233L11.144,6.113L11.204,5.994L11.266,5.876L11.328,5.759L11.393,5.642L11.458,5.526L11.525,5.412L11.593,5.298L11.663,5.185L11.734,5.073L11.806,4.962L11.88,4.852L11.955,4.742L12.031,4.634L12.108,4.527L12.187,4.42L12.266,4.315L12.347,4.21L12.43,4.107L12.513,4.005L12.598,3.903L12.684,3.803L12.771,3.704L12.859,3.605L12.948,3.508L13.039,3.412L13.131,3.317L13.223,3.223L13.317,3.131L13.412,3.039L13.508,2.948L13.605,2.859L13.704,2.771L13.803,2.684L13.903,2.598L14.005,2.513L14.107,2.43L14.21,2.347L14.315,2.266L14.42,2.187L14.527,2.108L14.634,2.031L14.742,1.955L14.852,1.88L14.962,1.806L15.073,1.734L15.185,1.663L15.298,1.593L15.412,1.525L15.526,1.458L15.642,1.393L15.759,1.328L15.876,1.266L15.994,1.204L16.113,1.144L16.233,1.085L16.353,1.028L16.475,0.972L16.597,0.918L16.72,0.865L16.844,0.814L16.968,0.764L17.093,0.715L17.219,0.668L17.346,0.622L17.474,0.578L17.602,0.536L17.73,0.495L17.86,0.455L17.99,0.418L18.121,0.381L18.252,0.347L18.384,0.313L18.517,0.282L18.65,0.252L18.784,0.224L18.919,0.197L19.054,0.172L19.19,0.149L19.326,0.127L19.463,0.107L19.6,0.088L19.738,0.072L19.876,0.057L20.015,0.044L20.154,0.032L20.294,0.022L20.434,0.014L20.575,0.008L20.716,0.004L20.858,0.001L21,0L21.142,0.001ZM20.883,2.001L20.767,2.003L20.651,2.007L20.536,2.012L20.421,2.018L20.306,2.026L20.192,2.036L20.078,2.047L19.965,2.059L19.852,2.072L19.74,2.087L19.628,2.104L19.517,2.122L19.406,2.141L19.296,2.161L19.186,2.183L19.076,2.206L18.967,2.231L18.859,2.256L18.751,2.283L18.644,2.312L18.537,2.341L18.431,2.372L18.325,2.405L18.22,2.438L18.115,2.473L18.011,2.509L17.908,2.546L17.805,2.584L17.702,2.624L17.601,2.665L17.5,2.707L17.399,2.75L17.299,2.795L17.2,2.84L17.101,2.887L17.003,2.935L16.906,2.984L16.81,3.034L16.714,3.086L16.618,3.138L16.524,3.192L16.43,3.247L16.337,3.303L16.244,3.359L16.153,3.417L16.062,3.477L15.971,3.537L15.882,3.598L15.793,3.66L15.705,3.724L15.618,3.788L15.532,3.853L15.446,3.92L15.362,3.987L15.278,4.056L15.195,4.125L15.113,4.195L15.031,4.267L14.951,4.339L14.871,4.412L14.792,4.486L14.715,4.562L14.638,4.638L14.562,4.715L14.486,4.792L14.412,4.871L14.339,4.951L14.267,5.031L14.195,5.113L14.125,5.195L14.056,5.278L13.987,5.362L13.92,5.446L13.853,5.532L13.788,5.618L13.724,5.705L13.66,5.793L13.598,5.882L13.537,5.971L13.477,6.062L13.417,6.153L13.359,6.244L13.302,6.337L13.247,6.43L13.192,6.524L13.138,6.618L13.086,6.714L13.034,6.81L12.984,6.906L12.935,7.003L12.887,7.101L12.84,7.2L12.795,7.299L12.75,7.399L12.707,7.5L12.665,7.601L12.624,7.702L12.584,7.805L12.546,7.908L12.509,8.011L12.473,8.115L12.438,8.22L12.405,8.325L12.372,8.431L12.341,8.537L12.312,8.644L12.283,8.751L12.256,8.859L12.231,8.967L12.206,9.076L12.183,9.186L12.161,9.296L12.141,9.406L12.122,9.517L12.104,9.628L12.087,9.74L12.072,9.852L12.059,9.965L12.047,10.078L12.036,10.192L12.026,10.306L12.018,10.421L12.012,10.536L12.007,10.651L12.003,10.767L12.001,10.883L12,11L12.001,11.117L12.003,11.233L12.007,11.349L12.012,11.464L12.018,11.579L12.026,11.694L12.036,11.808L12.047,11.922L12.059,12.035L12.072,12.148L12.087,12.26L12.104,12.372L12.122,12.483L12.141,12.594L12.161,12.704L12.183,12.814L12.206,12.924L12.231,13.033L12.256,13.141L12.283,13.249L12.312,13.356L12.341,13.463L12.372,13.569L12.405,13.675L12.438,13.78L12.473,13.885L12.509,13.989L12.546,14.092L12.584,14.195L12.624,14.298L12.665,14.399L12.707,14.5L12.75,14.601L12.795,14.701L12.84,14.8L12.887,14.899L12.935,14.997L12.984,15.094L13.034,15.19L13.086,15.286L13.138,15.382L13.192,15.476L13.247,15.57L13.303,15.663L13.359,15.756L13.417,15.847L13.477,15.938L13.537,16.029L13.598,16.118L13.66,16.207L13.724,16.295L13.788,16.382L13.853,16.468L13.92,16.554L13.987,16.638L14.056,16.722L14.125,16.805L14.195,16.887L14.267,16.969L14.339,17.049L14.412,17.129L14.486,17.208L14.562,17.285L14.638,17.362L14.715,17.438L14.792,17.514L14.871,17.588L14.951,17.661L15.031,17.733L15.113,17.805L15.195,17.875L15.278,17.944L15.362,18.013L15.446,18.08L15.532,18.147L15.618,18.212L15.705,18.276L15.793,18.34L15.882,18.402L15.971,18.463L16.062,18.523L16.153,18.583L16.244,18.641L16.337,18.698L16.43,18.753L16.524,18.808L16.618,18.862L16.714,18.914L16.81,18.966L16.906,19.016L17.004,19.065L17.101,19.113L17.2,19.16L17.299,19.205L17.399,19.25L17.5,19.293L17.601,19.335L17.702,19.376L17.805,19.416L17.908,19.454L18.011,19.491L18.115,19.527L18.22,19.562L18.325,19.595L18.431,19.628L18.537,19.659L18.644,19.688L18.751,19.717L18.859,19.744L18.967,19.769L19.076,19.794L19.186,19.817L19.296,19.839L19.406,19.859L19.517,19.878L19.628,19.896L19.74,19.913L19.852,19.928L19.965,19.941L20.078,19.953L20.192,19.964L20.306,19.974L20.421,19.982L20.536,19.988L20.651,19.993L20.767,19.997L20.883,19.999L21,20L21.117,19.999L21.233,19.997L21.349,19.993L21.464,19.988L21.579,19.982L21.694,19.974L21.808,19.964L21.922,19.953L22.035,19.941L22.148,19.928L22.26,19.913L22.372,19.896L22.483,19.878L22.594,19.859L22.704,19.839L22.814,19.817L22.924,19.794L23.033,19.769L23.141,19.744L23.249,19.717L23.356,19.688L23.463,19.659L23.569,19.628L23.675,19.595L23.78,19.562L23.885,19.527L23.989,19.491L24.092,19.454L24.195,19.416L24.298,19.376L24.399,19.335L24.5,19.293L24.601,19.25L24.701,19.205L24.8,19.16L24.899,19.113L24.997,19.065L25.094,19.016L25.19,18.966L25.286,18.914L25.382,18.862L25.476,18.808L25.57,18.753L25.663,18.698L25.756,18.641L25.847,18.583L25.938,18.523L26.029,18.463L26.118,18.402L26.207,18.34L26.295,18.276L26.382,18.212L26.468,18.147L26.554,18.08L26.638,18.013L26.722,17.944L26.805,17.875L26.887,17.805L26.969,17.733L27.049,17.661L27.129,17.588L27.208,17.514L27.285,17.438L27.362,17.362L27.438,17.285L27.514,17.208L27.588,17.129L27.661,17.049L27.733,16.969L27.805,16.887L27.875,16.805L27.944,16.722L28.013,16.638L28.08,16.554L28.147,16.468L28.212,16.382L28.276,16.295L28.34,16.207L28.402,16.118L28.463,16.029L28.523,15.938L28.583,15.847L28.641,15.756L28.697,15.663L28.753,15.57L28.808,15.476L28.862,15.382L28.914,15.286L28.966,15.19L29.016,15.094L29.065,14.996L29.113,14.899L29.16,14.8L29.205,14.701L29.25,14.601L29.293,14.5L29.335,14.399L29.376,14.298L29.416,14.195L29.454,14.092L29.491,13.989L29.527,13.885L29.562,13.78L29.595,13.675L29.628,13.569L29.659,13.463L29.688,13.356L29.717,13.249L29.744,13.141L29.769,13.033L29.794,12.924L29.817,12.814L29.839,12.704L29.859,12.594L29.878,12.483L29.896,12.372L29.913,12.26L29.928,12.148L29.941,12.035L29.953,11.922L29.964,11.808L29.974,11.694L29.982,11.579L29.988,11.464L29.993,11.349L29.997,11.233L29.999,11.117L30,11L29.999,10.883L29.997,10.767L29.993,10.651L29.988,10.536L29.982,10.421L29.974,10.306L29.964,10.192L29.953,10.078L29.941,9.965L29.928,9.852L29.913,9.74L29.896,9.628L29.878,9.517L29.859,9.406L29.839,9.296L29.817,9.186L29.794,9.076L29.769,8.967L29.744,8.859L29.717,8.751L29.688,8.644L29.659,8.537L29.628,8.431L29.595,8.325L29.562,8.22L29.527,8.115L29.491,8.011L29.454,7.908L29.416,7.805L29.376,7.702L29.335,7.601L29.293,7.5L29.25,7.399L29.205,7.299L29.16,7.2L29.113,7.101L29.065,7.003L29.016,6.906L28.966,6.81L28.914,6.714L28.862,6.618L28.808,6.524L28.753,6.43L28.697,6.337L28.641,6.244L28.583,6.153L28.523,6.062L28.463,5.971L28.402,5.882L28.34,5.793L28.276,5.705L28.212,5.618L28.147,5.532L28.08,5.446L28.013,5.362L27.944,5.278L27.875,5.195L27.805,5.113L27.733,5.031L27.661,4.951L27.588,4.871L27.514,4.792L27.438,4.715L27.362,4.638L27.285,4.562L27.208,4.486L27.129,4.412L27.049,4.339L26.969,4.267L26.887,4.195L26.805,4.125L26.722,4.056L26.638,3.987L26.554,3.92L26.468,3.853L26.382,3.788L26.295,3.724L26.207,3.66L26.118,3.598L26.029,3.537L25.938,3.477L25.847,3.417L25.756,3.359L25.663,3.302L25.57,3.247L25.476,3.192L25.382,3.138L25.286,3.086L25.19,3.034L25.094,2.984L24.997,2.935L24.899,2.887L24.8,2.84L24.701,2.795L24.601,2.75L24.5,2.707L24.399,2.665L24.298,2.624L24.195,2.584L24.092,2.546L23.989,2.509L23.885,2.473L23.78,2.438L23.675,2.405L23.569,2.372L23.463,2.341L23.356,2.312L23.249,2.283L23.141,2.256L23.033,2.231L22.924,2.206L22.814,2.183L22.704,2.161L22.594,2.141L22.483,2.122L22.372,2.104L22.26,2.087L22.148,2.072L22.035,2.059L21.922,2.047L21.808,2.036L21.694,2.026L21.579,2.018L21.464,2.012L21.349,2.007L21.233,2.003L21.117,2.001L21,2L20.883,2.001Z"/>
        </g>
        <g id="Arrow">
            <path d="M18,5L16,5L16,2L13,2L13,0L18,0L18,5Z"/>
        </g>
        <clipPath id="_clip2">
            <path d="M22.375,0L21,11L25.125,22L32,22L32,0L22.375,0Z"/>
        </clipPath>
        <g clip-path="url(#_clip2)">
            <path d="M21.142,0.001L21.284,0.004L21.425,0.008L21.566,0.014L21.706,0.022L21.846,0.032L21.985,0.044L22.124,0.057L22.262,0.072L22.4,0.088L22.537,0.107L22.674,0.127L22.81,0.149L22.946,0.172L23.081,0.197L23.216,0.224L23.35,0.252L23.483,0.282L23.616,0.313L23.748,0.347L23.879,0.381L24.01,0.418L24.14,0.455L24.27,0.495L24.398,0.536L24.526,0.578L24.654,0.622L24.781,0.668L24.907,0.715L25.032,0.764L25.156,0.814L25.28,0.865L25.403,0.918L25.525,0.972L25.647,1.028L25.767,1.085L25.887,1.144L26.006,1.204L26.124,1.266L26.241,1.328L26.358,1.393L26.474,1.458L26.588,1.525L26.702,1.593L26.815,1.663L26.927,1.734L27.038,1.806L27.148,1.88L27.258,1.955L27.366,2.031L27.473,2.108L27.58,2.187L27.685,2.266L27.79,2.347L27.893,2.43L27.995,2.513L28.097,2.598L28.197,2.684L28.296,2.771L28.395,2.859L28.492,2.948L28.588,3.039L28.683,3.131L28.777,3.223L28.869,3.317L28.961,3.412L29.052,3.508L29.141,3.605L29.229,3.704L29.316,3.803L29.402,3.903L29.487,4.005L29.57,4.107L29.653,4.21L29.734,4.315L29.813,4.42L29.892,4.527L29.969,4.634L30.045,4.742L30.12,4.852L30.194,4.962L30.266,5.073L30.337,5.185L30.407,5.298L30.475,5.412L30.542,5.526L30.607,5.642L30.672,5.759L30.734,5.876L30.796,5.994L30.856,6.113L30.915,6.233L30.972,6.353L31.028,6.475L31.082,6.597L31.135,6.72L31.186,6.844L31.236,6.968L31.285,7.093L31.332,7.219L31.378,7.346L31.422,7.474L31.464,7.602L31.505,7.73L31.545,7.86L31.582,7.99L31.619,8.121L31.653,8.252L31.687,8.384L31.718,8.517L31.748,8.65L31.776,8.784L31.803,8.919L31.828,9.054L31.851,9.19L31.873,9.326L31.893,9.463L31.912,9.6L31.928,9.738L31.943,9.876L31.956,10.015L31.968,10.154L31.978,10.294L31.986,10.434L31.992,10.575L31.996,10.716L31.999,10.858L32,11L31.999,11.142L31.996,11.284L31.992,11.425L31.986,11.566L31.978,11.706L31.968,11.846L31.956,11.985L31.943,12.124L31.928,12.262L31.912,12.4L31.893,12.537L31.873,12.674L31.851,12.81L31.828,12.946L31.803,13.081L31.776,13.216L31.748,13.35L31.718,13.483L31.687,13.616L31.653,13.748L31.619,13.879L31.582,14.01L31.545,14.14L31.505,14.27L31.464,14.398L31.422,14.526L31.378,14.654L31.332,14.781L31.285,14.907L31.236,15.032L31.186,15.156L31.135,15.28L31.082,15.403L31.028,15.525L30.972,15.647L30.915,15.767L30.856,15.887L30.796,16.006L30.734,16.124L30.672,16.241L30.607,16.358L30.542,16.474L30.475,16.588L30.407,16.702L30.337,16.815L30.266,16.927L30.194,17.038L30.12,17.148L30.045,17.258L29.969,17.366L29.892,17.473L29.813,17.58L29.734,17.685L29.653,17.79L29.57,17.893L29.487,17.995L29.402,18.097L29.316,18.197L29.229,18.296L29.141,18.395L29.052,18.492L28.961,18.588L28.869,18.683L28.777,18.777L28.683,18.869L28.588,18.961L28.492,19.052L28.395,19.141L28.296,19.229L28.197,19.316L28.097,19.402L27.995,19.487L27.893,19.57L27.79,19.653L27.685,19.734L27.58,19.813L27.473,19.892L27.366,19.969L27.258,20.045L27.148,20.12L27.038,20.194L26.927,20.266L26.815,20.337L26.702,20.407L26.588,20.475L26.474,20.542L26.358,20.607L26.241,20.672L26.124,20.734L26.006,20.796L25.887,20.856L25.767,20.915L25.647,20.972L25.525,21.028L25.403,21.082L25.28,21.135L25.156,21.186L25.032,21.236L24.907,21.285L24.781,21.332L24.654,21.378L24.526,21.422L24.398,21.464L24.27,21.505L24.14,21.545L24.01,21.582L23.879,21.619L23.748,21.653L23.616,21.687L23.483,21.718L23.35,21.748L23.216,21.776L23.081,21.803L22.946,21.828L22.81,21.851L22.674,21.873L22.537,21.893L22.4,21.912L22.262,21.928L22.124,21.943L21.985,21.956L21.846,21.968L21.706,21.978L21.566,21.986L21.425,21.992L21.284,21.996L21.142,21.999L21,22L20.858,21.999L20.716,21.996L20.575,21.992L20.434,21.986L20.294,21.978L20.154,21.968L20.015,21.956L19.876,21.943L19.738,21.928L19.6,21.912L19.463,21.893L19.326,21.873L19.19,21.851L19.054,21.828L18.919,21.803L18.784,21.776L18.65,21.748L18.517,21.718L18.384,21.687L18.252,21.653L18.121,21.619L17.99,21.582L17.86,21.545L17.73,21.505L17.602,21.464L17.474,21.422L17.346,21.378L17.219,21.332L17.093,21.285L16.968,21.236L16.844,21.186L16.72,21.135L16.597,21.082L16.475,21.028L16.353,20.972L16.233,20.915L16.113,20.856L15.994,20.796L15.876,20.734L15.759,20.672L15.642,20.607L15.526,20.542L15.412,20.475L15.298,20.407L15.185,20.337L15.073,20.266L14.962,20.194L14.852,20.12L14.742,20.045L14.634,19.969L14.527,19.892L14.42,19.813L14.315,19.734L14.21,19.653L14.107,19.57L14.005,19.487L13.903,19.402L13.803,19.316L13.704,19.229L13.605,19.141L13.508,19.052L13.412,18.961L13.317,18.869L13.223,18.777L13.131,18.683L13.039,18.588L12.948,18.492L12.859,18.395L12.771,18.296L12.684,18.197L12.598,18.097L12.513,17.995L12.43,17.893L12.347,17.79L12.266,17.685L12.187,17.58L12.108,17.473L12.031,17.366L11.955,17.258L11.88,17.148L11.806,17.038L11.734,16.927L11.663,16.815L11.593,16.702L11.525,16.588L11.458,16.474L11.393,16.358L11.328,16.241L11.266,16.124L11.204,16.006L11.144,15.887L11.085,15.767L11.028,15.647L10.972,15.525L10.918,15.403L10.865,15.28L10.814,15.156L10.764,15.032L10.715,14.907L10.668,14.781L10.622,14.654L10.578,14.526L10.536,14.398L10.495,14.27L10.455,14.14L10.418,14.01L10.381,13.879L10.347,13.748L10.313,13.616L10.282,13.483L10.252,13.35L10.224,13.216L10.197,13.081L10.172,12.946L10.149,12.81L10.127,12.674L10.107,12.537L10.088,12.4L10.072,12.262L10.057,12.124L10.044,11.985L10.032,11.846L10.022,11.706L10.014,11.566L10.008,11.425L10.004,11.284L10.001,11.142L10,11L10.001,10.858L10.004,10.716L10.008,10.575L10.014,10.434L10.022,10.294L10.032,10.154L10.044,10.015L10.057,9.876L10.072,9.738L10.088,9.6L10.107,9.463L10.127,9.326L10.149,9.19L10.172,9.054L10.197,8.919L10.224,8.784L10.252,8.65L10.282,8.517L10.313,8.384L10.347,8.252L10.381,8.121L10.418,7.99L10.455,7.86L10.495,7.73L10.536,7.602L10.578,7.474L10.622,7.346L10.668,7.219L10.715,7.093L10.764,6.968L10.814,6.844L10.865,6.72L10.918,6.597L10.972,6.475L11.028,6.353L11.085,6.233L11.144,6.113L11.204,5.994L11.266,5.876L11.328,5.759L11.393,5.642L11.458,5.526L11.525,5.412L11.593,5.298L11.663,5.185L11.734,5.073L11.806,4.962L11.88,4.852L11.955,4.742L12.031,4.634L12.108,4.527L12.187,4.42L12.266,4.315L12.347,4.21L12.43,4.107L12.513,4.005L12.598,3.903L12.684,3.803L12.771,3.704L12.859,3.605L12.948,3.508L13.039,3.412L13.131,3.317L13.223,3.223L13.317,3.131L13.412,3.039L13.508,2.948L13.605,2.859L13.704,2.771L13.803,2.684L13.903,2.598L14.005,2.513L14.107,2.43L14.21,2.347L14.315,2.266L14.42,2.187L14.527,2.108L14.634,2.031L14.742,1.955L14.852,1.88L14.962,1.806L15.073,1.734L15.185,1.663L15.298,1.593L15.412,1.525L15.526,1.458L15.642,1.393L15.759,1.328L15.876,1.266L15.994,1.204L16.113,1.144L16.233,1.085L16.353,1.028L16.475,0.972L16.597,0.918L16.72,0.865L16.844,0.814L16.968,0.764L17.093,0.715L17.219,0.668L17.346,0.622L17.474,0.578L17.602,0.536L17.73,0.495L17.86,0.455L17.99,0.418L18.121,0.381L18.252,0.347L18.384,0.313L18.517,0.282L18.65,0.252L18.784,0.224L18.919,0.197L19.054,0.172L19.19,0.149L19.326,0.127L19.463,0.107L19.6,0.088L19.738,0.072L19.876,0.057L20.015,0.044L20.154,0.032L20.294,0.022L20.434,0.014L20.575,0.008L20.716,0.004L20.858,0.001L21,0L21.142,0.001ZM20.883,2.001L20.767,2.003L20.651,2.007L20.536,2.012L20.421,2.018L20.306,2.026L20.192,2.036L20.078,2.047L19.965,2.059L19.852,2.072L19.74,2.087L19.628,2.104L19.517,2.122L19.406,2.141L19.296,2.161L19.186,2.183L19.076,2.206L18.967,2.231L18.859,2.256L18.751,2.283L18.644,2.312L18.537,2.341L18.431,2.372L18.325,2.405L18.22,2.438L18.115,2.473L18.011,2.509L17.908,2.546L17.805,2.584L17.702,2.624L17.601,2.665L17.5,2.707L17.399,2.75L17.299,2.795L17.2,2.84L17.101,2.887L17.003,2.935L16.906,2.984L16.81,3.034L16.714,3.086L16.618,3.138L16.524,3.192L16.43,3.247L16.337,3.303L16.244,3.359L16.153,3.417L16.062,3.477L15.971,3.537L15.882,3.598L15.793,3.66L15.705,3.724L15.618,3.788L15.532,3.853L15.446,3.92L15.362,3.987L15.278,4.056L15.195,4.125L15.113,4.195L15.031,4.267L14.951,4.339L14.871,4.412L14.792,4.486L14.715,4.562L14.638,4.638L14.562,4.715L14.486,4.792L14.412,4.871L14.339,4.951L14.267,5.031L14.195,5.113L14.125,5.195L14.056,5.278L13.987,5.362L13.92,5.446L13.853,5.532L13.788,5.618L13.724,5.705L13.66,5.793L13.598,5.882L13.537,5.971L13.477,6.062L13.417,6.153L13.359,6.244L13.302,6.337L13.247,6.43L13.192,6.524L13.138,6.618L13.086,6.714L13.034,6.81L12.984,6.906L12.935,7.003L12.887,7.101L12.84,7.2L12.795,7.299L12.75,7.399L12.707,7.5L12.665,7.601L12.624,7.702L12.584,7.805L12.546,7.908L12.509,8.011L12.473,8.115L12.438,8.22L12.405,8.325L12.372,8.431L12.341,8.537L12.312,8.644L12.283,8.751L12.256,8.859L12.231,8.967L12.206,9.076L12.183,9.186L12.161,9.296L12.141,9.406L12.122,9.517L12.104,9.628L12.087,9.74L12.072,9.852L12.059,9.965L12.047,10.078L12.036,10.192L12.026,10.306L12.018,10.421L12.012,10.536L12.007,10.651L12.003,10.767L12.001,10.883L12,11L12.001,11.117L12.003,11.233L12.007,11.349L12.012,11.464L12.018,11.579L12.026,11.694L12.036,11.808L12.047,11.922L12.059,12.035L12.072,12.148L12.087,12.26L12.104,12.372L12.122,12.483L12.141,12.594L12.161,12.704L12.183,12.814L12.206,12.924L12.231,13.033L12.256,13.141L12.283,13.249L12.312,13.356L12.341,13.463L12.372,13.569L12.405,13.675L12.438,13.78L12.473,13.885L12.509,13.989L12.546,14.092L12.584,14.195L12.624,14.298L12.665,14.399L12.707,14.5L12.75,14.601L12.795,14.701L12.84,14.8L12.887,14.899L12.935,14.997L12.984,15.094L13.034,15.19L13.086,15.286L13.138,15.382L13.192,15.476L13.247,15.57L13.303,15.663L13.359,15.756L13.417,15.847L13.477,15.938L13.537,16.029L13.598,16.118L13.66,16.207L13.724,16.295L13.788,16.382L13.853,16.468L13.92,16.554L13.987,16.638L14.056,16.722L14.125,16.805L14.195,16.887L14.267,16.969L14.339,17.049L14.412,17.129L14.486,17.208L14.562,17.285L14.638,17.362L14.715,17.438L14.792,17.514L14.871,17.588L14.951,17.661L15.031,17.733L15.113,17.805L15.195,17.875L15.278,17.944L15.362,18.013L15.446,18.08L15.532,18.147L15.618,18.212L15.705,18.276L15.793,18.34L15.882,18.402L15.971,18.463L16.062,18.523L16.153,18.583L16.244,18.641L16.337,18.698L16.43,18.753L16.524,18.808L16.618,18.862L16.714,18.914L16.81,18.966L16.906,19.016L17.004,19.065L17.101,19.113L17.2,19.16L17.299,19.205L17.399,19.25L17.5,19.293L17.601,19.335L17.702,19.376L17.805,19.416L17.908,19.454L18.011,19.491L18.115,19.527L18.22,19.562L18.325,19.595L18.431,19.628L18.537,19.659L18.644,19.688L18.751,19.717L18.859,19.744L18.967,19.769L19.076,19.794L19.186,19.817L19.296,19.839L19.406,19.859L19.517,19.878L19.628,19.896L19.74,19.913L19.852,19.928L19.965,19.941L20.078,19.953L20.192,19.964L20.306,19.974L20.421,19.982L20.536,19.988L20.651,19.993L20.767,19.997L20.883,19.999L21,20L21.117,19.999L21.233,19.997L21.349,19.993L21.464,19.988L21.579,19.982L21.694,19.974L21.808,19.964L21.922,19.953L22.035,19.941L22.148,19.928L22.26,19.913L22.372,19.896L22.483,19.878L22.594,19.859L22.704,19.839L22.814,19.817L22.924,19.794L23.033,19.769L23.141,19.744L23.249,19.717L23.356,19.688L23.463,19.659L23.569,19.628L23.675,19.595L23.78,19.562L23.885,19.527L23.989,19.491L24.092,19.454L24.195,19.416L24.298,19.376L24.399,19.335L24.5,19.293L24.601,19.25L24.701,19.205L24.8,19.16L24.899,19.113L24.997,19.065L25.094,19.016L25.19,18.966L25.286,18.914L25.382,18.862L25.476,18.808L25.57,18.753L25.663,18.698L25.756,18.641L25.847,18.583L25.938,18.523L26.029,18.463L26.118,18.402L26.207,18.34L26.295,18.276L26.382,18.212L26.468,18.147L26.554,18.08L26.638,18.013L26.722,17.944L26.805,17.875L26.887,17.805L26.969,17.733L27.049,17.661L27.129,17.588L27.208,17.514L27.285,17.438L27.362,17.362L27.438,17.285L27.514,17.208L27.588,17.129L27.661,17.049L27.733,16.969L27.805,16.887L27.875,16.805L27.944,16.722L28.013,16.638L28.08,16.554L28.147,16.468L28.212,16.382L28.276,16.295L28.34,16.207L28.402,16.118L28.463,16.029L28.523,15.938L28.583,15.847L28.641,15.756L28.697,15.663L28.753,15.57L28.808,15.476L28.862,15.382L28.914,15.286L28.966,15.19L29.016,15.094L29.065,14.996L29.113,14.899L29.16,14.8L29.205,14.701L29.25,14.601L29.293,14.5L29.335,14.399L29.376,14.298L29.416,14.195L29.454,14.092L29.491,13.989L29.527,13.885L29.562,13.78L29.595,13.675L29.628,13.569L29.659,13.463L29.688,13.356L29.717,13.249L29.744,13.141L29.769,13.033L29.794,12.924L29.817,12.814L29.839,12.704L29.859,12.594L29.878,12.483L29.896,12.372L29.913,12.26L29.928,12.148L29.941,12.035L29.953,11.922L29.964,11.808L29.974,11.694L29.982,11.579L29.988,11.464L29.993,11.349L29.997,11.233L29.999,11.117L30,11L29.999,10.883L29.997,10.767L29.993,10.651L29.988,10.536L29.982,10.421L29.974,10.306L29.964,10.192L29.953,10.078L29.941,9.965L29.928,9.852L29.913,9.74L29.896,9.628L29.878,9.517L29.859,9.406L29.839,9.296L29.817,9.186L29.794,9.076L29.769,8.967L29.744,8.859L29.717,8.751L29.688,8.644L29.659,8.537L29.628,8.431L29.595,8.325L29.562,8.22L29.527,8.115L29.491,8.011L29.454,7.908L29.416,7.805L29.376,7.702L29.335,7.601L29.293,7.5L29.25,7.399L29.205,7.299L29.16,7.2L29.113,7.101L29.065,7.003L29.016,6.906L28.966,6.81L28.914,6.714L28.862,6.618L28.808,6.524L28.753,6.43L28.697,6.337L28.641,6.244L28.583,6.153L28.523,6.062L28.463,5.971L28.402,5.882L28.34,5.793L28.276,5.705L28.212,5.618L28.147,5.532L28.08,5.446L28.013,5.362L27.944,5.278L27.875,5.195L27.805,5.113L27.733,5.031L27.661,4.951L27.588,4.871L27.514,4.792L27.438,4.715L27.362,4.638L27.285,4.562L27.208,4.486L27.129,4.412L27.049,4.339L26.969,4.267L26.887,4.195L26.805,4.125L26.722,4.056L26.638,3.987L26.554,3.92L26.468,3.853L26.382,3.788L26.295,3.724L26.207,3.66L26.118,3.598L26.029,3.537L25.938,3.477L25.847,3.417L25.756,3.359L25.663,3.302L25.57,3.247L25.476,3.192L25.382,3.138L25.286,3.086L25.19,3.034L25.094,2.984L24.997,2.935L24.899,2.887L24.8,2.84L24.701,2.795L24.601,2.75L24.5,2.707L24.399,2.665L24.298,2.624L24.195,2.584L24.092,2.546L23.989,2.509L23.885,2.473L23.78,2.438L23.675,2.405L23.569,2.372L23.463,2.341L23.356,2.312L23.249,2.283L23.141,2.256L23.033,2.231L22.924,2.206L22.814,2.183L22.704,2.161L22.594,2.141L22.483,2.122L22.372,2.104L22.26,2.087L22.148,2.072L22.035,2.059L21.922,2.047L21.808,2.036L21.694,2.026L21.579,2.018L21.464,2.012L21.349,2.007L21.233,2.003L21.117,2.001L21,2L20.883,2.001Z"/>
        </g>
        <g id="Arrow1" serif:id="Arrow">
            <path d="M26,20L29,20L29,22L24,22L24,17L26,17L26,20Z"/>
        </g>
    </g>
</svg>
