<?xml version="1.0" encoding="UTF-8" standalone="no"?>
<!DOCTYPE svg PUBLIC "-//W3C//DTD SVG 1.1//EN" "http://www.w3.org/Graphics/SVG/1.1/DTD/svg11.dtd">
<svg width="100%" height="100%" viewBox="0 0 32 32" version="1.1" xmlns="http://www.w3.org/2000/svg" xmlns:xlink="http://www.w3.org/1999/xlink" xml:space="preserve" xmlns:serif="http://www.serif.com/" style="fill-rule:evenodd;clip-rule:evenodd;stroke-linejoin:round;stroke-miterlimit:1.41421;">
    <g id="Main">
        <clipPath id="_clip1">
            <path d="M16,14L16,31.5L0,31.5L0,-0.5L32,-0.5L32,14L16,14Z"/>
        </clipPath>
        <g clip-path="url(#_clip1)">
            <path d="M19.777,12L32,12L22.111,19.041L25.889,30.5L16,23.418L6.111,30.5L9.889,19.041L0,11.959L12.223,11.959L16,0.5L19.777,12ZM13.67,13.959L6.227,13.959L12.248,18.271L9.929,25.306L16,20.958L22.071,25.306L19.75,18.267L25.743,14L18.329,14L15.997,6.899L13.67,13.959Z"/>
        </g>
        <rect x="20" y="12" width="12" height="2"/>
        <rect x="18" y="17" width="14" height="2"/>
        <rect x="18" y="22" width="14" height="2"/>
    </g>
</svg>
