<?xml version="1.0" encoding="UTF-8" standalone="no"?>
<!DOCTYPE svg PUBLIC "-//W3C//DTD SVG 1.1//EN" "http://www.w3.org/Graphics/SVG/1.1/DTD/svg11.dtd">
<svg width="100%" height="100%" viewBox="0 0 32 32" version="1.1" xmlns="http://www.w3.org/2000/svg" xmlns:xlink="http://www.w3.org/1999/xlink" xml:space="preserve" xmlns:serif="http://www.serif.com/" style="fill-rule:evenodd;clip-rule:evenodd;stroke-linejoin:round;stroke-miterlimit:1.41421;">
    <g id="Main">
        <path d="M11,15L0,15L0,6L11,6L11,15ZM2,8L2,13L9,13L9,8L2,8Z"/>
        <path d="M32,15L12,15L12,6L32,6L32,15ZM14,8L14,13L30,13L30,8L14,8Z"/>
        <path d="M20,25L0,25L0,16L20,16L20,25ZM2,18L2,23L18,23L18,18L2,18Z"/>
        <path d="M32,25L21,25L21,16L32,16L32,25ZM23,18L23,23L30,23L30,18L23,18Z"/>
    </g>
</svg>
