<?xml version="1.0" encoding="UTF-8" standalone="no"?>
<!DOCTYPE svg PUBLIC "-//W3C//DTD SVG 1.1//EN" "http://www.w3.org/Graphics/SVG/1.1/DTD/svg11.dtd">
<svg width="100%" height="100%" viewBox="0 0 32 32" version="1.1" xmlns="http://www.w3.org/2000/svg" xmlns:xlink="http://www.w3.org/1999/xlink" xml:space="preserve" xmlns:serif="http://www.serif.com/" style="fill-rule:evenodd;clip-rule:evenodd;stroke-linejoin:round;stroke-miterlimit:1.41421;">
    <g id="Main">
        <path d="M30,28L2,28L2,6L30,6L30,28ZM4,8L4,26L28,26L28,8L4,8Z"/>
        <path d="M28.447,2.894L18.447,7.894L17.553,6.106L27.553,1.106L28.447,2.894Z"/>
        <path d="M14.447,6.106L13.553,7.894L3.553,2.894L4.447,1.106L14.447,6.106Z"/>
        <path d="M26,22L6,22L6,10L26,10L26,22ZM8,12L8,20L24,20L24,12L8,12Z"/>
        <rect x="24" y="23" width="2" height="2"/>
        <rect x="20" y="23" width="2" height="2"/>
        <rect x="16" y="23" width="2" height="2"/>
    </g>
</svg>
