<?xml version="1.0" encoding="UTF-8" standalone="no"?>
<!DOCTYPE svg PUBLIC "-//W3C//DTD SVG 1.1//EN" "http://www.w3.org/Graphics/SVG/1.1/DTD/svg11.dtd">
<svg width="100%" height="100%" viewBox="0 0 32 32" version="1.1" xmlns="http://www.w3.org/2000/svg" xmlns:xlink="http://www.w3.org/1999/xlink" xml:space="preserve" xmlns:serif="http://www.serif.com/" style="fill-rule:evenodd;clip-rule:evenodd;stroke-linejoin:round;stroke-miterlimit:1.41421;">
    <g id="Main">
        <path d="M16.207,0.001L16.413,0.005L16.618,0.012L16.823,0.021L17.027,0.032L17.23,0.047L17.433,0.063L17.635,0.083L17.836,0.104L18.037,0.129L18.236,0.155L18.435,0.184L18.633,0.216L18.831,0.25L19.027,0.287L19.223,0.325L19.418,0.366L19.612,0.41L19.805,0.456L19.997,0.504L20.188,0.555L20.378,0.607L20.567,0.662L20.756,0.72L20.943,0.779L21.129,0.841L21.315,0.905L21.499,0.972L21.682,1.04L21.864,1.111L22.045,1.183L22.225,1.258L22.404,1.335L22.582,1.414L22.759,1.496L22.934,1.579L23.108,1.664L23.281,1.751L23.453,1.841L23.624,1.932L23.793,2.026L23.961,2.121L24.128,2.218L24.294,2.318L24.458,2.419L24.621,2.522L24.783,2.627L24.943,2.734L25.102,2.843L25.26,2.954L25.416,3.066L25.571,3.18L25.724,3.296L25.876,3.414L26.026,3.534L26.175,3.656L26.322,3.779L26.468,3.904L26.613,4.03L26.756,4.159L26.897,4.289L27.037,4.42L27.175,4.554L27.311,4.689L27.446,4.825L27.58,4.963L27.711,5.103L27.841,5.244L27.97,5.387L28.096,5.532L28.221,5.678L28.344,5.825L28.466,5.974L28.586,6.124L28.704,6.276L28.82,6.429L28.934,6.584L29.046,6.74L29.157,6.898L29.266,7.057L29.373,7.217L29.478,7.379L29.581,7.542L29.682,7.706L29.782,7.872L29.879,8.039L29.974,8.207L30.068,8.376L30.159,8.547L30.249,8.719L30.336,8.892L30.421,9.066L30.504,9.241L30.586,9.418L30.665,9.596L30.742,9.775L30.817,9.955L30.889,10.136L30.96,10.318L31.028,10.501L31.095,10.685L31.159,10.871L31.221,11.057L31.28,11.244L31.338,11.433L31.393,11.622L31.445,11.812L31.496,12.003L31.544,12.195L31.59,12.388L31.634,12.582L31.675,12.777L31.713,12.973L31.75,13.169L31.784,13.367L31.816,13.565L31.845,13.764L31.871,13.963L31.896,14.164L31.917,14.365L31.937,14.567L31.953,14.77L31.968,14.973L31.979,15.177L31.988,15.382L31.995,15.587L31.999,15.793L32,16L31.999,16.207L31.995,16.413L31.988,16.618L31.979,16.823L31.968,17.027L31.953,17.23L31.937,17.433L31.917,17.635L31.896,17.836L31.871,18.037L31.845,18.236L31.816,18.435L31.784,18.633L31.75,18.831L31.713,19.027L31.675,19.223L31.634,19.418L31.59,19.612L31.544,19.805L31.496,19.997L31.445,20.188L31.393,20.378L31.338,20.567L31.28,20.756L31.221,20.943L31.159,21.129L31.095,21.315L31.028,21.499L30.96,21.682L30.889,21.864L30.817,22.045L30.742,22.225L30.665,22.404L30.586,22.582L30.504,22.759L30.421,22.934L30.336,23.108L30.249,23.281L30.159,23.453L30.068,23.624L29.974,23.793L29.879,23.961L29.782,24.128L29.682,24.294L29.581,24.458L29.478,24.621L29.373,24.783L29.266,24.943L29.157,25.102L29.046,25.26L28.934,25.416L28.82,25.571L28.704,25.724L28.586,25.876L28.466,26.026L28.344,26.175L28.221,26.322L28.096,26.468L27.97,26.613L27.841,26.756L27.711,26.897L27.58,27.037L27.446,27.175L27.311,27.311L27.175,27.446L27.037,27.58L26.897,27.711L26.756,27.841L26.613,27.97L26.468,28.096L26.322,28.221L26.175,28.344L26.026,28.466L25.876,28.586L25.724,28.704L25.571,28.82L25.416,28.934L25.26,29.046L25.102,29.157L24.943,29.266L24.783,29.373L24.621,29.478L24.458,29.581L24.294,29.682L24.128,29.782L23.961,29.879L23.793,29.974L23.624,30.068L23.453,30.159L23.281,30.249L23.108,30.336L22.934,30.421L22.759,30.504L22.582,30.586L22.404,30.665L22.225,30.742L22.045,30.817L21.864,30.889L21.682,30.96L21.499,31.028L21.315,31.095L21.129,31.159L20.943,31.221L20.756,31.28L20.567,31.338L20.378,31.393L20.188,31.445L19.997,31.496L19.805,31.544L19.612,31.59L19.418,31.634L19.223,31.675L19.027,31.713L18.831,31.75L18.633,31.784L18.435,31.816L18.236,31.845L18.037,31.871L17.836,31.896L17.635,31.917L17.433,31.937L17.23,31.953L17.027,31.968L16.823,31.979L16.618,31.988L16.413,31.995L16.207,31.999L16,32L15.793,31.999L15.587,31.995L15.382,31.988L15.177,31.979L14.973,31.968L14.77,31.953L14.567,31.937L14.365,31.917L14.164,31.896L13.963,31.871L13.764,31.845L13.565,31.816L13.367,31.784L13.169,31.75L12.973,31.713L12.777,31.675L12.582,31.634L12.388,31.59L12.195,31.544L12.003,31.496L11.812,31.445L11.622,31.393L11.433,31.338L11.244,31.28L11.057,31.221L10.871,31.159L10.685,31.095L10.501,31.028L10.318,30.96L10.136,30.889L9.955,30.817L9.775,30.742L9.596,30.665L9.418,30.586L9.241,30.504L9.066,30.421L8.892,30.336L8.719,30.249L8.547,30.159L8.376,30.068L8.207,29.974L8.039,29.879L7.872,29.782L7.706,29.682L7.542,29.581L7.379,29.478L7.217,29.373L7.057,29.266L6.898,29.157L6.74,29.046L6.584,28.934L6.429,28.82L6.276,28.704L6.124,28.586L5.974,28.466L5.825,28.344L5.678,28.221L5.532,28.096L5.387,27.97L5.244,27.841L5.103,27.711L4.963,27.58L4.825,27.446L4.689,27.311L4.554,27.175L4.42,27.037L4.289,26.897L4.159,26.756L4.03,26.613L3.904,26.468L3.779,26.322L3.656,26.175L3.534,26.026L3.414,25.876L3.296,25.724L3.18,25.571L3.066,25.416L2.954,25.26L2.843,25.102L2.734,24.943L2.627,24.783L2.522,24.621L2.419,24.458L2.318,24.294L2.218,24.128L2.121,23.961L2.026,23.793L1.932,23.624L1.841,23.453L1.751,23.281L1.664,23.108L1.579,22.934L1.496,22.759L1.414,22.582L1.335,22.404L1.258,22.225L1.183,22.045L1.111,21.864L1.04,21.682L0.972,21.499L0.905,21.315L0.841,21.129L0.779,20.943L0.72,20.756L0.662,20.567L0.607,20.378L0.555,20.188L0.504,19.997L0.456,19.805L0.41,19.612L0.366,19.418L0.325,19.223L0.287,19.027L0.25,18.831L0.216,18.633L0.184,18.435L0.155,18.236L0.129,18.037L0.104,17.836L0.083,17.635L0.063,17.433L0.047,17.23L0.032,17.027L0.021,16.823L0.012,16.618L0.005,16.413L0.001,16.207L0,16L0.001,15.793L0.005,15.587L0.012,15.382L0.021,15.177L0.032,14.973L0.047,14.77L0.063,14.567L0.083,14.365L0.104,14.164L0.129,13.963L0.155,13.764L0.184,13.565L0.216,13.367L0.25,13.169L0.287,12.973L0.325,12.777L0.366,12.582L0.41,12.388L0.456,12.195L0.504,12.003L0.555,11.812L0.607,11.622L0.662,11.433L0.72,11.244L0.779,11.057L0.841,10.871L0.905,10.685L0.972,10.501L1.04,10.318L1.111,10.136L1.183,9.955L1.258,9.775L1.335,9.596L1.414,9.418L1.496,9.241L1.579,9.066L1.664,8.892L1.751,8.719L1.841,8.547L1.932,8.376L2.026,8.207L2.121,8.039L2.218,7.872L2.318,7.706L2.419,7.542L2.522,7.379L2.627,7.217L2.734,7.057L2.843,6.898L2.954,6.74L3.066,6.584L3.18,6.429L3.296,6.276L3.414,6.124L3.534,5.974L3.656,5.825L3.779,5.678L3.904,5.532L4.03,5.387L4.159,5.244L4.289,5.103L4.42,4.963L4.554,4.825L4.689,4.689L4.825,4.554L4.963,4.42L5.103,4.289L5.244,4.159L5.387,4.03L5.532,3.904L5.678,3.779L5.825,3.656L5.974,3.534L6.124,3.414L6.276,3.296L6.429,3.18L6.584,3.066L6.74,2.954L6.898,2.843L7.057,2.734L7.217,2.627L7.379,2.522L7.542,2.419L7.706,2.318L7.872,2.218L8.039,2.121L8.207,2.026L8.376,1.932L8.547,1.841L8.719,1.751L8.892,1.664L9.066,1.579L9.241,1.496L9.418,1.414L9.596,1.335L9.775,1.258L9.955,1.183L10.136,1.111L10.318,1.04L10.501,0.972L10.685,0.905L10.871,0.841L11.057,0.779L11.244,0.72L11.433,0.662L11.622,0.607L11.812,0.555L12.003,0.504L12.195,0.456L12.388,0.41L12.582,0.366L12.777,0.325L12.973,0.287L13.169,0.25L13.367,0.216L13.565,0.184L13.764,0.155L13.963,0.129L14.164,0.104L14.365,0.083L14.567,0.063L14.77,0.047L14.973,0.032L15.177,0.021L15.382,0.012L15.587,0.005L15.793,0.001L16,0L16.207,0.001ZM15.819,2.001L15.638,2.005L15.458,2.01L15.279,2.018L15.1,2.029L14.922,2.041L14.744,2.056L14.567,2.072L14.391,2.091L14.216,2.113L14.041,2.136L13.867,2.162L13.694,2.189L13.521,2.219L13.35,2.251L13.179,2.285L13.008,2.321L12.839,2.359L12.67,2.399L12.502,2.441L12.335,2.485L12.169,2.531L12.003,2.579L11.839,2.629L11.675,2.682L11.512,2.736L11.35,2.792L11.189,2.849L11.029,2.909L10.87,2.971L10.712,3.035L10.554,3.1L10.398,3.167L10.242,3.237L10.088,3.308L9.935,3.38L9.782,3.455L9.631,3.531L9.48,3.61L9.331,3.69L9.183,3.771L9.036,3.855L8.89,3.94L8.745,4.027L8.601,4.115L8.459,4.206L8.317,4.298L8.177,4.391L8.038,4.486L7.9,4.583L7.763,4.682L7.628,4.782L7.493,4.884L7.36,4.987L7.229,5.092L7.098,5.198L6.969,5.306L6.841,5.415L6.715,5.526L6.59,5.639L6.466,5.752L6.343,5.868L6.222,5.985L6.103,6.103L5.985,6.222L5.868,6.343L5.752,6.466L5.639,6.59L5.526,6.715L5.415,6.841L5.306,6.969L5.198,7.098L5.092,7.229L4.987,7.36L4.884,7.493L4.782,7.628L4.682,7.763L4.583,7.9L4.486,8.038L4.391,8.177L4.298,8.317L4.206,8.459L4.115,8.601L4.027,8.745L3.94,8.89L3.855,9.036L3.771,9.183L3.69,9.331L3.61,9.48L3.531,9.631L3.455,9.782L3.38,9.935L3.308,10.088L3.237,10.242L3.167,10.398L3.1,10.554L3.035,10.712L2.971,10.87L2.909,11.029L2.849,11.189L2.792,11.35L2.736,11.512L2.682,11.675L2.629,11.839L2.579,12.003L2.531,12.169L2.485,12.335L2.441,12.502L2.399,12.67L2.359,12.839L2.321,13.008L2.285,13.179L2.251,13.35L2.219,13.521L2.189,13.694L2.162,13.867L2.136,14.041L2.113,14.216L2.091,14.391L2.072,14.567L2.056,14.744L2.041,14.922L2.029,15.1L2.018,15.279L2.01,15.458L2.005,15.638L2.001,15.819L2,16L2.001,16.181L2.005,16.362L2.01,16.542L2.018,16.721L2.029,16.9L2.041,17.078L2.056,17.256L2.072,17.433L2.091,17.609L2.113,17.784L2.136,17.959L2.162,18.133L2.189,18.306L2.219,18.479L2.251,18.65L2.285,18.821L2.321,18.992L2.359,19.161L2.399,19.33L2.441,19.498L2.485,19.665L2.531,19.831L2.579,19.997L2.629,20.161L2.682,20.325L2.736,20.488L2.792,20.65L2.849,20.811L2.909,20.971L2.971,21.13L3.035,21.288L3.1,21.446L3.167,21.602L3.237,21.758L3.308,21.912L3.38,22.065L3.455,22.218L3.531,22.369L3.61,22.52L3.69,22.669L3.771,22.817L3.855,22.964L3.94,23.11L4.027,23.255L4.115,23.399L4.206,23.541L4.298,23.683L4.391,23.823L4.486,23.962L4.583,24.1L4.682,24.237L4.782,24.372L4.884,24.507L4.987,24.64L5.092,24.771L5.198,24.902L5.306,25.031L5.415,25.159L5.526,25.285L5.639,25.41L5.752,25.534L5.868,25.657L5.985,25.778L6.103,25.897L6.222,26.015L6.343,26.132L6.466,26.248L6.59,26.361L6.715,26.474L6.841,26.585L6.969,26.694L7.098,26.802L7.229,26.908L7.36,27.013L7.493,27.116L7.628,27.218L7.763,27.318L7.9,27.417L8.038,27.514L8.177,27.609L8.317,27.702L8.459,27.794L8.601,27.885L8.745,27.973L8.89,28.06L9.036,28.145L9.183,28.229L9.331,28.31L9.48,28.39L9.631,28.469L9.782,28.545L9.935,28.62L10.088,28.692L10.242,28.763L10.398,28.833L10.554,28.9L10.712,28.965L10.87,29.029L11.029,29.091L11.189,29.151L11.35,29.208L11.512,29.264L11.675,29.318L11.839,29.371L12.003,29.421L12.169,29.469L12.335,29.515L12.502,29.559L12.67,29.601L12.839,29.641L13.008,29.679L13.179,29.715L13.35,29.749L13.521,29.781L13.694,29.811L13.867,29.838L14.041,29.864L14.216,29.887L14.391,29.909L14.567,29.928L14.744,29.944L14.922,29.959L15.1,29.971L15.279,29.982L15.458,29.99L15.638,29.995L15.819,29.999L16,30L16.181,29.999L16.362,29.995L16.542,29.99L16.721,29.982L16.9,29.971L17.078,29.959L17.256,29.944L17.433,29.928L17.609,29.909L17.784,29.887L17.959,29.864L18.133,29.838L18.306,29.811L18.479,29.781L18.65,29.749L18.821,29.715L18.992,29.679L19.161,29.641L19.33,29.601L19.498,29.559L19.665,29.515L19.831,29.469L19.997,29.421L20.161,29.371L20.325,29.318L20.488,29.264L20.65,29.208L20.811,29.151L20.971,29.091L21.13,29.029L21.288,28.965L21.446,28.9L21.602,28.833L21.758,28.763L21.912,28.692L22.065,28.62L22.218,28.545L22.369,28.469L22.52,28.39L22.669,28.31L22.817,28.229L22.964,28.145L23.11,28.06L23.255,27.973L23.399,27.885L23.541,27.794L23.683,27.702L23.823,27.609L23.962,27.514L24.1,27.417L24.237,27.318L24.372,27.218L24.507,27.116L24.64,27.013L24.771,26.908L24.902,26.802L25.031,26.694L25.159,26.585L25.285,26.474L25.41,26.361L25.534,26.248L25.657,26.132L25.778,26.015L25.897,25.897L26.015,25.778L26.132,25.657L26.248,25.534L26.361,25.41L26.474,25.285L26.585,25.159L26.694,25.031L26.802,24.902L26.908,24.771L27.013,24.64L27.116,24.507L27.218,24.372L27.318,24.237L27.417,24.1L27.514,23.962L27.609,23.823L27.702,23.683L27.794,23.541L27.885,23.399L27.973,23.255L28.06,23.11L28.145,22.964L28.229,22.817L28.31,22.669L28.39,22.52L28.469,22.369L28.545,22.218L28.62,22.065L28.692,21.912L28.763,21.758L28.833,21.602L28.9,21.446L28.965,21.288L29.029,21.13L29.091,20.971L29.151,20.811L29.208,20.65L29.264,20.488L29.318,20.325L29.371,20.161L29.421,19.997L29.469,19.831L29.515,19.665L29.559,19.498L29.601,19.33L29.641,19.161L29.679,18.992L29.715,18.821L29.749,18.65L29.781,18.479L29.811,18.306L29.838,18.133L29.864,17.959L29.887,17.784L29.909,17.609L29.928,17.433L29.944,17.256L29.959,17.078L29.971,16.9L29.982,16.721L29.99,16.542L29.995,16.362L29.999,16.181L30,16L29.999,15.819L29.995,15.638L29.99,15.458L29.982,15.279L29.971,15.1L29.959,14.922L29.944,14.744L29.928,14.567L29.909,14.391L29.887,14.216L29.864,14.041L29.838,13.867L29.811,13.694L29.781,13.521L29.749,13.35L29.715,13.179L29.679,13.008L29.641,12.839L29.601,12.67L29.559,12.502L29.515,12.335L29.469,12.169L29.421,12.003L29.371,11.839L29.318,11.675L29.264,11.512L29.208,11.35L29.151,11.189L29.091,11.029L29.029,10.87L28.965,10.712L28.9,10.554L28.833,10.398L28.763,10.242L28.692,10.088L28.62,9.935L28.545,9.782L28.469,9.631L28.39,9.48L28.31,9.331L28.229,9.183L28.145,9.036L28.06,8.89L27.973,8.745L27.885,8.601L27.794,8.459L27.702,8.317L27.609,8.177L27.514,8.038L27.417,7.9L27.318,7.763L27.218,7.628L27.116,7.493L27.013,7.36L26.908,7.229L26.802,7.098L26.694,6.969L26.585,6.841L26.474,6.715L26.361,6.59L26.248,6.466L26.132,6.343L26.015,6.222L25.897,6.103L25.778,5.985L25.657,5.868L25.534,5.752L25.41,5.639L25.285,5.526L25.159,5.415L25.031,5.306L24.902,5.198L24.771,5.092L24.64,4.987L24.507,4.884L24.372,4.782L24.237,4.682L24.1,4.583L23.962,4.486L23.823,4.391L23.683,4.298L23.541,4.206L23.399,4.115L23.255,4.027L23.11,3.94L22.964,3.855L22.817,3.771L22.669,3.69L22.52,3.61L22.369,3.531L22.218,3.455L22.065,3.38L21.912,3.308L21.758,3.237L21.602,3.167L21.446,3.1L21.288,3.035L21.13,2.971L20.971,2.909L20.811,2.849L20.65,2.792L20.488,2.736L20.325,2.682L20.161,2.629L19.997,2.579L19.831,2.531L19.665,2.485L19.498,2.441L19.33,2.399L19.161,2.359L18.992,2.321L18.821,2.285L18.65,2.251L18.479,2.219L18.306,2.189L18.133,2.162L17.959,2.136L17.784,2.113L17.609,2.091L17.433,2.072L17.256,2.056L17.078,2.041L16.9,2.029L16.721,2.018L16.542,2.01L16.362,2.005L16.181,2.001L16,2L15.819,2.001Z"/>
        <clipPath id="_clip1">
            <path d="M16,25L24,25L24,17L8,17L8,25L16,25Z"/>
        </clipPath>
        <g clip-path="url(#_clip1)">
            <path d="M16.103,17.001L16.206,17.003L16.309,17.006L16.411,17.01L16.513,17.016L16.615,17.023L16.716,17.032L16.817,17.041L16.918,17.052L17.018,17.064L17.118,17.078L17.218,17.092L17.317,17.108L17.415,17.125L17.514,17.143L17.611,17.163L17.709,17.183L17.806,17.205L17.902,17.228L17.998,17.252L18.094,17.277L18.189,17.304L18.284,17.331L18.378,17.36L18.472,17.39L18.565,17.421L18.657,17.453L18.749,17.486L18.841,17.52L18.932,17.555L19.023,17.592L19.113,17.629L19.202,17.668L19.291,17.707L19.379,17.748L19.467,17.789L19.554,17.832L19.641,17.876L19.727,17.92L19.812,17.966L19.897,18.013L19.981,18.061L20.064,18.109L20.147,18.159L20.229,18.209L20.311,18.261L20.391,18.314L20.472,18.367L20.551,18.421L20.63,18.477L20.708,18.533L20.785,18.59L20.862,18.648L20.938,18.707L21.013,18.767L21.088,18.828L21.161,18.889L21.234,18.952L21.306,19.015L21.378,19.079L21.449,19.144L21.518,19.21L21.587,19.277L21.656,19.344L21.723,19.413L21.79,19.482L21.856,19.551L21.921,19.622L21.985,19.694L22.048,19.766L22.111,19.839L22.172,19.912L22.233,19.987L22.293,20.062L22.352,20.138L22.41,20.215L22.467,20.292L22.523,20.37L22.579,20.449L22.633,20.528L22.686,20.609L22.739,20.689L22.791,20.771L22.841,20.853L22.891,20.936L22.939,21.019L22.987,21.103L23.034,21.188L23.08,21.273L23.124,21.359L23.168,21.446L23.211,21.533L23.252,21.621L23.293,21.709L23.332,21.798L23.371,21.887L23.408,21.977L23.445,22.068L23.48,22.159L23.514,22.251L23.547,22.343L23.579,22.435L23.61,22.528L23.64,22.622L23.669,22.716L23.696,22.811L23.723,22.906L23.748,23.002L23.772,23.098L23.795,23.194L23.817,23.291L23.837,23.389L23.857,23.486L23.875,23.585L23.892,23.683L23.908,23.782L23.922,23.882L23.936,23.982L23.948,24.082L23.959,24.183L23.968,24.284L23.977,24.385L23.984,24.487L23.99,24.589L23.994,24.691L23.997,24.794L23.999,24.897L24,25L23.999,25.103L23.997,25.206L23.994,25.309L23.99,25.411L23.984,25.513L23.977,25.615L23.968,25.716L23.959,25.817L23.948,25.918L23.936,26.018L23.922,26.118L23.908,26.218L23.892,26.317L23.875,26.415L23.857,26.514L23.837,26.611L23.817,26.709L23.795,26.806L23.772,26.902L23.748,26.998L23.723,27.094L23.696,27.189L23.669,27.284L23.64,27.378L23.61,27.472L23.579,27.565L23.547,27.657L23.514,27.749L23.48,27.841L23.445,27.932L23.408,28.023L23.371,28.113L23.332,28.202L23.293,28.291L23.252,28.379L23.211,28.467L23.168,28.554L23.124,28.641L23.08,28.727L23.034,28.812L22.987,28.897L22.939,28.981L22.891,29.064L22.841,29.147L22.791,29.229L22.739,29.311L22.686,29.391L22.633,29.472L22.579,29.551L22.523,29.63L22.467,29.708L22.41,29.785L22.352,29.862L22.293,29.938L22.233,30.013L22.172,30.088L22.111,30.161L22.048,30.234L21.985,30.306L21.921,30.378L21.856,30.449L21.79,30.518L21.723,30.587L21.656,30.656L21.587,30.723L21.518,30.79L21.449,30.856L21.378,30.921L21.306,30.985L21.234,31.048L21.161,31.111L21.088,31.172L21.013,31.233L20.938,31.293L20.862,31.352L20.785,31.41L20.708,31.467L20.63,31.523L20.551,31.579L20.472,31.633L20.391,31.686L20.311,31.739L20.229,31.791L20.147,31.841L20.064,31.891L19.981,31.939L19.897,31.987L19.812,32.034L19.727,32.08L19.641,32.124L19.554,32.168L19.467,32.211L19.379,32.252L19.291,32.293L19.202,32.332L19.113,32.371L19.023,32.408L18.932,32.445L18.841,32.48L18.749,32.514L18.657,32.547L18.565,32.579L18.472,32.61L18.378,32.64L18.284,32.669L18.189,32.696L18.094,32.723L17.998,32.748L17.902,32.772L17.806,32.795L17.709,32.817L17.611,32.837L17.514,32.857L17.415,32.875L17.317,32.892L17.218,32.908L17.118,32.922L17.018,32.936L16.918,32.948L16.817,32.959L16.716,32.968L16.615,32.977L16.513,32.984L16.411,32.99L16.309,32.994L16.206,32.997L16.103,32.999L16,33L15.897,32.999L15.794,32.997L15.691,32.994L15.589,32.99L15.487,32.984L15.385,32.977L15.284,32.968L15.183,32.959L15.082,32.948L14.982,32.936L14.882,32.922L14.782,32.908L14.683,32.892L14.585,32.875L14.486,32.857L14.389,32.837L14.291,32.817L14.194,32.795L14.098,32.772L14.002,32.748L13.906,32.723L13.811,32.696L13.716,32.669L13.622,32.64L13.528,32.61L13.435,32.579L13.343,32.547L13.251,32.514L13.159,32.48L13.068,32.445L12.977,32.408L12.887,32.371L12.798,32.332L12.709,32.293L12.621,32.252L12.533,32.211L12.446,32.168L12.359,32.124L12.273,32.08L12.188,32.034L12.103,31.987L12.019,31.939L11.936,31.891L11.853,31.841L11.771,31.791L11.689,31.739L11.609,31.686L11.528,31.633L11.449,31.579L11.37,31.523L11.292,31.467L11.215,31.41L11.138,31.352L11.062,31.293L10.987,31.233L10.912,31.172L10.839,31.111L10.766,31.048L10.694,30.985L10.622,30.921L10.551,30.856L10.482,30.79L10.413,30.723L10.344,30.656L10.277,30.587L10.21,30.518L10.144,30.449L10.079,30.378L10.015,30.306L9.952,30.234L9.889,30.161L9.828,30.088L9.767,30.013L9.707,29.938L9.648,29.862L9.59,29.785L9.533,29.708L9.477,29.63L9.421,29.551L9.367,29.472L9.314,29.391L9.261,29.311L9.209,29.229L9.159,29.147L9.109,29.064L9.061,28.981L9.013,28.897L8.966,28.812L8.92,28.727L8.876,28.641L8.832,28.554L8.789,28.467L8.748,28.379L8.707,28.291L8.668,28.202L8.629,28.113L8.592,28.023L8.555,27.932L8.52,27.841L8.486,27.749L8.453,27.657L8.421,27.565L8.39,27.472L8.36,27.378L8.331,27.284L8.304,27.189L8.277,27.094L8.252,26.998L8.228,26.902L8.205,26.806L8.183,26.709L8.163,26.611L8.143,26.514L8.125,26.415L8.108,26.317L8.092,26.218L8.078,26.118L8.064,26.018L8.052,25.918L8.041,25.817L8.032,25.716L8.023,25.615L8.016,25.513L8.01,25.411L8.006,25.309L8.003,25.206L8.001,25.103L8,25L8.001,24.897L8.003,24.794L8.006,24.691L8.01,24.589L8.016,24.487L8.023,24.385L8.032,24.284L8.041,24.183L8.052,24.082L8.064,23.982L8.078,23.882L8.092,23.782L8.108,23.683L8.125,23.585L8.143,23.486L8.163,23.389L8.183,23.291L8.205,23.194L8.228,23.098L8.252,23.002L8.277,22.906L8.304,22.811L8.331,22.716L8.36,22.622L8.39,22.528L8.421,22.435L8.453,22.343L8.486,22.251L8.52,22.159L8.555,22.068L8.592,21.977L8.629,21.887L8.668,21.798L8.707,21.709L8.748,21.621L8.789,21.533L8.832,21.446L8.876,21.359L8.92,21.273L8.966,21.188L9.013,21.103L9.061,21.019L9.109,20.936L9.159,20.853L9.209,20.771L9.261,20.689L9.314,20.609L9.367,20.528L9.421,20.449L9.477,20.37L9.533,20.292L9.59,20.215L9.648,20.138L9.707,20.062L9.767,19.987L9.828,19.912L9.889,19.839L9.952,19.766L10.015,19.694L10.079,19.622L10.144,19.551L10.21,19.482L10.277,19.413L10.344,19.344L10.413,19.277L10.482,19.21L10.551,19.144L10.622,19.079L10.694,19.015L10.766,18.952L10.839,18.889L10.912,18.828L10.987,18.767L11.062,18.707L11.138,18.648L11.215,18.59L11.292,18.533L11.37,18.477L11.449,18.421L11.528,18.367L11.609,18.314L11.689,18.261L11.771,18.209L11.853,18.159L11.936,18.109L12.019,18.061L12.103,18.013L12.188,17.966L12.273,17.92L12.359,17.876L12.446,17.832L12.533,17.789L12.621,17.748L12.709,17.707L12.798,17.668L12.887,17.629L12.977,17.592L13.068,17.555L13.159,17.52L13.251,17.486L13.343,17.453L13.435,17.421L13.528,17.39L13.622,17.36L13.716,17.331L13.811,17.304L13.906,17.277L14.002,17.252L14.098,17.228L14.194,17.205L14.291,17.183L14.389,17.163L14.486,17.143L14.585,17.125L14.683,17.108L14.782,17.092L14.882,17.078L14.982,17.064L15.082,17.052L15.183,17.041L15.284,17.032L15.385,17.023L15.487,17.016L15.589,17.01L15.691,17.006L15.794,17.003L15.897,17.001L16,17L16.103,17.001ZM15.922,19.001L15.844,19.002L15.767,19.004L15.69,19.008L15.613,19.012L15.537,19.018L15.461,19.024L15.385,19.031L15.309,19.039L15.234,19.048L15.159,19.058L15.085,19.069L15.011,19.081L14.937,19.094L14.863,19.107L14.79,19.122L14.717,19.137L14.645,19.154L14.572,19.171L14.5,19.189L14.429,19.208L14.358,19.228L14.287,19.248L14.217,19.27L14.147,19.292L14.077,19.315L14.008,19.339L13.939,19.364L13.87,19.389L13.802,19.416L13.734,19.443L13.667,19.471L13.6,19.5L13.533,19.529L13.467,19.56L13.402,19.591L13.336,19.623L13.271,19.656L13.207,19.689L13.143,19.723L13.08,19.758L13.017,19.794L12.954,19.831L12.892,19.868L12.83,19.906L12.769,19.945L12.708,19.984L12.648,20.024L12.589,20.065L12.53,20.107L12.471,20.149L12.413,20.192L12.355,20.235L12.298,20.28L12.242,20.325L12.186,20.37L12.13,20.417L12.075,20.463L12.021,20.511L11.967,20.559L11.914,20.608L11.862,20.658L11.81,20.708L11.758,20.758L11.708,20.81L11.658,20.862L11.608,20.914L11.559,20.967L11.511,21.021L11.463,21.075L11.417,21.13L11.37,21.186L11.325,21.242L11.28,21.298L11.235,21.355L11.192,21.413L11.149,21.471L11.107,21.53L11.065,21.589L11.024,21.648L10.984,21.708L10.945,21.769L10.906,21.83L10.868,21.892L10.831,21.954L10.794,22.017L10.758,22.08L10.723,22.143L10.689,22.207L10.656,22.271L10.623,22.336L10.591,22.402L10.56,22.467L10.529,22.533L10.5,22.6L10.471,22.667L10.443,22.734L10.416,22.802L10.389,22.87L10.364,22.939L10.339,23.008L10.315,23.077L10.292,23.147L10.27,23.217L10.248,23.287L10.228,23.358L10.208,23.429L10.189,23.5L10.171,23.572L10.154,23.645L10.137,23.717L10.122,23.79L10.107,23.863L10.094,23.937L10.081,24.011L10.069,24.085L10.058,24.159L10.048,24.234L10.039,24.309L10.031,24.385L10.024,24.461L10.018,24.537L10.012,24.613L10.008,24.69L10.004,24.767L10.002,24.844L10.001,24.922L10,25L10.001,25.078L10.002,25.156L10.004,25.233L10.008,25.31L10.012,25.387L10.018,25.463L10.024,25.539L10.031,25.615L10.039,25.691L10.048,25.766L10.058,25.841L10.069,25.915L10.081,25.989L10.094,26.063L10.107,26.137L10.122,26.21L10.137,26.283L10.154,26.355L10.171,26.428L10.189,26.5L10.208,26.571L10.228,26.642L10.248,26.713L10.27,26.783L10.292,26.853L10.315,26.923L10.339,26.992L10.364,27.061L10.389,27.13L10.416,27.198L10.443,27.266L10.471,27.333L10.5,27.4L10.529,27.467L10.56,27.533L10.591,27.598L10.623,27.664L10.656,27.729L10.689,27.793L10.723,27.857L10.758,27.92L10.794,27.983L10.831,28.046L10.868,28.108L10.906,28.17L10.945,28.231L10.984,28.292L11.024,28.352L11.065,28.411L11.107,28.47L11.149,28.529L11.192,28.587L11.235,28.645L11.28,28.702L11.325,28.758L11.37,28.814L11.417,28.87L11.463,28.925L11.511,28.979L11.559,29.033L11.608,29.086L11.658,29.138L11.708,29.19L11.758,29.242L11.81,29.292L11.862,29.342L11.914,29.392L11.967,29.441L12.021,29.489L12.075,29.537L12.13,29.583L12.186,29.63L12.242,29.675L12.298,29.72L12.355,29.765L12.413,29.808L12.471,29.851L12.53,29.893L12.589,29.935L12.648,29.976L12.708,30.016L12.769,30.055L12.83,30.094L12.892,30.132L12.954,30.169L13.017,30.206L13.08,30.242L13.143,30.277L13.207,30.311L13.271,30.344L13.336,30.377L13.402,30.409L13.467,30.44L13.533,30.471L13.6,30.5L13.667,30.529L13.734,30.557L13.802,30.584L13.87,30.611L13.939,30.636L14.008,30.661L14.077,30.685L14.147,30.708L14.217,30.73L14.287,30.752L14.358,30.772L14.429,30.792L14.5,30.811L14.572,30.829L14.645,30.846L14.717,30.863L14.79,30.878L14.863,30.893L14.937,30.906L15.011,30.919L15.085,30.931L15.159,30.942L15.234,30.952L15.309,30.961L15.385,30.969L15.461,30.976L15.537,30.982L15.613,30.988L15.69,30.992L15.767,30.996L15.844,30.998L15.922,30.999L16,31L16.078,30.999L16.156,30.998L16.233,30.996L16.31,30.992L16.387,30.988L16.463,30.982L16.539,30.976L16.615,30.969L16.691,30.961L16.766,30.952L16.841,30.942L16.915,30.931L16.989,30.919L17.063,30.906L17.137,30.893L17.21,30.878L17.283,30.863L17.355,30.846L17.428,30.829L17.5,30.811L17.571,30.792L17.642,30.772L17.713,30.752L17.783,30.73L17.853,30.708L17.923,30.685L17.992,30.661L18.061,30.636L18.13,30.611L18.198,30.584L18.266,30.557L18.333,30.529L18.4,30.5L18.467,30.471L18.533,30.44L18.598,30.409L18.664,30.377L18.729,30.344L18.793,30.311L18.857,30.277L18.92,30.242L18.983,30.206L19.046,30.169L19.108,30.132L19.17,30.094L19.231,30.055L19.292,30.016L19.352,29.976L19.411,29.935L19.47,29.893L19.529,29.851L19.587,29.808L19.645,29.765L19.702,29.72L19.758,29.675L19.814,29.63L19.87,29.583L19.925,29.537L19.979,29.489L20.033,29.441L20.086,29.392L20.138,29.342L20.19,29.292L20.242,29.242L20.292,29.19L20.342,29.138L20.392,29.086L20.441,29.033L20.489,28.979L20.537,28.925L20.583,28.87L20.63,28.814L20.675,28.758L20.72,28.702L20.765,28.645L20.808,28.587L20.851,28.529L20.893,28.47L20.935,28.411L20.976,28.352L21.016,28.292L21.055,28.231L21.094,28.17L21.132,28.108L21.169,28.046L21.206,27.983L21.242,27.92L21.277,27.857L21.311,27.793L21.344,27.729L21.377,27.664L21.409,27.598L21.44,27.533L21.471,27.467L21.5,27.4L21.529,27.333L21.557,27.266L21.584,27.198L21.611,27.13L21.636,27.061L21.661,26.992L21.685,26.923L21.708,26.853L21.73,26.783L21.752,26.713L21.772,26.642L21.792,26.571L21.811,26.5L21.829,26.428L21.846,26.355L21.863,26.283L21.878,26.21L21.893,26.137L21.906,26.063L21.919,25.989L21.931,25.915L21.942,25.841L21.952,25.766L21.961,25.691L21.969,25.615L21.976,25.539L21.982,25.463L21.988,25.387L21.992,25.31L21.996,25.233L21.998,25.156L21.999,25.078L22,25L21.999,24.922L21.998,24.844L21.996,24.767L21.992,24.69L21.988,24.613L21.982,24.537L21.976,24.461L21.969,24.385L21.961,24.309L21.952,24.234L21.942,24.159L21.931,24.085L21.919,24.011L21.906,23.937L21.893,23.863L21.878,23.79L21.863,23.717L21.846,23.645L21.829,23.572L21.811,23.5L21.792,23.429L21.772,23.358L21.752,23.287L21.73,23.217L21.708,23.147L21.685,23.077L21.661,23.008L21.636,22.939L21.611,22.87L21.584,22.802L21.557,22.734L21.529,22.667L21.5,22.6L21.471,22.533L21.44,22.467L21.409,22.402L21.377,22.336L21.344,22.271L21.311,22.207L21.277,22.143L21.242,22.08L21.206,22.017L21.169,21.954L21.132,21.892L21.094,21.83L21.055,21.769L21.016,21.708L20.976,21.648L20.935,21.589L20.893,21.53L20.851,21.471L20.808,21.413L20.765,21.355L20.72,21.298L20.675,21.242L20.63,21.186L20.583,21.13L20.537,21.075L20.489,21.021L20.441,20.967L20.392,20.914L20.342,20.862L20.292,20.81L20.242,20.758L20.19,20.708L20.138,20.658L20.086,20.608L20.033,20.559L19.979,20.511L19.925,20.463L19.87,20.417L19.814,20.37L19.758,20.325L19.702,20.28L19.645,20.235L19.587,20.192L19.529,20.149L19.47,20.107L19.411,20.065L19.352,20.024L19.292,19.984L19.231,19.945L19.17,19.906L19.108,19.868L19.046,19.831L18.983,19.794L18.92,19.758L18.857,19.723L18.793,19.689L18.729,19.656L18.664,19.623L18.598,19.591L18.533,19.56L18.467,19.529L18.4,19.5L18.333,19.471L18.266,19.443L18.198,19.416L18.13,19.389L18.061,19.364L17.992,19.339L17.923,19.315L17.853,19.292L17.783,19.27L17.713,19.248L17.642,19.228L17.571,19.208L17.5,19.189L17.428,19.171L17.355,19.154L17.283,19.137L17.21,19.122L17.137,19.107L17.063,19.094L16.989,19.081L16.915,19.069L16.841,19.058L16.766,19.048L16.691,19.039L16.615,19.031L16.539,19.024L16.463,19.018L16.387,19.012L16.31,19.008L16.233,19.004L16.156,19.002L16.078,19.001L16,19L15.922,19.001Z"/>
        </g>
        <path d="M9.539,10L9.577,10.002L9.615,10.004L9.653,10.008L9.691,10.012L9.728,10.017L9.765,10.023L9.802,10.03L9.839,10.038L9.875,10.047L9.91,10.057L9.946,10.067L9.981,10.079L10.016,10.091L10.05,10.104L10.084,10.118L10.117,10.133L10.15,10.148L10.183,10.164L10.215,10.181L10.246,10.199L10.278,10.217L10.308,10.236L10.338,10.256L10.368,10.277L10.397,10.298L10.426,10.32L10.454,10.343L10.481,10.366L10.508,10.39L10.535,10.414L10.56,10.44L10.586,10.465L10.61,10.492L10.634,10.519L10.657,10.546L10.68,10.574L10.702,10.603L10.723,10.632L10.744,10.662L10.764,10.692L10.783,10.722L10.801,10.754L10.819,10.785L10.836,10.817L10.852,10.85L10.867,10.883L10.882,10.916L10.896,10.95L10.909,10.984L10.921,11.019L10.933,11.054L10.943,11.09L10.953,11.125L10.962,11.161L10.97,11.198L10.977,11.235L10.983,11.272L10.988,11.309L10.992,11.347L10.996,11.385L10.998,11.423L11,11.461L11,11.5L11,11.539L10.998,11.577L10.996,11.615L10.992,11.653L10.988,11.691L10.983,11.728L10.977,11.765L10.97,11.802L10.962,11.839L10.953,11.875L10.943,11.91L10.933,11.946L10.921,11.981L10.909,12.016L10.896,12.05L10.882,12.084L10.867,12.117L10.852,12.15L10.836,12.183L10.819,12.215L10.801,12.246L10.783,12.278L10.764,12.308L10.744,12.338L10.723,12.368L10.702,12.397L10.68,12.426L10.657,12.454L10.634,12.481L10.61,12.508L10.586,12.535L10.56,12.56L10.535,12.586L10.508,12.61L10.481,12.634L10.454,12.657L10.426,12.68L10.397,12.702L10.368,12.723L10.338,12.744L10.308,12.764L10.278,12.783L10.246,12.801L10.215,12.819L10.183,12.836L10.15,12.852L10.117,12.867L10.084,12.882L10.05,12.896L10.016,12.909L9.981,12.921L9.946,12.933L9.91,12.943L9.875,12.953L9.839,12.962L9.802,12.97L9.765,12.977L9.728,12.983L9.691,12.988L9.653,12.992L9.615,12.996L9.577,12.998L9.539,13L9.5,13L9.461,13L9.423,12.998L9.385,12.996L9.347,12.992L9.309,12.988L9.272,12.983L9.235,12.977L9.198,12.97L9.161,12.962L9.125,12.953L9.09,12.943L9.054,12.933L9.019,12.921L8.984,12.909L8.95,12.896L8.916,12.882L8.883,12.867L8.85,12.852L8.817,12.836L8.785,12.819L8.754,12.801L8.722,12.783L8.692,12.764L8.662,12.744L8.632,12.723L8.603,12.702L8.574,12.68L8.546,12.657L8.519,12.634L8.492,12.61L8.465,12.586L8.44,12.56L8.414,12.535L8.39,12.508L8.366,12.481L8.343,12.454L8.32,12.426L8.298,12.397L8.277,12.368L8.256,12.338L8.236,12.308L8.217,12.278L8.199,12.246L8.181,12.215L8.164,12.183L8.148,12.15L8.133,12.117L8.118,12.084L8.104,12.05L8.091,12.016L8.079,11.981L8.067,11.946L8.057,11.91L8.047,11.875L8.038,11.839L8.03,11.802L8.023,11.765L8.017,11.728L8.012,11.691L8.008,11.653L8.004,11.615L8.002,11.577L8,11.539L8,11.5L8,11.461L8.002,11.423L8.004,11.385L8.008,11.347L8.012,11.309L8.017,11.272L8.023,11.235L8.03,11.198L8.038,11.161L8.047,11.125L8.057,11.09L8.067,11.054L8.079,11.019L8.091,10.984L8.104,10.95L8.118,10.916L8.133,10.883L8.148,10.85L8.164,10.817L8.181,10.785L8.199,10.754L8.217,10.722L8.236,10.692L8.256,10.662L8.277,10.632L8.298,10.603L8.32,10.574L8.343,10.546L8.366,10.519L8.39,10.492L8.414,10.465L8.44,10.44L8.465,10.414L8.492,10.39L8.519,10.366L8.546,10.343L8.574,10.32L8.603,10.298L8.632,10.277L8.662,10.256L8.692,10.236L8.722,10.217L8.754,10.199L8.785,10.181L8.817,10.164L8.85,10.148L8.883,10.133L8.916,10.118L8.95,10.104L8.984,10.091L9.019,10.079L9.054,10.067L9.09,10.057L9.125,10.047L9.161,10.038L9.198,10.03L9.235,10.023L9.272,10.017L9.309,10.012L9.347,10.008L9.385,10.004L9.423,10.002L9.461,10L9.5,10L9.539,10ZM9.488,11L9.476,11L9.463,11.001L9.451,11.002L9.438,11.004L9.426,11.006L9.413,11.008L9.401,11.01L9.388,11.013L9.376,11.016L9.364,11.019L9.351,11.023L9.339,11.027L9.327,11.031L9.316,11.035L9.304,11.04L9.293,11.045L9.281,11.05L9.27,11.056L9.26,11.061L9.249,11.067L9.239,11.074L9.228,11.08L9.218,11.086L9.209,11.093L9.199,11.1L9.19,11.107L9.181,11.115L9.172,11.122L9.163,11.13L9.154,11.138L9.146,11.146L9.138,11.154L9.13,11.163L9.122,11.172L9.115,11.181L9.107,11.19L9.1,11.199L9.093,11.209L9.086,11.218L9.08,11.228L9.074,11.239L9.067,11.249L9.061,11.26L9.056,11.27L9.05,11.281L9.045,11.293L9.04,11.304L9.035,11.316L9.031,11.327L9.027,11.339L9.023,11.351L9.019,11.364L9.016,11.376L9.013,11.388L9.01,11.401L9.008,11.413L9.006,11.426L9.004,11.438L9.002,11.451L9.001,11.463L9,11.476L9,11.488L9,11.5L9,11.512L9,11.524L9.001,11.537L9.002,11.549L9.004,11.562L9.006,11.574L9.008,11.587L9.01,11.599L9.013,11.612L9.016,11.624L9.019,11.636L9.023,11.649L9.027,11.661L9.031,11.673L9.035,11.684L9.04,11.696L9.045,11.707L9.05,11.719L9.056,11.73L9.061,11.74L9.067,11.751L9.074,11.761L9.08,11.772L9.086,11.782L9.093,11.791L9.1,11.801L9.107,11.81L9.115,11.819L9.122,11.828L9.13,11.837L9.138,11.846L9.146,11.854L9.154,11.862L9.163,11.87L9.172,11.878L9.181,11.885L9.19,11.893L9.199,11.9L9.209,11.907L9.218,11.914L9.228,11.92L9.239,11.926L9.249,11.933L9.26,11.939L9.27,11.944L9.281,11.95L9.293,11.955L9.304,11.96L9.316,11.965L9.327,11.969L9.339,11.973L9.351,11.977L9.364,11.981L9.376,11.984L9.388,11.987L9.401,11.99L9.413,11.992L9.426,11.994L9.438,11.996L9.451,11.998L9.463,11.999L9.476,12L9.488,12L9.5,12L9.512,12L9.524,12L9.537,11.999L9.549,11.998L9.562,11.996L9.574,11.994L9.587,11.992L9.599,11.99L9.612,11.987L9.624,11.984L9.636,11.981L9.649,11.977L9.661,11.973L9.673,11.969L9.684,11.965L9.696,11.96L9.707,11.955L9.719,11.95L9.73,11.944L9.74,11.939L9.751,11.933L9.761,11.926L9.772,11.92L9.782,11.914L9.791,11.907L9.801,11.9L9.81,11.893L9.819,11.885L9.828,11.878L9.837,11.87L9.846,11.862L9.854,11.854L9.862,11.846L9.87,11.837L9.878,11.828L9.885,11.819L9.893,11.81L9.9,11.801L9.907,11.791L9.914,11.782L9.92,11.772L9.926,11.761L9.933,11.751L9.939,11.74L9.944,11.73L9.95,11.719L9.955,11.707L9.96,11.696L9.965,11.684L9.969,11.673L9.973,11.661L9.977,11.649L9.981,11.636L9.984,11.624L9.987,11.612L9.99,11.599L9.992,11.587L9.994,11.574L9.996,11.562L9.998,11.549L9.999,11.537L10,11.524L10,11.512L10,11.5L10,11.488L10,11.476L9.999,11.463L9.998,11.451L9.996,11.438L9.994,11.426L9.992,11.413L9.99,11.401L9.987,11.388L9.984,11.376L9.981,11.364L9.977,11.351L9.973,11.339L9.969,11.327L9.965,11.316L9.96,11.304L9.955,11.293L9.95,11.281L9.944,11.27L9.939,11.26L9.933,11.249L9.926,11.239L9.92,11.228L9.914,11.218L9.907,11.209L9.9,11.199L9.893,11.19L9.885,11.181L9.878,11.172L9.87,11.163L9.862,11.154L9.854,11.146L9.846,11.138L9.837,11.13L9.828,11.122L9.819,11.115L9.81,11.107L9.801,11.1L9.791,11.093L9.782,11.086L9.772,11.08L9.761,11.074L9.751,11.067L9.74,11.061L9.73,11.056L9.719,11.05L9.707,11.045L9.696,11.04L9.684,11.035L9.673,11.031L9.661,11.027L9.649,11.023L9.636,11.019L9.624,11.016L9.612,11.013L9.599,11.01L9.587,11.008L9.574,11.006L9.562,11.004L9.549,11.002L9.537,11.001L9.524,11L9.512,11L9.5,11L9.488,11Z"/>
        <path d="M22.539,10L22.577,10.002L22.615,10.004L22.653,10.008L22.691,10.012L22.728,10.017L22.765,10.023L22.802,10.03L22.839,10.038L22.875,10.047L22.91,10.057L22.946,10.067L22.981,10.079L23.016,10.091L23.05,10.104L23.084,10.118L23.117,10.133L23.15,10.148L23.183,10.164L23.215,10.181L23.246,10.199L23.278,10.217L23.308,10.236L23.338,10.256L23.368,10.277L23.397,10.298L23.426,10.32L23.454,10.343L23.481,10.366L23.508,10.39L23.535,10.414L23.56,10.44L23.586,10.465L23.61,10.492L23.634,10.519L23.657,10.546L23.68,10.574L23.702,10.603L23.723,10.632L23.744,10.662L23.764,10.692L23.783,10.722L23.801,10.754L23.819,10.785L23.836,10.817L23.852,10.85L23.867,10.883L23.882,10.916L23.896,10.95L23.909,10.984L23.921,11.019L23.933,11.054L23.943,11.09L23.953,11.125L23.962,11.161L23.97,11.198L23.977,11.235L23.983,11.272L23.988,11.309L23.992,11.347L23.996,11.385L23.998,11.423L24,11.461L24,11.5L24,11.539L23.998,11.577L23.996,11.615L23.992,11.653L23.988,11.691L23.983,11.728L23.977,11.765L23.97,11.802L23.962,11.839L23.953,11.875L23.943,11.91L23.933,11.946L23.921,11.981L23.909,12.016L23.896,12.05L23.882,12.084L23.867,12.117L23.852,12.15L23.836,12.183L23.819,12.215L23.801,12.246L23.783,12.278L23.764,12.308L23.744,12.338L23.723,12.368L23.702,12.397L23.68,12.426L23.657,12.454L23.634,12.481L23.61,12.508L23.586,12.535L23.56,12.56L23.535,12.586L23.508,12.61L23.481,12.634L23.454,12.657L23.426,12.68L23.397,12.702L23.368,12.723L23.338,12.744L23.308,12.764L23.278,12.783L23.246,12.801L23.215,12.819L23.183,12.836L23.15,12.852L23.117,12.867L23.084,12.882L23.05,12.896L23.016,12.909L22.981,12.921L22.946,12.933L22.91,12.943L22.875,12.953L22.839,12.962L22.802,12.97L22.765,12.977L22.728,12.983L22.691,12.988L22.653,12.992L22.615,12.996L22.577,12.998L22.539,13L22.5,13L22.461,13L22.423,12.998L22.385,12.996L22.347,12.992L22.309,12.988L22.272,12.983L22.235,12.977L22.198,12.97L22.161,12.962L22.125,12.953L22.09,12.943L22.054,12.933L22.019,12.921L21.984,12.909L21.95,12.896L21.916,12.882L21.883,12.867L21.85,12.852L21.817,12.836L21.785,12.819L21.754,12.801L21.722,12.783L21.692,12.764L21.662,12.744L21.632,12.723L21.603,12.702L21.574,12.68L21.546,12.657L21.519,12.634L21.492,12.61L21.465,12.586L21.44,12.56L21.414,12.535L21.39,12.508L21.366,12.481L21.343,12.454L21.32,12.426L21.298,12.397L21.277,12.368L21.256,12.338L21.236,12.308L21.217,12.278L21.199,12.246L21.181,12.215L21.164,12.183L21.148,12.15L21.133,12.117L21.118,12.084L21.104,12.05L21.091,12.016L21.079,11.981L21.067,11.946L21.057,11.91L21.047,11.875L21.038,11.839L21.03,11.802L21.023,11.765L21.017,11.728L21.012,11.691L21.008,11.653L21.004,11.615L21.002,11.577L21,11.539L21,11.5L21,11.461L21.002,11.423L21.004,11.385L21.008,11.347L21.012,11.309L21.017,11.272L21.023,11.235L21.03,11.198L21.038,11.161L21.047,11.125L21.057,11.09L21.067,11.054L21.079,11.019L21.091,10.984L21.104,10.95L21.118,10.916L21.133,10.883L21.148,10.85L21.164,10.817L21.181,10.785L21.199,10.754L21.217,10.722L21.236,10.692L21.256,10.662L21.277,10.632L21.298,10.603L21.32,10.574L21.343,10.546L21.366,10.519L21.39,10.492L21.414,10.465L21.44,10.44L21.465,10.414L21.492,10.39L21.519,10.366L21.546,10.343L21.574,10.32L21.603,10.298L21.632,10.277L21.662,10.256L21.692,10.236L21.722,10.217L21.754,10.199L21.785,10.181L21.817,10.164L21.85,10.148L21.883,10.133L21.916,10.118L21.95,10.104L21.984,10.091L22.019,10.079L22.054,10.067L22.09,10.057L22.125,10.047L22.161,10.038L22.198,10.03L22.235,10.023L22.272,10.017L22.309,10.012L22.347,10.008L22.385,10.004L22.423,10.002L22.461,10L22.5,10L22.539,10ZM22.488,11L22.476,11L22.463,11.001L22.451,11.002L22.438,11.004L22.426,11.006L22.413,11.008L22.401,11.01L22.388,11.013L22.376,11.016L22.364,11.019L22.351,11.023L22.339,11.027L22.327,11.031L22.316,11.035L22.304,11.04L22.293,11.045L22.281,11.05L22.27,11.056L22.26,11.061L22.249,11.067L22.239,11.074L22.228,11.08L22.218,11.086L22.209,11.093L22.199,11.1L22.19,11.107L22.181,11.115L22.172,11.122L22.163,11.13L22.154,11.138L22.146,11.146L22.138,11.154L22.13,11.163L22.122,11.172L22.115,11.181L22.107,11.19L22.1,11.199L22.093,11.209L22.087,11.218L22.08,11.228L22.074,11.239L22.067,11.249L22.061,11.26L22.056,11.27L22.05,11.281L22.045,11.293L22.04,11.304L22.035,11.316L22.031,11.327L22.027,11.339L22.023,11.351L22.019,11.364L22.016,11.376L22.013,11.388L22.01,11.401L22.008,11.413L22.006,11.426L22.004,11.438L22.002,11.451L22.001,11.463L22,11.476L22,11.488L22,11.5L22,11.512L22,11.524L22.001,11.537L22.002,11.549L22.004,11.562L22.006,11.574L22.008,11.587L22.01,11.599L22.013,11.612L22.016,11.624L22.019,11.636L22.023,11.649L22.027,11.661L22.031,11.673L22.035,11.684L22.04,11.696L22.045,11.707L22.05,11.719L22.056,11.73L22.061,11.74L22.067,11.751L22.074,11.761L22.08,11.772L22.086,11.782L22.093,11.791L22.1,11.801L22.107,11.81L22.115,11.819L22.122,11.828L22.13,11.837L22.138,11.846L22.146,11.854L22.154,11.862L22.163,11.87L22.172,11.878L22.181,11.885L22.19,11.893L22.199,11.9L22.209,11.907L22.218,11.914L22.228,11.92L22.239,11.926L22.249,11.933L22.26,11.939L22.27,11.944L22.281,11.95L22.293,11.955L22.304,11.96L22.316,11.965L22.327,11.969L22.339,11.973L22.351,11.977L22.364,11.981L22.376,11.984L22.388,11.987L22.401,11.99L22.413,11.992L22.426,11.994L22.438,11.996L22.451,11.998L22.463,11.999L22.476,12L22.488,12L22.5,12L22.512,12L22.524,12L22.537,11.999L22.549,11.998L22.562,11.996L22.574,11.994L22.587,11.992L22.599,11.99L22.612,11.987L22.624,11.984L22.636,11.981L22.649,11.977L22.661,11.973L22.673,11.969L22.684,11.965L22.696,11.96L22.707,11.955L22.719,11.95L22.73,11.944L22.74,11.939L22.751,11.933L22.761,11.926L22.772,11.92L22.782,11.914L22.791,11.907L22.801,11.9L22.81,11.893L22.819,11.885L22.828,11.878L22.837,11.87L22.846,11.862L22.854,11.854L22.862,11.846L22.87,11.837L22.878,11.828L22.885,11.819L22.893,11.81L22.9,11.801L22.907,11.791L22.914,11.782L22.92,11.772L22.926,11.761L22.933,11.751L22.939,11.74L22.944,11.73L22.95,11.719L22.955,11.707L22.96,11.696L22.965,11.684L22.969,11.673L22.973,11.661L22.977,11.649L22.981,11.636L22.984,11.624L22.987,11.612L22.99,11.599L22.992,11.587L22.994,11.574L22.996,11.562L22.998,11.549L22.999,11.537L23,11.524L23,11.512L23,11.5L23,11.488L23,11.476L22.999,11.463L22.998,11.451L22.996,11.438L22.994,11.426L22.992,11.413L22.99,11.401L22.987,11.388L22.984,11.376L22.981,11.364L22.977,11.351L22.973,11.339L22.969,11.327L22.965,11.316L22.96,11.304L22.955,11.293L22.95,11.281L22.944,11.27L22.939,11.26L22.933,11.249L22.926,11.239L22.92,11.228L22.913,11.218L22.907,11.209L22.9,11.199L22.893,11.19L22.885,11.181L22.878,11.172L22.87,11.163L22.862,11.154L22.854,11.146L22.846,11.138L22.837,11.13L22.828,11.122L22.819,11.115L22.81,11.107L22.801,11.1L22.791,11.093L22.782,11.086L22.772,11.08L22.761,11.074L22.751,11.067L22.74,11.061L22.73,11.056L22.719,11.05L22.707,11.045L22.696,11.04L22.684,11.035L22.673,11.031L22.661,11.027L22.649,11.023L22.636,11.019L22.624,11.016L22.612,11.013L22.599,11.01L22.587,11.008L22.574,11.006L22.562,11.004L22.549,11.002L22.537,11.001L22.524,11L22.512,11L22.5,11L22.488,11Z"/>
    </g>
</svg>
